{
	"asset":
	{
		"version": "2.0",
		"generator": "Unreal Engine 5.6.1"
	},
	"scene": 0,
	"accessors": [
		{
			"bufferView": 0,
			"count": 144,
			"type": "SCALAR",
			"componentType": 5121
		},
		{
			"bufferView": 1,
			"count": 96,
			"type": "VEC3",
			"componentType": 5126,
			"min": [ -4.88122225, -4.88122225, 2.02792358 ],
			"max": [ 4.88122225, 4.88122225, 2.09669495 ]
		},
		{
			"bufferView": 2,
			"count": 96,
			"type": "VEC3",
			"componentType": 5126
		},
		{
			"bufferView": 3,
			"count": 96,
			"type": "VEC4",
			"componentType": 5126
		},
		{
			"bufferView": 4,
			"count": 96,
			"type": "VEC2",
			"componentType": 5126
		},
		{
			"bufferView": 5,
			"count": 96,
			"type": "VEC2",
			"componentType": 5126
		},
		{
			"bufferView": 6,
			"count": 4083,
			"type": "SCALAR",
			"componentType": 5123
		},
		{
			"bufferView": 7,
			"count": 1657,
			"type": "VEC3",
			"componentType": 5126,
			"min": [ -4.97799683, -4.97800255, -0.000295330363 ],
			"max": [ 4.97801113, 4.97801113, 2.37297916 ]
		},
		{
			"bufferView": 8,
			"count": 1657,
			"type": "VEC3",
			"componentType": 5126
		},
		{
			"bufferView": 9,
			"count": 1657,
			"type": "VEC4",
			"componentType": 5126
		},
		{
			"bufferView": 10,
			"count": 1657,
			"type": "VEC2",
			"componentType": 5126
		},
		{
			"bufferView": 11,
			"count": 1657,
			"type": "VEC2",
			"componentType": 5126
		}
	],
	"buffers": [
		{
			"uri": "SM_windmill_blades_01.bin",
			"byteLength": 106480
		}
	],
	"bufferViews": [
		{
			"buffer": 0,
			"byteLength": 144,
			"target": 34963
		},
		{
			"buffer": 0,
			"byteLength": 1152,
			"byteOffset": 144,
			"target": 34962
		},
		{
			"buffer": 0,
			"byteLength": 1152,
			"byteOffset": 1296,
			"target": 34962
		},
		{
			"buffer": 0,
			"byteLength": 1536,
			"byteOffset": 2448,
			"target": 34962
		},
		{
			"buffer": 0,
			"byteLength": 768,
			"byteOffset": 3984,
			"target": 34962
		},
		{
			"buffer": 0,
			"byteLength": 768,
			"byteOffset": 4752,
			"target": 34962
		},
		{
			"buffer": 0,
			"byteLength": 8166,
			"byteOffset": 5520,
			"target": 34963
		},
		{
			"buffer": 0,
			"byteLength": 19884,
			"byteOffset": 13688,
			"target": 34962
		},
		{
			"buffer": 0,
			"byteLength": 19884,
			"byteOffset": 33572,
			"target": 34962
		},
		{
			"buffer": 0,
			"byteLength": 26512,
			"byteOffset": 53456,
			"target": 34962
		},
		{
			"buffer": 0,
			"byteLength": 13256,
			"byteOffset": 79968,
			"target": 34962
		},
		{
			"buffer": 0,
			"byteLength": 13256,
			"byteOffset": 93224,
			"target": 34962
		}
	],
	"images": [
		{
			"uri": "M_Styl_Wall_Plaster_SM_windmill_blades_01_BaseColor.png"
		},
		{
			"uri": "M_Styl_Wall_Plaster_SM_windmill_blades_01_MetallicRoughness.png"
		},
		{
			"uri": "M_Styl_Wall_Plaster_SM_windmill_blades_01_Normal.png"
		},
		{
			"uri": "M_Styl_Wall_Plaster_SM_windmill_blades_01_Occlusion.png"
		},
		{
			"uri": "MI_Wood_Trim_BaseColor.png"
		},
		{
			"uri": "MI_Wood_Trim_MetallicRoughness.png"
		},
		{
			"uri": "MI_Wood_Trim_Occlusion.png"
		},
		{
			"uri": "T_Wood_Trim_N.png"
		}
	],
	"materials": [
		{
			"name": "M_Styl_Wall_Plaster_SM_windmill_blades_01",
			"pbrMetallicRoughness":
			{
				"baseColorTexture":
				{
					"index": 0,
					"texCoord": 1,
					"extensions":
					{
						"KHR_texture_transform":
						{
							"offset": [ -0.00860419869, -0.00831818487 ],
							"scale": [ 1.06695318, 1.03148639 ]
						}
					}
				},
				"metallicRoughnessTexture":
				{
					"index": 1,
					"texCoord": 1,
					"extensions":
					{
						"KHR_texture_transform":
						{
							"offset": [ -0.00860419869, -0.00831818487 ],
							"scale": [ 1.06695318, 1.03148639 ]
						}
					}
				}
			},
			"normalTexture":
			{
				"index": 2,
				"texCoord": 1,
				"extensions":
				{
					"KHR_texture_transform":
					{
						"offset": [ -0.00860419869, -0.00831818487 ],
						"scale": [ 1.06695318, 1.03148639 ]
					}
				}
			},
			"occlusionTexture":
			{
				"index": 3,
				"texCoord": 1,
				"extensions":
				{
					"KHR_texture_transform":
					{
						"offset": [ -0.00860419869, -0.00831818487 ],
						"scale": [ 1.06695318, 1.03148639 ]
					}
				}
			}
		},
		{
			"name": "MI_Wood_Trim",
			"pbrMetallicRoughness":
			{
				"baseColorTexture":
				{
					"index": 4
				},
				"metallicRoughnessTexture":
				{
					"index": 5
				}
			},
			"normalTexture":
			{
				"index": 6
			},
			"occlusionTexture":
			{
				"index": 7
			}
		}
	],
	"meshes": [
		{
			"name": "SM_windmill_blades_01",
			"primitives": [
				{
					"attributes":
					{
						"POSITION": 1,
						"NORMAL": 2,
						"TANGENT": 3,
						"TEXCOORD_0": 4,
						"TEXCOORD_1": 5
					},
					"indices": 0,
					"material": 0
				},
				{
					"attributes":
					{
						"POSITION": 7,
						"NORMAL": 8,
						"TANGENT": 9,
						"TEXCOORD_0": 10,
						"TEXCOORD_1": 11
					},
					"indices": 6,
					"material": 1
				}
			]
		}
	],
	"nodes": [
		{
			"mesh": 0
		}
	],
	"samplers": [
		{
			"minFilter": 9987,
			"magFilter": 9729
		}
	],
	"scenes": [
		{
			"nodes": [ 0 ]
		}
	],
	"textures": [
		{
			"name": "M_Styl_Wall_Plaster_SM_windmill_blades_01_BaseColor",
			"sampler": 0,
			"source": 0
		},
		{
			"name": "M_Styl_Wall_Plaster_SM_windmill_blades_01_MetallicRoughness",
			"sampler": 0,
			"source": 1
		},
		{
			"name": "M_Styl_Wall_Plaster_SM_windmill_blades_01_Normal",
			"sampler": 0,
			"source": 2
		},
		{
			"name": "M_Styl_Wall_Plaster_SM_windmill_blades_01_Occlusion",
			"sampler": 0,
			"source": 3
		},
		{
			"name": "MI_Wood_Trim_BaseColor",
			"sampler": 0,
			"source": 4
		},
		{
			"name": "MI_Wood_Trim_MetallicRoughness",
			"sampler": 0,
			"source": 5
		},
		{
			"name": "T_Wood_Trim_N",
			"sampler": 0,
			"source": 7
		},
		{
			"name": "MI_Wood_Trim_Occlusion",
			"sampler": 0,
			"source": 6
		}
	],
	"extensionsUsed": [
		"KHR_texture_transform"
	]
}