{
	"asset":
	{
		"version": "2.0",
		"generator": "Unreal Engine 5.6.1"
	},
	"scene": 0,
	"accessors": [
		{
			"bufferView": 0,
			"count": 66,
			"type": "MAT4",
			"componentType": 5126
		},
		{
			"bufferView": 1,
			"count": 51,
			"type": "SCALAR",
			"componentType": 5126,
			"min": [ 0 ],
			"max": [ 1.66666651 ]
		},
		{
			"bufferView": 2,
			"count": 51,
			"type": "VEC3",
			"componentType": 5126
		},
		{
			"bufferView": 3,
			"count": 51,
			"type": "VEC4",
			"componentType": 5126
		},
		{
			"bufferView": 4,
			"count": 51,
			"type": "VEC3",
			"componentType": 5126
		},
		{
			"bufferView": 5,
			"count": 51,
			"type": "VEC3",
			"componentType": 5126
		},
		{
			"bufferView": 6,
			"count": 51,
			"type": "VEC4",
			"componentType": 5126
		},
		{
			"bufferView": 7,
			"count": 51,
			"type": "VEC3",
			"componentType": 5126
		},
		{
			"bufferView": 8,
			"count": 51,
			"type": "VEC3",
			"componentType": 5126
		},
		{
			"bufferView": 9,
			"count": 51,
			"type": "VEC4",
			"componentType": 5126
		},
		{
			"bufferView": 10,
			"count": 51,
			"type": "VEC3",
			"componentType": 5126
		},
		{
			"bufferView": 11,
			"count": 51,
			"type": "VEC3",
			"componentType": 5126
		},
		{
			"bufferView": 12,
			"count": 51,
			"type": "VEC4",
			"componentType": 5126
		},
		{
			"bufferView": 13,
			"count": 51,
			"type": "VEC3",
			"componentType": 5126
		},
		{
			"bufferView": 14,
			"count": 51,
			"type": "VEC3",
			"componentType": 5126
		},
		{
			"bufferView": 15,
			"count": 51,
			"type": "VEC4",
			"componentType": 5126
		},
		{
			"bufferView": 16,
			"count": 51,
			"type": "VEC3",
			"componentType": 5126
		},
		{
			"bufferView": 17,
			"count": 51,
			"type": "VEC3",
			"componentType": 5126
		},
		{
			"bufferView": 18,
			"count": 51,
			"type": "VEC4",
			"componentType": 5126
		},
		{
			"bufferView": 19,
			"count": 51,
			"type": "VEC3",
			"componentType": 5126
		},
		{
			"bufferView": 20,
			"count": 51,
			"type": "VEC3",
			"componentType": 5126
		},
		{
			"bufferView": 21,
			"count": 51,
			"type": "VEC4",
			"componentType": 5126
		},
		{
			"bufferView": 22,
			"count": 51,
			"type": "VEC3",
			"componentType": 5126
		},
		{
			"bufferView": 23,
			"count": 51,
			"type": "VEC3",
			"componentType": 5126
		},
		{
			"bufferView": 24,
			"count": 51,
			"type": "VEC4",
			"componentType": 5126
		},
		{
			"bufferView": 25,
			"count": 51,
			"type": "VEC3",
			"componentType": 5126
		},
		{
			"bufferView": 26,
			"count": 51,
			"type": "VEC3",
			"componentType": 5126
		},
		{
			"bufferView": 27,
			"count": 51,
			"type": "VEC4",
			"componentType": 5126
		},
		{
			"bufferView": 28,
			"count": 51,
			"type": "VEC3",
			"componentType": 5126
		},
		{
			"bufferView": 29,
			"count": 51,
			"type": "VEC3",
			"componentType": 5126
		},
		{
			"bufferView": 30,
			"count": 51,
			"type": "VEC4",
			"componentType": 5126
		},
		{
			"bufferView": 31,
			"count": 51,
			"type": "VEC3",
			"componentType": 5126
		},
		{
			"bufferView": 32,
			"count": 51,
			"type": "VEC3",
			"componentType": 5126
		},
		{
			"bufferView": 33,
			"count": 51,
			"type": "VEC4",
			"componentType": 5126
		},
		{
			"bufferView": 34,
			"count": 51,
			"type": "VEC3",
			"componentType": 5126
		},
		{
			"bufferView": 35,
			"count": 51,
			"type": "VEC3",
			"componentType": 5126
		},
		{
			"bufferView": 36,
			"count": 51,
			"type": "VEC4",
			"componentType": 5126
		},
		{
			"bufferView": 37,
			"count": 51,
			"type": "VEC3",
			"componentType": 5126
		},
		{
			"bufferView": 38,
			"count": 51,
			"type": "VEC3",
			"componentType": 5126
		},
		{
			"bufferView": 39,
			"count": 51,
			"type": "VEC4",
			"componentType": 5126
		},
		{
			"bufferView": 40,
			"count": 51,
			"type": "VEC3",
			"componentType": 5126
		},
		{
			"bufferView": 41,
			"count": 51,
			"type": "VEC3",
			"componentType": 5126
		},
		{
			"bufferView": 42,
			"count": 51,
			"type": "VEC4",
			"componentType": 5126
		},
		{
			"bufferView": 43,
			"count": 51,
			"type": "VEC3",
			"componentType": 5126
		},
		{
			"bufferView": 44,
			"count": 51,
			"type": "VEC3",
			"componentType": 5126
		},
		{
			"bufferView": 45,
			"count": 51,
			"type": "VEC4",
			"componentType": 5126
		},
		{
			"bufferView": 46,
			"count": 51,
			"type": "VEC3",
			"componentType": 5126
		},
		{
			"bufferView": 47,
			"count": 51,
			"type": "VEC3",
			"componentType": 5126
		},
		{
			"bufferView": 48,
			"count": 51,
			"type": "VEC4",
			"componentType": 5126
		},
		{
			"bufferView": 49,
			"count": 51,
			"type": "VEC3",
			"componentType": 5126
		},
		{
			"bufferView": 50,
			"count": 51,
			"type": "VEC3",
			"componentType": 5126
		},
		{
			"bufferView": 51,
			"count": 51,
			"type": "VEC4",
			"componentType": 5126
		},
		{
			"bufferView": 52,
			"count": 51,
			"type": "VEC3",
			"componentType": 5126
		},
		{
			"bufferView": 53,
			"count": 51,
			"type": "VEC3",
			"componentType": 5126
		},
		{
			"bufferView": 54,
			"count": 51,
			"type": "VEC4",
			"componentType": 5126
		},
		{
			"bufferView": 55,
			"count": 51,
			"type": "VEC3",
			"componentType": 5126
		},
		{
			"bufferView": 56,
			"count": 51,
			"type": "VEC3",
			"componentType": 5126
		},
		{
			"bufferView": 57,
			"count": 51,
			"type": "VEC4",
			"componentType": 5126
		},
		{
			"bufferView": 58,
			"count": 51,
			"type": "VEC3",
			"componentType": 5126
		},
		{
			"bufferView": 59,
			"count": 51,
			"type": "VEC3",
			"componentType": 5126
		},
		{
			"bufferView": 60,
			"count": 51,
			"type": "VEC4",
			"componentType": 5126
		},
		{
			"bufferView": 61,
			"count": 51,
			"type": "VEC3",
			"componentType": 5126
		},
		{
			"bufferView": 62,
			"count": 51,
			"type": "VEC3",
			"componentType": 5126
		},
		{
			"bufferView": 63,
			"count": 51,
			"type": "VEC4",
			"componentType": 5126
		},
		{
			"bufferView": 64,
			"count": 51,
			"type": "VEC3",
			"componentType": 5126
		},
		{
			"bufferView": 65,
			"count": 51,
			"type": "VEC3",
			"componentType": 5126
		},
		{
			"bufferView": 66,
			"count": 51,
			"type": "VEC4",
			"componentType": 5126
		},
		{
			"bufferView": 67,
			"count": 51,
			"type": "VEC3",
			"componentType": 5126
		},
		{
			"bufferView": 68,
			"count": 51,
			"type": "VEC3",
			"componentType": 5126
		},
		{
			"bufferView": 69,
			"count": 51,
			"type": "VEC4",
			"componentType": 5126
		},
		{
			"bufferView": 70,
			"count": 51,
			"type": "VEC3",
			"componentType": 5126
		},
		{
			"bufferView": 71,
			"count": 51,
			"type": "VEC3",
			"componentType": 5126
		},
		{
			"bufferView": 72,
			"count": 51,
			"type": "VEC4",
			"componentType": 5126
		},
		{
			"bufferView": 73,
			"count": 51,
			"type": "VEC3",
			"componentType": 5126
		},
		{
			"bufferView": 74,
			"count": 51,
			"type": "VEC3",
			"componentType": 5126
		},
		{
			"bufferView": 75,
			"count": 51,
			"type": "VEC4",
			"componentType": 5126
		},
		{
			"bufferView": 76,
			"count": 51,
			"type": "VEC3",
			"componentType": 5126
		},
		{
			"bufferView": 77,
			"count": 51,
			"type": "VEC3",
			"componentType": 5126
		},
		{
			"bufferView": 78,
			"count": 51,
			"type": "VEC4",
			"componentType": 5126
		},
		{
			"bufferView": 79,
			"count": 51,
			"type": "VEC3",
			"componentType": 5126
		},
		{
			"bufferView": 80,
			"count": 51,
			"type": "VEC3",
			"componentType": 5126
		},
		{
			"bufferView": 81,
			"count": 51,
			"type": "VEC4",
			"componentType": 5126
		},
		{
			"bufferView": 82,
			"count": 51,
			"type": "VEC3",
			"componentType": 5126
		},
		{
			"bufferView": 83,
			"count": 51,
			"type": "VEC3",
			"componentType": 5126
		},
		{
			"bufferView": 84,
			"count": 51,
			"type": "VEC4",
			"componentType": 5126
		},
		{
			"bufferView": 85,
			"count": 51,
			"type": "VEC3",
			"componentType": 5126
		},
		{
			"bufferView": 86,
			"count": 51,
			"type": "VEC3",
			"componentType": 5126
		},
		{
			"bufferView": 87,
			"count": 51,
			"type": "VEC4",
			"componentType": 5126
		},
		{
			"bufferView": 88,
			"count": 51,
			"type": "VEC3",
			"componentType": 5126
		},
		{
			"bufferView": 89,
			"count": 51,
			"type": "VEC3",
			"componentType": 5126
		},
		{
			"bufferView": 90,
			"count": 51,
			"type": "VEC4",
			"componentType": 5126
		},
		{
			"bufferView": 91,
			"count": 51,
			"type": "VEC3",
			"componentType": 5126
		},
		{
			"bufferView": 92,
			"count": 51,
			"type": "VEC3",
			"componentType": 5126
		},
		{
			"bufferView": 93,
			"count": 51,
			"type": "VEC4",
			"componentType": 5126
		},
		{
			"bufferView": 94,
			"count": 51,
			"type": "VEC3",
			"componentType": 5126
		},
		{
			"bufferView": 95,
			"count": 51,
			"type": "VEC3",
			"componentType": 5126
		},
		{
			"bufferView": 96,
			"count": 51,
			"type": "VEC4",
			"componentType": 5126
		},
		{
			"bufferView": 97,
			"count": 51,
			"type": "VEC3",
			"componentType": 5126
		},
		{
			"bufferView": 98,
			"count": 51,
			"type": "VEC3",
			"componentType": 5126
		},
		{
			"bufferView": 99,
			"count": 51,
			"type": "VEC4",
			"componentType": 5126
		},
		{
			"bufferView": 100,
			"count": 51,
			"type": "VEC3",
			"componentType": 5126
		},
		{
			"bufferView": 101,
			"count": 51,
			"type": "VEC3",
			"componentType": 5126
		},
		{
			"bufferView": 102,
			"count": 51,
			"type": "VEC4",
			"componentType": 5126
		},
		{
			"bufferView": 103,
			"count": 51,
			"type": "VEC3",
			"componentType": 5126
		},
		{
			"bufferView": 104,
			"count": 51,
			"type": "VEC3",
			"componentType": 5126
		},
		{
			"bufferView": 105,
			"count": 51,
			"type": "VEC4",
			"componentType": 5126
		},
		{
			"bufferView": 106,
			"count": 51,
			"type": "VEC3",
			"componentType": 5126
		},
		{
			"bufferView": 107,
			"count": 51,
			"type": "VEC3",
			"componentType": 5126
		},
		{
			"bufferView": 108,
			"count": 51,
			"type": "VEC4",
			"componentType": 5126
		},
		{
			"bufferView": 109,
			"count": 51,
			"type": "VEC3",
			"componentType": 5126
		},
		{
			"bufferView": 110,
			"count": 51,
			"type": "VEC3",
			"componentType": 5126
		},
		{
			"bufferView": 111,
			"count": 51,
			"type": "VEC4",
			"componentType": 5126
		},
		{
			"bufferView": 112,
			"count": 51,
			"type": "VEC3",
			"componentType": 5126
		},
		{
			"bufferView": 113,
			"count": 51,
			"type": "VEC3",
			"componentType": 5126
		},
		{
			"bufferView": 114,
			"count": 51,
			"type": "VEC4",
			"componentType": 5126
		},
		{
			"bufferView": 115,
			"count": 51,
			"type": "VEC3",
			"componentType": 5126
		},
		{
			"bufferView": 116,
			"count": 51,
			"type": "VEC3",
			"componentType": 5126
		},
		{
			"bufferView": 117,
			"count": 51,
			"type": "VEC4",
			"componentType": 5126
		},
		{
			"bufferView": 118,
			"count": 51,
			"type": "VEC3",
			"componentType": 5126
		},
		{
			"bufferView": 119,
			"count": 51,
			"type": "VEC3",
			"componentType": 5126
		},
		{
			"bufferView": 120,
			"count": 51,
			"type": "VEC4",
			"componentType": 5126
		},
		{
			"bufferView": 121,
			"count": 51,
			"type": "VEC3",
			"componentType": 5126
		},
		{
			"bufferView": 122,
			"count": 51,
			"type": "VEC3",
			"componentType": 5126
		},
		{
			"bufferView": 123,
			"count": 51,
			"type": "VEC4",
			"componentType": 5126
		},
		{
			"bufferView": 124,
			"count": 51,
			"type": "VEC3",
			"componentType": 5126
		},
		{
			"bufferView": 125,
			"count": 51,
			"type": "VEC3",
			"componentType": 5126
		},
		{
			"bufferView": 126,
			"count": 51,
			"type": "VEC4",
			"componentType": 5126
		},
		{
			"bufferView": 127,
			"count": 51,
			"type": "VEC3",
			"componentType": 5126
		},
		{
			"bufferView": 128,
			"count": 51,
			"type": "VEC3",
			"componentType": 5126
		},
		{
			"bufferView": 129,
			"count": 51,
			"type": "VEC4",
			"componentType": 5126
		},
		{
			"bufferView": 130,
			"count": 51,
			"type": "VEC3",
			"componentType": 5126
		},
		{
			"bufferView": 131,
			"count": 51,
			"type": "VEC3",
			"componentType": 5126
		},
		{
			"bufferView": 132,
			"count": 51,
			"type": "VEC4",
			"componentType": 5126
		},
		{
			"bufferView": 133,
			"count": 51,
			"type": "VEC3",
			"componentType": 5126
		},
		{
			"bufferView": 134,
			"count": 51,
			"type": "VEC3",
			"componentType": 5126
		},
		{
			"bufferView": 135,
			"count": 51,
			"type": "VEC4",
			"componentType": 5126
		},
		{
			"bufferView": 136,
			"count": 51,
			"type": "VEC3",
			"componentType": 5126
		},
		{
			"bufferView": 137,
			"count": 51,
			"type": "VEC3",
			"componentType": 5126
		},
		{
			"bufferView": 138,
			"count": 51,
			"type": "VEC4",
			"componentType": 5126
		},
		{
			"bufferView": 139,
			"count": 51,
			"type": "VEC3",
			"componentType": 5126
		},
		{
			"bufferView": 140,
			"count": 51,
			"type": "VEC3",
			"componentType": 5126
		},
		{
			"bufferView": 141,
			"count": 51,
			"type": "VEC4",
			"componentType": 5126
		},
		{
			"bufferView": 142,
			"count": 51,
			"type": "VEC3",
			"componentType": 5126
		},
		{
			"bufferView": 143,
			"count": 51,
			"type": "VEC3",
			"componentType": 5126
		},
		{
			"bufferView": 144,
			"count": 51,
			"type": "VEC4",
			"componentType": 5126
		},
		{
			"bufferView": 145,
			"count": 51,
			"type": "VEC3",
			"componentType": 5126
		},
		{
			"bufferView": 146,
			"count": 51,
			"type": "VEC3",
			"componentType": 5126
		},
		{
			"bufferView": 147,
			"count": 51,
			"type": "VEC4",
			"componentType": 5126
		},
		{
			"bufferView": 148,
			"count": 51,
			"type": "VEC3",
			"componentType": 5126
		},
		{
			"bufferView": 149,
			"count": 51,
			"type": "VEC3",
			"componentType": 5126
		},
		{
			"bufferView": 150,
			"count": 51,
			"type": "VEC4",
			"componentType": 5126
		},
		{
			"bufferView": 151,
			"count": 51,
			"type": "VEC3",
			"componentType": 5126
		},
		{
			"bufferView": 152,
			"count": 51,
			"type": "VEC3",
			"componentType": 5126
		},
		{
			"bufferView": 153,
			"count": 51,
			"type": "VEC4",
			"componentType": 5126
		},
		{
			"bufferView": 154,
			"count": 51,
			"type": "VEC3",
			"componentType": 5126
		},
		{
			"bufferView": 155,
			"count": 51,
			"type": "VEC3",
			"componentType": 5126
		},
		{
			"bufferView": 156,
			"count": 51,
			"type": "VEC4",
			"componentType": 5126
		},
		{
			"bufferView": 157,
			"count": 51,
			"type": "VEC3",
			"componentType": 5126
		},
		{
			"bufferView": 158,
			"count": 51,
			"type": "VEC3",
			"componentType": 5126
		},
		{
			"bufferView": 159,
			"count": 51,
			"type": "VEC4",
			"componentType": 5126
		},
		{
			"bufferView": 160,
			"count": 51,
			"type": "VEC3",
			"componentType": 5126
		},
		{
			"bufferView": 161,
			"count": 51,
			"type": "VEC3",
			"componentType": 5126
		},
		{
			"bufferView": 162,
			"count": 51,
			"type": "VEC4",
			"componentType": 5126
		},
		{
			"bufferView": 163,
			"count": 51,
			"type": "VEC3",
			"componentType": 5126
		},
		{
			"bufferView": 164,
			"count": 51,
			"type": "VEC3",
			"componentType": 5126
		},
		{
			"bufferView": 165,
			"count": 51,
			"type": "VEC4",
			"componentType": 5126
		},
		{
			"bufferView": 166,
			"count": 51,
			"type": "VEC3",
			"componentType": 5126
		},
		{
			"bufferView": 167,
			"count": 51,
			"type": "VEC3",
			"componentType": 5126
		},
		{
			"bufferView": 168,
			"count": 51,
			"type": "VEC4",
			"componentType": 5126
		},
		{
			"bufferView": 169,
			"count": 51,
			"type": "VEC3",
			"componentType": 5126
		},
		{
			"bufferView": 170,
			"count": 51,
			"type": "VEC3",
			"componentType": 5126
		},
		{
			"bufferView": 171,
			"count": 51,
			"type": "VEC4",
			"componentType": 5126
		},
		{
			"bufferView": 172,
			"count": 51,
			"type": "VEC3",
			"componentType": 5126
		},
		{
			"bufferView": 173,
			"count": 51,
			"type": "VEC3",
			"componentType": 5126
		},
		{
			"bufferView": 174,
			"count": 51,
			"type": "VEC4",
			"componentType": 5126
		},
		{
			"bufferView": 175,
			"count": 51,
			"type": "VEC3",
			"componentType": 5126
		},
		{
			"bufferView": 176,
			"count": 51,
			"type": "VEC3",
			"componentType": 5126
		},
		{
			"bufferView": 177,
			"count": 51,
			"type": "VEC4",
			"componentType": 5126
		},
		{
			"bufferView": 178,
			"count": 51,
			"type": "VEC3",
			"componentType": 5126
		},
		{
			"bufferView": 179,
			"count": 51,
			"type": "VEC3",
			"componentType": 5126
		},
		{
			"bufferView": 180,
			"count": 51,
			"type": "VEC4",
			"componentType": 5126
		},
		{
			"bufferView": 181,
			"count": 51,
			"type": "VEC3",
			"componentType": 5126
		},
		{
			"bufferView": 182,
			"count": 51,
			"type": "VEC3",
			"componentType": 5126
		},
		{
			"bufferView": 183,
			"count": 51,
			"type": "VEC4",
			"componentType": 5126
		},
		{
			"bufferView": 184,
			"count": 51,
			"type": "VEC3",
			"componentType": 5126
		},
		{
			"bufferView": 185,
			"count": 51,
			"type": "VEC3",
			"componentType": 5126
		},
		{
			"bufferView": 186,
			"count": 51,
			"type": "VEC4",
			"componentType": 5126
		},
		{
			"bufferView": 187,
			"count": 51,
			"type": "VEC3",
			"componentType": 5126
		},
		{
			"bufferView": 188,
			"count": 51,
			"type": "VEC3",
			"componentType": 5126
		},
		{
			"bufferView": 189,
			"count": 51,
			"type": "VEC4",
			"componentType": 5126
		},
		{
			"bufferView": 190,
			"count": 51,
			"type": "VEC3",
			"componentType": 5126
		},
		{
			"bufferView": 191,
			"count": 51,
			"type": "VEC3",
			"componentType": 5126
		},
		{
			"bufferView": 192,
			"count": 51,
			"type": "VEC4",
			"componentType": 5126
		},
		{
			"bufferView": 193,
			"count": 51,
			"type": "VEC3",
			"componentType": 5126
		},
		{
			"bufferView": 194,
			"count": 51,
			"type": "VEC3",
			"componentType": 5126
		},
		{
			"bufferView": 195,
			"count": 51,
			"type": "VEC4",
			"componentType": 5126
		},
		{
			"bufferView": 196,
			"count": 51,
			"type": "VEC3",
			"componentType": 5126
		},
		{
			"bufferView": 197,
			"count": 51,
			"type": "VEC3",
			"componentType": 5126
		},
		{
			"bufferView": 198,
			"count": 51,
			"type": "VEC4",
			"componentType": 5126
		},
		{
			"bufferView": 199,
			"count": 51,
			"type": "VEC3",
			"componentType": 5126
		}
	],
	"animations": [
		{
			"name": "A_MagicConstruct_Combat_Roar_0",
			"channels": [
				{
					"sampler": 0,
					"target":
					{
						"node": 1,
						"path": "translation"
					}
				},
				{
					"sampler": 1,
					"target":
					{
						"node": 1,
						"path": "rotation"
					}
				},
				{
					"sampler": 2,
					"target":
					{
						"node": 1,
						"path": "scale"
					}
				},
				{
					"sampler": 3,
					"target":
					{
						"node": 2,
						"path": "translation"
					}
				},
				{
					"sampler": 4,
					"target":
					{
						"node": 2,
						"path": "rotation"
					}
				},
				{
					"sampler": 5,
					"target":
					{
						"node": 2,
						"path": "scale"
					}
				},
				{
					"sampler": 6,
					"target":
					{
						"node": 3,
						"path": "translation"
					}
				},
				{
					"sampler": 7,
					"target":
					{
						"node": 3,
						"path": "rotation"
					}
				},
				{
					"sampler": 8,
					"target":
					{
						"node": 3,
						"path": "scale"
					}
				},
				{
					"sampler": 9,
					"target":
					{
						"node": 4,
						"path": "translation"
					}
				},
				{
					"sampler": 10,
					"target":
					{
						"node": 4,
						"path": "rotation"
					}
				},
				{
					"sampler": 11,
					"target":
					{
						"node": 4,
						"path": "scale"
					}
				},
				{
					"sampler": 12,
					"target":
					{
						"node": 5,
						"path": "translation"
					}
				},
				{
					"sampler": 13,
					"target":
					{
						"node": 5,
						"path": "rotation"
					}
				},
				{
					"sampler": 14,
					"target":
					{
						"node": 5,
						"path": "scale"
					}
				},
				{
					"sampler": 15,
					"target":
					{
						"node": 6,
						"path": "translation"
					}
				},
				{
					"sampler": 16,
					"target":
					{
						"node": 6,
						"path": "rotation"
					}
				},
				{
					"sampler": 17,
					"target":
					{
						"node": 6,
						"path": "scale"
					}
				},
				{
					"sampler": 18,
					"target":
					{
						"node": 7,
						"path": "translation"
					}
				},
				{
					"sampler": 19,
					"target":
					{
						"node": 7,
						"path": "rotation"
					}
				},
				{
					"sampler": 20,
					"target":
					{
						"node": 7,
						"path": "scale"
					}
				},
				{
					"sampler": 21,
					"target":
					{
						"node": 8,
						"path": "translation"
					}
				},
				{
					"sampler": 22,
					"target":
					{
						"node": 8,
						"path": "rotation"
					}
				},
				{
					"sampler": 23,
					"target":
					{
						"node": 8,
						"path": "scale"
					}
				},
				{
					"sampler": 24,
					"target":
					{
						"node": 9,
						"path": "translation"
					}
				},
				{
					"sampler": 25,
					"target":
					{
						"node": 9,
						"path": "rotation"
					}
				},
				{
					"sampler": 26,
					"target":
					{
						"node": 9,
						"path": "scale"
					}
				},
				{
					"sampler": 27,
					"target":
					{
						"node": 10,
						"path": "translation"
					}
				},
				{
					"sampler": 28,
					"target":
					{
						"node": 10,
						"path": "rotation"
					}
				},
				{
					"sampler": 29,
					"target":
					{
						"node": 10,
						"path": "scale"
					}
				},
				{
					"sampler": 30,
					"target":
					{
						"node": 11,
						"path": "translation"
					}
				},
				{
					"sampler": 31,
					"target":
					{
						"node": 11,
						"path": "rotation"
					}
				},
				{
					"sampler": 32,
					"target":
					{
						"node": 11,
						"path": "scale"
					}
				},
				{
					"sampler": 33,
					"target":
					{
						"node": 12,
						"path": "translation"
					}
				},
				{
					"sampler": 34,
					"target":
					{
						"node": 12,
						"path": "rotation"
					}
				},
				{
					"sampler": 35,
					"target":
					{
						"node": 12,
						"path": "scale"
					}
				},
				{
					"sampler": 36,
					"target":
					{
						"node": 13,
						"path": "translation"
					}
				},
				{
					"sampler": 37,
					"target":
					{
						"node": 13,
						"path": "rotation"
					}
				},
				{
					"sampler": 38,
					"target":
					{
						"node": 13,
						"path": "scale"
					}
				},
				{
					"sampler": 39,
					"target":
					{
						"node": 14,
						"path": "translation"
					}
				},
				{
					"sampler": 40,
					"target":
					{
						"node": 14,
						"path": "rotation"
					}
				},
				{
					"sampler": 41,
					"target":
					{
						"node": 14,
						"path": "scale"
					}
				},
				{
					"sampler": 42,
					"target":
					{
						"node": 15,
						"path": "translation"
					}
				},
				{
					"sampler": 43,
					"target":
					{
						"node": 15,
						"path": "rotation"
					}
				},
				{
					"sampler": 44,
					"target":
					{
						"node": 15,
						"path": "scale"
					}
				},
				{
					"sampler": 45,
					"target":
					{
						"node": 16,
						"path": "translation"
					}
				},
				{
					"sampler": 46,
					"target":
					{
						"node": 16,
						"path": "rotation"
					}
				},
				{
					"sampler": 47,
					"target":
					{
						"node": 16,
						"path": "scale"
					}
				},
				{
					"sampler": 48,
					"target":
					{
						"node": 17,
						"path": "translation"
					}
				},
				{
					"sampler": 49,
					"target":
					{
						"node": 17,
						"path": "rotation"
					}
				},
				{
					"sampler": 50,
					"target":
					{
						"node": 17,
						"path": "scale"
					}
				},
				{
					"sampler": 51,
					"target":
					{
						"node": 18,
						"path": "translation"
					}
				},
				{
					"sampler": 52,
					"target":
					{
						"node": 18,
						"path": "rotation"
					}
				},
				{
					"sampler": 53,
					"target":
					{
						"node": 18,
						"path": "scale"
					}
				},
				{
					"sampler": 54,
					"target":
					{
						"node": 19,
						"path": "translation"
					}
				},
				{
					"sampler": 55,
					"target":
					{
						"node": 19,
						"path": "rotation"
					}
				},
				{
					"sampler": 56,
					"target":
					{
						"node": 19,
						"path": "scale"
					}
				},
				{
					"sampler": 57,
					"target":
					{
						"node": 20,
						"path": "translation"
					}
				},
				{
					"sampler": 58,
					"target":
					{
						"node": 20,
						"path": "rotation"
					}
				},
				{
					"sampler": 59,
					"target":
					{
						"node": 20,
						"path": "scale"
					}
				},
				{
					"sampler": 60,
					"target":
					{
						"node": 21,
						"path": "translation"
					}
				},
				{
					"sampler": 61,
					"target":
					{
						"node": 21,
						"path": "rotation"
					}
				},
				{
					"sampler": 62,
					"target":
					{
						"node": 21,
						"path": "scale"
					}
				},
				{
					"sampler": 63,
					"target":
					{
						"node": 22,
						"path": "translation"
					}
				},
				{
					"sampler": 64,
					"target":
					{
						"node": 22,
						"path": "rotation"
					}
				},
				{
					"sampler": 65,
					"target":
					{
						"node": 22,
						"path": "scale"
					}
				},
				{
					"sampler": 66,
					"target":
					{
						"node": 23,
						"path": "translation"
					}
				},
				{
					"sampler": 67,
					"target":
					{
						"node": 23,
						"path": "rotation"
					}
				},
				{
					"sampler": 68,
					"target":
					{
						"node": 23,
						"path": "scale"
					}
				},
				{
					"sampler": 69,
					"target":
					{
						"node": 24,
						"path": "translation"
					}
				},
				{
					"sampler": 70,
					"target":
					{
						"node": 24,
						"path": "rotation"
					}
				},
				{
					"sampler": 71,
					"target":
					{
						"node": 24,
						"path": "scale"
					}
				},
				{
					"sampler": 72,
					"target":
					{
						"node": 25,
						"path": "translation"
					}
				},
				{
					"sampler": 73,
					"target":
					{
						"node": 25,
						"path": "rotation"
					}
				},
				{
					"sampler": 74,
					"target":
					{
						"node": 25,
						"path": "scale"
					}
				},
				{
					"sampler": 75,
					"target":
					{
						"node": 26,
						"path": "translation"
					}
				},
				{
					"sampler": 76,
					"target":
					{
						"node": 26,
						"path": "rotation"
					}
				},
				{
					"sampler": 77,
					"target":
					{
						"node": 26,
						"path": "scale"
					}
				},
				{
					"sampler": 78,
					"target":
					{
						"node": 27,
						"path": "translation"
					}
				},
				{
					"sampler": 79,
					"target":
					{
						"node": 27,
						"path": "rotation"
					}
				},
				{
					"sampler": 80,
					"target":
					{
						"node": 27,
						"path": "scale"
					}
				},
				{
					"sampler": 81,
					"target":
					{
						"node": 28,
						"path": "translation"
					}
				},
				{
					"sampler": 82,
					"target":
					{
						"node": 28,
						"path": "rotation"
					}
				},
				{
					"sampler": 83,
					"target":
					{
						"node": 28,
						"path": "scale"
					}
				},
				{
					"sampler": 84,
					"target":
					{
						"node": 29,
						"path": "translation"
					}
				},
				{
					"sampler": 85,
					"target":
					{
						"node": 29,
						"path": "rotation"
					}
				},
				{
					"sampler": 86,
					"target":
					{
						"node": 29,
						"path": "scale"
					}
				},
				{
					"sampler": 87,
					"target":
					{
						"node": 30,
						"path": "translation"
					}
				},
				{
					"sampler": 88,
					"target":
					{
						"node": 30,
						"path": "rotation"
					}
				},
				{
					"sampler": 89,
					"target":
					{
						"node": 30,
						"path": "scale"
					}
				},
				{
					"sampler": 90,
					"target":
					{
						"node": 31,
						"path": "translation"
					}
				},
				{
					"sampler": 91,
					"target":
					{
						"node": 31,
						"path": "rotation"
					}
				},
				{
					"sampler": 92,
					"target":
					{
						"node": 31,
						"path": "scale"
					}
				},
				{
					"sampler": 93,
					"target":
					{
						"node": 32,
						"path": "translation"
					}
				},
				{
					"sampler": 94,
					"target":
					{
						"node": 32,
						"path": "rotation"
					}
				},
				{
					"sampler": 95,
					"target":
					{
						"node": 32,
						"path": "scale"
					}
				},
				{
					"sampler": 96,
					"target":
					{
						"node": 33,
						"path": "translation"
					}
				},
				{
					"sampler": 97,
					"target":
					{
						"node": 33,
						"path": "rotation"
					}
				},
				{
					"sampler": 98,
					"target":
					{
						"node": 33,
						"path": "scale"
					}
				},
				{
					"sampler": 99,
					"target":
					{
						"node": 34,
						"path": "translation"
					}
				},
				{
					"sampler": 100,
					"target":
					{
						"node": 34,
						"path": "rotation"
					}
				},
				{
					"sampler": 101,
					"target":
					{
						"node": 34,
						"path": "scale"
					}
				},
				{
					"sampler": 102,
					"target":
					{
						"node": 35,
						"path": "translation"
					}
				},
				{
					"sampler": 103,
					"target":
					{
						"node": 35,
						"path": "rotation"
					}
				},
				{
					"sampler": 104,
					"target":
					{
						"node": 35,
						"path": "scale"
					}
				},
				{
					"sampler": 105,
					"target":
					{
						"node": 36,
						"path": "translation"
					}
				},
				{
					"sampler": 106,
					"target":
					{
						"node": 36,
						"path": "rotation"
					}
				},
				{
					"sampler": 107,
					"target":
					{
						"node": 36,
						"path": "scale"
					}
				},
				{
					"sampler": 108,
					"target":
					{
						"node": 37,
						"path": "translation"
					}
				},
				{
					"sampler": 109,
					"target":
					{
						"node": 37,
						"path": "rotation"
					}
				},
				{
					"sampler": 110,
					"target":
					{
						"node": 37,
						"path": "scale"
					}
				},
				{
					"sampler": 111,
					"target":
					{
						"node": 38,
						"path": "translation"
					}
				},
				{
					"sampler": 112,
					"target":
					{
						"node": 38,
						"path": "rotation"
					}
				},
				{
					"sampler": 113,
					"target":
					{
						"node": 38,
						"path": "scale"
					}
				},
				{
					"sampler": 114,
					"target":
					{
						"node": 39,
						"path": "translation"
					}
				},
				{
					"sampler": 115,
					"target":
					{
						"node": 39,
						"path": "rotation"
					}
				},
				{
					"sampler": 116,
					"target":
					{
						"node": 39,
						"path": "scale"
					}
				},
				{
					"sampler": 117,
					"target":
					{
						"node": 40,
						"path": "translation"
					}
				},
				{
					"sampler": 118,
					"target":
					{
						"node": 40,
						"path": "rotation"
					}
				},
				{
					"sampler": 119,
					"target":
					{
						"node": 40,
						"path": "scale"
					}
				},
				{
					"sampler": 120,
					"target":
					{
						"node": 41,
						"path": "translation"
					}
				},
				{
					"sampler": 121,
					"target":
					{
						"node": 41,
						"path": "rotation"
					}
				},
				{
					"sampler": 122,
					"target":
					{
						"node": 41,
						"path": "scale"
					}
				},
				{
					"sampler": 123,
					"target":
					{
						"node": 42,
						"path": "translation"
					}
				},
				{
					"sampler": 124,
					"target":
					{
						"node": 42,
						"path": "rotation"
					}
				},
				{
					"sampler": 125,
					"target":
					{
						"node": 42,
						"path": "scale"
					}
				},
				{
					"sampler": 126,
					"target":
					{
						"node": 43,
						"path": "translation"
					}
				},
				{
					"sampler": 127,
					"target":
					{
						"node": 43,
						"path": "rotation"
					}
				},
				{
					"sampler": 128,
					"target":
					{
						"node": 43,
						"path": "scale"
					}
				},
				{
					"sampler": 129,
					"target":
					{
						"node": 44,
						"path": "translation"
					}
				},
				{
					"sampler": 130,
					"target":
					{
						"node": 44,
						"path": "rotation"
					}
				},
				{
					"sampler": 131,
					"target":
					{
						"node": 44,
						"path": "scale"
					}
				},
				{
					"sampler": 132,
					"target":
					{
						"node": 45,
						"path": "translation"
					}
				},
				{
					"sampler": 133,
					"target":
					{
						"node": 45,
						"path": "rotation"
					}
				},
				{
					"sampler": 134,
					"target":
					{
						"node": 45,
						"path": "scale"
					}
				},
				{
					"sampler": 135,
					"target":
					{
						"node": 46,
						"path": "translation"
					}
				},
				{
					"sampler": 136,
					"target":
					{
						"node": 46,
						"path": "rotation"
					}
				},
				{
					"sampler": 137,
					"target":
					{
						"node": 46,
						"path": "scale"
					}
				},
				{
					"sampler": 138,
					"target":
					{
						"node": 47,
						"path": "translation"
					}
				},
				{
					"sampler": 139,
					"target":
					{
						"node": 47,
						"path": "rotation"
					}
				},
				{
					"sampler": 140,
					"target":
					{
						"node": 47,
						"path": "scale"
					}
				},
				{
					"sampler": 141,
					"target":
					{
						"node": 48,
						"path": "translation"
					}
				},
				{
					"sampler": 142,
					"target":
					{
						"node": 48,
						"path": "rotation"
					}
				},
				{
					"sampler": 143,
					"target":
					{
						"node": 48,
						"path": "scale"
					}
				},
				{
					"sampler": 144,
					"target":
					{
						"node": 49,
						"path": "translation"
					}
				},
				{
					"sampler": 145,
					"target":
					{
						"node": 49,
						"path": "rotation"
					}
				},
				{
					"sampler": 146,
					"target":
					{
						"node": 49,
						"path": "scale"
					}
				},
				{
					"sampler": 147,
					"target":
					{
						"node": 50,
						"path": "translation"
					}
				},
				{
					"sampler": 148,
					"target":
					{
						"node": 50,
						"path": "rotation"
					}
				},
				{
					"sampler": 149,
					"target":
					{
						"node": 50,
						"path": "scale"
					}
				},
				{
					"sampler": 150,
					"target":
					{
						"node": 51,
						"path": "translation"
					}
				},
				{
					"sampler": 151,
					"target":
					{
						"node": 51,
						"path": "rotation"
					}
				},
				{
					"sampler": 152,
					"target":
					{
						"node": 51,
						"path": "scale"
					}
				},
				{
					"sampler": 153,
					"target":
					{
						"node": 52,
						"path": "translation"
					}
				},
				{
					"sampler": 154,
					"target":
					{
						"node": 52,
						"path": "rotation"
					}
				},
				{
					"sampler": 155,
					"target":
					{
						"node": 52,
						"path": "scale"
					}
				},
				{
					"sampler": 156,
					"target":
					{
						"node": 53,
						"path": "translation"
					}
				},
				{
					"sampler": 157,
					"target":
					{
						"node": 53,
						"path": "rotation"
					}
				},
				{
					"sampler": 158,
					"target":
					{
						"node": 53,
						"path": "scale"
					}
				},
				{
					"sampler": 159,
					"target":
					{
						"node": 54,
						"path": "translation"
					}
				},
				{
					"sampler": 160,
					"target":
					{
						"node": 54,
						"path": "rotation"
					}
				},
				{
					"sampler": 161,
					"target":
					{
						"node": 54,
						"path": "scale"
					}
				},
				{
					"sampler": 162,
					"target":
					{
						"node": 55,
						"path": "translation"
					}
				},
				{
					"sampler": 163,
					"target":
					{
						"node": 55,
						"path": "rotation"
					}
				},
				{
					"sampler": 164,
					"target":
					{
						"node": 55,
						"path": "scale"
					}
				},
				{
					"sampler": 165,
					"target":
					{
						"node": 56,
						"path": "translation"
					}
				},
				{
					"sampler": 166,
					"target":
					{
						"node": 56,
						"path": "rotation"
					}
				},
				{
					"sampler": 167,
					"target":
					{
						"node": 56,
						"path": "scale"
					}
				},
				{
					"sampler": 168,
					"target":
					{
						"node": 57,
						"path": "translation"
					}
				},
				{
					"sampler": 169,
					"target":
					{
						"node": 57,
						"path": "rotation"
					}
				},
				{
					"sampler": 170,
					"target":
					{
						"node": 57,
						"path": "scale"
					}
				},
				{
					"sampler": 171,
					"target":
					{
						"node": 58,
						"path": "translation"
					}
				},
				{
					"sampler": 172,
					"target":
					{
						"node": 58,
						"path": "rotation"
					}
				},
				{
					"sampler": 173,
					"target":
					{
						"node": 58,
						"path": "scale"
					}
				},
				{
					"sampler": 174,
					"target":
					{
						"node": 59,
						"path": "translation"
					}
				},
				{
					"sampler": 175,
					"target":
					{
						"node": 59,
						"path": "rotation"
					}
				},
				{
					"sampler": 176,
					"target":
					{
						"node": 59,
						"path": "scale"
					}
				},
				{
					"sampler": 177,
					"target":
					{
						"node": 60,
						"path": "translation"
					}
				},
				{
					"sampler": 178,
					"target":
					{
						"node": 60,
						"path": "rotation"
					}
				},
				{
					"sampler": 179,
					"target":
					{
						"node": 60,
						"path": "scale"
					}
				},
				{
					"sampler": 180,
					"target":
					{
						"node": 61,
						"path": "translation"
					}
				},
				{
					"sampler": 181,
					"target":
					{
						"node": 61,
						"path": "rotation"
					}
				},
				{
					"sampler": 182,
					"target":
					{
						"node": 61,
						"path": "scale"
					}
				},
				{
					"sampler": 183,
					"target":
					{
						"node": 62,
						"path": "translation"
					}
				},
				{
					"sampler": 184,
					"target":
					{
						"node": 62,
						"path": "rotation"
					}
				},
				{
					"sampler": 185,
					"target":
					{
						"node": 62,
						"path": "scale"
					}
				},
				{
					"sampler": 186,
					"target":
					{
						"node": 63,
						"path": "translation"
					}
				},
				{
					"sampler": 187,
					"target":
					{
						"node": 63,
						"path": "rotation"
					}
				},
				{
					"sampler": 188,
					"target":
					{
						"node": 63,
						"path": "scale"
					}
				},
				{
					"sampler": 189,
					"target":
					{
						"node": 64,
						"path": "translation"
					}
				},
				{
					"sampler": 190,
					"target":
					{
						"node": 64,
						"path": "rotation"
					}
				},
				{
					"sampler": 191,
					"target":
					{
						"node": 64,
						"path": "scale"
					}
				},
				{
					"sampler": 192,
					"target":
					{
						"node": 65,
						"path": "translation"
					}
				},
				{
					"sampler": 193,
					"target":
					{
						"node": 65,
						"path": "rotation"
					}
				},
				{
					"sampler": 194,
					"target":
					{
						"node": 65,
						"path": "scale"
					}
				},
				{
					"sampler": 195,
					"target":
					{
						"node": 66,
						"path": "translation"
					}
				},
				{
					"sampler": 196,
					"target":
					{
						"node": 66,
						"path": "rotation"
					}
				},
				{
					"sampler": 197,
					"target":
					{
						"node": 66,
						"path": "scale"
					}
				}
			],
			"samplers": [
				{
					"input": 1,
					"output": 2
				},
				{
					"input": 1,
					"output": 3
				},
				{
					"input": 1,
					"output": 4
				},
				{
					"input": 1,
					"output": 5
				},
				{
					"input": 1,
					"output": 6
				},
				{
					"input": 1,
					"output": 7
				},
				{
					"input": 1,
					"output": 8
				},
				{
					"input": 1,
					"output": 9
				},
				{
					"input": 1,
					"output": 10
				},
				{
					"input": 1,
					"output": 11
				},
				{
					"input": 1,
					"output": 12
				},
				{
					"input": 1,
					"output": 13
				},
				{
					"input": 1,
					"output": 14
				},
				{
					"input": 1,
					"output": 15
				},
				{
					"input": 1,
					"output": 16
				},
				{
					"input": 1,
					"output": 17
				},
				{
					"input": 1,
					"output": 18
				},
				{
					"input": 1,
					"output": 19
				},
				{
					"input": 1,
					"output": 20
				},
				{
					"input": 1,
					"output": 21
				},
				{
					"input": 1,
					"output": 22
				},
				{
					"input": 1,
					"output": 23
				},
				{
					"input": 1,
					"output": 24
				},
				{
					"input": 1,
					"output": 25
				},
				{
					"input": 1,
					"output": 26
				},
				{
					"input": 1,
					"output": 27
				},
				{
					"input": 1,
					"output": 28
				},
				{
					"input": 1,
					"output": 29
				},
				{
					"input": 1,
					"output": 30
				},
				{
					"input": 1,
					"output": 31
				},
				{
					"input": 1,
					"output": 32
				},
				{
					"input": 1,
					"output": 33
				},
				{
					"input": 1,
					"output": 34
				},
				{
					"input": 1,
					"output": 35
				},
				{
					"input": 1,
					"output": 36
				},
				{
					"input": 1,
					"output": 37
				},
				{
					"input": 1,
					"output": 38
				},
				{
					"input": 1,
					"output": 39
				},
				{
					"input": 1,
					"output": 40
				},
				{
					"input": 1,
					"output": 41
				},
				{
					"input": 1,
					"output": 42
				},
				{
					"input": 1,
					"output": 43
				},
				{
					"input": 1,
					"output": 44
				},
				{
					"input": 1,
					"output": 45
				},
				{
					"input": 1,
					"output": 46
				},
				{
					"input": 1,
					"output": 47
				},
				{
					"input": 1,
					"output": 48
				},
				{
					"input": 1,
					"output": 49
				},
				{
					"input": 1,
					"output": 50
				},
				{
					"input": 1,
					"output": 51
				},
				{
					"input": 1,
					"output": 52
				},
				{
					"input": 1,
					"output": 53
				},
				{
					"input": 1,
					"output": 54
				},
				{
					"input": 1,
					"output": 55
				},
				{
					"input": 1,
					"output": 56
				},
				{
					"input": 1,
					"output": 57
				},
				{
					"input": 1,
					"output": 58
				},
				{
					"input": 1,
					"output": 59
				},
				{
					"input": 1,
					"output": 60
				},
				{
					"input": 1,
					"output": 61
				},
				{
					"input": 1,
					"output": 62
				},
				{
					"input": 1,
					"output": 63
				},
				{
					"input": 1,
					"output": 64
				},
				{
					"input": 1,
					"output": 65
				},
				{
					"input": 1,
					"output": 66
				},
				{
					"input": 1,
					"output": 67
				},
				{
					"input": 1,
					"output": 68
				},
				{
					"input": 1,
					"output": 69
				},
				{
					"input": 1,
					"output": 70
				},
				{
					"input": 1,
					"output": 71
				},
				{
					"input": 1,
					"output": 72
				},
				{
					"input": 1,
					"output": 73
				},
				{
					"input": 1,
					"output": 74
				},
				{
					"input": 1,
					"output": 75
				},
				{
					"input": 1,
					"output": 76
				},
				{
					"input": 1,
					"output": 77
				},
				{
					"input": 1,
					"output": 78
				},
				{
					"input": 1,
					"output": 79
				},
				{
					"input": 1,
					"output": 80
				},
				{
					"input": 1,
					"output": 81
				},
				{
					"input": 1,
					"output": 82
				},
				{
					"input": 1,
					"output": 83
				},
				{
					"input": 1,
					"output": 84
				},
				{
					"input": 1,
					"output": 85
				},
				{
					"input": 1,
					"output": 86
				},
				{
					"input": 1,
					"output": 87
				},
				{
					"input": 1,
					"output": 88
				},
				{
					"input": 1,
					"output": 89
				},
				{
					"input": 1,
					"output": 90
				},
				{
					"input": 1,
					"output": 91
				},
				{
					"input": 1,
					"output": 92
				},
				{
					"input": 1,
					"output": 93
				},
				{
					"input": 1,
					"output": 94
				},
				{
					"input": 1,
					"output": 95
				},
				{
					"input": 1,
					"output": 96
				},
				{
					"input": 1,
					"output": 97
				},
				{
					"input": 1,
					"output": 98
				},
				{
					"input": 1,
					"output": 99
				},
				{
					"input": 1,
					"output": 100
				},
				{
					"input": 1,
					"output": 101
				},
				{
					"input": 1,
					"output": 102
				},
				{
					"input": 1,
					"output": 103
				},
				{
					"input": 1,
					"output": 104
				},
				{
					"input": 1,
					"output": 105
				},
				{
					"input": 1,
					"output": 106
				},
				{
					"input": 1,
					"output": 107
				},
				{
					"input": 1,
					"output": 108
				},
				{
					"input": 1,
					"output": 109
				},
				{
					"input": 1,
					"output": 110
				},
				{
					"input": 1,
					"output": 111
				},
				{
					"input": 1,
					"output": 112
				},
				{
					"input": 1,
					"output": 113
				},
				{
					"input": 1,
					"output": 114
				},
				{
					"input": 1,
					"output": 115
				},
				{
					"input": 1,
					"output": 116
				},
				{
					"input": 1,
					"output": 117
				},
				{
					"input": 1,
					"output": 118
				},
				{
					"input": 1,
					"output": 119
				},
				{
					"input": 1,
					"output": 120
				},
				{
					"input": 1,
					"output": 121
				},
				{
					"input": 1,
					"output": 122
				},
				{
					"input": 1,
					"output": 123
				},
				{
					"input": 1,
					"output": 124
				},
				{
					"input": 1,
					"output": 125
				},
				{
					"input": 1,
					"output": 126
				},
				{
					"input": 1,
					"output": 127
				},
				{
					"input": 1,
					"output": 128
				},
				{
					"input": 1,
					"output": 129
				},
				{
					"input": 1,
					"output": 130
				},
				{
					"input": 1,
					"output": 131
				},
				{
					"input": 1,
					"output": 132
				},
				{
					"input": 1,
					"output": 133
				},
				{
					"input": 1,
					"output": 134
				},
				{
					"input": 1,
					"output": 135
				},
				{
					"input": 1,
					"output": 136
				},
				{
					"input": 1,
					"output": 137
				},
				{
					"input": 1,
					"output": 138
				},
				{
					"input": 1,
					"output": 139
				},
				{
					"input": 1,
					"output": 140
				},
				{
					"input": 1,
					"output": 141
				},
				{
					"input": 1,
					"output": 142
				},
				{
					"input": 1,
					"output": 143
				},
				{
					"input": 1,
					"output": 144
				},
				{
					"input": 1,
					"output": 145
				},
				{
					"input": 1,
					"output": 146
				},
				{
					"input": 1,
					"output": 147
				},
				{
					"input": 1,
					"output": 148
				},
				{
					"input": 1,
					"output": 149
				},
				{
					"input": 1,
					"output": 150
				},
				{
					"input": 1,
					"output": 151
				},
				{
					"input": 1,
					"output": 152
				},
				{
					"input": 1,
					"output": 153
				},
				{
					"input": 1,
					"output": 154
				},
				{
					"input": 1,
					"output": 155
				},
				{
					"input": 1,
					"output": 156
				},
				{
					"input": 1,
					"output": 157
				},
				{
					"input": 1,
					"output": 158
				},
				{
					"input": 1,
					"output": 159
				},
				{
					"input": 1,
					"output": 160
				},
				{
					"input": 1,
					"output": 161
				},
				{
					"input": 1,
					"output": 162
				},
				{
					"input": 1,
					"output": 163
				},
				{
					"input": 1,
					"output": 164
				},
				{
					"input": 1,
					"output": 165
				},
				{
					"input": 1,
					"output": 166
				},
				{
					"input": 1,
					"output": 167
				},
				{
					"input": 1,
					"output": 168
				},
				{
					"input": 1,
					"output": 169
				},
				{
					"input": 1,
					"output": 170
				},
				{
					"input": 1,
					"output": 171
				},
				{
					"input": 1,
					"output": 172
				},
				{
					"input": 1,
					"output": 173
				},
				{
					"input": 1,
					"output": 174
				},
				{
					"input": 1,
					"output": 175
				},
				{
					"input": 1,
					"output": 176
				},
				{
					"input": 1,
					"output": 177
				},
				{
					"input": 1,
					"output": 178
				},
				{
					"input": 1,
					"output": 179
				},
				{
					"input": 1,
					"output": 180
				},
				{
					"input": 1,
					"output": 181
				},
				{
					"input": 1,
					"output": 182
				},
				{
					"input": 1,
					"output": 183
				},
				{
					"input": 1,
					"output": 184
				},
				{
					"input": 1,
					"output": 185
				},
				{
					"input": 1,
					"output": 186
				},
				{
					"input": 1,
					"output": 187
				},
				{
					"input": 1,
					"output": 188
				},
				{
					"input": 1,
					"output": 189
				},
				{
					"input": 1,
					"output": 190
				},
				{
					"input": 1,
					"output": 191
				},
				{
					"input": 1,
					"output": 192
				},
				{
					"input": 1,
					"output": 193
				},
				{
					"input": 1,
					"output": 194
				},
				{
					"input": 1,
					"output": 195
				},
				{
					"input": 1,
					"output": 196
				},
				{
					"input": 1,
					"output": 197
				},
				{
					"input": 1,
					"output": 198
				},
				{
					"input": 1,
					"output": 199
				}
			]
		}
	],
	"buffers": [
		{
			"uri": "A_MagicConstruct_Combat_Roar.bin",
			"byteLength": 139068
		}
	],
	"bufferViews": [
		{
			"buffer": 0,
			"byteLength": 4224
		},
		{
			"buffer": 0,
			"byteLength": 204,
			"byteOffset": 4224
		},
		{
			"buffer": 0,
			"byteLength": 612,
			"byteOffset": 4428
		},
		{
			"buffer": 0,
			"byteLength": 816,
			"byteOffset": 5040
		},
		{
			"buffer": 0,
			"byteLength": 612,
			"byteOffset": 5856
		},
		{
			"buffer": 0,
			"byteLength": 612,
			"byteOffset": 6468
		},
		{
			"buffer": 0,
			"byteLength": 816,
			"byteOffset": 7080
		},
		{
			"buffer": 0,
			"byteLength": 612,
			"byteOffset": 7896
		},
		{
			"buffer": 0,
			"byteLength": 612,
			"byteOffset": 8508
		},
		{
			"buffer": 0,
			"byteLength": 816,
			"byteOffset": 9120
		},
		{
			"buffer": 0,
			"byteLength": 612,
			"byteOffset": 9936
		},
		{
			"buffer": 0,
			"byteLength": 612,
			"byteOffset": 10548
		},
		{
			"buffer": 0,
			"byteLength": 816,
			"byteOffset": 11160
		},
		{
			"buffer": 0,
			"byteLength": 612,
			"byteOffset": 11976
		},
		{
			"buffer": 0,
			"byteLength": 612,
			"byteOffset": 12588
		},
		{
			"buffer": 0,
			"byteLength": 816,
			"byteOffset": 13200
		},
		{
			"buffer": 0,
			"byteLength": 612,
			"byteOffset": 14016
		},
		{
			"buffer": 0,
			"byteLength": 612,
			"byteOffset": 14628
		},
		{
			"buffer": 0,
			"byteLength": 816,
			"byteOffset": 15240
		},
		{
			"buffer": 0,
			"byteLength": 612,
			"byteOffset": 16056
		},
		{
			"buffer": 0,
			"byteLength": 612,
			"byteOffset": 16668
		},
		{
			"buffer": 0,
			"byteLength": 816,
			"byteOffset": 17280
		},
		{
			"buffer": 0,
			"byteLength": 612,
			"byteOffset": 18096
		},
		{
			"buffer": 0,
			"byteLength": 612,
			"byteOffset": 18708
		},
		{
			"buffer": 0,
			"byteLength": 816,
			"byteOffset": 19320
		},
		{
			"buffer": 0,
			"byteLength": 612,
			"byteOffset": 20136
		},
		{
			"buffer": 0,
			"byteLength": 612,
			"byteOffset": 20748
		},
		{
			"buffer": 0,
			"byteLength": 816,
			"byteOffset": 21360
		},
		{
			"buffer": 0,
			"byteLength": 612,
			"byteOffset": 22176
		},
		{
			"buffer": 0,
			"byteLength": 612,
			"byteOffset": 22788
		},
		{
			"buffer": 0,
			"byteLength": 816,
			"byteOffset": 23400
		},
		{
			"buffer": 0,
			"byteLength": 612,
			"byteOffset": 24216
		},
		{
			"buffer": 0,
			"byteLength": 612,
			"byteOffset": 24828
		},
		{
			"buffer": 0,
			"byteLength": 816,
			"byteOffset": 25440
		},
		{
			"buffer": 0,
			"byteLength": 612,
			"byteOffset": 26256
		},
		{
			"buffer": 0,
			"byteLength": 612,
			"byteOffset": 26868
		},
		{
			"buffer": 0,
			"byteLength": 816,
			"byteOffset": 27480
		},
		{
			"buffer": 0,
			"byteLength": 612,
			"byteOffset": 28296
		},
		{
			"buffer": 0,
			"byteLength": 612,
			"byteOffset": 28908
		},
		{
			"buffer": 0,
			"byteLength": 816,
			"byteOffset": 29520
		},
		{
			"buffer": 0,
			"byteLength": 612,
			"byteOffset": 30336
		},
		{
			"buffer": 0,
			"byteLength": 612,
			"byteOffset": 30948
		},
		{
			"buffer": 0,
			"byteLength": 816,
			"byteOffset": 31560
		},
		{
			"buffer": 0,
			"byteLength": 612,
			"byteOffset": 32376
		},
		{
			"buffer": 0,
			"byteLength": 612,
			"byteOffset": 32988
		},
		{
			"buffer": 0,
			"byteLength": 816,
			"byteOffset": 33600
		},
		{
			"buffer": 0,
			"byteLength": 612,
			"byteOffset": 34416
		},
		{
			"buffer": 0,
			"byteLength": 612,
			"byteOffset": 35028
		},
		{
			"buffer": 0,
			"byteLength": 816,
			"byteOffset": 35640
		},
		{
			"buffer": 0,
			"byteLength": 612,
			"byteOffset": 36456
		},
		{
			"buffer": 0,
			"byteLength": 612,
			"byteOffset": 37068
		},
		{
			"buffer": 0,
			"byteLength": 816,
			"byteOffset": 37680
		},
		{
			"buffer": 0,
			"byteLength": 612,
			"byteOffset": 38496
		},
		{
			"buffer": 0,
			"byteLength": 612,
			"byteOffset": 39108
		},
		{
			"buffer": 0,
			"byteLength": 816,
			"byteOffset": 39720
		},
		{
			"buffer": 0,
			"byteLength": 612,
			"byteOffset": 40536
		},
		{
			"buffer": 0,
			"byteLength": 612,
			"byteOffset": 41148
		},
		{
			"buffer": 0,
			"byteLength": 816,
			"byteOffset": 41760
		},
		{
			"buffer": 0,
			"byteLength": 612,
			"byteOffset": 42576
		},
		{
			"buffer": 0,
			"byteLength": 612,
			"byteOffset": 43188
		},
		{
			"buffer": 0,
			"byteLength": 816,
			"byteOffset": 43800
		},
		{
			"buffer": 0,
			"byteLength": 612,
			"byteOffset": 44616
		},
		{
			"buffer": 0,
			"byteLength": 612,
			"byteOffset": 45228
		},
		{
			"buffer": 0,
			"byteLength": 816,
			"byteOffset": 45840
		},
		{
			"buffer": 0,
			"byteLength": 612,
			"byteOffset": 46656
		},
		{
			"buffer": 0,
			"byteLength": 612,
			"byteOffset": 47268
		},
		{
			"buffer": 0,
			"byteLength": 816,
			"byteOffset": 47880
		},
		{
			"buffer": 0,
			"byteLength": 612,
			"byteOffset": 48696
		},
		{
			"buffer": 0,
			"byteLength": 612,
			"byteOffset": 49308
		},
		{
			"buffer": 0,
			"byteLength": 816,
			"byteOffset": 49920
		},
		{
			"buffer": 0,
			"byteLength": 612,
			"byteOffset": 50736
		},
		{
			"buffer": 0,
			"byteLength": 612,
			"byteOffset": 51348
		},
		{
			"buffer": 0,
			"byteLength": 816,
			"byteOffset": 51960
		},
		{
			"buffer": 0,
			"byteLength": 612,
			"byteOffset": 52776
		},
		{
			"buffer": 0,
			"byteLength": 612,
			"byteOffset": 53388
		},
		{
			"buffer": 0,
			"byteLength": 816,
			"byteOffset": 54000
		},
		{
			"buffer": 0,
			"byteLength": 612,
			"byteOffset": 54816
		},
		{
			"buffer": 0,
			"byteLength": 612,
			"byteOffset": 55428
		},
		{
			"buffer": 0,
			"byteLength": 816,
			"byteOffset": 56040
		},
		{
			"buffer": 0,
			"byteLength": 612,
			"byteOffset": 56856
		},
		{
			"buffer": 0,
			"byteLength": 612,
			"byteOffset": 57468
		},
		{
			"buffer": 0,
			"byteLength": 816,
			"byteOffset": 58080
		},
		{
			"buffer": 0,
			"byteLength": 612,
			"byteOffset": 58896
		},
		{
			"buffer": 0,
			"byteLength": 612,
			"byteOffset": 59508
		},
		{
			"buffer": 0,
			"byteLength": 816,
			"byteOffset": 60120
		},
		{
			"buffer": 0,
			"byteLength": 612,
			"byteOffset": 60936
		},
		{
			"buffer": 0,
			"byteLength": 612,
			"byteOffset": 61548
		},
		{
			"buffer": 0,
			"byteLength": 816,
			"byteOffset": 62160
		},
		{
			"buffer": 0,
			"byteLength": 612,
			"byteOffset": 62976
		},
		{
			"buffer": 0,
			"byteLength": 612,
			"byteOffset": 63588
		},
		{
			"buffer": 0,
			"byteLength": 816,
			"byteOffset": 64200
		},
		{
			"buffer": 0,
			"byteLength": 612,
			"byteOffset": 65016
		},
		{
			"buffer": 0,
			"byteLength": 612,
			"byteOffset": 65628
		},
		{
			"buffer": 0,
			"byteLength": 816,
			"byteOffset": 66240
		},
		{
			"buffer": 0,
			"byteLength": 612,
			"byteOffset": 67056
		},
		{
			"buffer": 0,
			"byteLength": 612,
			"byteOffset": 67668
		},
		{
			"buffer": 0,
			"byteLength": 816,
			"byteOffset": 68280
		},
		{
			"buffer": 0,
			"byteLength": 612,
			"byteOffset": 69096
		},
		{
			"buffer": 0,
			"byteLength": 612,
			"byteOffset": 69708
		},
		{
			"buffer": 0,
			"byteLength": 816,
			"byteOffset": 70320
		},
		{
			"buffer": 0,
			"byteLength": 612,
			"byteOffset": 71136
		},
		{
			"buffer": 0,
			"byteLength": 612,
			"byteOffset": 71748
		},
		{
			"buffer": 0,
			"byteLength": 816,
			"byteOffset": 72360
		},
		{
			"buffer": 0,
			"byteLength": 612,
			"byteOffset": 73176
		},
		{
			"buffer": 0,
			"byteLength": 612,
			"byteOffset": 73788
		},
		{
			"buffer": 0,
			"byteLength": 816,
			"byteOffset": 74400
		},
		{
			"buffer": 0,
			"byteLength": 612,
			"byteOffset": 75216
		},
		{
			"buffer": 0,
			"byteLength": 612,
			"byteOffset": 75828
		},
		{
			"buffer": 0,
			"byteLength": 816,
			"byteOffset": 76440
		},
		{
			"buffer": 0,
			"byteLength": 612,
			"byteOffset": 77256
		},
		{
			"buffer": 0,
			"byteLength": 612,
			"byteOffset": 77868
		},
		{
			"buffer": 0,
			"byteLength": 816,
			"byteOffset": 78480
		},
		{
			"buffer": 0,
			"byteLength": 612,
			"byteOffset": 79296
		},
		{
			"buffer": 0,
			"byteLength": 612,
			"byteOffset": 79908
		},
		{
			"buffer": 0,
			"byteLength": 816,
			"byteOffset": 80520
		},
		{
			"buffer": 0,
			"byteLength": 612,
			"byteOffset": 81336
		},
		{
			"buffer": 0,
			"byteLength": 612,
			"byteOffset": 81948
		},
		{
			"buffer": 0,
			"byteLength": 816,
			"byteOffset": 82560
		},
		{
			"buffer": 0,
			"byteLength": 612,
			"byteOffset": 83376
		},
		{
			"buffer": 0,
			"byteLength": 612,
			"byteOffset": 83988
		},
		{
			"buffer": 0,
			"byteLength": 816,
			"byteOffset": 84600
		},
		{
			"buffer": 0,
			"byteLength": 612,
			"byteOffset": 85416
		},
		{
			"buffer": 0,
			"byteLength": 612,
			"byteOffset": 86028
		},
		{
			"buffer": 0,
			"byteLength": 816,
			"byteOffset": 86640
		},
		{
			"buffer": 0,
			"byteLength": 612,
			"byteOffset": 87456
		},
		{
			"buffer": 0,
			"byteLength": 612,
			"byteOffset": 88068
		},
		{
			"buffer": 0,
			"byteLength": 816,
			"byteOffset": 88680
		},
		{
			"buffer": 0,
			"byteLength": 612,
			"byteOffset": 89496
		},
		{
			"buffer": 0,
			"byteLength": 612,
			"byteOffset": 90108
		},
		{
			"buffer": 0,
			"byteLength": 816,
			"byteOffset": 90720
		},
		{
			"buffer": 0,
			"byteLength": 612,
			"byteOffset": 91536
		},
		{
			"buffer": 0,
			"byteLength": 612,
			"byteOffset": 92148
		},
		{
			"buffer": 0,
			"byteLength": 816,
			"byteOffset": 92760
		},
		{
			"buffer": 0,
			"byteLength": 612,
			"byteOffset": 93576
		},
		{
			"buffer": 0,
			"byteLength": 612,
			"byteOffset": 94188
		},
		{
			"buffer": 0,
			"byteLength": 816,
			"byteOffset": 94800
		},
		{
			"buffer": 0,
			"byteLength": 612,
			"byteOffset": 95616
		},
		{
			"buffer": 0,
			"byteLength": 612,
			"byteOffset": 96228
		},
		{
			"buffer": 0,
			"byteLength": 816,
			"byteOffset": 96840
		},
		{
			"buffer": 0,
			"byteLength": 612,
			"byteOffset": 97656
		},
		{
			"buffer": 0,
			"byteLength": 612,
			"byteOffset": 98268
		},
		{
			"buffer": 0,
			"byteLength": 816,
			"byteOffset": 98880
		},
		{
			"buffer": 0,
			"byteLength": 612,
			"byteOffset": 99696
		},
		{
			"buffer": 0,
			"byteLength": 612,
			"byteOffset": 100308
		},
		{
			"buffer": 0,
			"byteLength": 816,
			"byteOffset": 100920
		},
		{
			"buffer": 0,
			"byteLength": 612,
			"byteOffset": 101736
		},
		{
			"buffer": 0,
			"byteLength": 612,
			"byteOffset": 102348
		},
		{
			"buffer": 0,
			"byteLength": 816,
			"byteOffset": 102960
		},
		{
			"buffer": 0,
			"byteLength": 612,
			"byteOffset": 103776
		},
		{
			"buffer": 0,
			"byteLength": 612,
			"byteOffset": 104388
		},
		{
			"buffer": 0,
			"byteLength": 816,
			"byteOffset": 105000
		},
		{
			"buffer": 0,
			"byteLength": 612,
			"byteOffset": 105816
		},
		{
			"buffer": 0,
			"byteLength": 612,
			"byteOffset": 106428
		},
		{
			"buffer": 0,
			"byteLength": 816,
			"byteOffset": 107040
		},
		{
			"buffer": 0,
			"byteLength": 612,
			"byteOffset": 107856
		},
		{
			"buffer": 0,
			"byteLength": 612,
			"byteOffset": 108468
		},
		{
			"buffer": 0,
			"byteLength": 816,
			"byteOffset": 109080
		},
		{
			"buffer": 0,
			"byteLength": 612,
			"byteOffset": 109896
		},
		{
			"buffer": 0,
			"byteLength": 612,
			"byteOffset": 110508
		},
		{
			"buffer": 0,
			"byteLength": 816,
			"byteOffset": 111120
		},
		{
			"buffer": 0,
			"byteLength": 612,
			"byteOffset": 111936
		},
		{
			"buffer": 0,
			"byteLength": 612,
			"byteOffset": 112548
		},
		{
			"buffer": 0,
			"byteLength": 816,
			"byteOffset": 113160
		},
		{
			"buffer": 0,
			"byteLength": 612,
			"byteOffset": 113976
		},
		{
			"buffer": 0,
			"byteLength": 612,
			"byteOffset": 114588
		},
		{
			"buffer": 0,
			"byteLength": 816,
			"byteOffset": 115200
		},
		{
			"buffer": 0,
			"byteLength": 612,
			"byteOffset": 116016
		},
		{
			"buffer": 0,
			"byteLength": 612,
			"byteOffset": 116628
		},
		{
			"buffer": 0,
			"byteLength": 816,
			"byteOffset": 117240
		},
		{
			"buffer": 0,
			"byteLength": 612,
			"byteOffset": 118056
		},
		{
			"buffer": 0,
			"byteLength": 612,
			"byteOffset": 118668
		},
		{
			"buffer": 0,
			"byteLength": 816,
			"byteOffset": 119280
		},
		{
			"buffer": 0,
			"byteLength": 612,
			"byteOffset": 120096
		},
		{
			"buffer": 0,
			"byteLength": 612,
			"byteOffset": 120708
		},
		{
			"buffer": 0,
			"byteLength": 816,
			"byteOffset": 121320
		},
		{
			"buffer": 0,
			"byteLength": 612,
			"byteOffset": 122136
		},
		{
			"buffer": 0,
			"byteLength": 612,
			"byteOffset": 122748
		},
		{
			"buffer": 0,
			"byteLength": 816,
			"byteOffset": 123360
		},
		{
			"buffer": 0,
			"byteLength": 612,
			"byteOffset": 124176
		},
		{
			"buffer": 0,
			"byteLength": 612,
			"byteOffset": 124788
		},
		{
			"buffer": 0,
			"byteLength": 816,
			"byteOffset": 125400
		},
		{
			"buffer": 0,
			"byteLength": 612,
			"byteOffset": 126216
		},
		{
			"buffer": 0,
			"byteLength": 612,
			"byteOffset": 126828
		},
		{
			"buffer": 0,
			"byteLength": 816,
			"byteOffset": 127440
		},
		{
			"buffer": 0,
			"byteLength": 612,
			"byteOffset": 128256
		},
		{
			"buffer": 0,
			"byteLength": 612,
			"byteOffset": 128868
		},
		{
			"buffer": 0,
			"byteLength": 816,
			"byteOffset": 129480
		},
		{
			"buffer": 0,
			"byteLength": 612,
			"byteOffset": 130296
		},
		{
			"buffer": 0,
			"byteLength": 612,
			"byteOffset": 130908
		},
		{
			"buffer": 0,
			"byteLength": 816,
			"byteOffset": 131520
		},
		{
			"buffer": 0,
			"byteLength": 612,
			"byteOffset": 132336
		},
		{
			"buffer": 0,
			"byteLength": 612,
			"byteOffset": 132948
		},
		{
			"buffer": 0,
			"byteLength": 816,
			"byteOffset": 133560
		},
		{
			"buffer": 0,
			"byteLength": 612,
			"byteOffset": 134376
		},
		{
			"buffer": 0,
			"byteLength": 612,
			"byteOffset": 134988
		},
		{
			"buffer": 0,
			"byteLength": 816,
			"byteOffset": 135600
		},
		{
			"buffer": 0,
			"byteLength": 612,
			"byteOffset": 136416
		},
		{
			"buffer": 0,
			"byteLength": 612,
			"byteOffset": 137028
		},
		{
			"buffer": 0,
			"byteLength": 816,
			"byteOffset": 137640
		},
		{
			"buffer": 0,
			"byteLength": 612,
			"byteOffset": 138456
		}
	],
	"nodes": [
		{
			"skin": 0,
			"children": [ 1 ]
		},
		{
			"name": "root",
			"children": [ 2, 60, 63 ]
		},
		{
			"name": "pelvis",
			"translation": [ 0, 1.0503937, 0.00283593917 ],
			"rotation": [ -0.00129197421, 0.00129197421, -0.707105577, -0.707105696 ],
			"children": [ 3, 50, 55 ]
		},
		{
			"name": "spine_01",
			"translation": [ 0.159035027, 1.91135765e-08, -0.000581136323 ],
			"rotation": [ -2.69684944e-25, 0.00306057511, -1.32357781e-23, -0.99999541 ],
			"children": [ 4 ]
		},
		{
			"name": "spine_02",
			"translation": [ 0.0900469944, 2.04647392e-08, -0.0185080934 ],
			"rotation": [ -1.5069411e-16, -0.0915204212, 1.38497001e-17, -0.995803177 ],
			"children": [ 5 ]
		},
		{
			"name": "spine_03",
			"translation": [ 0.0814100653, -7.82165391e-12, -0 ],
			"rotation": [ -7.61815411e-09, 0.0797817707, -6.0973343e-10, -0.996812463 ],
			"children": [ 6, 27, 48 ]
		},
		{
			"name": "clavicle_l",
			"translation": [ 0.0864506513, -0.093126826, 0.0634273589 ],
			"rotation": [ -0.313727766, -0.161838606, 0.636901259, -0.68537575 ],
			"children": [ 7 ]
		},
		{
			"name": "upperarm_l",
			"translation": [ 0.180674225, 8.80432126e-05, 0.000933475501 ],
			"rotation": [ -0.157478839, 0.246229067, 0.562208295, -0.773623645 ],
			"children": [ 8, 26 ]
		},
		{
			"name": "lowerarm_l",
			"translation": [ 0.256180555, 0.000566406234, 9.87815802e-05 ],
			"rotation": [ 0.027560344, 0.210151866, 0.0163762048, -0.977143109 ],
			"children": [ 9, 25 ]
		},
		{
			"name": "hand_l",
			"translation": [ 0.327335417, -0.000225982658, 0.000900592771 ],
			"rotation": [ 0.617895067, -0.0106532937, 0.0193719864, -0.785949707 ],
			"children": [ 10, 13, 16, 19, 22 ]
		},
		{
			"name": "index_01_l",
			"translation": [ 0.151373282, -0.0609743111, 0.00355041493 ],
			"rotation": [ 0.0560176931, -0.0416212194, 0.0716873705, -0.994982719 ],
			"children": [ 11 ]
		},
		{
			"name": "index_02_l",
			"translation": [ 0.115808867, -5.26618933e-05, 0.00273433677 ],
			"rotation": [ -0.0117602134, -0.186796606, -0.00389754586, -0.982320487 ],
			"children": [ 12 ]
		},
		{
			"name": "index_03_l",
			"translation": [ 0.0761754587, -0.00262403488, -0.00801063515 ],
			"rotation": [ -0.0120472023, -0.132639468, 0.00539420405, -0.991076469 ]
		},
		{
			"name": "middle_01_l",
			"translation": [ 0.148807451, -0.0177247804, -0.0113228606 ],
			"rotation": [ 0.0969194472, -0.00957281049, 0.0126178619, -0.995166302 ],
			"children": [ 14 ]
		},
		{
			"name": "middle_02_l",
			"translation": [ 0.11809627, -0.00159643171, -0.00731735211 ],
			"rotation": [ 0.0168988388, -0.28351, 0.0111813154, -0.958755195 ],
			"children": [ 15 ]
		},
		{
			"name": "middle_03_l",
			"translation": [ 0.0702244565, -0.00169887533, -0.00618864037 ],
			"rotation": [ 0.00948975794, -0.107969068, -0.022211872, -0.9938609 ]
		},
		{
			"name": "pinky_01_l",
			"translation": [ 0.149105981, 0.0583632253, -0.0421419516 ],
			"rotation": [ 0.147689119, -0.153628573, -0.0675915331, -0.97468853 ],
			"children": [ 17 ]
		},
		{
			"name": "pinky_02_l",
			"translation": [ 0.112464294, 0.000607557304, -0.000693855283 ],
			"rotation": [ -0.0036649215, -0.22402665, 0.0111698974, -0.9745121 ],
			"children": [ 18 ]
		},
		{
			"name": "pinky_03_l",
			"translation": [ 0.052422788, -0.00159692764, -0.00615110388 ],
			"rotation": [ -0.0119384136, -0.25916186, 0.03181969, -0.965235889 ]
		},
		{
			"name": "ring_01_l",
			"translation": [ 0.154364392, 0.0220717713, -0.034862671 ],
			"rotation": [ 0.0535971448, -0.0433497056, 0.00567988353, -0.997605085 ],
			"children": [ 20 ]
		},
		{
			"name": "ring_02_l",
			"translation": [ 0.113050379, 0.000806841825, -0.000111961359 ],
			"rotation": [ 0.114699282, -0.305676907, 0.00357529591, -0.945194662 ],
			"children": [ 21 ]
		},
		{
			"name": "ring_03_l",
			"translation": [ 0.0653599501, -0.000663146959, -0.0083974069 ],
			"rotation": [ -0.00768702663, -0.190931842, 0.0251081511, -0.981252015 ]
		},
		{
			"name": "thumb_01_l",
			"translation": [ 0.0457926169, -0.0529869273, -0.0221570581 ],
			"rotation": [ -0.632669032, 0.0547116213, 0.395495623, -0.663565934 ],
			"children": [ 23 ]
		},
		{
			"name": "thumb_02_l",
			"translation": [ 0.0868582129, 0.000164871206, -0.000442657474 ],
			"rotation": [ -0.0415698402, 0.110447787, 0.257938772, -0.958926916 ],
			"children": [ 24 ]
		},
		{
			"name": "thumb_03_l",
			"translation": [ 0.0510223769, 0.000364532461, 0.000618591323 ],
			"rotation": [ -0.190989986, 0.176871344, -0.00273396075, -0.965521574 ]
		},
		{
			"name": "lowerarm_twist_01_l",
			"translation": [ 0.140000001, 0, -1.90734859e-08 ]
		},
		{
			"name": "upperarm_twist_01_l",
			"translation": [ 0.00499984715, -1.42108544e-16, -3.81469718e-08 ]
		},
		{
			"name": "clavicle_r",
			"translation": [ 0.0864505023, 0.0931267887, 0.0634273589 ],
			"rotation": [ 0.636901498, -0.68537575, 0.313727468, 0.16183883 ],
			"children": [ 28 ]
		},
		{
			"name": "upperarm_r",
			"translation": [ -0.180674151, -8.69750947e-05, -0.000933761592 ],
			"rotation": [ -0.157479033, 0.246229246, 0.562208354, -0.773623466 ],
			"children": [ 29, 47 ]
		},
		{
			"name": "lowerarm_r",
			"translation": [ -0.256179124, -0.000566863979, -9.85336301e-05 ],
			"rotation": [ 0.0275603551, 0.210151866, 0.0163761564, -0.977143109 ],
			"children": [ 30, 46 ]
		},
		{
			"name": "hand_r",
			"translation": [ -0.327334881, 0.000225830066, -0.000900325773 ],
			"rotation": [ 0.617895067, -0.010653303, 0.0193719976, -0.785949707 ],
			"children": [ 31, 34, 37, 40, 43 ]
		},
		{
			"name": "index_01_r",
			"translation": [ -0.151373133, 0.0609743856, -0.00354927056 ],
			"rotation": [ 0.0560176969, -0.0416212454, 0.0716873929, -0.994982719 ],
			"children": [ 32 ]
		},
		{
			"name": "index_02_r",
			"translation": [ -0.115809321, 5.24139396e-05, -0.00273380266 ],
			"rotation": [ -0.0117601156, -0.18679662, -0.00389732164, -0.982320487 ],
			"children": [ 33 ]
		},
		{
			"name": "index_03_r",
			"translation": [ -0.0761751533, 0.00262388214, 0.00800929964 ],
			"rotation": [ -0.0120472061, -0.132639438, 0.00539419614, -0.991076469 ]
		},
		{
			"name": "middle_01_r",
			"translation": [ -0.148807213, 0.0177245997, 0.0113215633 ],
			"rotation": [ 0.0969192013, -0.00957284681, 0.0126178404, -0.995166242 ],
			"children": [ 35 ]
		},
		{
			"name": "middle_02_r",
			"translation": [ -0.118097037, 0.00159612647, 0.00731845852 ],
			"rotation": [ 0.0168985985, -0.28351, 0.0111813396, -0.958755195 ],
			"children": [ 36 ]
		},
		{
			"name": "middle_03_r",
			"translation": [ -0.070224762, 0.00169877999, 0.00618923176 ],
			"rotation": [ 0.00948975887, -0.107969053, -0.022211872, -0.9938609 ]
		},
		{
			"name": "pinky_01_r",
			"translation": [ -0.14910613, -0.0583631136, 0.0421431735 ],
			"rotation": [ 0.147689119, -0.153628573, -0.0675915331, -0.97468853 ],
			"children": [ 38 ]
		},
		{
			"name": "pinky_02_r",
			"translation": [ -0.112462997, -0.000607457128, 0.000691986061 ],
			"rotation": [ -0.00366503792, -0.224026754, 0.011169849, -0.9745121 ],
			"children": [ 39 ]
		},
		{
			"name": "pinky_03_r",
			"translation": [ -0.0524243899, 0.00159679411, 0.00615108479 ],
			"rotation": [ -0.0119384201, -0.25916186, 0.03181969, -0.965235889 ]
		},
		{
			"name": "ring_01_r",
			"translation": [ -0.154365912, -0.022071695, 0.0348647311 ],
			"rotation": [ 0.0535969101, -0.0433496423, 0.00567992777, -0.997605085 ],
			"children": [ 41 ]
		},
		{
			"name": "ring_02_r",
			"translation": [ -0.113049775, -0.00080689427, 0.000111541747 ],
			"rotation": [ 0.114699282, -0.305677027, 0.00357527286, -0.945194602 ],
			"children": [ 42 ]
		},
		{
			"name": "ring_03_r",
			"translation": [ -0.0653589591, 0.000663337705, 0.00839681644 ],
			"rotation": [ -0.00768702896, -0.190931857, 0.025108153, -0.981252015 ]
		},
		{
			"name": "thumb_01_r",
			"translation": [ -0.0457920842, 0.0529873446, 0.0221588127 ],
			"rotation": [ -0.632669091, 0.0547116622, 0.395495504, -0.663565934 ],
			"children": [ 44 ]
		},
		{
			"name": "thumb_02_r",
			"translation": [ -0.0868588239, -0.000165061952, 0.000443305966 ],
			"rotation": [ -0.0415698029, 0.110447578, 0.257938623, -0.958926976 ],
			"children": [ 45 ]
		},
		{
			"name": "thumb_03_r",
			"translation": [ -0.0510205813, -0.000364971143, -0.000619888306 ],
			"rotation": [ -0.190989912, 0.176871106, -0.00273398706, -0.965521634 ]
		},
		{
			"name": "lowerarm_twist_01_r",
			"translation": [ -0.140000001, -1.52587887e-07, -2.28881831e-07 ],
			"rotation": [ 0.117627181, -1.0660087e-08, 4.13762535e-09, -0.993057907 ]
		},
		{
			"name": "upperarm_twist_01_r",
			"translation": [ -0.00499984715, 0, 9.5367426e-08 ],
			"rotation": [ 0.173234895, 1.8476199e-17, -2.4931811e-17, -0.984880567 ]
		},
		{
			"name": "neck_01",
			"translation": [ 0.161693424, 1.94193142e-08, -0.0060252687 ],
			"rotation": [ -2.13956142e-09, 0.136103556, -2.93937125e-10, -0.990694702 ],
			"children": [ 49 ]
		},
		{
			"name": "head",
			"translation": [ 0.186345518, 2.25812347e-08, -0.00680541992 ],
			"rotation": [ 2.77293601e-24, -0.0402799696, -1.3357422e-23, -0.999188423 ]
		},
		{
			"name": "thigh_l",
			"translation": [ -0.0678769648, -0.123430148, -0.0192313921 ],
			"rotation": [ -0.0741747245, 0.0020538962, 0.025835678, -0.996908426 ],
			"children": [ 51, 54 ]
		},
		{
			"name": "calf_l",
			"translation": [ -0.388359904, -5.61237321e-05, -0.00088854786 ],
			"rotation": [ 0.049365785, 0.0633488744, 0.0127017777, -0.996688902 ],
			"children": [ 52, 53 ]
		},
		{
			"name": "calf_twist_01_l",
			"translation": [ -0.204767793, 4.76837148e-09, 1.7763568e-17 ],
			"rotation": [ -0.00280894549, 0.00761267403, -0.00193332508, -0.99996531 ]
		},
		{
			"name": "foot_l",
			"translation": [ -0.58442235, 0.000509843812, -0.00109236711 ],
			"rotation": [ 0.00341516058, -0.146605968, 0.0323484726, -0.988660097 ]
		},
		{
			"name": "thigh_twist_01_l",
			"translation": [ -0.220942378, 9.53674295e-09, -5.96046434e-10 ],
			"rotation": [ 0.0474436954, 0.000491156068, 2.14190259e-05, -0.998873889 ]
		},
		{
			"name": "thigh_r",
			"translation": [ -0.0678762048, 0.123429991, -0.0192313883 ],
			"rotation": [ 0.0258357786, -0.996908426, 0.0741747245, -0.00205396209 ],
			"children": [ 56, 59 ]
		},
		{
			"name": "calf_r",
			"translation": [ 0.388361692, 5.61714151e-05, 0.000888477545 ],
			"rotation": [ 0.049365785, 0.0633486435, 0.0127017582, -0.996688843 ],
			"children": [ 57, 58 ]
		},
		{
			"name": "calf_twist_01_r",
			"translation": [ 0.20476906, -8.881784e-18, -9.53674295e-09 ],
			"rotation": [ -0.00280727865, 0.00761243701, -0.00193378842, -0.99996531 ]
		},
		{
			"name": "foot_r",
			"translation": [ 0.584305465, -0.000517625769, 0.00109686854 ],
			"rotation": [ 0.00341515779, -0.146605745, 0.0323485248, -0.988660038 ]
		},
		{
			"name": "thigh_twist_01_r",
			"translation": [ 0.220942453, 1.43051144e-08, -3.57627861e-09 ],
			"rotation": [ 0.0474453531, 0.000491133309, 2.18961432e-05, -0.998873711 ]
		},
		{
			"name": "ik_foot_root",
			"children": [ 61, 62 ]
		},
		{
			"name": "ik_foot_l",
			"translation": [ 0.0506297871, 0.0176102761, -0.0944305584 ],
			"rotation": [ 0.0388957374, -0.0784127861, -0.651832283, -0.753294945 ]
		},
		{
			"name": "ik_foot_r",
			"translation": [ -0.0506323725, 0.0177256856, -0.0944195464 ],
			"rotation": [ -0.753294945, 0.651832223, -0.0784127936, -0.0388958417 ]
		},
		{
			"name": "ik_hand_root",
			"children": [ 64 ]
		},
		{
			"name": "ik_hand_gun",
			"translation": [ -0.413360953, 0.949415863, -0.0559689179 ],
			"rotation": [ -0.804931104, -0.582489848, 0.0916258097, -0.0663050488 ],
			"children": [ 65, 66 ]
		},
		{
			"name": "ik_hand_l",
			"translation": [ 0.251835704, 0.785285294, -0.0580858216 ],
			"rotation": [ -0.304620862, -0.949878812, 0.0702605322, -4.11119778e-08 ]
		},
		{
			"name": "ik_hand_r"
		}
	],
	"scenes": [
		{
			"nodes": [ 0 ]
		}
	],
	"skins": [
		{
			"name": "SK_MagicConstruct",
			"inverseBindMatrices": 0,
			"skeleton": 0,
			"joints": [ 1, 2, 3, 4, 5, 6, 7, 8, 9, 10, 11, 12, 13, 14, 15, 16, 17, 18, 19, 20, 21, 22, 23, 24, 25, 26, 27, 28, 29, 30, 31, 32, 33, 34, 35, 36, 37, 38, 39, 40, 41, 42, 43, 44, 45, 46, 47, 48, 49, 50, 51, 52, 53, 54, 55, 56, 57, 58, 59, 60, 61, 62, 63, 64, 65, 66 ]
		}
	]
}