{
	"asset":
	{
		"version": "2.0",
		"generator": "Unreal Engine 5.6.1"
	},
	"scene": 0,
	"accessors": [
		{
			"bufferView": 0,
			"count": 21876,
			"type": "SCALAR",
			"componentType": 5123
		},
		{
			"bufferView": 1,
			"count": 4522,
			"type": "VEC3",
			"componentType": 5126,
			"min": [ -3.46054459, -0.120320171, -2.9117763 ],
			"max": [ 1.34943604, 12.125947, 1.32380128 ]
		},
		{
			"bufferView": 2,
			"count": 4522,
			"type": "VEC3",
			"componentType": 5126
		},
		{
			"bufferView": 3,
			"count": 4522,
			"type": "VEC4",
			"componentType": 5126
		},
		{
			"bufferView": 4,
			"count": 4522,
			"type": "VEC2",
			"componentType": 5126
		},
		{
			"bufferView": 5,
			"count": 4522,
			"type": "VEC2",
			"componentType": 5126
		},
		{
			"bufferView": 6,
			"count": 4522,
			"type": "VEC2",
			"componentType": 5126
		},
		{
			"bufferView": 7,
			"count": 4522,
			"type": "VEC2",
			"componentType": 5126
		},
		{
			"bufferView": 8,
			"count": 4522,
			"type": "VEC2",
			"componentType": 5126
		},
		{
			"bufferView": 9,
			"count": 4522,
			"type": "VEC2",
			"componentType": 5126
		},
		{
			"bufferView": 10,
			"count": 4522,
			"type": "VEC2",
			"componentType": 5126
		},
		{
			"bufferView": 11,
			"count": 4522,
			"type": "VEC2",
			"componentType": 5126
		}
	],
	"buffers": [
		{
			"uri": "SM_Coral_Tree.bin",
			"byteLength": 514040
		}
	],
	"bufferViews": [
		{
			"buffer": 0,
			"byteLength": 43752,
			"target": 34963
		},
		{
			"buffer": 0,
			"byteLength": 54264,
			"byteOffset": 43752,
			"target": 34962
		},
		{
			"buffer": 0,
			"byteLength": 54264,
			"byteOffset": 98016,
			"target": 34962
		},
		{
			"buffer": 0,
			"byteLength": 72352,
			"byteOffset": 152280,
			"target": 34962
		},
		{
			"buffer": 0,
			"byteLength": 36176,
			"byteOffset": 224632,
			"target": 34962
		},
		{
			"buffer": 0,
			"byteLength": 36176,
			"byteOffset": 260808,
			"target": 34962
		},
		{
			"buffer": 0,
			"byteLength": 36176,
			"byteOffset": 296984,
			"target": 34962
		},
		{
			"buffer": 0,
			"byteLength": 36176,
			"byteOffset": 333160,
			"target": 34962
		},
		{
			"buffer": 0,
			"byteLength": 36176,
			"byteOffset": 369336,
			"target": 34962
		},
		{
			"buffer": 0,
			"byteLength": 36176,
			"byteOffset": 405512,
			"target": 34962
		},
		{
			"buffer": 0,
			"byteLength": 36176,
			"byteOffset": 441688,
			"target": 34962
		},
		{
			"buffer": 0,
			"byteLength": 36176,
			"byteOffset": 477864,
			"target": 34962
		}
	],
	"images": [
		{
			"uri": "MI_corall_SM_Coral_Tree_BaseColor.png"
		},
		{
			"uri": "MI_corall_SM_Coral_Tree_MetallicRoughness.png"
		},
		{
			"uri": "MI_corall_SM_Coral_Tree_Normal.png"
		},
		{
			"uri": "MI_corall_SM_Coral_Tree_Occlusion.png"
		}
	],
	"materials": [
		{
			"name": "MI_corall_SM_Coral_Tree",
			"pbrMetallicRoughness":
			{
				"baseColorTexture":
				{
					"index": 0,
					"texCoord": 1,
					"extensions":
					{
						"KHR_texture_transform":
						{
							"offset": [ -0.000894435856, -0.00867368095 ],
							"scale": [ 1.14515746, 1.00965965 ]
						}
					}
				},
				"metallicRoughnessTexture":
				{
					"index": 1,
					"texCoord": 1,
					"extensions":
					{
						"KHR_texture_transform":
						{
							"offset": [ -0.000894435856, -0.00867368095 ],
							"scale": [ 1.14515746, 1.00965965 ]
						}
					}
				}
			},
			"normalTexture":
			{
				"index": 2,
				"texCoord": 1,
				"extensions":
				{
					"KHR_texture_transform":
					{
						"offset": [ -0.000894435856, -0.00867368095 ],
						"scale": [ 1.14515746, 1.00965965 ]
					}
				}
			},
			"occlusionTexture":
			{
				"index": 3,
				"texCoord": 1,
				"extensions":
				{
					"KHR_texture_transform":
					{
						"offset": [ -0.000894435856, -0.00867368095 ],
						"scale": [ 1.14515746, 1.00965965 ]
					}
				}
			},
			"alphaMode": "MASK",
			"alphaCutoff": 0.333299994,
			"doubleSided": true
		}
	],
	"meshes": [
		{
			"name": "SM_Coral_Tree",
			"primitives": [
				{
					"attributes":
					{
						"POSITION": 1,
						"NORMAL": 2,
						"TANGENT": 3,
						"TEXCOORD_0": 4,
						"TEXCOORD_1": 5,
						"TEXCOORD_2": 6,
						"TEXCOORD_3": 7,
						"TEXCOORD_4": 8,
						"TEXCOORD_5": 9,
						"TEXCOORD_6": 10,
						"TEXCOORD_7": 11
					},
					"indices": 0,
					"material": 0
				}
			]
		}
	],
	"nodes": [
		{
			"mesh": 0
		}
	],
	"samplers": [
		{
			"minFilter": 9987,
			"magFilter": 9729
		}
	],
	"scenes": [
		{
			"nodes": [ 0 ]
		}
	],
	"textures": [
		{
			"name": "MI_corall_SM_Coral_Tree_BaseColor",
			"sampler": 0,
			"source": 0
		},
		{
			"name": "MI_corall_SM_Coral_Tree_MetallicRoughness",
			"sampler": 0,
			"source": 1
		},
		{
			"name": "MI_corall_SM_Coral_Tree_Normal",
			"sampler": 0,
			"source": 2
		},
		{
			"name": "MI_corall_SM_Coral_Tree_Occlusion",
			"sampler": 0,
			"source": 3
		}
	],
	"extensionsUsed": [
		"KHR_texture_transform"
	]
}