{
	"asset":
	{
		"version": "2.0",
		"generator": "Unreal Engine 5.6.1"
	},
	"scene": 0,
	"accessors": [
		{
			"bufferView": 0,
			"count": 62775,
			"type": "SCALAR",
			"componentType": 5123
		},
		{
			"bufferView": 1,
			"count": 12980,
			"type": "VEC3",
			"componentType": 5126,
			"min": [ -8.51085758, -0.0839469433, -2.574018 ],
			"max": [ 1.19073963, 16.165514, 7.48565912 ]
		},
		{
			"bufferView": 2,
			"count": 12980,
			"type": "VEC3",
			"componentType": 5126
		},
		{
			"bufferView": 3,
			"count": 12980,
			"type": "VEC4",
			"componentType": 5126
		},
		{
			"bufferView": 4,
			"count": 12980,
			"type": "VEC2",
			"componentType": 5126
		},
		{
			"bufferView": 5,
			"count": 12980,
			"type": "VEC2",
			"componentType": 5126
		},
		{
			"bufferView": 6,
			"count": 12980,
			"type": "VEC2",
			"componentType": 5126
		},
		{
			"bufferView": 7,
			"count": 12980,
			"type": "VEC2",
			"componentType": 5126
		},
		{
			"bufferView": 8,
			"count": 12980,
			"type": "VEC2",
			"componentType": 5126
		},
		{
			"bufferView": 9,
			"count": 12980,
			"type": "VEC2",
			"componentType": 5126
		},
		{
			"bufferView": 10,
			"count": 12980,
			"type": "VEC2",
			"componentType": 5126
		},
		{
			"bufferView": 11,
			"count": 12980,
			"type": "VEC2",
			"componentType": 5126
		}
	],
	"buffers": [
		{
			"uri": "SM_Dead_Tree_03.bin",
			"byteLength": 1475472
		}
	],
	"bufferViews": [
		{
			"buffer": 0,
			"byteLength": 125550,
			"target": 34963
		},
		{
			"buffer": 0,
			"byteLength": 155760,
			"byteOffset": 125552,
			"target": 34962
		},
		{
			"buffer": 0,
			"byteLength": 155760,
			"byteOffset": 281312,
			"target": 34962
		},
		{
			"buffer": 0,
			"byteLength": 207680,
			"byteOffset": 437072,
			"target": 34962
		},
		{
			"buffer": 0,
			"byteLength": 103840,
			"byteOffset": 644752,
			"target": 34962
		},
		{
			"buffer": 0,
			"byteLength": 103840,
			"byteOffset": 748592,
			"target": 34962
		},
		{
			"buffer": 0,
			"byteLength": 103840,
			"byteOffset": 852432,
			"target": 34962
		},
		{
			"buffer": 0,
			"byteLength": 103840,
			"byteOffset": 956272,
			"target": 34962
		},
		{
			"buffer": 0,
			"byteLength": 103840,
			"byteOffset": 1060112,
			"target": 34962
		},
		{
			"buffer": 0,
			"byteLength": 103840,
			"byteOffset": 1163952,
			"target": 34962
		},
		{
			"buffer": 0,
			"byteLength": 103840,
			"byteOffset": 1267792,
			"target": 34962
		},
		{
			"buffer": 0,
			"byteLength": 103840,
			"byteOffset": 1371632,
			"target": 34962
		}
	],
	"images": [
		{
			"uri": "MI_Tree_SM_Dead_Tree_03_BaseColor.png"
		},
		{
			"uri": "MI_Tree_SM_Dead_Tree_03_MetallicRoughness.png"
		},
		{
			"uri": "MI_Tree_SM_Dead_Tree_03_Normal.png"
		},
		{
			"uri": "MI_Tree_SM_Dead_Tree_03_Occlusion.png"
		}
	],
	"materials": [
		{
			"name": "MI_Tree_SM_Dead_Tree_03",
			"pbrMetallicRoughness":
			{
				"baseColorTexture":
				{
					"index": 0,
					"texCoord": 1,
					"extensions":
					{
						"KHR_texture_transform":
						{
							"offset": [ -0.00097276154, -0.00867368095 ],
							"scale": [ 1.24543881, 1.00965965 ]
						}
					}
				},
				"metallicRoughnessTexture":
				{
					"index": 1,
					"texCoord": 1,
					"extensions":
					{
						"KHR_texture_transform":
						{
							"offset": [ -0.00097276154, -0.00867368095 ],
							"scale": [ 1.24543881, 1.00965965 ]
						}
					}
				}
			},
			"normalTexture":
			{
				"index": 2,
				"texCoord": 1,
				"extensions":
				{
					"KHR_texture_transform":
					{
						"offset": [ -0.00097276154, -0.00867368095 ],
						"scale": [ 1.24543881, 1.00965965 ]
					}
				}
			},
			"occlusionTexture":
			{
				"index": 3,
				"texCoord": 1,
				"extensions":
				{
					"KHR_texture_transform":
					{
						"offset": [ -0.00097276154, -0.00867368095 ],
						"scale": [ 1.24543881, 1.00965965 ]
					}
				}
			},
			"alphaMode": "MASK",
			"alphaCutoff": 0.333299994
		}
	],
	"meshes": [
		{
			"name": "SM_Dead_Tree_03",
			"primitives": [
				{
					"attributes":
					{
						"POSITION": 1,
						"NORMAL": 2,
						"TANGENT": 3,
						"TEXCOORD_0": 4,
						"TEXCOORD_1": 5,
						"TEXCOORD_2": 6,
						"TEXCOORD_3": 7,
						"TEXCOORD_4": 8,
						"TEXCOORD_5": 9,
						"TEXCOORD_6": 10,
						"TEXCOORD_7": 11
					},
					"indices": 0,
					"material": 0
				}
			]
		}
	],
	"nodes": [
		{
			"mesh": 0
		}
	],
	"samplers": [
		{
			"minFilter": 9987,
			"magFilter": 9729
		}
	],
	"scenes": [
		{
			"nodes": [ 0 ]
		}
	],
	"textures": [
		{
			"name": "MI_Tree_SM_Dead_Tree_03_BaseColor",
			"sampler": 0,
			"source": 0
		},
		{
			"name": "MI_Tree_SM_Dead_Tree_03_MetallicRoughness",
			"sampler": 0,
			"source": 1
		},
		{
			"name": "MI_Tree_SM_Dead_Tree_03_Normal",
			"sampler": 0,
			"source": 2
		},
		{
			"name": "MI_Tree_SM_Dead_Tree_03_Occlusion",
			"sampler": 0,
			"source": 3
		}
	],
	"extensionsUsed": [
		"KHR_texture_transform"
	]
}