{
	"asset":
	{
		"version": "2.0",
		"generator": "Unreal Engine 5.6.1"
	},
	"scene": 0,
	"accessors": [
		{
			"bufferView": 0,
			"count": 81282,
			"type": "SCALAR",
			"componentType": 5123
		},
		{
			"bufferView": 1,
			"count": 16731,
			"type": "VEC3",
			"componentType": 5126,
			"min": [ -9.07321548, -0.0453063995, -2.80392575 ],
			"max": [ 2.54917216, 16.3926125, 8.3509531 ]
		},
		{
			"bufferView": 2,
			"count": 16731,
			"type": "VEC3",
			"componentType": 5126
		},
		{
			"bufferView": 3,
			"count": 16731,
			"type": "VEC4",
			"componentType": 5126
		},
		{
			"bufferView": 4,
			"count": 16731,
			"type": "VEC2",
			"componentType": 5126
		},
		{
			"bufferView": 5,
			"count": 16731,
			"type": "VEC2",
			"componentType": 5126
		},
		{
			"bufferView": 6,
			"count": 16731,
			"type": "VEC2",
			"componentType": 5126
		},
		{
			"bufferView": 7,
			"count": 16731,
			"type": "VEC2",
			"componentType": 5126
		},
		{
			"bufferView": 8,
			"count": 16731,
			"type": "VEC2",
			"componentType": 5126
		},
		{
			"bufferView": 9,
			"count": 16731,
			"type": "VEC2",
			"componentType": 5126
		},
		{
			"bufferView": 10,
			"count": 16731,
			"type": "VEC2",
			"componentType": 5126
		},
		{
			"bufferView": 11,
			"count": 16731,
			"type": "VEC2",
			"componentType": 5126
		}
	],
	"buffers": [
		{
			"uri": "SM_Dead_Tree_02.bin",
			"byteLength": 1902588
		}
	],
	"bufferViews": [
		{
			"buffer": 0,
			"byteLength": 162564,
			"target": 34963
		},
		{
			"buffer": 0,
			"byteLength": 200772,
			"byteOffset": 162564,
			"target": 34962
		},
		{
			"buffer": 0,
			"byteLength": 200772,
			"byteOffset": 363336,
			"target": 34962
		},
		{
			"buffer": 0,
			"byteLength": 267696,
			"byteOffset": 564108,
			"target": 34962
		},
		{
			"buffer": 0,
			"byteLength": 133848,
			"byteOffset": 831804,
			"target": 34962
		},
		{
			"buffer": 0,
			"byteLength": 133848,
			"byteOffset": 965652,
			"target": 34962
		},
		{
			"buffer": 0,
			"byteLength": 133848,
			"byteOffset": 1099500,
			"target": 34962
		},
		{
			"buffer": 0,
			"byteLength": 133848,
			"byteOffset": 1233348,
			"target": 34962
		},
		{
			"buffer": 0,
			"byteLength": 133848,
			"byteOffset": 1367196,
			"target": 34962
		},
		{
			"buffer": 0,
			"byteLength": 133848,
			"byteOffset": 1501044,
			"target": 34962
		},
		{
			"buffer": 0,
			"byteLength": 133848,
			"byteOffset": 1634892,
			"target": 34962
		},
		{
			"buffer": 0,
			"byteLength": 133848,
			"byteOffset": 1768740,
			"target": 34962
		}
	],
	"images": [
		{
			"uri": "MI_Tree_SM_Dead_Tree_02_BaseColor.png"
		},
		{
			"uri": "MI_Tree_SM_Dead_Tree_02_MetallicRoughness.png"
		},
		{
			"uri": "MI_Tree_SM_Dead_Tree_02_Normal.png"
		},
		{
			"uri": "MI_Tree_SM_Dead_Tree_02_Occlusion.png"
		}
	],
	"materials": [
		{
			"name": "MI_Tree_SM_Dead_Tree_02",
			"pbrMetallicRoughness":
			{
				"baseColorTexture":
				{
					"index": 0,
					"texCoord": 1,
					"extensions":
					{
						"KHR_texture_transform":
						{
							"offset": [ -0.00400073826, -0.00400468241 ],
							"scale": [ 1.00843227, 1.00942636 ]
						}
					}
				},
				"metallicRoughnessTexture":
				{
					"index": 1,
					"texCoord": 1,
					"extensions":
					{
						"KHR_texture_transform":
						{
							"offset": [ -0.00400073826, -0.00400468241 ],
							"scale": [ 1.00843227, 1.00942636 ]
						}
					}
				}
			},
			"normalTexture":
			{
				"index": 2,
				"texCoord": 1,
				"extensions":
				{
					"KHR_texture_transform":
					{
						"offset": [ -0.00400073826, -0.00400468241 ],
						"scale": [ 1.00843227, 1.00942636 ]
					}
				}
			},
			"occlusionTexture":
			{
				"index": 3,
				"texCoord": 1,
				"extensions":
				{
					"KHR_texture_transform":
					{
						"offset": [ -0.00400073826, -0.00400468241 ],
						"scale": [ 1.00843227, 1.00942636 ]
					}
				}
			},
			"alphaMode": "MASK",
			"alphaCutoff": 0.333299994
		}
	],
	"meshes": [
		{
			"name": "SM_Dead_Tree_02",
			"primitives": [
				{
					"attributes":
					{
						"POSITION": 1,
						"NORMAL": 2,
						"TANGENT": 3,
						"TEXCOORD_0": 4,
						"TEXCOORD_1": 5,
						"TEXCOORD_2": 6,
						"TEXCOORD_3": 7,
						"TEXCOORD_4": 8,
						"TEXCOORD_5": 9,
						"TEXCOORD_6": 10,
						"TEXCOORD_7": 11
					},
					"indices": 0,
					"material": 0
				}
			]
		}
	],
	"nodes": [
		{
			"mesh": 0
		}
	],
	"samplers": [
		{
			"minFilter": 9987,
			"magFilter": 9729
		}
	],
	"scenes": [
		{
			"nodes": [ 0 ]
		}
	],
	"textures": [
		{
			"name": "MI_Tree_SM_Dead_Tree_02_BaseColor",
			"sampler": 0,
			"source": 0
		},
		{
			"name": "MI_Tree_SM_Dead_Tree_02_MetallicRoughness",
			"sampler": 0,
			"source": 1
		},
		{
			"name": "MI_Tree_SM_Dead_Tree_02_Normal",
			"sampler": 0,
			"source": 2
		},
		{
			"name": "MI_Tree_SM_Dead_Tree_02_Occlusion",
			"sampler": 0,
			"source": 3
		}
	],
	"extensionsUsed": [
		"KHR_texture_transform"
	]
}