{
	"asset":
	{
		"version": "2.0",
		"generator": "Unreal Engine 5.6.1"
	},
	"scene": 0,
	"accessors": [
		{
			"bufferView": 0,
			"count": 3603,
			"type": "SCALAR",
			"componentType": 5123
		},
		{
			"bufferView": 1,
			"count": 1192,
			"type": "VEC3",
			"componentType": 5126,
			"min": [ -0.466821283, -0.405350745, -1.56437874 ],
			"max": [ 0.46071583, 0.405350745, 0.405350953 ]
		},
		{
			"bufferView": 2,
			"count": 1192,
			"type": "VEC3",
			"componentType": 5126
		},
		{
			"bufferView": 3,
			"count": 1192,
			"type": "VEC4",
			"componentType": 5126
		},
		{
			"bufferView": 4,
			"count": 1192,
			"type": "VEC2",
			"componentType": 5126
		},
		{
			"bufferView": 5,
			"count": 1192,
			"type": "VEC2",
			"componentType": 5126
		},
		{
			"bufferView": 6,
			"count": 576,
			"type": "SCALAR",
			"componentType": 5121
		},
		{
			"bufferView": 7,
			"count": 178,
			"type": "VEC3",
			"componentType": 5126,
			"min": [ -0.430616528, -0.290421277, -2.4751122 ],
			"max": [ 0.430207282, 0.463927865, 0.0975231901 ]
		},
		{
			"bufferView": 8,
			"count": 178,
			"type": "VEC3",
			"componentType": 5126
		},
		{
			"bufferView": 9,
			"count": 178,
			"type": "VEC4",
			"componentType": 5126
		},
		{
			"bufferView": 10,
			"count": 178,
			"type": "VEC2",
			"componentType": 5126
		},
		{
			"bufferView": 11,
			"count": 178,
			"type": "VEC2",
			"componentType": 5126
		}
	],
	"buffers": [
		{
			"uri": "SM_carriage_02.bin",
			"byteLength": 84504
		}
	],
	"bufferViews": [
		{
			"buffer": 0,
			"byteLength": 7206,
			"target": 34963
		},
		{
			"buffer": 0,
			"byteLength": 14304,
			"byteOffset": 7208,
			"target": 34962
		},
		{
			"buffer": 0,
			"byteLength": 14304,
			"byteOffset": 21512,
			"target": 34962
		},
		{
			"buffer": 0,
			"byteLength": 19072,
			"byteOffset": 35816,
			"target": 34962
		},
		{
			"buffer": 0,
			"byteLength": 9536,
			"byteOffset": 54888,
			"target": 34962
		},
		{
			"buffer": 0,
			"byteLength": 9536,
			"byteOffset": 64424,
			"target": 34962
		},
		{
			"buffer": 0,
			"byteLength": 576,
			"byteOffset": 73960,
			"target": 34963
		},
		{
			"buffer": 0,
			"byteLength": 2136,
			"byteOffset": 74536,
			"target": 34962
		},
		{
			"buffer": 0,
			"byteLength": 2136,
			"byteOffset": 76672,
			"target": 34962
		},
		{
			"buffer": 0,
			"byteLength": 2848,
			"byteOffset": 78808,
			"target": 34962
		},
		{
			"buffer": 0,
			"byteLength": 1424,
			"byteOffset": 81656,
			"target": 34962
		},
		{
			"buffer": 0,
			"byteLength": 1424,
			"byteOffset": 83080,
			"target": 34962
		}
	],
	"images": [
		{
			"uri": "MI_Furniture_01_MetallicRoughness.png"
		},
		{
			"uri": "MI_Wood_Trim_BaseColor.png"
		},
		{
			"uri": "MI_Wood_Trim_MetallicRoughness.png"
		},
		{
			"uri": "MI_Wood_Trim_Occlusion.png"
		},
		{
			"uri": "T_Furniture_01_C.png"
		},
		{
			"uri": "T_Furniture_01_N.png"
		},
		{
			"uri": "T_Furniture_01_M.png"
		},
		{
			"uri": "T_Wood_Trim_N.png"
		}
	],
	"materials": [
		{
			"name": "MI_Furniture_01",
			"pbrMetallicRoughness":
			{
				"baseColorTexture":
				{
					"index": 0
				},
				"metallicRoughnessTexture":
				{
					"index": 1
				}
			},
			"normalTexture":
			{
				"index": 2
			},
			"occlusionTexture":
			{
				"index": 3
			}
		},
		{
			"name": "MI_Wood_Trim",
			"pbrMetallicRoughness":
			{
				"baseColorTexture":
				{
					"index": 4
				},
				"metallicRoughnessTexture":
				{
					"index": 5
				}
			},
			"normalTexture":
			{
				"index": 6
			},
			"occlusionTexture":
			{
				"index": 7
			}
		}
	],
	"meshes": [
		{
			"name": "SM_carriage_02",
			"primitives": [
				{
					"attributes":
					{
						"POSITION": 1,
						"NORMAL": 2,
						"TANGENT": 3,
						"TEXCOORD_0": 4,
						"TEXCOORD_1": 5
					},
					"indices": 0,
					"material": 0
				},
				{
					"attributes":
					{
						"POSITION": 7,
						"NORMAL": 8,
						"TANGENT": 9,
						"TEXCOORD_0": 10,
						"TEXCOORD_1": 11
					},
					"indices": 6,
					"material": 1
				}
			]
		}
	],
	"nodes": [
		{
			"mesh": 0
		}
	],
	"samplers": [
		{
			"minFilter": 9987,
			"magFilter": 9729
		}
	],
	"scenes": [
		{
			"nodes": [ 0 ]
		}
	],
	"textures": [
		{
			"name": "T_Furniture_01_C",
			"sampler": 0,
			"source": 4
		},
		{
			"name": "MI_Furniture_01_MetallicRoughness",
			"sampler": 0,
			"source": 0
		},
		{
			"name": "T_Furniture_01_N",
			"sampler": 0,
			"source": 5
		},
		{
			"name": "T_Furniture_01_M",
			"sampler": 0,
			"source": 6
		},
		{
			"name": "MI_Wood_Trim_BaseColor",
			"sampler": 0,
			"source": 1
		},
		{
			"name": "MI_Wood_Trim_MetallicRoughness",
			"sampler": 0,
			"source": 2
		},
		{
			"name": "T_Wood_Trim_N",
			"sampler": 0,
			"source": 7
		},
		{
			"name": "MI_Wood_Trim_Occlusion",
			"sampler": 0,
			"source": 3
		}
	]
}