{
	"asset":
	{
		"version": "2.0",
		"generator": "Unreal Engine 5.6.1"
	},
	"scene": 0,
	"accessors": [
		{
			"bufferView": 0,
			"count": 2634,
			"type": "SCALAR",
			"componentType": 5123
		},
		{
			"bufferView": 1,
			"count": 529,
			"type": "VEC3",
			"componentType": 5126,
			"min": [ -8.97447491, -13.2873592, -8.45050049 ],
			"max": [ 8.94579792, 13.2579489, 8.28673458 ]
		},
		{
			"bufferView": 2,
			"count": 529,
			"type": "VEC3",
			"componentType": 5126
		},
		{
			"bufferView": 3,
			"count": 529,
			"type": "VEC4",
			"componentType": 5126
		},
		{
			"bufferView": 4,
			"count": 529,
			"type": "VEC2",
			"componentType": 5126
		},
		{
			"bufferView": 5,
			"count": 529,
			"type": "VEC2",
			"componentType": 5126
		}
	],
	"buffers": [
		{
			"uri": "SM_Rock1_mid.bin",
			"byteLength": 34892
		}
	],
	"bufferViews": [
		{
			"buffer": 0,
			"byteLength": 5268,
			"target": 34963
		},
		{
			"buffer": 0,
			"byteLength": 6348,
			"byteOffset": 5268,
			"target": 34962
		},
		{
			"buffer": 0,
			"byteLength": 6348,
			"byteOffset": 11616,
			"target": 34962
		},
		{
			"buffer": 0,
			"byteLength": 8464,
			"byteOffset": 17964,
			"target": 34962
		},
		{
			"buffer": 0,
			"byteLength": 4232,
			"byteOffset": 26428,
			"target": 34962
		},
		{
			"buffer": 0,
			"byteLength": 4232,
			"byteOffset": 30660,
			"target": 34962
		}
	],
	"images": [
		{
			"uri": "MI_Rock_Tile_01_SM_Rock1_mid_BaseColor.png"
		},
		{
			"uri": "MI_Rock_Tile_01_SM_Rock1_mid_MetallicRoughness.png"
		},
		{
			"uri": "MI_Rock_Tile_01_SM_Rock1_mid_Normal.png"
		},
		{
			"uri": "MI_Rock_Tile_01_SM_Rock1_mid_Occlusion.png"
		}
	],
	"materials": [
		{
			"name": "MI_Rock_Tile_01_SM_Rock1_mid",
			"pbrMetallicRoughness":
			{
				"baseColorTexture":
				{
					"index": 0,
					"texCoord": 1,
					"extensions":
					{
						"KHR_texture_transform":
						{
							"offset": [ -0.00823112484, -0.00656804908 ],
							"scale": [ 1.02069068, 1.01699626 ]
						}
					}
				},
				"metallicRoughnessTexture":
				{
					"index": 1,
					"texCoord": 1,
					"extensions":
					{
						"KHR_texture_transform":
						{
							"offset": [ -0.00823112484, -0.00656804908 ],
							"scale": [ 1.02069068, 1.01699626 ]
						}
					}
				}
			},
			"normalTexture":
			{
				"index": 2,
				"texCoord": 1,
				"extensions":
				{
					"KHR_texture_transform":
					{
						"offset": [ -0.00823112484, -0.00656804908 ],
						"scale": [ 1.02069068, 1.01699626 ]
					}
				}
			},
			"occlusionTexture":
			{
				"index": 3,
				"texCoord": 1,
				"extensions":
				{
					"KHR_texture_transform":
					{
						"offset": [ -0.00823112484, -0.00656804908 ],
						"scale": [ 1.02069068, 1.01699626 ]
					}
				}
			}
		}
	],
	"meshes": [
		{
			"name": "SM_Rock1_mid",
			"primitives": [
				{
					"attributes":
					{
						"POSITION": 1,
						"NORMAL": 2,
						"TANGENT": 3,
						"TEXCOORD_0": 4,
						"TEXCOORD_1": 5
					},
					"indices": 0,
					"material": 0
				}
			]
		}
	],
	"nodes": [
		{
			"mesh": 0
		}
	],
	"samplers": [
		{
			"minFilter": 9987,
			"magFilter": 9729
		}
	],
	"scenes": [
		{
			"nodes": [ 0 ]
		}
	],
	"textures": [
		{
			"name": "MI_Rock_Tile_01_SM_Rock1_mid_BaseColor",
			"sampler": 0,
			"source": 0
		},
		{
			"name": "MI_Rock_Tile_01_SM_Rock1_mid_MetallicRoughness",
			"sampler": 0,
			"source": 1
		},
		{
			"name": "MI_Rock_Tile_01_SM_Rock1_mid_Normal",
			"sampler": 0,
			"source": 2
		},
		{
			"name": "MI_Rock_Tile_01_SM_Rock1_mid_Occlusion",
			"sampler": 0,
			"source": 3
		}
	],
	"extensionsUsed": [
		"KHR_texture_transform"
	]
}