{
	"asset":
	{
		"version": "2.0",
		"generator": "Unreal Engine 5.6.1"
	},
	"scene": 0,
	"accessors": [
		{
			"bufferView": 0,
			"count": 58584,
			"type": "SCALAR",
			"componentType": 5123
		},
		{
			"bufferView": 1,
			"count": 15388,
			"type": "VEC3",
			"componentType": 5126,
			"min": [ -1.97011709, 0, -4.320117 ],
			"max": [ 2.84699202, 1.69190669, 0.566064417 ]
		},
		{
			"bufferView": 2,
			"count": 15388,
			"type": "VEC3",
			"componentType": 5126
		},
		{
			"bufferView": 3,
			"count": 15388,
			"type": "VEC4",
			"componentType": 5126
		},
		{
			"bufferView": 4,
			"count": 15388,
			"type": "VEC2",
			"componentType": 5126
		},
		{
			"bufferView": 5,
			"count": 15388,
			"type": "VEC2",
			"componentType": 5126
		},
		{
			"bufferView": 6,
			"count": 80148,
			"type": "SCALAR",
			"componentType": 5123
		},
		{
			"bufferView": 7,
			"count": 29775,
			"type": "VEC3",
			"componentType": 5126,
			"min": [ -3.01769519, -0.468771964, -5.4071188 ],
			"max": [ 3.98210931, 11.3236866, 1.53560543 ]
		},
		{
			"bufferView": 8,
			"count": 29775,
			"type": "VEC3",
			"componentType": 5126
		},
		{
			"bufferView": 9,
			"count": 29775,
			"type": "VEC4",
			"componentType": 5126
		},
		{
			"bufferView": 10,
			"count": 29775,
			"type": "VEC2",
			"componentType": 5126
		},
		{
			"bufferView": 11,
			"count": 29775,
			"type": "VEC2",
			"componentType": 5126
		},
		{
			"bufferView": 12,
			"count": 945,
			"type": "SCALAR",
			"componentType": 5121
		},
		{
			"bufferView": 13,
			"count": 255,
			"type": "VEC3",
			"componentType": 5126,
			"min": [ -0.0325781256, 0.781201184, -2.34226561 ],
			"max": [ 1.06742179, 1.02402341, -1.24226069 ]
		},
		{
			"bufferView": 14,
			"count": 255,
			"type": "VEC3",
			"componentType": 5126
		},
		{
			"bufferView": 15,
			"count": 255,
			"type": "VEC4",
			"componentType": 5126
		},
		{
			"bufferView": 16,
			"count": 255,
			"type": "VEC2",
			"componentType": 5126
		},
		{
			"bufferView": 17,
			"count": 255,
			"type": "VEC2",
			"componentType": 5126
		},
		{
			"bufferView": 18,
			"count": 1872,
			"type": "SCALAR",
			"componentType": 5123
		},
		{
			"bufferView": 19,
			"count": 485,
			"type": "VEC3",
			"componentType": 5126,
			"min": [ -0.0461328104, 0.6034863, -0.039790038 ],
			"max": [ 0.0607421845, 0.855310023, 0.067055665 ]
		},
		{
			"bufferView": 20,
			"count": 485,
			"type": "VEC3",
			"componentType": 5126
		},
		{
			"bufferView": 21,
			"count": 485,
			"type": "VEC4",
			"componentType": 5126
		},
		{
			"bufferView": 22,
			"count": 485,
			"type": "VEC2",
			"componentType": 5126
		},
		{
			"bufferView": 23,
			"count": 485,
			"type": "VEC2",
			"componentType": 5126
		},
		{
			"bufferView": 24,
			"count": 252,
			"type": "SCALAR",
			"componentType": 5121
		},
		{
			"bufferView": 25,
			"count": 72,
			"type": "VEC3",
			"componentType": 5126,
			"min": [ -1.88738275, 6.19290495, -4.37226057 ],
			"max": [ 2.89691401, 7.02115726, -1.78685546 ]
		},
		{
			"bufferView": 26,
			"count": 72,
			"type": "VEC3",
			"componentType": 5126
		},
		{
			"bufferView": 27,
			"count": 72,
			"type": "VEC4",
			"componentType": 5126
		},
		{
			"bufferView": 28,
			"count": 72,
			"type": "VEC2",
			"componentType": 5126
		},
		{
			"bufferView": 29,
			"count": 72,
			"type": "VEC2",
			"componentType": 5126
		},
		{
			"bufferView": 30,
			"count": 360,
			"type": "SCALAR",
			"componentType": 5121
		},
		{
			"bufferView": 31,
			"count": 121,
			"type": "VEC3",
			"componentType": 5126,
			"min": [ -2.09714842, 0.0684985369, -4.58595228 ],
			"max": [ 3.2249608, 3.1948657, 0.736186504 ]
		},
		{
			"bufferView": 32,
			"count": 121,
			"type": "VEC3",
			"componentType": 5126
		},
		{
			"bufferView": 33,
			"count": 121,
			"type": "VEC4",
			"componentType": 5126
		},
		{
			"bufferView": 34,
			"count": 121,
			"type": "VEC2",
			"componentType": 5126
		},
		{
			"bufferView": 35,
			"count": 121,
			"type": "VEC2",
			"componentType": 5126
		},
		{
			"bufferView": 36,
			"count": 7254,
			"type": "SCALAR",
			"componentType": 5123
		},
		{
			"bufferView": 37,
			"count": 2311,
			"type": "VEC3",
			"componentType": 5126,
			"min": [ -3.48117185, -0.533425272, -5.0846386 ],
			"max": [ 3.86523438, 0.715107381, 1.22496092 ]
		},
		{
			"bufferView": 38,
			"count": 2311,
			"type": "VEC3",
			"componentType": 5126
		},
		{
			"bufferView": 39,
			"count": 2311,
			"type": "VEC4",
			"componentType": 5126
		},
		{
			"bufferView": 40,
			"count": 2311,
			"type": "VEC2",
			"componentType": 5126
		},
		{
			"bufferView": 41,
			"count": 2311,
			"type": "VEC2",
			"componentType": 5126
		},
		{
			"bufferView": 42,
			"count": 37557,
			"type": "SCALAR",
			"componentType": 5123
		},
		{
			"bufferView": 43,
			"count": 11611,
			"type": "VEC3",
			"componentType": 5126,
			"min": [ -3.06628895, 8.41009712, -5.50135231 ],
			"max": [ 4.06304693, 13.1366253, 1.67553711 ]
		},
		{
			"bufferView": 44,
			"count": 11611,
			"type": "VEC3",
			"componentType": 5126
		},
		{
			"bufferView": 45,
			"count": 11611,
			"type": "VEC4",
			"componentType": 5126
		},
		{
			"bufferView": 46,
			"count": 11611,
			"type": "VEC2",
			"componentType": 5126
		},
		{
			"bufferView": 47,
			"count": 11611,
			"type": "VEC2",
			"componentType": 5126
		},
		{
			"bufferView": 48,
			"count": 120,
			"type": "SCALAR",
			"componentType": 5121
		},
		{
			"bufferView": 49,
			"count": 44,
			"type": "VEC3",
			"componentType": 5126,
			"min": [ -2.74035144, 8.74798298, -5.18841791 ],
			"max": [ 3.7648046, 8.74798298, 1.31677735 ]
		},
		{
			"bufferView": 50,
			"count": 44,
			"type": "VEC3",
			"componentType": 5126
		},
		{
			"bufferView": 51,
			"count": 44,
			"type": "VEC4",
			"componentType": 5126
		},
		{
			"bufferView": 52,
			"count": 44,
			"type": "VEC2",
			"componentType": 5126
		},
		{
			"bufferView": 53,
			"count": 44,
			"type": "VEC2",
			"componentType": 5126
		},
		{
			"bufferView": 54,
			"count": 2064,
			"type": "SCALAR",
			"componentType": 5123
		},
		{
			"bufferView": 55,
			"count": 446,
			"type": "VEC3",
			"componentType": 5126,
			"min": [ -2.07164049, 3.54798341, -4.51957035 ],
			"max": [ 3.09585929, 8.54798317, 0.647939444 ]
		},
		{
			"bufferView": 56,
			"count": 446,
			"type": "VEC3",
			"componentType": 5126
		},
		{
			"bufferView": 57,
			"count": 446,
			"type": "VEC4",
			"componentType": 5126
		},
		{
			"bufferView": 58,
			"count": 446,
			"type": "VEC2",
			"componentType": 5126
		},
		{
			"bufferView": 59,
			"count": 446,
			"type": "VEC2",
			"componentType": 5126
		},
		{
			"bufferView": 60,
			"count": 684,
			"type": "SCALAR",
			"componentType": 5121
		},
		{
			"bufferView": 61,
			"count": 200,
			"type": "VEC3",
			"componentType": 5126,
			"min": [ -2.35890627, -0.454816878, -4.80696297 ],
			"max": [ 3.38335919, 3.52500248, 0.93856442 ]
		},
		{
			"bufferView": 62,
			"count": 200,
			"type": "VEC3",
			"componentType": 5126
		},
		{
			"bufferView": 63,
			"count": 200,
			"type": "VEC4",
			"componentType": 5126
		},
		{
			"bufferView": 64,
			"count": 200,
			"type": "VEC2",
			"componentType": 5126
		},
		{
			"bufferView": 65,
			"count": 200,
			"type": "VEC2",
			"componentType": 5126
		},
		{
			"bufferView": 66,
			"count": 432,
			"type": "SCALAR",
			"componentType": 5121
		},
		{
			"bufferView": 67,
			"count": 103,
			"type": "VEC3",
			"componentType": 5126,
			"min": [ -0.0173828118, 0.841188967, -0.00405761693 ],
			"max": [ 0.0291796867, 1.04367185, 0.0419335924 ]
		},
		{
			"bufferView": 68,
			"count": 103,
			"type": "VEC3",
			"componentType": 5126
		},
		{
			"bufferView": 69,
			"count": 103,
			"type": "VEC4",
			"componentType": 5126
		},
		{
			"bufferView": 70,
			"count": 103,
			"type": "VEC2",
			"componentType": 5126
		},
		{
			"bufferView": 71,
			"count": 103,
			"type": "VEC2",
			"componentType": 5126
		},
		{
			"bufferView": 72,
			"count": 12,
			"type": "SCALAR",
			"componentType": 5121
		},
		{
			"bufferView": 73,
			"count": 8,
			"type": "VEC3",
			"componentType": 5126,
			"min": [ -0.00679687504, 1.04205561, 0.00511230435 ],
			"max": [ 0.0199218746, 1.08365965, 0.0318310522 ]
		},
		{
			"bufferView": 74,
			"count": 8,
			"type": "VEC3",
			"componentType": 5126
		},
		{
			"bufferView": 75,
			"count": 8,
			"type": "VEC4",
			"componentType": 5126
		},
		{
			"bufferView": 76,
			"count": 8,
			"type": "VEC2",
			"componentType": 5126
		},
		{
			"bufferView": 77,
			"count": 8,
			"type": "VEC2",
			"componentType": 5126
		}
	],
	"buffers": [
		{
			"uri": "SM_Windmill_Merged.bin",
			"byteLength": 3783632
		}
	],
	"bufferViews": [
		{
			"buffer": 0,
			"byteLength": 117168,
			"target": 34963
		},
		{
			"buffer": 0,
			"byteLength": 184656,
			"byteOffset": 117168,
			"target": 34962
		},
		{
			"buffer": 0,
			"byteLength": 184656,
			"byteOffset": 301824,
			"target": 34962
		},
		{
			"buffer": 0,
			"byteLength": 246208,
			"byteOffset": 486480,
			"target": 34962
		},
		{
			"buffer": 0,
			"byteLength": 123104,
			"byteOffset": 732688,
			"target": 34962
		},
		{
			"buffer": 0,
			"byteLength": 123104,
			"byteOffset": 855792,
			"target": 34962
		},
		{
			"buffer": 0,
			"byteLength": 160296,
			"byteOffset": 978896,
			"target": 34963
		},
		{
			"buffer": 0,
			"byteLength": 357300,
			"byteOffset": 1139192,
			"target": 34962
		},
		{
			"buffer": 0,
			"byteLength": 357300,
			"byteOffset": 1496492,
			"target": 34962
		},
		{
			"buffer": 0,
			"byteLength": 476400,
			"byteOffset": 1853792,
			"target": 34962
		},
		{
			"buffer": 0,
			"byteLength": 238200,
			"byteOffset": 2330192,
			"target": 34962
		},
		{
			"buffer": 0,
			"byteLength": 238200,
			"byteOffset": 2568392,
			"target": 34962
		},
		{
			"buffer": 0,
			"byteLength": 945,
			"byteOffset": 2806592,
			"target": 34963
		},
		{
			"buffer": 0,
			"byteLength": 3060,
			"byteOffset": 2807540,
			"target": 34962
		},
		{
			"buffer": 0,
			"byteLength": 3060,
			"byteOffset": 2810600,
			"target": 34962
		},
		{
			"buffer": 0,
			"byteLength": 4080,
			"byteOffset": 2813660,
			"target": 34962
		},
		{
			"buffer": 0,
			"byteLength": 2040,
			"byteOffset": 2817740,
			"target": 34962
		},
		{
			"buffer": 0,
			"byteLength": 2040,
			"byteOffset": 2819780,
			"target": 34962
		},
		{
			"buffer": 0,
			"byteLength": 3744,
			"byteOffset": 2821820,
			"target": 34963
		},
		{
			"buffer": 0,
			"byteLength": 5820,
			"byteOffset": 2825564,
			"target": 34962
		},
		{
			"buffer": 0,
			"byteLength": 5820,
			"byteOffset": 2831384,
			"target": 34962
		},
		{
			"buffer": 0,
			"byteLength": 7760,
			"byteOffset": 2837204,
			"target": 34962
		},
		{
			"buffer": 0,
			"byteLength": 3880,
			"byteOffset": 2844964,
			"target": 34962
		},
		{
			"buffer": 0,
			"byteLength": 3880,
			"byteOffset": 2848844,
			"target": 34962
		},
		{
			"buffer": 0,
			"byteLength": 252,
			"byteOffset": 2852724,
			"target": 34963
		},
		{
			"buffer": 0,
			"byteLength": 864,
			"byteOffset": 2852976,
			"target": 34962
		},
		{
			"buffer": 0,
			"byteLength": 864,
			"byteOffset": 2853840,
			"target": 34962
		},
		{
			"buffer": 0,
			"byteLength": 1152,
			"byteOffset": 2854704,
			"target": 34962
		},
		{
			"buffer": 0,
			"byteLength": 576,
			"byteOffset": 2855856,
			"target": 34962
		},
		{
			"buffer": 0,
			"byteLength": 576,
			"byteOffset": 2856432,
			"target": 34962
		},
		{
			"buffer": 0,
			"byteLength": 360,
			"byteOffset": 2857008,
			"target": 34963
		},
		{
			"buffer": 0,
			"byteLength": 1452,
			"byteOffset": 2857368,
			"target": 34962
		},
		{
			"buffer": 0,
			"byteLength": 1452,
			"byteOffset": 2858820,
			"target": 34962
		},
		{
			"buffer": 0,
			"byteLength": 1936,
			"byteOffset": 2860272,
			"target": 34962
		},
		{
			"buffer": 0,
			"byteLength": 968,
			"byteOffset": 2862208,
			"target": 34962
		},
		{
			"buffer": 0,
			"byteLength": 968,
			"byteOffset": 2863176,
			"target": 34962
		},
		{
			"buffer": 0,
			"byteLength": 14508,
			"byteOffset": 2864144,
			"target": 34963
		},
		{
			"buffer": 0,
			"byteLength": 27732,
			"byteOffset": 2878652,
			"target": 34962
		},
		{
			"buffer": 0,
			"byteLength": 27732,
			"byteOffset": 2906384,
			"target": 34962
		},
		{
			"buffer": 0,
			"byteLength": 36976,
			"byteOffset": 2934116,
			"target": 34962
		},
		{
			"buffer": 0,
			"byteLength": 18488,
			"byteOffset": 2971092,
			"target": 34962
		},
		{
			"buffer": 0,
			"byteLength": 18488,
			"byteOffset": 2989580,
			"target": 34962
		},
		{
			"buffer": 0,
			"byteLength": 75114,
			"byteOffset": 3008068,
			"target": 34963
		},
		{
			"buffer": 0,
			"byteLength": 139332,
			"byteOffset": 3083184,
			"target": 34962
		},
		{
			"buffer": 0,
			"byteLength": 139332,
			"byteOffset": 3222516,
			"target": 34962
		},
		{
			"buffer": 0,
			"byteLength": 185776,
			"byteOffset": 3361848,
			"target": 34962
		},
		{
			"buffer": 0,
			"byteLength": 92888,
			"byteOffset": 3547624,
			"target": 34962
		},
		{
			"buffer": 0,
			"byteLength": 92888,
			"byteOffset": 3640512,
			"target": 34962
		},
		{
			"buffer": 0,
			"byteLength": 120,
			"byteOffset": 3733400,
			"target": 34963
		},
		{
			"buffer": 0,
			"byteLength": 528,
			"byteOffset": 3733520,
			"target": 34962
		},
		{
			"buffer": 0,
			"byteLength": 528,
			"byteOffset": 3734048,
			"target": 34962
		},
		{
			"buffer": 0,
			"byteLength": 704,
			"byteOffset": 3734576,
			"target": 34962
		},
		{
			"buffer": 0,
			"byteLength": 352,
			"byteOffset": 3735280,
			"target": 34962
		},
		{
			"buffer": 0,
			"byteLength": 352,
			"byteOffset": 3735632,
			"target": 34962
		},
		{
			"buffer": 0,
			"byteLength": 4128,
			"byteOffset": 3735984,
			"target": 34963
		},
		{
			"buffer": 0,
			"byteLength": 5352,
			"byteOffset": 3740112,
			"target": 34962
		},
		{
			"buffer": 0,
			"byteLength": 5352,
			"byteOffset": 3745464,
			"target": 34962
		},
		{
			"buffer": 0,
			"byteLength": 7136,
			"byteOffset": 3750816,
			"target": 34962
		},
		{
			"buffer": 0,
			"byteLength": 3568,
			"byteOffset": 3757952,
			"target": 34962
		},
		{
			"buffer": 0,
			"byteLength": 3568,
			"byteOffset": 3761520,
			"target": 34962
		},
		{
			"buffer": 0,
			"byteLength": 684,
			"byteOffset": 3765088,
			"target": 34963
		},
		{
			"buffer": 0,
			"byteLength": 2400,
			"byteOffset": 3765772,
			"target": 34962
		},
		{
			"buffer": 0,
			"byteLength": 2400,
			"byteOffset": 3768172,
			"target": 34962
		},
		{
			"buffer": 0,
			"byteLength": 3200,
			"byteOffset": 3770572,
			"target": 34962
		},
		{
			"buffer": 0,
			"byteLength": 1600,
			"byteOffset": 3773772,
			"target": 34962
		},
		{
			"buffer": 0,
			"byteLength": 1600,
			"byteOffset": 3775372,
			"target": 34962
		},
		{
			"buffer": 0,
			"byteLength": 432,
			"byteOffset": 3776972,
			"target": 34963
		},
		{
			"buffer": 0,
			"byteLength": 1236,
			"byteOffset": 3777404,
			"target": 34962
		},
		{
			"buffer": 0,
			"byteLength": 1236,
			"byteOffset": 3778640,
			"target": 34962
		},
		{
			"buffer": 0,
			"byteLength": 1648,
			"byteOffset": 3779876,
			"target": 34962
		},
		{
			"buffer": 0,
			"byteLength": 824,
			"byteOffset": 3781524,
			"target": 34962
		},
		{
			"buffer": 0,
			"byteLength": 824,
			"byteOffset": 3782348,
			"target": 34962
		},
		{
			"buffer": 0,
			"byteLength": 12,
			"byteOffset": 3783172,
			"target": 34963
		},
		{
			"buffer": 0,
			"byteLength": 96,
			"byteOffset": 3783184,
			"target": 34962
		},
		{
			"buffer": 0,
			"byteLength": 96,
			"byteOffset": 3783280,
			"target": 34962
		},
		{
			"buffer": 0,
			"byteLength": 128,
			"byteOffset": 3783376,
			"target": 34962
		},
		{
			"buffer": 0,
			"byteLength": 64,
			"byteOffset": 3783504,
			"target": 34962
		},
		{
			"buffer": 0,
			"byteLength": 64,
			"byteOffset": 3783568,
			"target": 34962
		}
	],
	"images": [
		{
			"uri": "MI_Furniture_01_MetallicRoughness.png"
		},
		{
			"uri": "MI_Wood_Trim_BaseColor.png"
		},
		{
			"uri": "MI_Wood_Trim_MetallicRoughness.png"
		},
		{
			"uri": "MI_Wood_Trim_Occlusion.png"
		},
		{
			"uri": "MI_Tool_01_MetallicRoughness.png"
		},
		{
			"uri": "MI_Light_props_MetallicRoughness.png"
		},
		{
			"uri": "MI_Glass_Normal.png"
		},
		{
			"uri": "M_Wood_Floor_Inst_BaseColor.png"
		},
		{
			"uri": "M_Wood_Floor_Inst_MetallicRoughness.png"
		},
		{
			"uri": "M_Wood_Floor_Inst_Normal.png"
		},
		{
			"uri": "M_Wood_Floor_Inst_Occlusion.png"
		},
		{
			"uri": "MI_Stones_BaseColor.png"
		},
		{
			"uri": "MI_Stones_MetallicRoughness.png"
		},
		{
			"uri": "MI_Roof_MetallicRoughness.png"
		},
		{
			"uri": "WorldGridMaterial_BaseColor.png"
		},
		{
			"uri": "WorldGridMaterial_MetallicRoughness.png"
		},
		{
			"uri": "WorldGridMaterial_Normal.png"
		},
		{
			"uri": "M_Styl_Wall_Brick_BaseColor.png"
		},
		{
			"uri": "M_Styl_Wall_Brick_MetallicRoughness.png"
		},
		{
			"uri": "M_Styl_Wall_Brick_Occlusion.png"
		},
		{
			"uri": "M_Styl_Wall_Brick_02_SM_Windmill_Merged_BaseColor.png"
		},
		{
			"uri": "M_Styl_Wall_Brick_02_SM_Windmill_Merged_MetallicRoughness.png"
		},
		{
			"uri": "M_Styl_Wall_Brick_02_SM_Windmill_Merged_Occlusion.png"
		},
		{
			"uri": "MI_Candle_MetallicRoughness.png"
		},
		{
			"uri": "T_Furniture_01_C.png"
		},
		{
			"uri": "T_Furniture_01_N.png"
		},
		{
			"uri": "T_Furniture_01_M.png"
		},
		{
			"uri": "T_Wood_Trim_N.png"
		},
		{
			"uri": "T_Tools_C.png"
		},
		{
			"uri": "T_Tools_N.png"
		},
		{
			"uri": "T_Tools_M.png"
		},
		{
			"uri": "T_Light_C.png"
		},
		{
			"uri": "T_Light_N.png"
		},
		{
			"uri": "T_Light_M.png"
		},
		{
			"uri": "T_Stone_N.png"
		},
		{
			"uri": "T_Roof_C.png"
		},
		{
			"uri": "T_Roof_N.png"
		},
		{
			"uri": "T_Roof_M_Linear.png"
		},
		{
			"uri": "T_candle_C.png"
		},
		{
			"uri": "T_candle_N.png"
		},
		{
			"uri": "T_candle_M.png"
		}
	],
	"materials": [
		{
			"name": "MI_Furniture_01",
			"pbrMetallicRoughness":
			{
				"baseColorTexture":
				{
					"index": 0
				},
				"metallicRoughnessTexture":
				{
					"index": 1
				}
			},
			"normalTexture":
			{
				"index": 2
			},
			"occlusionTexture":
			{
				"index": 3
			}
		},
		{
			"name": "MI_Wood_Trim",
			"pbrMetallicRoughness":
			{
				"baseColorTexture":
				{
					"index": 4
				},
				"metallicRoughnessTexture":
				{
					"index": 5
				}
			},
			"normalTexture":
			{
				"index": 6
			},
			"occlusionTexture":
			{
				"index": 7
			}
		},
		{
			"name": "MI_Tool_01",
			"pbrMetallicRoughness":
			{
				"baseColorTexture":
				{
					"index": 8
				},
				"metallicRoughnessTexture":
				{
					"index": 9
				}
			},
			"normalTexture":
			{
				"index": 10
			},
			"occlusionTexture":
			{
				"index": 11
			}
		},
		{
			"name": "MI_Light_props",
			"pbrMetallicRoughness":
			{
				"baseColorTexture":
				{
					"index": 12
				},
				"metallicRoughnessTexture":
				{
					"index": 13
				}
			},
			"normalTexture":
			{
				"index": 14
			},
			"occlusionTexture":
			{
				"index": 15
			}
		},
		{
			"name": "MI_Glass",
			"pbrMetallicRoughness":
			{
				"baseColorFactor": [ 0.0378840007, 0.0417999998, 0.0520830005, 1 ],
				"metallicFactor": 0,
				"roughnessFactor": 0.100000001
			},
			"normalTexture":
			{
				"index": 16
			},
			"doubleSided": true
		},
		{
			"name": "M_Wood_Floor_Inst",
			"pbrMetallicRoughness":
			{
				"baseColorTexture":
				{
					"index": 17
				},
				"metallicRoughnessTexture":
				{
					"index": 18
				}
			},
			"normalTexture":
			{
				"index": 19
			},
			"occlusionTexture":
			{
				"index": 20
			}
		},
		{
			"name": "MI_Stones",
			"pbrMetallicRoughness":
			{
				"baseColorTexture":
				{
					"index": 21
				},
				"metallicRoughnessTexture":
				{
					"index": 22
				}
			},
			"normalTexture":
			{
				"index": 23
			}
		},
		{
			"name": "MI_Roof",
			"pbrMetallicRoughness":
			{
				"baseColorTexture":
				{
					"index": 24
				},
				"metallicRoughnessTexture":
				{
					"index": 25
				}
			},
			"normalTexture":
			{
				"index": 26
			},
			"occlusionTexture":
			{
				"index": 27
			}
		},
		{
			"name": "WorldGridMaterial",
			"pbrMetallicRoughness":
			{
				"baseColorTexture":
				{
					"index": 28
				},
				"metallicRoughnessTexture":
				{
					"index": 29
				}
			},
			"normalTexture":
			{
				"index": 30
			}
		},
		{
			"name": "M_Styl_Wall_Brick",
			"pbrMetallicRoughness":
			{
				"baseColorTexture":
				{
					"index": 31
				},
				"metallicRoughnessTexture":
				{
					"index": 32
				}
			},
			"occlusionTexture":
			{
				"index": 33
			}
		},
		{
			"name": "M_Styl_Wall_Brick_02_SM_Windmill_Merged",
			"pbrMetallicRoughness":
			{
				"baseColorTexture":
				{
					"index": 34,
					"texCoord": 1,
					"extensions":
					{
						"KHR_texture_transform":
						{
							"offset": [ -0.00285303546, -0.00263141794 ],
							"scale": [ 1.44943047, 1.33684194 ]
						}
					}
				},
				"metallicRoughnessTexture":
				{
					"index": 35,
					"texCoord": 1,
					"extensions":
					{
						"KHR_texture_transform":
						{
							"offset": [ -0.00285303546, -0.00263141794 ],
							"scale": [ 1.44943047, 1.33684194 ]
						}
					}
				}
			},
			"occlusionTexture":
			{
				"index": 36,
				"texCoord": 1,
				"extensions":
				{
					"KHR_texture_transform":
					{
						"offset": [ -0.00285303546, -0.00263141794 ],
						"scale": [ 1.44943047, 1.33684194 ]
					}
				}
			}
		},
		{
			"name": "MI_Candle",
			"pbrMetallicRoughness":
			{
				"baseColorTexture":
				{
					"index": 37
				},
				"metallicRoughnessTexture":
				{
					"index": 38
				}
			},
			"normalTexture":
			{
				"index": 39
			},
			"occlusionTexture":
			{
				"index": 40
			},
			"alphaMode": "MASK",
			"alphaCutoff": 0.333299994
		},
		{
			"name": "MI_Candle_light",
			"pbrMetallicRoughness":
			{
				"baseColorFactor": [ 0, 0, 0, 0.690196097 ],
				"metallicFactor": 0,
				"roughnessFactor": 0.5
			},
			"emissiveFactor": [ 1, 0.764705956, 0.313725501 ],
			"alphaMode": "BLEND",
			"doubleSided": true,
			"extensions":
			{
				"KHR_materials_ior":
				{
					"ior": 1
				},
				"KHR_materials_emissive_strength":
				{
					"emissiveStrength": 26.328125
				}
			}
		}
	],
	"meshes": [
		{
			"name": "SM_Windmill_Merged",
			"primitives": [
				{
					"attributes":
					{
						"POSITION": 1,
						"NORMAL": 2,
						"TANGENT": 3,
						"TEXCOORD_0": 4,
						"TEXCOORD_1": 5
					},
					"indices": 0,
					"material": 0
				},
				{
					"attributes":
					{
						"POSITION": 7,
						"NORMAL": 8,
						"TANGENT": 9,
						"TEXCOORD_0": 10,
						"TEXCOORD_1": 11
					},
					"indices": 6,
					"material": 1
				},
				{
					"attributes":
					{
						"POSITION": 13,
						"NORMAL": 14,
						"TANGENT": 15,
						"TEXCOORD_0": 16,
						"TEXCOORD_1": 17
					},
					"indices": 12,
					"material": 2
				},
				{
					"attributes":
					{
						"POSITION": 19,
						"NORMAL": 20,
						"TANGENT": 21,
						"TEXCOORD_0": 22,
						"TEXCOORD_1": 23
					},
					"indices": 18,
					"material": 3
				},
				{
					"attributes":
					{
						"POSITION": 25,
						"NORMAL": 26,
						"TANGENT": 27,
						"TEXCOORD_0": 28,
						"TEXCOORD_1": 29
					},
					"indices": 24,
					"material": 4
				},
				{
					"attributes":
					{
						"POSITION": 31,
						"NORMAL": 32,
						"TANGENT": 33,
						"TEXCOORD_0": 34,
						"TEXCOORD_1": 35
					},
					"indices": 30,
					"material": 5
				},
				{
					"attributes":
					{
						"POSITION": 37,
						"NORMAL": 38,
						"TANGENT": 39,
						"TEXCOORD_0": 40,
						"TEXCOORD_1": 41
					},
					"indices": 36,
					"material": 6
				},
				{
					"attributes":
					{
						"POSITION": 43,
						"NORMAL": 44,
						"TANGENT": 45,
						"TEXCOORD_0": 46,
						"TEXCOORD_1": 47
					},
					"indices": 42,
					"material": 7
				},
				{
					"attributes":
					{
						"POSITION": 49,
						"NORMAL": 50,
						"TANGENT": 51,
						"TEXCOORD_0": 52,
						"TEXCOORD_1": 53
					},
					"indices": 48,
					"material": 8
				},
				{
					"attributes":
					{
						"POSITION": 55,
						"NORMAL": 56,
						"TANGENT": 57,
						"TEXCOORD_0": 58,
						"TEXCOORD_1": 59
					},
					"indices": 54,
					"material": 9
				},
				{
					"attributes":
					{
						"POSITION": 61,
						"NORMAL": 62,
						"TANGENT": 63,
						"TEXCOORD_0": 64,
						"TEXCOORD_1": 65
					},
					"indices": 60,
					"material": 10
				},
				{
					"attributes":
					{
						"POSITION": 67,
						"NORMAL": 68,
						"TANGENT": 69,
						"TEXCOORD_0": 70,
						"TEXCOORD_1": 71
					},
					"indices": 66,
					"material": 11
				},
				{
					"attributes":
					{
						"POSITION": 73,
						"NORMAL": 74,
						"TANGENT": 75,
						"TEXCOORD_0": 76,
						"TEXCOORD_1": 77
					},
					"indices": 72,
					"material": 12
				}
			]
		}
	],
	"nodes": [
		{
			"mesh": 0
		}
	],
	"samplers": [
		{
			"minFilter": 9987,
			"magFilter": 9729
		}
	],
	"scenes": [
		{
			"nodes": [ 0 ]
		}
	],
	"textures": [
		{
			"name": "T_Furniture_01_C",
			"sampler": 0,
			"source": 24
		},
		{
			"name": "MI_Furniture_01_MetallicRoughness",
			"sampler": 0,
			"source": 0
		},
		{
			"name": "T_Furniture_01_N",
			"sampler": 0,
			"source": 25
		},
		{
			"name": "T_Furniture_01_M",
			"sampler": 0,
			"source": 26
		},
		{
			"name": "MI_Wood_Trim_BaseColor",
			"sampler": 0,
			"source": 1
		},
		{
			"name": "MI_Wood_Trim_MetallicRoughness",
			"sampler": 0,
			"source": 2
		},
		{
			"name": "T_Wood_Trim_N",
			"sampler": 0,
			"source": 27
		},
		{
			"name": "MI_Wood_Trim_Occlusion",
			"sampler": 0,
			"source": 3
		},
		{
			"name": "T_Tools_C",
			"sampler": 0,
			"source": 28
		},
		{
			"name": "MI_Tool_01_MetallicRoughness",
			"sampler": 0,
			"source": 4
		},
		{
			"name": "T_Tools_N",
			"sampler": 0,
			"source": 29
		},
		{
			"name": "T_Tools_M",
			"sampler": 0,
			"source": 30
		},
		{
			"name": "T_Light_C",
			"sampler": 0,
			"source": 31
		},
		{
			"name": "MI_Light_props_MetallicRoughness",
			"sampler": 0,
			"source": 5
		},
		{
			"name": "T_Light_N",
			"sampler": 0,
			"source": 32
		},
		{
			"name": "T_Light_M",
			"sampler": 0,
			"source": 33
		},
		{
			"name": "MI_Glass_Normal",
			"sampler": 0,
			"source": 6
		},
		{
			"name": "M_Wood_Floor_Inst_BaseColor",
			"sampler": 0,
			"source": 7
		},
		{
			"name": "M_Wood_Floor_Inst_MetallicRoughness",
			"sampler": 0,
			"source": 8
		},
		{
			"name": "M_Wood_Floor_Inst_Normal",
			"sampler": 0,
			"source": 9
		},
		{
			"name": "M_Wood_Floor_Inst_Occlusion",
			"sampler": 0,
			"source": 10
		},
		{
			"name": "MI_Stones_BaseColor",
			"sampler": 0,
			"source": 11
		},
		{
			"name": "MI_Stones_MetallicRoughness",
			"sampler": 0,
			"source": 12
		},
		{
			"name": "T_Stone_N",
			"sampler": 0,
			"source": 34
		},
		{
			"name": "T_Roof_C",
			"sampler": 0,
			"source": 35
		},
		{
			"name": "MI_Roof_MetallicRoughness",
			"sampler": 0,
			"source": 13
		},
		{
			"name": "T_Roof_N",
			"sampler": 0,
			"source": 36
		},
		{
			"name": "T_Roof_M_Linear",
			"sampler": 0,
			"source": 37
		},
		{
			"name": "WorldGridMaterial_BaseColor",
			"sampler": 0,
			"source": 14
		},
		{
			"name": "WorldGridMaterial_MetallicRoughness",
			"sampler": 0,
			"source": 15
		},
		{
			"name": "WorldGridMaterial_Normal",
			"sampler": 0,
			"source": 16
		},
		{
			"name": "M_Styl_Wall_Brick_BaseColor",
			"sampler": 0,
			"source": 17
		},
		{
			"name": "M_Styl_Wall_Brick_MetallicRoughness",
			"sampler": 0,
			"source": 18
		},
		{
			"name": "M_Styl_Wall_Brick_Occlusion",
			"sampler": 0,
			"source": 19
		},
		{
			"name": "M_Styl_Wall_Brick_02_SM_Windmill_Merged_BaseColor",
			"sampler": 0,
			"source": 20
		},
		{
			"name": "M_Styl_Wall_Brick_02_SM_Windmill_Merged_MetallicRoughness",
			"sampler": 0,
			"source": 21
		},
		{
			"name": "M_Styl_Wall_Brick_02_SM_Windmill_Merged_Occlusion",
			"sampler": 0,
			"source": 22
		},
		{
			"name": "T_candle_C",
			"sampler": 0,
			"source": 38
		},
		{
			"name": "MI_Candle_MetallicRoughness",
			"sampler": 0,
			"source": 23
		},
		{
			"name": "T_candle_N",
			"sampler": 0,
			"source": 39
		},
		{
			"name": "T_candle_M",
			"sampler": 0,
			"source": 40
		}
	],
	"extensionsUsed": [
		"KHR_texture_transform",
		"KHR_materials_ior",
		"KHR_materials_emissive_strength"
	]
}