{
	"asset":
	{
		"version": "2.0",
		"generator": "Unreal Engine 5.6.1"
	},
	"scene": 0,
	"accessors": [
		{
			"bufferView": 0,
			"count": 1167,
			"type": "SCALAR",
			"componentType": 5123
		},
		{
			"bufferView": 1,
			"count": 495,
			"type": "VEC3",
			"componentType": 5126,
			"min": [ -15.9485931, 0, -15.948432 ],
			"max": [ 15.9515228, 1.00000978, 15.9518108 ]
		},
		{
			"bufferView": 2,
			"count": 495,
			"type": "VEC3",
			"componentType": 5126
		},
		{
			"bufferView": 3,
			"count": 495,
			"type": "VEC4",
			"componentType": 5126
		},
		{
			"bufferView": 4,
			"count": 495,
			"type": "VEC2",
			"componentType": 5126
		},
		{
			"bufferView": 5,
			"count": 495,
			"type": "VEC2",
			"componentType": 5126
		},
		{
			"bufferView": 6,
			"count": 312,
			"type": "SCALAR",
			"componentType": 5121
		},
		{
			"bufferView": 7,
			"count": 112,
			"type": "VEC3",
			"componentType": 5126,
			"min": [ -13.8027077, 4.88280693e-06, -13.8060255 ],
			"max": [ 13.8231268, 1.00000489, 13.8093843 ]
		},
		{
			"bufferView": 8,
			"count": 112,
			"type": "VEC3",
			"componentType": 5126
		},
		{
			"bufferView": 9,
			"count": 112,
			"type": "VEC4",
			"componentType": 5126
		},
		{
			"bufferView": 10,
			"count": 112,
			"type": "VEC2",
			"componentType": 5126
		},
		{
			"bufferView": 11,
			"count": 112,
			"type": "VEC2",
			"componentType": 5126
		},
		{
			"bufferView": 12,
			"count": 615,
			"type": "SCALAR",
			"componentType": 5121
		},
		{
			"bufferView": 13,
			"count": 221,
			"type": "VEC3",
			"componentType": 5126,
			"min": [ -14.3988457, 4.88194382e-06, -14.4009466 ],
			"max": [ 14.4275341, 1.00000489, 14.4042921 ]
		},
		{
			"bufferView": 14,
			"count": 221,
			"type": "VEC3",
			"componentType": 5126
		},
		{
			"bufferView": 15,
			"count": 221,
			"type": "VEC4",
			"componentType": 5126
		},
		{
			"bufferView": 16,
			"count": 221,
			"type": "VEC2",
			"componentType": 5126
		},
		{
			"bufferView": 17,
			"count": 221,
			"type": "VEC2",
			"componentType": 5126
		}
	],
	"buffers": [
		{
			"uri": "SM_Big_Tower_03_floor_01.bin",
			"byteLength": 49632
		}
	],
	"bufferViews": [
		{
			"buffer": 0,
			"byteLength": 2334,
			"target": 34963
		},
		{
			"buffer": 0,
			"byteLength": 5940,
			"byteOffset": 2336,
			"target": 34962
		},
		{
			"buffer": 0,
			"byteLength": 5940,
			"byteOffset": 8276,
			"target": 34962
		},
		{
			"buffer": 0,
			"byteLength": 7920,
			"byteOffset": 14216,
			"target": 34962
		},
		{
			"buffer": 0,
			"byteLength": 3960,
			"byteOffset": 22136,
			"target": 34962
		},
		{
			"buffer": 0,
			"byteLength": 3960,
			"byteOffset": 26096,
			"target": 34962
		},
		{
			"buffer": 0,
			"byteLength": 312,
			"byteOffset": 30056,
			"target": 34963
		},
		{
			"buffer": 0,
			"byteLength": 1344,
			"byteOffset": 30368,
			"target": 34962
		},
		{
			"buffer": 0,
			"byteLength": 1344,
			"byteOffset": 31712,
			"target": 34962
		},
		{
			"buffer": 0,
			"byteLength": 1792,
			"byteOffset": 33056,
			"target": 34962
		},
		{
			"buffer": 0,
			"byteLength": 896,
			"byteOffset": 34848,
			"target": 34962
		},
		{
			"buffer": 0,
			"byteLength": 896,
			"byteOffset": 35744,
			"target": 34962
		},
		{
			"buffer": 0,
			"byteLength": 615,
			"byteOffset": 36640,
			"target": 34963
		},
		{
			"buffer": 0,
			"byteLength": 2652,
			"byteOffset": 37256,
			"target": 34962
		},
		{
			"buffer": 0,
			"byteLength": 2652,
			"byteOffset": 39908,
			"target": 34962
		},
		{
			"buffer": 0,
			"byteLength": 3536,
			"byteOffset": 42560,
			"target": 34962
		},
		{
			"buffer": 0,
			"byteLength": 1768,
			"byteOffset": 46096,
			"target": 34962
		},
		{
			"buffer": 0,
			"byteLength": 1768,
			"byteOffset": 47864,
			"target": 34962
		}
	],
	"images": [
		{
			"uri": "MI_Floor_Brick_01_BaseColor.png"
		},
		{
			"uri": "MI_Floor_Brick_01_MetallicRoughness.png"
		},
		{
			"uri": "MI_Floor_Brick_01_Normal.png"
		},
		{
			"uri": "MI_Floor_Brick_01_Occlusion.png"
		},
		{
			"uri": "M_Floor_04_BaseColor.png"
		},
		{
			"uri": "M_Floor_04_MetallicRoughness.png"
		},
		{
			"uri": "M_Floor_04_Normal.png"
		},
		{
			"uri": "M_Floor_04_Occlusion.png"
		},
		{
			"uri": "MI_Brick_02_BaseColor.png"
		},
		{
			"uri": "MI_Brick_02_MetallicRoughness.png"
		},
		{
			"uri": "MI_Brick_02_Normal.png"
		},
		{
			"uri": "MI_Brick_02_Occlusion.png"
		}
	],
	"materials": [
		{
			"name": "MI_Floor_Brick_01",
			"pbrMetallicRoughness":
			{
				"baseColorTexture":
				{
					"index": 0
				},
				"metallicRoughnessTexture":
				{
					"index": 1
				}
			},
			"normalTexture":
			{
				"index": 2
			},
			"occlusionTexture":
			{
				"index": 3
			}
		},
		{
			"name": "M_Floor_04",
			"pbrMetallicRoughness":
			{
				"baseColorTexture":
				{
					"index": 4
				},
				"metallicRoughnessTexture":
				{
					"index": 5
				}
			},
			"normalTexture":
			{
				"index": 6
			},
			"occlusionTexture":
			{
				"index": 7
			}
		},
		{
			"name": "MI_Brick_02",
			"pbrMetallicRoughness":
			{
				"baseColorTexture":
				{
					"index": 8
				},
				"metallicRoughnessTexture":
				{
					"index": 9
				}
			},
			"normalTexture":
			{
				"index": 10
			},
			"occlusionTexture":
			{
				"index": 11
			}
		}
	],
	"meshes": [
		{
			"name": "SM_Big_Tower_03_floor_01",
			"primitives": [
				{
					"attributes":
					{
						"POSITION": 1,
						"NORMAL": 2,
						"TANGENT": 3,
						"TEXCOORD_0": 4,
						"TEXCOORD_1": 5
					},
					"indices": 0,
					"material": 0
				},
				{
					"attributes":
					{
						"POSITION": 7,
						"NORMAL": 8,
						"TANGENT": 9,
						"TEXCOORD_0": 10,
						"TEXCOORD_1": 11
					},
					"indices": 6,
					"material": 1
				},
				{
					"attributes":
					{
						"POSITION": 13,
						"NORMAL": 14,
						"TANGENT": 15,
						"TEXCOORD_0": 16,
						"TEXCOORD_1": 17
					},
					"indices": 12,
					"material": 2
				}
			]
		}
	],
	"nodes": [
		{
			"mesh": 0
		}
	],
	"samplers": [
		{
			"minFilter": 9987,
			"magFilter": 9729
		}
	],
	"scenes": [
		{
			"nodes": [ 0 ]
		}
	],
	"textures": [
		{
			"name": "MI_Floor_Brick_01_BaseColor",
			"sampler": 0,
			"source": 0
		},
		{
			"name": "MI_Floor_Brick_01_MetallicRoughness",
			"sampler": 0,
			"source": 1
		},
		{
			"name": "MI_Floor_Brick_01_Normal",
			"sampler": 0,
			"source": 2
		},
		{
			"name": "MI_Floor_Brick_01_Occlusion",
			"sampler": 0,
			"source": 3
		},
		{
			"name": "M_Floor_04_BaseColor",
			"sampler": 0,
			"source": 4
		},
		{
			"name": "M_Floor_04_MetallicRoughness",
			"sampler": 0,
			"source": 5
		},
		{
			"name": "M_Floor_04_Normal",
			"sampler": 0,
			"source": 6
		},
		{
			"name": "M_Floor_04_Occlusion",
			"sampler": 0,
			"source": 7
		},
		{
			"name": "MI_Brick_02_BaseColor",
			"sampler": 0,
			"source": 8
		},
		{
			"name": "MI_Brick_02_MetallicRoughness",
			"sampler": 0,
			"source": 9
		},
		{
			"name": "MI_Brick_02_Normal",
			"sampler": 0,
			"source": 10
		},
		{
			"name": "MI_Brick_02_Occlusion",
			"sampler": 0,
			"source": 11
		}
	]
}