{
	"asset":
	{
		"version": "2.0",
		"generator": "Unreal Engine 5.6.1"
	},
	"scene": 0,
	"accessors": [
		{
			"bufferView": 0,
			"count": 2244,
			"type": "SCALAR",
			"componentType": 5123
		},
		{
			"bufferView": 1,
			"count": 882,
			"type": "VEC3",
			"componentType": 5126,
			"min": [ 0, 0, -0.114796184 ],
			"max": [ 1.09437692, 2.08551407, 0.114796184 ]
		},
		{
			"bufferView": 2,
			"count": 882,
			"type": "VEC3",
			"componentType": 5126
		},
		{
			"bufferView": 3,
			"count": 882,
			"type": "VEC4",
			"componentType": 5126
		},
		{
			"bufferView": 4,
			"count": 882,
			"type": "VEC2",
			"componentType": 5126
		},
		{
			"bufferView": 5,
			"count": 882,
			"type": "VEC2",
			"componentType": 5126
		}
	],
	"buffers": [
		{
			"uri": "SM_door_01.bin",
			"byteLength": 53880
		}
	],
	"bufferViews": [
		{
			"buffer": 0,
			"byteLength": 4488,
			"target": 34963
		},
		{
			"buffer": 0,
			"byteLength": 10584,
			"byteOffset": 4488,
			"target": 34962
		},
		{
			"buffer": 0,
			"byteLength": 10584,
			"byteOffset": 15072,
			"target": 34962
		},
		{
			"buffer": 0,
			"byteLength": 14112,
			"byteOffset": 25656,
			"target": 34962
		},
		{
			"buffer": 0,
			"byteLength": 7056,
			"byteOffset": 39768,
			"target": 34962
		},
		{
			"buffer": 0,
			"byteLength": 7056,
			"byteOffset": 46824,
			"target": 34962
		}
	],
	"images": [
		{
			"uri": "MI_Wood_Trim_BaseColor.png"
		},
		{
			"uri": "MI_Wood_Trim_MetallicRoughness.png"
		},
		{
			"uri": "MI_Wood_Trim_Occlusion.png"
		},
		{
			"uri": "T_Wood_Trim_N.png"
		}
	],
	"materials": [
		{
			"name": "MI_Wood_Trim",
			"pbrMetallicRoughness":
			{
				"baseColorTexture":
				{
					"index": 0
				},
				"metallicRoughnessTexture":
				{
					"index": 1
				}
			},
			"normalTexture":
			{
				"index": 2
			},
			"occlusionTexture":
			{
				"index": 3
			}
		}
	],
	"meshes": [
		{
			"name": "SM_door_01",
			"primitives": [
				{
					"attributes":
					{
						"POSITION": 1,
						"NORMAL": 2,
						"TANGENT": 3,
						"TEXCOORD_0": 4,
						"TEXCOORD_1": 5
					},
					"indices": 0,
					"material": 0
				}
			]
		}
	],
	"nodes": [
		{
			"mesh": 0
		}
	],
	"samplers": [
		{
			"minFilter": 9987,
			"magFilter": 9729
		}
	],
	"scenes": [
		{
			"nodes": [ 0 ]
		}
	],
	"textures": [
		{
			"name": "MI_Wood_Trim_BaseColor",
			"sampler": 0,
			"source": 0
		},
		{
			"name": "MI_Wood_Trim_MetallicRoughness",
			"sampler": 0,
			"source": 1
		},
		{
			"name": "T_Wood_Trim_N",
			"sampler": 0,
			"source": 3
		},
		{
			"name": "MI_Wood_Trim_Occlusion",
			"sampler": 0,
			"source": 2
		}
	]
}