{
	"asset":
	{
		"version": "2.0",
		"generator": "Unreal Engine 5.6.1"
	},
	"scene": 0,
	"accessors": [
		{
			"bufferView": 0,
			"count": 16,
			"type": "MAT4",
			"componentType": 5126
		},
		{
			"bufferView": 1,
			"count": 26,
			"type": "SCALAR",
			"componentType": 5126,
			"min": [ 0 ],
			"max": [ 0.833333254 ]
		},
		{
			"bufferView": 2,
			"count": 26,
			"type": "VEC3",
			"componentType": 5126
		},
		{
			"bufferView": 3,
			"count": 26,
			"type": "VEC4",
			"componentType": 5126
		},
		{
			"bufferView": 4,
			"count": 26,
			"type": "VEC3",
			"componentType": 5126
		},
		{
			"bufferView": 5,
			"count": 26,
			"type": "VEC3",
			"componentType": 5126
		},
		{
			"bufferView": 6,
			"count": 26,
			"type": "VEC4",
			"componentType": 5126
		},
		{
			"bufferView": 7,
			"count": 26,
			"type": "VEC3",
			"componentType": 5126
		},
		{
			"bufferView": 8,
			"count": 26,
			"type": "VEC3",
			"componentType": 5126
		},
		{
			"bufferView": 9,
			"count": 26,
			"type": "VEC4",
			"componentType": 5126
		},
		{
			"bufferView": 10,
			"count": 26,
			"type": "VEC3",
			"componentType": 5126
		},
		{
			"bufferView": 11,
			"count": 26,
			"type": "VEC3",
			"componentType": 5126
		},
		{
			"bufferView": 12,
			"count": 26,
			"type": "VEC4",
			"componentType": 5126
		},
		{
			"bufferView": 13,
			"count": 26,
			"type": "VEC3",
			"componentType": 5126
		},
		{
			"bufferView": 14,
			"count": 26,
			"type": "VEC3",
			"componentType": 5126
		},
		{
			"bufferView": 15,
			"count": 26,
			"type": "VEC4",
			"componentType": 5126
		},
		{
			"bufferView": 16,
			"count": 26,
			"type": "VEC3",
			"componentType": 5126
		},
		{
			"bufferView": 17,
			"count": 26,
			"type": "VEC3",
			"componentType": 5126
		},
		{
			"bufferView": 18,
			"count": 26,
			"type": "VEC4",
			"componentType": 5126
		},
		{
			"bufferView": 19,
			"count": 26,
			"type": "VEC3",
			"componentType": 5126
		},
		{
			"bufferView": 20,
			"count": 26,
			"type": "VEC3",
			"componentType": 5126
		},
		{
			"bufferView": 21,
			"count": 26,
			"type": "VEC4",
			"componentType": 5126
		},
		{
			"bufferView": 22,
			"count": 26,
			"type": "VEC3",
			"componentType": 5126
		},
		{
			"bufferView": 23,
			"count": 26,
			"type": "VEC3",
			"componentType": 5126
		},
		{
			"bufferView": 24,
			"count": 26,
			"type": "VEC4",
			"componentType": 5126
		},
		{
			"bufferView": 25,
			"count": 26,
			"type": "VEC3",
			"componentType": 5126
		},
		{
			"bufferView": 26,
			"count": 26,
			"type": "VEC3",
			"componentType": 5126
		},
		{
			"bufferView": 27,
			"count": 26,
			"type": "VEC4",
			"componentType": 5126
		},
		{
			"bufferView": 28,
			"count": 26,
			"type": "VEC3",
			"componentType": 5126
		},
		{
			"bufferView": 29,
			"count": 26,
			"type": "VEC3",
			"componentType": 5126
		},
		{
			"bufferView": 30,
			"count": 26,
			"type": "VEC4",
			"componentType": 5126
		},
		{
			"bufferView": 31,
			"count": 26,
			"type": "VEC3",
			"componentType": 5126
		},
		{
			"bufferView": 32,
			"count": 26,
			"type": "VEC3",
			"componentType": 5126
		},
		{
			"bufferView": 33,
			"count": 26,
			"type": "VEC4",
			"componentType": 5126
		},
		{
			"bufferView": 34,
			"count": 26,
			"type": "VEC3",
			"componentType": 5126
		},
		{
			"bufferView": 35,
			"count": 26,
			"type": "VEC3",
			"componentType": 5126
		},
		{
			"bufferView": 36,
			"count": 26,
			"type": "VEC4",
			"componentType": 5126
		},
		{
			"bufferView": 37,
			"count": 26,
			"type": "VEC3",
			"componentType": 5126
		},
		{
			"bufferView": 38,
			"count": 26,
			"type": "VEC3",
			"componentType": 5126
		},
		{
			"bufferView": 39,
			"count": 26,
			"type": "VEC4",
			"componentType": 5126
		},
		{
			"bufferView": 40,
			"count": 26,
			"type": "VEC3",
			"componentType": 5126
		},
		{
			"bufferView": 41,
			"count": 26,
			"type": "VEC3",
			"componentType": 5126
		},
		{
			"bufferView": 42,
			"count": 26,
			"type": "VEC4",
			"componentType": 5126
		},
		{
			"bufferView": 43,
			"count": 26,
			"type": "VEC3",
			"componentType": 5126
		},
		{
			"bufferView": 44,
			"count": 26,
			"type": "VEC3",
			"componentType": 5126
		},
		{
			"bufferView": 45,
			"count": 26,
			"type": "VEC4",
			"componentType": 5126
		},
		{
			"bufferView": 46,
			"count": 26,
			"type": "VEC3",
			"componentType": 5126
		},
		{
			"bufferView": 47,
			"count": 26,
			"type": "VEC3",
			"componentType": 5126
		},
		{
			"bufferView": 48,
			"count": 26,
			"type": "VEC4",
			"componentType": 5126
		},
		{
			"bufferView": 49,
			"count": 26,
			"type": "VEC3",
			"componentType": 5126
		},
		{
			"bufferView": 50,
			"count": 31134,
			"type": "SCALAR",
			"componentType": 5123
		},
		{
			"bufferView": 51,
			"count": 8052,
			"type": "VEC3",
			"componentType": 5126,
			"min": [ -1.00000024, -0.291624516, -1.09377193 ],
			"max": [ 1.00000024, 0.852009356, 1.00000012 ]
		},
		{
			"bufferView": 52,
			"count": 8052,
			"type": "VEC3",
			"componentType": 5126
		},
		{
			"bufferView": 53,
			"count": 8052,
			"type": "VEC4",
			"componentType": 5126
		},
		{
			"bufferView": 54,
			"count": 8052,
			"type": "VEC2",
			"componentType": 5126
		},
		{
			"bufferView": 55,
			"count": 8052,
			"type": "VEC2",
			"componentType": 5126
		},
		{
			"bufferView": 56,
			"count": 8052,
			"type": "VEC2",
			"componentType": 5126
		},
		{
			"bufferView": 57,
			"count": 8052,
			"type": "VEC4",
			"componentType": 5121
		},
		{
			"bufferView": 58,
			"count": 8052,
			"type": "VEC4",
			"componentType": 5121,
			"normalized": true
		}
	],
	"animations": [
		{
			"name": "scene_Anim_0",
			"channels": [
				{
					"sampler": 0,
					"target":
					{
						"node": 1,
						"path": "translation"
					}
				},
				{
					"sampler": 1,
					"target":
					{
						"node": 1,
						"path": "rotation"
					}
				},
				{
					"sampler": 2,
					"target":
					{
						"node": 1,
						"path": "scale"
					}
				},
				{
					"sampler": 3,
					"target":
					{
						"node": 2,
						"path": "translation"
					}
				},
				{
					"sampler": 4,
					"target":
					{
						"node": 2,
						"path": "rotation"
					}
				},
				{
					"sampler": 5,
					"target":
					{
						"node": 2,
						"path": "scale"
					}
				},
				{
					"sampler": 6,
					"target":
					{
						"node": 3,
						"path": "translation"
					}
				},
				{
					"sampler": 7,
					"target":
					{
						"node": 3,
						"path": "rotation"
					}
				},
				{
					"sampler": 8,
					"target":
					{
						"node": 3,
						"path": "scale"
					}
				},
				{
					"sampler": 9,
					"target":
					{
						"node": 4,
						"path": "translation"
					}
				},
				{
					"sampler": 10,
					"target":
					{
						"node": 4,
						"path": "rotation"
					}
				},
				{
					"sampler": 11,
					"target":
					{
						"node": 4,
						"path": "scale"
					}
				},
				{
					"sampler": 12,
					"target":
					{
						"node": 5,
						"path": "translation"
					}
				},
				{
					"sampler": 13,
					"target":
					{
						"node": 5,
						"path": "rotation"
					}
				},
				{
					"sampler": 14,
					"target":
					{
						"node": 5,
						"path": "scale"
					}
				},
				{
					"sampler": 15,
					"target":
					{
						"node": 6,
						"path": "translation"
					}
				},
				{
					"sampler": 16,
					"target":
					{
						"node": 6,
						"path": "rotation"
					}
				},
				{
					"sampler": 17,
					"target":
					{
						"node": 6,
						"path": "scale"
					}
				},
				{
					"sampler": 18,
					"target":
					{
						"node": 7,
						"path": "translation"
					}
				},
				{
					"sampler": 19,
					"target":
					{
						"node": 7,
						"path": "rotation"
					}
				},
				{
					"sampler": 20,
					"target":
					{
						"node": 7,
						"path": "scale"
					}
				},
				{
					"sampler": 21,
					"target":
					{
						"node": 8,
						"path": "translation"
					}
				},
				{
					"sampler": 22,
					"target":
					{
						"node": 8,
						"path": "rotation"
					}
				},
				{
					"sampler": 23,
					"target":
					{
						"node": 8,
						"path": "scale"
					}
				},
				{
					"sampler": 24,
					"target":
					{
						"node": 9,
						"path": "translation"
					}
				},
				{
					"sampler": 25,
					"target":
					{
						"node": 9,
						"path": "rotation"
					}
				},
				{
					"sampler": 26,
					"target":
					{
						"node": 9,
						"path": "scale"
					}
				},
				{
					"sampler": 27,
					"target":
					{
						"node": 10,
						"path": "translation"
					}
				},
				{
					"sampler": 28,
					"target":
					{
						"node": 10,
						"path": "rotation"
					}
				},
				{
					"sampler": 29,
					"target":
					{
						"node": 10,
						"path": "scale"
					}
				},
				{
					"sampler": 30,
					"target":
					{
						"node": 11,
						"path": "translation"
					}
				},
				{
					"sampler": 31,
					"target":
					{
						"node": 11,
						"path": "rotation"
					}
				},
				{
					"sampler": 32,
					"target":
					{
						"node": 11,
						"path": "scale"
					}
				},
				{
					"sampler": 33,
					"target":
					{
						"node": 12,
						"path": "translation"
					}
				},
				{
					"sampler": 34,
					"target":
					{
						"node": 12,
						"path": "rotation"
					}
				},
				{
					"sampler": 35,
					"target":
					{
						"node": 12,
						"path": "scale"
					}
				},
				{
					"sampler": 36,
					"target":
					{
						"node": 13,
						"path": "translation"
					}
				},
				{
					"sampler": 37,
					"target":
					{
						"node": 13,
						"path": "rotation"
					}
				},
				{
					"sampler": 38,
					"target":
					{
						"node": 13,
						"path": "scale"
					}
				},
				{
					"sampler": 39,
					"target":
					{
						"node": 14,
						"path": "translation"
					}
				},
				{
					"sampler": 40,
					"target":
					{
						"node": 14,
						"path": "rotation"
					}
				},
				{
					"sampler": 41,
					"target":
					{
						"node": 14,
						"path": "scale"
					}
				},
				{
					"sampler": 42,
					"target":
					{
						"node": 15,
						"path": "translation"
					}
				},
				{
					"sampler": 43,
					"target":
					{
						"node": 15,
						"path": "rotation"
					}
				},
				{
					"sampler": 44,
					"target":
					{
						"node": 15,
						"path": "scale"
					}
				},
				{
					"sampler": 45,
					"target":
					{
						"node": 16,
						"path": "translation"
					}
				},
				{
					"sampler": 46,
					"target":
					{
						"node": 16,
						"path": "rotation"
					}
				},
				{
					"sampler": 47,
					"target":
					{
						"node": 16,
						"path": "scale"
					}
				}
			],
			"samplers": [
				{
					"input": 1,
					"output": 2
				},
				{
					"input": 1,
					"output": 3
				},
				{
					"input": 1,
					"output": 4
				},
				{
					"input": 1,
					"output": 5
				},
				{
					"input": 1,
					"output": 6
				},
				{
					"input": 1,
					"output": 7
				},
				{
					"input": 1,
					"output": 8
				},
				{
					"input": 1,
					"output": 9
				},
				{
					"input": 1,
					"output": 10
				},
				{
					"input": 1,
					"output": 11
				},
				{
					"input": 1,
					"output": 12
				},
				{
					"input": 1,
					"output": 13
				},
				{
					"input": 1,
					"output": 14
				},
				{
					"input": 1,
					"output": 15
				},
				{
					"input": 1,
					"output": 16
				},
				{
					"input": 1,
					"output": 17
				},
				{
					"input": 1,
					"output": 18
				},
				{
					"input": 1,
					"output": 19
				},
				{
					"input": 1,
					"output": 20
				},
				{
					"input": 1,
					"output": 21
				},
				{
					"input": 1,
					"output": 22
				},
				{
					"input": 1,
					"output": 23
				},
				{
					"input": 1,
					"output": 24
				},
				{
					"input": 1,
					"output": 25
				},
				{
					"input": 1,
					"output": 26
				},
				{
					"input": 1,
					"output": 27
				},
				{
					"input": 1,
					"output": 28
				},
				{
					"input": 1,
					"output": 29
				},
				{
					"input": 1,
					"output": 30
				},
				{
					"input": 1,
					"output": 31
				},
				{
					"input": 1,
					"output": 32
				},
				{
					"input": 1,
					"output": 33
				},
				{
					"input": 1,
					"output": 34
				},
				{
					"input": 1,
					"output": 35
				},
				{
					"input": 1,
					"output": 36
				},
				{
					"input": 1,
					"output": 37
				},
				{
					"input": 1,
					"output": 38
				},
				{
					"input": 1,
					"output": 39
				},
				{
					"input": 1,
					"output": 40
				},
				{
					"input": 1,
					"output": 41
				},
				{
					"input": 1,
					"output": 42
				},
				{
					"input": 1,
					"output": 43
				},
				{
					"input": 1,
					"output": 44
				},
				{
					"input": 1,
					"output": 45
				},
				{
					"input": 1,
					"output": 46
				},
				{
					"input": 1,
					"output": 47
				},
				{
					"input": 1,
					"output": 48
				},
				{
					"input": 1,
					"output": 49
				}
			]
		}
	],
	"buffers": [
		{
			"uri": "Lever_UP.bin",
			"byteLength": 659780
		}
	],
	"bufferViews": [
		{
			"buffer": 0,
			"byteLength": 1024
		},
		{
			"buffer": 0,
			"byteLength": 104,
			"byteOffset": 1024
		},
		{
			"buffer": 0,
			"byteLength": 312,
			"byteOffset": 1128
		},
		{
			"buffer": 0,
			"byteLength": 416,
			"byteOffset": 1440
		},
		{
			"buffer": 0,
			"byteLength": 312,
			"byteOffset": 1856
		},
		{
			"buffer": 0,
			"byteLength": 312,
			"byteOffset": 2168
		},
		{
			"buffer": 0,
			"byteLength": 416,
			"byteOffset": 2480
		},
		{
			"buffer": 0,
			"byteLength": 312,
			"byteOffset": 2896
		},
		{
			"buffer": 0,
			"byteLength": 312,
			"byteOffset": 3208
		},
		{
			"buffer": 0,
			"byteLength": 416,
			"byteOffset": 3520
		},
		{
			"buffer": 0,
			"byteLength": 312,
			"byteOffset": 3936
		},
		{
			"buffer": 0,
			"byteLength": 312,
			"byteOffset": 4248
		},
		{
			"buffer": 0,
			"byteLength": 416,
			"byteOffset": 4560
		},
		{
			"buffer": 0,
			"byteLength": 312,
			"byteOffset": 4976
		},
		{
			"buffer": 0,
			"byteLength": 312,
			"byteOffset": 5288
		},
		{
			"buffer": 0,
			"byteLength": 416,
			"byteOffset": 5600
		},
		{
			"buffer": 0,
			"byteLength": 312,
			"byteOffset": 6016
		},
		{
			"buffer": 0,
			"byteLength": 312,
			"byteOffset": 6328
		},
		{
			"buffer": 0,
			"byteLength": 416,
			"byteOffset": 6640
		},
		{
			"buffer": 0,
			"byteLength": 312,
			"byteOffset": 7056
		},
		{
			"buffer": 0,
			"byteLength": 312,
			"byteOffset": 7368
		},
		{
			"buffer": 0,
			"byteLength": 416,
			"byteOffset": 7680
		},
		{
			"buffer": 0,
			"byteLength": 312,
			"byteOffset": 8096
		},
		{
			"buffer": 0,
			"byteLength": 312,
			"byteOffset": 8408
		},
		{
			"buffer": 0,
			"byteLength": 416,
			"byteOffset": 8720
		},
		{
			"buffer": 0,
			"byteLength": 312,
			"byteOffset": 9136
		},
		{
			"buffer": 0,
			"byteLength": 312,
			"byteOffset": 9448
		},
		{
			"buffer": 0,
			"byteLength": 416,
			"byteOffset": 9760
		},
		{
			"buffer": 0,
			"byteLength": 312,
			"byteOffset": 10176
		},
		{
			"buffer": 0,
			"byteLength": 312,
			"byteOffset": 10488
		},
		{
			"buffer": 0,
			"byteLength": 416,
			"byteOffset": 10800
		},
		{
			"buffer": 0,
			"byteLength": 312,
			"byteOffset": 11216
		},
		{
			"buffer": 0,
			"byteLength": 312,
			"byteOffset": 11528
		},
		{
			"buffer": 0,
			"byteLength": 416,
			"byteOffset": 11840
		},
		{
			"buffer": 0,
			"byteLength": 312,
			"byteOffset": 12256
		},
		{
			"buffer": 0,
			"byteLength": 312,
			"byteOffset": 12568
		},
		{
			"buffer": 0,
			"byteLength": 416,
			"byteOffset": 12880
		},
		{
			"buffer": 0,
			"byteLength": 312,
			"byteOffset": 13296
		},
		{
			"buffer": 0,
			"byteLength": 312,
			"byteOffset": 13608
		},
		{
			"buffer": 0,
			"byteLength": 416,
			"byteOffset": 13920
		},
		{
			"buffer": 0,
			"byteLength": 312,
			"byteOffset": 14336
		},
		{
			"buffer": 0,
			"byteLength": 312,
			"byteOffset": 14648
		},
		{
			"buffer": 0,
			"byteLength": 416,
			"byteOffset": 14960
		},
		{
			"buffer": 0,
			"byteLength": 312,
			"byteOffset": 15376
		},
		{
			"buffer": 0,
			"byteLength": 312,
			"byteOffset": 15688
		},
		{
			"buffer": 0,
			"byteLength": 416,
			"byteOffset": 16000
		},
		{
			"buffer": 0,
			"byteLength": 312,
			"byteOffset": 16416
		},
		{
			"buffer": 0,
			"byteLength": 312,
			"byteOffset": 16728
		},
		{
			"buffer": 0,
			"byteLength": 416,
			"byteOffset": 17040
		},
		{
			"buffer": 0,
			"byteLength": 312,
			"byteOffset": 17456
		},
		{
			"buffer": 0,
			"byteLength": 62268,
			"byteOffset": 17768,
			"target": 34963
		},
		{
			"buffer": 0,
			"byteLength": 96624,
			"byteOffset": 80036,
			"target": 34962
		},
		{
			"buffer": 0,
			"byteLength": 96624,
			"byteOffset": 176660,
			"target": 34962
		},
		{
			"buffer": 0,
			"byteLength": 128832,
			"byteOffset": 273284,
			"target": 34962
		},
		{
			"buffer": 0,
			"byteLength": 64416,
			"byteOffset": 402116,
			"target": 34962
		},
		{
			"buffer": 0,
			"byteLength": 64416,
			"byteOffset": 466532,
			"target": 34962
		},
		{
			"buffer": 0,
			"byteLength": 64416,
			"byteOffset": 530948,
			"target": 34962
		},
		{
			"buffer": 0,
			"byteLength": 32208,
			"byteOffset": 595364,
			"target": 34962
		},
		{
			"buffer": 0,
			"byteLength": 32208,
			"byteOffset": 627572,
			"target": 34962
		}
	],
	"materials": [
		{
			"name": "Material_001",
			"pbrMetallicRoughness":
			{
			},
			"doubleSided": true
		}
	],
	"meshes": [
		{
			"name": "scene",
			"primitives": [
				{
					"attributes":
					{
						"POSITION": 51,
						"NORMAL": 52,
						"TANGENT": 53,
						"TEXCOORD_0": 54,
						"TEXCOORD_1": 55,
						"TEXCOORD_2": 56,
						"JOINTS_0": 57,
						"WEIGHTS_0": 58
					},
					"indices": 50,
					"material": 0
				}
			]
		}
	],
	"nodes": [
		{
			"skin": 0,
			"mesh": 0,
			"children": [ 1 ]
		},
		{
			"name": "Sketchfab_Scene",
			"children": [ 2 ]
		},
		{
			"name": "Sketchfab_model",
			"rotation": [ -0.707106829, 0, 0, 0.707106829 ],
			"children": [ 3 ]
		},
		{
			"name": "5713918ec94e40c9b444b86ed65916c6_fbx",
			"rotation": [ 0.707106829, 0, 0, 0.707106829 ],
			"scale": [ 0.00999999978, 0.00999999978, 0.00999999978 ],
			"children": [ 4 ]
		},
		{
			"name": "Object_2",
			"children": [ 5 ]
		},
		{
			"name": "RootNode",
			"children": [ 6 ]
		},
		{
			"name": "Bones",
			"translation": [ -63.2739143, 4.10894775, 7.62755299 ],
			"rotation": [ -0.707106829, 0, 0, 0.707106709 ],
			"scale": [ 100, 100, 100 ],
			"children": [ 7 ]
		},
		{
			"name": "Object_5",
			"children": [ 8 ]
		},
		{
			"name": "_rootJoint",
			"children": [ 9, 13 ]
		},
		{
			"name": "Bone_00",
			"rotation": [ 0.50000006, 0.49999994, -0.49999997, 0.50000006 ],
			"children": [ 10, 11 ]
		},
		{
			"name": "Bone_end_02",
			"translation": [ 0, 0.374253899, 0 ]
		},
		{
			"name": "Plane_001",
			"translation": [ -0.0652766526, 0.632739305, -0.0762755424 ],
			"rotation": [ 0.50000006, 0.50000006, -0.499999911, -0.5 ],
			"children": [ 12 ]
		},
		{
			"name": "Plane_001_Material_001_0"
		},
		{
			"name": "Bone_001_01",
			"rotation": [ 0.200085282, 0.678207934, 0.200085282, 0.678207755 ],
			"children": [ 14, 15 ]
		},
		{
			"name": "Bone_001_end_03",
			"translation": [ -2.77555756e-17, 1.01751733, 0 ]
		},
		{
			"name": "Cylinder_001",
			"rotation": [ -0.200085297, -0.678207755, -0.200085253, 0.678207934 ],
			"scale": [ 0.999521554, 0.999521554, 0.999521613 ],
			"children": [ 16 ]
		},
		{
			"name": "Cylinder_001_Material_001_0"
		}
	],
	"scenes": [
		{
			"nodes": [ 0 ]
		}
	],
	"skins": [
		{
			"name": "scene",
			"inverseBindMatrices": 0,
			"skeleton": 0,
			"joints": [ 1, 2, 3, 4, 5, 6, 7, 8, 9, 10, 11, 12, 13, 14, 15, 16 ]
		}
	]
}