{
	"asset":
	{
		"version": "2.0",
		"generator": "Unreal Engine 5.6.1"
	},
	"scene": 0,
	"accessors": [
		{
			"bufferView": 0,
			"count": 1230,
			"type": "SCALAR",
			"componentType": 5123
		},
		{
			"bufferView": 1,
			"count": 390,
			"type": "VEC3",
			"componentType": 5126,
			"min": [ -0.114185072, -3.5527136e-17, -0.291690826 ],
			"max": [ 0.114185072, 0.262823761, 0.291208267 ]
		},
		{
			"bufferView": 2,
			"count": 390,
			"type": "VEC3",
			"componentType": 5126
		},
		{
			"bufferView": 3,
			"count": 390,
			"type": "VEC4",
			"componentType": 5126
		},
		{
			"bufferView": 4,
			"count": 390,
			"type": "VEC2",
			"componentType": 5126
		},
		{
			"bufferView": 5,
			"count": 390,
			"type": "VEC2",
			"componentType": 5126
		}
	],
	"buffers": [
		{
			"uri": "SM_anvil_02.bin",
			"byteLength": 24300
		}
	],
	"bufferViews": [
		{
			"buffer": 0,
			"byteLength": 2460,
			"target": 34963
		},
		{
			"buffer": 0,
			"byteLength": 4680,
			"byteOffset": 2460,
			"target": 34962
		},
		{
			"buffer": 0,
			"byteLength": 4680,
			"byteOffset": 7140,
			"target": 34962
		},
		{
			"buffer": 0,
			"byteLength": 6240,
			"byteOffset": 11820,
			"target": 34962
		},
		{
			"buffer": 0,
			"byteLength": 3120,
			"byteOffset": 18060,
			"target": 34962
		},
		{
			"buffer": 0,
			"byteLength": 3120,
			"byteOffset": 21180,
			"target": 34962
		}
	],
	"images": [
		{
			"uri": "MI_Tool_01_MetallicRoughness.png"
		},
		{
			"uri": "T_Tools_C.png"
		},
		{
			"uri": "T_Tools_N.png"
		},
		{
			"uri": "T_Tools_M.png"
		}
	],
	"materials": [
		{
			"name": "MI_Tool_01",
			"pbrMetallicRoughness":
			{
				"baseColorTexture":
				{
					"index": 0
				},
				"metallicRoughnessTexture":
				{
					"index": 1
				}
			},
			"normalTexture":
			{
				"index": 2
			},
			"occlusionTexture":
			{
				"index": 3
			}
		}
	],
	"meshes": [
		{
			"name": "SM_anvil_02",
			"primitives": [
				{
					"attributes":
					{
						"POSITION": 1,
						"NORMAL": 2,
						"TANGENT": 3,
						"TEXCOORD_0": 4,
						"TEXCOORD_1": 5
					},
					"indices": 0,
					"material": 0
				}
			]
		}
	],
	"nodes": [
		{
			"mesh": 0
		}
	],
	"samplers": [
		{
			"minFilter": 9987,
			"magFilter": 9729
		}
	],
	"scenes": [
		{
			"nodes": [ 0 ]
		}
	],
	"textures": [
		{
			"name": "T_Tools_C",
			"sampler": 0,
			"source": 1
		},
		{
			"name": "MI_Tool_01_MetallicRoughness",
			"sampler": 0,
			"source": 0
		},
		{
			"name": "T_Tools_N",
			"sampler": 0,
			"source": 2
		},
		{
			"name": "T_Tools_M",
			"sampler": 0,
			"source": 3
		}
	]
}