{
	"asset":
	{
		"version": "2.0",
		"generator": "Unreal Engine 5.6.1"
	},
	"scene": 0,
	"accessors": [
		{
			"bufferView": 0,
			"count": 7098,
			"type": "SCALAR",
			"componentType": 5123
		},
		{
			"bufferView": 1,
			"count": 2223,
			"type": "VEC3",
			"componentType": 5126,
			"min": [ -0.787920773, -1.7763568e-17, -0.586553216 ],
			"max": [ 0.787920773, 0.835298121, 0.5865978 ]
		},
		{
			"bufferView": 2,
			"count": 2223,
			"type": "VEC3",
			"componentType": 5126
		},
		{
			"bufferView": 3,
			"count": 2223,
			"type": "VEC4",
			"componentType": 5126
		},
		{
			"bufferView": 4,
			"count": 2223,
			"type": "VEC2",
			"componentType": 5126
		},
		{
			"bufferView": 5,
			"count": 2223,
			"type": "VEC2",
			"componentType": 5126
		}
	],
	"buffers": [
		{
			"uri": "SM_llog_slice_pack_01.bin",
			"byteLength": 138684
		}
	],
	"bufferViews": [
		{
			"buffer": 0,
			"byteLength": 14196,
			"target": 34963
		},
		{
			"buffer": 0,
			"byteLength": 26676,
			"byteOffset": 14196,
			"target": 34962
		},
		{
			"buffer": 0,
			"byteLength": 26676,
			"byteOffset": 40872,
			"target": 34962
		},
		{
			"buffer": 0,
			"byteLength": 35568,
			"byteOffset": 67548,
			"target": 34962
		},
		{
			"buffer": 0,
			"byteLength": 17784,
			"byteOffset": 103116,
			"target": 34962
		},
		{
			"buffer": 0,
			"byteLength": 17784,
			"byteOffset": 120900,
			"target": 34962
		}
	],
	"images": [
		{
			"uri": "MI_Log_props_01_MetallicRoughness.png"
		},
		{
			"uri": "T_Log_Props_C.png"
		},
		{
			"uri": "T_Log_Props_N.png"
		},
		{
			"uri": "T_Log_Props_M.png"
		}
	],
	"materials": [
		{
			"name": "MI_Log_props_01",
			"pbrMetallicRoughness":
			{
				"baseColorTexture":
				{
					"index": 0
				},
				"metallicRoughnessTexture":
				{
					"index": 1
				}
			},
			"normalTexture":
			{
				"index": 2
			},
			"occlusionTexture":
			{
				"index": 3
			}
		}
	],
	"meshes": [
		{
			"name": "SM_llog_slice_pack_01",
			"primitives": [
				{
					"attributes":
					{
						"POSITION": 1,
						"NORMAL": 2,
						"TANGENT": 3,
						"TEXCOORD_0": 4,
						"TEXCOORD_1": 5
					},
					"indices": 0,
					"material": 0
				}
			]
		}
	],
	"nodes": [
		{
			"mesh": 0
		}
	],
	"samplers": [
		{
			"minFilter": 9987,
			"magFilter": 9729
		}
	],
	"scenes": [
		{
			"nodes": [ 0 ]
		}
	],
	"textures": [
		{
			"name": "T_Log_Props_C",
			"sampler": 0,
			"source": 1
		},
		{
			"name": "MI_Log_props_01_MetallicRoughness",
			"sampler": 0,
			"source": 0
		},
		{
			"name": "T_Log_Props_N",
			"sampler": 0,
			"source": 2
		},
		{
			"name": "T_Log_Props_M",
			"sampler": 0,
			"source": 3
		}
	]
}