{
	"asset":
	{
		"version": "2.0",
		"generator": "Unreal Engine 5.6.1"
	},
	"scene": 0,
	"accessors": [
		{
			"bufferView": 0,
			"count": 144,
			"type": "SCALAR",
			"componentType": 5121
		},
		{
			"bufferView": 1,
			"count": 54,
			"type": "VEC3",
			"componentType": 5126,
			"min": [ -0.5, -0.5, -0.5 ],
			"max": [ 0.5, 0.5, 0.5 ]
		},
		{
			"bufferView": 2,
			"count": 54,
			"type": "VEC3",
			"componentType": 5126
		},
		{
			"bufferView": 3,
			"count": 54,
			"type": "VEC4",
			"componentType": 5126
		},
		{
			"bufferView": 4,
			"count": 54,
			"type": "VEC2",
			"componentType": 5126
		},
		{
			"bufferView": 5,
			"count": 54,
			"type": "VEC2",
			"componentType": 5126
		}
	],
	"buffers": [
		{
			"uri": "HeightMap_Material.bin",
			"byteLength": 3168
		}
	],
	"bufferViews": [
		{
			"buffer": 0,
			"byteLength": 144,
			"target": 34963
		},
		{
			"buffer": 0,
			"byteLength": 648,
			"byteOffset": 144,
			"target": 34962
		},
		{
			"buffer": 0,
			"byteLength": 648,
			"byteOffset": 792,
			"target": 34962
		},
		{
			"buffer": 0,
			"byteLength": 864,
			"byteOffset": 1440,
			"target": 34962
		},
		{
			"buffer": 0,
			"byteLength": 432,
			"byteOffset": 2304,
			"target": 34962
		},
		{
			"buffer": 0,
			"byteLength": 432,
			"byteOffset": 2736,
			"target": 34962
		}
	],
	"images": [
		{
			"uri": "T_ground_Moss_D.png"
		},
		{
			"uri": "T_Ground_Moss_N.png"
		}
	],
	"materials": [
		{
			"name": "M_Terrain_texture",
			"pbrMetallicRoughness":
			{
				"baseColorTexture":
				{
					"index": 0
				},
				"metallicFactor": 0,
				"roughnessFactor": 0.5
			},
			"normalTexture":
			{
				"index": 1
			}
		}
	],
	"meshes": [
		{
			"name": "Cube",
			"primitives": [
				{
					"attributes":
					{
						"POSITION": 1,
						"NORMAL": 2,
						"TANGENT": 3,
						"TEXCOORD_0": 4,
						"TEXCOORD_1": 5
					},
					"indices": 0,
					"material": 0
				}
			]
		}
	],
	"nodes": [
		{
			"name": "Cube",
			"translation": [ -25.8999996, 653.200012, 23.6999989 ],
			"mesh": 0
		}
	],
	"samplers": [
		{
			"minFilter": 9987,
			"magFilter": 9729
		}
	],
	"scenes": [
		{
			"name": "HeightMap",
			"nodes": [ 0 ]
		}
	],
	"textures": [
		{
			"name": "T_ground_Moss_D",
			"sampler": 0,
			"source": 0
		},
		{
			"name": "T_Ground_Moss_N",
			"sampler": 0,
			"source": 1
		}
	]
}