{
	"asset":{
		"generator":"Khronos glTF Blender I/O v5.0.21",
		"version":"2.0"
	},
	"scene":0,
	"scenes":[
		{
			"name":"Scene",
			"nodes":[
				72
			]
		}
	],
	"nodes":[
		{
			"name":"mixamorig:Hips",
			"rotation":[
				-0.7071053981781006,
				-0.0003245777916163206,
				-0.0003467909700702876,
				0.7071079611778259
			],
			"scale":[
				0.9999999403953552,
				1,
				1
			],
			"translation":[
				0,
				-9.094947017729282e-13,
				-121.86199188232422
			]
		},
		{
			"name":"mixamorig:Spine",
			"rotation":[
				-0.7569328546524048,
				-1.3292176248569376e-09,
				1.048473308173925e-09,
				0.6534926295280457
			],
			"scale":[
				1,
				1.0000001192092896,
				1
			],
			"translation":[
				1.2373820936772972e-06,
				-1.3816580772399902,
				-133.70521545410156
			]
		},
		{
			"name":"mixamorig:Spine1",
			"rotation":[
				-0.7569328546524048,
				-1.2895522427669448e-09,
				1.0771827874123119e-09,
				0.6534926295280457
			],
			"translation":[
				1.2470950423448812e-06,
				-3.429072618484497,
				-147.58853149414062
			]
		},
		{
			"name":"mixamorig:Spine2",
			"rotation":[
				-0.7071067690849304,
				-1.1821735812489464e-09,
				1.131274185439679e-09,
				0.7071067690849304
			],
			"translation":[
				1.2565946008180617e-06,
				-5.760150909423828,
				-163.3953857421875
			]
		},
		{
			"name":"mixamorig:Neck",
			"rotation":[
				-0.7071067690849304,
				-1.1821735812489464e-09,
				1.131274185439679e-09,
				0.7071067690849304
			],
			"translation":[
				1.2536796702988795e-06,
				-4.2698493003845215,
				-181.96629333496094
			]
		},
		{
			"name":"mixamorig:Head",
			"rotation":[
				-0.7071067690849304,
				-1.1821741363604588e-09,
				1.1312736303281667e-09,
				0.7071067690849304
			],
			"translation":[
				1.244578697878751e-06,
				-1.2243494987487793,
				-191.37008666992188
			]
		},
		{
			"name":"mixamorig:HeadTop_End",
			"rotation":[
				-0.7071067690849304,
				-1.1821741363604588e-09,
				1.1312736303281667e-09,
				0.7071067690849304
			],
			"translation":[
				1.223692038365698e-06,
				5.78485107421875,
				-213.548095703125
			]
		},
		{
			"name":"mixamorig:LeftEye",
			"rotation":[
				-0.680144727230072,
				-1.1418327394707717e-09,
				1.1779842656878259e-09,
				0.733077883720398
			],
			"scale":[
				1,
				0.9999998807907104,
				1
			],
			"translation":[
				4.126101016998291,
				11.576250076293945,
				-201.13389587402344
			]
		},
		{
			"name":"mixamorig:RightEye",
			"rotation":[
				-0.680144727230072,
				-1.1418327394707717e-09,
				1.1779842656878259e-09,
				0.733077883720398
			],
			"scale":[
				1,
				0.9999998807907104,
				1
			],
			"translation":[
				-3.8828988075256348,
				11.574850082397461,
				-201.13389587402344
			]
		},
		{
			"name":"mixamorig:Hair1",
			"rotation":[
				-0.6918440461158752,
				0.14612248539924622,
				-0.69184410572052,
				0.1461225003004074
			],
			"scale":[
				0.9999999403953552,
				0.9999998211860657,
				0.9999998807907104
			],
			"translation":[
				-0.006398722995072603,
				-10.572450637817383,
				-201.7747802734375
			]
		},
		{
			"name":"mixamorig:Hair2",
			"rotation":[
				-0.6853252053260803,
				0.17415332794189453,
				-0.6853252053260803,
				0.17415332794189453
			],
			"scale":[
				0.9999998807907104,
				0.9999998211860657,
				0.9999998807907104
			],
			"translation":[
				-0.0063987127505242825,
				-13.906686782836914,
				-194.23361206054688
			]
		},
		{
			"name":"mixamorig:Hair3",
			"rotation":[
				-0.6746681928634644,
				0.2117140144109726,
				-0.6746681928634644,
				0.2117139995098114
			],
			"scale":[
				0.9999999403953552,
				0.9999998211860657,
				0.9999998807907104
			],
			"translation":[
				-0.006398699712008238,
				-18.087055206298828,
				-186.53952026367188
			]
		},
		{
			"name":"mixamorig:Hair4",
			"rotation":[
				-0.6746681928634644,
				0.2117140144109726,
				-0.6746681928634644,
				0.2117139995098114
			],
			"scale":[
				0.9999999403953552,
				0.9999998211860657,
				0.9999998807907104
			],
			"translation":[
				-0.006398681551218033,
				-23.73761749267578,
				-178.42279052734375
			]
		},
		{
			"name":"mixamorig:LeftShoulder",
			"rotation":[
				0.008525561541318893,
				-0.00670021353289485,
				-0.7862007021903992,
				0.6178761124610901
			],
			"scale":[
				1,
				1.000000238418579,
				1
			],
			"translation":[
				7.279801368713379,
				-5.162950038909912,
				-174.3148956298828
			]
		},
		{
			"name":"mixamorig:LeftArm",
			"rotation":[
				1.2989375136385206e-05,
				1.2995567885809578e-05,
				-0.7071067690849304,
				0.7071067690849304
			],
			"scale":[
				1.0000001192092896,
				1.0000003576278687,
				1.0000001192092896
			],
			"translation":[
				26.754165649414062,
				-9.90142822265625,
				-173.89248657226562
			]
		},
		{
			"name":"mixamorig:LeftForeArm",
			"rotation":[
				8.402676940022502e-06,
				8.420191079494543e-06,
				-0.7071067690849304,
				0.7071067690849304
			],
			"scale":[
				1.0000001192092896,
				1.0000003576278687,
				1.0000001192092896
			],
			"translation":[
				57.164268493652344,
				-9.90142822265625,
				-173.89248657226562
			]
		},
		{
			"name":"mixamorig:LeftHand",
			"rotation":[
				0.000938735029194504,
				-0.0010628572199493647,
				-0.7084307074546814,
				0.705778956413269
			],
			"scale":[
				1.0000001192092896,
				1.0000003576278687,
				1
			],
			"translation":[
				86.11576843261719,
				-9.90142822265625,
				-173.89248657226562
			]
		},
		{
			"name":"mixamorig:LeftHandThumb1",
			"rotation":[
				0.204935684800148,
				-0.10451272130012512,
				-0.4841431975364685,
				0.8442060351371765
			],
			"scale":[
				1.000000238418579,
				1.000000238418579,
				1.0000001192092896
			],
			"translation":[
				90.5855712890625,
				-5.96356201171875,
				-170.35523986816406
			]
		},
		{
			"name":"mixamorig:LeftHandThumb2",
			"rotation":[
				0.204937145113945,
				-0.10450857877731323,
				-0.48414239287376404,
				0.8442066311836243
			],
			"scale":[
				1.000000238418579,
				1.0000003576278687,
				1.000000238418579
			],
			"translation":[
				95.9300537109375,
				-2.8779220581054688,
				-167.26959228515625
			]
		},
		{
			"name":"mixamorig:LeftHandThumb3",
			"rotation":[
				0.2049381583929062,
				-0.1045079380273819,
				-0.48414215445518494,
				0.8442066311836243
			],
			"scale":[
				1.0000001192092896,
				1.0000003576278687,
				1.000000238418579
			],
			"translation":[
				100.80180358886719,
				-0.065216064453125,
				-164.45689392089844
			]
		},
		{
			"name":"mixamorig:LeftHandThumb4",
			"rotation":[
				0.2049381583929062,
				-0.1045079305768013,
				-0.48414215445518494,
				0.8442066311836243
			],
			"scale":[
				1.0000001192092896,
				1.0000003576278687,
				1.000000238418579
			],
			"translation":[
				104.72427368164062,
				2.1994290351867676,
				-162.19223022460938
			]
		},
		{
			"name":"mixamorig:LeftHandIndex1",
			"rotation":[
				-6.439936259994283e-05,
				-6.437941192416474e-05,
				-0.7071067690849304,
				0.7071067690849304
			],
			"scale":[
				1.0000001192092896,
				1.0000004768371582,
				1.0000001192092896
			],
			"translation":[
				102.10104370117188,
				-5.45438289642334,
				-172.34564208984375
			]
		},
		{
			"name":"mixamorig:LeftHandIndex2",
			"rotation":[
				-6.43849271000363e-05,
				-6.436734111048281e-05,
				-0.7071067690849304,
				0.7071067690849304
			],
			"scale":[
				1.0000001192092896,
				1.0000003576278687,
				1.0000001192092896
			],
			"translation":[
				107.74964141845703,
				-5.454383373260498,
				-172.34564208984375
			]
		},
		{
			"name":"mixamorig:LeftHandIndex3",
			"rotation":[
				-6.43849271000363e-05,
				-6.436734111048281e-05,
				-0.7071067690849304,
				0.7071067690849304
			],
			"scale":[
				1.0000001192092896,
				1.0000003576278687,
				1.0000001192092896
			],
			"translation":[
				113.08914184570312,
				-5.454383373260498,
				-172.34564208984375
			]
		},
		{
			"name":"mixamorig:LeftHandIndex4",
			"rotation":[
				-6.43849271000363e-05,
				-6.436734111048281e-05,
				-0.7071067690849304,
				0.7071067690849304
			],
			"scale":[
				1.0000001192092896,
				1.0000003576278687,
				1.0000001192092896
			],
			"translation":[
				117.65245056152344,
				-5.454383373260498,
				-172.34564208984375
			]
		},
		{
			"name":"mixamorig:LeftHandMiddle1",
			"rotation":[
				-6.362587009789422e-05,
				-6.360910629155114e-05,
				-0.7071067690849304,
				0.7071067690849304
			],
			"scale":[
				1.0000001192092896,
				1.0000004768371582,
				1.0000001192092896
			],
			"translation":[
				102.96764373779297,
				-9.90142822265625,
				-173.89248657226562
			]
		},
		{
			"name":"mixamorig:LeftHandMiddle2",
			"rotation":[
				-6.363520515151322e-05,
				-6.362629210343584e-05,
				-0.7071067690849304,
				0.7071067690849304
			],
			"scale":[
				1.0000001192092896,
				1.0000004768371582,
				1.0000001192092896
			],
			"translation":[
				109.00395202636719,
				-9.90142822265625,
				-173.89248657226562
			]
		},
		{
			"name":"mixamorig:LeftHandMiddle3",
			"rotation":[
				-6.358413520501927e-05,
				-6.356654921546578e-05,
				-0.7071067690849304,
				0.7071067690849304
			],
			"scale":[
				1.0000001192092896,
				1.0000004768371582,
				1.0000001192092896
			],
			"translation":[
				114.08405303955078,
				-9.90142822265625,
				-173.89248657226562
			]
		},
		{
			"name":"mixamorig:LeftHandMiddle4",
			"rotation":[
				-6.359305552905425e-05,
				-6.358413520501927e-05,
				-0.7071067690849304,
				0.7071067690849304
			],
			"scale":[
				1.0000001192092896,
				1.0000004768371582,
				1.0000001192092896
			],
			"translation":[
				118.99524688720703,
				-9.90142822265625,
				-173.89248657226562
			]
		},
		{
			"name":"mixamorig:LeftHandRing1",
			"rotation":[
				-6.24550084467046e-05,
				-6.244608812266961e-05,
				-0.7071067690849304,
				0.7071067690849304
			],
			"scale":[
				1.0000001192092896,
				1.0000003576278687,
				1.0000001192092896
			],
			"translation":[
				102.2014389038086,
				-14.348495483398438,
				-173.95175170898438
			]
		},
		{
			"name":"mixamorig:LeftHandRing2",
			"rotation":[
				-6.244617543416098e-05,
				-6.242874951567501e-05,
				-0.7071067690849304,
				0.7071067690849304
			],
			"scale":[
				1.0000001192092896,
				1.0000003576278687,
				1.0000001192092896
			],
			"translation":[
				107.62653350830078,
				-14.348495483398438,
				-173.95175170898438
			]
		},
		{
			"name":"mixamorig:LeftHandRing3",
			"rotation":[
				-6.240402581170201e-05,
				-6.238660716917366e-05,
				-0.7071067690849304,
				0.7071067690849304
			],
			"scale":[
				1.0000001192092896,
				1.0000003576278687,
				1.0000001192092896
			],
			"translation":[
				111.93582916259766,
				-14.348495483398438,
				-173.95175170898438
			]
		},
		{
			"name":"mixamorig:LeftHandRing4",
			"rotation":[
				-6.240402581170201e-05,
				-6.238660716917366e-05,
				-0.7071067690849304,
				0.7071067690849304
			],
			"scale":[
				1.0000001192092896,
				1.0000003576278687,
				1.0000001192092896
			],
			"translation":[
				115.96332550048828,
				-14.348495483398438,
				-173.95175170898438
			]
		},
		{
			"name":"mixamorig:LeftHandPinky1",
			"rotation":[
				-6.351411138894036e-05,
				-6.34943280601874e-05,
				-0.7071067690849304,
				0.7071067690849304
			],
			"scale":[
				1.0000001192092896,
				1.0000003576278687,
				1.0000001192092896
			],
			"translation":[
				100.07205963134766,
				-17.637453079223633,
				-172.32156372070312
			]
		},
		{
			"name":"mixamorig:LeftHandPinky2",
			"rotation":[
				-6.349984323605895e-05,
				-6.348241731757298e-05,
				-0.7071067690849304,
				0.7071067690849304
			],
			"scale":[
				1.0000001192092896,
				1.000000238418579,
				1.0000001192092896
			],
			"translation":[
				103.91006469726562,
				-17.637453079223633,
				-172.32156372070312
			]
		},
		{
			"name":"mixamorig:LeftHandPinky3",
			"rotation":[
				-6.34577008895576e-05,
				-6.344027497107163e-05,
				-0.7071067690849304,
				0.7071067690849304
			],
			"scale":[
				1.0000001192092896,
				1.000000238418579,
				1.0000001192092896
			],
			"translation":[
				107.32066345214844,
				-17.637453079223633,
				-172.32156372070312
			]
		},
		{
			"name":"mixamorig:LeftHandPinky4",
			"rotation":[
				-6.346644659060985e-05,
				-6.34577008895576e-05,
				-0.7071067690849304,
				0.7071067690849304
			],
			"scale":[
				1.0000001192092896,
				1.000000238418579,
				1.0000001192092896
			],
			"translation":[
				111.27996826171875,
				-17.637453079223633,
				-172.32156372070312
			]
		},
		{
			"name":"mixamorig:RightShoulder",
			"rotation":[
				0.008527123369276524,
				0.006701458711177111,
				0.7862001061439514,
				0.6178768873214722
			],
			"scale":[
				0.9999998807907104,
				0.9999998211860657,
				1
			],
			"translation":[
				-7.279798984527588,
				-5.162950038909912,
				-174.3149871826172
			]
		},
		{
			"name":"mixamorig:RightArm",
			"rotation":[
				1.2940733540744986e-05,
				-1.2954523299413268e-05,
				0.7071067690849304,
				0.7071067690849304
			],
			"scale":[
				1,
				0.9999998807907104,
				1
			],
			"translation":[
				-26.75406265258789,
				-9.901371002197266,
				-173.8925018310547
			]
		},
		{
			"name":"mixamorig:RightForeArm",
			"rotation":[
				8.360530046047643e-06,
				-8.320399501826614e-06,
				0.7071067690849304,
				0.7071067690849304
			],
			"scale":[
				1,
				0.9999998807907104,
				1
			],
			"translation":[
				-57.164268493652344,
				-9.901371002197266,
				-173.8925018310547
			]
		},
		{
			"name":"mixamorig:RightHand",
			"rotation":[
				0.0009826883906498551,
				0.0010611905017867684,
				0.7084306478500366,
				0.7057790160179138
			],
			"scale":[
				0.9999999403953552,
				0.9999999403953552,
				0.9999999403953552
			],
			"translation":[
				-86.11576843261719,
				-9.901371002197266,
				-173.8925018310547
			]
		},
		{
			"name":"mixamorig:RightHandThumb1",
			"rotation":[
				0.2034783661365509,
				0.10705029219388962,
				0.48475733399391174,
				0.8438881039619446
			],
			"scale":[
				1,
				0.9999998211860657,
				1
			],
			"translation":[
				-90.58546447753906,
				-5.963732719421387,
				-170.35462951660156
			]
		},
		{
			"name":"mixamorig:RightHandThumb2",
			"rotation":[
				0.20348380506038666,
				0.10704248398542404,
				0.48475515842437744,
				0.843889057636261
			],
			"scale":[
				0.9999999403953552,
				0.9999997615814209,
				1
			],
			"translation":[
				-95.92987060546875,
				-2.8781371116638184,
				-167.26902770996094
			]
		},
		{
			"name":"mixamorig:RightHandThumb3",
			"rotation":[
				0.20348449051380157,
				0.10704121738672256,
				0.4847549796104431,
				0.8438891768455505
			],
			"scale":[
				0.9999998807907104,
				0.9999997615814209,
				1
			],
			"translation":[
				-100.8015365600586,
				-0.0654766634106636,
				-164.45635986328125
			]
		},
		{
			"name":"mixamorig:RightHandThumb4",
			"rotation":[
				0.20348449051380157,
				0.10704122483730316,
				0.4847549796104431,
				0.8438891768455505
			],
			"scale":[
				0.9999999403953552,
				0.9999997615814209,
				1
			],
			"translation":[
				-104.72416687011719,
				2.1992576122283936,
				-162.19163513183594
			]
		},
		{
			"name":"mixamorig:RightHandIndex1",
			"rotation":[
				-4.154536873102188e-05,
				4.157751754974015e-05,
				0.7071067690849304,
				0.7071067690849304
			],
			"scale":[
				1,
				0.9999998807907104,
				1
			],
			"translation":[
				-102.10125732421875,
				-5.454425811767578,
				-172.34521484375
			]
		},
		{
			"name":"mixamorig:RightHandIndex2",
			"rotation":[
				-4.159719537710771e-05,
				4.158348747296259e-05,
				0.7071067690849304,
				0.7071067690849304
			],
			"scale":[
				1,
				0.9999998807907104,
				1
			],
			"translation":[
				-107.74974822998047,
				-5.454425811767578,
				-172.34521484375
			]
		},
		{
			"name":"mixamorig:RightHandIndex3",
			"rotation":[
				-4.159719537710771e-05,
				4.158348747296259e-05,
				0.7071067690849304,
				0.7071067690849304
			],
			"scale":[
				1,
				0.9999998807907104,
				1
			],
			"translation":[
				-113.08915710449219,
				-5.454425811767578,
				-172.34521484375
			]
		},
		{
			"name":"mixamorig:RightHandIndex4",
			"rotation":[
				-4.158348747296259e-05,
				4.162370169069618e-05,
				0.7071067690849304,
				0.7071067690849304
			],
			"scale":[
				1,
				0.9999998807907104,
				1
			],
			"translation":[
				-117.65255737304688,
				-5.454425811767578,
				-172.34521484375
			]
		},
		{
			"name":"mixamorig:RightHandMiddle1",
			"rotation":[
				-4.096491102245636e-05,
				4.0951446862891316e-05,
				0.7071067690849304,
				0.7071067690849304
			],
			"scale":[
				1,
				0.9999998807907104,
				1
			],
			"translation":[
				-102.96795654296875,
				-9.901371002197266,
				-173.8925018310547
			]
		},
		{
			"name":"mixamorig:RightHandMiddle2",
			"rotation":[
				-4.095127951586619e-05,
				4.099141733604483e-05,
				0.7071067690849304,
				0.7071067690849304
			],
			"scale":[
				1,
				0.9999998807907104,
				1
			],
			"translation":[
				-109.00444793701172,
				-9.901371002197266,
				-173.8925018310547
			]
		},
		{
			"name":"mixamorig:RightHandMiddle3",
			"rotation":[
				-4.096507473150268e-05,
				4.095127951586619e-05,
				0.7071067690849304,
				0.7071067690849304
			],
			"scale":[
				1,
				0.9999998807907104,
				1
			],
			"translation":[
				-114.08384704589844,
				-9.901371002197266,
				-173.8925018310547
			]
		},
		{
			"name":"mixamorig:RightHandMiddle4",
			"rotation":[
				-4.095127951586619e-05,
				4.099141733604483e-05,
				0.7071067690849304,
				0.7071067690849304
			],
			"scale":[
				1,
				0.9999998807907104,
				1
			],
			"translation":[
				-118.99524688720703,
				-9.901371002197266,
				-173.8925018310547
			]
		},
		{
			"name":"mixamorig:RightHandRing1",
			"rotation":[
				-3.948976882384159e-05,
				3.947630830225535e-05,
				0.7071067690849304,
				0.7071067690849304
			],
			"scale":[
				1,
				0.9999998807907104,
				1
			],
			"translation":[
				-102.20124816894531,
				-14.348332405090332,
				-173.95120239257812
			]
		},
		{
			"name":"mixamorig:RightHandRing2",
			"rotation":[
				-3.948993617086671e-05,
				3.947614459320903e-05,
				0.7071067690849304,
				0.7071067690849304
			],
			"scale":[
				1,
				0.9999998807907104,
				1
			],
			"translation":[
				-107.62664031982422,
				-14.348332405090332,
				-173.95120239257812
			]
		},
		{
			"name":"mixamorig:RightHandRing3",
			"rotation":[
				-3.947614459320903e-05,
				3.951627513743006e-05,
				0.7071067690849304,
				0.7071067690849304
			],
			"scale":[
				1,
				0.9999998807907104,
				1
			],
			"translation":[
				-111.93595123291016,
				-14.348332405090332,
				-173.95120239257812
			]
		},
		{
			"name":"mixamorig:RightHandRing4",
			"rotation":[
				-3.947614459320903e-05,
				3.951627513743006e-05,
				0.7071067690849304,
				0.7071067690849304
			],
			"scale":[
				1,
				0.9999998807907104,
				1
			],
			"translation":[
				-115.96324157714844,
				-14.348332405090332,
				-173.95120239257812
			]
		},
		{
			"name":"mixamorig:RightHandPinky1",
			"rotation":[
				-4.0536237065680325e-05,
				4.056360921822488e-05,
				0.7071067690849304,
				0.7071067690849304
			],
			"scale":[
				1,
				0.9999998807907104,
				1
			],
			"translation":[
				-100.07197570800781,
				-17.63749885559082,
				-172.3214569091797
			]
		},
		{
			"name":"mixamorig:RightHandPinky2",
			"rotation":[
				-4.054352393723093e-05,
				4.052981603308581e-05,
				0.7071067690849304,
				0.7071067690849304
			],
			"scale":[
				1,
				0.9999998807907104,
				1
			],
			"translation":[
				-103.9102783203125,
				-17.63749885559082,
				-172.3214569091797
			]
		},
		{
			"name":"mixamorig:RightHandPinky3",
			"rotation":[
				-4.0487666410626844e-05,
				4.0527880628360435e-05,
				0.7071067690849304,
				0.7071067690849304
			],
			"scale":[
				1,
				0.9999998807907104,
				1
			],
			"translation":[
				-107.3205795288086,
				-17.63749885559082,
				-172.3214569091797
			]
		},
		{
			"name":"mixamorig:RightHandPinky4",
			"rotation":[
				-4.0487666410626844e-05,
				4.0527880628360435e-05,
				0.7071067690849304,
				0.7071067690849304
			],
			"scale":[
				1,
				0.9999998807907104,
				1
			],
			"translation":[
				-111.27986907958984,
				-17.63749885559082,
				-172.3214569091797
			]
		},
		{
			"name":"mixamorig:Weapon",
			"rotation":[
				-0.6813217401504517,
				-0.1276841163635254,
				0.09518495947122574,
				0.7144489288330078
			],
			"scale":[
				0.9999998807907104,
				1.0000001192092896,
				1.0000001192092896
			],
			"translation":[
				-97.50506591796875,
				-11.488251686096191,
				-168.74598693847656
			]
		},
		{
			"name":"mixamorig:RightUpLeg",
			"rotation":[
				3.194413977780641e-08,
				0.7105729579925537,
				0.7036235332489014,
				2.315207048297907e-08
			],
			"scale":[
				1,
				0.9999997615814209,
				1
			],
			"translation":[
				-11.727731704711914,
				0.3561359643936157,
				-112.65902709960938
			]
		},
		{
			"name":"mixamorig:RightLeg",
			"rotation":[
				3.215065547124141e-08,
				-0.6789564490318298,
				-0.7341785430908203,
				3.134159243245449e-08
			],
			"scale":[
				1,
				0.9999997615814209,
				1.0000001192092896
			],
			"translation":[
				-11.727729797363281,
				0.8334898352622986,
				-64.0893783569336
			]
		},
		{
			"name":"mixamorig:RightFoot",
			"rotation":[
				-0.05086177960038185,
				0.9147557020187378,
				0.4007532298564911,
				0.005652133375406265
			],
			"scale":[
				0.9999999403953552,
				1,
				0.9999999403953552
			],
			"translation":[
				-11.727729797363281,
				-2.9734342098236084,
				-15.454143524169922
			]
		},
		{
			"name":"mixamorig:RightToeBase",
			"rotation":[
				-0.033062130212783813,
				0.9994528889656067,
				-0.0009217761107720435,
				2.974968811031431e-05
			],
			"scale":[
				0.9999998807907104,
				1,
				0.9999997615814209
			],
			"translation":[
				-13.776961326599121,
				11.172585487365723,
				-0.06938552856445312
			]
		},
		{
			"name":"mixamorig:RightToe_End",
			"rotation":[
				-0.033062126487493515,
				0.9994528889656067,
				-0.0009217666229233146,
				2.9755614377791062e-05
			],
			"scale":[
				0.9999998807907104,
				1,
				0.9999997615814209
			],
			"translation":[
				-15.137910842895508,
				31.72052764892578,
				-0.10736921429634094
			]
		},
		{
			"name":"mixamorig:LeftUpLeg",
			"rotation":[
				3.795116043647795e-08,
				-0.7105729579925537,
				-0.7036235928535461,
				2.8149207409455812e-08
			],
			"scale":[
				0.9999998807907104,
				0.999999463558197,
				0.9999999403953552
			],
			"translation":[
				11.727678298950195,
				0.3560992181301117,
				-112.65895080566406
			]
		},
		{
			"name":"mixamorig:LeftLeg",
			"rotation":[
				3.21045376949769e-08,
				-0.6789564490318298,
				-0.7341785430908203,
				3.63501975186864e-08
			],
			"scale":[
				0.9999998807907104,
				0.9999994039535522,
				0.9999998807907104
			],
			"translation":[
				11.727678298950195,
				0.8334530591964722,
				-64.08932495117188
			]
		},
		{
			"name":"mixamorig:LeftFoot",
			"rotation":[
				-0.050861239433288574,
				-0.9147546291351318,
				-0.40075576305389404,
				0.0056530567817389965
			],
			"scale":[
				0.9999998807907104,
				0.9999995827674866,
				0.9999996423721313
			],
			"translation":[
				11.727678298950195,
				-2.973470449447632,
				-15.454093933105469
			]
		},
		{
			"name":"mixamorig:LeftToeBase",
			"rotation":[
				-0.0330619141459465,
				-0.9994528889656067,
				0.0009217914193868637,
				3.1128587579587474e-05
			],
			"scale":[
				0.9999997615814209,
				0.9999999403953552,
				0.9999991059303284
			],
			"translation":[
				13.776904106140137,
				11.172470092773438,
				-0.06926345825195312
			]
		},
		{
			"name":"mixamorig:LeftToe_End",
			"rotation":[
				-0.03306189924478531,
				-0.9994528889656067,
				0.0009217556798830628,
				3.1176470656646416e-05
			],
			"scale":[
				0.9999997615814209,
				0.9999999403953552,
				0.9999991059303284
			],
			"translation":[
				15.137839317321777,
				31.72031593322754,
				-0.1072494238615036
			]
		},
		{
			"children":[
				0,
				1,
				2,
				3,
				4,
				5,
				6,
				7,
				8,
				9,
				10,
				11,
				12,
				13,
				14,
				15,
				16,
				17,
				18,
				19,
				20,
				21,
				22,
				23,
				24,
				25,
				26,
				27,
				28,
				29,
				30,
				31,
				32,
				33,
				34,
				35,
				36,
				37,
				38,
				39,
				40,
				41,
				42,
				43,
				44,
				45,
				46,
				47,
				48,
				49,
				50,
				51,
				52,
				53,
				54,
				55,
				56,
				57,
				58,
				59,
				60,
				61,
				62,
				63,
				64,
				65,
				66,
				67,
				68,
				69,
				70,
				71
			],
			"name":"Armature",
			"rotation":[
				0.7071068286895752,
				0,
				0,
				0.7071068286895752
			],
			"scale":[
				0.009999999776482582,
				0.009999999776482582,
				0.009999999776482582
			]
		}
	],
	"animations":[
		{
			"channels":[
				{
					"sampler":0,
					"target":{
						"node":0,
						"path":"translation"
					}
				},
				{
					"sampler":1,
					"target":{
						"node":0,
						"path":"rotation"
					}
				},
				{
					"sampler":2,
					"target":{
						"node":0,
						"path":"scale"
					}
				},
				{
					"sampler":3,
					"target":{
						"node":1,
						"path":"translation"
					}
				},
				{
					"sampler":4,
					"target":{
						"node":1,
						"path":"rotation"
					}
				},
				{
					"sampler":5,
					"target":{
						"node":1,
						"path":"scale"
					}
				},
				{
					"sampler":6,
					"target":{
						"node":2,
						"path":"translation"
					}
				},
				{
					"sampler":7,
					"target":{
						"node":2,
						"path":"rotation"
					}
				},
				{
					"sampler":8,
					"target":{
						"node":2,
						"path":"scale"
					}
				},
				{
					"sampler":9,
					"target":{
						"node":3,
						"path":"translation"
					}
				},
				{
					"sampler":10,
					"target":{
						"node":3,
						"path":"rotation"
					}
				},
				{
					"sampler":11,
					"target":{
						"node":3,
						"path":"scale"
					}
				},
				{
					"sampler":12,
					"target":{
						"node":4,
						"path":"translation"
					}
				},
				{
					"sampler":13,
					"target":{
						"node":4,
						"path":"rotation"
					}
				},
				{
					"sampler":14,
					"target":{
						"node":4,
						"path":"scale"
					}
				},
				{
					"sampler":15,
					"target":{
						"node":5,
						"path":"translation"
					}
				},
				{
					"sampler":16,
					"target":{
						"node":5,
						"path":"rotation"
					}
				},
				{
					"sampler":17,
					"target":{
						"node":5,
						"path":"scale"
					}
				},
				{
					"sampler":18,
					"target":{
						"node":6,
						"path":"translation"
					}
				},
				{
					"sampler":19,
					"target":{
						"node":6,
						"path":"rotation"
					}
				},
				{
					"sampler":20,
					"target":{
						"node":6,
						"path":"scale"
					}
				},
				{
					"sampler":21,
					"target":{
						"node":7,
						"path":"translation"
					}
				},
				{
					"sampler":22,
					"target":{
						"node":7,
						"path":"rotation"
					}
				},
				{
					"sampler":23,
					"target":{
						"node":7,
						"path":"scale"
					}
				},
				{
					"sampler":24,
					"target":{
						"node":8,
						"path":"translation"
					}
				},
				{
					"sampler":25,
					"target":{
						"node":8,
						"path":"rotation"
					}
				},
				{
					"sampler":26,
					"target":{
						"node":8,
						"path":"scale"
					}
				},
				{
					"sampler":27,
					"target":{
						"node":9,
						"path":"translation"
					}
				},
				{
					"sampler":28,
					"target":{
						"node":9,
						"path":"rotation"
					}
				},
				{
					"sampler":29,
					"target":{
						"node":9,
						"path":"scale"
					}
				},
				{
					"sampler":30,
					"target":{
						"node":10,
						"path":"translation"
					}
				},
				{
					"sampler":31,
					"target":{
						"node":10,
						"path":"rotation"
					}
				},
				{
					"sampler":32,
					"target":{
						"node":10,
						"path":"scale"
					}
				},
				{
					"sampler":33,
					"target":{
						"node":11,
						"path":"translation"
					}
				},
				{
					"sampler":34,
					"target":{
						"node":11,
						"path":"rotation"
					}
				},
				{
					"sampler":35,
					"target":{
						"node":11,
						"path":"scale"
					}
				},
				{
					"sampler":36,
					"target":{
						"node":12,
						"path":"translation"
					}
				},
				{
					"sampler":37,
					"target":{
						"node":12,
						"path":"rotation"
					}
				},
				{
					"sampler":38,
					"target":{
						"node":12,
						"path":"scale"
					}
				},
				{
					"sampler":39,
					"target":{
						"node":13,
						"path":"translation"
					}
				},
				{
					"sampler":40,
					"target":{
						"node":13,
						"path":"rotation"
					}
				},
				{
					"sampler":41,
					"target":{
						"node":13,
						"path":"scale"
					}
				},
				{
					"sampler":42,
					"target":{
						"node":14,
						"path":"translation"
					}
				},
				{
					"sampler":43,
					"target":{
						"node":14,
						"path":"rotation"
					}
				},
				{
					"sampler":44,
					"target":{
						"node":14,
						"path":"scale"
					}
				},
				{
					"sampler":45,
					"target":{
						"node":15,
						"path":"translation"
					}
				},
				{
					"sampler":46,
					"target":{
						"node":15,
						"path":"rotation"
					}
				},
				{
					"sampler":47,
					"target":{
						"node":15,
						"path":"scale"
					}
				},
				{
					"sampler":48,
					"target":{
						"node":16,
						"path":"translation"
					}
				},
				{
					"sampler":49,
					"target":{
						"node":16,
						"path":"rotation"
					}
				},
				{
					"sampler":50,
					"target":{
						"node":16,
						"path":"scale"
					}
				},
				{
					"sampler":51,
					"target":{
						"node":17,
						"path":"translation"
					}
				},
				{
					"sampler":52,
					"target":{
						"node":17,
						"path":"rotation"
					}
				},
				{
					"sampler":53,
					"target":{
						"node":17,
						"path":"scale"
					}
				},
				{
					"sampler":54,
					"target":{
						"node":18,
						"path":"translation"
					}
				},
				{
					"sampler":55,
					"target":{
						"node":18,
						"path":"rotation"
					}
				},
				{
					"sampler":56,
					"target":{
						"node":18,
						"path":"scale"
					}
				},
				{
					"sampler":57,
					"target":{
						"node":19,
						"path":"translation"
					}
				},
				{
					"sampler":58,
					"target":{
						"node":19,
						"path":"rotation"
					}
				},
				{
					"sampler":59,
					"target":{
						"node":19,
						"path":"scale"
					}
				},
				{
					"sampler":60,
					"target":{
						"node":20,
						"path":"translation"
					}
				},
				{
					"sampler":61,
					"target":{
						"node":20,
						"path":"rotation"
					}
				},
				{
					"sampler":62,
					"target":{
						"node":20,
						"path":"scale"
					}
				},
				{
					"sampler":63,
					"target":{
						"node":21,
						"path":"translation"
					}
				},
				{
					"sampler":64,
					"target":{
						"node":21,
						"path":"rotation"
					}
				},
				{
					"sampler":65,
					"target":{
						"node":21,
						"path":"scale"
					}
				},
				{
					"sampler":66,
					"target":{
						"node":22,
						"path":"translation"
					}
				},
				{
					"sampler":67,
					"target":{
						"node":22,
						"path":"rotation"
					}
				},
				{
					"sampler":68,
					"target":{
						"node":22,
						"path":"scale"
					}
				},
				{
					"sampler":69,
					"target":{
						"node":23,
						"path":"translation"
					}
				},
				{
					"sampler":70,
					"target":{
						"node":23,
						"path":"rotation"
					}
				},
				{
					"sampler":71,
					"target":{
						"node":23,
						"path":"scale"
					}
				},
				{
					"sampler":72,
					"target":{
						"node":24,
						"path":"translation"
					}
				},
				{
					"sampler":73,
					"target":{
						"node":24,
						"path":"rotation"
					}
				},
				{
					"sampler":74,
					"target":{
						"node":24,
						"path":"scale"
					}
				},
				{
					"sampler":75,
					"target":{
						"node":25,
						"path":"translation"
					}
				},
				{
					"sampler":76,
					"target":{
						"node":25,
						"path":"rotation"
					}
				},
				{
					"sampler":77,
					"target":{
						"node":25,
						"path":"scale"
					}
				},
				{
					"sampler":78,
					"target":{
						"node":26,
						"path":"translation"
					}
				},
				{
					"sampler":79,
					"target":{
						"node":26,
						"path":"rotation"
					}
				},
				{
					"sampler":80,
					"target":{
						"node":26,
						"path":"scale"
					}
				},
				{
					"sampler":81,
					"target":{
						"node":27,
						"path":"translation"
					}
				},
				{
					"sampler":82,
					"target":{
						"node":27,
						"path":"rotation"
					}
				},
				{
					"sampler":83,
					"target":{
						"node":27,
						"path":"scale"
					}
				},
				{
					"sampler":84,
					"target":{
						"node":28,
						"path":"translation"
					}
				},
				{
					"sampler":85,
					"target":{
						"node":28,
						"path":"rotation"
					}
				},
				{
					"sampler":86,
					"target":{
						"node":28,
						"path":"scale"
					}
				},
				{
					"sampler":87,
					"target":{
						"node":29,
						"path":"translation"
					}
				},
				{
					"sampler":88,
					"target":{
						"node":29,
						"path":"rotation"
					}
				},
				{
					"sampler":89,
					"target":{
						"node":29,
						"path":"scale"
					}
				},
				{
					"sampler":90,
					"target":{
						"node":30,
						"path":"translation"
					}
				},
				{
					"sampler":91,
					"target":{
						"node":30,
						"path":"rotation"
					}
				},
				{
					"sampler":92,
					"target":{
						"node":30,
						"path":"scale"
					}
				},
				{
					"sampler":93,
					"target":{
						"node":31,
						"path":"translation"
					}
				},
				{
					"sampler":94,
					"target":{
						"node":31,
						"path":"rotation"
					}
				},
				{
					"sampler":95,
					"target":{
						"node":31,
						"path":"scale"
					}
				},
				{
					"sampler":96,
					"target":{
						"node":32,
						"path":"translation"
					}
				},
				{
					"sampler":97,
					"target":{
						"node":32,
						"path":"rotation"
					}
				},
				{
					"sampler":98,
					"target":{
						"node":32,
						"path":"scale"
					}
				},
				{
					"sampler":99,
					"target":{
						"node":33,
						"path":"translation"
					}
				},
				{
					"sampler":100,
					"target":{
						"node":33,
						"path":"rotation"
					}
				},
				{
					"sampler":101,
					"target":{
						"node":33,
						"path":"scale"
					}
				},
				{
					"sampler":102,
					"target":{
						"node":34,
						"path":"translation"
					}
				},
				{
					"sampler":103,
					"target":{
						"node":34,
						"path":"rotation"
					}
				},
				{
					"sampler":104,
					"target":{
						"node":34,
						"path":"scale"
					}
				},
				{
					"sampler":105,
					"target":{
						"node":35,
						"path":"translation"
					}
				},
				{
					"sampler":106,
					"target":{
						"node":35,
						"path":"rotation"
					}
				},
				{
					"sampler":107,
					"target":{
						"node":35,
						"path":"scale"
					}
				},
				{
					"sampler":108,
					"target":{
						"node":36,
						"path":"translation"
					}
				},
				{
					"sampler":109,
					"target":{
						"node":36,
						"path":"rotation"
					}
				},
				{
					"sampler":110,
					"target":{
						"node":36,
						"path":"scale"
					}
				},
				{
					"sampler":111,
					"target":{
						"node":37,
						"path":"translation"
					}
				},
				{
					"sampler":112,
					"target":{
						"node":37,
						"path":"rotation"
					}
				},
				{
					"sampler":113,
					"target":{
						"node":37,
						"path":"scale"
					}
				},
				{
					"sampler":114,
					"target":{
						"node":38,
						"path":"translation"
					}
				},
				{
					"sampler":115,
					"target":{
						"node":38,
						"path":"rotation"
					}
				},
				{
					"sampler":116,
					"target":{
						"node":38,
						"path":"scale"
					}
				},
				{
					"sampler":117,
					"target":{
						"node":39,
						"path":"translation"
					}
				},
				{
					"sampler":118,
					"target":{
						"node":39,
						"path":"rotation"
					}
				},
				{
					"sampler":119,
					"target":{
						"node":39,
						"path":"scale"
					}
				},
				{
					"sampler":120,
					"target":{
						"node":40,
						"path":"translation"
					}
				},
				{
					"sampler":121,
					"target":{
						"node":40,
						"path":"rotation"
					}
				},
				{
					"sampler":122,
					"target":{
						"node":40,
						"path":"scale"
					}
				},
				{
					"sampler":123,
					"target":{
						"node":41,
						"path":"translation"
					}
				},
				{
					"sampler":124,
					"target":{
						"node":41,
						"path":"rotation"
					}
				},
				{
					"sampler":125,
					"target":{
						"node":41,
						"path":"scale"
					}
				},
				{
					"sampler":126,
					"target":{
						"node":42,
						"path":"translation"
					}
				},
				{
					"sampler":127,
					"target":{
						"node":42,
						"path":"rotation"
					}
				},
				{
					"sampler":128,
					"target":{
						"node":42,
						"path":"scale"
					}
				},
				{
					"sampler":129,
					"target":{
						"node":43,
						"path":"translation"
					}
				},
				{
					"sampler":130,
					"target":{
						"node":43,
						"path":"rotation"
					}
				},
				{
					"sampler":131,
					"target":{
						"node":43,
						"path":"scale"
					}
				},
				{
					"sampler":132,
					"target":{
						"node":44,
						"path":"translation"
					}
				},
				{
					"sampler":133,
					"target":{
						"node":44,
						"path":"rotation"
					}
				},
				{
					"sampler":134,
					"target":{
						"node":44,
						"path":"scale"
					}
				},
				{
					"sampler":135,
					"target":{
						"node":45,
						"path":"translation"
					}
				},
				{
					"sampler":136,
					"target":{
						"node":45,
						"path":"rotation"
					}
				},
				{
					"sampler":137,
					"target":{
						"node":45,
						"path":"scale"
					}
				},
				{
					"sampler":138,
					"target":{
						"node":46,
						"path":"translation"
					}
				},
				{
					"sampler":139,
					"target":{
						"node":46,
						"path":"rotation"
					}
				},
				{
					"sampler":140,
					"target":{
						"node":46,
						"path":"scale"
					}
				},
				{
					"sampler":141,
					"target":{
						"node":47,
						"path":"translation"
					}
				},
				{
					"sampler":142,
					"target":{
						"node":47,
						"path":"rotation"
					}
				},
				{
					"sampler":143,
					"target":{
						"node":47,
						"path":"scale"
					}
				},
				{
					"sampler":144,
					"target":{
						"node":48,
						"path":"translation"
					}
				},
				{
					"sampler":145,
					"target":{
						"node":48,
						"path":"rotation"
					}
				},
				{
					"sampler":146,
					"target":{
						"node":48,
						"path":"scale"
					}
				},
				{
					"sampler":147,
					"target":{
						"node":49,
						"path":"translation"
					}
				},
				{
					"sampler":148,
					"target":{
						"node":49,
						"path":"rotation"
					}
				},
				{
					"sampler":149,
					"target":{
						"node":49,
						"path":"scale"
					}
				},
				{
					"sampler":150,
					"target":{
						"node":50,
						"path":"translation"
					}
				},
				{
					"sampler":151,
					"target":{
						"node":50,
						"path":"rotation"
					}
				},
				{
					"sampler":152,
					"target":{
						"node":50,
						"path":"scale"
					}
				},
				{
					"sampler":153,
					"target":{
						"node":51,
						"path":"translation"
					}
				},
				{
					"sampler":154,
					"target":{
						"node":51,
						"path":"rotation"
					}
				},
				{
					"sampler":155,
					"target":{
						"node":51,
						"path":"scale"
					}
				},
				{
					"sampler":156,
					"target":{
						"node":52,
						"path":"translation"
					}
				},
				{
					"sampler":157,
					"target":{
						"node":52,
						"path":"rotation"
					}
				},
				{
					"sampler":158,
					"target":{
						"node":52,
						"path":"scale"
					}
				},
				{
					"sampler":159,
					"target":{
						"node":53,
						"path":"translation"
					}
				},
				{
					"sampler":160,
					"target":{
						"node":53,
						"path":"rotation"
					}
				},
				{
					"sampler":161,
					"target":{
						"node":53,
						"path":"scale"
					}
				},
				{
					"sampler":162,
					"target":{
						"node":54,
						"path":"translation"
					}
				},
				{
					"sampler":163,
					"target":{
						"node":54,
						"path":"rotation"
					}
				},
				{
					"sampler":164,
					"target":{
						"node":54,
						"path":"scale"
					}
				},
				{
					"sampler":165,
					"target":{
						"node":55,
						"path":"translation"
					}
				},
				{
					"sampler":166,
					"target":{
						"node":55,
						"path":"rotation"
					}
				},
				{
					"sampler":167,
					"target":{
						"node":55,
						"path":"scale"
					}
				},
				{
					"sampler":168,
					"target":{
						"node":56,
						"path":"translation"
					}
				},
				{
					"sampler":169,
					"target":{
						"node":56,
						"path":"rotation"
					}
				},
				{
					"sampler":170,
					"target":{
						"node":56,
						"path":"scale"
					}
				},
				{
					"sampler":171,
					"target":{
						"node":57,
						"path":"translation"
					}
				},
				{
					"sampler":172,
					"target":{
						"node":57,
						"path":"rotation"
					}
				},
				{
					"sampler":173,
					"target":{
						"node":57,
						"path":"scale"
					}
				},
				{
					"sampler":174,
					"target":{
						"node":58,
						"path":"translation"
					}
				},
				{
					"sampler":175,
					"target":{
						"node":58,
						"path":"rotation"
					}
				},
				{
					"sampler":176,
					"target":{
						"node":58,
						"path":"scale"
					}
				},
				{
					"sampler":177,
					"target":{
						"node":59,
						"path":"translation"
					}
				},
				{
					"sampler":178,
					"target":{
						"node":59,
						"path":"rotation"
					}
				},
				{
					"sampler":179,
					"target":{
						"node":59,
						"path":"scale"
					}
				},
				{
					"sampler":180,
					"target":{
						"node":60,
						"path":"translation"
					}
				},
				{
					"sampler":181,
					"target":{
						"node":60,
						"path":"rotation"
					}
				},
				{
					"sampler":182,
					"target":{
						"node":60,
						"path":"scale"
					}
				},
				{
					"sampler":183,
					"target":{
						"node":61,
						"path":"translation"
					}
				},
				{
					"sampler":184,
					"target":{
						"node":61,
						"path":"rotation"
					}
				},
				{
					"sampler":185,
					"target":{
						"node":61,
						"path":"scale"
					}
				},
				{
					"sampler":186,
					"target":{
						"node":62,
						"path":"translation"
					}
				},
				{
					"sampler":187,
					"target":{
						"node":62,
						"path":"rotation"
					}
				},
				{
					"sampler":188,
					"target":{
						"node":62,
						"path":"scale"
					}
				},
				{
					"sampler":189,
					"target":{
						"node":63,
						"path":"translation"
					}
				},
				{
					"sampler":190,
					"target":{
						"node":63,
						"path":"rotation"
					}
				},
				{
					"sampler":191,
					"target":{
						"node":63,
						"path":"scale"
					}
				},
				{
					"sampler":192,
					"target":{
						"node":64,
						"path":"translation"
					}
				},
				{
					"sampler":193,
					"target":{
						"node":64,
						"path":"rotation"
					}
				},
				{
					"sampler":194,
					"target":{
						"node":64,
						"path":"scale"
					}
				},
				{
					"sampler":195,
					"target":{
						"node":65,
						"path":"translation"
					}
				},
				{
					"sampler":196,
					"target":{
						"node":65,
						"path":"rotation"
					}
				},
				{
					"sampler":197,
					"target":{
						"node":65,
						"path":"scale"
					}
				},
				{
					"sampler":198,
					"target":{
						"node":66,
						"path":"translation"
					}
				},
				{
					"sampler":199,
					"target":{
						"node":66,
						"path":"rotation"
					}
				},
				{
					"sampler":200,
					"target":{
						"node":66,
						"path":"scale"
					}
				},
				{
					"sampler":201,
					"target":{
						"node":67,
						"path":"translation"
					}
				},
				{
					"sampler":202,
					"target":{
						"node":67,
						"path":"rotation"
					}
				},
				{
					"sampler":203,
					"target":{
						"node":67,
						"path":"scale"
					}
				},
				{
					"sampler":204,
					"target":{
						"node":68,
						"path":"translation"
					}
				},
				{
					"sampler":205,
					"target":{
						"node":68,
						"path":"rotation"
					}
				},
				{
					"sampler":206,
					"target":{
						"node":68,
						"path":"scale"
					}
				},
				{
					"sampler":207,
					"target":{
						"node":69,
						"path":"translation"
					}
				},
				{
					"sampler":208,
					"target":{
						"node":69,
						"path":"rotation"
					}
				},
				{
					"sampler":209,
					"target":{
						"node":69,
						"path":"scale"
					}
				},
				{
					"sampler":210,
					"target":{
						"node":70,
						"path":"translation"
					}
				},
				{
					"sampler":211,
					"target":{
						"node":70,
						"path":"rotation"
					}
				},
				{
					"sampler":212,
					"target":{
						"node":70,
						"path":"scale"
					}
				},
				{
					"sampler":213,
					"target":{
						"node":71,
						"path":"translation"
					}
				},
				{
					"sampler":214,
					"target":{
						"node":71,
						"path":"rotation"
					}
				},
				{
					"sampler":215,
					"target":{
						"node":71,
						"path":"scale"
					}
				}
			],
			"name":"mixamo.com",
			"samplers":[
				{
					"input":0,
					"interpolation":"LINEAR",
					"output":1
				},
				{
					"input":0,
					"interpolation":"LINEAR",
					"output":2
				},
				{
					"input":3,
					"interpolation":"STEP",
					"output":4
				},
				{
					"input":0,
					"interpolation":"LINEAR",
					"output":5
				},
				{
					"input":0,
					"interpolation":"LINEAR",
					"output":6
				},
				{
					"input":3,
					"interpolation":"STEP",
					"output":7
				},
				{
					"input":0,
					"interpolation":"LINEAR",
					"output":8
				},
				{
					"input":0,
					"interpolation":"LINEAR",
					"output":9
				},
				{
					"input":3,
					"interpolation":"LINEAR",
					"output":10
				},
				{
					"input":0,
					"interpolation":"LINEAR",
					"output":11
				},
				{
					"input":0,
					"interpolation":"LINEAR",
					"output":12
				},
				{
					"input":3,
					"interpolation":"LINEAR",
					"output":13
				},
				{
					"input":0,
					"interpolation":"LINEAR",
					"output":14
				},
				{
					"input":0,
					"interpolation":"LINEAR",
					"output":15
				},
				{
					"input":3,
					"interpolation":"STEP",
					"output":16
				},
				{
					"input":0,
					"interpolation":"LINEAR",
					"output":17
				},
				{
					"input":0,
					"interpolation":"LINEAR",
					"output":18
				},
				{
					"input":3,
					"interpolation":"LINEAR",
					"output":19
				},
				{
					"input":0,
					"interpolation":"LINEAR",
					"output":20
				},
				{
					"input":0,
					"interpolation":"LINEAR",
					"output":18
				},
				{
					"input":3,
					"interpolation":"STEP",
					"output":19
				},
				{
					"input":0,
					"interpolation":"LINEAR",
					"output":21
				},
				{
					"input":0,
					"interpolation":"LINEAR",
					"output":22
				},
				{
					"input":3,
					"interpolation":"STEP",
					"output":23
				},
				{
					"input":0,
					"interpolation":"LINEAR",
					"output":24
				},
				{
					"input":0,
					"interpolation":"LINEAR",
					"output":22
				},
				{
					"input":3,
					"interpolation":"STEP",
					"output":23
				},
				{
					"input":0,
					"interpolation":"LINEAR",
					"output":25
				},
				{
					"input":0,
					"interpolation":"LINEAR",
					"output":26
				},
				{
					"input":3,
					"interpolation":"LINEAR",
					"output":27
				},
				{
					"input":0,
					"interpolation":"LINEAR",
					"output":28
				},
				{
					"input":0,
					"interpolation":"LINEAR",
					"output":29
				},
				{
					"input":3,
					"interpolation":"LINEAR",
					"output":30
				},
				{
					"input":0,
					"interpolation":"LINEAR",
					"output":31
				},
				{
					"input":0,
					"interpolation":"LINEAR",
					"output":32
				},
				{
					"input":3,
					"interpolation":"LINEAR",
					"output":33
				},
				{
					"input":0,
					"interpolation":"LINEAR",
					"output":34
				},
				{
					"input":0,
					"interpolation":"LINEAR",
					"output":32
				},
				{
					"input":3,
					"interpolation":"STEP",
					"output":33
				},
				{
					"input":0,
					"interpolation":"LINEAR",
					"output":35
				},
				{
					"input":0,
					"interpolation":"LINEAR",
					"output":36
				},
				{
					"input":3,
					"interpolation":"LINEAR",
					"output":37
				},
				{
					"input":0,
					"interpolation":"LINEAR",
					"output":38
				},
				{
					"input":0,
					"interpolation":"LINEAR",
					"output":39
				},
				{
					"input":3,
					"interpolation":"LINEAR",
					"output":40
				},
				{
					"input":0,
					"interpolation":"LINEAR",
					"output":41
				},
				{
					"input":0,
					"interpolation":"LINEAR",
					"output":42
				},
				{
					"input":3,
					"interpolation":"LINEAR",
					"output":43
				},
				{
					"input":0,
					"interpolation":"LINEAR",
					"output":44
				},
				{
					"input":0,
					"interpolation":"LINEAR",
					"output":45
				},
				{
					"input":3,
					"interpolation":"LINEAR",
					"output":46
				},
				{
					"input":0,
					"interpolation":"LINEAR",
					"output":47
				},
				{
					"input":0,
					"interpolation":"LINEAR",
					"output":48
				},
				{
					"input":3,
					"interpolation":"LINEAR",
					"output":49
				},
				{
					"input":0,
					"interpolation":"LINEAR",
					"output":50
				},
				{
					"input":0,
					"interpolation":"LINEAR",
					"output":51
				},
				{
					"input":3,
					"interpolation":"STEP",
					"output":52
				},
				{
					"input":0,
					"interpolation":"LINEAR",
					"output":53
				},
				{
					"input":0,
					"interpolation":"LINEAR",
					"output":54
				},
				{
					"input":3,
					"interpolation":"STEP",
					"output":55
				},
				{
					"input":0,
					"interpolation":"LINEAR",
					"output":56
				},
				{
					"input":0,
					"interpolation":"LINEAR",
					"output":57
				},
				{
					"input":3,
					"interpolation":"STEP",
					"output":58
				},
				{
					"input":0,
					"interpolation":"LINEAR",
					"output":59
				},
				{
					"input":0,
					"interpolation":"LINEAR",
					"output":60
				},
				{
					"input":3,
					"interpolation":"LINEAR",
					"output":61
				},
				{
					"input":0,
					"interpolation":"LINEAR",
					"output":62
				},
				{
					"input":0,
					"interpolation":"LINEAR",
					"output":63
				},
				{
					"input":3,
					"interpolation":"LINEAR",
					"output":43
				},
				{
					"input":0,
					"interpolation":"LINEAR",
					"output":64
				},
				{
					"input":0,
					"interpolation":"LINEAR",
					"output":65
				},
				{
					"input":3,
					"interpolation":"LINEAR",
					"output":66
				},
				{
					"input":0,
					"interpolation":"LINEAR",
					"output":67
				},
				{
					"input":0,
					"interpolation":"LINEAR",
					"output":65
				},
				{
					"input":3,
					"interpolation":"STEP",
					"output":66
				},
				{
					"input":0,
					"interpolation":"LINEAR",
					"output":68
				},
				{
					"input":0,
					"interpolation":"LINEAR",
					"output":69
				},
				{
					"input":3,
					"interpolation":"LINEAR",
					"output":70
				},
				{
					"input":0,
					"interpolation":"LINEAR",
					"output":71
				},
				{
					"input":0,
					"interpolation":"LINEAR",
					"output":72
				},
				{
					"input":3,
					"interpolation":"STEP",
					"output":73
				},
				{
					"input":0,
					"interpolation":"LINEAR",
					"output":74
				},
				{
					"input":0,
					"interpolation":"LINEAR",
					"output":75
				},
				{
					"input":3,
					"interpolation":"LINEAR",
					"output":76
				},
				{
					"input":0,
					"interpolation":"LINEAR",
					"output":77
				},
				{
					"input":0,
					"interpolation":"LINEAR",
					"output":75
				},
				{
					"input":3,
					"interpolation":"STEP",
					"output":76
				},
				{
					"input":0,
					"interpolation":"LINEAR",
					"output":78
				},
				{
					"input":0,
					"interpolation":"LINEAR",
					"output":79
				},
				{
					"input":3,
					"interpolation":"LINEAR",
					"output":80
				},
				{
					"input":0,
					"interpolation":"LINEAR",
					"output":81
				},
				{
					"input":0,
					"interpolation":"LINEAR",
					"output":82
				},
				{
					"input":3,
					"interpolation":"LINEAR",
					"output":43
				},
				{
					"input":0,
					"interpolation":"LINEAR",
					"output":83
				},
				{
					"input":0,
					"interpolation":"LINEAR",
					"output":84
				},
				{
					"input":3,
					"interpolation":"LINEAR",
					"output":85
				},
				{
					"input":0,
					"interpolation":"LINEAR",
					"output":86
				},
				{
					"input":0,
					"interpolation":"LINEAR",
					"output":84
				},
				{
					"input":3,
					"interpolation":"STEP",
					"output":85
				},
				{
					"input":0,
					"interpolation":"LINEAR",
					"output":87
				},
				{
					"input":0,
					"interpolation":"LINEAR",
					"output":88
				},
				{
					"input":3,
					"interpolation":"LINEAR",
					"output":89
				},
				{
					"input":0,
					"interpolation":"LINEAR",
					"output":90
				},
				{
					"input":0,
					"interpolation":"LINEAR",
					"output":91
				},
				{
					"input":3,
					"interpolation":"LINEAR",
					"output":92
				},
				{
					"input":0,
					"interpolation":"LINEAR",
					"output":93
				},
				{
					"input":0,
					"interpolation":"LINEAR",
					"output":94
				},
				{
					"input":3,
					"interpolation":"LINEAR",
					"output":95
				},
				{
					"input":0,
					"interpolation":"LINEAR",
					"output":96
				},
				{
					"input":0,
					"interpolation":"LINEAR",
					"output":94
				},
				{
					"input":3,
					"interpolation":"STEP",
					"output":95
				},
				{
					"input":0,
					"interpolation":"LINEAR",
					"output":97
				},
				{
					"input":0,
					"interpolation":"LINEAR",
					"output":98
				},
				{
					"input":3,
					"interpolation":"LINEAR",
					"output":99
				},
				{
					"input":0,
					"interpolation":"LINEAR",
					"output":100
				},
				{
					"input":0,
					"interpolation":"LINEAR",
					"output":101
				},
				{
					"input":3,
					"interpolation":"LINEAR",
					"output":102
				},
				{
					"input":0,
					"interpolation":"LINEAR",
					"output":103
				},
				{
					"input":0,
					"interpolation":"LINEAR",
					"output":104
				},
				{
					"input":3,
					"interpolation":"LINEAR",
					"output":105
				},
				{
					"input":0,
					"interpolation":"LINEAR",
					"output":106
				},
				{
					"input":0,
					"interpolation":"LINEAR",
					"output":107
				},
				{
					"input":3,
					"interpolation":"LINEAR",
					"output":108
				},
				{
					"input":0,
					"interpolation":"LINEAR",
					"output":109
				},
				{
					"input":0,
					"interpolation":"LINEAR",
					"output":110
				},
				{
					"input":3,
					"interpolation":"LINEAR",
					"output":111
				},
				{
					"input":0,
					"interpolation":"LINEAR",
					"output":112
				},
				{
					"input":0,
					"interpolation":"LINEAR",
					"output":113
				},
				{
					"input":3,
					"interpolation":"LINEAR",
					"output":114
				},
				{
					"input":0,
					"interpolation":"LINEAR",
					"output":115
				},
				{
					"input":0,
					"interpolation":"LINEAR",
					"output":116
				},
				{
					"input":3,
					"interpolation":"LINEAR",
					"output":117
				},
				{
					"input":0,
					"interpolation":"LINEAR",
					"output":118
				},
				{
					"input":0,
					"interpolation":"LINEAR",
					"output":119
				},
				{
					"input":3,
					"interpolation":"STEP",
					"output":120
				},
				{
					"input":0,
					"interpolation":"LINEAR",
					"output":121
				},
				{
					"input":0,
					"interpolation":"LINEAR",
					"output":122
				},
				{
					"input":3,
					"interpolation":"STEP",
					"output":123
				},
				{
					"input":0,
					"interpolation":"LINEAR",
					"output":124
				},
				{
					"input":0,
					"interpolation":"LINEAR",
					"output":125
				},
				{
					"input":3,
					"interpolation":"LINEAR",
					"output":126
				},
				{
					"input":0,
					"interpolation":"LINEAR",
					"output":127
				},
				{
					"input":0,
					"interpolation":"LINEAR",
					"output":128
				},
				{
					"input":3,
					"interpolation":"LINEAR",
					"output":129
				},
				{
					"input":0,
					"interpolation":"LINEAR",
					"output":130
				},
				{
					"input":0,
					"interpolation":"LINEAR",
					"output":128
				},
				{
					"input":3,
					"interpolation":"STEP",
					"output":129
				},
				{
					"input":0,
					"interpolation":"LINEAR",
					"output":131
				},
				{
					"input":0,
					"interpolation":"LINEAR",
					"output":132
				},
				{
					"input":3,
					"interpolation":"LINEAR",
					"output":133
				},
				{
					"input":0,
					"interpolation":"LINEAR",
					"output":134
				},
				{
					"input":0,
					"interpolation":"LINEAR",
					"output":135
				},
				{
					"input":3,
					"interpolation":"LINEAR",
					"output":136
				},
				{
					"input":0,
					"interpolation":"LINEAR",
					"output":137
				},
				{
					"input":0,
					"interpolation":"LINEAR",
					"output":138
				},
				{
					"input":3,
					"interpolation":"LINEAR",
					"output":139
				},
				{
					"input":0,
					"interpolation":"LINEAR",
					"output":140
				},
				{
					"input":0,
					"interpolation":"LINEAR",
					"output":138
				},
				{
					"input":3,
					"interpolation":"STEP",
					"output":139
				},
				{
					"input":0,
					"interpolation":"LINEAR",
					"output":141
				},
				{
					"input":0,
					"interpolation":"LINEAR",
					"output":142
				},
				{
					"input":3,
					"interpolation":"LINEAR",
					"output":143
				},
				{
					"input":0,
					"interpolation":"LINEAR",
					"output":144
				},
				{
					"input":0,
					"interpolation":"LINEAR",
					"output":145
				},
				{
					"input":3,
					"interpolation":"LINEAR",
					"output":146
				},
				{
					"input":0,
					"interpolation":"LINEAR",
					"output":147
				},
				{
					"input":0,
					"interpolation":"LINEAR",
					"output":148
				},
				{
					"input":3,
					"interpolation":"LINEAR",
					"output":149
				},
				{
					"input":0,
					"interpolation":"LINEAR",
					"output":150
				},
				{
					"input":0,
					"interpolation":"LINEAR",
					"output":148
				},
				{
					"input":3,
					"interpolation":"STEP",
					"output":149
				},
				{
					"input":0,
					"interpolation":"LINEAR",
					"output":151
				},
				{
					"input":0,
					"interpolation":"LINEAR",
					"output":152
				},
				{
					"input":3,
					"interpolation":"LINEAR",
					"output":153
				},
				{
					"input":0,
					"interpolation":"LINEAR",
					"output":154
				},
				{
					"input":0,
					"interpolation":"LINEAR",
					"output":155
				},
				{
					"input":3,
					"interpolation":"LINEAR",
					"output":156
				},
				{
					"input":0,
					"interpolation":"LINEAR",
					"output":157
				},
				{
					"input":0,
					"interpolation":"LINEAR",
					"output":158
				},
				{
					"input":3,
					"interpolation":"LINEAR",
					"output":159
				},
				{
					"input":0,
					"interpolation":"LINEAR",
					"output":160
				},
				{
					"input":0,
					"interpolation":"LINEAR",
					"output":158
				},
				{
					"input":3,
					"interpolation":"STEP",
					"output":159
				},
				{
					"input":0,
					"interpolation":"LINEAR",
					"output":161
				},
				{
					"input":0,
					"interpolation":"LINEAR",
					"output":162
				},
				{
					"input":3,
					"interpolation":"STEP",
					"output":163
				},
				{
					"input":0,
					"interpolation":"LINEAR",
					"output":164
				},
				{
					"input":0,
					"interpolation":"LINEAR",
					"output":165
				},
				{
					"input":3,
					"interpolation":"STEP",
					"output":166
				},
				{
					"input":0,
					"interpolation":"LINEAR",
					"output":167
				},
				{
					"input":0,
					"interpolation":"LINEAR",
					"output":168
				},
				{
					"input":3,
					"interpolation":"STEP",
					"output":169
				},
				{
					"input":0,
					"interpolation":"LINEAR",
					"output":170
				},
				{
					"input":0,
					"interpolation":"LINEAR",
					"output":171
				},
				{
					"input":3,
					"interpolation":"LINEAR",
					"output":172
				},
				{
					"input":0,
					"interpolation":"LINEAR",
					"output":173
				},
				{
					"input":0,
					"interpolation":"LINEAR",
					"output":174
				},
				{
					"input":3,
					"interpolation":"STEP",
					"output":175
				},
				{
					"input":0,
					"interpolation":"LINEAR",
					"output":176
				},
				{
					"input":0,
					"interpolation":"LINEAR",
					"output":177
				},
				{
					"input":3,
					"interpolation":"STEP",
					"output":175
				},
				{
					"input":0,
					"interpolation":"LINEAR",
					"output":178
				},
				{
					"input":0,
					"interpolation":"LINEAR",
					"output":179
				},
				{
					"input":3,
					"interpolation":"LINEAR",
					"output":180
				},
				{
					"input":0,
					"interpolation":"LINEAR",
					"output":181
				},
				{
					"input":0,
					"interpolation":"LINEAR",
					"output":182
				},
				{
					"input":3,
					"interpolation":"LINEAR",
					"output":183
				},
				{
					"input":0,
					"interpolation":"LINEAR",
					"output":184
				},
				{
					"input":0,
					"interpolation":"LINEAR",
					"output":185
				},
				{
					"input":3,
					"interpolation":"LINEAR",
					"output":186
				},
				{
					"input":0,
					"interpolation":"LINEAR",
					"output":187
				},
				{
					"input":0,
					"interpolation":"LINEAR",
					"output":188
				},
				{
					"input":3,
					"interpolation":"LINEAR",
					"output":189
				},
				{
					"input":0,
					"interpolation":"LINEAR",
					"output":190
				},
				{
					"input":0,
					"interpolation":"LINEAR",
					"output":191
				},
				{
					"input":3,
					"interpolation":"STEP",
					"output":189
				}
			]
		}
	],
	"skins":[
		{
			"inverseBindMatrices":192,
			"joints":[
				0,
				1,
				2,
				3,
				4,
				5,
				6,
				7,
				8,
				9,
				10,
				11,
				12,
				13,
				14,
				15,
				16,
				17,
				18,
				19,
				20,
				21,
				22,
				23,
				24,
				25,
				26,
				27,
				28,
				29,
				30,
				31,
				32,
				33,
				34,
				35,
				36,
				37,
				38,
				39,
				40,
				41,
				42,
				43,
				44,
				45,
				46,
				47,
				48,
				49,
				50,
				51,
				52,
				53,
				54,
				55,
				56,
				57,
				58,
				59,
				60,
				61,
				62,
				63,
				64,
				65,
				66,
				67,
				68,
				69,
				70,
				71
			],
			"name":"Armature"
		}
	],
	"accessors":[
		{
			"bufferView":0,
			"componentType":5126,
			"count":76,
			"max":[
				2.533333333333333
			],
			"min":[
				0.03333333333333333
			],
			"type":"SCALAR"
		},
		{
			"bufferView":1,
			"componentType":5126,
			"count":76,
			"type":"VEC3"
		},
		{
			"bufferView":2,
			"componentType":5126,
			"count":76,
			"type":"VEC4"
		},
		{
			"bufferView":3,
			"componentType":5126,
			"count":2,
			"max":[
				2.533333333333333
			],
			"min":[
				0.03333333333333333
			],
			"type":"SCALAR"
		},
		{
			"bufferView":4,
			"componentType":5126,
			"count":2,
			"type":"VEC3"
		},
		{
			"bufferView":5,
			"componentType":5126,
			"count":76,
			"type":"VEC3"
		},
		{
			"bufferView":6,
			"componentType":5126,
			"count":76,
			"type":"VEC4"
		},
		{
			"bufferView":7,
			"componentType":5126,
			"count":2,
			"type":"VEC3"
		},
		{
			"bufferView":8,
			"componentType":5126,
			"count":76,
			"type":"VEC3"
		},
		{
			"bufferView":9,
			"componentType":5126,
			"count":76,
			"type":"VEC4"
		},
		{
			"bufferView":10,
			"componentType":5126,
			"count":2,
			"type":"VEC3"
		},
		{
			"bufferView":11,
			"componentType":5126,
			"count":76,
			"type":"VEC3"
		},
		{
			"bufferView":12,
			"componentType":5126,
			"count":76,
			"type":"VEC4"
		},
		{
			"bufferView":13,
			"componentType":5126,
			"count":2,
			"type":"VEC3"
		},
		{
			"bufferView":14,
			"componentType":5126,
			"count":76,
			"type":"VEC3"
		},
		{
			"bufferView":15,
			"componentType":5126,
			"count":76,
			"type":"VEC4"
		},
		{
			"bufferView":16,
			"componentType":5126,
			"count":2,
			"type":"VEC3"
		},
		{
			"bufferView":17,
			"componentType":5126,
			"count":76,
			"type":"VEC3"
		},
		{
			"bufferView":18,
			"componentType":5126,
			"count":76,
			"type":"VEC4"
		},
		{
			"bufferView":19,
			"componentType":5126,
			"count":2,
			"type":"VEC3"
		},
		{
			"bufferView":20,
			"componentType":5126,
			"count":76,
			"type":"VEC3"
		},
		{
			"bufferView":21,
			"componentType":5126,
			"count":76,
			"type":"VEC3"
		},
		{
			"bufferView":22,
			"componentType":5126,
			"count":76,
			"type":"VEC4"
		},
		{
			"bufferView":23,
			"componentType":5126,
			"count":2,
			"type":"VEC3"
		},
		{
			"bufferView":24,
			"componentType":5126,
			"count":76,
			"type":"VEC3"
		},
		{
			"bufferView":25,
			"componentType":5126,
			"count":76,
			"type":"VEC3"
		},
		{
			"bufferView":26,
			"componentType":5126,
			"count":76,
			"type":"VEC4"
		},
		{
			"bufferView":27,
			"componentType":5126,
			"count":2,
			"type":"VEC3"
		},
		{
			"bufferView":28,
			"componentType":5126,
			"count":76,
			"type":"VEC3"
		},
		{
			"bufferView":29,
			"componentType":5126,
			"count":76,
			"type":"VEC4"
		},
		{
			"bufferView":30,
			"componentType":5126,
			"count":2,
			"type":"VEC3"
		},
		{
			"bufferView":31,
			"componentType":5126,
			"count":76,
			"type":"VEC3"
		},
		{
			"bufferView":32,
			"componentType":5126,
			"count":76,
			"type":"VEC4"
		},
		{
			"bufferView":33,
			"componentType":5126,
			"count":2,
			"type":"VEC3"
		},
		{
			"bufferView":34,
			"componentType":5126,
			"count":76,
			"type":"VEC3"
		},
		{
			"bufferView":35,
			"componentType":5126,
			"count":76,
			"type":"VEC3"
		},
		{
			"bufferView":36,
			"componentType":5126,
			"count":76,
			"type":"VEC4"
		},
		{
			"bufferView":37,
			"componentType":5126,
			"count":2,
			"type":"VEC3"
		},
		{
			"bufferView":38,
			"componentType":5126,
			"count":76,
			"type":"VEC3"
		},
		{
			"bufferView":39,
			"componentType":5126,
			"count":76,
			"type":"VEC4"
		},
		{
			"bufferView":40,
			"componentType":5126,
			"count":2,
			"type":"VEC3"
		},
		{
			"bufferView":41,
			"componentType":5126,
			"count":76,
			"type":"VEC3"
		},
		{
			"bufferView":42,
			"componentType":5126,
			"count":76,
			"type":"VEC4"
		},
		{
			"bufferView":43,
			"componentType":5126,
			"count":2,
			"type":"VEC3"
		},
		{
			"bufferView":44,
			"componentType":5126,
			"count":76,
			"type":"VEC3"
		},
		{
			"bufferView":45,
			"componentType":5126,
			"count":76,
			"type":"VEC4"
		},
		{
			"bufferView":46,
			"componentType":5126,
			"count":2,
			"type":"VEC3"
		},
		{
			"bufferView":47,
			"componentType":5126,
			"count":76,
			"type":"VEC3"
		},
		{
			"bufferView":48,
			"componentType":5126,
			"count":76,
			"type":"VEC4"
		},
		{
			"bufferView":49,
			"componentType":5126,
			"count":2,
			"type":"VEC3"
		},
		{
			"bufferView":50,
			"componentType":5126,
			"count":76,
			"type":"VEC3"
		},
		{
			"bufferView":51,
			"componentType":5126,
			"count":76,
			"type":"VEC4"
		},
		{
			"bufferView":52,
			"componentType":5126,
			"count":2,
			"type":"VEC3"
		},
		{
			"bufferView":53,
			"componentType":5126,
			"count":76,
			"type":"VEC3"
		},
		{
			"bufferView":54,
			"componentType":5126,
			"count":76,
			"type":"VEC4"
		},
		{
			"bufferView":55,
			"componentType":5126,
			"count":2,
			"type":"VEC3"
		},
		{
			"bufferView":56,
			"componentType":5126,
			"count":76,
			"type":"VEC3"
		},
		{
			"bufferView":57,
			"componentType":5126,
			"count":76,
			"type":"VEC4"
		},
		{
			"bufferView":58,
			"componentType":5126,
			"count":2,
			"type":"VEC3"
		},
		{
			"bufferView":59,
			"componentType":5126,
			"count":76,
			"type":"VEC3"
		},
		{
			"bufferView":60,
			"componentType":5126,
			"count":76,
			"type":"VEC4"
		},
		{
			"bufferView":61,
			"componentType":5126,
			"count":2,
			"type":"VEC3"
		},
		{
			"bufferView":62,
			"componentType":5126,
			"count":76,
			"type":"VEC3"
		},
		{
			"bufferView":63,
			"componentType":5126,
			"count":76,
			"type":"VEC4"
		},
		{
			"bufferView":64,
			"componentType":5126,
			"count":76,
			"type":"VEC3"
		},
		{
			"bufferView":65,
			"componentType":5126,
			"count":76,
			"type":"VEC4"
		},
		{
			"bufferView":66,
			"componentType":5126,
			"count":2,
			"type":"VEC3"
		},
		{
			"bufferView":67,
			"componentType":5126,
			"count":76,
			"type":"VEC3"
		},
		{
			"bufferView":68,
			"componentType":5126,
			"count":76,
			"type":"VEC3"
		},
		{
			"bufferView":69,
			"componentType":5126,
			"count":76,
			"type":"VEC4"
		},
		{
			"bufferView":70,
			"componentType":5126,
			"count":2,
			"type":"VEC3"
		},
		{
			"bufferView":71,
			"componentType":5126,
			"count":76,
			"type":"VEC3"
		},
		{
			"bufferView":72,
			"componentType":5126,
			"count":76,
			"type":"VEC4"
		},
		{
			"bufferView":73,
			"componentType":5126,
			"count":2,
			"type":"VEC3"
		},
		{
			"bufferView":74,
			"componentType":5126,
			"count":76,
			"type":"VEC3"
		},
		{
			"bufferView":75,
			"componentType":5126,
			"count":76,
			"type":"VEC4"
		},
		{
			"bufferView":76,
			"componentType":5126,
			"count":2,
			"type":"VEC3"
		},
		{
			"bufferView":77,
			"componentType":5126,
			"count":76,
			"type":"VEC3"
		},
		{
			"bufferView":78,
			"componentType":5126,
			"count":76,
			"type":"VEC3"
		},
		{
			"bufferView":79,
			"componentType":5126,
			"count":76,
			"type":"VEC4"
		},
		{
			"bufferView":80,
			"componentType":5126,
			"count":2,
			"type":"VEC3"
		},
		{
			"bufferView":81,
			"componentType":5126,
			"count":76,
			"type":"VEC3"
		},
		{
			"bufferView":82,
			"componentType":5126,
			"count":76,
			"type":"VEC4"
		},
		{
			"bufferView":83,
			"componentType":5126,
			"count":76,
			"type":"VEC3"
		},
		{
			"bufferView":84,
			"componentType":5126,
			"count":76,
			"type":"VEC4"
		},
		{
			"bufferView":85,
			"componentType":5126,
			"count":2,
			"type":"VEC3"
		},
		{
			"bufferView":86,
			"componentType":5126,
			"count":76,
			"type":"VEC3"
		},
		{
			"bufferView":87,
			"componentType":5126,
			"count":76,
			"type":"VEC3"
		},
		{
			"bufferView":88,
			"componentType":5126,
			"count":76,
			"type":"VEC4"
		},
		{
			"bufferView":89,
			"componentType":5126,
			"count":2,
			"type":"VEC3"
		},
		{
			"bufferView":90,
			"componentType":5126,
			"count":76,
			"type":"VEC3"
		},
		{
			"bufferView":91,
			"componentType":5126,
			"count":76,
			"type":"VEC4"
		},
		{
			"bufferView":92,
			"componentType":5126,
			"count":2,
			"type":"VEC3"
		},
		{
			"bufferView":93,
			"componentType":5126,
			"count":76,
			"type":"VEC3"
		},
		{
			"bufferView":94,
			"componentType":5126,
			"count":76,
			"type":"VEC4"
		},
		{
			"bufferView":95,
			"componentType":5126,
			"count":2,
			"type":"VEC3"
		},
		{
			"bufferView":96,
			"componentType":5126,
			"count":76,
			"type":"VEC3"
		},
		{
			"bufferView":97,
			"componentType":5126,
			"count":76,
			"type":"VEC3"
		},
		{
			"bufferView":98,
			"componentType":5126,
			"count":76,
			"type":"VEC4"
		},
		{
			"bufferView":99,
			"componentType":5126,
			"count":2,
			"type":"VEC3"
		},
		{
			"bufferView":100,
			"componentType":5126,
			"count":76,
			"type":"VEC3"
		},
		{
			"bufferView":101,
			"componentType":5126,
			"count":76,
			"type":"VEC4"
		},
		{
			"bufferView":102,
			"componentType":5126,
			"count":2,
			"type":"VEC3"
		},
		{
			"bufferView":103,
			"componentType":5126,
			"count":76,
			"type":"VEC3"
		},
		{
			"bufferView":104,
			"componentType":5126,
			"count":76,
			"type":"VEC4"
		},
		{
			"bufferView":105,
			"componentType":5126,
			"count":2,
			"type":"VEC3"
		},
		{
			"bufferView":106,
			"componentType":5126,
			"count":76,
			"type":"VEC3"
		},
		{
			"bufferView":107,
			"componentType":5126,
			"count":76,
			"type":"VEC4"
		},
		{
			"bufferView":108,
			"componentType":5126,
			"count":2,
			"type":"VEC3"
		},
		{
			"bufferView":109,
			"componentType":5126,
			"count":76,
			"type":"VEC3"
		},
		{
			"bufferView":110,
			"componentType":5126,
			"count":76,
			"type":"VEC4"
		},
		{
			"bufferView":111,
			"componentType":5126,
			"count":2,
			"type":"VEC3"
		},
		{
			"bufferView":112,
			"componentType":5126,
			"count":76,
			"type":"VEC3"
		},
		{
			"bufferView":113,
			"componentType":5126,
			"count":76,
			"type":"VEC4"
		},
		{
			"bufferView":114,
			"componentType":5126,
			"count":2,
			"type":"VEC3"
		},
		{
			"bufferView":115,
			"componentType":5126,
			"count":76,
			"type":"VEC3"
		},
		{
			"bufferView":116,
			"componentType":5126,
			"count":76,
			"type":"VEC4"
		},
		{
			"bufferView":117,
			"componentType":5126,
			"count":2,
			"type":"VEC3"
		},
		{
			"bufferView":118,
			"componentType":5126,
			"count":76,
			"type":"VEC3"
		},
		{
			"bufferView":119,
			"componentType":5126,
			"count":76,
			"type":"VEC4"
		},
		{
			"bufferView":120,
			"componentType":5126,
			"count":2,
			"type":"VEC3"
		},
		{
			"bufferView":121,
			"componentType":5126,
			"count":76,
			"type":"VEC3"
		},
		{
			"bufferView":122,
			"componentType":5126,
			"count":76,
			"type":"VEC4"
		},
		{
			"bufferView":123,
			"componentType":5126,
			"count":2,
			"type":"VEC3"
		},
		{
			"bufferView":124,
			"componentType":5126,
			"count":76,
			"type":"VEC3"
		},
		{
			"bufferView":125,
			"componentType":5126,
			"count":76,
			"type":"VEC4"
		},
		{
			"bufferView":126,
			"componentType":5126,
			"count":2,
			"type":"VEC3"
		},
		{
			"bufferView":127,
			"componentType":5126,
			"count":76,
			"type":"VEC3"
		},
		{
			"bufferView":128,
			"componentType":5126,
			"count":76,
			"type":"VEC4"
		},
		{
			"bufferView":129,
			"componentType":5126,
			"count":2,
			"type":"VEC3"
		},
		{
			"bufferView":130,
			"componentType":5126,
			"count":76,
			"type":"VEC3"
		},
		{
			"bufferView":131,
			"componentType":5126,
			"count":76,
			"type":"VEC3"
		},
		{
			"bufferView":132,
			"componentType":5126,
			"count":76,
			"type":"VEC4"
		},
		{
			"bufferView":133,
			"componentType":5126,
			"count":2,
			"type":"VEC3"
		},
		{
			"bufferView":134,
			"componentType":5126,
			"count":76,
			"type":"VEC3"
		},
		{
			"bufferView":135,
			"componentType":5126,
			"count":76,
			"type":"VEC4"
		},
		{
			"bufferView":136,
			"componentType":5126,
			"count":2,
			"type":"VEC3"
		},
		{
			"bufferView":137,
			"componentType":5126,
			"count":76,
			"type":"VEC3"
		},
		{
			"bufferView":138,
			"componentType":5126,
			"count":76,
			"type":"VEC4"
		},
		{
			"bufferView":139,
			"componentType":5126,
			"count":2,
			"type":"VEC3"
		},
		{
			"bufferView":140,
			"componentType":5126,
			"count":76,
			"type":"VEC3"
		},
		{
			"bufferView":141,
			"componentType":5126,
			"count":76,
			"type":"VEC3"
		},
		{
			"bufferView":142,
			"componentType":5126,
			"count":76,
			"type":"VEC4"
		},
		{
			"bufferView":143,
			"componentType":5126,
			"count":2,
			"type":"VEC3"
		},
		{
			"bufferView":144,
			"componentType":5126,
			"count":76,
			"type":"VEC3"
		},
		{
			"bufferView":145,
			"componentType":5126,
			"count":76,
			"type":"VEC4"
		},
		{
			"bufferView":146,
			"componentType":5126,
			"count":2,
			"type":"VEC3"
		},
		{
			"bufferView":147,
			"componentType":5126,
			"count":76,
			"type":"VEC3"
		},
		{
			"bufferView":148,
			"componentType":5126,
			"count":76,
			"type":"VEC4"
		},
		{
			"bufferView":149,
			"componentType":5126,
			"count":2,
			"type":"VEC3"
		},
		{
			"bufferView":150,
			"componentType":5126,
			"count":76,
			"type":"VEC3"
		},
		{
			"bufferView":151,
			"componentType":5126,
			"count":76,
			"type":"VEC3"
		},
		{
			"bufferView":152,
			"componentType":5126,
			"count":76,
			"type":"VEC4"
		},
		{
			"bufferView":153,
			"componentType":5126,
			"count":2,
			"type":"VEC3"
		},
		{
			"bufferView":154,
			"componentType":5126,
			"count":76,
			"type":"VEC3"
		},
		{
			"bufferView":155,
			"componentType":5126,
			"count":76,
			"type":"VEC4"
		},
		{
			"bufferView":156,
			"componentType":5126,
			"count":2,
			"type":"VEC3"
		},
		{
			"bufferView":157,
			"componentType":5126,
			"count":76,
			"type":"VEC3"
		},
		{
			"bufferView":158,
			"componentType":5126,
			"count":76,
			"type":"VEC4"
		},
		{
			"bufferView":159,
			"componentType":5126,
			"count":2,
			"type":"VEC3"
		},
		{
			"bufferView":160,
			"componentType":5126,
			"count":76,
			"type":"VEC3"
		},
		{
			"bufferView":161,
			"componentType":5126,
			"count":76,
			"type":"VEC3"
		},
		{
			"bufferView":162,
			"componentType":5126,
			"count":76,
			"type":"VEC4"
		},
		{
			"bufferView":163,
			"componentType":5126,
			"count":2,
			"type":"VEC3"
		},
		{
			"bufferView":164,
			"componentType":5126,
			"count":76,
			"type":"VEC3"
		},
		{
			"bufferView":165,
			"componentType":5126,
			"count":76,
			"type":"VEC4"
		},
		{
			"bufferView":166,
			"componentType":5126,
			"count":2,
			"type":"VEC3"
		},
		{
			"bufferView":167,
			"componentType":5126,
			"count":76,
			"type":"VEC3"
		},
		{
			"bufferView":168,
			"componentType":5126,
			"count":76,
			"type":"VEC4"
		},
		{
			"bufferView":169,
			"componentType":5126,
			"count":2,
			"type":"VEC3"
		},
		{
			"bufferView":170,
			"componentType":5126,
			"count":76,
			"type":"VEC3"
		},
		{
			"bufferView":171,
			"componentType":5126,
			"count":76,
			"type":"VEC4"
		},
		{
			"bufferView":172,
			"componentType":5126,
			"count":2,
			"type":"VEC3"
		},
		{
			"bufferView":173,
			"componentType":5126,
			"count":76,
			"type":"VEC3"
		},
		{
			"bufferView":174,
			"componentType":5126,
			"count":76,
			"type":"VEC4"
		},
		{
			"bufferView":175,
			"componentType":5126,
			"count":2,
			"type":"VEC3"
		},
		{
			"bufferView":176,
			"componentType":5126,
			"count":76,
			"type":"VEC3"
		},
		{
			"bufferView":177,
			"componentType":5126,
			"count":76,
			"type":"VEC4"
		},
		{
			"bufferView":178,
			"componentType":5126,
			"count":76,
			"type":"VEC3"
		},
		{
			"bufferView":179,
			"componentType":5126,
			"count":76,
			"type":"VEC4"
		},
		{
			"bufferView":180,
			"componentType":5126,
			"count":2,
			"type":"VEC3"
		},
		{
			"bufferView":181,
			"componentType":5126,
			"count":76,
			"type":"VEC3"
		},
		{
			"bufferView":182,
			"componentType":5126,
			"count":76,
			"type":"VEC4"
		},
		{
			"bufferView":183,
			"componentType":5126,
			"count":2,
			"type":"VEC3"
		},
		{
			"bufferView":184,
			"componentType":5126,
			"count":76,
			"type":"VEC3"
		},
		{
			"bufferView":185,
			"componentType":5126,
			"count":76,
			"type":"VEC4"
		},
		{
			"bufferView":186,
			"componentType":5126,
			"count":2,
			"type":"VEC3"
		},
		{
			"bufferView":187,
			"componentType":5126,
			"count":76,
			"type":"VEC3"
		},
		{
			"bufferView":188,
			"componentType":5126,
			"count":76,
			"type":"VEC4"
		},
		{
			"bufferView":189,
			"componentType":5126,
			"count":2,
			"type":"VEC3"
		},
		{
			"bufferView":190,
			"componentType":5126,
			"count":76,
			"type":"VEC3"
		},
		{
			"bufferView":191,
			"componentType":5126,
			"count":76,
			"type":"VEC4"
		},
		{
			"bufferView":192,
			"componentType":5126,
			"count":72,
			"type":"MAT4"
		}
	],
	"bufferViews":[
		{
			"buffer":0,
			"byteLength":304,
			"byteOffset":0
		},
		{
			"buffer":0,
			"byteLength":912,
			"byteOffset":304
		},
		{
			"buffer":0,
			"byteLength":1216,
			"byteOffset":1216
		},
		{
			"buffer":0,
			"byteLength":8,
			"byteOffset":2432
		},
		{
			"buffer":0,
			"byteLength":24,
			"byteOffset":2440
		},
		{
			"buffer":0,
			"byteLength":912,
			"byteOffset":2464
		},
		{
			"buffer":0,
			"byteLength":1216,
			"byteOffset":3376
		},
		{
			"buffer":0,
			"byteLength":24,
			"byteOffset":4592
		},
		{
			"buffer":0,
			"byteLength":912,
			"byteOffset":4616
		},
		{
			"buffer":0,
			"byteLength":1216,
			"byteOffset":5528
		},
		{
			"buffer":0,
			"byteLength":24,
			"byteOffset":6744
		},
		{
			"buffer":0,
			"byteLength":912,
			"byteOffset":6768
		},
		{
			"buffer":0,
			"byteLength":1216,
			"byteOffset":7680
		},
		{
			"buffer":0,
			"byteLength":24,
			"byteOffset":8896
		},
		{
			"buffer":0,
			"byteLength":912,
			"byteOffset":8920
		},
		{
			"buffer":0,
			"byteLength":1216,
			"byteOffset":9832
		},
		{
			"buffer":0,
			"byteLength":24,
			"byteOffset":11048
		},
		{
			"buffer":0,
			"byteLength":912,
			"byteOffset":11072
		},
		{
			"buffer":0,
			"byteLength":1216,
			"byteOffset":11984
		},
		{
			"buffer":0,
			"byteLength":24,
			"byteOffset":13200
		},
		{
			"buffer":0,
			"byteLength":912,
			"byteOffset":13224
		},
		{
			"buffer":0,
			"byteLength":912,
			"byteOffset":14136
		},
		{
			"buffer":0,
			"byteLength":1216,
			"byteOffset":15048
		},
		{
			"buffer":0,
			"byteLength":24,
			"byteOffset":16264
		},
		{
			"buffer":0,
			"byteLength":912,
			"byteOffset":16288
		},
		{
			"buffer":0,
			"byteLength":912,
			"byteOffset":17200
		},
		{
			"buffer":0,
			"byteLength":1216,
			"byteOffset":18112
		},
		{
			"buffer":0,
			"byteLength":24,
			"byteOffset":19328
		},
		{
			"buffer":0,
			"byteLength":912,
			"byteOffset":19352
		},
		{
			"buffer":0,
			"byteLength":1216,
			"byteOffset":20264
		},
		{
			"buffer":0,
			"byteLength":24,
			"byteOffset":21480
		},
		{
			"buffer":0,
			"byteLength":912,
			"byteOffset":21504
		},
		{
			"buffer":0,
			"byteLength":1216,
			"byteOffset":22416
		},
		{
			"buffer":0,
			"byteLength":24,
			"byteOffset":23632
		},
		{
			"buffer":0,
			"byteLength":912,
			"byteOffset":23656
		},
		{
			"buffer":0,
			"byteLength":912,
			"byteOffset":24568
		},
		{
			"buffer":0,
			"byteLength":1216,
			"byteOffset":25480
		},
		{
			"buffer":0,
			"byteLength":24,
			"byteOffset":26696
		},
		{
			"buffer":0,
			"byteLength":912,
			"byteOffset":26720
		},
		{
			"buffer":0,
			"byteLength":1216,
			"byteOffset":27632
		},
		{
			"buffer":0,
			"byteLength":24,
			"byteOffset":28848
		},
		{
			"buffer":0,
			"byteLength":912,
			"byteOffset":28872
		},
		{
			"buffer":0,
			"byteLength":1216,
			"byteOffset":29784
		},
		{
			"buffer":0,
			"byteLength":24,
			"byteOffset":31000
		},
		{
			"buffer":0,
			"byteLength":912,
			"byteOffset":31024
		},
		{
			"buffer":0,
			"byteLength":1216,
			"byteOffset":31936
		},
		{
			"buffer":0,
			"byteLength":24,
			"byteOffset":33152
		},
		{
			"buffer":0,
			"byteLength":912,
			"byteOffset":33176
		},
		{
			"buffer":0,
			"byteLength":1216,
			"byteOffset":34088
		},
		{
			"buffer":0,
			"byteLength":24,
			"byteOffset":35304
		},
		{
			"buffer":0,
			"byteLength":912,
			"byteOffset":35328
		},
		{
			"buffer":0,
			"byteLength":1216,
			"byteOffset":36240
		},
		{
			"buffer":0,
			"byteLength":24,
			"byteOffset":37456
		},
		{
			"buffer":0,
			"byteLength":912,
			"byteOffset":37480
		},
		{
			"buffer":0,
			"byteLength":1216,
			"byteOffset":38392
		},
		{
			"buffer":0,
			"byteLength":24,
			"byteOffset":39608
		},
		{
			"buffer":0,
			"byteLength":912,
			"byteOffset":39632
		},
		{
			"buffer":0,
			"byteLength":1216,
			"byteOffset":40544
		},
		{
			"buffer":0,
			"byteLength":24,
			"byteOffset":41760
		},
		{
			"buffer":0,
			"byteLength":912,
			"byteOffset":41784
		},
		{
			"buffer":0,
			"byteLength":1216,
			"byteOffset":42696
		},
		{
			"buffer":0,
			"byteLength":24,
			"byteOffset":43912
		},
		{
			"buffer":0,
			"byteLength":912,
			"byteOffset":43936
		},
		{
			"buffer":0,
			"byteLength":1216,
			"byteOffset":44848
		},
		{
			"buffer":0,
			"byteLength":912,
			"byteOffset":46064
		},
		{
			"buffer":0,
			"byteLength":1216,
			"byteOffset":46976
		},
		{
			"buffer":0,
			"byteLength":24,
			"byteOffset":48192
		},
		{
			"buffer":0,
			"byteLength":912,
			"byteOffset":48216
		},
		{
			"buffer":0,
			"byteLength":912,
			"byteOffset":49128
		},
		{
			"buffer":0,
			"byteLength":1216,
			"byteOffset":50040
		},
		{
			"buffer":0,
			"byteLength":24,
			"byteOffset":51256
		},
		{
			"buffer":0,
			"byteLength":912,
			"byteOffset":51280
		},
		{
			"buffer":0,
			"byteLength":1216,
			"byteOffset":52192
		},
		{
			"buffer":0,
			"byteLength":24,
			"byteOffset":53408
		},
		{
			"buffer":0,
			"byteLength":912,
			"byteOffset":53432
		},
		{
			"buffer":0,
			"byteLength":1216,
			"byteOffset":54344
		},
		{
			"buffer":0,
			"byteLength":24,
			"byteOffset":55560
		},
		{
			"buffer":0,
			"byteLength":912,
			"byteOffset":55584
		},
		{
			"buffer":0,
			"byteLength":912,
			"byteOffset":56496
		},
		{
			"buffer":0,
			"byteLength":1216,
			"byteOffset":57408
		},
		{
			"buffer":0,
			"byteLength":24,
			"byteOffset":58624
		},
		{
			"buffer":0,
			"byteLength":912,
			"byteOffset":58648
		},
		{
			"buffer":0,
			"byteLength":1216,
			"byteOffset":59560
		},
		{
			"buffer":0,
			"byteLength":912,
			"byteOffset":60776
		},
		{
			"buffer":0,
			"byteLength":1216,
			"byteOffset":61688
		},
		{
			"buffer":0,
			"byteLength":24,
			"byteOffset":62904
		},
		{
			"buffer":0,
			"byteLength":912,
			"byteOffset":62928
		},
		{
			"buffer":0,
			"byteLength":912,
			"byteOffset":63840
		},
		{
			"buffer":0,
			"byteLength":1216,
			"byteOffset":64752
		},
		{
			"buffer":0,
			"byteLength":24,
			"byteOffset":65968
		},
		{
			"buffer":0,
			"byteLength":912,
			"byteOffset":65992
		},
		{
			"buffer":0,
			"byteLength":1216,
			"byteOffset":66904
		},
		{
			"buffer":0,
			"byteLength":24,
			"byteOffset":68120
		},
		{
			"buffer":0,
			"byteLength":912,
			"byteOffset":68144
		},
		{
			"buffer":0,
			"byteLength":1216,
			"byteOffset":69056
		},
		{
			"buffer":0,
			"byteLength":24,
			"byteOffset":70272
		},
		{
			"buffer":0,
			"byteLength":912,
			"byteOffset":70296
		},
		{
			"buffer":0,
			"byteLength":912,
			"byteOffset":71208
		},
		{
			"buffer":0,
			"byteLength":1216,
			"byteOffset":72120
		},
		{
			"buffer":0,
			"byteLength":24,
			"byteOffset":73336
		},
		{
			"buffer":0,
			"byteLength":912,
			"byteOffset":73360
		},
		{
			"buffer":0,
			"byteLength":1216,
			"byteOffset":74272
		},
		{
			"buffer":0,
			"byteLength":24,
			"byteOffset":75488
		},
		{
			"buffer":0,
			"byteLength":912,
			"byteOffset":75512
		},
		{
			"buffer":0,
			"byteLength":1216,
			"byteOffset":76424
		},
		{
			"buffer":0,
			"byteLength":24,
			"byteOffset":77640
		},
		{
			"buffer":0,
			"byteLength":912,
			"byteOffset":77664
		},
		{
			"buffer":0,
			"byteLength":1216,
			"byteOffset":78576
		},
		{
			"buffer":0,
			"byteLength":24,
			"byteOffset":79792
		},
		{
			"buffer":0,
			"byteLength":912,
			"byteOffset":79816
		},
		{
			"buffer":0,
			"byteLength":1216,
			"byteOffset":80728
		},
		{
			"buffer":0,
			"byteLength":24,
			"byteOffset":81944
		},
		{
			"buffer":0,
			"byteLength":912,
			"byteOffset":81968
		},
		{
			"buffer":0,
			"byteLength":1216,
			"byteOffset":82880
		},
		{
			"buffer":0,
			"byteLength":24,
			"byteOffset":84096
		},
		{
			"buffer":0,
			"byteLength":912,
			"byteOffset":84120
		},
		{
			"buffer":0,
			"byteLength":1216,
			"byteOffset":85032
		},
		{
			"buffer":0,
			"byteLength":24,
			"byteOffset":86248
		},
		{
			"buffer":0,
			"byteLength":912,
			"byteOffset":86272
		},
		{
			"buffer":0,
			"byteLength":1216,
			"byteOffset":87184
		},
		{
			"buffer":0,
			"byteLength":24,
			"byteOffset":88400
		},
		{
			"buffer":0,
			"byteLength":912,
			"byteOffset":88424
		},
		{
			"buffer":0,
			"byteLength":1216,
			"byteOffset":89336
		},
		{
			"buffer":0,
			"byteLength":24,
			"byteOffset":90552
		},
		{
			"buffer":0,
			"byteLength":912,
			"byteOffset":90576
		},
		{
			"buffer":0,
			"byteLength":1216,
			"byteOffset":91488
		},
		{
			"buffer":0,
			"byteLength":24,
			"byteOffset":92704
		},
		{
			"buffer":0,
			"byteLength":912,
			"byteOffset":92728
		},
		{
			"buffer":0,
			"byteLength":1216,
			"byteOffset":93640
		},
		{
			"buffer":0,
			"byteLength":24,
			"byteOffset":94856
		},
		{
			"buffer":0,
			"byteLength":912,
			"byteOffset":94880
		},
		{
			"buffer":0,
			"byteLength":912,
			"byteOffset":95792
		},
		{
			"buffer":0,
			"byteLength":1216,
			"byteOffset":96704
		},
		{
			"buffer":0,
			"byteLength":24,
			"byteOffset":97920
		},
		{
			"buffer":0,
			"byteLength":912,
			"byteOffset":97944
		},
		{
			"buffer":0,
			"byteLength":1216,
			"byteOffset":98856
		},
		{
			"buffer":0,
			"byteLength":24,
			"byteOffset":100072
		},
		{
			"buffer":0,
			"byteLength":912,
			"byteOffset":100096
		},
		{
			"buffer":0,
			"byteLength":1216,
			"byteOffset":101008
		},
		{
			"buffer":0,
			"byteLength":24,
			"byteOffset":102224
		},
		{
			"buffer":0,
			"byteLength":912,
			"byteOffset":102248
		},
		{
			"buffer":0,
			"byteLength":912,
			"byteOffset":103160
		},
		{
			"buffer":0,
			"byteLength":1216,
			"byteOffset":104072
		},
		{
			"buffer":0,
			"byteLength":24,
			"byteOffset":105288
		},
		{
			"buffer":0,
			"byteLength":912,
			"byteOffset":105312
		},
		{
			"buffer":0,
			"byteLength":1216,
			"byteOffset":106224
		},
		{
			"buffer":0,
			"byteLength":24,
			"byteOffset":107440
		},
		{
			"buffer":0,
			"byteLength":912,
			"byteOffset":107464
		},
		{
			"buffer":0,
			"byteLength":1216,
			"byteOffset":108376
		},
		{
			"buffer":0,
			"byteLength":24,
			"byteOffset":109592
		},
		{
			"buffer":0,
			"byteLength":912,
			"byteOffset":109616
		},
		{
			"buffer":0,
			"byteLength":912,
			"byteOffset":110528
		},
		{
			"buffer":0,
			"byteLength":1216,
			"byteOffset":111440
		},
		{
			"buffer":0,
			"byteLength":24,
			"byteOffset":112656
		},
		{
			"buffer":0,
			"byteLength":912,
			"byteOffset":112680
		},
		{
			"buffer":0,
			"byteLength":1216,
			"byteOffset":113592
		},
		{
			"buffer":0,
			"byteLength":24,
			"byteOffset":114808
		},
		{
			"buffer":0,
			"byteLength":912,
			"byteOffset":114832
		},
		{
			"buffer":0,
			"byteLength":1216,
			"byteOffset":115744
		},
		{
			"buffer":0,
			"byteLength":24,
			"byteOffset":116960
		},
		{
			"buffer":0,
			"byteLength":912,
			"byteOffset":116984
		},
		{
			"buffer":0,
			"byteLength":912,
			"byteOffset":117896
		},
		{
			"buffer":0,
			"byteLength":1216,
			"byteOffset":118808
		},
		{
			"buffer":0,
			"byteLength":24,
			"byteOffset":120024
		},
		{
			"buffer":0,
			"byteLength":912,
			"byteOffset":120048
		},
		{
			"buffer":0,
			"byteLength":1216,
			"byteOffset":120960
		},
		{
			"buffer":0,
			"byteLength":24,
			"byteOffset":122176
		},
		{
			"buffer":0,
			"byteLength":912,
			"byteOffset":122200
		},
		{
			"buffer":0,
			"byteLength":1216,
			"byteOffset":123112
		},
		{
			"buffer":0,
			"byteLength":24,
			"byteOffset":124328
		},
		{
			"buffer":0,
			"byteLength":912,
			"byteOffset":124352
		},
		{
			"buffer":0,
			"byteLength":1216,
			"byteOffset":125264
		},
		{
			"buffer":0,
			"byteLength":24,
			"byteOffset":126480
		},
		{
			"buffer":0,
			"byteLength":912,
			"byteOffset":126504
		},
		{
			"buffer":0,
			"byteLength":1216,
			"byteOffset":127416
		},
		{
			"buffer":0,
			"byteLength":24,
			"byteOffset":128632
		},
		{
			"buffer":0,
			"byteLength":912,
			"byteOffset":128656
		},
		{
			"buffer":0,
			"byteLength":1216,
			"byteOffset":129568
		},
		{
			"buffer":0,
			"byteLength":912,
			"byteOffset":130784
		},
		{
			"buffer":0,
			"byteLength":1216,
			"byteOffset":131696
		},
		{
			"buffer":0,
			"byteLength":24,
			"byteOffset":132912
		},
		{
			"buffer":0,
			"byteLength":912,
			"byteOffset":132936
		},
		{
			"buffer":0,
			"byteLength":1216,
			"byteOffset":133848
		},
		{
			"buffer":0,
			"byteLength":24,
			"byteOffset":135064
		},
		{
			"buffer":0,
			"byteLength":912,
			"byteOffset":135088
		},
		{
			"buffer":0,
			"byteLength":1216,
			"byteOffset":136000
		},
		{
			"buffer":0,
			"byteLength":24,
			"byteOffset":137216
		},
		{
			"buffer":0,
			"byteLength":912,
			"byteOffset":137240
		},
		{
			"buffer":0,
			"byteLength":1216,
			"byteOffset":138152
		},
		{
			"buffer":0,
			"byteLength":24,
			"byteOffset":139368
		},
		{
			"buffer":0,
			"byteLength":912,
			"byteOffset":139392
		},
		{
			"buffer":0,
			"byteLength":1216,
			"byteOffset":140304
		},
		{
			"buffer":0,
			"byteLength":4608,
			"byteOffset":141520
		}
	],
	"buffers":[
		{
			"byteLength":146128,
			"uri":"Brute_Attack_animation.bin"
		}
	]
}
