{
	"asset":
	{
		"version": "2.0",
		"generator": "Unreal Engine 5.6.1"
	},
	"scene": 0,
	"accessors": [
		{
			"bufferView": 0,
			"count": 82,
			"type": "MAT4",
			"componentType": 5126
		},
		{
			"bufferView": 1,
			"count": 55890,
			"type": "SCALAR",
			"componentType": 5123
		},
		{
			"bufferView": 2,
			"count": 11382,
			"type": "VEC3",
			"componentType": 5126,
			"min": [ -0.697913289, -0.00218169508, -1.58968079 ],
			"max": [ 0.697913647, 1.73866177, 0.355265737 ]
		},
		{
			"bufferView": 3,
			"count": 11382,
			"type": "VEC3",
			"componentType": 5126
		},
		{
			"bufferView": 4,
			"count": 11382,
			"type": "VEC4",
			"componentType": 5126
		},
		{
			"bufferView": 5,
			"count": 11382,
			"type": "VEC2",
			"componentType": 5126
		},
		{
			"bufferView": 6,
			"count": 11382,
			"type": "VEC4",
			"componentType": 5121
		},
		{
			"bufferView": 7,
			"count": 11382,
			"type": "VEC4",
			"componentType": 5121,
			"normalized": true
		}
	],
	"buffers": [
		{
			"uri": "SK_DragonBrute.bin",
			"byteLength": 754420
		}
	],
	"bufferViews": [
		{
			"buffer": 0,
			"byteLength": 5248
		},
		{
			"buffer": 0,
			"byteLength": 111780,
			"byteOffset": 5248,
			"target": 34963
		},
		{
			"buffer": 0,
			"byteLength": 136584,
			"byteOffset": 117028,
			"target": 34962
		},
		{
			"buffer": 0,
			"byteLength": 136584,
			"byteOffset": 253612,
			"target": 34962
		},
		{
			"buffer": 0,
			"byteLength": 182112,
			"byteOffset": 390196,
			"target": 34962
		},
		{
			"buffer": 0,
			"byteLength": 91056,
			"byteOffset": 572308,
			"target": 34962
		},
		{
			"buffer": 0,
			"byteLength": 45528,
			"byteOffset": 663364,
			"target": 34962
		},
		{
			"buffer": 0,
			"byteLength": 45528,
			"byteOffset": 708892,
			"target": 34962
		}
	],
	"images": [
		{
			"uri": "MI_DragonBrute_Rd_BaseColor.png"
		},
		{
			"uri": "MI_DragonBrute_Rd_Emissive.png"
		},
		{
			"uri": "T_DragonBrute_N.png"
		}
	],
	"materials": [
		{
			"name": "MI_DragonBrute_Rd",
			"pbrMetallicRoughness":
			{
				"baseColorTexture":
				{
					"index": 0
				},
				"metallicFactor": 0
			},
			"normalTexture":
			{
				"index": 2
			},
			"emissiveTexture":
			{
				"index": 1
			},
			"emissiveFactor": [ 1, 1, 1 ],
			"alphaMode": "MASK",
			"alphaCutoff": 0.333299994,
			"extensions":
			{
				"KHR_materials_specular":
				{
					"specularFactor": 0
				},
				"KHR_materials_emissive_strength":
				{
					"emissiveStrength": 1.19921875
				}
			}
		}
	],
	"meshes": [
		{
			"name": "SK_DragonBrute",
			"primitives": [
				{
					"attributes":
					{
						"POSITION": 2,
						"NORMAL": 3,
						"TANGENT": 4,
						"TEXCOORD_0": 5,
						"JOINTS_0": 6,
						"WEIGHTS_0": 7
					},
					"indices": 1,
					"material": 0
				}
			]
		}
	],
	"nodes": [
		{
			"skin": 0,
			"mesh": 0,
			"children": [ 1 ]
		},
		{
			"name": "root",
			"children": [ 2 ]
		},
		{
			"name": "pelvis",
			"translation": [ 0, 0.772485018, -0.0520551465 ],
			"rotation": [ 0.620165825, -0.620166004, -0.339697272, -0.339697272 ],
			"children": [ 3, 9, 57, 68, 70, 81 ]
		},
		{
			"name": "tail_01",
			"translation": [ 0.193682969, 0, -7.62939436e-08 ],
			"rotation": [ -2.84039116e-15, 0.128168866, 3.9566341e-16, -0.991752386 ],
			"children": [ 4 ]
		},
		{
			"name": "tail_02",
			"translation": [ 0.231119037, 0, -7.62939436e-08 ],
			"rotation": [ -4.49144711e-25, 0.0452485494, 9.91600051e-24, -0.998975754 ],
			"children": [ 5 ]
		},
		{
			"name": "tail_03",
			"translation": [ 0.227607906, -1.81898936e-14, -7.62939436e-08 ],
			"rotation": [ -2.44862084e-16, 0.046013318, 5.31591144e-15, -0.998940825 ],
			"children": [ 6 ]
		},
		{
			"name": "tail_04",
			"translation": [ 0.224163428, 0, -3.81469718e-08 ],
			"rotation": [ -9.19236881e-17, 0.0396591127, 2.31602207e-15, -0.999213278 ],
			"children": [ 7 ]
		},
		{
			"name": "tail_05",
			"translation": [ 0.219641492, 0, -3.81469718e-08 ],
			"rotation": [ -5.4605435e-25, 0.0388317183, 1.4051465e-23, -0.999245763 ],
			"children": [ 8 ]
		},
		{
			"name": "tail_06",
			"translation": [ 0.240971908, -1.81898936e-14, -0 ],
			"rotation": [ -1.3569801e-27, -0.00656195357, -2.06790679e-25, -0.999978483 ]
		},
		{
			"name": "spine_01",
			"translation": [ -0.0830641165, 0, 0.133276969 ],
			"rotation": [ 0.520011246, 1.23980342e-07, 0.854159415, 2.03647474e-07 ],
			"children": [ 10 ]
		},
		{
			"name": "spine_02",
			"translation": [ 0.136623308, -1.81898936e-14, 9.53674295e-09 ],
			"rotation": [ 1.42932945e-16, -0.013179116, 1.08444705e-14, -0.999913156 ],
			"children": [ 11 ]
		},
		{
			"name": "spine_03",
			"translation": [ 0.163595051, -3.38813171e-23, -4.76837148e-09 ],
			"rotation": [ 1.30260081e-23, -0.176965117, -2.34211403e-24, -0.984217227 ],
			"children": [ 12, 23, 40 ]
		},
		{
			"name": "neck",
			"translation": [ 0.198134303, 0, 3.81469718e-08 ],
			"rotation": [ 1.53171678e-15, -0.328952432, 4.39720595e-15, -0.944346607 ],
			"children": [ 13 ]
		},
		{
			"name": "head",
			"translation": [ 0.183496922, -3.63797873e-14, -0 ],
			"rotation": [ -6.50886481e-16, -0.662462652, 5.75611933e-16, -0.749094963 ],
			"children": [ 14, 15, 16, 17, 18, 20, 21, 22 ]
		},
		{
			"name": "eye_R",
			"translation": [ 0.0228646081, -0.0529120006, 0.0964905545 ],
			"rotation": [ -0.290303707, 0.34957847, 0.410800785, -0.790418446 ]
		},
		{
			"name": "jaw",
			"translation": [ 0.0555728152, -3.63797873e-14, 7.62939436e-08 ],
			"rotation": [ -3.55253686e-15, -0.009987331, 3.54820877e-17, -0.99995023 ]
		},
		{
			"name": "eyelid_lower_R",
			"translation": [ 0.0391296372, -0.063370958, 0.0958328247 ]
		},
		{
			"name": "eyelid_upper_R",
			"translation": [ 0.0227145385, -0.0685509592, 0.111861952 ]
		},
		{
			"name": "tongue_01",
			"translation": [ 0.0619416051, -1.81898936e-14, 0.0167125706 ],
			"rotation": [ 7.44133868e-05, 0.281781197, 2.16053522e-05, -0.959478676 ],
			"children": [ 19 ]
		},
		{
			"name": "tongue_02",
			"translation": [ 0.0643905029, -1.86264511e-11, 2.84217088e-16 ],
			"rotation": [ -7.96535824e-06, 0.199502796, 9.13594613e-06, -0.979897261 ]
		},
		{
			"name": "eye_L",
			"translation": [ 0.0228646845, 0.0529120117, 0.0964905545 ],
			"rotation": [ 0.290303648, 0.34957844, -0.410800815, -0.790418506 ]
		},
		{
			"name": "eyelid_lower_L",
			"translation": [ 0.0391499326, 0.063370958, 0.0958328247 ],
			"rotation": [ 4.59837599e-22, -1, 3.5527141e-15, 1.33158053e-07 ]
		},
		{
			"name": "eyelid_upper_L",
			"translation": [ 0.0227143858, 0.0685542896, 0.111862101 ],
			"rotation": [ 4.59837599e-22, -1, 3.5527141e-15, 1.33158053e-07 ]
		},
		{
			"name": "clavicle_R",
			"translation": [ 0.0434293337, -0.102872267, -0.0621458031 ],
			"rotation": [ -0.76729244, 0.528756142, -0.362319618, -0.0200935639 ],
			"children": [ 24 ]
		},
		{
			"name": "upperarm_R",
			"translation": [ 0.175015941, 1.52587887e-07, -0 ],
			"rotation": [ -0.758822799, -0.635768831, -0.0109659592, -0.140945792 ],
			"children": [ 25, 39 ]
		},
		{
			"name": "lowerarm_R",
			"translation": [ 0.375009924, -1.42108544e-16, -1.7763568e-17 ],
			"rotation": [ -5.09655886e-17, -0.396315724, 2.19999437e-17, -0.918114305 ],
			"children": [ 26 ]
		},
		{
			"name": "hand_R",
			"translation": [ 0.259724736, 0, 7.62939436e-08 ],
			"rotation": [ -0.187435016, -0.139279082, 0.539843619, -0.80872637 ],
			"children": [ 27, 30, 33, 36 ]
		},
		{
			"name": "thumb_01_R",
			"translation": [ 0.108926773, -7.1054272e-17, -0 ],
			"rotation": [ -0.0058916253, 0.0927705988, -0.0238038301, -0.995385587 ],
			"children": [ 28 ]
		},
		{
			"name": "thumb_02_R",
			"translation": [ 0.0786652341, -7.62939436e-08, -7.62939436e-08 ],
			"rotation": [ -0.0158109441, 0.311352879, -0.0282542855, -0.949742675 ],
			"children": [ 29 ]
		},
		{
			"name": "thumb_03_R",
			"translation": [ 0.0578658283, -7.1054272e-17, -3.5527136e-17 ],
			"rotation": [ -0.0560457744, 0.175963506, -0.114826694, -0.976069033 ]
		},
		{
			"name": "index_01_R",
			"translation": [ 0.145200044, 0.107277311, 0.0157806389 ],
			"rotation": [ 0.0204035528, 0.240665019, -0.207358971, -0.947980225 ],
			"children": [ 31 ]
		},
		{
			"name": "index_02_R",
			"translation": [ 0.08934021, 3.81469718e-08, 7.62939436e-08 ],
			"rotation": [ 0.0195433591, 0.0802950487, 0.115323842, -0.989884436 ],
			"children": [ 32 ]
		},
		{
			"name": "index_03_R",
			"translation": [ 0.0700194538, -7.62939436e-08, -3.81469718e-08 ],
			"rotation": [ 0.0945741385, 0.0292629395, 0.211268991, -0.972401559 ]
		},
		{
			"name": "middle_01_R",
			"translation": [ 0.110378645, 0.145979151, 0.0503661335 ],
			"rotation": [ 0.000891205447, 0.288625091, -0.215942636, -0.9327721 ],
			"children": [ 34 ]
		},
		{
			"name": "middle_02_R",
			"translation": [ 0.0822086707, 0, -3.81469718e-08 ],
			"rotation": [ 0.0280632954, 0.0640859157, 0.0782309696, -0.994477451 ],
			"children": [ 35 ]
		},
		{
			"name": "middle_03_R",
			"translation": [ 0.067654185, 0, 3.81469718e-08 ],
			"rotation": [ 0.118503742, 0.051409971, 0.217248112, -0.967531443 ]
		},
		{
			"name": "pinky_01_R",
			"translation": [ 0.0627635941, 0.161326215, 0.0950229615 ],
			"rotation": [ -0.0403087325, 0.340473145, -0.219748288, -0.913325787 ],
			"children": [ 37 ]
		},
		{
			"name": "pinky_02_R",
			"translation": [ 0.0811266303, 7.62939436e-08, 1.90734859e-08 ],
			"rotation": [ 0.0102039138, 0.0235203877, 0.0224102475, -0.999420047 ],
			"children": [ 38 ]
		},
		{
			"name": "pinky_03_R",
			"translation": [ 0.0537125394, -1.14440915e-07, -0 ],
			"rotation": [ 0.123807885, 0.0809901953, 0.182080001, -0.972090065 ]
		},
		{
			"name": "armor_upperarm_R",
			"translation": [ -0.00300529483, 0.0240129083, -0.0102243042 ],
			"rotation": [ 0.466895133, -0.867762804, 0.050414905, 0.162649989 ]
		},
		{
			"name": "clavicle_L",
			"translation": [ 0.0434294865, 0.102872267, -0.0621458031 ],
			"rotation": [ -0.362319708, -0.0200935695, 0.76729244, -0.528756082 ],
			"children": [ 41 ]
		},
		{
			"name": "upperarm_L",
			"translation": [ -0.175016016, -1.42108544e-16, -0 ],
			"rotation": [ -0.758822739, -0.63576889, -0.0109659601, -0.140945897 ],
			"children": [ 42, 56 ]
		},
		{
			"name": "lowerarm_L",
			"translation": [ -0.375009835, 0, -9.53674295e-09 ],
			"rotation": [ 2.29566166e-09, -0.396315724, 5.31818367e-09, -0.918114305 ],
			"children": [ 43 ]
		},
		{
			"name": "hand_L",
			"translation": [ -0.259724766, 0, 7.62939436e-08 ],
			"rotation": [ -0.187435016, -0.139279082, 0.539843619, -0.80872637 ],
			"children": [ 44, 47, 50, 53 ]
		},
		{
			"name": "thumb_01_L",
			"translation": [ -0.108926691, -3.81469718e-08, -7.62939436e-08 ],
			"rotation": [ -0.0058916444, 0.0927705988, -0.023803832, -0.995385587 ],
			"children": [ 45 ]
		},
		{
			"name": "thumb_02_L",
			"translation": [ -0.0786653087, -7.1054272e-17, 1.42108544e-16 ],
			"rotation": [ -0.0158109386, 0.311352879, -0.0282542836, -0.949742675 ],
			"children": [ 46 ]
		},
		{
			"name": "thumb_03_L",
			"translation": [ -0.05786575, -3.81469718e-08, 3.5527136e-17 ],
			"rotation": [ -0.0560457744, 0.175963506, -0.114826694, -0.976069033 ]
		},
		{
			"name": "index_01_L",
			"translation": [ -0.145199999, -0.107277296, -0.0157805625 ],
			"rotation": [ 0.0204035584, 0.240665019, -0.207358971, -0.947980225 ],
			"children": [ 48 ]
		},
		{
			"name": "index_02_L",
			"translation": [ -0.0893402472, 7.62939436e-08, -7.1054272e-17 ],
			"rotation": [ 0.0195433591, 0.0802950487, 0.115323834, -0.989884436 ],
			"children": [ 49 ]
		},
		{
			"name": "index_03_L",
			"translation": [ -0.0700192973, 7.62939436e-08, -0 ],
			"rotation": [ 0.0945741385, 0.0292629357, 0.211269021, -0.972401559 ]
		},
		{
			"name": "middle_01_L",
			"translation": [ -0.110378683, -0.145979166, -0.0503661335 ],
			"rotation": [ 0.000891209347, 0.288625091, -0.215942636, -0.9327721 ],
			"children": [ 51 ]
		},
		{
			"name": "middle_02_L",
			"translation": [ -0.0822086707, 0, -0 ],
			"rotation": [ 0.0280632973, 0.0640859157, 0.0782309622, -0.994477451 ],
			"children": [ 52 ]
		},
		{
			"name": "middle_03_L",
			"translation": [ -0.0676541105, -3.81469718e-08, -0 ],
			"rotation": [ 0.118503749, 0.0514099821, 0.217248082, -0.967531562 ]
		},
		{
			"name": "pinky_01_L",
			"translation": [ -0.0627634823, -0.161326334, -0.0950229615 ],
			"rotation": [ -0.0403086804, 0.340473354, -0.219748288, -0.913325667 ],
			"children": [ 54 ]
		},
		{
			"name": "pinky_02_L",
			"translation": [ -0.0811265931, 0, 3.5527136e-17 ],
			"rotation": [ 0.0102039138, 0.0235203877, 0.0224102493, -0.999420047 ],
			"children": [ 55 ]
		},
		{
			"name": "pinky_03_L",
			"translation": [ -0.0537125021, -1.52587887e-07, 1.90734859e-08 ],
			"rotation": [ 0.123807892, 0.0809901953, 0.182079971, -0.972090065 ]
		},
		{
			"name": "armor_upperarm_L",
			"translation": [ 0.00300529483, -0.0240129847, 0.0102242799 ],
			"rotation": [ 0.162652418, 0.0504109822, 0.86777091, -0.466879606 ]
		},
		{
			"name": "rump_R",
			"translation": [ 0.0247993078, 0.143797144, -0.0637390092 ],
			"rotation": [ -0.128933415, -0.688723624, -0.0928685814, -0.70739764 ],
			"children": [ 58 ]
		},
		{
			"name": "thigh_R",
			"translation": [ 0.289944291, 1.90734859e-08, 3.81469718e-08 ],
			"rotation": [ 0.103440657, 0.653454721, 0.112979539, -0.741304636 ],
			"children": [ 59 ]
		},
		{
			"name": "calf_R",
			"translation": [ 0.323852152, 5.72204577e-08, -5.72204577e-08 ],
			"rotation": [ -1.05180688e-18, -0.588587105, 7.65776928e-19, -0.808433831 ],
			"children": [ 60 ]
		},
		{
			"name": "knee_R",
			"translation": [ 0.157744065, -1.90734859e-08, -4.76837148e-09 ],
			"rotation": [ -0.819442213, -0.0263511632, 0.5672189, -0.0779935196 ],
			"children": [ 61, 62, 64, 66 ]
		},
		{
			"name": "ball_R",
			"translation": [ 0.102816626, -0.0229467396, -0.0736260042 ],
			"rotation": [ -0.97686857, 0.148253128, 0.142979726, 0.0574948899 ]
		},
		{
			"name": "index_leg_01_R",
			"translation": [ 0.108730674, 0.0464187413, -0.061567124 ],
			"rotation": [ -0.984288037, -0.0378679, -0.0341705531, 0.169042915 ],
			"children": [ 63 ]
		},
		{
			"name": "index_leg_02_R",
			"translation": [ 0.0642056465, -1.90734859e-08, -0 ],
			"rotation": [ 0.0578904822, 0.310266763, -0.0589066856, -0.947055042 ]
		},
		{
			"name": "middle_leg_01_R",
			"translation": [ 0.113004602, -0.0256081391, -0.0644096732 ],
			"rotation": [ -0.987262666, 0.119170226, 0.0541070737, -0.0904618353 ],
			"children": [ 65 ]
		},
		{
			"name": "middle_leg_02_R",
			"translation": [ 0.0617434457, -1.90734859e-08, 4.76837148e-09 ],
			"rotation": [ -0.0150120519, 0.240153611, 0.00893450249, -0.970577717 ]
		},
		{
			"name": "pinky_leg_01_R",
			"translation": [ 0.0759788081, -0.0784541517, -0.0812393576 ],
			"rotation": [ -0.869587779, 0.316318721, 0.188203588, -0.329148799 ],
			"children": [ 67 ]
		},
		{
			"name": "pinky_leg_02_R",
			"translation": [ 0.0455180332, 1.90734859e-08, -9.53674295e-09 ],
			"rotation": [ -0.186921835, 0.149293751, 0.260641754, -0.93532759 ]
		},
		{
			"name": "cloth_front_01_R",
			"translation": [ -0.0953618586, 0.0656511262, -0.0828598738 ],
			"rotation": [ -0.687985241, 0.349710524, 0.39972958, 0.494565636 ],
			"children": [ 69 ]
		},
		{
			"name": "cloth_front_02_R",
			"translation": [ 0.187932849, 0, 1.43051144e-08 ],
			"rotation": [ -0.918950856, -0.0370387286, -0.0214618556, 0.392041951 ]
		},
		{
			"name": "rump_L",
			"translation": [ 0.0247993078, -0.143797114, -0.0637390092 ],
			"rotation": [ 0.0928686112, 0.707397819, -0.1289334, -0.688723445 ],
			"children": [ 71 ]
		},
		{
			"name": "thigh_L",
			"translation": [ -0.289944232, -3.5527136e-17, -3.81469718e-08 ],
			"rotation": [ 0.10344065, 0.6534549, 0.112979546, -0.741304517 ],
			"children": [ 72 ]
		},
		{
			"name": "calf_L",
			"translation": [ -0.323852062, -1.90734859e-08, -5.72204577e-08 ],
			"rotation": [ -1.08257811e-18, -0.588587105, 2.93396331e-18, -0.808433831 ],
			"children": [ 73 ]
		},
		{
			"name": "knee_L",
			"translation": [ -0.157744035, 1.90734859e-08, 2.38418565e-08 ],
			"rotation": [ -0.819442272, -0.0263511613, 0.56721884, -0.0779935196 ],
			"children": [ 74, 75, 77, 79 ]
		},
		{
			"name": "ball_L",
			"translation": [ -0.102816589, 0.0229467396, 0.0736259893 ],
			"rotation": [ -0.97686857, 0.148253128, 0.142979726, 0.0574948899 ]
		},
		{
			"name": "index_leg_01_L",
			"translation": [ -0.108730666, -0.0464187413, 0.0615671128 ],
			"rotation": [ -0.984288037, -0.0378679, -0.0341705531, 0.169042915 ],
			"children": [ 76 ]
		},
		{
			"name": "index_leg_02_L",
			"translation": [ -0.064205654, 1.90734859e-08, -1.90734859e-08 ],
			"rotation": [ 0.0578904822, 0.310266763, -0.0589066856, -0.947055042 ]
		},
		{
			"name": "middle_leg_01_L",
			"translation": [ -0.113004602, 0.0256081391, 0.0644096732 ],
			"rotation": [ -0.987262666, 0.119170234, 0.0541070737, -0.0904618353 ],
			"children": [ 78 ]
		},
		{
			"name": "middle_leg_02_L",
			"translation": [ -0.0617434233, -3.5527136e-17, 8.881784e-18 ],
			"rotation": [ -0.01501205, 0.240153611, 0.00893443916, -0.970577717 ]
		},
		{
			"name": "pinky_leg_01_L",
			"translation": [ -0.0759788007, 0.078454189, 0.0812393725 ],
			"rotation": [ -0.869587779, 0.31631875, 0.188203573, -0.329148799 ],
			"children": [ 80 ]
		},
		{
			"name": "pinky_leg_02_L",
			"translation": [ -0.0455180332, 3.81469718e-08, -9.53674295e-09 ],
			"rotation": [ -0.18692179, 0.149293721, 0.260641664, -0.93532753 ]
		},
		{
			"name": "cloth_front_01_L",
			"translation": [ -0.0953618214, -0.0656511262, -0.0828599557 ],
			"rotation": [ 0.399729759, 0.494565398, 0.687985301, -0.349710464 ],
			"children": [ 82 ]
		},
		{
			"name": "cloth_front_02_L",
			"translation": [ -0.187932849, -1.7763568e-17, 9.53674295e-09 ],
			"rotation": [ -0.918950856, -0.0370387286, -0.0214618556, 0.392041951 ]
		}
	],
	"samplers": [
		{
			"minFilter": 9987,
			"magFilter": 9729
		}
	],
	"scenes": [
		{
			"nodes": [ 0 ]
		}
	],
	"skins": [
		{
			"name": "SK_DragonBrute",
			"inverseBindMatrices": 0,
			"skeleton": 0,
			"joints": [ 1, 2, 3, 4, 5, 6, 7, 8, 9, 10, 11, 12, 13, 14, 15, 16, 17, 18, 19, 20, 21, 22, 23, 24, 25, 26, 27, 28, 29, 30, 31, 32, 33, 34, 35, 36, 37, 38, 39, 40, 41, 42, 43, 44, 45, 46, 47, 48, 49, 50, 51, 52, 53, 54, 55, 56, 57, 58, 59, 60, 61, 62, 63, 64, 65, 66, 67, 68, 69, 70, 71, 72, 73, 74, 75, 76, 77, 78, 79, 80, 81, 82 ]
		}
	],
	"textures": [
		{
			"name": "MI_DragonBrute_Rd_BaseColor",
			"sampler": 0,
			"source": 0
		},
		{
			"name": "MI_DragonBrute_Rd_Emissive",
			"sampler": 0,
			"source": 1
		},
		{
			"name": "T_DragonBrute_N",
			"sampler": 0,
			"source": 2
		}
	],
	"extensionsUsed": [
		"KHR_materials_specular",
		"KHR_materials_emissive_strength"
	]
}