{
	"asset":
	{
		"version": "2.0",
		"generator": "Unreal Engine 5.6.1"
	},
	"scene": 0,
	"accessors": [
		{
			"bufferView": 0,
			"count": 2376,
			"type": "SCALAR",
			"componentType": 5123
		},
		{
			"bufferView": 1,
			"count": 1156,
			"type": "VEC3",
			"componentType": 5126,
			"min": [ -2.54408956, -1.89686543e-17, -0.407771051 ],
			"max": [ 2.54408956, 8.1839056, 0.407771021 ]
		},
		{
			"bufferView": 2,
			"count": 1156,
			"type": "VEC3",
			"componentType": 5126
		},
		{
			"bufferView": 3,
			"count": 1156,
			"type": "VEC4",
			"componentType": 5126
		},
		{
			"bufferView": 4,
			"count": 1156,
			"type": "VEC2",
			"componentType": 5126
		},
		{
			"bufferView": 5,
			"count": 1156,
			"type": "VEC2",
			"componentType": 5126
		}
	],
	"buffers": [
		{
			"uri": "SM_arch_02_4604B605.bin",
			"byteLength": 69488
		}
	],
	"bufferViews": [
		{
			"buffer": 0,
			"byteLength": 4752,
			"target": 34963
		},
		{
			"buffer": 0,
			"byteLength": 13872,
			"byteOffset": 4752,
			"target": 34962
		},
		{
			"buffer": 0,
			"byteLength": 13872,
			"byteOffset": 18624,
			"target": 34962
		},
		{
			"buffer": 0,
			"byteLength": 18496,
			"byteOffset": 32496,
			"target": 34962
		},
		{
			"buffer": 0,
			"byteLength": 9248,
			"byteOffset": 50992,
			"target": 34962
		},
		{
			"buffer": 0,
			"byteLength": 9248,
			"byteOffset": 60240,
			"target": 34962
		}
	],
	"images": [
		{
			"uri": "MI_Arches_01_MetallicRoughness.png"
		},
		{
			"uri": "T_arches_C.png"
		},
		{
			"uri": "T_arches_N.png"
		},
		{
			"uri": "T_arches_M.png"
		}
	],
	"materials": [
		{
			"name": "MI_Arches_01",
			"pbrMetallicRoughness":
			{
				"baseColorTexture":
				{
					"index": 0
				},
				"metallicRoughnessTexture":
				{
					"index": 1
				}
			},
			"normalTexture":
			{
				"index": 2
			},
			"occlusionTexture":
			{
				"index": 3
			},
			"doubleSided": true
		}
	],
	"meshes": [
		{
			"name": "SM_arch_02",
			"primitives": [
				{
					"attributes":
					{
						"POSITION": 1,
						"NORMAL": 2,
						"TANGENT": 3,
						"TEXCOORD_0": 4,
						"TEXCOORD_1": 5
					},
					"indices": 0,
					"material": 0
				}
			]
		}
	],
	"nodes": [
		{
			"mesh": 0
		}
	],
	"samplers": [
		{
			"minFilter": 9987,
			"magFilter": 9729
		}
	],
	"scenes": [
		{
			"nodes": [ 0 ]
		}
	],
	"textures": [
		{
			"name": "T_arches_C",
			"sampler": 0,
			"source": 1
		},
		{
			"name": "MI_Arches_01_MetallicRoughness",
			"sampler": 0,
			"source": 0
		},
		{
			"name": "T_arches_N",
			"sampler": 0,
			"source": 2
		},
		{
			"name": "T_arches_M",
			"sampler": 0,
			"source": 3
		}
	]
}