{
	"asset":
	{
		"version": "2.0",
		"generator": "Unreal Engine 5.6.1"
	},
	"scene": 0,
	"accessors": [
		{
			"bufferView": 0,
			"count": 768,
			"type": "SCALAR",
			"componentType": 5123
		},
		{
			"bufferView": 1,
			"count": 258,
			"type": "VEC3",
			"componentType": 5126,
			"min": [ -1.80501854, -0.0179088991, -0.193274796 ],
			"max": [ 4.58137538e-06, 0.0179237239, 0.365603298 ]
		},
		{
			"bufferView": 2,
			"count": 258,
			"type": "VEC3",
			"componentType": 5126
		},
		{
			"bufferView": 3,
			"count": 258,
			"type": "VEC4",
			"componentType": 5126
		},
		{
			"bufferView": 4,
			"count": 258,
			"type": "VEC2",
			"componentType": 5126
		},
		{
			"bufferView": 5,
			"count": 258,
			"type": "VEC2",
			"componentType": 5126
		}
	],
	"buffers": [
		{
			"uri": "SM_axe_03_FEBBA6A6.bin",
			"byteLength": 15984
		}
	],
	"bufferViews": [
		{
			"buffer": 0,
			"byteLength": 1536,
			"target": 34963
		},
		{
			"buffer": 0,
			"byteLength": 3096,
			"byteOffset": 1536,
			"target": 34962
		},
		{
			"buffer": 0,
			"byteLength": 3096,
			"byteOffset": 4632,
			"target": 34962
		},
		{
			"buffer": 0,
			"byteLength": 4128,
			"byteOffset": 7728,
			"target": 34962
		},
		{
			"buffer": 0,
			"byteLength": 2064,
			"byteOffset": 11856,
			"target": 34962
		},
		{
			"buffer": 0,
			"byteLength": 2064,
			"byteOffset": 13920,
			"target": 34962
		}
	],
	"images": [
		{
			"uri": "MI_Weapon_MetallicRoughness.png"
		},
		{
			"uri": "T_vase_veapon_C.png"
		},
		{
			"uri": "T_vase_veapon_N.png"
		},
		{
			"uri": "T_vase_veapon_M.png"
		}
	],
	"materials": [
		{
			"name": "MI_Weapon",
			"pbrMetallicRoughness":
			{
				"baseColorTexture":
				{
					"index": 0
				},
				"metallicRoughnessTexture":
				{
					"index": 1
				}
			},
			"normalTexture":
			{
				"index": 2
			},
			"occlusionTexture":
			{
				"index": 3
			}
		}
	],
	"meshes": [
		{
			"name": "SM_axe_03",
			"primitives": [
				{
					"attributes":
					{
						"POSITION": 1,
						"NORMAL": 2,
						"TANGENT": 3,
						"TEXCOORD_0": 4,
						"TEXCOORD_1": 5
					},
					"indices": 0,
					"material": 0
				}
			]
		}
	],
	"nodes": [
		{
			"mesh": 0
		}
	],
	"samplers": [
		{
			"minFilter": 9987,
			"magFilter": 9729
		}
	],
	"scenes": [
		{
			"nodes": [ 0 ]
		}
	],
	"textures": [
		{
			"name": "T_vase_veapon_C",
			"sampler": 0,
			"source": 1
		},
		{
			"name": "MI_Weapon_MetallicRoughness",
			"sampler": 0,
			"source": 0
		},
		{
			"name": "T_vase_veapon_N",
			"sampler": 0,
			"source": 2
		},
		{
			"name": "T_vase_veapon_M",
			"sampler": 0,
			"source": 3
		}
	]
}