{
	"asset":
	{
		"version": "2.0",
		"generator": "Unreal Engine 5.6.1"
	},
	"scene": 0,
	"accessors": [
		{
			"bufferView": 0,
			"count": 5064,
			"type": "SCALAR",
			"componentType": 5123
		},
		{
			"bufferView": 1,
			"count": 1470,
			"type": "VEC3",
			"componentType": 5126,
			"min": [ -1.56246138, -4.440892e-18, -0.569001555 ],
			"max": [ 1.56246138, 3.96360159, 0.569001555 ]
		},
		{
			"bufferView": 2,
			"count": 1470,
			"type": "VEC3",
			"componentType": 5126
		},
		{
			"bufferView": 3,
			"count": 1470,
			"type": "VEC4",
			"componentType": 5126
		},
		{
			"bufferView": 4,
			"count": 1470,
			"type": "VEC2",
			"componentType": 5126
		},
		{
			"bufferView": 5,
			"count": 1470,
			"type": "VEC2",
			"componentType": 5126
		}
	],
	"buffers": [
		{
			"uri": "SM_arch_01_F0E581.bin",
			"byteLength": 92448
		}
	],
	"bufferViews": [
		{
			"buffer": 0,
			"byteLength": 10128,
			"target": 34963
		},
		{
			"buffer": 0,
			"byteLength": 17640,
			"byteOffset": 10128,
			"target": 34962
		},
		{
			"buffer": 0,
			"byteLength": 17640,
			"byteOffset": 27768,
			"target": 34962
		},
		{
			"buffer": 0,
			"byteLength": 23520,
			"byteOffset": 45408,
			"target": 34962
		},
		{
			"buffer": 0,
			"byteLength": 11760,
			"byteOffset": 68928,
			"target": 34962
		},
		{
			"buffer": 0,
			"byteLength": 11760,
			"byteOffset": 80688,
			"target": 34962
		}
	],
	"images": [
		{
			"uri": "MI_Arches_01_MetallicRoughness.png"
		},
		{
			"uri": "T_arches_C.png"
		},
		{
			"uri": "T_arches_N.png"
		},
		{
			"uri": "T_arches_M.png"
		}
	],
	"materials": [
		{
			"name": "MI_Arches_01",
			"pbrMetallicRoughness":
			{
				"baseColorTexture":
				{
					"index": 0
				},
				"metallicRoughnessTexture":
				{
					"index": 1
				}
			},
			"normalTexture":
			{
				"index": 2
			},
			"occlusionTexture":
			{
				"index": 3
			},
			"doubleSided": true
		}
	],
	"meshes": [
		{
			"name": "SM_arch_01",
			"primitives": [
				{
					"attributes":
					{
						"POSITION": 1,
						"NORMAL": 2,
						"TANGENT": 3,
						"TEXCOORD_0": 4,
						"TEXCOORD_1": 5
					},
					"indices": 0,
					"material": 0
				}
			]
		}
	],
	"nodes": [
		{
			"mesh": 0
		}
	],
	"samplers": [
		{
			"minFilter": 9987,
			"magFilter": 9729
		}
	],
	"scenes": [
		{
			"nodes": [ 0 ]
		}
	],
	"textures": [
		{
			"name": "T_arches_C",
			"sampler": 0,
			"source": 1
		},
		{
			"name": "MI_Arches_01_MetallicRoughness",
			"sampler": 0,
			"source": 0
		},
		{
			"name": "T_arches_N",
			"sampler": 0,
			"source": 2
		},
		{
			"name": "T_arches_M",
			"sampler": 0,
			"source": 3
		}
	]
}