{
	"asset":
	{
		"version": "2.0",
		"generator": "Unreal Engine 5.6.1"
	},
	"scene": 0,
	"accessors": [
		{
			"bufferView": 0,
			"count": 1602,
			"type": "SCALAR",
			"componentType": 5123
		},
		{
			"bufferView": 1,
			"count": 436,
			"type": "VEC3",
			"componentType": 5126,
			"min": [ -1.51811242, -1.99840136e-17, -0.347557366 ],
			"max": [ 1.51811242, 0.681265116, 0.347557366 ]
		},
		{
			"bufferView": 2,
			"count": 436,
			"type": "VEC3",
			"componentType": 5126
		},
		{
			"bufferView": 3,
			"count": 436,
			"type": "VEC4",
			"componentType": 5126
		},
		{
			"bufferView": 4,
			"count": 436,
			"type": "VEC2",
			"componentType": 5126
		},
		{
			"bufferView": 5,
			"count": 436,
			"type": "VEC2",
			"componentType": 5126
		}
	],
	"buffers": [
		{
			"uri": "SM_Bench_01_C5CFAF39.bin",
			"byteLength": 27620
		}
	],
	"bufferViews": [
		{
			"buffer": 0,
			"byteLength": 3204,
			"target": 34963
		},
		{
			"buffer": 0,
			"byteLength": 5232,
			"byteOffset": 3204,
			"target": 34962
		},
		{
			"buffer": 0,
			"byteLength": 5232,
			"byteOffset": 8436,
			"target": 34962
		},
		{
			"buffer": 0,
			"byteLength": 6976,
			"byteOffset": 13668,
			"target": 34962
		},
		{
			"buffer": 0,
			"byteLength": 3488,
			"byteOffset": 20644,
			"target": 34962
		},
		{
			"buffer": 0,
			"byteLength": 3488,
			"byteOffset": 24132,
			"target": 34962
		}
	],
	"images": [
		{
			"uri": "T_vases_bench_C.png"
		},
		{
			"uri": "T_vases_bench_M.png"
		},
		{
			"uri": "T_vases_bench_N.png"
		}
	],
	"materials": [
		{
			"name": "MI_vases_bench_01",
			"pbrMetallicRoughness":
			{
				"baseColorTexture":
				{
					"index": 0
				},
				"metallicRoughnessTexture":
				{
					"index": 1
				}
			},
			"normalTexture":
			{
				"index": 2
			},
			"occlusionTexture":
			{
				"index": 1
			}
		}
	],
	"meshes": [
		{
			"name": "SM_Bench_01",
			"primitives": [
				{
					"attributes":
					{
						"POSITION": 1,
						"NORMAL": 2,
						"TANGENT": 3,
						"TEXCOORD_0": 4,
						"TEXCOORD_1": 5
					},
					"indices": 0,
					"material": 0
				}
			]
		}
	],
	"nodes": [
		{
			"mesh": 0
		}
	],
	"samplers": [
		{
			"minFilter": 9987,
			"magFilter": 9729
		}
	],
	"scenes": [
		{
			"nodes": [ 0 ]
		}
	],
	"textures": [
		{
			"name": "T_vases_bench_C",
			"sampler": 0,
			"source": 0
		},
		{
			"name": "T_vases_bench_M",
			"sampler": 0,
			"source": 1
		},
		{
			"name": "T_vases_bench_N",
			"sampler": 0,
			"source": 2
		}
	]
}