{
	"asset":
	{
		"version": "2.0",
		"generator": "Unreal Engine 5.6.1"
	},
	"scene": 0,
	"accessors": [
		{
			"bufferView": 0,
			"count": 15165,
			"type": "SCALAR",
			"componentType": 5123
		},
		{
			"bufferView": 1,
			"count": 3866,
			"type": "VEC3",
			"componentType": 5126,
			"min": [ -0.0651417449, -0.113797449, -0.699390113 ],
			"max": [ 2.05269027, 1.18536949, 0.714715719 ]
		},
		{
			"bufferView": 2,
			"count": 3866,
			"type": "VEC3",
			"componentType": 5126
		},
		{
			"bufferView": 3,
			"count": 3866,
			"type": "VEC4",
			"componentType": 5126
		},
		{
			"bufferView": 4,
			"count": 3866,
			"type": "VEC2",
			"componentType": 5126
		},
		{
			"bufferView": 5,
			"count": 3866,
			"type": "VEC2",
			"componentType": 5126
		}
	],
	"buffers": [
		{
			"uri": "SM_bush_02.bin",
			"byteLength": 246828
		}
	],
	"bufferViews": [
		{
			"buffer": 0,
			"byteLength": 30330,
			"target": 34963
		},
		{
			"buffer": 0,
			"byteLength": 46392,
			"byteOffset": 30332,
			"target": 34962
		},
		{
			"buffer": 0,
			"byteLength": 46392,
			"byteOffset": 76724,
			"target": 34962
		},
		{
			"buffer": 0,
			"byteLength": 61856,
			"byteOffset": 123116,
			"target": 34962
		},
		{
			"buffer": 0,
			"byteLength": 30928,
			"byteOffset": 184972,
			"target": 34962
		},
		{
			"buffer": 0,
			"byteLength": 30928,
			"byteOffset": 215900,
			"target": 34962
		}
	],
	"images": [
		{
			"uri": "MI_Bush_01_BaseColor.png"
		}
	],
	"materials": [
		{
			"name": "MI_Bush_01",
			"pbrMetallicRoughness":
			{
				"baseColorTexture":
				{
					"index": 0
				},
				"metallicFactor": 0,
				"roughnessFactor": 0.5
			},
			"alphaMode": "MASK",
			"alphaCutoff": 0.333299994,
			"doubleSided": true
		}
	],
	"meshes": [
		{
			"name": "SM_bush_02",
			"primitives": [
				{
					"attributes":
					{
						"POSITION": 1,
						"NORMAL": 2,
						"TANGENT": 3,
						"TEXCOORD_0": 4,
						"TEXCOORD_1": 5
					},
					"indices": 0,
					"material": 0
				}
			]
		}
	],
	"nodes": [
		{
			"mesh": 0
		}
	],
	"samplers": [
		{
			"minFilter": 9987,
			"magFilter": 9729
		}
	],
	"scenes": [
		{
			"nodes": [ 0 ]
		}
	],
	"textures": [
		{
			"name": "MI_Bush_01_BaseColor",
			"sampler": 0,
			"source": 0
		}
	]
}