{
	"asset":
	{
		"version": "2.0",
		"generator": "Unreal Engine 5.6.1"
	},
	"scene": 0,
	"accessors": [
		{
			"bufferView": 0,
			"count": 3405,
			"type": "SCALAR",
			"componentType": 5123
		},
		{
			"bufferView": 1,
			"count": 1247,
			"type": "VEC3",
			"componentType": 5126,
			"min": [ -0.733362019, -0.0434520729, -0.471149445 ],
			"max": [ 0.73421371, 0.511567116, 0.432097316 ]
		},
		{
			"bufferView": 2,
			"count": 1247,
			"type": "VEC3",
			"componentType": 5126
		},
		{
			"bufferView": 3,
			"count": 1247,
			"type": "VEC4",
			"componentType": 5126
		},
		{
			"bufferView": 4,
			"count": 1247,
			"type": "VEC2",
			"componentType": 5126
		},
		{
			"bufferView": 5,
			"count": 1247,
			"type": "VEC2",
			"componentType": 5126
		}
	],
	"buffers": [
		{
			"uri": "SM_box_02.bin",
			"byteLength": 76644
		}
	],
	"bufferViews": [
		{
			"buffer": 0,
			"byteLength": 6810,
			"target": 34963
		},
		{
			"buffer": 0,
			"byteLength": 14964,
			"byteOffset": 6812,
			"target": 34962
		},
		{
			"buffer": 0,
			"byteLength": 14964,
			"byteOffset": 21776,
			"target": 34962
		},
		{
			"buffer": 0,
			"byteLength": 19952,
			"byteOffset": 36740,
			"target": 34962
		},
		{
			"buffer": 0,
			"byteLength": 9976,
			"byteOffset": 56692,
			"target": 34962
		},
		{
			"buffer": 0,
			"byteLength": 9976,
			"byteOffset": 66668,
			"target": 34962
		}
	],
	"images": [
		{
			"uri": "MI_Furniture_01_MetallicRoughness.png"
		},
		{
			"uri": "T_Furniture_01_C.png"
		},
		{
			"uri": "T_Furniture_01_N.png"
		},
		{
			"uri": "T_Furniture_01_M.png"
		}
	],
	"materials": [
		{
			"name": "MI_Furniture_01",
			"pbrMetallicRoughness":
			{
				"baseColorTexture":
				{
					"index": 0
				},
				"metallicRoughnessTexture":
				{
					"index": 1
				}
			},
			"normalTexture":
			{
				"index": 2
			},
			"occlusionTexture":
			{
				"index": 3
			}
		}
	],
	"meshes": [
		{
			"name": "SM_box_02",
			"primitives": [
				{
					"attributes":
					{
						"POSITION": 1,
						"NORMAL": 2,
						"TANGENT": 3,
						"TEXCOORD_0": 4,
						"TEXCOORD_1": 5
					},
					"indices": 0,
					"material": 0
				}
			]
		}
	],
	"nodes": [
		{
			"mesh": 0
		}
	],
	"samplers": [
		{
			"minFilter": 9987,
			"magFilter": 9729
		}
	],
	"scenes": [
		{
			"nodes": [ 0 ]
		}
	],
	"textures": [
		{
			"name": "T_Furniture_01_C",
			"sampler": 0,
			"source": 1
		},
		{
			"name": "MI_Furniture_01_MetallicRoughness",
			"sampler": 0,
			"source": 0
		},
		{
			"name": "T_Furniture_01_N",
			"sampler": 0,
			"source": 2
		},
		{
			"name": "T_Furniture_01_M",
			"sampler": 0,
			"source": 3
		}
	]
}