{
	"asset":
	{
		"version": "2.0",
		"generator": "Unreal Engine 5.6.1"
	},
	"scene": 0,
	"accessors": [
		{
			"bufferView": 0,
			"count": 4680,
			"type": "SCALAR",
			"componentType": 5123
		},
		{
			"bufferView": 1,
			"count": 1568,
			"type": "VEC3",
			"componentType": 5126,
			"min": [ -0.354000092, -1.66650374e-17, -0.360559195 ],
			"max": [ 0.367118299, 0.381519943, 0.360559195 ]
		},
		{
			"bufferView": 2,
			"count": 1568,
			"type": "VEC3",
			"componentType": 5126
		},
		{
			"bufferView": 3,
			"count": 1568,
			"type": "VEC4",
			"componentType": 5126
		},
		{
			"bufferView": 4,
			"count": 1568,
			"type": "VEC2",
			"componentType": 5126
		},
		{
			"bufferView": 5,
			"count": 1568,
			"type": "VEC2",
			"componentType": 5126
		},
		{
			"bufferView": 6,
			"count": 1044,
			"type": "SCALAR",
			"componentType": 5123
		},
		{
			"bufferView": 7,
			"count": 334,
			"type": "VEC3",
			"componentType": 5126,
			"min": [ -0.346277088, 0.115180105, -0.351451606 ],
			"max": [ 0.357079506, 0.327616125, 0.351905018 ]
		},
		{
			"bufferView": 8,
			"count": 334,
			"type": "VEC3",
			"componentType": 5126
		},
		{
			"bufferView": 9,
			"count": 334,
			"type": "VEC4",
			"componentType": 5126
		},
		{
			"bufferView": 10,
			"count": 334,
			"type": "VEC2",
			"componentType": 5126
		},
		{
			"bufferView": 11,
			"count": 334,
			"type": "VEC2",
			"componentType": 5126
		}
	],
	"buffers": [
		{
			"uri": "SM_bath_01_25A007CC.bin",
			"byteLength": 117960
		}
	],
	"bufferViews": [
		{
			"buffer": 0,
			"byteLength": 9360,
			"target": 34963
		},
		{
			"buffer": 0,
			"byteLength": 18816,
			"byteOffset": 9360,
			"target": 34962
		},
		{
			"buffer": 0,
			"byteLength": 18816,
			"byteOffset": 28176,
			"target": 34962
		},
		{
			"buffer": 0,
			"byteLength": 25088,
			"byteOffset": 46992,
			"target": 34962
		},
		{
			"buffer": 0,
			"byteLength": 12544,
			"byteOffset": 72080,
			"target": 34962
		},
		{
			"buffer": 0,
			"byteLength": 12544,
			"byteOffset": 84624,
			"target": 34962
		},
		{
			"buffer": 0,
			"byteLength": 2088,
			"byteOffset": 97168,
			"target": 34963
		},
		{
			"buffer": 0,
			"byteLength": 4008,
			"byteOffset": 99256,
			"target": 34962
		},
		{
			"buffer": 0,
			"byteLength": 4008,
			"byteOffset": 103264,
			"target": 34962
		},
		{
			"buffer": 0,
			"byteLength": 5344,
			"byteOffset": 107272,
			"target": 34962
		},
		{
			"buffer": 0,
			"byteLength": 2672,
			"byteOffset": 112616,
			"target": 34962
		},
		{
			"buffer": 0,
			"byteLength": 2672,
			"byteOffset": 115288,
			"target": 34962
		}
	],
	"images": [
		{
			"uri": "MI_Furniture_01_MetallicRoughness.png"
		},
		{
			"uri": "MI_Atlas_01_MetallicRoughness.png"
		},
		{
			"uri": "T_Furniture_01_C.png"
		},
		{
			"uri": "T_Furniture_01_N.png"
		},
		{
			"uri": "T_Furniture_01_M.png"
		},
		{
			"uri": "T_Atlas_C.png"
		},
		{
			"uri": "T_Atlas_N.png"
		},
		{
			"uri": "T_Atlas_M.png"
		}
	],
	"materials": [
		{
			"name": "MI_Furniture_01",
			"pbrMetallicRoughness":
			{
				"baseColorTexture":
				{
					"index": 0
				},
				"metallicRoughnessTexture":
				{
					"index": 1
				}
			},
			"normalTexture":
			{
				"index": 2
			},
			"occlusionTexture":
			{
				"index": 3
			}
		},
		{
			"name": "MI_Atlas_01",
			"pbrMetallicRoughness":
			{
				"baseColorTexture":
				{
					"index": 4
				},
				"metallicRoughnessTexture":
				{
					"index": 5
				}
			},
			"normalTexture":
			{
				"index": 6
			},
			"occlusionTexture":
			{
				"index": 7
			}
		}
	],
	"meshes": [
		{
			"name": "SM_bath_01",
			"primitives": [
				{
					"attributes":
					{
						"POSITION": 1,
						"NORMAL": 2,
						"TANGENT": 3,
						"TEXCOORD_0": 4,
						"TEXCOORD_1": 5
					},
					"indices": 0,
					"material": 0
				},
				{
					"attributes":
					{
						"POSITION": 7,
						"NORMAL": 8,
						"TANGENT": 9,
						"TEXCOORD_0": 10,
						"TEXCOORD_1": 11
					},
					"indices": 6,
					"material": 1
				}
			]
		}
	],
	"nodes": [
		{
			"mesh": 0
		}
	],
	"samplers": [
		{
			"minFilter": 9987,
			"magFilter": 9729
		}
	],
	"scenes": [
		{
			"nodes": [ 0 ]
		}
	],
	"textures": [
		{
			"name": "T_Furniture_01_C",
			"sampler": 0,
			"source": 2
		},
		{
			"name": "MI_Furniture_01_MetallicRoughness",
			"sampler": 0,
			"source": 0
		},
		{
			"name": "T_Furniture_01_N",
			"sampler": 0,
			"source": 3
		},
		{
			"name": "T_Furniture_01_M",
			"sampler": 0,
			"source": 4
		},
		{
			"name": "T_Atlas_C",
			"sampler": 0,
			"source": 5
		},
		{
			"name": "MI_Atlas_01_MetallicRoughness",
			"sampler": 0,
			"source": 1
		},
		{
			"name": "T_Atlas_N",
			"sampler": 0,
			"source": 6
		},
		{
			"name": "T_Atlas_M",
			"sampler": 0,
			"source": 7
		}
	]
}