{
	"asset":
	{
		"version": "2.0",
		"generator": "Unreal Engine 5.6.1"
	},
	"scene": 0,
	"accessors": [
		{
			"bufferView": 0,
			"count": 846,
			"type": "SCALAR",
			"componentType": 5121
		},
		{
			"bufferView": 1,
			"count": 227,
			"type": "VEC3",
			"componentType": 5126,
			"min": [ -16.7886314, 0.795590639, -2.06939459 ],
			"max": [ 16.7873173, 6.25573969, 2.06564116 ]
		},
		{
			"bufferView": 2,
			"count": 227,
			"type": "VEC3",
			"componentType": 5126
		},
		{
			"bufferView": 3,
			"count": 227,
			"type": "VEC4",
			"componentType": 5126
		},
		{
			"bufferView": 4,
			"count": 227,
			"type": "VEC2",
			"componentType": 5126
		},
		{
			"bufferView": 5,
			"count": 227,
			"type": "VEC2",
			"componentType": 5126
		},
		{
			"bufferView": 6,
			"count": 150,
			"type": "SCALAR",
			"componentType": 5121
		},
		{
			"bufferView": 7,
			"count": 52,
			"type": "VEC3",
			"componentType": 5126,
			"min": [ -12.6501484, 11.5264645, -12.6435289 ],
			"max": [ 12.6167603, 11.7086267, 12.6464901 ]
		},
		{
			"bufferView": 8,
			"count": 52,
			"type": "VEC3",
			"componentType": 5126
		},
		{
			"bufferView": 9,
			"count": 52,
			"type": "VEC4",
			"componentType": 5126
		},
		{
			"bufferView": 10,
			"count": 52,
			"type": "VEC2",
			"componentType": 5126
		},
		{
			"bufferView": 11,
			"count": 52,
			"type": "VEC2",
			"componentType": 5126
		},
		{
			"bufferView": 12,
			"count": 1473,
			"type": "SCALAR",
			"componentType": 5123
		},
		{
			"bufferView": 13,
			"count": 778,
			"type": "VEC3",
			"componentType": 5126,
			"min": [ -16.286541, -8.57552295e-05, -16.3126087 ],
			"max": [ 16.2902355, 12.0041513, 16.3058453 ]
		},
		{
			"bufferView": 14,
			"count": 778,
			"type": "VEC3",
			"componentType": 5126
		},
		{
			"bufferView": 15,
			"count": 778,
			"type": "VEC4",
			"componentType": 5126
		},
		{
			"bufferView": 16,
			"count": 778,
			"type": "VEC2",
			"componentType": 5126
		},
		{
			"bufferView": 17,
			"count": 778,
			"type": "VEC2",
			"componentType": 5126
		},
		{
			"bufferView": 18,
			"count": 549,
			"type": "SCALAR",
			"componentType": 5121
		},
		{
			"bufferView": 19,
			"count": 161,
			"type": "VEC3",
			"componentType": 5126,
			"min": [ -16.2509804, 7.74510241, -16.2280197 ],
			"max": [ 16.2294884, 12.0105648, 16.2534981 ]
		},
		{
			"bufferView": 20,
			"count": 161,
			"type": "VEC3",
			"componentType": 5126
		},
		{
			"bufferView": 21,
			"count": 161,
			"type": "VEC4",
			"componentType": 5126
		},
		{
			"bufferView": 22,
			"count": 161,
			"type": "VEC2",
			"componentType": 5126
		},
		{
			"bufferView": 23,
			"count": 161,
			"type": "VEC2",
			"componentType": 5126
		},
		{
			"bufferView": 24,
			"count": 28212,
			"type": "SCALAR",
			"componentType": 5123
		},
		{
			"bufferView": 25,
			"count": 11756,
			"type": "VEC3",
			"componentType": 5126,
			"min": [ -16.8092728, 7.41128206, -16.9015179 ],
			"max": [ 16.8519707, 12.2774534, 16.8847713 ]
		},
		{
			"bufferView": 26,
			"count": 11756,
			"type": "VEC3",
			"componentType": 5126
		},
		{
			"bufferView": 27,
			"count": 11756,
			"type": "VEC4",
			"componentType": 5126
		},
		{
			"bufferView": 28,
			"count": 11756,
			"type": "VEC2",
			"componentType": 5126
		},
		{
			"bufferView": 29,
			"count": 11756,
			"type": "VEC2",
			"componentType": 5126
		}
	],
	"buffers": [
		{
			"uri": "SM_Big_Tower_03_body_04_1928CEBA.bin",
			"byteLength": 787468
		}
	],
	"bufferViews": [
		{
			"buffer": 0,
			"byteLength": 846,
			"target": 34963
		},
		{
			"buffer": 0,
			"byteLength": 2724,
			"byteOffset": 848,
			"target": 34962
		},
		{
			"buffer": 0,
			"byteLength": 2724,
			"byteOffset": 3572,
			"target": 34962
		},
		{
			"buffer": 0,
			"byteLength": 3632,
			"byteOffset": 6296,
			"target": 34962
		},
		{
			"buffer": 0,
			"byteLength": 1816,
			"byteOffset": 9928,
			"target": 34962
		},
		{
			"buffer": 0,
			"byteLength": 1816,
			"byteOffset": 11744,
			"target": 34962
		},
		{
			"buffer": 0,
			"byteLength": 150,
			"byteOffset": 13560,
			"target": 34963
		},
		{
			"buffer": 0,
			"byteLength": 624,
			"byteOffset": 13712,
			"target": 34962
		},
		{
			"buffer": 0,
			"byteLength": 624,
			"byteOffset": 14336,
			"target": 34962
		},
		{
			"buffer": 0,
			"byteLength": 832,
			"byteOffset": 14960,
			"target": 34962
		},
		{
			"buffer": 0,
			"byteLength": 416,
			"byteOffset": 15792,
			"target": 34962
		},
		{
			"buffer": 0,
			"byteLength": 416,
			"byteOffset": 16208,
			"target": 34962
		},
		{
			"buffer": 0,
			"byteLength": 2946,
			"byteOffset": 16624,
			"target": 34963
		},
		{
			"buffer": 0,
			"byteLength": 9336,
			"byteOffset": 19572,
			"target": 34962
		},
		{
			"buffer": 0,
			"byteLength": 9336,
			"byteOffset": 28908,
			"target": 34962
		},
		{
			"buffer": 0,
			"byteLength": 12448,
			"byteOffset": 38244,
			"target": 34962
		},
		{
			"buffer": 0,
			"byteLength": 6224,
			"byteOffset": 50692,
			"target": 34962
		},
		{
			"buffer": 0,
			"byteLength": 6224,
			"byteOffset": 56916,
			"target": 34962
		},
		{
			"buffer": 0,
			"byteLength": 549,
			"byteOffset": 63140,
			"target": 34963
		},
		{
			"buffer": 0,
			"byteLength": 1932,
			"byteOffset": 63692,
			"target": 34962
		},
		{
			"buffer": 0,
			"byteLength": 1932,
			"byteOffset": 65624,
			"target": 34962
		},
		{
			"buffer": 0,
			"byteLength": 2576,
			"byteOffset": 67556,
			"target": 34962
		},
		{
			"buffer": 0,
			"byteLength": 1288,
			"byteOffset": 70132,
			"target": 34962
		},
		{
			"buffer": 0,
			"byteLength": 1288,
			"byteOffset": 71420,
			"target": 34962
		},
		{
			"buffer": 0,
			"byteLength": 56424,
			"byteOffset": 72708,
			"target": 34963
		},
		{
			"buffer": 0,
			"byteLength": 141072,
			"byteOffset": 129132,
			"target": 34962
		},
		{
			"buffer": 0,
			"byteLength": 141072,
			"byteOffset": 270204,
			"target": 34962
		},
		{
			"buffer": 0,
			"byteLength": 188096,
			"byteOffset": 411276,
			"target": 34962
		},
		{
			"buffer": 0,
			"byteLength": 94048,
			"byteOffset": 599372,
			"target": 34962
		},
		{
			"buffer": 0,
			"byteLength": 94048,
			"byteOffset": 693420,
			"target": 34962
		}
	],
	"images": [
		{
			"uri": "MI_Brick_02_BaseColor.png"
		},
		{
			"uri": "MI_Brick_02_MetallicRoughness.png"
		},
		{
			"uri": "MI_Brick_02_Normal.png"
		},
		{
			"uri": "MI_Brick_02_Occlusion.png"
		},
		{
			"uri": "WorldGridMaterial_BaseColor.png"
		},
		{
			"uri": "WorldGridMaterial_MetallicRoughness.png"
		},
		{
			"uri": "WorldGridMaterial_Normal.png"
		},
		{
			"uri": "MI_Styl_Wall_Brick_02_SM_Big_Tower_03_body_04_BaseColor.png"
		},
		{
			"uri": "MI_Styl_Wall_Brick_02_SM_Big_Tower_03_body_04_MetallicRoughness.png"
		},
		{
			"uri": "MI_Styl_Wall_Brick_02_SM_Big_Tower_03_body_04_Normal.png"
		},
		{
			"uri": "MI_Styl_Wall_Brick_02_SM_Big_Tower_03_body_04_Occlusion.png"
		},
		{
			"uri": "MI_Styl_Wood_Planks_BaseColor.png"
		},
		{
			"uri": "MI_Styl_Wood_Planks_MetallicRoughness.png"
		},
		{
			"uri": "MI_Styl_Wood_Planks_Occlusion.png"
		},
		{
			"uri": "MI_Roof_01_BaseColor.png"
		},
		{
			"uri": "T_roof_texture_lambert1_OcclusionRoughnessMetallic.png"
		},
		{
			"uri": "T_roof_texture_lambert1_Normal.png"
		}
	],
	"materials": [
		{
			"name": "MI_Brick_02",
			"pbrMetallicRoughness":
			{
				"baseColorTexture":
				{
					"index": 0
				},
				"metallicRoughnessTexture":
				{
					"index": 1
				}
			},
			"normalTexture":
			{
				"index": 2
			},
			"occlusionTexture":
			{
				"index": 3
			}
		},
		{
			"name": "WorldGridMaterial",
			"pbrMetallicRoughness":
			{
				"baseColorTexture":
				{
					"index": 4
				},
				"metallicRoughnessTexture":
				{
					"index": 5
				}
			},
			"normalTexture":
			{
				"index": 6
			}
		},
		{
			"name": "MI_Styl_Wall_Brick_02_SM_Big_Tower_03_body_04",
			"pbrMetallicRoughness":
			{
				"baseColorTexture":
				{
					"index": 7,
					"texCoord": 1,
					"extensions":
					{
						"KHR_texture_transform":
						{
							"offset": [ -0.00828227401, -0.0166246854 ],
							"scale": [ 1.03093469, 2.06347609 ]
						}
					}
				},
				"metallicRoughnessTexture":
				{
					"index": 8,
					"texCoord": 1,
					"extensions":
					{
						"KHR_texture_transform":
						{
							"offset": [ -0.00828227401, -0.0166246854 ],
							"scale": [ 1.03093469, 2.06347609 ]
						}
					}
				}
			},
			"normalTexture":
			{
				"index": 9,
				"texCoord": 1,
				"extensions":
				{
					"KHR_texture_transform":
					{
						"offset": [ -0.00828227401, -0.0166246854 ],
						"scale": [ 1.03093469, 2.06347609 ]
					}
				}
			},
			"occlusionTexture":
			{
				"index": 10,
				"texCoord": 1,
				"extensions":
				{
					"KHR_texture_transform":
					{
						"offset": [ -0.00828227401, -0.0166246854 ],
						"scale": [ 1.03093469, 2.06347609 ]
					}
				}
			}
		},
		{
			"name": "MI_Styl_Wood_Planks",
			"pbrMetallicRoughness":
			{
				"baseColorTexture":
				{
					"index": 11
				},
				"metallicRoughnessTexture":
				{
					"index": 12
				}
			},
			"occlusionTexture":
			{
				"index": 13
			}
		},
		{
			"name": "MI_Roof_01",
			"pbrMetallicRoughness":
			{
				"baseColorTexture":
				{
					"index": 14
				},
				"metallicRoughnessTexture":
				{
					"index": 15
				}
			},
			"normalTexture":
			{
				"index": 16
			},
			"occlusionTexture":
			{
				"index": 15
			}
		}
	],
	"meshes": [
		{
			"name": "SM_Big_Tower_03_body_04",
			"primitives": [
				{
					"attributes":
					{
						"POSITION": 1,
						"NORMAL": 2,
						"TANGENT": 3,
						"TEXCOORD_0": 4,
						"TEXCOORD_1": 5
					},
					"indices": 0,
					"material": 0
				},
				{
					"attributes":
					{
						"POSITION": 7,
						"NORMAL": 8,
						"TANGENT": 9,
						"TEXCOORD_0": 10,
						"TEXCOORD_1": 11
					},
					"indices": 6,
					"material": 1
				},
				{
					"attributes":
					{
						"POSITION": 13,
						"NORMAL": 14,
						"TANGENT": 15,
						"TEXCOORD_0": 16,
						"TEXCOORD_1": 17
					},
					"indices": 12,
					"material": 2
				},
				{
					"attributes":
					{
						"POSITION": 19,
						"NORMAL": 20,
						"TANGENT": 21,
						"TEXCOORD_0": 22,
						"TEXCOORD_1": 23
					},
					"indices": 18,
					"material": 3
				},
				{
					"attributes":
					{
						"POSITION": 25,
						"NORMAL": 26,
						"TANGENT": 27,
						"TEXCOORD_0": 28,
						"TEXCOORD_1": 29
					},
					"indices": 24,
					"material": 4
				}
			]
		}
	],
	"nodes": [
		{
			"mesh": 0
		}
	],
	"samplers": [
		{
			"minFilter": 9987,
			"magFilter": 9729
		}
	],
	"scenes": [
		{
			"nodes": [ 0 ]
		}
	],
	"textures": [
		{
			"name": "MI_Brick_02_BaseColor",
			"sampler": 0,
			"source": 0
		},
		{
			"name": "MI_Brick_02_MetallicRoughness",
			"sampler": 0,
			"source": 1
		},
		{
			"name": "MI_Brick_02_Normal",
			"sampler": 0,
			"source": 2
		},
		{
			"name": "MI_Brick_02_Occlusion",
			"sampler": 0,
			"source": 3
		},
		{
			"name": "WorldGridMaterial_BaseColor",
			"sampler": 0,
			"source": 4
		},
		{
			"name": "WorldGridMaterial_MetallicRoughness",
			"sampler": 0,
			"source": 5
		},
		{
			"name": "WorldGridMaterial_Normal",
			"sampler": 0,
			"source": 6
		},
		{
			"name": "MI_Styl_Wall_Brick_02_SM_Big_Tower_03_body_04_BaseColor",
			"sampler": 0,
			"source": 7
		},
		{
			"name": "MI_Styl_Wall_Brick_02_SM_Big_Tower_03_body_04_MetallicRoughness",
			"sampler": 0,
			"source": 8
		},
		{
			"name": "MI_Styl_Wall_Brick_02_SM_Big_Tower_03_body_04_Normal",
			"sampler": 0,
			"source": 9
		},
		{
			"name": "MI_Styl_Wall_Brick_02_SM_Big_Tower_03_body_04_Occlusion",
			"sampler": 0,
			"source": 10
		},
		{
			"name": "MI_Styl_Wood_Planks_BaseColor",
			"sampler": 0,
			"source": 11
		},
		{
			"name": "MI_Styl_Wood_Planks_MetallicRoughness",
			"sampler": 0,
			"source": 12
		},
		{
			"name": "MI_Styl_Wood_Planks_Occlusion",
			"sampler": 0,
			"source": 13
		},
		{
			"name": "MI_Roof_01_BaseColor",
			"sampler": 0,
			"source": 14
		},
		{
			"name": "T_roof_texture_lambert1_OcclusionRoughnessMetallic",
			"sampler": 0,
			"source": 15
		},
		{
			"name": "T_roof_texture_lambert1_Normal",
			"sampler": 0,
			"source": 16
		}
	],
	"extensionsUsed": [
		"KHR_texture_transform"
	]
}