{
	"asset":
	{
		"version": "2.0",
		"generator": "Unreal Engine 5.6.1"
	},
	"scene": 0,
	"accessors": [
		{
			"bufferView": 0,
			"count": 6849,
			"type": "SCALAR",
			"componentType": 5123
		},
		{
			"bufferView": 1,
			"count": 2103,
			"type": "VEC3",
			"componentType": 5126,
			"min": [ -16.7690048, -1.02140516e-15, -16.7674999 ],
			"max": [ 16.7657204, 18.5178165, 16.7603893 ]
		},
		{
			"bufferView": 2,
			"count": 2103,
			"type": "VEC3",
			"componentType": 5126
		},
		{
			"bufferView": 3,
			"count": 2103,
			"type": "VEC4",
			"componentType": 5126
		},
		{
			"bufferView": 4,
			"count": 2103,
			"type": "VEC2",
			"componentType": 5126
		},
		{
			"bufferView": 5,
			"count": 2103,
			"type": "VEC2",
			"componentType": 5126
		},
		{
			"bufferView": 6,
			"count": 306,
			"type": "SCALAR",
			"componentType": 5121
		},
		{
			"bufferView": 7,
			"count": 106,
			"type": "VEC3",
			"componentType": 5126,
			"min": [ -16.3053894, 0.548284233, -16.310442 ],
			"max": [ 16.2662373, 18.518362, 16.3040981 ]
		},
		{
			"bufferView": 8,
			"count": 106,
			"type": "VEC3",
			"componentType": 5126
		},
		{
			"bufferView": 9,
			"count": 106,
			"type": "VEC4",
			"componentType": 5126
		},
		{
			"bufferView": 10,
			"count": 106,
			"type": "VEC2",
			"componentType": 5126
		},
		{
			"bufferView": 11,
			"count": 106,
			"type": "VEC2",
			"componentType": 5126
		}
	],
	"buffers": [
		{
			"uri": "SM_Big_Tower_03_body_01.bin",
			"byteLength": 137712
		}
	],
	"bufferViews": [
		{
			"buffer": 0,
			"byteLength": 13698,
			"target": 34963
		},
		{
			"buffer": 0,
			"byteLength": 25236,
			"byteOffset": 13700,
			"target": 34962
		},
		{
			"buffer": 0,
			"byteLength": 25236,
			"byteOffset": 38936,
			"target": 34962
		},
		{
			"buffer": 0,
			"byteLength": 33648,
			"byteOffset": 64172,
			"target": 34962
		},
		{
			"buffer": 0,
			"byteLength": 16824,
			"byteOffset": 97820,
			"target": 34962
		},
		{
			"buffer": 0,
			"byteLength": 16824,
			"byteOffset": 114644,
			"target": 34962
		},
		{
			"buffer": 0,
			"byteLength": 306,
			"byteOffset": 131468,
			"target": 34963
		},
		{
			"buffer": 0,
			"byteLength": 1272,
			"byteOffset": 131776,
			"target": 34962
		},
		{
			"buffer": 0,
			"byteLength": 1272,
			"byteOffset": 133048,
			"target": 34962
		},
		{
			"buffer": 0,
			"byteLength": 1696,
			"byteOffset": 134320,
			"target": 34962
		},
		{
			"buffer": 0,
			"byteLength": 848,
			"byteOffset": 136016,
			"target": 34962
		},
		{
			"buffer": 0,
			"byteLength": 848,
			"byteOffset": 136864,
			"target": 34962
		}
	],
	"images": [
		{
			"uri": "MI_Brick_02_BaseColor.png"
		},
		{
			"uri": "MI_Brick_02_MetallicRoughness.png"
		},
		{
			"uri": "MI_Brick_02_Normal.png"
		},
		{
			"uri": "MI_Brick_02_Occlusion.png"
		},
		{
			"uri": "MI_Styl_Wall_Brick_02_SM_Big_Tower_03_body_01_BaseColor.png"
		},
		{
			"uri": "MI_Styl_Wall_Brick_02_SM_Big_Tower_03_body_01_MetallicRoughness.png"
		},
		{
			"uri": "MI_Styl_Wall_Brick_02_SM_Big_Tower_03_body_01_Normal.png"
		},
		{
			"uri": "MI_Styl_Wall_Brick_02_SM_Big_Tower_03_body_01_Occlusion.png"
		}
	],
	"materials": [
		{
			"name": "MI_Brick_02",
			"pbrMetallicRoughness":
			{
				"baseColorTexture":
				{
					"index": 0
				},
				"metallicRoughnessTexture":
				{
					"index": 1
				}
			},
			"normalTexture":
			{
				"index": 2
			},
			"occlusionTexture":
			{
				"index": 3
			}
		},
		{
			"name": "MI_Styl_Wall_Brick_02_SM_Big_Tower_03_body_01",
			"pbrMetallicRoughness":
			{
				"baseColorTexture":
				{
					"index": 4,
					"texCoord": 1,
					"extensions":
					{
						"KHR_texture_transform":
						{
							"offset": [ -0.00880136527, -0.0238611717 ],
							"scale": [ 1.09140265, 2.96167755 ]
						}
					}
				},
				"metallicRoughnessTexture":
				{
					"index": 5,
					"texCoord": 1,
					"extensions":
					{
						"KHR_texture_transform":
						{
							"offset": [ -0.00880136527, -0.0238611717 ],
							"scale": [ 1.09140265, 2.96167755 ]
						}
					}
				}
			},
			"normalTexture":
			{
				"index": 6,
				"texCoord": 1,
				"extensions":
				{
					"KHR_texture_transform":
					{
						"offset": [ -0.00880136527, -0.0238611717 ],
						"scale": [ 1.09140265, 2.96167755 ]
					}
				}
			},
			"occlusionTexture":
			{
				"index": 7,
				"texCoord": 1,
				"extensions":
				{
					"KHR_texture_transform":
					{
						"offset": [ -0.00880136527, -0.0238611717 ],
						"scale": [ 1.09140265, 2.96167755 ]
					}
				}
			}
		}
	],
	"meshes": [
		{
			"name": "SM_Big_Tower_03_body_01",
			"primitives": [
				{
					"attributes":
					{
						"POSITION": 1,
						"NORMAL": 2,
						"TANGENT": 3,
						"TEXCOORD_0": 4,
						"TEXCOORD_1": 5
					},
					"indices": 0,
					"material": 0
				},
				{
					"attributes":
					{
						"POSITION": 7,
						"NORMAL": 8,
						"TANGENT": 9,
						"TEXCOORD_0": 10,
						"TEXCOORD_1": 11
					},
					"indices": 6,
					"material": 1
				}
			]
		}
	],
	"nodes": [
		{
			"mesh": 0
		}
	],
	"samplers": [
		{
			"minFilter": 9987,
			"magFilter": 9729
		}
	],
	"scenes": [
		{
			"nodes": [ 0 ]
		}
	],
	"textures": [
		{
			"name": "MI_Brick_02_BaseColor",
			"sampler": 0,
			"source": 0
		},
		{
			"name": "MI_Brick_02_MetallicRoughness",
			"sampler": 0,
			"source": 1
		},
		{
			"name": "MI_Brick_02_Normal",
			"sampler": 0,
			"source": 2
		},
		{
			"name": "MI_Brick_02_Occlusion",
			"sampler": 0,
			"source": 3
		},
		{
			"name": "MI_Styl_Wall_Brick_02_SM_Big_Tower_03_body_01_BaseColor",
			"sampler": 0,
			"source": 4
		},
		{
			"name": "MI_Styl_Wall_Brick_02_SM_Big_Tower_03_body_01_MetallicRoughness",
			"sampler": 0,
			"source": 5
		},
		{
			"name": "MI_Styl_Wall_Brick_02_SM_Big_Tower_03_body_01_Normal",
			"sampler": 0,
			"source": 6
		},
		{
			"name": "MI_Styl_Wall_Brick_02_SM_Big_Tower_03_body_01_Occlusion",
			"sampler": 0,
			"source": 7
		}
	],
	"extensionsUsed": [
		"KHR_texture_transform"
	]
}