{
	"asset":
	{
		"version": "2.0",
		"generator": "Unreal Engine 5.6.1"
	},
	"scene": 0,
	"accessors": [
		{
			"bufferView": 0,
			"count": 5922,
			"type": "SCALAR",
			"componentType": 5123
		},
		{
			"bufferView": 1,
			"count": 1698,
			"type": "VEC3",
			"componentType": 5126,
			"min": [ -0.187585175, -0.038498655, -0.271473795 ],
			"max": [ 0.203493267, 0.0604804009, 0.244638041 ]
		},
		{
			"bufferView": 2,
			"count": 1698,
			"type": "VEC3",
			"componentType": 5126
		},
		{
			"bufferView": 3,
			"count": 1698,
			"type": "VEC4",
			"componentType": 5126
		},
		{
			"bufferView": 4,
			"count": 1698,
			"type": "VEC2",
			"componentType": 5126
		},
		{
			"bufferView": 5,
			"count": 1698,
			"type": "VEC2",
			"componentType": 5126
		}
	],
	"buffers": [
		{
			"uri": "SM_bones_01_B9EE0F81.bin",
			"byteLength": 106932
		}
	],
	"bufferViews": [
		{
			"buffer": 0,
			"byteLength": 11844,
			"target": 34963
		},
		{
			"buffer": 0,
			"byteLength": 20376,
			"byteOffset": 11844,
			"target": 34962
		},
		{
			"buffer": 0,
			"byteLength": 20376,
			"byteOffset": 32220,
			"target": 34962
		},
		{
			"buffer": 0,
			"byteLength": 27168,
			"byteOffset": 52596,
			"target": 34962
		},
		{
			"buffer": 0,
			"byteLength": 13584,
			"byteOffset": 79764,
			"target": 34962
		},
		{
			"buffer": 0,
			"byteLength": 13584,
			"byteOffset": 93348,
			"target": 34962
		}
	],
	"images": [
		{
			"uri": "T_Skeleton_C.png"
		},
		{
			"uri": "T_Skeleton_M.png"
		},
		{
			"uri": "T_Skeleton_N.png"
		}
	],
	"materials": [
		{
			"name": "MI_Skeleton",
			"pbrMetallicRoughness":
			{
				"baseColorTexture":
				{
					"index": 0
				},
				"metallicRoughnessTexture":
				{
					"index": 1
				}
			},
			"normalTexture":
			{
				"index": 2
			},
			"occlusionTexture":
			{
				"index": 1
			}
		}
	],
	"meshes": [
		{
			"name": "SM_bones_01",
			"primitives": [
				{
					"attributes":
					{
						"POSITION": 1,
						"NORMAL": 2,
						"TANGENT": 3,
						"TEXCOORD_0": 4,
						"TEXCOORD_1": 5
					},
					"indices": 0,
					"material": 0
				}
			]
		}
	],
	"nodes": [
		{
			"mesh": 0
		}
	],
	"samplers": [
		{
			"minFilter": 9987,
			"magFilter": 9729
		}
	],
	"scenes": [
		{
			"nodes": [ 0 ]
		}
	],
	"textures": [
		{
			"name": "T_Skeleton_C",
			"sampler": 0,
			"source": 0
		},
		{
			"name": "T_Skeleton_M",
			"sampler": 0,
			"source": 1
		},
		{
			"name": "T_Skeleton_N",
			"sampler": 0,
			"source": 2
		}
	]
}