{
	"asset":
	{
		"version": "2.0",
		"generator": "Unreal Engine 5.6.1"
	},
	"scene": 0,
	"accessors": [
		{
			"bufferView": 0,
			"count": 543,
			"type": "SCALAR",
			"componentType": 5121
		},
		{
			"bufferView": 1,
			"count": 159,
			"type": "VEC3",
			"componentType": 5126,
			"min": [ -16.2501621, 7.74510002, -16.2280197 ],
			"max": [ 16.2299919, 12.0098753, 16.2536201 ]
		},
		{
			"bufferView": 2,
			"count": 159,
			"type": "VEC3",
			"componentType": 5126
		},
		{
			"bufferView": 3,
			"count": 159,
			"type": "VEC4",
			"componentType": 5126
		},
		{
			"bufferView": 4,
			"count": 159,
			"type": "VEC2",
			"componentType": 5126
		},
		{
			"bufferView": 5,
			"count": 159,
			"type": "VEC2",
			"componentType": 5126
		},
		{
			"bufferView": 6,
			"count": 150,
			"type": "SCALAR",
			"componentType": 5121
		},
		{
			"bufferView": 7,
			"count": 52,
			"type": "VEC3",
			"componentType": 5126,
			"min": [ -12.6501484, 11.5264645, -12.6435289 ],
			"max": [ 12.6167603, 11.7086267, 12.6464901 ]
		},
		{
			"bufferView": 8,
			"count": 52,
			"type": "VEC3",
			"componentType": 5126
		},
		{
			"bufferView": 9,
			"count": 52,
			"type": "VEC4",
			"componentType": 5126
		},
		{
			"bufferView": 10,
			"count": 52,
			"type": "VEC2",
			"componentType": 5126
		},
		{
			"bufferView": 11,
			"count": 52,
			"type": "VEC2",
			"componentType": 5126
		},
		{
			"bufferView": 12,
			"count": 1521,
			"type": "SCALAR",
			"componentType": 5123
		},
		{
			"bufferView": 13,
			"count": 792,
			"type": "VEC3",
			"componentType": 5126,
			"min": [ -16.3074989, -1.80115421e-07, -16.3125591 ],
			"max": [ 16.2902355, 12, 16.3058453 ]
		},
		{
			"bufferView": 14,
			"count": 792,
			"type": "VEC3",
			"componentType": 5126
		},
		{
			"bufferView": 15,
			"count": 792,
			"type": "VEC4",
			"componentType": 5126
		},
		{
			"bufferView": 16,
			"count": 792,
			"type": "VEC2",
			"componentType": 5126
		},
		{
			"bufferView": 17,
			"count": 792,
			"type": "VEC2",
			"componentType": 5126
		},
		{
			"bufferView": 18,
			"count": 828,
			"type": "SCALAR",
			"componentType": 5121
		},
		{
			"bufferView": 19,
			"count": 222,
			"type": "VEC3",
			"componentType": 5126,
			"min": [ -10.0691414, 0.796487093, -15.4532623 ],
			"max": [ 16.7877312, 6.29403543, 2.05836272 ]
		},
		{
			"bufferView": 20,
			"count": 222,
			"type": "VEC3",
			"componentType": 5126
		},
		{
			"bufferView": 21,
			"count": 222,
			"type": "VEC4",
			"componentType": 5126
		},
		{
			"bufferView": 22,
			"count": 222,
			"type": "VEC2",
			"componentType": 5126
		},
		{
			"bufferView": 23,
			"count": 222,
			"type": "VEC2",
			"componentType": 5126
		},
		{
			"bufferView": 24,
			"count": 28224,
			"type": "SCALAR",
			"componentType": 5123
		},
		{
			"bufferView": 25,
			"count": 11760,
			"type": "VEC3",
			"componentType": 5126,
			"min": [ -16.8092995, 7.41128302, -16.9015312 ],
			"max": [ 16.851923, 12.2773275, 16.8853455 ]
		},
		{
			"bufferView": 26,
			"count": 11760,
			"type": "VEC3",
			"componentType": 5126
		},
		{
			"bufferView": 27,
			"count": 11760,
			"type": "VEC4",
			"componentType": 5126
		},
		{
			"bufferView": 28,
			"count": 11760,
			"type": "VEC2",
			"componentType": 5126
		},
		{
			"bufferView": 29,
			"count": 11760,
			"type": "VEC2",
			"componentType": 5126
		}
	],
	"buffers": [
		{
			"uri": "SM_Big_Tower_03_body_02_FE158FDE.bin",
			"byteLength": 788176
		}
	],
	"bufferViews": [
		{
			"buffer": 0,
			"byteLength": 543,
			"target": 34963
		},
		{
			"buffer": 0,
			"byteLength": 1908,
			"byteOffset": 544,
			"target": 34962
		},
		{
			"buffer": 0,
			"byteLength": 1908,
			"byteOffset": 2452,
			"target": 34962
		},
		{
			"buffer": 0,
			"byteLength": 2544,
			"byteOffset": 4360,
			"target": 34962
		},
		{
			"buffer": 0,
			"byteLength": 1272,
			"byteOffset": 6904,
			"target": 34962
		},
		{
			"buffer": 0,
			"byteLength": 1272,
			"byteOffset": 8176,
			"target": 34962
		},
		{
			"buffer": 0,
			"byteLength": 150,
			"byteOffset": 9448,
			"target": 34963
		},
		{
			"buffer": 0,
			"byteLength": 624,
			"byteOffset": 9600,
			"target": 34962
		},
		{
			"buffer": 0,
			"byteLength": 624,
			"byteOffset": 10224,
			"target": 34962
		},
		{
			"buffer": 0,
			"byteLength": 832,
			"byteOffset": 10848,
			"target": 34962
		},
		{
			"buffer": 0,
			"byteLength": 416,
			"byteOffset": 11680,
			"target": 34962
		},
		{
			"buffer": 0,
			"byteLength": 416,
			"byteOffset": 12096,
			"target": 34962
		},
		{
			"buffer": 0,
			"byteLength": 3042,
			"byteOffset": 12512,
			"target": 34963
		},
		{
			"buffer": 0,
			"byteLength": 9504,
			"byteOffset": 15556,
			"target": 34962
		},
		{
			"buffer": 0,
			"byteLength": 9504,
			"byteOffset": 25060,
			"target": 34962
		},
		{
			"buffer": 0,
			"byteLength": 12672,
			"byteOffset": 34564,
			"target": 34962
		},
		{
			"buffer": 0,
			"byteLength": 6336,
			"byteOffset": 47236,
			"target": 34962
		},
		{
			"buffer": 0,
			"byteLength": 6336,
			"byteOffset": 53572,
			"target": 34962
		},
		{
			"buffer": 0,
			"byteLength": 828,
			"byteOffset": 59908,
			"target": 34963
		},
		{
			"buffer": 0,
			"byteLength": 2664,
			"byteOffset": 60736,
			"target": 34962
		},
		{
			"buffer": 0,
			"byteLength": 2664,
			"byteOffset": 63400,
			"target": 34962
		},
		{
			"buffer": 0,
			"byteLength": 3552,
			"byteOffset": 66064,
			"target": 34962
		},
		{
			"buffer": 0,
			"byteLength": 1776,
			"byteOffset": 69616,
			"target": 34962
		},
		{
			"buffer": 0,
			"byteLength": 1776,
			"byteOffset": 71392,
			"target": 34962
		},
		{
			"buffer": 0,
			"byteLength": 56448,
			"byteOffset": 73168,
			"target": 34963
		},
		{
			"buffer": 0,
			"byteLength": 141120,
			"byteOffset": 129616,
			"target": 34962
		},
		{
			"buffer": 0,
			"byteLength": 141120,
			"byteOffset": 270736,
			"target": 34962
		},
		{
			"buffer": 0,
			"byteLength": 188160,
			"byteOffset": 411856,
			"target": 34962
		},
		{
			"buffer": 0,
			"byteLength": 94080,
			"byteOffset": 600016,
			"target": 34962
		},
		{
			"buffer": 0,
			"byteLength": 94080,
			"byteOffset": 694096,
			"target": 34962
		}
	],
	"images": [
		{
			"uri": "MI_Styl_Wood_Planks_BaseColor.png"
		},
		{
			"uri": "MI_Styl_Wood_Planks_MetallicRoughness.png"
		},
		{
			"uri": "MI_Styl_Wood_Planks_Occlusion.png"
		},
		{
			"uri": "WorldGridMaterial_BaseColor.png"
		},
		{
			"uri": "WorldGridMaterial_MetallicRoughness.png"
		},
		{
			"uri": "WorldGridMaterial_Normal.png"
		},
		{
			"uri": "MI_Styl_Wall_Brick_02_SM_Big_Tower_03_body_02_BaseColor.png"
		},
		{
			"uri": "MI_Styl_Wall_Brick_02_SM_Big_Tower_03_body_02_MetallicRoughness.png"
		},
		{
			"uri": "MI_Styl_Wall_Brick_02_SM_Big_Tower_03_body_02_Normal.png"
		},
		{
			"uri": "MI_Styl_Wall_Brick_02_SM_Big_Tower_03_body_02_Occlusion.png"
		},
		{
			"uri": "MI_Brick_02_BaseColor.png"
		},
		{
			"uri": "MI_Brick_02_MetallicRoughness.png"
		},
		{
			"uri": "MI_Brick_02_Normal.png"
		},
		{
			"uri": "MI_Brick_02_Occlusion.png"
		},
		{
			"uri": "MI_Roof_01_BaseColor.png"
		},
		{
			"uri": "T_roof_texture_lambert1_OcclusionRoughnessMetallic.png"
		},
		{
			"uri": "T_roof_texture_lambert1_Normal.png"
		}
	],
	"materials": [
		{
			"name": "MI_Styl_Wood_Planks",
			"pbrMetallicRoughness":
			{
				"baseColorTexture":
				{
					"index": 0
				},
				"metallicRoughnessTexture":
				{
					"index": 1
				}
			},
			"occlusionTexture":
			{
				"index": 2
			}
		},
		{
			"name": "WorldGridMaterial",
			"pbrMetallicRoughness":
			{
				"baseColorTexture":
				{
					"index": 3
				},
				"metallicRoughnessTexture":
				{
					"index": 4
				}
			},
			"normalTexture":
			{
				"index": 5
			}
		},
		{
			"name": "MI_Styl_Wall_Brick_02_SM_Big_Tower_03_body_02",
			"pbrMetallicRoughness":
			{
				"baseColorTexture":
				{
					"index": 6,
					"texCoord": 1,
					"extensions":
					{
						"KHR_texture_transform":
						{
							"offset": [ -0.00829020515, -0.0166086815 ],
							"scale": [ 1.0309428, 2.06344366 ]
						}
					}
				},
				"metallicRoughnessTexture":
				{
					"index": 7,
					"texCoord": 1,
					"extensions":
					{
						"KHR_texture_transform":
						{
							"offset": [ -0.00829020515, -0.0166086815 ],
							"scale": [ 1.0309428, 2.06344366 ]
						}
					}
				}
			},
			"normalTexture":
			{
				"index": 8,
				"texCoord": 1,
				"extensions":
				{
					"KHR_texture_transform":
					{
						"offset": [ -0.00829020515, -0.0166086815 ],
						"scale": [ 1.0309428, 2.06344366 ]
					}
				}
			},
			"occlusionTexture":
			{
				"index": 9,
				"texCoord": 1,
				"extensions":
				{
					"KHR_texture_transform":
					{
						"offset": [ -0.00829020515, -0.0166086815 ],
						"scale": [ 1.0309428, 2.06344366 ]
					}
				}
			}
		},
		{
			"name": "MI_Brick_02",
			"pbrMetallicRoughness":
			{
				"baseColorTexture":
				{
					"index": 10
				},
				"metallicRoughnessTexture":
				{
					"index": 11
				}
			},
			"normalTexture":
			{
				"index": 12
			},
			"occlusionTexture":
			{
				"index": 13
			}
		},
		{
			"name": "MI_Roof_01",
			"pbrMetallicRoughness":
			{
				"baseColorTexture":
				{
					"index": 14
				},
				"metallicRoughnessTexture":
				{
					"index": 15
				}
			},
			"normalTexture":
			{
				"index": 16
			},
			"occlusionTexture":
			{
				"index": 15
			}
		}
	],
	"meshes": [
		{
			"name": "SM_Big_Tower_03_body_02",
			"primitives": [
				{
					"attributes":
					{
						"POSITION": 1,
						"NORMAL": 2,
						"TANGENT": 3,
						"TEXCOORD_0": 4,
						"TEXCOORD_1": 5
					},
					"indices": 0,
					"material": 0
				},
				{
					"attributes":
					{
						"POSITION": 7,
						"NORMAL": 8,
						"TANGENT": 9,
						"TEXCOORD_0": 10,
						"TEXCOORD_1": 11
					},
					"indices": 6,
					"material": 1
				},
				{
					"attributes":
					{
						"POSITION": 13,
						"NORMAL": 14,
						"TANGENT": 15,
						"TEXCOORD_0": 16,
						"TEXCOORD_1": 17
					},
					"indices": 12,
					"material": 2
				},
				{
					"attributes":
					{
						"POSITION": 19,
						"NORMAL": 20,
						"TANGENT": 21,
						"TEXCOORD_0": 22,
						"TEXCOORD_1": 23
					},
					"indices": 18,
					"material": 3
				},
				{
					"attributes":
					{
						"POSITION": 25,
						"NORMAL": 26,
						"TANGENT": 27,
						"TEXCOORD_0": 28,
						"TEXCOORD_1": 29
					},
					"indices": 24,
					"material": 4
				}
			]
		}
	],
	"nodes": [
		{
			"mesh": 0
		}
	],
	"samplers": [
		{
			"minFilter": 9987,
			"magFilter": 9729
		}
	],
	"scenes": [
		{
			"nodes": [ 0 ]
		}
	],
	"textures": [
		{
			"name": "MI_Styl_Wood_Planks_BaseColor",
			"sampler": 0,
			"source": 0
		},
		{
			"name": "MI_Styl_Wood_Planks_MetallicRoughness",
			"sampler": 0,
			"source": 1
		},
		{
			"name": "MI_Styl_Wood_Planks_Occlusion",
			"sampler": 0,
			"source": 2
		},
		{
			"name": "WorldGridMaterial_BaseColor",
			"sampler": 0,
			"source": 3
		},
		{
			"name": "WorldGridMaterial_MetallicRoughness",
			"sampler": 0,
			"source": 4
		},
		{
			"name": "WorldGridMaterial_Normal",
			"sampler": 0,
			"source": 5
		},
		{
			"name": "MI_Styl_Wall_Brick_02_SM_Big_Tower_03_body_02_BaseColor",
			"sampler": 0,
			"source": 6
		},
		{
			"name": "MI_Styl_Wall_Brick_02_SM_Big_Tower_03_body_02_MetallicRoughness",
			"sampler": 0,
			"source": 7
		},
		{
			"name": "MI_Styl_Wall_Brick_02_SM_Big_Tower_03_body_02_Normal",
			"sampler": 0,
			"source": 8
		},
		{
			"name": "MI_Styl_Wall_Brick_02_SM_Big_Tower_03_body_02_Occlusion",
			"sampler": 0,
			"source": 9
		},
		{
			"name": "MI_Brick_02_BaseColor",
			"sampler": 0,
			"source": 10
		},
		{
			"name": "MI_Brick_02_MetallicRoughness",
			"sampler": 0,
			"source": 11
		},
		{
			"name": "MI_Brick_02_Normal",
			"sampler": 0,
			"source": 12
		},
		{
			"name": "MI_Brick_02_Occlusion",
			"sampler": 0,
			"source": 13
		},
		{
			"name": "MI_Roof_01_BaseColor",
			"sampler": 0,
			"source": 14
		},
		{
			"name": "T_roof_texture_lambert1_OcclusionRoughnessMetallic",
			"sampler": 0,
			"source": 15
		},
		{
			"name": "T_roof_texture_lambert1_Normal",
			"sampler": 0,
			"source": 16
		}
	],
	"extensionsUsed": [
		"KHR_texture_transform"
	]
}