{
	"asset":
	{
		"version": "2.0",
		"generator": "Unreal Engine 5.6.1"
	},
	"scene": 0,
	"accessors": [
		{
			"bufferView": 0,
			"count": 2688,
			"type": "SCALAR",
			"componentType": 5123
		},
		{
			"bufferView": 1,
			"count": 1400,
			"type": "VEC3",
			"componentType": 5126,
			"min": [ 0, -1.79704048e-16, -3.13442326 ],
			"max": [ 26, 19.9657326, 3.13179016 ]
		},
		{
			"bufferView": 2,
			"count": 1400,
			"type": "VEC3",
			"componentType": 5126
		},
		{
			"bufferView": 3,
			"count": 1400,
			"type": "VEC4",
			"componentType": 5126
		},
		{
			"bufferView": 4,
			"count": 1400,
			"type": "VEC2",
			"componentType": 5126
		},
		{
			"bufferView": 5,
			"count": 1400,
			"type": "VEC2",
			"componentType": 5126
		},
		{
			"bufferView": 6,
			"count": 84,
			"type": "SCALAR",
			"componentType": 5121
		},
		{
			"bufferView": 7,
			"count": 56,
			"type": "VEC3",
			"componentType": 5126,
			"min": [ 0, 2.44529057, -3.12972164 ],
			"max": [ 26, 18.6177692, 3.13257003 ]
		},
		{
			"bufferView": 8,
			"count": 56,
			"type": "VEC3",
			"componentType": 5126
		},
		{
			"bufferView": 9,
			"count": 56,
			"type": "VEC4",
			"componentType": 5126
		},
		{
			"bufferView": 10,
			"count": 56,
			"type": "VEC2",
			"componentType": 5126
		},
		{
			"bufferView": 11,
			"count": 56,
			"type": "VEC2",
			"componentType": 5126
		},
		{
			"bufferView": 12,
			"count": 6,
			"type": "SCALAR",
			"componentType": 5121
		},
		{
			"bufferView": 13,
			"count": 4,
			"type": "VEC3",
			"componentType": 5126,
			"min": [ 0, 18.6142082, -3.12972164 ],
			"max": [ 25.9875336, 18.6177692, 3.13257003 ]
		},
		{
			"bufferView": 14,
			"count": 4,
			"type": "VEC3",
			"componentType": 5126
		},
		{
			"bufferView": 15,
			"count": 4,
			"type": "VEC4",
			"componentType": 5126
		},
		{
			"bufferView": 16,
			"count": 4,
			"type": "VEC2",
			"componentType": 5126
		},
		{
			"bufferView": 17,
			"count": 4,
			"type": "VEC2",
			"componentType": 5126
		}
	],
	"buffers": [
		{
			"uri": "SM_big_wall_01_52F875A9.bin",
			"byteLength": 87228
		}
	],
	"bufferViews": [
		{
			"buffer": 0,
			"byteLength": 5376,
			"target": 34963
		},
		{
			"buffer": 0,
			"byteLength": 16800,
			"byteOffset": 5376,
			"target": 34962
		},
		{
			"buffer": 0,
			"byteLength": 16800,
			"byteOffset": 22176,
			"target": 34962
		},
		{
			"buffer": 0,
			"byteLength": 22400,
			"byteOffset": 38976,
			"target": 34962
		},
		{
			"buffer": 0,
			"byteLength": 11200,
			"byteOffset": 61376,
			"target": 34962
		},
		{
			"buffer": 0,
			"byteLength": 11200,
			"byteOffset": 72576,
			"target": 34962
		},
		{
			"buffer": 0,
			"byteLength": 84,
			"byteOffset": 83776,
			"target": 34963
		},
		{
			"buffer": 0,
			"byteLength": 672,
			"byteOffset": 83860,
			"target": 34962
		},
		{
			"buffer": 0,
			"byteLength": 672,
			"byteOffset": 84532,
			"target": 34962
		},
		{
			"buffer": 0,
			"byteLength": 896,
			"byteOffset": 85204,
			"target": 34962
		},
		{
			"buffer": 0,
			"byteLength": 448,
			"byteOffset": 86100,
			"target": 34962
		},
		{
			"buffer": 0,
			"byteLength": 448,
			"byteOffset": 86548,
			"target": 34962
		},
		{
			"buffer": 0,
			"byteLength": 6,
			"byteOffset": 86996,
			"target": 34963
		},
		{
			"buffer": 0,
			"byteLength": 48,
			"byteOffset": 87004,
			"target": 34962
		},
		{
			"buffer": 0,
			"byteLength": 48,
			"byteOffset": 87052,
			"target": 34962
		},
		{
			"buffer": 0,
			"byteLength": 64,
			"byteOffset": 87100,
			"target": 34962
		},
		{
			"buffer": 0,
			"byteLength": 32,
			"byteOffset": 87164,
			"target": 34962
		},
		{
			"buffer": 0,
			"byteLength": 32,
			"byteOffset": 87196,
			"target": 34962
		}
	],
	"images": [
		{
			"uri": "MI_Brick_02_BaseColor.png"
		},
		{
			"uri": "MI_Brick_02_MetallicRoughness.png"
		},
		{
			"uri": "MI_Brick_02_Normal.png"
		},
		{
			"uri": "MI_Brick_02_Occlusion.png"
		},
		{
			"uri": "MI_Styl_Wall_Brick_02_SM_big_wall_01_BaseColor.png"
		},
		{
			"uri": "MI_Styl_Wall_Brick_02_SM_big_wall_01_MetallicRoughness.png"
		},
		{
			"uri": "MI_Styl_Wall_Brick_02_SM_big_wall_01_Normal.png"
		},
		{
			"uri": "MI_Styl_Wall_Brick_02_SM_big_wall_01_Occlusion.png"
		},
		{
			"uri": "MI_Floor_Brick_01_BaseColor.png"
		},
		{
			"uri": "MI_Floor_Brick_01_MetallicRoughness.png"
		},
		{
			"uri": "MI_Floor_Brick_01_Normal.png"
		},
		{
			"uri": "MI_Floor_Brick_01_Occlusion.png"
		}
	],
	"materials": [
		{
			"name": "MI_Brick_02",
			"pbrMetallicRoughness":
			{
				"baseColorTexture":
				{
					"index": 0
				},
				"metallicRoughnessTexture":
				{
					"index": 1
				}
			},
			"normalTexture":
			{
				"index": 2
			},
			"occlusionTexture":
			{
				"index": 3
			}
		},
		{
			"name": "MI_Styl_Wall_Brick_02_SM_big_wall_01",
			"pbrMetallicRoughness":
			{
				"baseColorTexture":
				{
					"index": 4,
					"texCoord": 1,
					"extensions":
					{
						"KHR_texture_transform":
						{
							"offset": [ -0.00853306986, -0.00839002058 ],
							"scale": [ 1.05813301, 1.04039431 ]
						}
					}
				},
				"metallicRoughnessTexture":
				{
					"index": 5,
					"texCoord": 1,
					"extensions":
					{
						"KHR_texture_transform":
						{
							"offset": [ -0.00853306986, -0.00839002058 ],
							"scale": [ 1.05813301, 1.04039431 ]
						}
					}
				}
			},
			"normalTexture":
			{
				"index": 6,
				"texCoord": 1,
				"extensions":
				{
					"KHR_texture_transform":
					{
						"offset": [ -0.00853306986, -0.00839002058 ],
						"scale": [ 1.05813301, 1.04039431 ]
					}
				}
			},
			"occlusionTexture":
			{
				"index": 7,
				"texCoord": 1,
				"extensions":
				{
					"KHR_texture_transform":
					{
						"offset": [ -0.00853306986, -0.00839002058 ],
						"scale": [ 1.05813301, 1.04039431 ]
					}
				}
			}
		},
		{
			"name": "MI_Floor_Brick_01",
			"pbrMetallicRoughness":
			{
				"baseColorTexture":
				{
					"index": 8
				},
				"metallicRoughnessTexture":
				{
					"index": 9
				}
			},
			"normalTexture":
			{
				"index": 10
			},
			"occlusionTexture":
			{
				"index": 11
			}
		}
	],
	"meshes": [
		{
			"name": "SM_big_wall_01",
			"primitives": [
				{
					"attributes":
					{
						"POSITION": 1,
						"NORMAL": 2,
						"TANGENT": 3,
						"TEXCOORD_0": 4,
						"TEXCOORD_1": 5
					},
					"indices": 0,
					"material": 0
				},
				{
					"attributes":
					{
						"POSITION": 7,
						"NORMAL": 8,
						"TANGENT": 9,
						"TEXCOORD_0": 10,
						"TEXCOORD_1": 11
					},
					"indices": 6,
					"material": 1
				},
				{
					"attributes":
					{
						"POSITION": 13,
						"NORMAL": 14,
						"TANGENT": 15,
						"TEXCOORD_0": 16,
						"TEXCOORD_1": 17
					},
					"indices": 12,
					"material": 2
				}
			]
		}
	],
	"nodes": [
		{
			"mesh": 0
		}
	],
	"samplers": [
		{
			"minFilter": 9987,
			"magFilter": 9729
		}
	],
	"scenes": [
		{
			"nodes": [ 0 ]
		}
	],
	"textures": [
		{
			"name": "MI_Brick_02_BaseColor",
			"sampler": 0,
			"source": 0
		},
		{
			"name": "MI_Brick_02_MetallicRoughness",
			"sampler": 0,
			"source": 1
		},
		{
			"name": "MI_Brick_02_Normal",
			"sampler": 0,
			"source": 2
		},
		{
			"name": "MI_Brick_02_Occlusion",
			"sampler": 0,
			"source": 3
		},
		{
			"name": "MI_Styl_Wall_Brick_02_SM_big_wall_01_BaseColor",
			"sampler": 0,
			"source": 4
		},
		{
			"name": "MI_Styl_Wall_Brick_02_SM_big_wall_01_MetallicRoughness",
			"sampler": 0,
			"source": 5
		},
		{
			"name": "MI_Styl_Wall_Brick_02_SM_big_wall_01_Normal",
			"sampler": 0,
			"source": 6
		},
		{
			"name": "MI_Styl_Wall_Brick_02_SM_big_wall_01_Occlusion",
			"sampler": 0,
			"source": 7
		},
		{
			"name": "MI_Floor_Brick_01_BaseColor",
			"sampler": 0,
			"source": 8
		},
		{
			"name": "MI_Floor_Brick_01_MetallicRoughness",
			"sampler": 0,
			"source": 9
		},
		{
			"name": "MI_Floor_Brick_01_Normal",
			"sampler": 0,
			"source": 10
		},
		{
			"name": "MI_Floor_Brick_01_Occlusion",
			"sampler": 0,
			"source": 11
		}
	],
	"extensionsUsed": [
		"KHR_texture_transform"
	]
}