{
	"asset":
	{
		"version": "2.0",
		"generator": "Unreal Engine 5.6.1"
	},
	"scene": 0,
	"accessors": [
		{
			"bufferView": 0,
			"count": 2118,
			"type": "SCALAR",
			"componentType": 5123
		},
		{
			"bufferView": 1,
			"count": 976,
			"type": "VEC3",
			"componentType": 5126,
			"min": [ 1.18202445e-06, 1.70530253e-15, -3.13327456 ],
			"max": [ 13.0288925, 20.2520618, 3.13207364 ]
		},
		{
			"bufferView": 2,
			"count": 976,
			"type": "VEC3",
			"componentType": 5126
		},
		{
			"bufferView": 3,
			"count": 976,
			"type": "VEC4",
			"componentType": 5126
		},
		{
			"bufferView": 4,
			"count": 976,
			"type": "VEC2",
			"componentType": 5126
		},
		{
			"bufferView": 5,
			"count": 976,
			"type": "VEC2",
			"componentType": 5126
		},
		{
			"bufferView": 6,
			"count": 16206,
			"type": "SCALAR",
			"componentType": 5123
		},
		{
			"bufferView": 7,
			"count": 5792,
			"type": "VEC3",
			"componentType": 5126,
			"min": [ 2.34054875, 0.36542365, -2.76319575 ],
			"max": [ 11.0365219, 14.5270433, 2.77833343 ]
		},
		{
			"bufferView": 8,
			"count": 5792,
			"type": "VEC3",
			"componentType": 5126
		},
		{
			"bufferView": 9,
			"count": 5792,
			"type": "VEC4",
			"componentType": 5126
		},
		{
			"bufferView": 10,
			"count": 5792,
			"type": "VEC2",
			"componentType": 5126
		},
		{
			"bufferView": 11,
			"count": 5792,
			"type": "VEC2",
			"componentType": 5126
		}
	],
	"buffers": [
		{
			"uri": "SM_big_wall_entry_01_6C64C3C4.bin",
			"byteLength": 415656
		}
	],
	"bufferViews": [
		{
			"buffer": 0,
			"byteLength": 4236,
			"target": 34963
		},
		{
			"buffer": 0,
			"byteLength": 11712,
			"byteOffset": 4236,
			"target": 34962
		},
		{
			"buffer": 0,
			"byteLength": 11712,
			"byteOffset": 15948,
			"target": 34962
		},
		{
			"buffer": 0,
			"byteLength": 15616,
			"byteOffset": 27660,
			"target": 34962
		},
		{
			"buffer": 0,
			"byteLength": 7808,
			"byteOffset": 43276,
			"target": 34962
		},
		{
			"buffer": 0,
			"byteLength": 7808,
			"byteOffset": 51084,
			"target": 34962
		},
		{
			"buffer": 0,
			"byteLength": 32412,
			"byteOffset": 58892,
			"target": 34963
		},
		{
			"buffer": 0,
			"byteLength": 69504,
			"byteOffset": 91304,
			"target": 34962
		},
		{
			"buffer": 0,
			"byteLength": 69504,
			"byteOffset": 160808,
			"target": 34962
		},
		{
			"buffer": 0,
			"byteLength": 92672,
			"byteOffset": 230312,
			"target": 34962
		},
		{
			"buffer": 0,
			"byteLength": 46336,
			"byteOffset": 322984,
			"target": 34962
		},
		{
			"buffer": 0,
			"byteLength": 46336,
			"byteOffset": 369320,
			"target": 34962
		}
	],
	"images": [
		{
			"uri": "MI_Styl_Wall_Brick_02_SM_big_wall_entry_01_BaseColor.png"
		},
		{
			"uri": "MI_Styl_Wall_Brick_02_SM_big_wall_entry_01_MetallicRoughness.png"
		},
		{
			"uri": "MI_Styl_Wall_Brick_02_SM_big_wall_entry_01_Normal.png"
		},
		{
			"uri": "MI_Styl_Wall_Brick_02_SM_big_wall_entry_01_Occlusion.png"
		},
		{
			"uri": "MI_Stones_Dark_BaseColor.png"
		},
		{
			"uri": "MI_Stones_Dark_MetallicRoughness.png"
		},
		{
			"uri": "T_Stone_N.png"
		}
	],
	"materials": [
		{
			"name": "MI_Styl_Wall_Brick_02_SM_big_wall_entry_01",
			"pbrMetallicRoughness":
			{
				"baseColorTexture":
				{
					"index": 0,
					"texCoord": 1,
					"extensions":
					{
						"KHR_texture_transform":
						{
							"offset": [ -0.00819907896, -0.00829771161 ],
							"scale": [ 1.01864421, 1.02992201 ]
						}
					}
				},
				"metallicRoughnessTexture":
				{
					"index": 1,
					"texCoord": 1,
					"extensions":
					{
						"KHR_texture_transform":
						{
							"offset": [ -0.00819907896, -0.00829771161 ],
							"scale": [ 1.01864421, 1.02992201 ]
						}
					}
				}
			},
			"normalTexture":
			{
				"index": 2,
				"texCoord": 1,
				"extensions":
				{
					"KHR_texture_transform":
					{
						"offset": [ -0.00819907896, -0.00829771161 ],
						"scale": [ 1.01864421, 1.02992201 ]
					}
				}
			},
			"occlusionTexture":
			{
				"index": 3,
				"texCoord": 1,
				"extensions":
				{
					"KHR_texture_transform":
					{
						"offset": [ -0.00819907896, -0.00829771161 ],
						"scale": [ 1.01864421, 1.02992201 ]
					}
				}
			}
		},
		{
			"name": "MI_Stones_Dark",
			"pbrMetallicRoughness":
			{
				"baseColorTexture":
				{
					"index": 4
				},
				"metallicRoughnessTexture":
				{
					"index": 5
				}
			},
			"normalTexture":
			{
				"index": 6
			}
		}
	],
	"meshes": [
		{
			"name": "SM_big_wall_entry_01",
			"primitives": [
				{
					"attributes":
					{
						"POSITION": 1,
						"NORMAL": 2,
						"TANGENT": 3,
						"TEXCOORD_0": 4,
						"TEXCOORD_1": 5
					},
					"indices": 0,
					"material": 0
				},
				{
					"attributes":
					{
						"POSITION": 7,
						"NORMAL": 8,
						"TANGENT": 9,
						"TEXCOORD_0": 10,
						"TEXCOORD_1": 11
					},
					"indices": 6,
					"material": 1
				}
			]
		}
	],
	"nodes": [
		{
			"mesh": 0
		}
	],
	"samplers": [
		{
			"minFilter": 9987,
			"magFilter": 9729
		}
	],
	"scenes": [
		{
			"nodes": [ 0 ]
		}
	],
	"textures": [
		{
			"name": "MI_Styl_Wall_Brick_02_SM_big_wall_entry_01_BaseColor",
			"sampler": 0,
			"source": 0
		},
		{
			"name": "MI_Styl_Wall_Brick_02_SM_big_wall_entry_01_MetallicRoughness",
			"sampler": 0,
			"source": 1
		},
		{
			"name": "MI_Styl_Wall_Brick_02_SM_big_wall_entry_01_Normal",
			"sampler": 0,
			"source": 2
		},
		{
			"name": "MI_Styl_Wall_Brick_02_SM_big_wall_entry_01_Occlusion",
			"sampler": 0,
			"source": 3
		},
		{
			"name": "MI_Stones_Dark_BaseColor",
			"sampler": 0,
			"source": 4
		},
		{
			"name": "MI_Stones_Dark_MetallicRoughness",
			"sampler": 0,
			"source": 5
		},
		{
			"name": "T_Stone_N",
			"sampler": 0,
			"source": 6
		}
	],
	"extensionsUsed": [
		"KHR_texture_transform"
	]
}