{
	"asset":
	{
		"version": "2.0",
		"generator": "Unreal Engine 5.6.1"
	},
	"scene": 0,
	"accessors": [
		{
			"bufferView": 0,
			"count": 4461,
			"type": "SCALAR",
			"componentType": 5123
		},
		{
			"bufferView": 1,
			"count": 1599,
			"type": "VEC3",
			"componentType": 5126,
			"min": [ -0.73465997, -0.014393243, -0.462774187 ],
			"max": [ 0.732915759, 0.581823826, 0.440472513 ]
		},
		{
			"bufferView": 2,
			"count": 1599,
			"type": "VEC3",
			"componentType": 5126
		},
		{
			"bufferView": 3,
			"count": 1599,
			"type": "VEC4",
			"componentType": 5126
		},
		{
			"bufferView": 4,
			"count": 1599,
			"type": "VEC2",
			"componentType": 5126
		},
		{
			"bufferView": 5,
			"count": 1599,
			"type": "VEC2",
			"componentType": 5126
		}
	],
	"buffers": [
		{
			"uri": "SM_box_05_9C2FAC98.bin",
			"byteLength": 98468
		}
	],
	"bufferViews": [
		{
			"buffer": 0,
			"byteLength": 8922,
			"target": 34963
		},
		{
			"buffer": 0,
			"byteLength": 19188,
			"byteOffset": 8924,
			"target": 34962
		},
		{
			"buffer": 0,
			"byteLength": 19188,
			"byteOffset": 28112,
			"target": 34962
		},
		{
			"buffer": 0,
			"byteLength": 25584,
			"byteOffset": 47300,
			"target": 34962
		},
		{
			"buffer": 0,
			"byteLength": 12792,
			"byteOffset": 72884,
			"target": 34962
		},
		{
			"buffer": 0,
			"byteLength": 12792,
			"byteOffset": 85676,
			"target": 34962
		}
	],
	"images": [
		{
			"uri": "MI_Furniture_01_MetallicRoughness.png"
		},
		{
			"uri": "T_Furniture_01_C.png"
		},
		{
			"uri": "T_Furniture_01_N.png"
		},
		{
			"uri": "T_Furniture_01_M.png"
		}
	],
	"materials": [
		{
			"name": "MI_Furniture_01",
			"pbrMetallicRoughness":
			{
				"baseColorTexture":
				{
					"index": 0
				},
				"metallicRoughnessTexture":
				{
					"index": 1
				}
			},
			"normalTexture":
			{
				"index": 2
			},
			"occlusionTexture":
			{
				"index": 3
			}
		}
	],
	"meshes": [
		{
			"name": "SM_box_05",
			"primitives": [
				{
					"attributes":
					{
						"POSITION": 1,
						"NORMAL": 2,
						"TANGENT": 3,
						"TEXCOORD_0": 4,
						"TEXCOORD_1": 5
					},
					"indices": 0,
					"material": 0
				}
			]
		}
	],
	"nodes": [
		{
			"mesh": 0
		}
	],
	"samplers": [
		{
			"minFilter": 9987,
			"magFilter": 9729
		}
	],
	"scenes": [
		{
			"nodes": [ 0 ]
		}
	],
	"textures": [
		{
			"name": "T_Furniture_01_C",
			"sampler": 0,
			"source": 1
		},
		{
			"name": "MI_Furniture_01_MetallicRoughness",
			"sampler": 0,
			"source": 0
		},
		{
			"name": "T_Furniture_01_N",
			"sampler": 0,
			"source": 2
		},
		{
			"name": "T_Furniture_01_M",
			"sampler": 0,
			"source": 3
		}
	]
}