{
	"asset":
	{
		"version": "2.0",
		"generator": "Unreal Engine 5.6.1"
	},
	"scene": 0,
	"accessors": [
		{
			"bufferView": 0,
			"count": 1392,
			"type": "SCALAR",
			"componentType": 5123
		},
		{
			"bufferView": 1,
			"count": 534,
			"type": "VEC3",
			"componentType": 5126,
			"min": [ -12.6387253, -0.00142991438, -12.6429586 ],
			"max": [ 12.6410398, 5.09489536, 12.6367922 ]
		},
		{
			"bufferView": 2,
			"count": 534,
			"type": "VEC3",
			"componentType": 5126
		},
		{
			"bufferView": 3,
			"count": 534,
			"type": "VEC4",
			"componentType": 5126
		},
		{
			"bufferView": 4,
			"count": 534,
			"type": "VEC2",
			"componentType": 5126
		},
		{
			"bufferView": 5,
			"count": 534,
			"type": "VEC2",
			"componentType": 5126
		},
		{
			"bufferView": 6,
			"count": 3648,
			"type": "SCALAR",
			"componentType": 5123
		},
		{
			"bufferView": 7,
			"count": 1647,
			"type": "VEC3",
			"componentType": 5126,
			"min": [ -12.7433844, 0.745571971, -12.4831209 ],
			"max": [ 12.6269674, 4.39897776, 12.6572714 ]
		},
		{
			"bufferView": 8,
			"count": 1647,
			"type": "VEC3",
			"componentType": 5126
		},
		{
			"bufferView": 9,
			"count": 1647,
			"type": "VEC4",
			"componentType": 5126
		},
		{
			"bufferView": 10,
			"count": 1647,
			"type": "VEC2",
			"componentType": 5126
		},
		{
			"bufferView": 11,
			"count": 1647,
			"type": "VEC2",
			"componentType": 5126
		}
	],
	"buffers": [
		{
			"uri": "SM_Big_Tower_03_body_03.bin",
			"byteLength": 132216
		}
	],
	"bufferViews": [
		{
			"buffer": 0,
			"byteLength": 2784,
			"target": 34963
		},
		{
			"buffer": 0,
			"byteLength": 6408,
			"byteOffset": 2784,
			"target": 34962
		},
		{
			"buffer": 0,
			"byteLength": 6408,
			"byteOffset": 9192,
			"target": 34962
		},
		{
			"buffer": 0,
			"byteLength": 8544,
			"byteOffset": 15600,
			"target": 34962
		},
		{
			"buffer": 0,
			"byteLength": 4272,
			"byteOffset": 24144,
			"target": 34962
		},
		{
			"buffer": 0,
			"byteLength": 4272,
			"byteOffset": 28416,
			"target": 34962
		},
		{
			"buffer": 0,
			"byteLength": 7296,
			"byteOffset": 32688,
			"target": 34963
		},
		{
			"buffer": 0,
			"byteLength": 19764,
			"byteOffset": 39984,
			"target": 34962
		},
		{
			"buffer": 0,
			"byteLength": 19764,
			"byteOffset": 59748,
			"target": 34962
		},
		{
			"buffer": 0,
			"byteLength": 26352,
			"byteOffset": 79512,
			"target": 34962
		},
		{
			"buffer": 0,
			"byteLength": 13176,
			"byteOffset": 105864,
			"target": 34962
		},
		{
			"buffer": 0,
			"byteLength": 13176,
			"byteOffset": 119040,
			"target": 34962
		}
	],
	"images": [
		{
			"uri": "MI_Styl_Wall_Brick_02_SM_Big_Tower_03_body_03_BaseColor.png"
		},
		{
			"uri": "MI_Styl_Wall_Brick_02_SM_Big_Tower_03_body_03_MetallicRoughness.png"
		},
		{
			"uri": "MI_Styl_Wall_Brick_02_SM_Big_Tower_03_body_03_Normal.png"
		},
		{
			"uri": "MI_Styl_Wall_Brick_02_SM_Big_Tower_03_body_03_Occlusion.png"
		},
		{
			"uri": "MI_Brick_02_BaseColor.png"
		},
		{
			"uri": "MI_Brick_02_MetallicRoughness.png"
		},
		{
			"uri": "MI_Brick_02_Normal.png"
		},
		{
			"uri": "MI_Brick_02_Occlusion.png"
		}
	],
	"materials": [
		{
			"name": "MI_Styl_Wall_Brick_02_SM_Big_Tower_03_body_03",
			"pbrMetallicRoughness":
			{
				"baseColorTexture":
				{
					"index": 0,
					"texCoord": 1,
					"extensions":
					{
						"KHR_texture_transform":
						{
							"offset": [ -0.00819843821, -0.0557518862 ],
							"scale": [ 1.01663733, 6.913445 ]
						}
					}
				},
				"metallicRoughnessTexture":
				{
					"index": 1,
					"texCoord": 1,
					"extensions":
					{
						"KHR_texture_transform":
						{
							"offset": [ -0.00819843821, -0.0557518862 ],
							"scale": [ 1.01663733, 6.913445 ]
						}
					}
				}
			},
			"normalTexture":
			{
				"index": 2,
				"texCoord": 1,
				"extensions":
				{
					"KHR_texture_transform":
					{
						"offset": [ -0.00819843821, -0.0557518862 ],
						"scale": [ 1.01663733, 6.913445 ]
					}
				}
			},
			"occlusionTexture":
			{
				"index": 3,
				"texCoord": 1,
				"extensions":
				{
					"KHR_texture_transform":
					{
						"offset": [ -0.00819843821, -0.0557518862 ],
						"scale": [ 1.01663733, 6.913445 ]
					}
				}
			}
		},
		{
			"name": "MI_Brick_02",
			"pbrMetallicRoughness":
			{
				"baseColorTexture":
				{
					"index": 4
				},
				"metallicRoughnessTexture":
				{
					"index": 5
				}
			},
			"normalTexture":
			{
				"index": 6
			},
			"occlusionTexture":
			{
				"index": 7
			}
		}
	],
	"meshes": [
		{
			"name": "SM_Big_Tower_03_body_03",
			"primitives": [
				{
					"attributes":
					{
						"POSITION": 1,
						"NORMAL": 2,
						"TANGENT": 3,
						"TEXCOORD_0": 4,
						"TEXCOORD_1": 5
					},
					"indices": 0,
					"material": 0
				},
				{
					"attributes":
					{
						"POSITION": 7,
						"NORMAL": 8,
						"TANGENT": 9,
						"TEXCOORD_0": 10,
						"TEXCOORD_1": 11
					},
					"indices": 6,
					"material": 1
				}
			]
		}
	],
	"nodes": [
		{
			"mesh": 0
		}
	],
	"samplers": [
		{
			"minFilter": 9987,
			"magFilter": 9729
		}
	],
	"scenes": [
		{
			"nodes": [ 0 ]
		}
	],
	"textures": [
		{
			"name": "MI_Styl_Wall_Brick_02_SM_Big_Tower_03_body_03_BaseColor",
			"sampler": 0,
			"source": 0
		},
		{
			"name": "MI_Styl_Wall_Brick_02_SM_Big_Tower_03_body_03_MetallicRoughness",
			"sampler": 0,
			"source": 1
		},
		{
			"name": "MI_Styl_Wall_Brick_02_SM_Big_Tower_03_body_03_Normal",
			"sampler": 0,
			"source": 2
		},
		{
			"name": "MI_Styl_Wall_Brick_02_SM_Big_Tower_03_body_03_Occlusion",
			"sampler": 0,
			"source": 3
		},
		{
			"name": "MI_Brick_02_BaseColor",
			"sampler": 0,
			"source": 4
		},
		{
			"name": "MI_Brick_02_MetallicRoughness",
			"sampler": 0,
			"source": 5
		},
		{
			"name": "MI_Brick_02_Normal",
			"sampler": 0,
			"source": 6
		},
		{
			"name": "MI_Brick_02_Occlusion",
			"sampler": 0,
			"source": 7
		}
	],
	"extensionsUsed": [
		"KHR_texture_transform"
	]
}