{
	"asset":
	{
		"version": "2.0",
		"generator": "Unreal Engine 5.6.1"
	},
	"scene": 0,
	"accessors": [
		{
			"bufferView": 0,
			"count": 10746,
			"type": "SCALAR",
			"componentType": 5123
		},
		{
			"bufferView": 1,
			"count": 3271,
			"type": "VEC3",
			"componentType": 5126,
			"min": [ -0.297946513, -0.0393127091, -0.272327751 ],
			"max": [ 0.275681108, 0.0987412706, 0.42186594 ]
		},
		{
			"bufferView": 2,
			"count": 3271,
			"type": "VEC3",
			"componentType": 5126
		},
		{
			"bufferView": 3,
			"count": 3271,
			"type": "VEC4",
			"componentType": 5126
		},
		{
			"bufferView": 4,
			"count": 3271,
			"type": "VEC2",
			"componentType": 5126
		},
		{
			"bufferView": 5,
			"count": 3271,
			"type": "VEC2",
			"componentType": 5126
		}
	],
	"buffers": [
		{
			"uri": "SM_bones_02_8A9600EC.bin",
			"byteLength": 204668
		}
	],
	"bufferViews": [
		{
			"buffer": 0,
			"byteLength": 21492,
			"target": 34963
		},
		{
			"buffer": 0,
			"byteLength": 39252,
			"byteOffset": 21492,
			"target": 34962
		},
		{
			"buffer": 0,
			"byteLength": 39252,
			"byteOffset": 60744,
			"target": 34962
		},
		{
			"buffer": 0,
			"byteLength": 52336,
			"byteOffset": 99996,
			"target": 34962
		},
		{
			"buffer": 0,
			"byteLength": 26168,
			"byteOffset": 152332,
			"target": 34962
		},
		{
			"buffer": 0,
			"byteLength": 26168,
			"byteOffset": 178500,
			"target": 34962
		}
	],
	"images": [
		{
			"uri": "T_Skeleton_C.png"
		},
		{
			"uri": "T_Skeleton_M.png"
		},
		{
			"uri": "T_Skeleton_N.png"
		}
	],
	"materials": [
		{
			"name": "MI_Skeleton",
			"pbrMetallicRoughness":
			{
				"baseColorTexture":
				{
					"index": 0
				},
				"metallicRoughnessTexture":
				{
					"index": 1
				}
			},
			"normalTexture":
			{
				"index": 2
			},
			"occlusionTexture":
			{
				"index": 1
			}
		}
	],
	"meshes": [
		{
			"name": "SM_bones_02",
			"primitives": [
				{
					"attributes":
					{
						"POSITION": 1,
						"NORMAL": 2,
						"TANGENT": 3,
						"TEXCOORD_0": 4,
						"TEXCOORD_1": 5
					},
					"indices": 0,
					"material": 0
				}
			]
		}
	],
	"nodes": [
		{
			"mesh": 0
		}
	],
	"samplers": [
		{
			"minFilter": 9987,
			"magFilter": 9729
		}
	],
	"scenes": [
		{
			"nodes": [ 0 ]
		}
	],
	"textures": [
		{
			"name": "T_Skeleton_C",
			"sampler": 0,
			"source": 0
		},
		{
			"name": "T_Skeleton_M",
			"sampler": 0,
			"source": 1
		},
		{
			"name": "T_Skeleton_N",
			"sampler": 0,
			"source": 2
		}
	]
}