{
	"asset":
	{
		"version": "2.0",
		"generator": "Unreal Engine 5.6.1"
	},
	"scene": 0,
	"accessors": [
		{
			"bufferView": 0,
			"count": 17376,
			"type": "SCALAR",
			"componentType": 5123
		},
		{
			"bufferView": 1,
			"count": 7232,
			"type": "VEC3",
			"componentType": 5126,
			"min": [ -11.8519993, -16.0023365, -1.75198555 ],
			"max": [ 0.333982319, 5.33759928, 10.2519979 ]
		},
		{
			"bufferView": 2,
			"count": 7232,
			"type": "VEC3",
			"componentType": 5126
		},
		{
			"bufferView": 3,
			"count": 7232,
			"type": "VEC4",
			"componentType": 5126
		},
		{
			"bufferView": 4,
			"count": 7232,
			"type": "VEC2",
			"componentType": 5126
		},
		{
			"bufferView": 5,
			"count": 7232,
			"type": "VEC2",
			"componentType": 5126
		},
		{
			"bufferView": 6,
			"count": 2934,
			"type": "SCALAR",
			"componentType": 5123
		},
		{
			"bufferView": 7,
			"count": 1432,
			"type": "VEC3",
			"componentType": 5126,
			"min": [ -12.2722168, -19, -2 ],
			"max": [ 0.76544553, 8.76841927, 10.5563087 ]
		},
		{
			"bufferView": 8,
			"count": 1432,
			"type": "VEC3",
			"componentType": 5126
		},
		{
			"bufferView": 9,
			"count": 1432,
			"type": "VEC4",
			"componentType": 5126
		},
		{
			"bufferView": 10,
			"count": 1432,
			"type": "VEC2",
			"componentType": 5126
		},
		{
			"bufferView": 11,
			"count": 1432,
			"type": "VEC2",
			"componentType": 5126
		},
		{
			"bufferView": 12,
			"count": 252,
			"type": "SCALAR",
			"componentType": 5121
		},
		{
			"bufferView": 13,
			"count": 144,
			"type": "VEC3",
			"componentType": 5126,
			"min": [ -10.9030218, 0.197677642, -1.24761164 ],
			"max": [ -0.293190002, 4.80230808, 9.40782738 ]
		},
		{
			"bufferView": 14,
			"count": 144,
			"type": "VEC3",
			"componentType": 5126
		},
		{
			"bufferView": 15,
			"count": 144,
			"type": "VEC4",
			"componentType": 5126
		},
		{
			"bufferView": 16,
			"count": 144,
			"type": "VEC2",
			"componentType": 5126
		},
		{
			"bufferView": 17,
			"count": 144,
			"type": "VEC2",
			"componentType": 5126
		},
		{
			"bufferView": 18,
			"count": 1878,
			"type": "SCALAR",
			"componentType": 5123
		},
		{
			"bufferView": 19,
			"count": 847,
			"type": "VEC3",
			"componentType": 5126,
			"min": [ -12.0133018, -16, -1.94594276 ],
			"max": [ 0.503680766, 10.0944462, 10.5548716 ]
		},
		{
			"bufferView": 20,
			"count": 847,
			"type": "VEC3",
			"componentType": 5126
		},
		{
			"bufferView": 21,
			"count": 847,
			"type": "VEC4",
			"componentType": 5126
		},
		{
			"bufferView": 22,
			"count": 847,
			"type": "VEC2",
			"componentType": 5126
		},
		{
			"bufferView": 23,
			"count": 847,
			"type": "VEC2",
			"componentType": 5126
		},
		{
			"bufferView": 24,
			"count": 30,
			"type": "SCALAR",
			"componentType": 5121
		},
		{
			"bufferView": 25,
			"count": 14,
			"type": "VEC3",
			"componentType": 5126,
			"min": [ -11.2533855, 0.169965565, -0.602929652 ],
			"max": [ -0.253385603, 0.170725197, 9.20234394 ]
		},
		{
			"bufferView": 26,
			"count": 14,
			"type": "VEC3",
			"componentType": 5126
		},
		{
			"bufferView": 27,
			"count": 14,
			"type": "VEC4",
			"componentType": 5126
		},
		{
			"bufferView": 28,
			"count": 14,
			"type": "VEC2",
			"componentType": 5126
		},
		{
			"bufferView": 29,
			"count": 14,
			"type": "VEC2",
			"componentType": 5126
		},
		{
			"bufferView": 30,
			"count": 1236,
			"type": "SCALAR",
			"componentType": 5123
		},
		{
			"bufferView": 31,
			"count": 903,
			"type": "VEC3",
			"componentType": 5126,
			"min": [ -8.22286701, 0.0624372959, -0.52204603 ],
			"max": [ -3.50445056, 8.66819096, 4.28960419 ]
		},
		{
			"bufferView": 32,
			"count": 903,
			"type": "VEC3",
			"componentType": 5126
		},
		{
			"bufferView": 33,
			"count": 903,
			"type": "VEC4",
			"componentType": 5126
		},
		{
			"bufferView": 34,
			"count": 903,
			"type": "VEC2",
			"componentType": 5126
		},
		{
			"bufferView": 35,
			"count": 903,
			"type": "VEC2",
			"componentType": 5126
		}
	],
	"buffers": [
		{
			"uri": "SM_Big_Tower_01_Merged.bin",
			"byteLength": 639164
		}
	],
	"bufferViews": [
		{
			"buffer": 0,
			"byteLength": 34752,
			"target": 34963
		},
		{
			"buffer": 0,
			"byteLength": 86784,
			"byteOffset": 34752,
			"target": 34962
		},
		{
			"buffer": 0,
			"byteLength": 86784,
			"byteOffset": 121536,
			"target": 34962
		},
		{
			"buffer": 0,
			"byteLength": 115712,
			"byteOffset": 208320,
			"target": 34962
		},
		{
			"buffer": 0,
			"byteLength": 57856,
			"byteOffset": 324032,
			"target": 34962
		},
		{
			"buffer": 0,
			"byteLength": 57856,
			"byteOffset": 381888,
			"target": 34962
		},
		{
			"buffer": 0,
			"byteLength": 5868,
			"byteOffset": 439744,
			"target": 34963
		},
		{
			"buffer": 0,
			"byteLength": 17184,
			"byteOffset": 445612,
			"target": 34962
		},
		{
			"buffer": 0,
			"byteLength": 17184,
			"byteOffset": 462796,
			"target": 34962
		},
		{
			"buffer": 0,
			"byteLength": 22912,
			"byteOffset": 479980,
			"target": 34962
		},
		{
			"buffer": 0,
			"byteLength": 11456,
			"byteOffset": 502892,
			"target": 34962
		},
		{
			"buffer": 0,
			"byteLength": 11456,
			"byteOffset": 514348,
			"target": 34962
		},
		{
			"buffer": 0,
			"byteLength": 252,
			"byteOffset": 525804,
			"target": 34963
		},
		{
			"buffer": 0,
			"byteLength": 1728,
			"byteOffset": 526056,
			"target": 34962
		},
		{
			"buffer": 0,
			"byteLength": 1728,
			"byteOffset": 527784,
			"target": 34962
		},
		{
			"buffer": 0,
			"byteLength": 2304,
			"byteOffset": 529512,
			"target": 34962
		},
		{
			"buffer": 0,
			"byteLength": 1152,
			"byteOffset": 531816,
			"target": 34962
		},
		{
			"buffer": 0,
			"byteLength": 1152,
			"byteOffset": 532968,
			"target": 34962
		},
		{
			"buffer": 0,
			"byteLength": 3756,
			"byteOffset": 534120,
			"target": 34963
		},
		{
			"buffer": 0,
			"byteLength": 10164,
			"byteOffset": 537876,
			"target": 34962
		},
		{
			"buffer": 0,
			"byteLength": 10164,
			"byteOffset": 548040,
			"target": 34962
		},
		{
			"buffer": 0,
			"byteLength": 13552,
			"byteOffset": 558204,
			"target": 34962
		},
		{
			"buffer": 0,
			"byteLength": 6776,
			"byteOffset": 571756,
			"target": 34962
		},
		{
			"buffer": 0,
			"byteLength": 6776,
			"byteOffset": 578532,
			"target": 34962
		},
		{
			"buffer": 0,
			"byteLength": 30,
			"byteOffset": 585308,
			"target": 34963
		},
		{
			"buffer": 0,
			"byteLength": 168,
			"byteOffset": 585340,
			"target": 34962
		},
		{
			"buffer": 0,
			"byteLength": 168,
			"byteOffset": 585508,
			"target": 34962
		},
		{
			"buffer": 0,
			"byteLength": 224,
			"byteOffset": 585676,
			"target": 34962
		},
		{
			"buffer": 0,
			"byteLength": 112,
			"byteOffset": 585900,
			"target": 34962
		},
		{
			"buffer": 0,
			"byteLength": 112,
			"byteOffset": 586012,
			"target": 34962
		},
		{
			"buffer": 0,
			"byteLength": 2472,
			"byteOffset": 586124,
			"target": 34963
		},
		{
			"buffer": 0,
			"byteLength": 10836,
			"byteOffset": 588596,
			"target": 34962
		},
		{
			"buffer": 0,
			"byteLength": 10836,
			"byteOffset": 599432,
			"target": 34962
		},
		{
			"buffer": 0,
			"byteLength": 14448,
			"byteOffset": 610268,
			"target": 34962
		},
		{
			"buffer": 0,
			"byteLength": 7224,
			"byteOffset": 624716,
			"target": 34962
		},
		{
			"buffer": 0,
			"byteLength": 7224,
			"byteOffset": 631940,
			"target": 34962
		}
	],
	"images": [
		{
			"uri": "MI_Stones_Dark_BaseColor.png"
		},
		{
			"uri": "MI_Stones_Dark_MetallicRoughness.png"
		},
		{
			"uri": "MI_Brick_02_BaseColor.png"
		},
		{
			"uri": "MI_Brick_02_MetallicRoughness.png"
		},
		{
			"uri": "MI_Brick_02_Normal.png"
		},
		{
			"uri": "MI_Brick_02_Occlusion.png"
		},
		{
			"uri": "M_Brick_02_Normal.png"
		},
		{
			"uri": "MI_Styl_Wall_Brick_02_SM_Big_Tower_01_Merged_BaseColor.png"
		},
		{
			"uri": "MI_Styl_Wall_Brick_02_SM_Big_Tower_01_Merged_MetallicRoughness.png"
		},
		{
			"uri": "MI_Styl_Wall_Brick_02_SM_Big_Tower_01_Merged_Normal.png"
		},
		{
			"uri": "MI_Styl_Wall_Brick_02_SM_Big_Tower_01_Merged_Occlusion.png"
		},
		{
			"uri": "MI_Floor_Brick_01_BaseColor.png"
		},
		{
			"uri": "MI_Floor_Brick_01_MetallicRoughness.png"
		},
		{
			"uri": "MI_Floor_Brick_01_Normal.png"
		},
		{
			"uri": "MI_Floor_Brick_01_Occlusion.png"
		},
		{
			"uri": "MI_Styl_Wall_Concrete_SM_Big_Tower_01_Merged_BaseColor.png"
		},
		{
			"uri": "MI_Styl_Wall_Concrete_SM_Big_Tower_01_Merged_MetallicRoughness.png"
		},
		{
			"uri": "MI_Styl_Wall_Concrete_SM_Big_Tower_01_Merged_Normal.png"
		},
		{
			"uri": "MI_Styl_Wall_Concrete_SM_Big_Tower_01_Merged_Occlusion.png"
		},
		{
			"uri": "T_Stone_N.png"
		}
	],
	"materials": [
		{
			"name": "MI_Stones_Dark",
			"pbrMetallicRoughness":
			{
				"baseColorTexture":
				{
					"index": 0
				},
				"metallicRoughnessTexture":
				{
					"index": 1
				}
			},
			"normalTexture":
			{
				"index": 2
			}
		},
		{
			"name": "MI_Brick_02",
			"pbrMetallicRoughness":
			{
				"baseColorTexture":
				{
					"index": 3
				},
				"metallicRoughnessTexture":
				{
					"index": 4
				}
			},
			"normalTexture":
			{
				"index": 5
			},
			"occlusionTexture":
			{
				"index": 6
			}
		},
		{
			"name": "M_Brick_02",
			"pbrMetallicRoughness":
			{
				"baseColorTexture":
				{
					"index": 7
				},
				"metallicRoughnessTexture":
				{
					"index": 8
				}
			},
			"normalTexture":
			{
				"index": 9
			},
			"occlusionTexture":
			{
				"index": 10
			}
		},
		{
			"name": "MI_Styl_Wall_Brick_02_SM_Big_Tower_01_Merged",
			"pbrMetallicRoughness":
			{
				"baseColorTexture":
				{
					"index": 11,
					"texCoord": 1,
					"extensions":
					{
						"KHR_texture_transform":
						{
							"offset": [ -0.00197710237, -0.00194058358 ],
							"scale": [ 1.00442934, 1.00735116 ]
						}
					}
				},
				"metallicRoughnessTexture":
				{
					"index": 12,
					"texCoord": 1,
					"extensions":
					{
						"KHR_texture_transform":
						{
							"offset": [ -0.00197710237, -0.00194058358 ],
							"scale": [ 1.00442934, 1.00735116 ]
						}
					}
				}
			},
			"normalTexture":
			{
				"index": 13,
				"texCoord": 1,
				"extensions":
				{
					"KHR_texture_transform":
					{
						"offset": [ -0.00197710237, -0.00194058358 ],
						"scale": [ 1.00442934, 1.00735116 ]
					}
				}
			},
			"occlusionTexture":
			{
				"index": 14,
				"texCoord": 1,
				"extensions":
				{
					"KHR_texture_transform":
					{
						"offset": [ -0.00197710237, -0.00194058358 ],
						"scale": [ 1.00442934, 1.00735116 ]
					}
				}
			}
		},
		{
			"name": "MI_Floor_Brick_01",
			"pbrMetallicRoughness":
			{
				"baseColorTexture":
				{
					"index": 15
				},
				"metallicRoughnessTexture":
				{
					"index": 16
				}
			},
			"normalTexture":
			{
				"index": 17
			},
			"occlusionTexture":
			{
				"index": 18
			}
		},
		{
			"name": "MI_Styl_Wall_Concrete_SM_Big_Tower_01_Merged",
			"pbrMetallicRoughness":
			{
				"baseColorTexture":
				{
					"index": 19,
					"texCoord": 1,
					"extensions":
					{
						"KHR_texture_transform":
						{
							"offset": [ -0.0650694966, -0.0515636019 ],
							"scale": [ 1.06663191, 1.05207729 ]
						}
					}
				},
				"metallicRoughnessTexture":
				{
					"index": 20,
					"texCoord": 1,
					"extensions":
					{
						"KHR_texture_transform":
						{
							"offset": [ -0.0650694966, -0.0515636019 ],
							"scale": [ 1.06663191, 1.05207729 ]
						}
					}
				}
			},
			"normalTexture":
			{
				"index": 21,
				"texCoord": 1,
				"extensions":
				{
					"KHR_texture_transform":
					{
						"offset": [ -0.0650694966, -0.0515636019 ],
						"scale": [ 1.06663191, 1.05207729 ]
					}
				}
			},
			"occlusionTexture":
			{
				"index": 22,
				"texCoord": 1,
				"extensions":
				{
					"KHR_texture_transform":
					{
						"offset": [ -0.0650694966, -0.0515636019 ],
						"scale": [ 1.06663191, 1.05207729 ]
					}
				}
			},
			"doubleSided": true
		}
	],
	"meshes": [
		{
			"name": "SM_Big_Tower_01_Merged",
			"primitives": [
				{
					"attributes":
					{
						"POSITION": 1,
						"NORMAL": 2,
						"TANGENT": 3,
						"TEXCOORD_0": 4,
						"TEXCOORD_1": 5
					},
					"indices": 0,
					"material": 0
				},
				{
					"attributes":
					{
						"POSITION": 7,
						"NORMAL": 8,
						"TANGENT": 9,
						"TEXCOORD_0": 10,
						"TEXCOORD_1": 11
					},
					"indices": 6,
					"material": 1
				},
				{
					"attributes":
					{
						"POSITION": 13,
						"NORMAL": 14,
						"TANGENT": 15,
						"TEXCOORD_0": 16,
						"TEXCOORD_1": 17
					},
					"indices": 12,
					"material": 2
				},
				{
					"attributes":
					{
						"POSITION": 19,
						"NORMAL": 20,
						"TANGENT": 21,
						"TEXCOORD_0": 22,
						"TEXCOORD_1": 23
					},
					"indices": 18,
					"material": 3
				},
				{
					"attributes":
					{
						"POSITION": 25,
						"NORMAL": 26,
						"TANGENT": 27,
						"TEXCOORD_0": 28,
						"TEXCOORD_1": 29
					},
					"indices": 24,
					"material": 4
				},
				{
					"attributes":
					{
						"POSITION": 31,
						"NORMAL": 32,
						"TANGENT": 33,
						"TEXCOORD_0": 34,
						"TEXCOORD_1": 35
					},
					"indices": 30,
					"material": 5
				}
			]
		}
	],
	"nodes": [
		{
			"mesh": 0
		}
	],
	"samplers": [
		{
			"minFilter": 9987,
			"magFilter": 9729
		}
	],
	"scenes": [
		{
			"nodes": [ 0 ]
		}
	],
	"textures": [
		{
			"name": "MI_Stones_Dark_BaseColor",
			"sampler": 0,
			"source": 0
		},
		{
			"name": "MI_Stones_Dark_MetallicRoughness",
			"sampler": 0,
			"source": 1
		},
		{
			"name": "T_Stone_N",
			"sampler": 0,
			"source": 19
		},
		{
			"name": "MI_Brick_02_BaseColor",
			"sampler": 0,
			"source": 2
		},
		{
			"name": "MI_Brick_02_MetallicRoughness",
			"sampler": 0,
			"source": 3
		},
		{
			"name": "MI_Brick_02_Normal",
			"sampler": 0,
			"source": 4
		},
		{
			"name": "MI_Brick_02_Occlusion",
			"sampler": 0,
			"source": 5
		},
		{
			"name": "M_Brick_02_BaseColor",
			"sampler": 0,
			"source": 2
		},
		{
			"name": "M_Brick_02_MetallicRoughness",
			"sampler": 0,
			"source": 3
		},
		{
			"name": "M_Brick_02_Normal",
			"sampler": 0,
			"source": 6
		},
		{
			"name": "M_Brick_02_Occlusion",
			"sampler": 0,
			"source": 5
		},
		{
			"name": "MI_Styl_Wall_Brick_02_SM_Big_Tower_01_Merged_BaseColor",
			"sampler": 0,
			"source": 7
		},
		{
			"name": "MI_Styl_Wall_Brick_02_SM_Big_Tower_01_Merged_MetallicRoughness",
			"sampler": 0,
			"source": 8
		},
		{
			"name": "MI_Styl_Wall_Brick_02_SM_Big_Tower_01_Merged_Normal",
			"sampler": 0,
			"source": 9
		},
		{
			"name": "MI_Styl_Wall_Brick_02_SM_Big_Tower_01_Merged_Occlusion",
			"sampler": 0,
			"source": 10
		},
		{
			"name": "MI_Floor_Brick_01_BaseColor",
			"sampler": 0,
			"source": 11
		},
		{
			"name": "MI_Floor_Brick_01_MetallicRoughness",
			"sampler": 0,
			"source": 12
		},
		{
			"name": "MI_Floor_Brick_01_Normal",
			"sampler": 0,
			"source": 13
		},
		{
			"name": "MI_Floor_Brick_01_Occlusion",
			"sampler": 0,
			"source": 14
		},
		{
			"name": "MI_Styl_Wall_Concrete_SM_Big_Tower_01_Merged_BaseColor",
			"sampler": 0,
			"source": 15
		},
		{
			"name": "MI_Styl_Wall_Concrete_SM_Big_Tower_01_Merged_MetallicRoughness",
			"sampler": 0,
			"source": 16
		},
		{
			"name": "MI_Styl_Wall_Concrete_SM_Big_Tower_01_Merged_Normal",
			"sampler": 0,
			"source": 17
		},
		{
			"name": "MI_Styl_Wall_Concrete_SM_Big_Tower_01_Merged_Occlusion",
			"sampler": 0,
			"source": 18
		}
	],
	"extensionsUsed": [
		"KHR_texture_transform"
	]
}