{
	"asset":
	{
		"version": "2.0",
		"generator": "Unreal Engine 5.6.1"
	},
	"scene": 0,
	"accessors": [
		{
			"bufferView": 0,
			"count": 2106,
			"type": "SCALAR",
			"componentType": 5123
		},
		{
			"bufferView": 1,
			"count": 679,
			"type": "VEC3",
			"componentType": 5126,
			"min": [ -0.9985044, -0.0026277923, -0.282639295 ],
			"max": [ 0.994716763, 0.704691887, 0.173335031 ]
		},
		{
			"bufferView": 2,
			"count": 679,
			"type": "VEC3",
			"componentType": 5126
		},
		{
			"bufferView": 3,
			"count": 679,
			"type": "VEC4",
			"componentType": 5126
		},
		{
			"bufferView": 4,
			"count": 679,
			"type": "VEC2",
			"componentType": 5126
		},
		{
			"bufferView": 5,
			"count": 679,
			"type": "VEC2",
			"componentType": 5126
		}
	],
	"buffers": [
		{
			"uri": "SM_bench_01_2A1D9340.bin",
			"byteLength": 42236
		}
	],
	"bufferViews": [
		{
			"buffer": 0,
			"byteLength": 4212,
			"target": 34963
		},
		{
			"buffer": 0,
			"byteLength": 8148,
			"byteOffset": 4212,
			"target": 34962
		},
		{
			"buffer": 0,
			"byteLength": 8148,
			"byteOffset": 12360,
			"target": 34962
		},
		{
			"buffer": 0,
			"byteLength": 10864,
			"byteOffset": 20508,
			"target": 34962
		},
		{
			"buffer": 0,
			"byteLength": 5432,
			"byteOffset": 31372,
			"target": 34962
		},
		{
			"buffer": 0,
			"byteLength": 5432,
			"byteOffset": 36804,
			"target": 34962
		}
	],
	"images": [
		{
			"uri": "MI_Furniture_01_MetallicRoughness.png"
		},
		{
			"uri": "T_Furniture_01_C.png"
		},
		{
			"uri": "T_Furniture_01_N.png"
		},
		{
			"uri": "T_Furniture_01_M.png"
		}
	],
	"materials": [
		{
			"name": "MI_Furniture_01",
			"pbrMetallicRoughness":
			{
				"baseColorTexture":
				{
					"index": 0
				},
				"metallicRoughnessTexture":
				{
					"index": 1
				}
			},
			"normalTexture":
			{
				"index": 2
			},
			"occlusionTexture":
			{
				"index": 3
			}
		}
	],
	"meshes": [
		{
			"name": "SM_bench_01",
			"primitives": [
				{
					"attributes":
					{
						"POSITION": 1,
						"NORMAL": 2,
						"TANGENT": 3,
						"TEXCOORD_0": 4,
						"TEXCOORD_1": 5
					},
					"indices": 0,
					"material": 0
				}
			]
		}
	],
	"nodes": [
		{
			"mesh": 0
		}
	],
	"samplers": [
		{
			"minFilter": 9987,
			"magFilter": 9729
		}
	],
	"scenes": [
		{
			"nodes": [ 0 ]
		}
	],
	"textures": [
		{
			"name": "T_Furniture_01_C",
			"sampler": 0,
			"source": 1
		},
		{
			"name": "MI_Furniture_01_MetallicRoughness",
			"sampler": 0,
			"source": 0
		},
		{
			"name": "T_Furniture_01_N",
			"sampler": 0,
			"source": 2
		},
		{
			"name": "T_Furniture_01_M",
			"sampler": 0,
			"source": 3
		}
	]
}