{
	"asset":
	{
		"version": "2.0",
		"generator": "Unreal Engine 5.6.1"
	},
	"scene": 0,
	"accessors": [
		{
			"bufferView": 0,
			"count": 963,
			"type": "SCALAR",
			"componentType": 5123
		},
		{
			"bufferView": 1,
			"count": 436,
			"type": "VEC3",
			"componentType": 5126,
			"min": [ -2.81065416, -0.0563754253, 0.190319821 ],
			"max": [ 2.89456058, 25.6722755, 7.40446043 ]
		},
		{
			"bufferView": 2,
			"count": 436,
			"type": "VEC3",
			"componentType": 5126
		},
		{
			"bufferView": 3,
			"count": 436,
			"type": "VEC4",
			"componentType": 5126
		},
		{
			"bufferView": 4,
			"count": 436,
			"type": "VEC2",
			"componentType": 5126
		},
		{
			"bufferView": 5,
			"count": 436,
			"type": "VEC2",
			"componentType": 5126
		},
		{
			"bufferView": 6,
			"count": 36,
			"type": "SCALAR",
			"componentType": 5121
		},
		{
			"bufferView": 7,
			"count": 20,
			"type": "VEC3",
			"componentType": 5126,
			"min": [ -1.10535157, 18.5475578, 2.57144046 ],
			"max": [ 1.18921876, 25.5608368, 4.08567333 ]
		},
		{
			"bufferView": 8,
			"count": 20,
			"type": "VEC3",
			"componentType": 5126
		},
		{
			"bufferView": 9,
			"count": 20,
			"type": "VEC4",
			"componentType": 5126
		},
		{
			"bufferView": 10,
			"count": 20,
			"type": "VEC2",
			"componentType": 5126
		},
		{
			"bufferView": 11,
			"count": 20,
			"type": "VEC2",
			"componentType": 5126
		},
		{
			"bufferView": 12,
			"count": 387,
			"type": "SCALAR",
			"componentType": 5121
		},
		{
			"bufferView": 13,
			"count": 144,
			"type": "VEC3",
			"componentType": 5126,
			"min": [ -2.58821464, -7.62939436e-08, 4.67165676e-24 ],
			"max": [ 2.67033195, 24.2739029, 7.20290709 ]
		},
		{
			"bufferView": 14,
			"count": 144,
			"type": "VEC3",
			"componentType": 5126
		},
		{
			"bufferView": 15,
			"count": 144,
			"type": "VEC4",
			"componentType": 5126
		},
		{
			"bufferView": 16,
			"count": 144,
			"type": "VEC2",
			"componentType": 5126
		},
		{
			"bufferView": 17,
			"count": 144,
			"type": "VEC2",
			"componentType": 5126
		},
		{
			"bufferView": 18,
			"count": 5010,
			"type": "SCALAR",
			"componentType": 5123
		},
		{
			"bufferView": 19,
			"count": 2093,
			"type": "VEC3",
			"componentType": 5126,
			"min": [ -2.36093998, 25.0807362, 0.312489003 ],
			"max": [ 2.36093497, 33.0535965, 5.03436804 ]
		},
		{
			"bufferView": 20,
			"count": 2093,
			"type": "VEC3",
			"componentType": 5126
		},
		{
			"bufferView": 21,
			"count": 2093,
			"type": "VEC4",
			"componentType": 5126
		},
		{
			"bufferView": 22,
			"count": 2093,
			"type": "VEC2",
			"componentType": 5126
		},
		{
			"bufferView": 23,
			"count": 2093,
			"type": "VEC2",
			"componentType": 5126
		},
		{
			"bufferView": 24,
			"count": 60,
			"type": "SCALAR",
			"componentType": 5121
		},
		{
			"bufferView": 25,
			"count": 37,
			"type": "VEC3",
			"componentType": 5126,
			"min": [ -2.18688083, 25.221077, 0.503307402 ],
			"max": [ 2.10950708, 30.9670315, 4.78382015 ]
		},
		{
			"bufferView": 26,
			"count": 37,
			"type": "VEC3",
			"componentType": 5126
		},
		{
			"bufferView": 27,
			"count": 37,
			"type": "VEC4",
			"componentType": 5126
		},
		{
			"bufferView": 28,
			"count": 37,
			"type": "VEC2",
			"componentType": 5126
		},
		{
			"bufferView": 29,
			"count": 37,
			"type": "VEC2",
			"componentType": 5126
		},
		{
			"bufferView": 30,
			"count": 4968,
			"type": "SCALAR",
			"componentType": 5123
		},
		{
			"bufferView": 31,
			"count": 2772,
			"type": "VEC3",
			"componentType": 5126,
			"min": [ -2.60689354, 24.7904396, 0.0665537342 ],
			"max": [ 2.60689473, 32.692112, 5.28029633 ]
		},
		{
			"bufferView": 32,
			"count": 2772,
			"type": "VEC3",
			"componentType": 5126
		},
		{
			"bufferView": 33,
			"count": 2772,
			"type": "VEC4",
			"componentType": 5126
		},
		{
			"bufferView": 34,
			"count": 2772,
			"type": "VEC2",
			"componentType": 5126
		},
		{
			"bufferView": 35,
			"count": 2772,
			"type": "VEC2",
			"componentType": 5126
		}
	],
	"buffers": [
		{
			"uri": "SM_Big_Tower_03_side_01.bin",
			"byteLength": 330480
		}
	],
	"bufferViews": [
		{
			"buffer": 0,
			"byteLength": 1926,
			"target": 34963
		},
		{
			"buffer": 0,
			"byteLength": 5232,
			"byteOffset": 1928,
			"target": 34962
		},
		{
			"buffer": 0,
			"byteLength": 5232,
			"byteOffset": 7160,
			"target": 34962
		},
		{
			"buffer": 0,
			"byteLength": 6976,
			"byteOffset": 12392,
			"target": 34962
		},
		{
			"buffer": 0,
			"byteLength": 3488,
			"byteOffset": 19368,
			"target": 34962
		},
		{
			"buffer": 0,
			"byteLength": 3488,
			"byteOffset": 22856,
			"target": 34962
		},
		{
			"buffer": 0,
			"byteLength": 36,
			"byteOffset": 26344,
			"target": 34963
		},
		{
			"buffer": 0,
			"byteLength": 240,
			"byteOffset": 26380,
			"target": 34962
		},
		{
			"buffer": 0,
			"byteLength": 240,
			"byteOffset": 26620,
			"target": 34962
		},
		{
			"buffer": 0,
			"byteLength": 320,
			"byteOffset": 26860,
			"target": 34962
		},
		{
			"buffer": 0,
			"byteLength": 160,
			"byteOffset": 27180,
			"target": 34962
		},
		{
			"buffer": 0,
			"byteLength": 160,
			"byteOffset": 27340,
			"target": 34962
		},
		{
			"buffer": 0,
			"byteLength": 387,
			"byteOffset": 27500,
			"target": 34963
		},
		{
			"buffer": 0,
			"byteLength": 1728,
			"byteOffset": 27888,
			"target": 34962
		},
		{
			"buffer": 0,
			"byteLength": 1728,
			"byteOffset": 29616,
			"target": 34962
		},
		{
			"buffer": 0,
			"byteLength": 2304,
			"byteOffset": 31344,
			"target": 34962
		},
		{
			"buffer": 0,
			"byteLength": 1152,
			"byteOffset": 33648,
			"target": 34962
		},
		{
			"buffer": 0,
			"byteLength": 1152,
			"byteOffset": 34800,
			"target": 34962
		},
		{
			"buffer": 0,
			"byteLength": 10020,
			"byteOffset": 35952,
			"target": 34963
		},
		{
			"buffer": 0,
			"byteLength": 25116,
			"byteOffset": 45972,
			"target": 34962
		},
		{
			"buffer": 0,
			"byteLength": 25116,
			"byteOffset": 71088,
			"target": 34962
		},
		{
			"buffer": 0,
			"byteLength": 33488,
			"byteOffset": 96204,
			"target": 34962
		},
		{
			"buffer": 0,
			"byteLength": 16744,
			"byteOffset": 129692,
			"target": 34962
		},
		{
			"buffer": 0,
			"byteLength": 16744,
			"byteOffset": 146436,
			"target": 34962
		},
		{
			"buffer": 0,
			"byteLength": 60,
			"byteOffset": 163180,
			"target": 34963
		},
		{
			"buffer": 0,
			"byteLength": 444,
			"byteOffset": 163240,
			"target": 34962
		},
		{
			"buffer": 0,
			"byteLength": 444,
			"byteOffset": 163684,
			"target": 34962
		},
		{
			"buffer": 0,
			"byteLength": 592,
			"byteOffset": 164128,
			"target": 34962
		},
		{
			"buffer": 0,
			"byteLength": 296,
			"byteOffset": 164720,
			"target": 34962
		},
		{
			"buffer": 0,
			"byteLength": 296,
			"byteOffset": 165016,
			"target": 34962
		},
		{
			"buffer": 0,
			"byteLength": 9936,
			"byteOffset": 165312,
			"target": 34963
		},
		{
			"buffer": 0,
			"byteLength": 33264,
			"byteOffset": 175248,
			"target": 34962
		},
		{
			"buffer": 0,
			"byteLength": 33264,
			"byteOffset": 208512,
			"target": 34962
		},
		{
			"buffer": 0,
			"byteLength": 44352,
			"byteOffset": 241776,
			"target": 34962
		},
		{
			"buffer": 0,
			"byteLength": 22176,
			"byteOffset": 286128,
			"target": 34962
		},
		{
			"buffer": 0,
			"byteLength": 22176,
			"byteOffset": 308304,
			"target": 34962
		}
	],
	"images": [
		{
			"uri": "MI_Brick_02_BaseColor.png"
		},
		{
			"uri": "MI_Brick_02_MetallicRoughness.png"
		},
		{
			"uri": "MI_Brick_02_Normal.png"
		},
		{
			"uri": "MI_Brick_02_Occlusion.png"
		},
		{
			"uri": "MI_Glass_Normal.png"
		},
		{
			"uri": "MI_Styl_Wall_Brick_02_SM_Big_Tower_03_side_01_BaseColor.png"
		},
		{
			"uri": "MI_Styl_Wall_Brick_02_SM_Big_Tower_03_side_01_MetallicRoughness.png"
		},
		{
			"uri": "MI_Styl_Wall_Brick_02_SM_Big_Tower_03_side_01_Normal.png"
		},
		{
			"uri": "MI_Styl_Wall_Brick_02_SM_Big_Tower_03_side_01_Occlusion.png"
		},
		{
			"uri": "MI_Roof_01_BaseColor.png"
		},
		{
			"uri": "MI_Styl_Wood_Planks_BaseColor.png"
		},
		{
			"uri": "MI_Styl_Wood_Planks_MetallicRoughness.png"
		},
		{
			"uri": "MI_Styl_Wood_Planks_Occlusion.png"
		},
		{
			"uri": "T_roof_texture_lambert1_OcclusionRoughnessMetallic.png"
		},
		{
			"uri": "T_roof_texture_lambert1_Normal.png"
		}
	],
	"materials": [
		{
			"name": "MI_Brick_02",
			"pbrMetallicRoughness":
			{
				"baseColorTexture":
				{
					"index": 0
				},
				"metallicRoughnessTexture":
				{
					"index": 1
				}
			},
			"normalTexture":
			{
				"index": 2
			},
			"occlusionTexture":
			{
				"index": 3
			}
		},
		{
			"name": "MI_Glass",
			"pbrMetallicRoughness":
			{
				"baseColorFactor": [ 0.0378840007, 0.0417999998, 0.0520830005, 1 ],
				"metallicFactor": 0,
				"roughnessFactor": 0.100000001
			},
			"normalTexture":
			{
				"index": 4
			},
			"doubleSided": true
		},
		{
			"name": "MI_Styl_Wall_Brick_02_SM_Big_Tower_03_side_01",
			"pbrMetallicRoughness":
			{
				"baseColorTexture":
				{
					"index": 5,
					"texCoord": 1,
					"extensions":
					{
						"KHR_texture_transform":
						{
							"offset": [ -0.00853068288, -0.0104167694 ],
							"scale": [ 1.06084788, 1.29171884 ]
						}
					}
				},
				"metallicRoughnessTexture":
				{
					"index": 6,
					"texCoord": 1,
					"extensions":
					{
						"KHR_texture_transform":
						{
							"offset": [ -0.00853068288, -0.0104167694 ],
							"scale": [ 1.06084788, 1.29171884 ]
						}
					}
				}
			},
			"normalTexture":
			{
				"index": 7,
				"texCoord": 1,
				"extensions":
				{
					"KHR_texture_transform":
					{
						"offset": [ -0.00853068288, -0.0104167694 ],
						"scale": [ 1.06084788, 1.29171884 ]
					}
				}
			},
			"occlusionTexture":
			{
				"index": 8,
				"texCoord": 1,
				"extensions":
				{
					"KHR_texture_transform":
					{
						"offset": [ -0.00853068288, -0.0104167694 ],
						"scale": [ 1.06084788, 1.29171884 ]
					}
				}
			}
		},
		{
			"name": "MI_Roof_01",
			"pbrMetallicRoughness":
			{
				"baseColorTexture":
				{
					"index": 9
				},
				"metallicRoughnessTexture":
				{
					"index": 10
				}
			},
			"normalTexture":
			{
				"index": 11
			},
			"occlusionTexture":
			{
				"index": 10
			}
		},
		{
			"name": "MI_Styl_Wood_Planks",
			"pbrMetallicRoughness":
			{
				"baseColorTexture":
				{
					"index": 12
				},
				"metallicRoughnessTexture":
				{
					"index": 13
				}
			},
			"occlusionTexture":
			{
				"index": 14
			}
		}
	],
	"meshes": [
		{
			"name": "SM_Big_Tower_03_side_01",
			"primitives": [
				{
					"attributes":
					{
						"POSITION": 1,
						"NORMAL": 2,
						"TANGENT": 3,
						"TEXCOORD_0": 4,
						"TEXCOORD_1": 5
					},
					"indices": 0,
					"material": 0
				},
				{
					"attributes":
					{
						"POSITION": 7,
						"NORMAL": 8,
						"TANGENT": 9,
						"TEXCOORD_0": 10,
						"TEXCOORD_1": 11
					},
					"indices": 6,
					"material": 1
				},
				{
					"attributes":
					{
						"POSITION": 13,
						"NORMAL": 14,
						"TANGENT": 15,
						"TEXCOORD_0": 16,
						"TEXCOORD_1": 17
					},
					"indices": 12,
					"material": 2
				},
				{
					"attributes":
					{
						"POSITION": 19,
						"NORMAL": 20,
						"TANGENT": 21,
						"TEXCOORD_0": 22,
						"TEXCOORD_1": 23
					},
					"indices": 18,
					"material": 3
				},
				{
					"attributes":
					{
						"POSITION": 25,
						"NORMAL": 26,
						"TANGENT": 27,
						"TEXCOORD_0": 28,
						"TEXCOORD_1": 29
					},
					"indices": 24,
					"material": 4
				},
				{
					"attributes":
					{
						"POSITION": 31,
						"NORMAL": 32,
						"TANGENT": 33,
						"TEXCOORD_0": 34,
						"TEXCOORD_1": 35
					},
					"indices": 30,
					"material": 3
				}
			]
		}
	],
	"nodes": [
		{
			"mesh": 0
		}
	],
	"samplers": [
		{
			"minFilter": 9987,
			"magFilter": 9729
		}
	],
	"scenes": [
		{
			"nodes": [ 0 ]
		}
	],
	"textures": [
		{
			"name": "MI_Brick_02_BaseColor",
			"sampler": 0,
			"source": 0
		},
		{
			"name": "MI_Brick_02_MetallicRoughness",
			"sampler": 0,
			"source": 1
		},
		{
			"name": "MI_Brick_02_Normal",
			"sampler": 0,
			"source": 2
		},
		{
			"name": "MI_Brick_02_Occlusion",
			"sampler": 0,
			"source": 3
		},
		{
			"name": "MI_Glass_Normal",
			"sampler": 0,
			"source": 4
		},
		{
			"name": "MI_Styl_Wall_Brick_02_SM_Big_Tower_03_side_01_BaseColor",
			"sampler": 0,
			"source": 5
		},
		{
			"name": "MI_Styl_Wall_Brick_02_SM_Big_Tower_03_side_01_MetallicRoughness",
			"sampler": 0,
			"source": 6
		},
		{
			"name": "MI_Styl_Wall_Brick_02_SM_Big_Tower_03_side_01_Normal",
			"sampler": 0,
			"source": 7
		},
		{
			"name": "MI_Styl_Wall_Brick_02_SM_Big_Tower_03_side_01_Occlusion",
			"sampler": 0,
			"source": 8
		},
		{
			"name": "MI_Roof_01_BaseColor",
			"sampler": 0,
			"source": 9
		},
		{
			"name": "T_roof_texture_lambert1_OcclusionRoughnessMetallic",
			"sampler": 0,
			"source": 13
		},
		{
			"name": "T_roof_texture_lambert1_Normal",
			"sampler": 0,
			"source": 14
		},
		{
			"name": "MI_Styl_Wood_Planks_BaseColor",
			"sampler": 0,
			"source": 10
		},
		{
			"name": "MI_Styl_Wood_Planks_MetallicRoughness",
			"sampler": 0,
			"source": 11
		},
		{
			"name": "MI_Styl_Wood_Planks_Occlusion",
			"sampler": 0,
			"source": 12
		}
	],
	"extensionsUsed": [
		"KHR_texture_transform"
	]
}