{
	"asset":
	{
		"version": "2.0",
		"generator": "Unreal Engine 5.6.1"
	},
	"scene": 0,
	"accessors": [
		{
			"bufferView": 0,
			"count": 12792,
			"type": "SCALAR",
			"componentType": 5123
		},
		{
			"bufferView": 1,
			"count": 3870,
			"type": "VEC3",
			"componentType": 5126,
			"min": [ -0.711034656, 0.424302995, -0.400498241 ],
			"max": [ 0.676072359, 0.535748482, 0.378653944 ]
		},
		{
			"bufferView": 2,
			"count": 3870,
			"type": "VEC3",
			"componentType": 5126
		},
		{
			"bufferView": 3,
			"count": 3870,
			"type": "VEC4",
			"componentType": 5126
		},
		{
			"bufferView": 4,
			"count": 3870,
			"type": "VEC2",
			"componentType": 5126
		},
		{
			"bufferView": 5,
			"count": 3870,
			"type": "VEC2",
			"componentType": 5126
		},
		{
			"bufferView": 6,
			"count": 6,
			"type": "SCALAR",
			"componentType": 5121
		},
		{
			"bufferView": 7,
			"count": 4,
			"type": "VEC3",
			"componentType": 5126,
			"min": [ -0.663194537, 0.466823161, -0.37266022 ],
			"max": [ 0.660598755, 0.466823161, 0.389410615 ]
		},
		{
			"bufferView": 8,
			"count": 4,
			"type": "VEC3",
			"componentType": 5126
		},
		{
			"bufferView": 9,
			"count": 4,
			"type": "VEC4",
			"componentType": 5126
		},
		{
			"bufferView": 10,
			"count": 4,
			"type": "VEC2",
			"componentType": 5126
		},
		{
			"bufferView": 11,
			"count": 4,
			"type": "VEC2",
			"componentType": 5126
		},
		{
			"bufferView": 12,
			"count": 3624,
			"type": "SCALAR",
			"componentType": 5123
		},
		{
			"bufferView": 13,
			"count": 1288,
			"type": "VEC3",
			"componentType": 5126,
			"min": [ -0.735397756, -0.0143932449, -0.462908208 ],
			"max": [ 0.735397756, 0.540625989, 0.440606475 ]
		},
		{
			"bufferView": 14,
			"count": 1288,
			"type": "VEC3",
			"componentType": 5126
		},
		{
			"bufferView": 15,
			"count": 1288,
			"type": "VEC4",
			"componentType": 5126
		},
		{
			"bufferView": 16,
			"count": 1288,
			"type": "VEC2",
			"componentType": 5126
		},
		{
			"bufferView": 17,
			"count": 1288,
			"type": "VEC2",
			"componentType": 5126
		}
	],
	"buffers": [
		{
			"uri": "SM_box_04.bin",
			"byteLength": 321912
		}
	],
	"bufferViews": [
		{
			"buffer": 0,
			"byteLength": 25584,
			"target": 34963
		},
		{
			"buffer": 0,
			"byteLength": 46440,
			"byteOffset": 25584,
			"target": 34962
		},
		{
			"buffer": 0,
			"byteLength": 46440,
			"byteOffset": 72024,
			"target": 34962
		},
		{
			"buffer": 0,
			"byteLength": 61920,
			"byteOffset": 118464,
			"target": 34962
		},
		{
			"buffer": 0,
			"byteLength": 30960,
			"byteOffset": 180384,
			"target": 34962
		},
		{
			"buffer": 0,
			"byteLength": 30960,
			"byteOffset": 211344,
			"target": 34962
		},
		{
			"buffer": 0,
			"byteLength": 6,
			"byteOffset": 242304,
			"target": 34963
		},
		{
			"buffer": 0,
			"byteLength": 48,
			"byteOffset": 242312,
			"target": 34962
		},
		{
			"buffer": 0,
			"byteLength": 48,
			"byteOffset": 242360,
			"target": 34962
		},
		{
			"buffer": 0,
			"byteLength": 64,
			"byteOffset": 242408,
			"target": 34962
		},
		{
			"buffer": 0,
			"byteLength": 32,
			"byteOffset": 242472,
			"target": 34962
		},
		{
			"buffer": 0,
			"byteLength": 32,
			"byteOffset": 242504,
			"target": 34962
		},
		{
			"buffer": 0,
			"byteLength": 7248,
			"byteOffset": 242536,
			"target": 34963
		},
		{
			"buffer": 0,
			"byteLength": 15456,
			"byteOffset": 249784,
			"target": 34962
		},
		{
			"buffer": 0,
			"byteLength": 15456,
			"byteOffset": 265240,
			"target": 34962
		},
		{
			"buffer": 0,
			"byteLength": 20608,
			"byteOffset": 280696,
			"target": 34962
		},
		{
			"buffer": 0,
			"byteLength": 10304,
			"byteOffset": 301304,
			"target": 34962
		},
		{
			"buffer": 0,
			"byteLength": 10304,
			"byteOffset": 311608,
			"target": 34962
		}
	],
	"images": [
		{
			"uri": "MI_Fish_MetallicRoughness.png"
		},
		{
			"uri": "MI_Fish_Tiling_BaseColor.png"
		},
		{
			"uri": "MI_Fish_Tiling_MetallicRoughness.png"
		},
		{
			"uri": "MI_Fish_Tiling_Normal.png"
		},
		{
			"uri": "MI_Fish_Tiling_Occlusion.png"
		},
		{
			"uri": "MI_Furniture_01_MetallicRoughness.png"
		},
		{
			"uri": "T_Fish_C.png"
		},
		{
			"uri": "T_Fish_N.png"
		},
		{
			"uri": "T_Fish_M.png"
		},
		{
			"uri": "T_Furniture_01_C.png"
		},
		{
			"uri": "T_Furniture_01_N.png"
		},
		{
			"uri": "T_Furniture_01_M.png"
		}
	],
	"materials": [
		{
			"name": "MI_Fish",
			"pbrMetallicRoughness":
			{
				"baseColorTexture":
				{
					"index": 0
				},
				"metallicRoughnessTexture":
				{
					"index": 1
				}
			},
			"normalTexture":
			{
				"index": 2
			},
			"occlusionTexture":
			{
				"index": 3
			}
		},
		{
			"name": "MI_Fish_Tiling",
			"pbrMetallicRoughness":
			{
				"baseColorTexture":
				{
					"index": 4
				},
				"metallicRoughnessTexture":
				{
					"index": 5
				}
			},
			"normalTexture":
			{
				"index": 6
			},
			"occlusionTexture":
			{
				"index": 7
			}
		},
		{
			"name": "MI_Furniture_01",
			"pbrMetallicRoughness":
			{
				"baseColorTexture":
				{
					"index": 8
				},
				"metallicRoughnessTexture":
				{
					"index": 9
				}
			},
			"normalTexture":
			{
				"index": 10
			},
			"occlusionTexture":
			{
				"index": 11
			}
		}
	],
	"meshes": [
		{
			"name": "SM_box_04",
			"primitives": [
				{
					"attributes":
					{
						"POSITION": 1,
						"NORMAL": 2,
						"TANGENT": 3,
						"TEXCOORD_0": 4,
						"TEXCOORD_1": 5
					},
					"indices": 0,
					"material": 0
				},
				{
					"attributes":
					{
						"POSITION": 7,
						"NORMAL": 8,
						"TANGENT": 9,
						"TEXCOORD_0": 10,
						"TEXCOORD_1": 11
					},
					"indices": 6,
					"material": 1
				},
				{
					"attributes":
					{
						"POSITION": 13,
						"NORMAL": 14,
						"TANGENT": 15,
						"TEXCOORD_0": 16,
						"TEXCOORD_1": 17
					},
					"indices": 12,
					"material": 2
				}
			]
		}
	],
	"nodes": [
		{
			"mesh": 0
		}
	],
	"samplers": [
		{
			"minFilter": 9987,
			"magFilter": 9729
		}
	],
	"scenes": [
		{
			"nodes": [ 0 ]
		}
	],
	"textures": [
		{
			"name": "T_Fish_C",
			"sampler": 0,
			"source": 6
		},
		{
			"name": "MI_Fish_MetallicRoughness",
			"sampler": 0,
			"source": 0
		},
		{
			"name": "T_Fish_N",
			"sampler": 0,
			"source": 7
		},
		{
			"name": "T_Fish_M",
			"sampler": 0,
			"source": 8
		},
		{
			"name": "MI_Fish_Tiling_BaseColor",
			"sampler": 0,
			"source": 1
		},
		{
			"name": "MI_Fish_Tiling_MetallicRoughness",
			"sampler": 0,
			"source": 2
		},
		{
			"name": "MI_Fish_Tiling_Normal",
			"sampler": 0,
			"source": 3
		},
		{
			"name": "MI_Fish_Tiling_Occlusion",
			"sampler": 0,
			"source": 4
		},
		{
			"name": "T_Furniture_01_C",
			"sampler": 0,
			"source": 9
		},
		{
			"name": "MI_Furniture_01_MetallicRoughness",
			"sampler": 0,
			"source": 5
		},
		{
			"name": "T_Furniture_01_N",
			"sampler": 0,
			"source": 10
		},
		{
			"name": "T_Furniture_01_M",
			"sampler": 0,
			"source": 11
		}
	]
}