{
	"asset":
	{
		"version": "2.0",
		"generator": "Unreal Engine 5.6.1"
	},
	"scene": 0,
	"accessors": [
		{
			"bufferView": 0,
			"count": 645,
			"type": "SCALAR",
			"componentType": 5121
		},
		{
			"bufferView": 1,
			"count": 227,
			"type": "VEC3",
			"componentType": 5126,
			"min": [ -12.5282183, -0.00190103287, -12.5370092 ],
			"max": [ 12.5619946, 1.00168192, 12.5378704 ]
		},
		{
			"bufferView": 2,
			"count": 227,
			"type": "VEC3",
			"componentType": 5126
		},
		{
			"bufferView": 3,
			"count": 227,
			"type": "VEC4",
			"componentType": 5126
		},
		{
			"bufferView": 4,
			"count": 227,
			"type": "VEC2",
			"componentType": 5126
		},
		{
			"bufferView": 5,
			"count": 227,
			"type": "VEC2",
			"componentType": 5126
		},
		{
			"bufferView": 6,
			"count": 720,
			"type": "SCALAR",
			"componentType": 5123
		},
		{
			"bufferView": 7,
			"count": 260,
			"type": "VEC3",
			"componentType": 5126,
			"min": [ -9.24816418, -0.0166259874, -9.24262142 ],
			"max": [ 9.24720955, 1.01636469, 9.24261665 ]
		},
		{
			"bufferView": 8,
			"count": 260,
			"type": "VEC3",
			"componentType": 5126
		},
		{
			"bufferView": 9,
			"count": 260,
			"type": "VEC4",
			"componentType": 5126
		},
		{
			"bufferView": 10,
			"count": 260,
			"type": "VEC2",
			"componentType": 5126
		},
		{
			"bufferView": 11,
			"count": 260,
			"type": "VEC2",
			"componentType": 5126
		},
		{
			"bufferView": 12,
			"count": 249,
			"type": "SCALAR",
			"componentType": 5121
		},
		{
			"bufferView": 13,
			"count": 91,
			"type": "VEC3",
			"componentType": 5126,
			"min": [ -8.65083027, -8.08670084e-05, -8.6475811 ],
			"max": [ 8.61453438, 1.00008333, 8.63926983 ]
		},
		{
			"bufferView": 14,
			"count": 91,
			"type": "VEC3",
			"componentType": 5126
		},
		{
			"bufferView": 15,
			"count": 91,
			"type": "VEC4",
			"componentType": 5126
		},
		{
			"bufferView": 16,
			"count": 91,
			"type": "VEC2",
			"componentType": 5126
		},
		{
			"bufferView": 17,
			"count": 91,
			"type": "VEC2",
			"componentType": 5126
		}
	],
	"buffers": [
		{
			"uri": "SM_Big_Tower_03_floor_02.bin",
			"byteLength": 34708
		}
	],
	"bufferViews": [
		{
			"buffer": 0,
			"byteLength": 645,
			"target": 34963
		},
		{
			"buffer": 0,
			"byteLength": 2724,
			"byteOffset": 648,
			"target": 34962
		},
		{
			"buffer": 0,
			"byteLength": 2724,
			"byteOffset": 3372,
			"target": 34962
		},
		{
			"buffer": 0,
			"byteLength": 3632,
			"byteOffset": 6096,
			"target": 34962
		},
		{
			"buffer": 0,
			"byteLength": 1816,
			"byteOffset": 9728,
			"target": 34962
		},
		{
			"buffer": 0,
			"byteLength": 1816,
			"byteOffset": 11544,
			"target": 34962
		},
		{
			"buffer": 0,
			"byteLength": 1440,
			"byteOffset": 13360,
			"target": 34963
		},
		{
			"buffer": 0,
			"byteLength": 3120,
			"byteOffset": 14800,
			"target": 34962
		},
		{
			"buffer": 0,
			"byteLength": 3120,
			"byteOffset": 17920,
			"target": 34962
		},
		{
			"buffer": 0,
			"byteLength": 4160,
			"byteOffset": 21040,
			"target": 34962
		},
		{
			"buffer": 0,
			"byteLength": 2080,
			"byteOffset": 25200,
			"target": 34962
		},
		{
			"buffer": 0,
			"byteLength": 2080,
			"byteOffset": 27280,
			"target": 34962
		},
		{
			"buffer": 0,
			"byteLength": 249,
			"byteOffset": 29360,
			"target": 34963
		},
		{
			"buffer": 0,
			"byteLength": 1092,
			"byteOffset": 29612,
			"target": 34962
		},
		{
			"buffer": 0,
			"byteLength": 1092,
			"byteOffset": 30704,
			"target": 34962
		},
		{
			"buffer": 0,
			"byteLength": 1456,
			"byteOffset": 31796,
			"target": 34962
		},
		{
			"buffer": 0,
			"byteLength": 728,
			"byteOffset": 33252,
			"target": 34962
		},
		{
			"buffer": 0,
			"byteLength": 728,
			"byteOffset": 33980,
			"target": 34962
		}
	],
	"images": [
		{
			"uri": "MI_Floor_04_BaseColor.png"
		},
		{
			"uri": "MI_Floor_04_MetallicRoughness.png"
		},
		{
			"uri": "MI_Floor_04_Normal.png"
		},
		{
			"uri": "MI_Floor_04_Occlusion.png"
		},
		{
			"uri": "MI_Brick_02_BaseColor.png"
		},
		{
			"uri": "MI_Brick_02_MetallicRoughness.png"
		},
		{
			"uri": "MI_Brick_02_Normal.png"
		},
		{
			"uri": "MI_Brick_02_Occlusion.png"
		},
		{
			"uri": "MI_Styl_Wall_Brick_02_SM_Big_Tower_03_floor_02_BaseColor.png"
		},
		{
			"uri": "MI_Styl_Wall_Brick_02_SM_Big_Tower_03_floor_02_MetallicRoughness.png"
		},
		{
			"uri": "MI_Styl_Wall_Brick_02_SM_Big_Tower_03_floor_02_Normal.png"
		},
		{
			"uri": "MI_Styl_Wall_Brick_02_SM_Big_Tower_03_floor_02_Occlusion.png"
		}
	],
	"materials": [
		{
			"name": "MI_Floor_04",
			"pbrMetallicRoughness":
			{
				"baseColorTexture":
				{
					"index": 0
				},
				"metallicRoughnessTexture":
				{
					"index": 1
				}
			},
			"normalTexture":
			{
				"index": 2
			},
			"occlusionTexture":
			{
				"index": 3
			}
		},
		{
			"name": "MI_Brick_02",
			"pbrMetallicRoughness":
			{
				"baseColorTexture":
				{
					"index": 4
				},
				"metallicRoughnessTexture":
				{
					"index": 5
				}
			},
			"normalTexture":
			{
				"index": 6
			},
			"occlusionTexture":
			{
				"index": 7
			}
		},
		{
			"name": "MI_Styl_Wall_Brick_02_SM_Big_Tower_03_floor_02",
			"pbrMetallicRoughness":
			{
				"baseColorTexture":
				{
					"index": 8,
					"texCoord": 1,
					"extensions":
					{
						"KHR_texture_transform":
						{
							"offset": [ -0.936268806, -0.0142876487 ],
							"scale": [ 2.37311697, 1.86804056 ]
						}
					}
				},
				"metallicRoughnessTexture":
				{
					"index": 9,
					"texCoord": 1,
					"extensions":
					{
						"KHR_texture_transform":
						{
							"offset": [ -0.936268806, -0.0142876487 ],
							"scale": [ 2.37311697, 1.86804056 ]
						}
					}
				}
			},
			"normalTexture":
			{
				"index": 10,
				"texCoord": 1,
				"extensions":
				{
					"KHR_texture_transform":
					{
						"offset": [ -0.936268806, -0.0142876487 ],
						"scale": [ 2.37311697, 1.86804056 ]
					}
				}
			},
			"occlusionTexture":
			{
				"index": 11,
				"texCoord": 1,
				"extensions":
				{
					"KHR_texture_transform":
					{
						"offset": [ -0.936268806, -0.0142876487 ],
						"scale": [ 2.37311697, 1.86804056 ]
					}
				}
			}
		}
	],
	"meshes": [
		{
			"name": "SM_Big_Tower_03_floor_02",
			"primitives": [
				{
					"attributes":
					{
						"POSITION": 1,
						"NORMAL": 2,
						"TANGENT": 3,
						"TEXCOORD_0": 4,
						"TEXCOORD_1": 5
					},
					"indices": 0,
					"material": 0
				},
				{
					"attributes":
					{
						"POSITION": 7,
						"NORMAL": 8,
						"TANGENT": 9,
						"TEXCOORD_0": 10,
						"TEXCOORD_1": 11
					},
					"indices": 6,
					"material": 1
				},
				{
					"attributes":
					{
						"POSITION": 13,
						"NORMAL": 14,
						"TANGENT": 15,
						"TEXCOORD_0": 16,
						"TEXCOORD_1": 17
					},
					"indices": 12,
					"material": 2
				}
			]
		}
	],
	"nodes": [
		{
			"mesh": 0
		}
	],
	"samplers": [
		{
			"minFilter": 9987,
			"magFilter": 9729
		}
	],
	"scenes": [
		{
			"nodes": [ 0 ]
		}
	],
	"textures": [
		{
			"name": "MI_Floor_04_BaseColor",
			"sampler": 0,
			"source": 0
		},
		{
			"name": "MI_Floor_04_MetallicRoughness",
			"sampler": 0,
			"source": 1
		},
		{
			"name": "MI_Floor_04_Normal",
			"sampler": 0,
			"source": 2
		},
		{
			"name": "MI_Floor_04_Occlusion",
			"sampler": 0,
			"source": 3
		},
		{
			"name": "MI_Brick_02_BaseColor",
			"sampler": 0,
			"source": 4
		},
		{
			"name": "MI_Brick_02_MetallicRoughness",
			"sampler": 0,
			"source": 5
		},
		{
			"name": "MI_Brick_02_Normal",
			"sampler": 0,
			"source": 6
		},
		{
			"name": "MI_Brick_02_Occlusion",
			"sampler": 0,
			"source": 7
		},
		{
			"name": "MI_Styl_Wall_Brick_02_SM_Big_Tower_03_floor_02_BaseColor",
			"sampler": 0,
			"source": 8
		},
		{
			"name": "MI_Styl_Wall_Brick_02_SM_Big_Tower_03_floor_02_MetallicRoughness",
			"sampler": 0,
			"source": 9
		},
		{
			"name": "MI_Styl_Wall_Brick_02_SM_Big_Tower_03_floor_02_Normal",
			"sampler": 0,
			"source": 10
		},
		{
			"name": "MI_Styl_Wall_Brick_02_SM_Big_Tower_03_floor_02_Occlusion",
			"sampler": 0,
			"source": 11
		}
	],
	"extensionsUsed": [
		"KHR_texture_transform"
	]
}