{
	"asset":
	{
		"version": "2.0",
		"generator": "Unreal Engine 5.6.1"
	},
	"scene": 0,
	"accessors": [
		{
			"bufferView": 0,
			"count": 2076,
			"type": "SCALAR",
			"componentType": 5123
		},
		{
			"bufferView": 1,
			"count": 415,
			"type": "VEC3",
			"componentType": 5126,
			"min": [ -0.0881310478, -0.00472134585, -0.0946400017 ],
			"max": [ 0.0881310031, 0.363990545, 0.0946400017 ]
		},
		{
			"bufferView": 2,
			"count": 415,
			"type": "VEC3",
			"componentType": 5126
		},
		{
			"bufferView": 3,
			"count": 415,
			"type": "VEC4",
			"componentType": 5126
		},
		{
			"bufferView": 4,
			"count": 415,
			"type": "VEC2",
			"componentType": 5126
		},
		{
			"bufferView": 5,
			"count": 415,
			"type": "VEC2",
			"componentType": 5126
		},
		{
			"bufferView": 6,
			"count": 12,
			"type": "SCALAR",
			"componentType": 5121
		},
		{
			"bufferView": 7,
			"count": 8,
			"type": "VEC3",
			"componentType": 5126,
			"min": [ -0.0176549032, 0.361314714, -0.0171666015 ],
			"max": [ 0.028821921, 0.430209309, 0.0293102227 ]
		},
		{
			"bufferView": 8,
			"count": 8,
			"type": "VEC3",
			"componentType": 5126
		},
		{
			"bufferView": 9,
			"count": 8,
			"type": "VEC4",
			"componentType": 5126
		},
		{
			"bufferView": 10,
			"count": 8,
			"type": "VEC2",
			"componentType": 5126
		},
		{
			"bufferView": 11,
			"count": 8,
			"type": "VEC2",
			"componentType": 5126
		}
	],
	"buffers": [
		{
			"uri": "SM_candle_01.bin",
			"byteLength": 27852
		}
	],
	"bufferViews": [
		{
			"buffer": 0,
			"byteLength": 4152,
			"target": 34963
		},
		{
			"buffer": 0,
			"byteLength": 4980,
			"byteOffset": 4152,
			"target": 34962
		},
		{
			"buffer": 0,
			"byteLength": 4980,
			"byteOffset": 9132,
			"target": 34962
		},
		{
			"buffer": 0,
			"byteLength": 6640,
			"byteOffset": 14112,
			"target": 34962
		},
		{
			"buffer": 0,
			"byteLength": 3320,
			"byteOffset": 20752,
			"target": 34962
		},
		{
			"buffer": 0,
			"byteLength": 3320,
			"byteOffset": 24072,
			"target": 34962
		},
		{
			"buffer": 0,
			"byteLength": 12,
			"byteOffset": 27392,
			"target": 34963
		},
		{
			"buffer": 0,
			"byteLength": 96,
			"byteOffset": 27404,
			"target": 34962
		},
		{
			"buffer": 0,
			"byteLength": 96,
			"byteOffset": 27500,
			"target": 34962
		},
		{
			"buffer": 0,
			"byteLength": 128,
			"byteOffset": 27596,
			"target": 34962
		},
		{
			"buffer": 0,
			"byteLength": 64,
			"byteOffset": 27724,
			"target": 34962
		},
		{
			"buffer": 0,
			"byteLength": 64,
			"byteOffset": 27788,
			"target": 34962
		}
	],
	"images": [
		{
			"uri": "MI_Candle_MetallicRoughness.png"
		},
		{
			"uri": "T_candle_C.png"
		},
		{
			"uri": "T_candle_N.png"
		},
		{
			"uri": "T_candle_M.png"
		}
	],
	"materials": [
		{
			"name": "MI_Candle",
			"pbrMetallicRoughness":
			{
				"baseColorTexture":
				{
					"index": 0
				},
				"metallicRoughnessTexture":
				{
					"index": 1
				}
			},
			"normalTexture":
			{
				"index": 2
			},
			"occlusionTexture":
			{
				"index": 3
			},
			"alphaMode": "MASK",
			"alphaCutoff": 0.333299994
		},
		{
			"name": "MI_Candle_light",
			"pbrMetallicRoughness":
			{
				"baseColorFactor": [ 0, 0, 0, 0.690196097 ],
				"metallicFactor": 0,
				"roughnessFactor": 0.5
			},
			"emissiveFactor": [ 1, 0.764705956, 0.313725501 ],
			"alphaMode": "BLEND",
			"doubleSided": true,
			"extensions":
			{
				"KHR_materials_ior":
				{
					"ior": 1
				}
			}
		}
	],
	"meshes": [
		{
			"name": "SM_candle_01",
			"primitives": [
				{
					"attributes":
					{
						"POSITION": 1,
						"NORMAL": 2,
						"TANGENT": 3,
						"TEXCOORD_0": 4,
						"TEXCOORD_1": 5
					},
					"indices": 0,
					"material": 0
				},
				{
					"attributes":
					{
						"POSITION": 7,
						"NORMAL": 8,
						"TANGENT": 9,
						"TEXCOORD_0": 10,
						"TEXCOORD_1": 11
					},
					"indices": 6,
					"material": 1
				}
			]
		}
	],
	"nodes": [
		{
			"mesh": 0
		}
	],
	"samplers": [
		{
			"minFilter": 9987,
			"magFilter": 9729
		}
	],
	"scenes": [
		{
			"nodes": [ 0 ]
		}
	],
	"textures": [
		{
			"name": "T_candle_C",
			"sampler": 0,
			"source": 1
		},
		{
			"name": "MI_Candle_MetallicRoughness",
			"sampler": 0,
			"source": 0
		},
		{
			"name": "T_candle_N",
			"sampler": 0,
			"source": 2
		},
		{
			"name": "T_candle_M",
			"sampler": 0,
			"source": 3
		}
	],
	"extensionsUsed": [
		"KHR_materials_ior"
	]
}