{
	"asset":
	{
		"version": "2.0",
		"generator": "Unreal Engine 5.6.1"
	},
	"scene": 0,
	"accessors": [
		{
			"bufferView": 0,
			"count": 282,
			"type": "SCALAR",
			"componentType": 5121
		},
		{
			"bufferView": 1,
			"count": 77,
			"type": "VEC3",
			"componentType": 5126,
			"min": [ -0.348886788, -1.04041636, -0.348884255 ],
			"max": [ 0.348886937, -1.65757427e-07, 0.348884255 ]
		},
		{
			"bufferView": 2,
			"count": 77,
			"type": "VEC3",
			"componentType": 5126
		},
		{
			"bufferView": 3,
			"count": 77,
			"type": "VEC4",
			"componentType": 5126
		},
		{
			"bufferView": 4,
			"count": 77,
			"type": "VEC2",
			"componentType": 5126
		},
		{
			"bufferView": 5,
			"count": 77,
			"type": "VEC2",
			"componentType": 5126
		}
	],
	"buffers": [
		{
			"uri": "SM_column_01_part_11_1005DA61.bin",
			"byteLength": 4596
		}
	],
	"bufferViews": [
		{
			"buffer": 0,
			"byteLength": 282,
			"target": 34963
		},
		{
			"buffer": 0,
			"byteLength": 924,
			"byteOffset": 284,
			"target": 34962
		},
		{
			"buffer": 0,
			"byteLength": 924,
			"byteOffset": 1208,
			"target": 34962
		},
		{
			"buffer": 0,
			"byteLength": 1232,
			"byteOffset": 2132,
			"target": 34962
		},
		{
			"buffer": 0,
			"byteLength": 616,
			"byteOffset": 3364,
			"target": 34962
		},
		{
			"buffer": 0,
			"byteLength": 616,
			"byteOffset": 3980,
			"target": 34962
		}
	],
	"images": [
		{
			"uri": "MI_Column_01_MetallicRoughness.png"
		},
		{
			"uri": "T_column01_C.png"
		},
		{
			"uri": "T_column01_N.png"
		},
		{
			"uri": "T_column01_M.png"
		}
	],
	"materials": [
		{
			"name": "MI_Column_01",
			"pbrMetallicRoughness":
			{
				"baseColorTexture":
				{
					"index": 0
				},
				"metallicRoughnessTexture":
				{
					"index": 1
				}
			},
			"normalTexture":
			{
				"index": 2
			},
			"occlusionTexture":
			{
				"index": 3
			},
			"doubleSided": true
		}
	],
	"meshes": [
		{
			"name": "SM_column_01_part_11",
			"primitives": [
				{
					"attributes":
					{
						"POSITION": 1,
						"NORMAL": 2,
						"TANGENT": 3,
						"TEXCOORD_0": 4,
						"TEXCOORD_1": 5
					},
					"indices": 0,
					"material": 0
				}
			]
		}
	],
	"nodes": [
		{
			"mesh": 0
		}
	],
	"samplers": [
		{
			"minFilter": 9987,
			"magFilter": 9729
		}
	],
	"scenes": [
		{
			"nodes": [ 0 ]
		}
	],
	"textures": [
		{
			"name": "T_column01_C",
			"sampler": 0,
			"source": 1
		},
		{
			"name": "MI_Column_01_MetallicRoughness",
			"sampler": 0,
			"source": 0
		},
		{
			"name": "T_column01_N",
			"sampler": 0,
			"source": 2
		},
		{
			"name": "T_column01_M",
			"sampler": 0,
			"source": 3
		}
	]
}