{
	"asset":
	{
		"version": "2.0",
		"generator": "Unreal Engine 5.6.1"
	},
	"scene": 0,
	"accessors": [
		{
			"bufferView": 0,
			"count": 3462,
			"type": "SCALAR",
			"componentType": 5123
		},
		{
			"bufferView": 1,
			"count": 926,
			"type": "VEC3",
			"componentType": 5126,
			"min": [ -0.623131871, 0, -0.614802361 ],
			"max": [ 0.623131871, 6.87362766, 0.614802361 ]
		},
		{
			"bufferView": 2,
			"count": 926,
			"type": "VEC3",
			"componentType": 5126
		},
		{
			"bufferView": 3,
			"count": 926,
			"type": "VEC4",
			"componentType": 5126
		},
		{
			"bufferView": 4,
			"count": 926,
			"type": "VEC2",
			"componentType": 5126
		},
		{
			"bufferView": 5,
			"count": 926,
			"type": "VEC2",
			"componentType": 5126
		}
	],
	"buffers": [
		{
			"uri": "SM_column_01_assy_01.bin",
			"byteLength": 58780
		}
	],
	"bufferViews": [
		{
			"buffer": 0,
			"byteLength": 6924,
			"target": 34963
		},
		{
			"buffer": 0,
			"byteLength": 11112,
			"byteOffset": 6924,
			"target": 34962
		},
		{
			"buffer": 0,
			"byteLength": 11112,
			"byteOffset": 18036,
			"target": 34962
		},
		{
			"buffer": 0,
			"byteLength": 14816,
			"byteOffset": 29148,
			"target": 34962
		},
		{
			"buffer": 0,
			"byteLength": 7408,
			"byteOffset": 43964,
			"target": 34962
		},
		{
			"buffer": 0,
			"byteLength": 7408,
			"byteOffset": 51372,
			"target": 34962
		}
	],
	"images": [
		{
			"uri": "MI_Column_01_MetallicRoughness.png"
		},
		{
			"uri": "T_column01_C.png"
		},
		{
			"uri": "T_column01_N.png"
		},
		{
			"uri": "T_column01_M.png"
		}
	],
	"materials": [
		{
			"name": "MI_Column_01",
			"pbrMetallicRoughness":
			{
				"baseColorTexture":
				{
					"index": 0
				},
				"metallicRoughnessTexture":
				{
					"index": 1
				}
			},
			"normalTexture":
			{
				"index": 2
			},
			"occlusionTexture":
			{
				"index": 3
			},
			"doubleSided": true
		}
	],
	"meshes": [
		{
			"name": "SM_column_01_assy_01",
			"primitives": [
				{
					"attributes":
					{
						"POSITION": 1,
						"NORMAL": 2,
						"TANGENT": 3,
						"TEXCOORD_0": 4,
						"TEXCOORD_1": 5
					},
					"indices": 0,
					"material": 0
				}
			]
		}
	],
	"nodes": [
		{
			"mesh": 0
		}
	],
	"samplers": [
		{
			"minFilter": 9987,
			"magFilter": 9729
		}
	],
	"scenes": [
		{
			"nodes": [ 0 ]
		}
	],
	"textures": [
		{
			"name": "T_column01_C",
			"sampler": 0,
			"source": 1
		},
		{
			"name": "MI_Column_01_MetallicRoughness",
			"sampler": 0,
			"source": 0
		},
		{
			"name": "T_column01_N",
			"sampler": 0,
			"source": 2
		},
		{
			"name": "T_column01_M",
			"sampler": 0,
			"source": 3
		}
	]
}