{
	"asset":
	{
		"version": "2.0",
		"generator": "Unreal Engine 5.6.1"
	},
	"scene": 0,
	"accessors": [
		{
			"bufferView": 0,
			"count": 144,
			"type": "SCALAR",
			"componentType": 5121
		},
		{
			"bufferView": 1,
			"count": 96,
			"type": "VEC3",
			"componentType": 5126,
			"min": [ -0.176647112, 0.525824368, -0.292472392 ],
			"max": [ 0.177368268, 1.42319047, -0.270007402 ]
		},
		{
			"bufferView": 2,
			"count": 96,
			"type": "VEC3",
			"componentType": 5126
		},
		{
			"bufferView": 3,
			"count": 96,
			"type": "VEC4",
			"componentType": 5126
		},
		{
			"bufferView": 4,
			"count": 96,
			"type": "VEC2",
			"componentType": 5126
		},
		{
			"bufferView": 5,
			"count": 96,
			"type": "VEC2",
			"componentType": 5126
		},
		{
			"bufferView": 6,
			"count": 6516,
			"type": "SCALAR",
			"componentType": 5123
		},
		{
			"bufferView": 7,
			"count": 2334,
			"type": "VEC3",
			"componentType": 5126,
			"min": [ -0.276458323, -0.00978652947, -0.335589439 ],
			"max": [ 0.273067564, 1.47735941, 0.335589439 ]
		},
		{
			"bufferView": 8,
			"count": 2334,
			"type": "VEC3",
			"componentType": 5126
		},
		{
			"bufferView": 9,
			"count": 2334,
			"type": "VEC4",
			"componentType": 5126
		},
		{
			"bufferView": 10,
			"count": 2334,
			"type": "VEC2",
			"componentType": 5126
		},
		{
			"bufferView": 11,
			"count": 2334,
			"type": "VEC2",
			"componentType": 5126
		}
	],
	"buffers": [
		{
			"uri": "SM_chair_02.bin",
			"byteLength": 149256
		}
	],
	"bufferViews": [
		{
			"buffer": 0,
			"byteLength": 144,
			"target": 34963
		},
		{
			"buffer": 0,
			"byteLength": 1152,
			"byteOffset": 144,
			"target": 34962
		},
		{
			"buffer": 0,
			"byteLength": 1152,
			"byteOffset": 1296,
			"target": 34962
		},
		{
			"buffer": 0,
			"byteLength": 1536,
			"byteOffset": 2448,
			"target": 34962
		},
		{
			"buffer": 0,
			"byteLength": 768,
			"byteOffset": 3984,
			"target": 34962
		},
		{
			"buffer": 0,
			"byteLength": 768,
			"byteOffset": 4752,
			"target": 34962
		},
		{
			"buffer": 0,
			"byteLength": 13032,
			"byteOffset": 5520,
			"target": 34963
		},
		{
			"buffer": 0,
			"byteLength": 28008,
			"byteOffset": 18552,
			"target": 34962
		},
		{
			"buffer": 0,
			"byteLength": 28008,
			"byteOffset": 46560,
			"target": 34962
		},
		{
			"buffer": 0,
			"byteLength": 37344,
			"byteOffset": 74568,
			"target": 34962
		},
		{
			"buffer": 0,
			"byteLength": 18672,
			"byteOffset": 111912,
			"target": 34962
		},
		{
			"buffer": 0,
			"byteLength": 18672,
			"byteOffset": 130584,
			"target": 34962
		}
	],
	"images": [
		{
			"uri": "WorldGridMaterial_BaseColor.png"
		},
		{
			"uri": "WorldGridMaterial_MetallicRoughness.png"
		},
		{
			"uri": "WorldGridMaterial_Normal.png"
		},
		{
			"uri": "MI_Furniture_01_MetallicRoughness.png"
		},
		{
			"uri": "T_Furniture_01_C.png"
		},
		{
			"uri": "T_Furniture_01_N.png"
		},
		{
			"uri": "T_Furniture_01_M.png"
		}
	],
	"materials": [
		{
			"name": "WorldGridMaterial",
			"pbrMetallicRoughness":
			{
				"baseColorTexture":
				{
					"index": 0
				},
				"metallicRoughnessTexture":
				{
					"index": 1
				}
			},
			"normalTexture":
			{
				"index": 2
			}
		},
		{
			"name": "MI_Furniture_01",
			"pbrMetallicRoughness":
			{
				"baseColorTexture":
				{
					"index": 3
				},
				"metallicRoughnessTexture":
				{
					"index": 4
				}
			},
			"normalTexture":
			{
				"index": 5
			},
			"occlusionTexture":
			{
				"index": 6
			}
		}
	],
	"meshes": [
		{
			"name": "SM_chair_02",
			"primitives": [
				{
					"attributes":
					{
						"POSITION": 1,
						"NORMAL": 2,
						"TANGENT": 3,
						"TEXCOORD_0": 4,
						"TEXCOORD_1": 5
					},
					"indices": 0,
					"material": 0
				},
				{
					"attributes":
					{
						"POSITION": 7,
						"NORMAL": 8,
						"TANGENT": 9,
						"TEXCOORD_0": 10,
						"TEXCOORD_1": 11
					},
					"indices": 6,
					"material": 1
				}
			]
		}
	],
	"nodes": [
		{
			"mesh": 0
		}
	],
	"samplers": [
		{
			"minFilter": 9987,
			"magFilter": 9729
		}
	],
	"scenes": [
		{
			"nodes": [ 0 ]
		}
	],
	"textures": [
		{
			"name": "WorldGridMaterial_BaseColor",
			"sampler": 0,
			"source": 0
		},
		{
			"name": "WorldGridMaterial_MetallicRoughness",
			"sampler": 0,
			"source": 1
		},
		{
			"name": "WorldGridMaterial_Normal",
			"sampler": 0,
			"source": 2
		},
		{
			"name": "T_Furniture_01_C",
			"sampler": 0,
			"source": 4
		},
		{
			"name": "MI_Furniture_01_MetallicRoughness",
			"sampler": 0,
			"source": 3
		},
		{
			"name": "T_Furniture_01_N",
			"sampler": 0,
			"source": 5
		},
		{
			"name": "T_Furniture_01_M",
			"sampler": 0,
			"source": 6
		}
	]
}