{
	"asset":
	{
		"version": "2.0",
		"generator": "Unreal Engine 5.6.1"
	},
	"scene": 0,
	"accessors": [
		{
			"bufferView": 0,
			"count": 708,
			"type": "SCALAR",
			"componentType": 5121
		},
		{
			"bufferView": 1,
			"count": 188,
			"type": "VEC3",
			"componentType": 5126,
			"min": [ -0.623131871, -1.10215439e-07, -0.614802361 ],
			"max": [ 0.623131871, 0.502097666, 0.614802361 ]
		},
		{
			"bufferView": 2,
			"count": 188,
			"type": "VEC3",
			"componentType": 5126
		},
		{
			"bufferView": 3,
			"count": 188,
			"type": "VEC4",
			"componentType": 5126
		},
		{
			"bufferView": 4,
			"count": 188,
			"type": "VEC2",
			"componentType": 5126
		},
		{
			"bufferView": 5,
			"count": 188,
			"type": "VEC2",
			"componentType": 5126
		}
	],
	"buffers": [
		{
			"uri": "SM_column_01_part_04.bin",
			"byteLength": 11236
		}
	],
	"bufferViews": [
		{
			"buffer": 0,
			"byteLength": 708,
			"target": 34963
		},
		{
			"buffer": 0,
			"byteLength": 2256,
			"byteOffset": 708,
			"target": 34962
		},
		{
			"buffer": 0,
			"byteLength": 2256,
			"byteOffset": 2964,
			"target": 34962
		},
		{
			"buffer": 0,
			"byteLength": 3008,
			"byteOffset": 5220,
			"target": 34962
		},
		{
			"buffer": 0,
			"byteLength": 1504,
			"byteOffset": 8228,
			"target": 34962
		},
		{
			"buffer": 0,
			"byteLength": 1504,
			"byteOffset": 9732,
			"target": 34962
		}
	],
	"images": [
		{
			"uri": "MI_Column_01_MetallicRoughness.png"
		},
		{
			"uri": "T_column01_C.png"
		},
		{
			"uri": "T_column01_N.png"
		},
		{
			"uri": "T_column01_M.png"
		}
	],
	"materials": [
		{
			"name": "MI_Column_01",
			"pbrMetallicRoughness":
			{
				"baseColorTexture":
				{
					"index": 0
				},
				"metallicRoughnessTexture":
				{
					"index": 1
				}
			},
			"normalTexture":
			{
				"index": 2
			},
			"occlusionTexture":
			{
				"index": 3
			},
			"doubleSided": true
		}
	],
	"meshes": [
		{
			"name": "SM_column_01_part_04",
			"primitives": [
				{
					"attributes":
					{
						"POSITION": 1,
						"NORMAL": 2,
						"TANGENT": 3,
						"TEXCOORD_0": 4,
						"TEXCOORD_1": 5
					},
					"indices": 0,
					"material": 0
				}
			]
		}
	],
	"nodes": [
		{
			"mesh": 0
		}
	],
	"samplers": [
		{
			"minFilter": 9987,
			"magFilter": 9729
		}
	],
	"scenes": [
		{
			"nodes": [ 0 ]
		}
	],
	"textures": [
		{
			"name": "T_column01_C",
			"sampler": 0,
			"source": 1
		},
		{
			"name": "MI_Column_01_MetallicRoughness",
			"sampler": 0,
			"source": 0
		},
		{
			"name": "T_column01_N",
			"sampler": 0,
			"source": 2
		},
		{
			"name": "T_column01_M",
			"sampler": 0,
			"source": 3
		}
	]
}