{
	"asset":
	{
		"version": "2.0",
		"generator": "Unreal Engine 5.6.1"
	},
	"scene": 0,
	"accessors": [
		{
			"bufferView": 0,
			"count": 414,
			"type": "SCALAR",
			"componentType": 5121
		},
		{
			"bufferView": 1,
			"count": 206,
			"type": "VEC3",
			"componentType": 5126,
			"min": [ -0.0126522677, -0.000572430494, -0.0326647162 ],
			"max": [ 0.933508754, 0.854975104, 0.012577475 ]
		},
		{
			"bufferView": 2,
			"count": 206,
			"type": "VEC3",
			"componentType": 5126
		},
		{
			"bufferView": 3,
			"count": 206,
			"type": "VEC4",
			"componentType": 5126
		},
		{
			"bufferView": 4,
			"count": 206,
			"type": "VEC2",
			"componentType": 5126
		},
		{
			"bufferView": 5,
			"count": 206,
			"type": "VEC2",
			"componentType": 5126
		},
		{
			"bufferView": 6,
			"count": 930,
			"type": "SCALAR",
			"componentType": 5121
		},
		{
			"bufferView": 7,
			"count": 255,
			"type": "VEC3",
			"componentType": 5126,
			"min": [ 0.0513016135, -0.100717619, -0.0386564024 ],
			"max": [ 0.746644437, 0.998535514, -0.0010158543 ]
		},
		{
			"bufferView": 8,
			"count": 255,
			"type": "VEC3",
			"componentType": 5126
		},
		{
			"bufferView": 9,
			"count": 255,
			"type": "VEC4",
			"componentType": 5126
		},
		{
			"bufferView": 10,
			"count": 255,
			"type": "VEC2",
			"componentType": 5126
		},
		{
			"bufferView": 11,
			"count": 255,
			"type": "VEC2",
			"componentType": 5126
		}
	],
	"buffers": [
		{
			"uri": "SM_cage_door_01_60A6E79B.bin",
			"byteLength": 27164
		}
	],
	"bufferViews": [
		{
			"buffer": 0,
			"byteLength": 414,
			"target": 34963
		},
		{
			"buffer": 0,
			"byteLength": 2472,
			"byteOffset": 416,
			"target": 34962
		},
		{
			"buffer": 0,
			"byteLength": 2472,
			"byteOffset": 2888,
			"target": 34962
		},
		{
			"buffer": 0,
			"byteLength": 3296,
			"byteOffset": 5360,
			"target": 34962
		},
		{
			"buffer": 0,
			"byteLength": 1648,
			"byteOffset": 8656,
			"target": 34962
		},
		{
			"buffer": 0,
			"byteLength": 1648,
			"byteOffset": 10304,
			"target": 34962
		},
		{
			"buffer": 0,
			"byteLength": 930,
			"byteOffset": 11952,
			"target": 34963
		},
		{
			"buffer": 0,
			"byteLength": 3060,
			"byteOffset": 12884,
			"target": 34962
		},
		{
			"buffer": 0,
			"byteLength": 3060,
			"byteOffset": 15944,
			"target": 34962
		},
		{
			"buffer": 0,
			"byteLength": 4080,
			"byteOffset": 19004,
			"target": 34962
		},
		{
			"buffer": 0,
			"byteLength": 2040,
			"byteOffset": 23084,
			"target": 34962
		},
		{
			"buffer": 0,
			"byteLength": 2040,
			"byteOffset": 25124,
			"target": 34962
		}
	],
	"images": [
		{
			"uri": "MI_Furniture_01_MetallicRoughness.png"
		},
		{
			"uri": "MI_Atlas_01_MetallicRoughness.png"
		},
		{
			"uri": "T_Furniture_01_C.png"
		},
		{
			"uri": "T_Furniture_01_N.png"
		},
		{
			"uri": "T_Furniture_01_M.png"
		},
		{
			"uri": "T_Atlas_C.png"
		},
		{
			"uri": "T_Atlas_N.png"
		},
		{
			"uri": "T_Atlas_M.png"
		}
	],
	"materials": [
		{
			"name": "MI_Furniture_01",
			"pbrMetallicRoughness":
			{
				"baseColorTexture":
				{
					"index": 0
				},
				"metallicRoughnessTexture":
				{
					"index": 1
				}
			},
			"normalTexture":
			{
				"index": 2
			},
			"occlusionTexture":
			{
				"index": 3
			}
		},
		{
			"name": "MI_Atlas_01",
			"pbrMetallicRoughness":
			{
				"baseColorTexture":
				{
					"index": 4
				},
				"metallicRoughnessTexture":
				{
					"index": 5
				}
			},
			"normalTexture":
			{
				"index": 6
			},
			"occlusionTexture":
			{
				"index": 7
			}
		}
	],
	"meshes": [
		{
			"name": "SM_cage_door_01",
			"primitives": [
				{
					"attributes":
					{
						"POSITION": 1,
						"NORMAL": 2,
						"TANGENT": 3,
						"TEXCOORD_0": 4,
						"TEXCOORD_1": 5
					},
					"indices": 0,
					"material": 0
				},
				{
					"attributes":
					{
						"POSITION": 7,
						"NORMAL": 8,
						"TANGENT": 9,
						"TEXCOORD_0": 10,
						"TEXCOORD_1": 11
					},
					"indices": 6,
					"material": 1
				}
			]
		}
	],
	"nodes": [
		{
			"mesh": 0
		}
	],
	"samplers": [
		{
			"minFilter": 9987,
			"magFilter": 9729
		}
	],
	"scenes": [
		{
			"nodes": [ 0 ]
		}
	],
	"textures": [
		{
			"name": "T_Furniture_01_C",
			"sampler": 0,
			"source": 2
		},
		{
			"name": "MI_Furniture_01_MetallicRoughness",
			"sampler": 0,
			"source": 0
		},
		{
			"name": "T_Furniture_01_N",
			"sampler": 0,
			"source": 3
		},
		{
			"name": "T_Furniture_01_M",
			"sampler": 0,
			"source": 4
		},
		{
			"name": "T_Atlas_C",
			"sampler": 0,
			"source": 5
		},
		{
			"name": "MI_Atlas_01_MetallicRoughness",
			"sampler": 0,
			"source": 1
		},
		{
			"name": "T_Atlas_N",
			"sampler": 0,
			"source": 6
		},
		{
			"name": "T_Atlas_M",
			"sampler": 0,
			"source": 7
		}
	]
}