{
	"asset":
	{
		"version": "2.0",
		"generator": "Unreal Engine 5.6.1"
	},
	"scene": 0,
	"accessors": [
		{
			"bufferView": 0,
			"count": 1314,
			"type": "SCALAR",
			"componentType": 5123
		},
		{
			"bufferView": 1,
			"count": 366,
			"type": "VEC3",
			"componentType": 5126,
			"min": [ -0.554413915, -3.22643022e-17, -0.552620649 ],
			"max": [ 0.55366379, 2.63260365, 0.555247486 ]
		},
		{
			"bufferView": 2,
			"count": 366,
			"type": "VEC3",
			"componentType": 5126
		},
		{
			"bufferView": 3,
			"count": 366,
			"type": "VEC4",
			"componentType": 5126
		},
		{
			"bufferView": 4,
			"count": 366,
			"type": "VEC2",
			"componentType": 5126
		},
		{
			"bufferView": 5,
			"count": 366,
			"type": "VEC2",
			"componentType": 5126
		}
	],
	"buffers": [
		{
			"uri": "SM_column_01_assy_03_DA077177.bin",
			"byteLength": 23124
		}
	],
	"bufferViews": [
		{
			"buffer": 0,
			"byteLength": 2628,
			"target": 34963
		},
		{
			"buffer": 0,
			"byteLength": 4392,
			"byteOffset": 2628,
			"target": 34962
		},
		{
			"buffer": 0,
			"byteLength": 4392,
			"byteOffset": 7020,
			"target": 34962
		},
		{
			"buffer": 0,
			"byteLength": 5856,
			"byteOffset": 11412,
			"target": 34962
		},
		{
			"buffer": 0,
			"byteLength": 2928,
			"byteOffset": 17268,
			"target": 34962
		},
		{
			"buffer": 0,
			"byteLength": 2928,
			"byteOffset": 20196,
			"target": 34962
		}
	],
	"images": [
		{
			"uri": "MI_Column_01_MetallicRoughness.png"
		},
		{
			"uri": "T_column01_C.png"
		},
		{
			"uri": "T_column01_N.png"
		},
		{
			"uri": "T_column01_M.png"
		}
	],
	"materials": [
		{
			"name": "MI_Column_01",
			"pbrMetallicRoughness":
			{
				"baseColorTexture":
				{
					"index": 0
				},
				"metallicRoughnessTexture":
				{
					"index": 1
				}
			},
			"normalTexture":
			{
				"index": 2
			},
			"occlusionTexture":
			{
				"index": 3
			},
			"doubleSided": true
		}
	],
	"meshes": [
		{
			"name": "SM_column_01_assy_03",
			"primitives": [
				{
					"attributes":
					{
						"POSITION": 1,
						"NORMAL": 2,
						"TANGENT": 3,
						"TEXCOORD_0": 4,
						"TEXCOORD_1": 5
					},
					"indices": 0,
					"material": 0
				}
			]
		}
	],
	"nodes": [
		{
			"mesh": 0
		}
	],
	"samplers": [
		{
			"minFilter": 9987,
			"magFilter": 9729
		}
	],
	"scenes": [
		{
			"nodes": [ 0 ]
		}
	],
	"textures": [
		{
			"name": "T_column01_C",
			"sampler": 0,
			"source": 1
		},
		{
			"name": "MI_Column_01_MetallicRoughness",
			"sampler": 0,
			"source": 0
		},
		{
			"name": "T_column01_N",
			"sampler": 0,
			"source": 2
		},
		{
			"name": "T_column01_M",
			"sampler": 0,
			"source": 3
		}
	]
}