{
	"asset":
	{
		"version": "2.0",
		"generator": "Unreal Engine 5.6.1"
	},
	"scene": 0,
	"accessors": [
		{
			"bufferView": 0,
			"count": 2130,
			"type": "SCALAR",
			"componentType": 5123
		},
		{
			"bufferView": 1,
			"count": 819,
			"type": "VEC3",
			"componentType": 5126,
			"min": [ -0.623121679, -0.0019754027, -0.614757001 ],
			"max": [ 0.623121679, 6.98451948, 0.614757001 ]
		},
		{
			"bufferView": 2,
			"count": 819,
			"type": "VEC3",
			"componentType": 5126
		},
		{
			"bufferView": 3,
			"count": 819,
			"type": "VEC4",
			"componentType": 5126
		},
		{
			"bufferView": 4,
			"count": 819,
			"type": "VEC2",
			"componentType": 5126
		},
		{
			"bufferView": 5,
			"count": 819,
			"type": "VEC2",
			"componentType": 5126
		}
	],
	"buffers": [
		{
			"uri": "SM_column_02_assy_01.bin",
			"byteLength": 50124
		}
	],
	"bufferViews": [
		{
			"buffer": 0,
			"byteLength": 4260,
			"target": 34963
		},
		{
			"buffer": 0,
			"byteLength": 9828,
			"byteOffset": 4260,
			"target": 34962
		},
		{
			"buffer": 0,
			"byteLength": 9828,
			"byteOffset": 14088,
			"target": 34962
		},
		{
			"buffer": 0,
			"byteLength": 13104,
			"byteOffset": 23916,
			"target": 34962
		},
		{
			"buffer": 0,
			"byteLength": 6552,
			"byteOffset": 37020,
			"target": 34962
		},
		{
			"buffer": 0,
			"byteLength": 6552,
			"byteOffset": 43572,
			"target": 34962
		}
	],
	"images": [
		{
			"uri": "MI_Column_02_MetallicRoughness.png"
		},
		{
			"uri": "T_column02_C.png"
		},
		{
			"uri": "T_column02_N.png"
		},
		{
			"uri": "T_column02_M.png"
		}
	],
	"materials": [
		{
			"name": "MI_Column_02",
			"pbrMetallicRoughness":
			{
				"baseColorTexture":
				{
					"index": 0
				},
				"metallicRoughnessTexture":
				{
					"index": 1
				}
			},
			"normalTexture":
			{
				"index": 2
			},
			"occlusionTexture":
			{
				"index": 3
			}
		}
	],
	"meshes": [
		{
			"name": "SM_column_02_assy_01",
			"primitives": [
				{
					"attributes":
					{
						"POSITION": 1,
						"NORMAL": 2,
						"TANGENT": 3,
						"TEXCOORD_0": 4,
						"TEXCOORD_1": 5
					},
					"indices": 0,
					"material": 0
				}
			]
		}
	],
	"nodes": [
		{
			"mesh": 0
		}
	],
	"samplers": [
		{
			"minFilter": 9987,
			"magFilter": 9729
		}
	],
	"scenes": [
		{
			"nodes": [ 0 ]
		}
	],
	"textures": [
		{
			"name": "T_column02_C",
			"sampler": 0,
			"source": 1
		},
		{
			"name": "MI_Column_02_MetallicRoughness",
			"sampler": 0,
			"source": 0
		},
		{
			"name": "T_column02_N",
			"sampler": 0,
			"source": 2
		},
		{
			"name": "T_column02_M",
			"sampler": 0,
			"source": 3
		}
	]
}