{
	"asset":
	{
		"version": "2.0",
		"generator": "Unreal Engine 5.6.1"
	},
	"scene": 0,
	"accessors": [
		{
			"bufferView": 0,
			"count": 26724,
			"type": "SCALAR",
			"componentType": 5123
		},
		{
			"bufferView": 1,
			"count": 5274,
			"type": "VEC3",
			"componentType": 5126,
			"min": [ -0.341709465, 4.440892e-18, -0.313365638 ],
			"max": [ 0.330701321, 0.372275382, 0.284682065 ]
		},
		{
			"bufferView": 2,
			"count": 5274,
			"type": "VEC3",
			"componentType": 5126
		},
		{
			"bufferView": 3,
			"count": 5274,
			"type": "VEC4",
			"componentType": 5126
		},
		{
			"bufferView": 4,
			"count": 5274,
			"type": "VEC2",
			"componentType": 5126
		},
		{
			"bufferView": 5,
			"count": 5274,
			"type": "VEC2",
			"componentType": 5126
		},
		{
			"bufferView": 6,
			"count": 132,
			"type": "SCALAR",
			"componentType": 5121
		},
		{
			"bufferView": 7,
			"count": 88,
			"type": "VEC3",
			"componentType": 5126,
			"min": [ -0.279816329, 0.114521727, -0.214938596 ],
			"max": [ 0.22830829, 0.417436212, 0.200769588 ]
		},
		{
			"bufferView": 8,
			"count": 88,
			"type": "VEC3",
			"componentType": 5126
		},
		{
			"bufferView": 9,
			"count": 88,
			"type": "VEC4",
			"componentType": 5126
		},
		{
			"bufferView": 10,
			"count": 88,
			"type": "VEC2",
			"componentType": 5126
		},
		{
			"bufferView": 11,
			"count": 88,
			"type": "VEC2",
			"componentType": 5126
		}
	],
	"buffers": [
		{
			"uri": "SM_candle_04_8F117B1B.bin",
			"byteLength": 353852
		}
	],
	"bufferViews": [
		{
			"buffer": 0,
			"byteLength": 53448,
			"target": 34963
		},
		{
			"buffer": 0,
			"byteLength": 63288,
			"byteOffset": 53448,
			"target": 34962
		},
		{
			"buffer": 0,
			"byteLength": 63288,
			"byteOffset": 116736,
			"target": 34962
		},
		{
			"buffer": 0,
			"byteLength": 84384,
			"byteOffset": 180024,
			"target": 34962
		},
		{
			"buffer": 0,
			"byteLength": 42192,
			"byteOffset": 264408,
			"target": 34962
		},
		{
			"buffer": 0,
			"byteLength": 42192,
			"byteOffset": 306600,
			"target": 34962
		},
		{
			"buffer": 0,
			"byteLength": 132,
			"byteOffset": 348792,
			"target": 34963
		},
		{
			"buffer": 0,
			"byteLength": 1056,
			"byteOffset": 348924,
			"target": 34962
		},
		{
			"buffer": 0,
			"byteLength": 1056,
			"byteOffset": 349980,
			"target": 34962
		},
		{
			"buffer": 0,
			"byteLength": 1408,
			"byteOffset": 351036,
			"target": 34962
		},
		{
			"buffer": 0,
			"byteLength": 704,
			"byteOffset": 352444,
			"target": 34962
		},
		{
			"buffer": 0,
			"byteLength": 704,
			"byteOffset": 353148,
			"target": 34962
		}
	],
	"images": [
		{
			"uri": "MI_Candle_MetallicRoughness.png"
		},
		{
			"uri": "T_candle_C.png"
		},
		{
			"uri": "T_candle_N.png"
		},
		{
			"uri": "T_candle_M.png"
		}
	],
	"materials": [
		{
			"name": "MI_Candle",
			"pbrMetallicRoughness":
			{
				"baseColorTexture":
				{
					"index": 0
				},
				"metallicRoughnessTexture":
				{
					"index": 1
				}
			},
			"normalTexture":
			{
				"index": 2
			},
			"occlusionTexture":
			{
				"index": 3
			},
			"alphaMode": "MASK",
			"alphaCutoff": 0.333299994
		},
		{
			"name": "MI_Candle_light",
			"pbrMetallicRoughness":
			{
				"baseColorFactor": [ 0, 0, 0, 0.690196097 ],
				"metallicFactor": 0,
				"roughnessFactor": 0.5
			},
			"emissiveFactor": [ 1, 0.764705956, 0.313725501 ],
			"alphaMode": "BLEND",
			"doubleSided": true,
			"extensions":
			{
				"KHR_materials_ior":
				{
					"ior": 1
				},
				"KHR_materials_emissive_strength":
				{
					"emissiveStrength": 26.328125
				}
			}
		}
	],
	"meshes": [
		{
			"name": "SM_candle_04",
			"primitives": [
				{
					"attributes":
					{
						"POSITION": 1,
						"NORMAL": 2,
						"TANGENT": 3,
						"TEXCOORD_0": 4,
						"TEXCOORD_1": 5
					},
					"indices": 0,
					"material": 0
				},
				{
					"attributes":
					{
						"POSITION": 7,
						"NORMAL": 8,
						"TANGENT": 9,
						"TEXCOORD_0": 10,
						"TEXCOORD_1": 11
					},
					"indices": 6,
					"material": 1
				}
			]
		}
	],
	"nodes": [
		{
			"mesh": 0
		}
	],
	"samplers": [
		{
			"minFilter": 9987,
			"magFilter": 9729
		}
	],
	"scenes": [
		{
			"nodes": [ 0 ]
		}
	],
	"textures": [
		{
			"name": "T_candle_C",
			"sampler": 0,
			"source": 1
		},
		{
			"name": "MI_Candle_MetallicRoughness",
			"sampler": 0,
			"source": 0
		},
		{
			"name": "T_candle_N",
			"sampler": 0,
			"source": 2
		},
		{
			"name": "T_candle_M",
			"sampler": 0,
			"source": 3
		}
	],
	"extensionsUsed": [
		"KHR_materials_ior",
		"KHR_materials_emissive_strength"
	]
}