{
	"asset":
	{
		"version": "2.0",
		"generator": "Unreal Engine 5.6.1"
	},
	"scene": 0,
	"accessors": [
		{
			"bufferView": 0,
			"count": 3840,
			"type": "SCALAR",
			"componentType": 5123
		},
		{
			"bufferView": 1,
			"count": 1200,
			"type": "VEC3",
			"componentType": 5126,
			"min": [ -0.0452677757, -1.52587887e-07, -0.0452677757 ],
			"max": [ 0.0452677757, 0.968066931, 0.0452677757 ]
		},
		{
			"bufferView": 2,
			"count": 1200,
			"type": "VEC3",
			"componentType": 5126
		},
		{
			"bufferView": 3,
			"count": 1200,
			"type": "VEC4",
			"componentType": 5126
		},
		{
			"bufferView": 4,
			"count": 1200,
			"type": "VEC2",
			"componentType": 5126
		},
		{
			"bufferView": 5,
			"count": 1200,
			"type": "VEC2",
			"componentType": 5126
		}
	],
	"buffers": [
		{
			"uri": "SM_chain_02_9FAAD3E4.bin",
			"byteLength": 74880
		}
	],
	"bufferViews": [
		{
			"buffer": 0,
			"byteLength": 7680,
			"target": 34963
		},
		{
			"buffer": 0,
			"byteLength": 14400,
			"byteOffset": 7680,
			"target": 34962
		},
		{
			"buffer": 0,
			"byteLength": 14400,
			"byteOffset": 22080,
			"target": 34962
		},
		{
			"buffer": 0,
			"byteLength": 19200,
			"byteOffset": 36480,
			"target": 34962
		},
		{
			"buffer": 0,
			"byteLength": 9600,
			"byteOffset": 55680,
			"target": 34962
		},
		{
			"buffer": 0,
			"byteLength": 9600,
			"byteOffset": 65280,
			"target": 34962
		}
	],
	"images": [
		{
			"uri": "MI_Metall_Trim_styl_01_MetallicRoughness.png"
		},
		{
			"uri": "MI_Metall_Trim_styl_01_Occlusion.png"
		},
		{
			"uri": "T_fMetalTrimStyl_C.png"
		},
		{
			"uri": "T_fMetalTrimStyl_N.png"
		}
	],
	"materials": [
		{
			"name": "MI_Metall_Trim_styl_01",
			"pbrMetallicRoughness":
			{
				"baseColorTexture":
				{
					"index": 0
				},
				"metallicRoughnessTexture":
				{
					"index": 1
				}
			},
			"normalTexture":
			{
				"index": 2
			},
			"occlusionTexture":
			{
				"index": 3
			}
		}
	],
	"meshes": [
		{
			"name": "SM_chain_02",
			"primitives": [
				{
					"attributes":
					{
						"POSITION": 1,
						"NORMAL": 2,
						"TANGENT": 3,
						"TEXCOORD_0": 4,
						"TEXCOORD_1": 5
					},
					"indices": 0,
					"material": 0
				}
			]
		}
	],
	"nodes": [
		{
			"mesh": 0
		}
	],
	"samplers": [
		{
			"minFilter": 9987,
			"magFilter": 9729
		}
	],
	"scenes": [
		{
			"nodes": [ 0 ]
		}
	],
	"textures": [
		{
			"name": "T_fMetalTrimStyl_C",
			"sampler": 0,
			"source": 2
		},
		{
			"name": "MI_Metall_Trim_styl_01_MetallicRoughness",
			"sampler": 0,
			"source": 0
		},
		{
			"name": "T_fMetalTrimStyl_N",
			"sampler": 0,
			"source": 3
		},
		{
			"name": "MI_Metall_Trim_styl_01_Occlusion",
			"sampler": 0,
			"source": 1
		}
	]
}