{
	"asset":
	{
		"version": "2.0",
		"generator": "Unreal Engine 5.6.1"
	},
	"scene": 0,
	"accessors": [
		{
			"bufferView": 0,
			"count": 30,
			"type": "SCALAR",
			"componentType": 5121
		},
		{
			"bufferView": 1,
			"count": 20,
			"type": "VEC3",
			"componentType": 5126,
			"min": [ -1.5006001, 1.18793862e-15, -3 ],
			"max": [ 1.5006001, 0.038136702, 2.4414062e-06 ]
		},
		{
			"bufferView": 2,
			"count": 20,
			"type": "VEC3",
			"componentType": 5126
		},
		{
			"bufferView": 3,
			"count": 20,
			"type": "VEC4",
			"componentType": 5126
		},
		{
			"bufferView": 4,
			"count": 20,
			"type": "VEC2",
			"componentType": 5126
		},
		{
			"bufferView": 5,
			"count": 20,
			"type": "VEC2",
			"componentType": 5126
		}
	],
	"buffers": [
		{
			"uri": "SM_carpet_module_02.bin",
			"byteLength": 1152
		}
	],
	"bufferViews": [
		{
			"buffer": 0,
			"byteLength": 30,
			"target": 34963
		},
		{
			"buffer": 0,
			"byteLength": 240,
			"byteOffset": 32,
			"target": 34962
		},
		{
			"buffer": 0,
			"byteLength": 240,
			"byteOffset": 272,
			"target": 34962
		},
		{
			"buffer": 0,
			"byteLength": 320,
			"byteOffset": 512,
			"target": 34962
		},
		{
			"buffer": 0,
			"byteLength": 160,
			"byteOffset": 832,
			"target": 34962
		},
		{
			"buffer": 0,
			"byteLength": 160,
			"byteOffset": 992,
			"target": 34962
		}
	],
	"images": [
		{
			"uri": "MI_Flag_BaseColor.png"
		},
		{
			"uri": "MI_Flag_MetallicRoughness.png"
		},
		{
			"uri": "MI_Flag_Normal.png"
		}
	],
	"materials": [
		{
			"name": "MI_Flag",
			"pbrMetallicRoughness":
			{
				"baseColorTexture":
				{
					"index": 0
				},
				"metallicRoughnessTexture":
				{
					"index": 1
				}
			},
			"normalTexture":
			{
				"index": 2
			},
			"doubleSided": true
		}
	],
	"meshes": [
		{
			"name": "SM_carpet_module_02",
			"primitives": [
				{
					"attributes":
					{
						"POSITION": 1,
						"NORMAL": 2,
						"TANGENT": 3,
						"TEXCOORD_0": 4,
						"TEXCOORD_1": 5
					},
					"indices": 0,
					"material": 0
				}
			]
		}
	],
	"nodes": [
		{
			"mesh": 0
		}
	],
	"samplers": [
		{
			"minFilter": 9987,
			"magFilter": 9729
		}
	],
	"scenes": [
		{
			"nodes": [ 0 ]
		}
	],
	"textures": [
		{
			"name": "MI_Flag_BaseColor",
			"sampler": 0,
			"source": 0
		},
		{
			"name": "MI_Flag_MetallicRoughness",
			"sampler": 0,
			"source": 1
		},
		{
			"name": "MI_Flag_Normal",
			"sampler": 0,
			"source": 2
		}
	]
}