{
	"asset":
	{
		"version": "2.0",
		"generator": "Unreal Engine 5.6.1"
	},
	"scene": 0,
	"accessors": [
		{
			"bufferView": 0,
			"count": 1350,
			"type": "SCALAR",
			"componentType": 5123
		},
		{
			"bufferView": 1,
			"count": 420,
			"type": "VEC3",
			"componentType": 5126,
			"min": [ 0, -0.000670010108, -2.54425032e-07 ],
			"max": [ 3.00000238, 0.356146425, 0.36120978 ]
		},
		{
			"bufferView": 2,
			"count": 420,
			"type": "VEC3",
			"componentType": 5126
		},
		{
			"bufferView": 3,
			"count": 420,
			"type": "VEC4",
			"componentType": 5126
		},
		{
			"bufferView": 4,
			"count": 420,
			"type": "VEC2",
			"componentType": 5126
		},
		{
			"bufferView": 5,
			"count": 420,
			"type": "VEC2",
			"componentType": 5126
		}
	],
	"buffers": [
		{
			"uri": "SM_cornice_01_BF3FFF2F.bin",
			"byteLength": 26220
		}
	],
	"bufferViews": [
		{
			"buffer": 0,
			"byteLength": 2700,
			"target": 34963
		},
		{
			"buffer": 0,
			"byteLength": 5040,
			"byteOffset": 2700,
			"target": 34962
		},
		{
			"buffer": 0,
			"byteLength": 5040,
			"byteOffset": 7740,
			"target": 34962
		},
		{
			"buffer": 0,
			"byteLength": 6720,
			"byteOffset": 12780,
			"target": 34962
		},
		{
			"buffer": 0,
			"byteLength": 3360,
			"byteOffset": 19500,
			"target": 34962
		},
		{
			"buffer": 0,
			"byteLength": 3360,
			"byteOffset": 22860,
			"target": 34962
		}
	],
	"images": [
		{
			"uri": "MI_Column_02_MetallicRoughness.png"
		},
		{
			"uri": "T_column02_C.png"
		},
		{
			"uri": "T_column02_N.png"
		},
		{
			"uri": "T_column02_M.png"
		}
	],
	"materials": [
		{
			"name": "MI_Column_02",
			"pbrMetallicRoughness":
			{
				"baseColorTexture":
				{
					"index": 0
				},
				"metallicRoughnessTexture":
				{
					"index": 1
				}
			},
			"normalTexture":
			{
				"index": 2
			},
			"occlusionTexture":
			{
				"index": 3
			}
		}
	],
	"meshes": [
		{
			"name": "SM_cornice_01",
			"primitives": [
				{
					"attributes":
					{
						"POSITION": 1,
						"NORMAL": 2,
						"TANGENT": 3,
						"TEXCOORD_0": 4,
						"TEXCOORD_1": 5
					},
					"indices": 0,
					"material": 0
				}
			]
		}
	],
	"nodes": [
		{
			"mesh": 0
		}
	],
	"samplers": [
		{
			"minFilter": 9987,
			"magFilter": 9729
		}
	],
	"scenes": [
		{
			"nodes": [ 0 ]
		}
	],
	"textures": [
		{
			"name": "T_column02_C",
			"sampler": 0,
			"source": 1
		},
		{
			"name": "MI_Column_02_MetallicRoughness",
			"sampler": 0,
			"source": 0
		},
		{
			"name": "T_column02_N",
			"sampler": 0,
			"source": 2
		},
		{
			"name": "T_column02_M",
			"sampler": 0,
			"source": 3
		}
	]
}