{
	"asset":
	{
		"version": "2.0",
		"generator": "Unreal Engine 5.6.1"
	},
	"scene": 0,
	"accessors": [
		{
			"bufferView": 0,
			"count": 25344,
			"type": "SCALAR",
			"componentType": 5123
		},
		{
			"bufferView": 1,
			"count": 12864,
			"type": "VEC3",
			"componentType": 5126,
			"min": [ -0.647448957, -0.00679228175, -0.647446513 ],
			"max": [ 5.40308332, 3.7673769, 8.41359806 ]
		},
		{
			"bufferView": 2,
			"count": 12864,
			"type": "VEC3",
			"componentType": 5126
		},
		{
			"bufferView": 3,
			"count": 12864,
			"type": "VEC4",
			"componentType": 5126
		},
		{
			"bufferView": 4,
			"count": 12864,
			"type": "VEC2",
			"componentType": 5126
		},
		{
			"bufferView": 5,
			"count": 12864,
			"type": "VEC2",
			"componentType": 5126
		}
	],
	"buffers": [
		{
			"uri": "SM_ceiling_02.bin",
			"byteLength": 771072
		}
	],
	"bufferViews": [
		{
			"buffer": 0,
			"byteLength": 50688,
			"target": 34963
		},
		{
			"buffer": 0,
			"byteLength": 154368,
			"byteOffset": 50688,
			"target": 34962
		},
		{
			"buffer": 0,
			"byteLength": 154368,
			"byteOffset": 205056,
			"target": 34962
		},
		{
			"buffer": 0,
			"byteLength": 205824,
			"byteOffset": 359424,
			"target": 34962
		},
		{
			"buffer": 0,
			"byteLength": 102912,
			"byteOffset": 565248,
			"target": 34962
		},
		{
			"buffer": 0,
			"byteLength": 102912,
			"byteOffset": 668160,
			"target": 34962
		}
	],
	"images": [
		{
			"uri": "MI_Arches_01_MetallicRoughness.png"
		},
		{
			"uri": "T_arches_C.png"
		},
		{
			"uri": "T_arches_N.png"
		},
		{
			"uri": "T_arches_M.png"
		}
	],
	"materials": [
		{
			"name": "MI_Arches_01",
			"pbrMetallicRoughness":
			{
				"baseColorTexture":
				{
					"index": 0
				},
				"metallicRoughnessTexture":
				{
					"index": 1
				}
			},
			"normalTexture":
			{
				"index": 2
			},
			"occlusionTexture":
			{
				"index": 3
			},
			"doubleSided": true
		}
	],
	"meshes": [
		{
			"name": "SM_ceiling_02",
			"primitives": [
				{
					"attributes":
					{
						"POSITION": 1,
						"NORMAL": 2,
						"TANGENT": 3,
						"TEXCOORD_0": 4,
						"TEXCOORD_1": 5
					},
					"indices": 0,
					"material": 0
				}
			]
		}
	],
	"nodes": [
		{
			"mesh": 0
		}
	],
	"samplers": [
		{
			"minFilter": 9987,
			"magFilter": 9729
		}
	],
	"scenes": [
		{
			"nodes": [ 0 ]
		}
	],
	"textures": [
		{
			"name": "T_arches_C",
			"sampler": 0,
			"source": 1
		},
		{
			"name": "MI_Arches_01_MetallicRoughness",
			"sampler": 0,
			"source": 0
		},
		{
			"name": "T_arches_N",
			"sampler": 0,
			"source": 2
		},
		{
			"name": "T_arches_M",
			"sampler": 0,
			"source": 3
		}
	]
}