{
	"asset":
	{
		"version": "2.0",
		"generator": "Unreal Engine 5.6.1"
	},
	"scene": 0,
	"accessors": [
		{
			"bufferView": 0,
			"count": 978,
			"type": "SCALAR",
			"componentType": 5121
		},
		{
			"bufferView": 1,
			"count": 231,
			"type": "VEC3",
			"componentType": 5126,
			"min": [ -1.6146791, -2.87983141e-07, -0.175664559 ],
			"max": [ 1.6146791, 5.93687248, 0.175664559 ]
		},
		{
			"bufferView": 2,
			"count": 231,
			"type": "VEC3",
			"componentType": 5126
		},
		{
			"bufferView": 3,
			"count": 231,
			"type": "VEC4",
			"componentType": 5126
		},
		{
			"bufferView": 4,
			"count": 231,
			"type": "VEC2",
			"componentType": 5126
		},
		{
			"bufferView": 5,
			"count": 231,
			"type": "VEC2",
			"componentType": 5126
		}
	],
	"buffers": [
		{
			"uri": "SM_door_frame_01_CDE2CB43.bin",
			"byteLength": 13916
		}
	],
	"bufferViews": [
		{
			"buffer": 0,
			"byteLength": 978,
			"target": 34963
		},
		{
			"buffer": 0,
			"byteLength": 2772,
			"byteOffset": 980,
			"target": 34962
		},
		{
			"buffer": 0,
			"byteLength": 2772,
			"byteOffset": 3752,
			"target": 34962
		},
		{
			"buffer": 0,
			"byteLength": 3696,
			"byteOffset": 6524,
			"target": 34962
		},
		{
			"buffer": 0,
			"byteLength": 1848,
			"byteOffset": 10220,
			"target": 34962
		},
		{
			"buffer": 0,
			"byteLength": 1848,
			"byteOffset": 12068,
			"target": 34962
		}
	],
	"images": [
		{
			"uri": "MI_Wood_Trim_BaseColor.png"
		},
		{
			"uri": "MI_Wood_Trim_MetallicRoughness.png"
		},
		{
			"uri": "MI_Wood_Trim_Occlusion.png"
		},
		{
			"uri": "T_Wood_Trim_N.png"
		}
	],
	"materials": [
		{
			"name": "MI_Wood_Trim",
			"pbrMetallicRoughness":
			{
				"baseColorTexture":
				{
					"index": 0
				},
				"metallicRoughnessTexture":
				{
					"index": 1
				}
			},
			"normalTexture":
			{
				"index": 2
			},
			"occlusionTexture":
			{
				"index": 3
			}
		}
	],
	"meshes": [
		{
			"name": "SM_door_frame_01",
			"primitives": [
				{
					"attributes":
					{
						"POSITION": 1,
						"NORMAL": 2,
						"TANGENT": 3,
						"TEXCOORD_0": 4,
						"TEXCOORD_1": 5
					},
					"indices": 0,
					"material": 0
				}
			]
		}
	],
	"nodes": [
		{
			"mesh": 0
		}
	],
	"samplers": [
		{
			"minFilter": 9987,
			"magFilter": 9729
		}
	],
	"scenes": [
		{
			"nodes": [ 0 ]
		}
	],
	"textures": [
		{
			"name": "MI_Wood_Trim_BaseColor",
			"sampler": 0,
			"source": 0
		},
		{
			"name": "MI_Wood_Trim_MetallicRoughness",
			"sampler": 0,
			"source": 1
		},
		{
			"name": "T_Wood_Trim_N",
			"sampler": 0,
			"source": 3
		},
		{
			"name": "MI_Wood_Trim_Occlusion",
			"sampler": 0,
			"source": 2
		}
	]
}