{
	"asset":
	{
		"version": "2.0",
		"generator": "Unreal Engine 5.6.1"
	},
	"scene": 0,
	"accessors": [
		{
			"bufferView": 0,
			"count": 16320,
			"type": "SCALAR",
			"componentType": 5123
		},
		{
			"bufferView": 1,
			"count": 11040,
			"type": "VEC3",
			"componentType": 5126,
			"min": [ -0.998991549, -1, -0.998993039 ],
			"max": [ 0.998992503, 1.65629816, 0.998991966 ]
		},
		{
			"bufferView": 2,
			"count": 11040,
			"type": "VEC3",
			"componentType": 5126
		},
		{
			"bufferView": 3,
			"count": 11040,
			"type": "VEC4",
			"componentType": 5126
		},
		{
			"bufferView": 4,
			"count": 11040,
			"type": "VEC2",
			"componentType": 5126
		},
		{
			"bufferView": 5,
			"count": 11040,
			"type": "VEC2",
			"componentType": 5126
		}
	],
	"buffers": [
		{
			"uri": "SM_Egg.bin",
			"byteLength": 650880
		}
	],
	"bufferViews": [
		{
			"buffer": 0,
			"byteLength": 32640,
			"target": 34963
		},
		{
			"buffer": 0,
			"byteLength": 132480,
			"byteOffset": 32640,
			"target": 34962
		},
		{
			"buffer": 0,
			"byteLength": 132480,
			"byteOffset": 165120,
			"target": 34962
		},
		{
			"buffer": 0,
			"byteLength": 176640,
			"byteOffset": 297600,
			"target": 34962
		},
		{
			"buffer": 0,
			"byteLength": 88320,
			"byteOffset": 474240,
			"target": 34962
		},
		{
			"buffer": 0,
			"byteLength": 88320,
			"byteOffset": 562560,
			"target": 34962
		}
	],
	"images": [
		{
			"uri": "WorldGridMaterial_BaseColor.png"
		},
		{
			"uri": "WorldGridMaterial_MetallicRoughness.png"
		},
		{
			"uri": "WorldGridMaterial_Normal.png"
		}
	],
	"materials": [
		{
			"name": "WorldGridMaterial",
			"pbrMetallicRoughness":
			{
				"baseColorTexture":
				{
					"index": 0
				},
				"metallicRoughnessTexture":
				{
					"index": 1
				}
			},
			"normalTexture":
			{
				"index": 2
			}
		}
	],
	"meshes": [
		{
			"name": "SM_Egg",
			"primitives": [
				{
					"attributes":
					{
						"POSITION": 1,
						"NORMAL": 2,
						"TANGENT": 3,
						"TEXCOORD_0": 4,
						"TEXCOORD_1": 5
					},
					"indices": 0,
					"material": 0
				}
			]
		}
	],
	"nodes": [
		{
			"mesh": 0
		}
	],
	"samplers": [
		{
			"minFilter": 9987,
			"magFilter": 9729
		}
	],
	"scenes": [
		{
			"nodes": [ 0 ]
		}
	],
	"textures": [
		{
			"name": "WorldGridMaterial_BaseColor",
			"sampler": 0,
			"source": 0
		},
		{
			"name": "WorldGridMaterial_MetallicRoughness",
			"sampler": 0,
			"source": 1
		},
		{
			"name": "WorldGridMaterial_Normal",
			"sampler": 0,
			"source": 2
		}
	]
}