{
	"asset":
	{
		"version": "2.0",
		"generator": "Unreal Engine 5.6.1"
	},
	"scene": 0,
	"accessors": [
		{
			"bufferView": 0,
			"count": 1068,
			"type": "SCALAR",
			"componentType": 5123
		},
		{
			"bufferView": 1,
			"count": 508,
			"type": "VEC3",
			"componentType": 5126,
			"min": [ 9.15527323e-07, -0.0371808931, -3.05175774e-07 ],
			"max": [ 6.00000095, 0.0451414958, 6 ]
		},
		{
			"bufferView": 2,
			"count": 508,
			"type": "VEC3",
			"componentType": 5126
		},
		{
			"bufferView": 3,
			"count": 508,
			"type": "VEC4",
			"componentType": 5126
		},
		{
			"bufferView": 4,
			"count": 508,
			"type": "VEC2",
			"componentType": 5126
		},
		{
			"bufferView": 5,
			"count": 508,
			"type": "VEC2",
			"componentType": 5126
		}
	],
	"buffers": [
		{
			"uri": "SM_floor_03_4518BDA7.bin",
			"byteLength": 30584
		}
	],
	"bufferViews": [
		{
			"buffer": 0,
			"byteLength": 2136,
			"target": 34963
		},
		{
			"buffer": 0,
			"byteLength": 6096,
			"byteOffset": 2136,
			"target": 34962
		},
		{
			"buffer": 0,
			"byteLength": 6096,
			"byteOffset": 8232,
			"target": 34962
		},
		{
			"buffer": 0,
			"byteLength": 8128,
			"byteOffset": 14328,
			"target": 34962
		},
		{
			"buffer": 0,
			"byteLength": 4064,
			"byteOffset": 22456,
			"target": 34962
		},
		{
			"buffer": 0,
			"byteLength": 4064,
			"byteOffset": 26520,
			"target": 34962
		}
	],
	"images": [
		{
			"uri": "MI_floor_01_MetallicRoughness.png"
		},
		{
			"uri": "MI_floor_01_Occlusion.png"
		},
		{
			"uri": "T_floor01_C.png"
		},
		{
			"uri": "T_floor01_N.png"
		}
	],
	"materials": [
		{
			"name": "MI_floor_01",
			"pbrMetallicRoughness":
			{
				"baseColorTexture":
				{
					"index": 0
				},
				"metallicRoughnessTexture":
				{
					"index": 1
				}
			},
			"normalTexture":
			{
				"index": 2
			},
			"occlusionTexture":
			{
				"index": 3
			},
			"doubleSided": true
		}
	],
	"meshes": [
		{
			"name": "SM_floor_03",
			"primitives": [
				{
					"attributes":
					{
						"POSITION": 1,
						"NORMAL": 2,
						"TANGENT": 3,
						"TEXCOORD_0": 4,
						"TEXCOORD_1": 5
					},
					"indices": 0,
					"material": 0
				}
			]
		}
	],
	"nodes": [
		{
			"mesh": 0
		}
	],
	"samplers": [
		{
			"minFilter": 9987,
			"magFilter": 9729
		}
	],
	"scenes": [
		{
			"nodes": [ 0 ]
		}
	],
	"textures": [
		{
			"name": "T_floor01_C",
			"sampler": 0,
			"source": 2
		},
		{
			"name": "MI_floor_01_MetallicRoughness",
			"sampler": 0,
			"source": 0
		},
		{
			"name": "T_floor01_N",
			"sampler": 0,
			"source": 3
		},
		{
			"name": "MI_floor_01_Occlusion",
			"sampler": 0,
			"source": 1
		}
	]
}