{
	"asset":
	{
		"version": "2.0",
		"generator": "Unreal Engine 5.6.1"
	},
	"scene": 0,
	"accessors": [
		{
			"bufferView": 0,
			"count": 7182,
			"type": "SCALAR",
			"componentType": 5123
		},
		{
			"bufferView": 1,
			"count": 2056,
			"type": "VEC3",
			"componentType": 5126,
			"min": [ -3.64664078, -0.167023003, -3.64669633 ],
			"max": [ 3.6466198, 4.45831966, 3.64664388 ]
		},
		{
			"bufferView": 2,
			"count": 2056,
			"type": "VEC3",
			"componentType": 5126
		},
		{
			"bufferView": 3,
			"count": 2056,
			"type": "VEC4",
			"componentType": 5126
		},
		{
			"bufferView": 4,
			"count": 2056,
			"type": "VEC2",
			"componentType": 5126
		},
		{
			"bufferView": 5,
			"count": 2056,
			"type": "VEC2",
			"componentType": 5126
		}
	],
	"buffers": [
		{
			"uri": "SM_Fountain_00_9A9CDA5C.bin",
			"byteLength": 129500
		}
	],
	"bufferViews": [
		{
			"buffer": 0,
			"byteLength": 14364,
			"target": 34963
		},
		{
			"buffer": 0,
			"byteLength": 24672,
			"byteOffset": 14364,
			"target": 34962
		},
		{
			"buffer": 0,
			"byteLength": 24672,
			"byteOffset": 39036,
			"target": 34962
		},
		{
			"buffer": 0,
			"byteLength": 32896,
			"byteOffset": 63708,
			"target": 34962
		},
		{
			"buffer": 0,
			"byteLength": 16448,
			"byteOffset": 96604,
			"target": 34962
		},
		{
			"buffer": 0,
			"byteLength": 16448,
			"byteOffset": 113052,
			"target": 34962
		}
	],
	"images": [
		{
			"uri": "M_Fountain_MetallicRoughness.png"
		},
		{
			"uri": "M_Fountain_Occlusion.png"
		},
		{
			"uri": "T_Fountain_Dif_sRGB.png"
		},
		{
			"uri": "T_Fountain_NM.png"
		}
	],
	"materials": [
		{
			"name": "M_Fountain",
			"pbrMetallicRoughness":
			{
				"baseColorTexture":
				{
					"index": 0
				},
				"metallicRoughnessTexture":
				{
					"index": 1
				}
			},
			"normalTexture":
			{
				"index": 2
			},
			"occlusionTexture":
			{
				"index": 3
			}
		}
	],
	"meshes": [
		{
			"name": "SM_Fountain_00",
			"primitives": [
				{
					"attributes":
					{
						"POSITION": 1,
						"NORMAL": 2,
						"TANGENT": 3,
						"TEXCOORD_0": 4,
						"TEXCOORD_1": 5
					},
					"indices": 0,
					"material": 0
				}
			]
		}
	],
	"nodes": [
		{
			"mesh": 0
		}
	],
	"samplers": [
		{
			"minFilter": 9987,
			"magFilter": 9729
		}
	],
	"scenes": [
		{
			"nodes": [ 0 ]
		}
	],
	"textures": [
		{
			"name": "T_Fountain_Dif_sRGB",
			"sampler": 0,
			"source": 2
		},
		{
			"name": "M_Fountain_MetallicRoughness",
			"sampler": 0,
			"source": 0
		},
		{
			"name": "T_Fountain_NM",
			"sampler": 0,
			"source": 3
		},
		{
			"name": "M_Fountain_Occlusion",
			"sampler": 0,
			"source": 1
		}
	]
}