{
	"asset":
	{
		"version": "2.0",
		"generator": "Unreal Engine 5.6.1"
	},
	"scene": 0,
	"accessors": [
		{
			"bufferView": 0,
			"count": 3030,
			"type": "SCALAR",
			"componentType": 5123
		},
		{
			"bufferView": 1,
			"count": 965,
			"type": "VEC3",
			"componentType": 5126,
			"min": [ -1.00000012, -2.27209855e-17, -0.492640138 ],
			"max": [ 1.00000012, 0.8247087, 0.512640119 ]
		},
		{
			"bufferView": 2,
			"count": 965,
			"type": "VEC3",
			"componentType": 5126
		},
		{
			"bufferView": 3,
			"count": 965,
			"type": "VEC4",
			"componentType": 5126
		},
		{
			"bufferView": 4,
			"count": 965,
			"type": "VEC2",
			"componentType": 5126
		},
		{
			"bufferView": 5,
			"count": 965,
			"type": "VEC2",
			"componentType": 5126
		}
	],
	"buffers": [
		{
			"uri": "SM_feast_table_01.bin",
			"byteLength": 60100
		}
	],
	"bufferViews": [
		{
			"buffer": 0,
			"byteLength": 6060,
			"target": 34963
		},
		{
			"buffer": 0,
			"byteLength": 11580,
			"byteOffset": 6060,
			"target": 34962
		},
		{
			"buffer": 0,
			"byteLength": 11580,
			"byteOffset": 17640,
			"target": 34962
		},
		{
			"buffer": 0,
			"byteLength": 15440,
			"byteOffset": 29220,
			"target": 34962
		},
		{
			"buffer": 0,
			"byteLength": 7720,
			"byteOffset": 44660,
			"target": 34962
		},
		{
			"buffer": 0,
			"byteLength": 7720,
			"byteOffset": 52380,
			"target": 34962
		}
	],
	"images": [
		{
			"uri": "MI_Furniture_01_MetallicRoughness.png"
		},
		{
			"uri": "T_Furniture_01_C.png"
		},
		{
			"uri": "T_Furniture_01_N.png"
		},
		{
			"uri": "T_Furniture_01_M.png"
		}
	],
	"materials": [
		{
			"name": "MI_Furniture_01",
			"pbrMetallicRoughness":
			{
				"baseColorTexture":
				{
					"index": 0
				},
				"metallicRoughnessTexture":
				{
					"index": 1
				}
			},
			"normalTexture":
			{
				"index": 2
			},
			"occlusionTexture":
			{
				"index": 3
			}
		}
	],
	"meshes": [
		{
			"name": "SM_feast_table_01",
			"primitives": [
				{
					"attributes":
					{
						"POSITION": 1,
						"NORMAL": 2,
						"TANGENT": 3,
						"TEXCOORD_0": 4,
						"TEXCOORD_1": 5
					},
					"indices": 0,
					"material": 0
				}
			]
		}
	],
	"nodes": [
		{
			"mesh": 0
		}
	],
	"samplers": [
		{
			"minFilter": 9987,
			"magFilter": 9729
		}
	],
	"scenes": [
		{
			"nodes": [ 0 ]
		}
	],
	"textures": [
		{
			"name": "T_Furniture_01_C",
			"sampler": 0,
			"source": 1
		},
		{
			"name": "MI_Furniture_01_MetallicRoughness",
			"sampler": 0,
			"source": 0
		},
		{
			"name": "T_Furniture_01_N",
			"sampler": 0,
			"source": 2
		},
		{
			"name": "T_Furniture_01_M",
			"sampler": 0,
			"source": 3
		}
	]
}