{
	"asset":
	{
		"version": "2.0",
		"generator": "Unreal Engine 5.6.1"
	},
	"scene": 0,
	"accessors": [
		{
			"bufferView": 0,
			"count": 5643,
			"type": "SCALAR",
			"componentType": 5123
		},
		{
			"bufferView": 1,
			"count": 1547,
			"type": "VEC3",
			"componentType": 5126,
			"min": [ -2.29153156, -1.48773188e-06, -2.29153061 ],
			"max": [ 2.29153156, 4.49843073, 2.29153061 ]
		},
		{
			"bufferView": 2,
			"count": 1547,
			"type": "VEC3",
			"componentType": 5126
		},
		{
			"bufferView": 3,
			"count": 1547,
			"type": "VEC4",
			"componentType": 5126
		},
		{
			"bufferView": 4,
			"count": 1547,
			"type": "VEC2",
			"componentType": 5126
		},
		{
			"bufferView": 5,
			"count": 1547,
			"type": "VEC2",
			"componentType": 5126
		}
	],
	"buffers": [
		{
			"uri": "SM_fountain_01.bin",
			"byteLength": 97920
		}
	],
	"bufferViews": [
		{
			"buffer": 0,
			"byteLength": 11286,
			"target": 34963
		},
		{
			"buffer": 0,
			"byteLength": 18564,
			"byteOffset": 11288,
			"target": 34962
		},
		{
			"buffer": 0,
			"byteLength": 18564,
			"byteOffset": 29852,
			"target": 34962
		},
		{
			"buffer": 0,
			"byteLength": 24752,
			"byteOffset": 48416,
			"target": 34962
		},
		{
			"buffer": 0,
			"byteLength": 12376,
			"byteOffset": 73168,
			"target": 34962
		},
		{
			"buffer": 0,
			"byteLength": 12376,
			"byteOffset": 85544,
			"target": 34962
		}
	],
	"images": [
		{
			"uri": "T_Fountain_C.png"
		},
		{
			"uri": "T_Fountain_M_Linear.png"
		},
		{
			"uri": "T_Fountain_N.png"
		}
	],
	"materials": [
		{
			"name": "MI_Fountain",
			"pbrMetallicRoughness":
			{
				"baseColorTexture":
				{
					"index": 0
				},
				"metallicRoughnessTexture":
				{
					"index": 1
				}
			},
			"normalTexture":
			{
				"index": 2
			},
			"occlusionTexture":
			{
				"index": 1
			}
		}
	],
	"meshes": [
		{
			"name": "SM_fountain_01",
			"primitives": [
				{
					"attributes":
					{
						"POSITION": 1,
						"NORMAL": 2,
						"TANGENT": 3,
						"TEXCOORD_0": 4,
						"TEXCOORD_1": 5
					},
					"indices": 0,
					"material": 0
				}
			]
		}
	],
	"nodes": [
		{
			"mesh": 0
		}
	],
	"samplers": [
		{
			"minFilter": 9987,
			"magFilter": 9729
		}
	],
	"scenes": [
		{
			"nodes": [ 0 ]
		}
	],
	"textures": [
		{
			"name": "T_Fountain_C",
			"sampler": 0,
			"source": 0
		},
		{
			"name": "T_Fountain_M_Linear",
			"sampler": 0,
			"source": 1
		},
		{
			"name": "T_Fountain_N",
			"sampler": 0,
			"source": 2
		}
	]
}