{
	"asset":
	{
		"version": "2.0",
		"generator": "Unreal Engine 5.6.1"
	},
	"scene": 0,
	"accessors": [
		{
			"bufferView": 0,
			"count": 6,
			"type": "SCALAR",
			"componentType": 5121
		},
		{
			"bufferView": 1,
			"count": 4,
			"type": "VEC3",
			"componentType": 5126,
			"min": [ 1.56620342e-06, -6.94999586e-16, -5.38696042e-07 ],
			"max": [ 3.00000119, -5.12923025e-16, 2.99999952 ]
		},
		{
			"bufferView": 2,
			"count": 4,
			"type": "VEC3",
			"componentType": 5126
		},
		{
			"bufferView": 3,
			"count": 4,
			"type": "VEC4",
			"componentType": 5126
		},
		{
			"bufferView": 4,
			"count": 4,
			"type": "VEC2",
			"componentType": 5126
		},
		{
			"bufferView": 5,
			"count": 4,
			"type": "VEC2",
			"componentType": 5126
		}
	],
	"buffers": [
		{
			"uri": "SM_floor_02_F8762488.bin",
			"byteLength": 232
		}
	],
	"bufferViews": [
		{
			"buffer": 0,
			"byteLength": 6,
			"target": 34963
		},
		{
			"buffer": 0,
			"byteLength": 48,
			"byteOffset": 8,
			"target": 34962
		},
		{
			"buffer": 0,
			"byteLength": 48,
			"byteOffset": 56,
			"target": 34962
		},
		{
			"buffer": 0,
			"byteLength": 64,
			"byteOffset": 104,
			"target": 34962
		},
		{
			"buffer": 0,
			"byteLength": 32,
			"byteOffset": 168,
			"target": 34962
		},
		{
			"buffer": 0,
			"byteLength": 32,
			"byteOffset": 200,
			"target": 34962
		}
	],
	"images": [
		{
			"uri": "MI_floor_01_MetallicRoughness.png"
		},
		{
			"uri": "MI_floor_01_Occlusion.png"
		},
		{
			"uri": "T_floor01_C.png"
		},
		{
			"uri": "T_floor01_N.png"
		}
	],
	"materials": [
		{
			"name": "MI_floor_01",
			"pbrMetallicRoughness":
			{
				"baseColorTexture":
				{
					"index": 0
				},
				"metallicRoughnessTexture":
				{
					"index": 1
				}
			},
			"normalTexture":
			{
				"index": 2
			},
			"occlusionTexture":
			{
				"index": 3
			},
			"doubleSided": true
		}
	],
	"meshes": [
		{
			"name": "SM_floor_02",
			"primitives": [
				{
					"attributes":
					{
						"POSITION": 1,
						"NORMAL": 2,
						"TANGENT": 3,
						"TEXCOORD_0": 4,
						"TEXCOORD_1": 5
					},
					"indices": 0,
					"material": 0
				}
			]
		}
	],
	"nodes": [
		{
			"mesh": 0
		}
	],
	"samplers": [
		{
			"minFilter": 9987,
			"magFilter": 9729
		}
	],
	"scenes": [
		{
			"nodes": [ 0 ]
		}
	],
	"textures": [
		{
			"name": "T_floor01_C",
			"sampler": 0,
			"source": 2
		},
		{
			"name": "MI_floor_01_MetallicRoughness",
			"sampler": 0,
			"source": 0
		},
		{
			"name": "T_floor01_N",
			"sampler": 0,
			"source": 3
		},
		{
			"name": "MI_floor_01_Occlusion",
			"sampler": 0,
			"source": 1
		}
	]
}