{
	"asset":
	{
		"version": "2.0",
		"generator": "Unreal Engine 5.6.1"
	},
	"scene": 0,
	"accessors": [
		{
			"bufferView": 0,
			"count": 3486,
			"type": "SCALAR",
			"componentType": 5123
		},
		{
			"bufferView": 1,
			"count": 2102,
			"type": "VEC3",
			"componentType": 5126,
			"min": [ -1.96610856, -0.0216097403, -0.0410787091 ],
			"max": [ 1.96693325, 4.52451372, 0.0543323606 ]
		},
		{
			"bufferView": 2,
			"count": 2102,
			"type": "VEC3",
			"componentType": 5126
		},
		{
			"bufferView": 3,
			"count": 2102,
			"type": "VEC4",
			"componentType": 5126
		},
		{
			"bufferView": 4,
			"count": 2102,
			"type": "VEC2",
			"componentType": 5126
		},
		{
			"bufferView": 5,
			"count": 2102,
			"type": "VEC2",
			"componentType": 5126
		}
	],
	"buffers": [
		{
			"uri": "SM_gate_door_02_731B326B.bin",
			"byteLength": 124684
		}
	],
	"bufferViews": [
		{
			"buffer": 0,
			"byteLength": 6972,
			"target": 34963
		},
		{
			"buffer": 0,
			"byteLength": 25224,
			"byteOffset": 6972,
			"target": 34962
		},
		{
			"buffer": 0,
			"byteLength": 25224,
			"byteOffset": 32196,
			"target": 34962
		},
		{
			"buffer": 0,
			"byteLength": 33632,
			"byteOffset": 57420,
			"target": 34962
		},
		{
			"buffer": 0,
			"byteLength": 16816,
			"byteOffset": 91052,
			"target": 34962
		},
		{
			"buffer": 0,
			"byteLength": 16816,
			"byteOffset": 107868,
			"target": 34962
		}
	],
	"images": [
		{
			"uri": "T_Metal_Trim_C.png"
		},
		{
			"uri": "T_Metal_Trim_M.png"
		},
		{
			"uri": "T_Metal_Trim_N.png"
		}
	],
	"materials": [
		{
			"name": "MI_Metall_Trim_01",
			"pbrMetallicRoughness":
			{
				"baseColorTexture":
				{
					"index": 0
				},
				"metallicRoughnessTexture":
				{
					"index": 1
				}
			},
			"normalTexture":
			{
				"index": 2
			},
			"occlusionTexture":
			{
				"index": 1
			}
		}
	],
	"meshes": [
		{
			"name": "SM_gate_door_02",
			"primitives": [
				{
					"attributes":
					{
						"POSITION": 1,
						"NORMAL": 2,
						"TANGENT": 3,
						"TEXCOORD_0": 4,
						"TEXCOORD_1": 5
					},
					"indices": 0,
					"material": 0
				}
			]
		}
	],
	"nodes": [
		{
			"mesh": 0
		}
	],
	"samplers": [
		{
			"minFilter": 9987,
			"magFilter": 9729
		}
	],
	"scenes": [
		{
			"nodes": [ 0 ]
		}
	],
	"textures": [
		{
			"name": "T_Metal_Trim_C",
			"sampler": 0,
			"source": 0
		},
		{
			"name": "T_Metal_Trim_M",
			"sampler": 0,
			"source": 1
		},
		{
			"name": "T_Metal_Trim_N",
			"sampler": 0,
			"source": 2
		}
	]
}