{
	"asset":
	{
		"version": "2.0",
		"generator": "Unreal Engine 5.6.1"
	},
	"scene": 0,
	"accessors": [
		{
			"bufferView": 0,
			"count": 5499,
			"type": "SCALAR",
			"componentType": 5123
		},
		{
			"bufferView": 1,
			"count": 3463,
			"type": "VEC3",
			"componentType": 5126,
			"min": [ -4.00639677, -0.0494406372, -0.101355381 ],
			"max": [ 3.97663045, 18.9300995, 0.108052135 ]
		},
		{
			"bufferView": 2,
			"count": 3463,
			"type": "VEC3",
			"componentType": 5126
		},
		{
			"bufferView": 3,
			"count": 3463,
			"type": "VEC4",
			"componentType": 5126
		},
		{
			"bufferView": 4,
			"count": 3463,
			"type": "VEC2",
			"componentType": 5126
		},
		{
			"bufferView": 5,
			"count": 3463,
			"type": "VEC2",
			"componentType": 5126
		}
	],
	"buffers": [
		{
			"uri": "SM_gate_big_01.bin",
			"byteLength": 204928
		}
	],
	"bufferViews": [
		{
			"buffer": 0,
			"byteLength": 10998,
			"target": 34963
		},
		{
			"buffer": 0,
			"byteLength": 41556,
			"byteOffset": 11000,
			"target": 34962
		},
		{
			"buffer": 0,
			"byteLength": 41556,
			"byteOffset": 52556,
			"target": 34962
		},
		{
			"buffer": 0,
			"byteLength": 55408,
			"byteOffset": 94112,
			"target": 34962
		},
		{
			"buffer": 0,
			"byteLength": 27704,
			"byteOffset": 149520,
			"target": 34962
		},
		{
			"buffer": 0,
			"byteLength": 27704,
			"byteOffset": 177224,
			"target": 34962
		}
	],
	"images": [
		{
			"uri": "T_Metal_Trim_C.png"
		},
		{
			"uri": "T_Metal_Trim_M.png"
		},
		{
			"uri": "T_Metal_Trim_N.png"
		}
	],
	"materials": [
		{
			"name": "MI_Metall_Trim_01",
			"pbrMetallicRoughness":
			{
				"baseColorTexture":
				{
					"index": 0
				},
				"metallicRoughnessTexture":
				{
					"index": 1
				}
			},
			"normalTexture":
			{
				"index": 2
			},
			"occlusionTexture":
			{
				"index": 1
			}
		}
	],
	"meshes": [
		{
			"name": "SM_gate_big_01",
			"primitives": [
				{
					"attributes":
					{
						"POSITION": 1,
						"NORMAL": 2,
						"TANGENT": 3,
						"TEXCOORD_0": 4,
						"TEXCOORD_1": 5
					},
					"indices": 0,
					"material": 0
				}
			]
		}
	],
	"nodes": [
		{
			"mesh": 0
		}
	],
	"samplers": [
		{
			"minFilter": 9987,
			"magFilter": 9729
		}
	],
	"scenes": [
		{
			"nodes": [ 0 ]
		}
	],
	"textures": [
		{
			"name": "T_Metal_Trim_C",
			"sampler": 0,
			"source": 0
		},
		{
			"name": "T_Metal_Trim_M",
			"sampler": 0,
			"source": 1
		},
		{
			"name": "T_Metal_Trim_N",
			"sampler": 0,
			"source": 2
		}
	]
}