{
	"asset":
	{
		"version": "2.0",
		"generator": "Unreal Engine 5.6.1"
	},
	"scene": 0,
	"accessors": [
		{
			"bufferView": 0,
			"count": 3690,
			"type": "SCALAR",
			"componentType": 5123
		},
		{
			"bufferView": 1,
			"count": 1337,
			"type": "VEC3",
			"componentType": 5126,
			"min": [ -0.0335559063, -0.487210602, -0.0574170426 ],
			"max": [ 1.4932667, 2.70759273, 0.049448546 ]
		},
		{
			"bufferView": 2,
			"count": 1337,
			"type": "VEC3",
			"componentType": 5126
		},
		{
			"bufferView": 3,
			"count": 1337,
			"type": "VEC4",
			"componentType": 5126
		},
		{
			"bufferView": 4,
			"count": 1337,
			"type": "VEC2",
			"componentType": 5126
		},
		{
			"bufferView": 5,
			"count": 1337,
			"type": "VEC2",
			"componentType": 5126
		}
	],
	"buffers": [
		{
			"uri": "SM_gate_door_01_B1F0ACCE.bin",
			"byteLength": 82252
		}
	],
	"bufferViews": [
		{
			"buffer": 0,
			"byteLength": 7380,
			"target": 34963
		},
		{
			"buffer": 0,
			"byteLength": 16044,
			"byteOffset": 7380,
			"target": 34962
		},
		{
			"buffer": 0,
			"byteLength": 16044,
			"byteOffset": 23424,
			"target": 34962
		},
		{
			"buffer": 0,
			"byteLength": 21392,
			"byteOffset": 39468,
			"target": 34962
		},
		{
			"buffer": 0,
			"byteLength": 10696,
			"byteOffset": 60860,
			"target": 34962
		},
		{
			"buffer": 0,
			"byteLength": 10696,
			"byteOffset": 71556,
			"target": 34962
		}
	],
	"images": [
		{
			"uri": "T_Metal_Trim_C.png"
		},
		{
			"uri": "T_Metal_Trim_M.png"
		},
		{
			"uri": "T_Metal_Trim_N.png"
		}
	],
	"materials": [
		{
			"name": "MI_Metall_Trim_01",
			"pbrMetallicRoughness":
			{
				"baseColorTexture":
				{
					"index": 0
				},
				"metallicRoughnessTexture":
				{
					"index": 1
				}
			},
			"normalTexture":
			{
				"index": 2
			},
			"occlusionTexture":
			{
				"index": 1
			}
		}
	],
	"meshes": [
		{
			"name": "SM_gate_door_01",
			"primitives": [
				{
					"attributes":
					{
						"POSITION": 1,
						"NORMAL": 2,
						"TANGENT": 3,
						"TEXCOORD_0": 4,
						"TEXCOORD_1": 5
					},
					"indices": 0,
					"material": 0
				}
			]
		}
	],
	"nodes": [
		{
			"mesh": 0
		}
	],
	"samplers": [
		{
			"minFilter": 9987,
			"magFilter": 9729
		}
	],
	"scenes": [
		{
			"nodes": [ 0 ]
		}
	],
	"textures": [
		{
			"name": "T_Metal_Trim_C",
			"sampler": 0,
			"source": 0
		},
		{
			"name": "T_Metal_Trim_M",
			"sampler": 0,
			"source": 1
		},
		{
			"name": "T_Metal_Trim_N",
			"sampler": 0,
			"source": 2
		}
	]
}