{
	"asset":
	{
		"version": "2.0",
		"generator": "Unreal Engine 5.6.1"
	},
	"scene": 0,
	"accessors": [
		{
			"bufferView": 0,
			"count": 234,
			"type": "SCALAR",
			"componentType": 5121
		},
		{
			"bufferView": 1,
			"count": 140,
			"type": "VEC3",
			"componentType": 5126,
			"min": [ -1.88708985, -14.5996599, -0.655195296 ],
			"max": [ 6.26816416, 0.0228853561, 12.5378122 ]
		},
		{
			"bufferView": 2,
			"count": 140,
			"type": "VEC3",
			"componentType": 5126
		},
		{
			"bufferView": 3,
			"count": 140,
			"type": "VEC4",
			"componentType": 5126
		},
		{
			"bufferView": 4,
			"count": 140,
			"type": "VEC2",
			"componentType": 5126
		},
		{
			"bufferView": 5,
			"count": 140,
			"type": "VEC2",
			"componentType": 5126
		},
		{
			"bufferView": 6,
			"count": 209397,
			"type": "SCALAR",
			"componentType": 5125
		},
		{
			"bufferView": 7,
			"count": 74999,
			"type": "VEC3",
			"componentType": 5126,
			"min": [ -5.21519518, -14.7786179, -2.13421869 ],
			"max": [ 7.05451155, 4.5171752, 15.8596287 ]
		},
		{
			"bufferView": 8,
			"count": 74999,
			"type": "VEC3",
			"componentType": 5126
		},
		{
			"bufferView": 9,
			"count": 74999,
			"type": "VEC4",
			"componentType": 5126
		},
		{
			"bufferView": 10,
			"count": 74999,
			"type": "VEC2",
			"componentType": 5126
		},
		{
			"bufferView": 11,
			"count": 74999,
			"type": "VEC2",
			"componentType": 5126
		},
		{
			"bufferView": 12,
			"count": 580935,
			"type": "SCALAR",
			"componentType": 5125
		},
		{
			"bufferView": 13,
			"count": 165759,
			"type": "VEC3",
			"componentType": 5126,
			"min": [ -1.75343752, -14.6541157, -0.617578089 ],
			"max": [ 5.43755865, -4.62368155, 12.2001753 ]
		},
		{
			"bufferView": 14,
			"count": 165759,
			"type": "VEC3",
			"componentType": 5126
		},
		{
			"bufferView": 15,
			"count": 165759,
			"type": "VEC4",
			"componentType": 5126
		},
		{
			"bufferView": 16,
			"count": 165759,
			"type": "VEC2",
			"componentType": 5126
		},
		{
			"bufferView": 17,
			"count": 165759,
			"type": "VEC2",
			"componentType": 5126
		},
		{
			"bufferView": 18,
			"count": 129879,
			"type": "SCALAR",
			"componentType": 5123
		},
		{
			"bufferView": 19,
			"count": 39966,
			"type": "VEC3",
			"componentType": 5126,
			"min": [ -1.01968753, -13.991972, 0.577753901 ],
			"max": [ 2.7585156, -3.73225331, 8.94419861 ]
		},
		{
			"bufferView": 20,
			"count": 39966,
			"type": "VEC3",
			"componentType": 5126
		},
		{
			"bufferView": 21,
			"count": 39966,
			"type": "VEC4",
			"componentType": 5126
		},
		{
			"bufferView": 22,
			"count": 39966,
			"type": "VEC2",
			"componentType": 5126
		},
		{
			"bufferView": 23,
			"count": 39966,
			"type": "VEC2",
			"componentType": 5126
		},
		{
			"bufferView": 24,
			"count": 9144,
			"type": "SCALAR",
			"componentType": 5123
		},
		{
			"bufferView": 25,
			"count": 2328,
			"type": "VEC3",
			"componentType": 5126,
			"min": [ -0.991562486, -13.7513599, 0.609902322 ],
			"max": [ 2.74644518, -4.64264154, 8.93216801 ]
		},
		{
			"bufferView": 26,
			"count": 2328,
			"type": "VEC3",
			"componentType": 5126
		},
		{
			"bufferView": 27,
			"count": 2328,
			"type": "VEC4",
			"componentType": 5126
		},
		{
			"bufferView": 28,
			"count": 2328,
			"type": "VEC2",
			"componentType": 5126
		},
		{
			"bufferView": 29,
			"count": 2328,
			"type": "VEC2",
			"componentType": 5126
		},
		{
			"bufferView": 30,
			"count": 312,
			"type": "SCALAR",
			"componentType": 5121
		},
		{
			"bufferView": 31,
			"count": 208,
			"type": "VEC3",
			"componentType": 5126,
			"min": [ -0.980410159, -13.5638227, 0.61980468 ],
			"max": [ 2.73443365, -4.58830547, 8.92017555 ]
		},
		{
			"bufferView": 32,
			"count": 208,
			"type": "VEC3",
			"componentType": 5126
		},
		{
			"bufferView": 33,
			"count": 208,
			"type": "VEC4",
			"componentType": 5126
		},
		{
			"bufferView": 34,
			"count": 208,
			"type": "VEC2",
			"componentType": 5126
		},
		{
			"bufferView": 35,
			"count": 208,
			"type": "VEC2",
			"componentType": 5126
		},
		{
			"bufferView": 36,
			"count": 18144,
			"type": "SCALAR",
			"componentType": 5123
		},
		{
			"bufferView": 37,
			"count": 5616,
			"type": "VEC3",
			"componentType": 5126,
			"min": [ -0.724433601, -15.1912203, -0.537207007 ],
			"max": [ 3.42380857, -13.664216, 0.857578099 ]
		},
		{
			"bufferView": 38,
			"count": 5616,
			"type": "VEC3",
			"componentType": 5126
		},
		{
			"bufferView": 39,
			"count": 5616,
			"type": "VEC4",
			"componentType": 5126
		},
		{
			"bufferView": 40,
			"count": 5616,
			"type": "VEC2",
			"componentType": 5126
		},
		{
			"bufferView": 41,
			"count": 5616,
			"type": "VEC2",
			"componentType": 5126
		},
		{
			"bufferView": 42,
			"count": 2508,
			"type": "SCALAR",
			"componentType": 5123
		},
		{
			"bufferView": 43,
			"count": 740,
			"type": "VEC3",
			"componentType": 5126,
			"min": [ -5.08468723, -12.9585228, -1.16945314 ],
			"max": [ 5.68603516, 1.97213864, 15.6293745 ]
		},
		{
			"bufferView": 44,
			"count": 740,
			"type": "VEC3",
			"componentType": 5126
		},
		{
			"bufferView": 45,
			"count": 740,
			"type": "VEC4",
			"componentType": 5126
		},
		{
			"bufferView": 46,
			"count": 740,
			"type": "VEC2",
			"componentType": 5126
		},
		{
			"bufferView": 47,
			"count": 740,
			"type": "VEC2",
			"componentType": 5126
		},
		{
			"bufferView": 48,
			"count": 115857,
			"type": "SCALAR",
			"componentType": 5123
		},
		{
			"bufferView": 49,
			"count": 34941,
			"type": "VEC3",
			"componentType": 5126,
			"min": [ -3.41492176, -14.8923826, 2.11376953 ],
			"max": [ -0.936718702, -2.00758791, 13.6404686 ]
		},
		{
			"bufferView": 50,
			"count": 34941,
			"type": "VEC3",
			"componentType": 5126
		},
		{
			"bufferView": 51,
			"count": 34941,
			"type": "VEC4",
			"componentType": 5126
		},
		{
			"bufferView": 52,
			"count": 34941,
			"type": "VEC2",
			"componentType": 5126
		},
		{
			"bufferView": 53,
			"count": 34941,
			"type": "VEC2",
			"componentType": 5126
		},
		{
			"bufferView": 54,
			"count": 115857,
			"type": "SCALAR",
			"componentType": 5123
		},
		{
			"bufferView": 55,
			"count": 34941,
			"type": "VEC3",
			"componentType": 5126,
			"min": [ -3.29099607, -14.8506098, 2.40753889 ],
			"max": [ -0.795253873, -1.96632802, 13.9419527 ]
		},
		{
			"bufferView": 56,
			"count": 34941,
			"type": "VEC3",
			"componentType": 5126
		},
		{
			"bufferView": 57,
			"count": 34941,
			"type": "VEC4",
			"componentType": 5126
		},
		{
			"bufferView": 58,
			"count": 34941,
			"type": "VEC2",
			"componentType": 5126
		},
		{
			"bufferView": 59,
			"count": 34941,
			"type": "VEC2",
			"componentType": 5126
		},
		{
			"bufferView": 60,
			"count": 434223,
			"type": "SCALAR",
			"componentType": 5125
		},
		{
			"bufferView": 61,
			"count": 129567,
			"type": "VEC3",
			"componentType": 5126,
			"min": [ -5.76185513, -10.9416475, -1.64900386 ],
			"max": [ 6.23419905, 4.10554171, 16.4846878 ]
		},
		{
			"bufferView": 62,
			"count": 129567,
			"type": "VEC3",
			"componentType": 5126
		},
		{
			"bufferView": 63,
			"count": 129567,
			"type": "VEC4",
			"componentType": 5126
		},
		{
			"bufferView": 64,
			"count": 129567,
			"type": "VEC2",
			"componentType": 5126
		},
		{
			"bufferView": 65,
			"count": 129567,
			"type": "VEC2",
			"componentType": 5126
		},
		{
			"bufferView": 66,
			"count": 32208,
			"type": "SCALAR",
			"componentType": 5123
		},
		{
			"bufferView": 67,
			"count": 10248,
			"type": "VEC3",
			"componentType": 5126,
			"min": [ -3.1242578, -14.8094435, -2.16521478 ],
			"max": [ 6.8498435, 2.63734126, 14.2342968 ]
		},
		{
			"bufferView": 68,
			"count": 10248,
			"type": "VEC3",
			"componentType": 5126
		},
		{
			"bufferView": 69,
			"count": 10248,
			"type": "VEC4",
			"componentType": 5126
		},
		{
			"bufferView": 70,
			"count": 10248,
			"type": "VEC2",
			"componentType": 5126
		},
		{
			"bufferView": 71,
			"count": 10248,
			"type": "VEC2",
			"componentType": 5126
		},
		{
			"bufferView": 72,
			"count": 1371,
			"type": "SCALAR",
			"componentType": 5123
		},
		{
			"bufferView": 73,
			"count": 593,
			"type": "VEC3",
			"componentType": 5126,
			"min": [ -1.22148514, -7.60411358, -1.12736237 ],
			"max": [ 5.14701748, 3.79336166, 11.9541063 ]
		},
		{
			"bufferView": 74,
			"count": 593,
			"type": "VEC3",
			"componentType": 5126
		},
		{
			"bufferView": 75,
			"count": 593,
			"type": "VEC4",
			"componentType": 5126
		},
		{
			"bufferView": 76,
			"count": 593,
			"type": "VEC2",
			"componentType": 5126
		},
		{
			"bufferView": 77,
			"count": 593,
			"type": "VEC2",
			"componentType": 5126
		},
		{
			"bufferView": 78,
			"count": 861,
			"type": "SCALAR",
			"componentType": 5123
		},
		{
			"bufferView": 79,
			"count": 304,
			"type": "VEC3",
			"componentType": 5126,
			"min": [ -2.42538452, -14.774931, -1.21249998 ],
			"max": [ 6.13167953, -7.7344141, 13.2129669 ]
		},
		{
			"bufferView": 80,
			"count": 304,
			"type": "VEC3",
			"componentType": 5126
		},
		{
			"bufferView": 81,
			"count": 304,
			"type": "VEC4",
			"componentType": 5126
		},
		{
			"bufferView": 82,
			"count": 304,
			"type": "VEC2",
			"componentType": 5126
		},
		{
			"bufferView": 83,
			"count": 304,
			"type": "VEC2",
			"componentType": 5126
		},
		{
			"bufferView": 84,
			"count": 1620,
			"type": "SCALAR",
			"componentType": 5123
		},
		{
			"bufferView": 85,
			"count": 592,
			"type": "VEC3",
			"componentType": 5126,
			"min": [ 0.306210935, -14.7455149, 10.9226561 ],
			"max": [ 3.73078108, 9.64129639, 13.4482222 ]
		},
		{
			"bufferView": 86,
			"count": 592,
			"type": "VEC3",
			"componentType": 5126
		},
		{
			"bufferView": 87,
			"count": 592,
			"type": "VEC4",
			"componentType": 5126
		},
		{
			"bufferView": 88,
			"count": 592,
			"type": "VEC2",
			"componentType": 5126
		},
		{
			"bufferView": 89,
			"count": 592,
			"type": "VEC2",
			"componentType": 5126
		},
		{
			"bufferView": 90,
			"count": 4254,
			"type": "SCALAR",
			"componentType": 5123
		},
		{
			"bufferView": 91,
			"count": 1306,
			"type": "VEC3",
			"componentType": 5126,
			"min": [ 0.51343751, -12.8661232, 11.0934181 ],
			"max": [ 3.57933593, 10.8840942, 13.2590227 ]
		},
		{
			"bufferView": 92,
			"count": 1306,
			"type": "VEC3",
			"componentType": 5126
		},
		{
			"bufferView": 93,
			"count": 1306,
			"type": "VEC4",
			"componentType": 5126
		},
		{
			"bufferView": 94,
			"count": 1306,
			"type": "VEC2",
			"componentType": 5126
		},
		{
			"bufferView": 95,
			"count": 1306,
			"type": "VEC2",
			"componentType": 5126
		},
		{
			"bufferView": 96,
			"count": 66,
			"type": "SCALAR",
			"componentType": 5121
		},
		{
			"bufferView": 97,
			"count": 36,
			"type": "VEC3",
			"componentType": 5126,
			"min": [ 0.306210935, -14.7455149, 10.9226561 ],
			"max": [ 3.73078108, 7.35107183, 13.4482222 ]
		},
		{
			"bufferView": 98,
			"count": 36,
			"type": "VEC3",
			"componentType": 5126
		},
		{
			"bufferView": 99,
			"count": 36,
			"type": "VEC4",
			"componentType": 5126
		},
		{
			"bufferView": 100,
			"count": 36,
			"type": "VEC2",
			"componentType": 5126
		},
		{
			"bufferView": 101,
			"count": 36,
			"type": "VEC2",
			"componentType": 5126
		}
	],
	"buffers": [
		{
			"uri": "SM_House_03_Merged.bin",
			"byteLength": 33890156
		}
	],
	"bufferViews": [
		{
			"buffer": 0,
			"byteLength": 234,
			"target": 34963
		},
		{
			"buffer": 0,
			"byteLength": 1680,
			"byteOffset": 236,
			"target": 34962
		},
		{
			"buffer": 0,
			"byteLength": 1680,
			"byteOffset": 1916,
			"target": 34962
		},
		{
			"buffer": 0,
			"byteLength": 2240,
			"byteOffset": 3596,
			"target": 34962
		},
		{
			"buffer": 0,
			"byteLength": 1120,
			"byteOffset": 5836,
			"target": 34962
		},
		{
			"buffer": 0,
			"byteLength": 1120,
			"byteOffset": 6956,
			"target": 34962
		},
		{
			"buffer": 0,
			"byteLength": 837588,
			"byteOffset": 8076,
			"target": 34963
		},
		{
			"buffer": 0,
			"byteLength": 899988,
			"byteOffset": 845664,
			"target": 34962
		},
		{
			"buffer": 0,
			"byteLength": 899988,
			"byteOffset": 1745652,
			"target": 34962
		},
		{
			"buffer": 0,
			"byteLength": 1199984,
			"byteOffset": 2645640,
			"target": 34962
		},
		{
			"buffer": 0,
			"byteLength": 599992,
			"byteOffset": 3845624,
			"target": 34962
		},
		{
			"buffer": 0,
			"byteLength": 599992,
			"byteOffset": 4445616,
			"target": 34962
		},
		{
			"buffer": 0,
			"byteLength": 2323740,
			"byteOffset": 5045608,
			"target": 34963
		},
		{
			"buffer": 0,
			"byteLength": 1989108,
			"byteOffset": 7369348,
			"target": 34962
		},
		{
			"buffer": 0,
			"byteLength": 1989108,
			"byteOffset": 9358456,
			"target": 34962
		},
		{
			"buffer": 0,
			"byteLength": 2652144,
			"byteOffset": 11347564,
			"target": 34962
		},
		{
			"buffer": 0,
			"byteLength": 1326072,
			"byteOffset": 13999708,
			"target": 34962
		},
		{
			"buffer": 0,
			"byteLength": 1326072,
			"byteOffset": 15325780,
			"target": 34962
		},
		{
			"buffer": 0,
			"byteLength": 259758,
			"byteOffset": 16651852,
			"target": 34963
		},
		{
			"buffer": 0,
			"byteLength": 479592,
			"byteOffset": 16911612,
			"target": 34962
		},
		{
			"buffer": 0,
			"byteLength": 479592,
			"byteOffset": 17391204,
			"target": 34962
		},
		{
			"buffer": 0,
			"byteLength": 639456,
			"byteOffset": 17870796,
			"target": 34962
		},
		{
			"buffer": 0,
			"byteLength": 319728,
			"byteOffset": 18510252,
			"target": 34962
		},
		{
			"buffer": 0,
			"byteLength": 319728,
			"byteOffset": 18829980,
			"target": 34962
		},
		{
			"buffer": 0,
			"byteLength": 18288,
			"byteOffset": 19149708,
			"target": 34963
		},
		{
			"buffer": 0,
			"byteLength": 27936,
			"byteOffset": 19167996,
			"target": 34962
		},
		{
			"buffer": 0,
			"byteLength": 27936,
			"byteOffset": 19195932,
			"target": 34962
		},
		{
			"buffer": 0,
			"byteLength": 37248,
			"byteOffset": 19223868,
			"target": 34962
		},
		{
			"buffer": 0,
			"byteLength": 18624,
			"byteOffset": 19261116,
			"target": 34962
		},
		{
			"buffer": 0,
			"byteLength": 18624,
			"byteOffset": 19279740,
			"target": 34962
		},
		{
			"buffer": 0,
			"byteLength": 312,
			"byteOffset": 19298364,
			"target": 34963
		},
		{
			"buffer": 0,
			"byteLength": 2496,
			"byteOffset": 19298676,
			"target": 34962
		},
		{
			"buffer": 0,
			"byteLength": 2496,
			"byteOffset": 19301172,
			"target": 34962
		},
		{
			"buffer": 0,
			"byteLength": 3328,
			"byteOffset": 19303668,
			"target": 34962
		},
		{
			"buffer": 0,
			"byteLength": 1664,
			"byteOffset": 19306996,
			"target": 34962
		},
		{
			"buffer": 0,
			"byteLength": 1664,
			"byteOffset": 19308660,
			"target": 34962
		},
		{
			"buffer": 0,
			"byteLength": 36288,
			"byteOffset": 19310324,
			"target": 34963
		},
		{
			"buffer": 0,
			"byteLength": 67392,
			"byteOffset": 19346612,
			"target": 34962
		},
		{
			"buffer": 0,
			"byteLength": 67392,
			"byteOffset": 19414004,
			"target": 34962
		},
		{
			"buffer": 0,
			"byteLength": 89856,
			"byteOffset": 19481396,
			"target": 34962
		},
		{
			"buffer": 0,
			"byteLength": 44928,
			"byteOffset": 19571252,
			"target": 34962
		},
		{
			"buffer": 0,
			"byteLength": 44928,
			"byteOffset": 19616180,
			"target": 34962
		},
		{
			"buffer": 0,
			"byteLength": 5016,
			"byteOffset": 19661108,
			"target": 34963
		},
		{
			"buffer": 0,
			"byteLength": 8880,
			"byteOffset": 19666124,
			"target": 34962
		},
		{
			"buffer": 0,
			"byteLength": 8880,
			"byteOffset": 19675004,
			"target": 34962
		},
		{
			"buffer": 0,
			"byteLength": 11840,
			"byteOffset": 19683884,
			"target": 34962
		},
		{
			"buffer": 0,
			"byteLength": 5920,
			"byteOffset": 19695724,
			"target": 34962
		},
		{
			"buffer": 0,
			"byteLength": 5920,
			"byteOffset": 19701644,
			"target": 34962
		},
		{
			"buffer": 0,
			"byteLength": 231714,
			"byteOffset": 19707564,
			"target": 34963
		},
		{
			"buffer": 0,
			"byteLength": 419292,
			"byteOffset": 19939280,
			"target": 34962
		},
		{
			"buffer": 0,
			"byteLength": 419292,
			"byteOffset": 20358572,
			"target": 34962
		},
		{
			"buffer": 0,
			"byteLength": 559056,
			"byteOffset": 20777864,
			"target": 34962
		},
		{
			"buffer": 0,
			"byteLength": 279528,
			"byteOffset": 21336920,
			"target": 34962
		},
		{
			"buffer": 0,
			"byteLength": 279528,
			"byteOffset": 21616448,
			"target": 34962
		},
		{
			"buffer": 0,
			"byteLength": 231714,
			"byteOffset": 21895976,
			"target": 34963
		},
		{
			"buffer": 0,
			"byteLength": 419292,
			"byteOffset": 22127692,
			"target": 34962
		},
		{
			"buffer": 0,
			"byteLength": 419292,
			"byteOffset": 22546984,
			"target": 34962
		},
		{
			"buffer": 0,
			"byteLength": 559056,
			"byteOffset": 22966276,
			"target": 34962
		},
		{
			"buffer": 0,
			"byteLength": 279528,
			"byteOffset": 23525332,
			"target": 34962
		},
		{
			"buffer": 0,
			"byteLength": 279528,
			"byteOffset": 23804860,
			"target": 34962
		},
		{
			"buffer": 0,
			"byteLength": 1736892,
			"byteOffset": 24084388,
			"target": 34963
		},
		{
			"buffer": 0,
			"byteLength": 1554804,
			"byteOffset": 25821280,
			"target": 34962
		},
		{
			"buffer": 0,
			"byteLength": 1554804,
			"byteOffset": 27376084,
			"target": 34962
		},
		{
			"buffer": 0,
			"byteLength": 2073072,
			"byteOffset": 28930888,
			"target": 34962
		},
		{
			"buffer": 0,
			"byteLength": 1036536,
			"byteOffset": 31003960,
			"target": 34962
		},
		{
			"buffer": 0,
			"byteLength": 1036536,
			"byteOffset": 32040496,
			"target": 34962
		},
		{
			"buffer": 0,
			"byteLength": 64416,
			"byteOffset": 33077032,
			"target": 34963
		},
		{
			"buffer": 0,
			"byteLength": 122976,
			"byteOffset": 33141448,
			"target": 34962
		},
		{
			"buffer": 0,
			"byteLength": 122976,
			"byteOffset": 33264424,
			"target": 34962
		},
		{
			"buffer": 0,
			"byteLength": 163968,
			"byteOffset": 33387400,
			"target": 34962
		},
		{
			"buffer": 0,
			"byteLength": 81984,
			"byteOffset": 33551368,
			"target": 34962
		},
		{
			"buffer": 0,
			"byteLength": 81984,
			"byteOffset": 33633352,
			"target": 34962
		},
		{
			"buffer": 0,
			"byteLength": 2742,
			"byteOffset": 33715336,
			"target": 34963
		},
		{
			"buffer": 0,
			"byteLength": 7116,
			"byteOffset": 33718080,
			"target": 34962
		},
		{
			"buffer": 0,
			"byteLength": 7116,
			"byteOffset": 33725196,
			"target": 34962
		},
		{
			"buffer": 0,
			"byteLength": 9488,
			"byteOffset": 33732312,
			"target": 34962
		},
		{
			"buffer": 0,
			"byteLength": 4744,
			"byteOffset": 33741800,
			"target": 34962
		},
		{
			"buffer": 0,
			"byteLength": 4744,
			"byteOffset": 33746544,
			"target": 34962
		},
		{
			"buffer": 0,
			"byteLength": 1722,
			"byteOffset": 33751288,
			"target": 34963
		},
		{
			"buffer": 0,
			"byteLength": 3648,
			"byteOffset": 33753012,
			"target": 34962
		},
		{
			"buffer": 0,
			"byteLength": 3648,
			"byteOffset": 33756660,
			"target": 34962
		},
		{
			"buffer": 0,
			"byteLength": 4864,
			"byteOffset": 33760308,
			"target": 34962
		},
		{
			"buffer": 0,
			"byteLength": 2432,
			"byteOffset": 33765172,
			"target": 34962
		},
		{
			"buffer": 0,
			"byteLength": 2432,
			"byteOffset": 33767604,
			"target": 34962
		},
		{
			"buffer": 0,
			"byteLength": 3240,
			"byteOffset": 33770036,
			"target": 34963
		},
		{
			"buffer": 0,
			"byteLength": 7104,
			"byteOffset": 33773276,
			"target": 34962
		},
		{
			"buffer": 0,
			"byteLength": 7104,
			"byteOffset": 33780380,
			"target": 34962
		},
		{
			"buffer": 0,
			"byteLength": 9472,
			"byteOffset": 33787484,
			"target": 34962
		},
		{
			"buffer": 0,
			"byteLength": 4736,
			"byteOffset": 33796956,
			"target": 34962
		},
		{
			"buffer": 0,
			"byteLength": 4736,
			"byteOffset": 33801692,
			"target": 34962
		},
		{
			"buffer": 0,
			"byteLength": 8508,
			"byteOffset": 33806428,
			"target": 34963
		},
		{
			"buffer": 0,
			"byteLength": 15672,
			"byteOffset": 33814936,
			"target": 34962
		},
		{
			"buffer": 0,
			"byteLength": 15672,
			"byteOffset": 33830608,
			"target": 34962
		},
		{
			"buffer": 0,
			"byteLength": 20896,
			"byteOffset": 33846280,
			"target": 34962
		},
		{
			"buffer": 0,
			"byteLength": 10448,
			"byteOffset": 33867176,
			"target": 34962
		},
		{
			"buffer": 0,
			"byteLength": 10448,
			"byteOffset": 33877624,
			"target": 34962
		},
		{
			"buffer": 0,
			"byteLength": 66,
			"byteOffset": 33888072,
			"target": 34963
		},
		{
			"buffer": 0,
			"byteLength": 432,
			"byteOffset": 33888140,
			"target": 34962
		},
		{
			"buffer": 0,
			"byteLength": 432,
			"byteOffset": 33888572,
			"target": 34962
		},
		{
			"buffer": 0,
			"byteLength": 576,
			"byteOffset": 33889004,
			"target": 34962
		},
		{
			"buffer": 0,
			"byteLength": 288,
			"byteOffset": 33889580,
			"target": 34962
		},
		{
			"buffer": 0,
			"byteLength": 288,
			"byteOffset": 33889868,
			"target": 34962
		}
	],
	"images": [
		{
			"uri": "M_Wood_Floor_Inst_BaseColor.png"
		},
		{
			"uri": "M_Wood_Floor_Inst_MetallicRoughness.png"
		},
		{
			"uri": "M_Wood_Floor_Inst_Normal.png"
		},
		{
			"uri": "M_Wood_Floor_Inst_Occlusion.png"
		},
		{
			"uri": "MI_Wood_Trim_BaseColor.png"
		},
		{
			"uri": "MI_Wood_Trim_MetallicRoughness.png"
		},
		{
			"uri": "MI_Wood_Trim_Occlusion.png"
		},
		{
			"uri": "MI_Furniture_01_MetallicRoughness.png"
		},
		{
			"uri": "MI_Light_props_MetallicRoughness.png"
		},
		{
			"uri": "MI_Candle_MetallicRoughness.png"
		},
		{
			"uri": "MI_Log_props_01_MetallicRoughness.png"
		},
		{
			"uri": "MI_Glass_Normal.png"
		},
		{
			"uri": "MI_Foliage_BaseColor.png"
		},
		{
			"uri": "MI_Foliage1_BaseColor.png"
		},
		{
			"uri": "MI_Roof_Tile_BaseColor.png"
		},
		{
			"uri": "MI_Roof_Tile_MetallicRoughness.png"
		},
		{
			"uri": "MI_Roof_Tile_Occlusion.png"
		},
		{
			"uri": "MI_Stones_BaseColor.png"
		},
		{
			"uri": "MI_Stones_MetallicRoughness.png"
		},
		{
			"uri": "MI_Styl_Wall_Plaster_SM_House_03_Merged_BaseColor.png"
		},
		{
			"uri": "MI_Styl_Wall_Plaster_SM_House_03_Merged_MetallicRoughness.png"
		},
		{
			"uri": "MI_Styl_Wall_Plaster_SM_House_03_Merged_Normal.png"
		},
		{
			"uri": "MI_Styl_Wall_Plaster_SM_House_03_Merged_Occlusion.png"
		},
		{
			"uri": "MI_Styl_Wall_Brick_02_SM_House_03_Merged_BaseColor.png"
		},
		{
			"uri": "MI_Styl_Wall_Brick_02_SM_House_03_Merged_MetallicRoughness.png"
		},
		{
			"uri": "MI_Styl_Wall_Brick_02_SM_House_03_Merged_Normal.png"
		},
		{
			"uri": "MI_Styl_Wall_Brick_02_SM_House_03_Merged_Occlusion.png"
		},
		{
			"uri": "MI_Styl_Wall_Brick_BaseColor.png"
		},
		{
			"uri": "MI_Styl_Wall_Brick_MetallicRoughness.png"
		},
		{
			"uri": "MI_Styl_Wall_Brick_Normal.png"
		},
		{
			"uri": "MI_Styl_Wall_Brick_Occlusion.png"
		},
		{
			"uri": "MI_Stone_Props_01_MetallicRoughness.png"
		},
		{
			"uri": "WorldGridMaterial_BaseColor.png"
		},
		{
			"uri": "WorldGridMaterial_MetallicRoughness.png"
		},
		{
			"uri": "WorldGridMaterial_Normal.png"
		},
		{
			"uri": "T_Wood_Trim_N.png"
		},
		{
			"uri": "T_Furniture_01_C.png"
		},
		{
			"uri": "T_Furniture_01_N.png"
		},
		{
			"uri": "T_Furniture_01_M.png"
		},
		{
			"uri": "T_Light_C.png"
		},
		{
			"uri": "T_Light_N.png"
		},
		{
			"uri": "T_Light_M.png"
		},
		{
			"uri": "T_candle_C.png"
		},
		{
			"uri": "T_candle_N.png"
		},
		{
			"uri": "T_candle_M.png"
		},
		{
			"uri": "T_Log_Props_C.png"
		},
		{
			"uri": "T_Log_Props_N.png"
		},
		{
			"uri": "T_Log_Props_M.png"
		},
		{
			"uri": "T_Leaf_low_N.png"
		},
		{
			"uri": "T_Roof_N.png"
		},
		{
			"uri": "T_Stone_N.png"
		},
		{
			"uri": "T_Rocks_C.png"
		},
		{
			"uri": "T_Rocks_N.png"
		},
		{
			"uri": "T_Rocks_M.png"
		}
	],
	"materials": [
		{
			"name": "M_Wood_Floor_Inst",
			"pbrMetallicRoughness":
			{
				"baseColorTexture":
				{
					"index": 0
				},
				"metallicRoughnessTexture":
				{
					"index": 1
				}
			},
			"normalTexture":
			{
				"index": 2
			},
			"occlusionTexture":
			{
				"index": 3
			}
		},
		{
			"name": "MI_Wood_Trim",
			"pbrMetallicRoughness":
			{
				"baseColorTexture":
				{
					"index": 4
				},
				"metallicRoughnessTexture":
				{
					"index": 5
				}
			},
			"normalTexture":
			{
				"index": 6
			},
			"occlusionTexture":
			{
				"index": 7
			}
		},
		{
			"name": "MI_Furniture_01",
			"pbrMetallicRoughness":
			{
				"baseColorTexture":
				{
					"index": 8
				},
				"metallicRoughnessTexture":
				{
					"index": 9
				}
			},
			"normalTexture":
			{
				"index": 10
			},
			"occlusionTexture":
			{
				"index": 11
			}
		},
		{
			"name": "MI_Light_props",
			"pbrMetallicRoughness":
			{
				"baseColorTexture":
				{
					"index": 12
				},
				"metallicRoughnessTexture":
				{
					"index": 13
				}
			},
			"normalTexture":
			{
				"index": 14
			},
			"occlusionTexture":
			{
				"index": 15
			}
		},
		{
			"name": "MI_Candle",
			"pbrMetallicRoughness":
			{
				"baseColorTexture":
				{
					"index": 16
				},
				"metallicRoughnessTexture":
				{
					"index": 17
				}
			},
			"normalTexture":
			{
				"index": 18
			},
			"occlusionTexture":
			{
				"index": 19
			},
			"alphaMode": "MASK",
			"alphaCutoff": 0.333299994
		},
		{
			"name": "MI_Candle_light",
			"pbrMetallicRoughness":
			{
				"baseColorFactor": [ 0, 0, 0, 0.690196097 ],
				"metallicFactor": 0,
				"roughnessFactor": 0.5
			},
			"emissiveFactor": [ 1, 0.764705956, 0.313725501 ],
			"alphaMode": "BLEND",
			"doubleSided": true,
			"extensions":
			{
				"KHR_materials_ior":
				{
					"ior": 1
				},
				"KHR_materials_emissive_strength":
				{
					"emissiveStrength": 26.328125
				}
			}
		},
		{
			"name": "MI_Log_props_01",
			"pbrMetallicRoughness":
			{
				"baseColorTexture":
				{
					"index": 20
				},
				"metallicRoughnessTexture":
				{
					"index": 21
				}
			},
			"normalTexture":
			{
				"index": 22
			},
			"occlusionTexture":
			{
				"index": 23
			}
		},
		{
			"name": "MI_Glass",
			"pbrMetallicRoughness":
			{
				"baseColorFactor": [ 0.0378840007, 0.0417999998, 0.0520830005, 1 ],
				"metallicFactor": 0,
				"roughnessFactor": 0.100000001
			},
			"normalTexture":
			{
				"index": 24
			},
			"doubleSided": true
		},
		{
			"name": "MI_Foliage",
			"pbrMetallicRoughness":
			{
				"baseColorTexture":
				{
					"index": 25
				},
				"metallicFactor": 0
			},
			"normalTexture":
			{
				"index": 26
			},
			"alphaMode": "MASK",
			"alphaCutoff": 0.333299994,
			"doubleSided": true
		},
		{
			"name": "MI_Foliage1",
			"pbrMetallicRoughness":
			{
				"baseColorTexture":
				{
					"index": 27
				},
				"metallicFactor": 0
			},
			"normalTexture":
			{
				"index": 26
			},
			"alphaMode": "MASK",
			"alphaCutoff": 0.333299994,
			"doubleSided": true
		},
		{
			"name": "MI_Roof_Tile",
			"pbrMetallicRoughness":
			{
				"baseColorTexture":
				{
					"index": 28
				},
				"metallicRoughnessTexture":
				{
					"index": 29
				}
			},
			"normalTexture":
			{
				"index": 30
			},
			"occlusionTexture":
			{
				"index": 31
			}
		},
		{
			"name": "MI_Stones",
			"pbrMetallicRoughness":
			{
				"baseColorTexture":
				{
					"index": 32
				},
				"metallicRoughnessTexture":
				{
					"index": 33
				}
			},
			"normalTexture":
			{
				"index": 34
			}
		},
		{
			"name": "MI_Styl_Wall_Plaster_SM_House_03_Merged",
			"pbrMetallicRoughness":
			{
				"baseColorTexture":
				{
					"index": 35,
					"texCoord": 1,
					"extensions":
					{
						"KHR_texture_transform":
						{
							"offset": [ -0.00233564479, -0.0774896592 ],
							"scale": [ 1.18657994, 39.4053345 ]
						}
					}
				},
				"metallicRoughnessTexture":
				{
					"index": 36,
					"texCoord": 1,
					"extensions":
					{
						"KHR_texture_transform":
						{
							"offset": [ -0.00233564479, -0.0774896592 ],
							"scale": [ 1.18657994, 39.4053345 ]
						}
					}
				}
			},
			"normalTexture":
			{
				"index": 37,
				"texCoord": 1,
				"extensions":
				{
					"KHR_texture_transform":
					{
						"offset": [ -0.00233564479, -0.0774896592 ],
						"scale": [ 1.18657994, 39.4053345 ]
					}
				}
			},
			"occlusionTexture":
			{
				"index": 38,
				"texCoord": 1,
				"extensions":
				{
					"KHR_texture_transform":
					{
						"offset": [ -0.00233564479, -0.0774896592 ],
						"scale": [ 1.18657994, 39.4053345 ]
					}
				}
			},
			"doubleSided": true
		},
		{
			"name": "MI_Styl_Wall_Brick_02_SM_House_03_Merged",
			"pbrMetallicRoughness":
			{
				"baseColorTexture":
				{
					"index": 39,
					"texCoord": 1,
					"extensions":
					{
						"KHR_texture_transform":
						{
							"offset": [ -0.00342220464, -0.00301003433 ],
							"scale": [ 1.73858607, 1.53067398 ]
						}
					}
				},
				"metallicRoughnessTexture":
				{
					"index": 40,
					"texCoord": 1,
					"extensions":
					{
						"KHR_texture_transform":
						{
							"offset": [ -0.00342220464, -0.00301003433 ],
							"scale": [ 1.73858607, 1.53067398 ]
						}
					}
				}
			},
			"normalTexture":
			{
				"index": 41,
				"texCoord": 1,
				"extensions":
				{
					"KHR_texture_transform":
					{
						"offset": [ -0.00342220464, -0.00301003433 ],
						"scale": [ 1.73858607, 1.53067398 ]
					}
				}
			},
			"occlusionTexture":
			{
				"index": 42,
				"texCoord": 1,
				"extensions":
				{
					"KHR_texture_transform":
					{
						"offset": [ -0.00342220464, -0.00301003433 ],
						"scale": [ 1.73858607, 1.53067398 ]
					}
				}
			}
		},
		{
			"name": "MI_Styl_Wall_Brick",
			"pbrMetallicRoughness":
			{
				"baseColorTexture":
				{
					"index": 43
				},
				"metallicRoughnessTexture":
				{
					"index": 44
				}
			},
			"normalTexture":
			{
				"index": 45
			},
			"occlusionTexture":
			{
				"index": 46
			}
		},
		{
			"name": "MI_Stone_Props_01",
			"pbrMetallicRoughness":
			{
				"baseColorTexture":
				{
					"index": 47
				},
				"metallicRoughnessTexture":
				{
					"index": 48
				}
			},
			"normalTexture":
			{
				"index": 49
			},
			"occlusionTexture":
			{
				"index": 50
			}
		},
		{
			"name": "WorldGridMaterial",
			"pbrMetallicRoughness":
			{
				"baseColorTexture":
				{
					"index": 51
				},
				"metallicRoughnessTexture":
				{
					"index": 52
				}
			},
			"normalTexture":
			{
				"index": 53
			}
		}
	],
	"meshes": [
		{
			"name": "SM_House_03_Merged",
			"primitives": [
				{
					"attributes":
					{
						"POSITION": 1,
						"NORMAL": 2,
						"TANGENT": 3,
						"TEXCOORD_0": 4,
						"TEXCOORD_1": 5
					},
					"indices": 0,
					"material": 0
				},
				{
					"attributes":
					{
						"POSITION": 7,
						"NORMAL": 8,
						"TANGENT": 9,
						"TEXCOORD_0": 10,
						"TEXCOORD_1": 11
					},
					"indices": 6,
					"material": 1
				},
				{
					"attributes":
					{
						"POSITION": 13,
						"NORMAL": 14,
						"TANGENT": 15,
						"TEXCOORD_0": 16,
						"TEXCOORD_1": 17
					},
					"indices": 12,
					"material": 2
				},
				{
					"attributes":
					{
						"POSITION": 19,
						"NORMAL": 20,
						"TANGENT": 21,
						"TEXCOORD_0": 22,
						"TEXCOORD_1": 23
					},
					"indices": 18,
					"material": 3
				},
				{
					"attributes":
					{
						"POSITION": 25,
						"NORMAL": 26,
						"TANGENT": 27,
						"TEXCOORD_0": 28,
						"TEXCOORD_1": 29
					},
					"indices": 24,
					"material": 4
				},
				{
					"attributes":
					{
						"POSITION": 31,
						"NORMAL": 32,
						"TANGENT": 33,
						"TEXCOORD_0": 34,
						"TEXCOORD_1": 35
					},
					"indices": 30,
					"material": 5
				},
				{
					"attributes":
					{
						"POSITION": 37,
						"NORMAL": 38,
						"TANGENT": 39,
						"TEXCOORD_0": 40,
						"TEXCOORD_1": 41
					},
					"indices": 36,
					"material": 6
				},
				{
					"attributes":
					{
						"POSITION": 43,
						"NORMAL": 44,
						"TANGENT": 45,
						"TEXCOORD_0": 46,
						"TEXCOORD_1": 47
					},
					"indices": 42,
					"material": 7
				},
				{
					"attributes":
					{
						"POSITION": 49,
						"NORMAL": 50,
						"TANGENT": 51,
						"TEXCOORD_0": 52,
						"TEXCOORD_1": 53
					},
					"indices": 48,
					"material": 8
				},
				{
					"attributes":
					{
						"POSITION": 55,
						"NORMAL": 56,
						"TANGENT": 57,
						"TEXCOORD_0": 58,
						"TEXCOORD_1": 59
					},
					"indices": 54,
					"material": 9
				},
				{
					"attributes":
					{
						"POSITION": 61,
						"NORMAL": 62,
						"TANGENT": 63,
						"TEXCOORD_0": 64,
						"TEXCOORD_1": 65
					},
					"indices": 60,
					"material": 10
				},
				{
					"attributes":
					{
						"POSITION": 67,
						"NORMAL": 68,
						"TANGENT": 69,
						"TEXCOORD_0": 70,
						"TEXCOORD_1": 71
					},
					"indices": 66,
					"material": 11
				},
				{
					"attributes":
					{
						"POSITION": 73,
						"NORMAL": 74,
						"TANGENT": 75,
						"TEXCOORD_0": 76,
						"TEXCOORD_1": 77
					},
					"indices": 72,
					"material": 12
				},
				{
					"attributes":
					{
						"POSITION": 79,
						"NORMAL": 80,
						"TANGENT": 81,
						"TEXCOORD_0": 82,
						"TEXCOORD_1": 83
					},
					"indices": 78,
					"material": 13
				},
				{
					"attributes":
					{
						"POSITION": 85,
						"NORMAL": 86,
						"TANGENT": 87,
						"TEXCOORD_0": 88,
						"TEXCOORD_1": 89
					},
					"indices": 84,
					"material": 14
				},
				{
					"attributes":
					{
						"POSITION": 91,
						"NORMAL": 92,
						"TANGENT": 93,
						"TEXCOORD_0": 94,
						"TEXCOORD_1": 95
					},
					"indices": 90,
					"material": 15
				},
				{
					"attributes":
					{
						"POSITION": 97,
						"NORMAL": 98,
						"TANGENT": 99,
						"TEXCOORD_0": 100,
						"TEXCOORD_1": 101
					},
					"indices": 96,
					"material": 16
				}
			]
		}
	],
	"nodes": [
		{
			"mesh": 0
		}
	],
	"samplers": [
		{
			"minFilter": 9987,
			"magFilter": 9729
		}
	],
	"scenes": [
		{
			"nodes": [ 0 ]
		}
	],
	"textures": [
		{
			"name": "M_Wood_Floor_Inst_BaseColor",
			"sampler": 0,
			"source": 0
		},
		{
			"name": "M_Wood_Floor_Inst_MetallicRoughness",
			"sampler": 0,
			"source": 1
		},
		{
			"name": "M_Wood_Floor_Inst_Normal",
			"sampler": 0,
			"source": 2
		},
		{
			"name": "M_Wood_Floor_Inst_Occlusion",
			"sampler": 0,
			"source": 3
		},
		{
			"name": "MI_Wood_Trim_BaseColor",
			"sampler": 0,
			"source": 4
		},
		{
			"name": "MI_Wood_Trim_MetallicRoughness",
			"sampler": 0,
			"source": 5
		},
		{
			"name": "T_Wood_Trim_N",
			"sampler": 0,
			"source": 35
		},
		{
			"name": "MI_Wood_Trim_Occlusion",
			"sampler": 0,
			"source": 6
		},
		{
			"name": "T_Furniture_01_C",
			"sampler": 0,
			"source": 36
		},
		{
			"name": "MI_Furniture_01_MetallicRoughness",
			"sampler": 0,
			"source": 7
		},
		{
			"name": "T_Furniture_01_N",
			"sampler": 0,
			"source": 37
		},
		{
			"name": "T_Furniture_01_M",
			"sampler": 0,
			"source": 38
		},
		{
			"name": "T_Light_C",
			"sampler": 0,
			"source": 39
		},
		{
			"name": "MI_Light_props_MetallicRoughness",
			"sampler": 0,
			"source": 8
		},
		{
			"name": "T_Light_N",
			"sampler": 0,
			"source": 40
		},
		{
			"name": "T_Light_M",
			"sampler": 0,
			"source": 41
		},
		{
			"name": "T_candle_C",
			"sampler": 0,
			"source": 42
		},
		{
			"name": "MI_Candle_MetallicRoughness",
			"sampler": 0,
			"source": 9
		},
		{
			"name": "T_candle_N",
			"sampler": 0,
			"source": 43
		},
		{
			"name": "T_candle_M",
			"sampler": 0,
			"source": 44
		},
		{
			"name": "T_Log_Props_C",
			"sampler": 0,
			"source": 45
		},
		{
			"name": "MI_Log_props_01_MetallicRoughness",
			"sampler": 0,
			"source": 10
		},
		{
			"name": "T_Log_Props_N",
			"sampler": 0,
			"source": 46
		},
		{
			"name": "T_Log_Props_M",
			"sampler": 0,
			"source": 47
		},
		{
			"name": "MI_Glass_Normal",
			"sampler": 0,
			"source": 11
		},
		{
			"name": "MI_Foliage_BaseColor",
			"sampler": 0,
			"source": 12
		},
		{
			"name": "T_Leaf_low_N",
			"sampler": 0,
			"source": 48
		},
		{
			"name": "MI_Foliage1_BaseColor",
			"sampler": 0,
			"source": 13
		},
		{
			"name": "MI_Roof_Tile_BaseColor",
			"sampler": 0,
			"source": 14
		},
		{
			"name": "MI_Roof_Tile_MetallicRoughness",
			"sampler": 0,
			"source": 15
		},
		{
			"name": "T_Roof_N",
			"sampler": 0,
			"source": 49
		},
		{
			"name": "MI_Roof_Tile_Occlusion",
			"sampler": 0,
			"source": 16
		},
		{
			"name": "MI_Stones_BaseColor",
			"sampler": 0,
			"source": 17
		},
		{
			"name": "MI_Stones_MetallicRoughness",
			"sampler": 0,
			"source": 18
		},
		{
			"name": "T_Stone_N",
			"sampler": 0,
			"source": 50
		},
		{
			"name": "MI_Styl_Wall_Plaster_SM_House_03_Merged_BaseColor",
			"sampler": 0,
			"source": 19
		},
		{
			"name": "MI_Styl_Wall_Plaster_SM_House_03_Merged_MetallicRoughness",
			"sampler": 0,
			"source": 20
		},
		{
			"name": "MI_Styl_Wall_Plaster_SM_House_03_Merged_Normal",
			"sampler": 0,
			"source": 21
		},
		{
			"name": "MI_Styl_Wall_Plaster_SM_House_03_Merged_Occlusion",
			"sampler": 0,
			"source": 22
		},
		{
			"name": "MI_Styl_Wall_Brick_02_SM_House_03_Merged_BaseColor",
			"sampler": 0,
			"source": 23
		},
		{
			"name": "MI_Styl_Wall_Brick_02_SM_House_03_Merged_MetallicRoughness",
			"sampler": 0,
			"source": 24
		},
		{
			"name": "MI_Styl_Wall_Brick_02_SM_House_03_Merged_Normal",
			"sampler": 0,
			"source": 25
		},
		{
			"name": "MI_Styl_Wall_Brick_02_SM_House_03_Merged_Occlusion",
			"sampler": 0,
			"source": 26
		},
		{
			"name": "MI_Styl_Wall_Brick_BaseColor",
			"sampler": 0,
			"source": 27
		},
		{
			"name": "MI_Styl_Wall_Brick_MetallicRoughness",
			"sampler": 0,
			"source": 28
		},
		{
			"name": "MI_Styl_Wall_Brick_Normal",
			"sampler": 0,
			"source": 29
		},
		{
			"name": "MI_Styl_Wall_Brick_Occlusion",
			"sampler": 0,
			"source": 30
		},
		{
			"name": "T_Rocks_C",
			"sampler": 0,
			"source": 51
		},
		{
			"name": "MI_Stone_Props_01_MetallicRoughness",
			"sampler": 0,
			"source": 31
		},
		{
			"name": "T_Rocks_N",
			"sampler": 0,
			"source": 52
		},
		{
			"name": "T_Rocks_M",
			"sampler": 0,
			"source": 53
		},
		{
			"name": "WorldGridMaterial_BaseColor",
			"sampler": 0,
			"source": 32
		},
		{
			"name": "WorldGridMaterial_MetallicRoughness",
			"sampler": 0,
			"source": 33
		},
		{
			"name": "WorldGridMaterial_Normal",
			"sampler": 0,
			"source": 34
		}
	],
	"extensionsUsed": [
		"KHR_materials_ior",
		"KHR_materials_emissive_strength",
		"KHR_texture_transform"
	]
}