{
	"asset":
	{
		"version": "2.0",
		"generator": "Unreal Engine 5.6.1"
	},
	"scene": 0,
	"accessors": [
		{
			"bufferView": 0,
			"count": 264,
			"type": "SCALAR",
			"componentType": 5121
		},
		{
			"bufferView": 1,
			"count": 192,
			"type": "VEC3",
			"componentType": 5126,
			"min": [ -0.0747354105, -0.107257433, -0.424638361 ],
			"max": [ 0.0747354105, 0.107257433, 0.424638361 ]
		},
		{
			"bufferView": 2,
			"count": 192,
			"type": "VEC3",
			"componentType": 5126
		},
		{
			"bufferView": 3,
			"count": 192,
			"type": "VEC4",
			"componentType": 5126
		},
		{
			"bufferView": 4,
			"count": 192,
			"type": "VEC2",
			"componentType": 5126
		},
		{
			"bufferView": 5,
			"count": 192,
			"type": "VEC2",
			"componentType": 5126
		}
	],
	"buffers": [
		{
			"uri": "SM_hammer_01.bin",
			"byteLength": 11016
		}
	],
	"bufferViews": [
		{
			"buffer": 0,
			"byteLength": 264,
			"target": 34963
		},
		{
			"buffer": 0,
			"byteLength": 2304,
			"byteOffset": 264,
			"target": 34962
		},
		{
			"buffer": 0,
			"byteLength": 2304,
			"byteOffset": 2568,
			"target": 34962
		},
		{
			"buffer": 0,
			"byteLength": 3072,
			"byteOffset": 4872,
			"target": 34962
		},
		{
			"buffer": 0,
			"byteLength": 1536,
			"byteOffset": 7944,
			"target": 34962
		},
		{
			"buffer": 0,
			"byteLength": 1536,
			"byteOffset": 9480,
			"target": 34962
		}
	],
	"images": [
		{
			"uri": "MI_Tool_01_MetallicRoughness.png"
		},
		{
			"uri": "T_Tools_C.png"
		},
		{
			"uri": "T_Tools_N.png"
		},
		{
			"uri": "T_Tools_M.png"
		}
	],
	"materials": [
		{
			"name": "MI_Tool_01",
			"pbrMetallicRoughness":
			{
				"baseColorTexture":
				{
					"index": 0
				},
				"metallicRoughnessTexture":
				{
					"index": 1
				}
			},
			"normalTexture":
			{
				"index": 2
			},
			"occlusionTexture":
			{
				"index": 3
			}
		}
	],
	"meshes": [
		{
			"name": "SM_hammer_01",
			"primitives": [
				{
					"attributes":
					{
						"POSITION": 1,
						"NORMAL": 2,
						"TANGENT": 3,
						"TEXCOORD_0": 4,
						"TEXCOORD_1": 5
					},
					"indices": 0,
					"material": 0
				}
			]
		}
	],
	"nodes": [
		{
			"mesh": 0
		}
	],
	"samplers": [
		{
			"minFilter": 9987,
			"magFilter": 9729
		}
	],
	"scenes": [
		{
			"nodes": [ 0 ]
		}
	],
	"textures": [
		{
			"name": "T_Tools_C",
			"sampler": 0,
			"source": 1
		},
		{
			"name": "MI_Tool_01_MetallicRoughness",
			"sampler": 0,
			"source": 0
		},
		{
			"name": "T_Tools_N",
			"sampler": 0,
			"source": 2
		},
		{
			"name": "T_Tools_M",
			"sampler": 0,
			"source": 3
		}
	]
}