{
	"asset":
	{
		"version": "2.0",
		"generator": "Unreal Engine 5.6.1"
	},
	"scene": 0,
	"accessors": [
		{
			"bufferView": 0,
			"count": 210,
			"type": "SCALAR",
			"componentType": 5121
		},
		{
			"bufferView": 1,
			"count": 79,
			"type": "VEC3",
			"componentType": 5126,
			"min": [ -0.64062804, -4.24549261e-15, -0.0111482441 ],
			"max": [ 0.70440644, 2.01164603, 2.62762141 ]
		},
		{
			"bufferView": 2,
			"count": 79,
			"type": "VEC3",
			"componentType": 5126
		},
		{
			"bufferView": 3,
			"count": 79,
			"type": "VEC4",
			"componentType": 5126
		},
		{
			"bufferView": 4,
			"count": 79,
			"type": "VEC2",
			"componentType": 5126
		},
		{
			"bufferView": 5,
			"count": 79,
			"type": "VEC2",
			"componentType": 5126
		},
		{
			"bufferView": 6,
			"count": 1188,
			"type": "SCALAR",
			"componentType": 5123
		},
		{
			"bufferView": 7,
			"count": 396,
			"type": "VEC3",
			"componentType": 5126,
			"min": [ -0.782435596, 0.124786489, 0.00802673306 ],
			"max": [ 0.782435596, 1.8959533, 2.24129629 ]
		},
		{
			"bufferView": 8,
			"count": 396,
			"type": "VEC3",
			"componentType": 5126
		},
		{
			"bufferView": 9,
			"count": 396,
			"type": "VEC4",
			"componentType": 5126
		},
		{
			"bufferView": 10,
			"count": 396,
			"type": "VEC2",
			"componentType": 5126
		},
		{
			"bufferView": 11,
			"count": 396,
			"type": "VEC2",
			"componentType": 5126
		}
	],
	"buffers": [
		{
			"uri": "SM_ladder_02_81CDFC00.bin",
			"byteLength": 29188
		}
	],
	"bufferViews": [
		{
			"buffer": 0,
			"byteLength": 210,
			"target": 34963
		},
		{
			"buffer": 0,
			"byteLength": 948,
			"byteOffset": 212,
			"target": 34962
		},
		{
			"buffer": 0,
			"byteLength": 948,
			"byteOffset": 1160,
			"target": 34962
		},
		{
			"buffer": 0,
			"byteLength": 1264,
			"byteOffset": 2108,
			"target": 34962
		},
		{
			"buffer": 0,
			"byteLength": 632,
			"byteOffset": 3372,
			"target": 34962
		},
		{
			"buffer": 0,
			"byteLength": 632,
			"byteOffset": 4004,
			"target": 34962
		},
		{
			"buffer": 0,
			"byteLength": 2376,
			"byteOffset": 4636,
			"target": 34963
		},
		{
			"buffer": 0,
			"byteLength": 4752,
			"byteOffset": 7012,
			"target": 34962
		},
		{
			"buffer": 0,
			"byteLength": 4752,
			"byteOffset": 11764,
			"target": 34962
		},
		{
			"buffer": 0,
			"byteLength": 6336,
			"byteOffset": 16516,
			"target": 34962
		},
		{
			"buffer": 0,
			"byteLength": 3168,
			"byteOffset": 22852,
			"target": 34962
		},
		{
			"buffer": 0,
			"byteLength": 3168,
			"byteOffset": 26020,
			"target": 34962
		}
	],
	"images": [
		{
			"uri": "MI_Wood_Trim_BaseColor.png"
		},
		{
			"uri": "MI_Wood_Trim_MetallicRoughness.png"
		},
		{
			"uri": "MI_Wood_Trim_Occlusion.png"
		},
		{
			"uri": "MI_Furniture_01_MetallicRoughness.png"
		},
		{
			"uri": "T_Wood_Trim_N.png"
		},
		{
			"uri": "T_Furniture_01_C.png"
		},
		{
			"uri": "T_Furniture_01_N.png"
		},
		{
			"uri": "T_Furniture_01_M.png"
		}
	],
	"materials": [
		{
			"name": "MI_Wood_Trim",
			"pbrMetallicRoughness":
			{
				"baseColorTexture":
				{
					"index": 0
				},
				"metallicRoughnessTexture":
				{
					"index": 1
				}
			},
			"normalTexture":
			{
				"index": 2
			},
			"occlusionTexture":
			{
				"index": 3
			}
		},
		{
			"name": "MI_Furniture_01",
			"pbrMetallicRoughness":
			{
				"baseColorTexture":
				{
					"index": 4
				},
				"metallicRoughnessTexture":
				{
					"index": 5
				}
			},
			"normalTexture":
			{
				"index": 6
			},
			"occlusionTexture":
			{
				"index": 7
			}
		}
	],
	"meshes": [
		{
			"name": "SM_ladder_02",
			"primitives": [
				{
					"attributes":
					{
						"POSITION": 1,
						"NORMAL": 2,
						"TANGENT": 3,
						"TEXCOORD_0": 4,
						"TEXCOORD_1": 5
					},
					"indices": 0,
					"material": 0
				},
				{
					"attributes":
					{
						"POSITION": 7,
						"NORMAL": 8,
						"TANGENT": 9,
						"TEXCOORD_0": 10,
						"TEXCOORD_1": 11
					},
					"indices": 6,
					"material": 1
				}
			]
		}
	],
	"nodes": [
		{
			"mesh": 0
		}
	],
	"samplers": [
		{
			"minFilter": 9987,
			"magFilter": 9729
		}
	],
	"scenes": [
		{
			"nodes": [ 0 ]
		}
	],
	"textures": [
		{
			"name": "MI_Wood_Trim_BaseColor",
			"sampler": 0,
			"source": 0
		},
		{
			"name": "MI_Wood_Trim_MetallicRoughness",
			"sampler": 0,
			"source": 1
		},
		{
			"name": "T_Wood_Trim_N",
			"sampler": 0,
			"source": 4
		},
		{
			"name": "MI_Wood_Trim_Occlusion",
			"sampler": 0,
			"source": 2
		},
		{
			"name": "T_Furniture_01_C",
			"sampler": 0,
			"source": 5
		},
		{
			"name": "MI_Furniture_01_MetallicRoughness",
			"sampler": 0,
			"source": 3
		},
		{
			"name": "T_Furniture_01_N",
			"sampler": 0,
			"source": 6
		},
		{
			"name": "T_Furniture_01_M",
			"sampler": 0,
			"source": 7
		}
	]
}