{
	"asset":
	{
		"version": "2.0",
		"generator": "Unreal Engine 5.6.1"
	},
	"scene": 0,
	"accessors": [
		{
			"bufferView": 0,
			"count": 132,
			"type": "SCALAR",
			"componentType": 5121
		},
		{
			"bufferView": 1,
			"count": 42,
			"type": "VEC3",
			"componentType": 5126,
			"min": [ -0.0847372413, -0.0755266398, -0.489264667 ],
			"max": [ 0.0847372413, 0.0755266398, 0.489264667 ]
		},
		{
			"bufferView": 2,
			"count": 42,
			"type": "VEC3",
			"componentType": 5126
		},
		{
			"bufferView": 3,
			"count": 42,
			"type": "VEC4",
			"componentType": 5126
		},
		{
			"bufferView": 4,
			"count": 42,
			"type": "VEC2",
			"componentType": 5126
		},
		{
			"bufferView": 5,
			"count": 42,
			"type": "VEC2",
			"componentType": 5126
		}
	],
	"buffers": [
		{
			"uri": "SM_log_slice_03_low1_E6E8C66.bin",
			"byteLength": 2484
		}
	],
	"bufferViews": [
		{
			"buffer": 0,
			"byteLength": 132,
			"target": 34963
		},
		{
			"buffer": 0,
			"byteLength": 504,
			"byteOffset": 132,
			"target": 34962
		},
		{
			"buffer": 0,
			"byteLength": 504,
			"byteOffset": 636,
			"target": 34962
		},
		{
			"buffer": 0,
			"byteLength": 672,
			"byteOffset": 1140,
			"target": 34962
		},
		{
			"buffer": 0,
			"byteLength": 336,
			"byteOffset": 1812,
			"target": 34962
		},
		{
			"buffer": 0,
			"byteLength": 336,
			"byteOffset": 2148,
			"target": 34962
		}
	],
	"images": [
		{
			"uri": "MI_Log_props_01_MetallicRoughness.png"
		},
		{
			"uri": "T_Log_Props_C.png"
		},
		{
			"uri": "T_Log_Props_N.png"
		},
		{
			"uri": "T_Log_Props_M.png"
		}
	],
	"materials": [
		{
			"name": "MI_Log_props_01",
			"pbrMetallicRoughness":
			{
				"baseColorTexture":
				{
					"index": 0
				},
				"metallicRoughnessTexture":
				{
					"index": 1
				}
			},
			"normalTexture":
			{
				"index": 2
			},
			"occlusionTexture":
			{
				"index": 3
			}
		}
	],
	"meshes": [
		{
			"name": "SM_log_slice_03_low1",
			"primitives": [
				{
					"attributes":
					{
						"POSITION": 1,
						"NORMAL": 2,
						"TANGENT": 3,
						"TEXCOORD_0": 4,
						"TEXCOORD_1": 5
					},
					"indices": 0,
					"material": 0
				}
			]
		}
	],
	"nodes": [
		{
			"mesh": 0
		}
	],
	"samplers": [
		{
			"minFilter": 9987,
			"magFilter": 9729
		}
	],
	"scenes": [
		{
			"nodes": [ 0 ]
		}
	],
	"textures": [
		{
			"name": "T_Log_Props_C",
			"sampler": 0,
			"source": 1
		},
		{
			"name": "MI_Log_props_01_MetallicRoughness",
			"sampler": 0,
			"source": 0
		},
		{
			"name": "T_Log_Props_N",
			"sampler": 0,
			"source": 2
		},
		{
			"name": "T_Log_Props_M",
			"sampler": 0,
			"source": 3
		}
	]
}