{
	"asset":
	{
		"version": "2.0",
		"generator": "Unreal Engine 5.6.1"
	},
	"scene": 0,
	"accessors": [
		{
			"bufferView": 0,
			"count": 3264,
			"type": "SCALAR",
			"componentType": 5123
		},
		{
			"bufferView": 1,
			"count": 631,
			"type": "VEC3",
			"componentType": 5126,
			"min": [ -2.7999208, 0.288261443, -2.7999208 ],
			"max": [ 2.7999208, 0.288261533, 2.7999208 ]
		},
		{
			"bufferView": 2,
			"count": 631,
			"type": "VEC3",
			"componentType": 5126
		},
		{
			"bufferView": 3,
			"count": 631,
			"type": "VEC4",
			"componentType": 5126
		},
		{
			"bufferView": 4,
			"count": 631,
			"type": "VEC2",
			"componentType": 5126
		},
		{
			"bufferView": 5,
			"count": 631,
			"type": "VEC2",
			"componentType": 5126
		}
	],
	"buffers": [
		{
			"uri": "SM_LionFountainPlane_19EC0F78.bin",
			"byteLength": 41864
		}
	],
	"bufferViews": [
		{
			"buffer": 0,
			"byteLength": 6528,
			"target": 34963
		},
		{
			"buffer": 0,
			"byteLength": 7572,
			"byteOffset": 6528,
			"target": 34962
		},
		{
			"buffer": 0,
			"byteLength": 7572,
			"byteOffset": 14100,
			"target": 34962
		},
		{
			"buffer": 0,
			"byteLength": 10096,
			"byteOffset": 21672,
			"target": 34962
		},
		{
			"buffer": 0,
			"byteLength": 5048,
			"byteOffset": 31768,
			"target": 34962
		},
		{
			"buffer": 0,
			"byteLength": 5048,
			"byteOffset": 36816,
			"target": 34962
		}
	],
	"materials": [
		{
			"name": "M_water_PLane",
			"pbrMetallicRoughness":
			{
				"baseColorFactor": [ 0.5, 0.5, 0.5, 1 ],
				"metallicFactor": 0,
				"roughnessFactor": 0.5
			}
		}
	],
	"meshes": [
		{
			"name": "SM_LionFountainPlane",
			"primitives": [
				{
					"attributes":
					{
						"POSITION": 1,
						"NORMAL": 2,
						"TANGENT": 3,
						"TEXCOORD_0": 4,
						"TEXCOORD_1": 5
					},
					"indices": 0,
					"material": 0
				}
			]
		}
	],
	"nodes": [
		{
			"mesh": 0
		}
	],
	"scenes": [
		{
			"nodes": [ 0 ]
		}
	]
}