{
	"asset":
	{
		"version": "2.0",
		"generator": "Unreal Engine 5.6.1"
	},
	"scene": 0,
	"accessors": [
		{
			"bufferView": 0,
			"count": 314088,
			"type": "SCALAR",
			"componentType": 5125
		},
		{
			"bufferView": 1,
			"count": 97565,
			"type": "VEC3",
			"componentType": 5126,
			"min": [ -1.23441494, -5.34682798, -1.23441494 ],
			"max": [ 1.23441494, 0.00112312008, 1.23441494 ]
		},
		{
			"bufferView": 2,
			"count": 97565,
			"type": "VEC3",
			"componentType": 5126
		},
		{
			"bufferView": 3,
			"count": 97565,
			"type": "VEC4",
			"componentType": 5126
		},
		{
			"bufferView": 4,
			"count": 97565,
			"type": "VEC2",
			"componentType": 5126
		},
		{
			"bufferView": 5,
			"count": 97565,
			"type": "VEC2",
			"componentType": 5126
		},
		{
			"bufferView": 6,
			"count": 288,
			"type": "SCALAR",
			"componentType": 5121
		},
		{
			"bufferView": 7,
			"count": 192,
			"type": "VEC3",
			"componentType": 5126,
			"min": [ -1.20908105, -4.99727535, -1.20908105 ],
			"max": [ 1.20908105, -4.08126688, 1.20908105 ]
		},
		{
			"bufferView": 8,
			"count": 192,
			"type": "VEC3",
			"componentType": 5126
		},
		{
			"bufferView": 9,
			"count": 192,
			"type": "VEC4",
			"componentType": 5126
		},
		{
			"bufferView": 10,
			"count": 192,
			"type": "VEC2",
			"componentType": 5126
		},
		{
			"bufferView": 11,
			"count": 192,
			"type": "VEC2",
			"componentType": 5126
		},
		{
			"bufferView": 12,
			"count": 10368,
			"type": "SCALAR",
			"componentType": 5123
		},
		{
			"bufferView": 13,
			"count": 2472,
			"type": "VEC3",
			"componentType": 5126,
			"min": [ -1.22096407, -5.27023125, -1.22096407 ],
			"max": [ 1.22096407, -4.13560677, 1.22096407 ]
		},
		{
			"bufferView": 14,
			"count": 2472,
			"type": "VEC3",
			"componentType": 5126
		},
		{
			"bufferView": 15,
			"count": 2472,
			"type": "VEC4",
			"componentType": 5126
		},
		{
			"bufferView": 16,
			"count": 2472,
			"type": "VEC2",
			"componentType": 5126
		},
		{
			"bufferView": 17,
			"count": 2472,
			"type": "VEC2",
			"componentType": 5126
		}
	],
	"buffers": [
		{
			"uri": "SM_lamp_03_FC2D16B2.bin",
			"byteLength": 6890200
		}
	],
	"bufferViews": [
		{
			"buffer": 0,
			"byteLength": 1256352,
			"target": 34963
		},
		{
			"buffer": 0,
			"byteLength": 1170780,
			"byteOffset": 1256352,
			"target": 34962
		},
		{
			"buffer": 0,
			"byteLength": 1170780,
			"byteOffset": 2427132,
			"target": 34962
		},
		{
			"buffer": 0,
			"byteLength": 1561040,
			"byteOffset": 3597912,
			"target": 34962
		},
		{
			"buffer": 0,
			"byteLength": 780520,
			"byteOffset": 5158952,
			"target": 34962
		},
		{
			"buffer": 0,
			"byteLength": 780520,
			"byteOffset": 5939472,
			"target": 34962
		},
		{
			"buffer": 0,
			"byteLength": 288,
			"byteOffset": 6719992,
			"target": 34963
		},
		{
			"buffer": 0,
			"byteLength": 2304,
			"byteOffset": 6720280,
			"target": 34962
		},
		{
			"buffer": 0,
			"byteLength": 2304,
			"byteOffset": 6722584,
			"target": 34962
		},
		{
			"buffer": 0,
			"byteLength": 3072,
			"byteOffset": 6724888,
			"target": 34962
		},
		{
			"buffer": 0,
			"byteLength": 1536,
			"byteOffset": 6727960,
			"target": 34962
		},
		{
			"buffer": 0,
			"byteLength": 1536,
			"byteOffset": 6729496,
			"target": 34962
		},
		{
			"buffer": 0,
			"byteLength": 20736,
			"byteOffset": 6731032,
			"target": 34963
		},
		{
			"buffer": 0,
			"byteLength": 29664,
			"byteOffset": 6751768,
			"target": 34962
		},
		{
			"buffer": 0,
			"byteLength": 29664,
			"byteOffset": 6781432,
			"target": 34962
		},
		{
			"buffer": 0,
			"byteLength": 39552,
			"byteOffset": 6811096,
			"target": 34962
		},
		{
			"buffer": 0,
			"byteLength": 19776,
			"byteOffset": 6850648,
			"target": 34962
		},
		{
			"buffer": 0,
			"byteLength": 19776,
			"byteOffset": 6870424,
			"target": 34962
		}
	],
	"images": [
		{
			"uri": "MI_Light_props_MetallicRoughness.png"
		},
		{
			"uri": "MI_Candle_MetallicRoughness.png"
		},
		{
			"uri": "T_Light_C.png"
		},
		{
			"uri": "T_Light_N.png"
		},
		{
			"uri": "T_Light_M.png"
		},
		{
			"uri": "T_candle_C.png"
		},
		{
			"uri": "T_candle_N.png"
		},
		{
			"uri": "T_candle_M.png"
		}
	],
	"materials": [
		{
			"name": "MI_Light_props",
			"pbrMetallicRoughness":
			{
				"baseColorTexture":
				{
					"index": 0
				},
				"metallicRoughnessTexture":
				{
					"index": 1
				}
			},
			"normalTexture":
			{
				"index": 2
			},
			"occlusionTexture":
			{
				"index": 3
			}
		},
		{
			"name": "MI_Candle_light",
			"pbrMetallicRoughness":
			{
				"baseColorFactor": [ 0, 0, 0, 0.690196097 ],
				"metallicFactor": 0,
				"roughnessFactor": 0.5
			},
			"emissiveFactor": [ 1, 0.764705956, 0.313725501 ],
			"alphaMode": "BLEND",
			"doubleSided": true,
			"extensions":
			{
				"KHR_materials_ior":
				{
					"ior": 1
				},
				"KHR_materials_emissive_strength":
				{
					"emissiveStrength": 26.328125
				}
			}
		},
		{
			"name": "MI_Candle",
			"pbrMetallicRoughness":
			{
				"baseColorTexture":
				{
					"index": 4
				},
				"metallicRoughnessTexture":
				{
					"index": 5
				}
			},
			"normalTexture":
			{
				"index": 6
			},
			"occlusionTexture":
			{
				"index": 7
			},
			"alphaMode": "MASK",
			"alphaCutoff": 0.333299994
		}
	],
	"meshes": [
		{
			"name": "SM_lamp_03",
			"primitives": [
				{
					"attributes":
					{
						"POSITION": 1,
						"NORMAL": 2,
						"TANGENT": 3,
						"TEXCOORD_0": 4,
						"TEXCOORD_1": 5
					},
					"indices": 0,
					"material": 0
				},
				{
					"attributes":
					{
						"POSITION": 7,
						"NORMAL": 8,
						"TANGENT": 9,
						"TEXCOORD_0": 10,
						"TEXCOORD_1": 11
					},
					"indices": 6,
					"material": 1
				},
				{
					"attributes":
					{
						"POSITION": 13,
						"NORMAL": 14,
						"TANGENT": 15,
						"TEXCOORD_0": 16,
						"TEXCOORD_1": 17
					},
					"indices": 12,
					"material": 2
				}
			]
		}
	],
	"nodes": [
		{
			"mesh": 0
		}
	],
	"samplers": [
		{
			"minFilter": 9987,
			"magFilter": 9729
		}
	],
	"scenes": [
		{
			"nodes": [ 0 ]
		}
	],
	"textures": [
		{
			"name": "T_Light_C",
			"sampler": 0,
			"source": 2
		},
		{
			"name": "MI_Light_props_MetallicRoughness",
			"sampler": 0,
			"source": 0
		},
		{
			"name": "T_Light_N",
			"sampler": 0,
			"source": 3
		},
		{
			"name": "T_Light_M",
			"sampler": 0,
			"source": 4
		},
		{
			"name": "T_candle_C",
			"sampler": 0,
			"source": 5
		},
		{
			"name": "MI_Candle_MetallicRoughness",
			"sampler": 0,
			"source": 1
		},
		{
			"name": "T_candle_N",
			"sampler": 0,
			"source": 6
		},
		{
			"name": "T_candle_M",
			"sampler": 0,
			"source": 7
		}
	],
	"extensionsUsed": [
		"KHR_materials_ior",
		"KHR_materials_emissive_strength"
	]
}