{
	"asset":
	{
		"version": "2.0",
		"generator": "Unreal Engine 5.6.1"
	},
	"scene": 0,
	"accessors": [
		{
			"bufferView": 0,
			"count": 210,
			"type": "SCALAR",
			"componentType": 5121
		},
		{
			"bufferView": 1,
			"count": 83,
			"type": "VEC3",
			"componentType": 5126,
			"min": [ -0.64062804, -4.24549261e-15, -0.0132787526 ],
			"max": [ 0.70440644, 0.978054047, 1.51353812 ]
		},
		{
			"bufferView": 2,
			"count": 83,
			"type": "VEC3",
			"componentType": 5126
		},
		{
			"bufferView": 3,
			"count": 83,
			"type": "VEC4",
			"componentType": 5126
		},
		{
			"bufferView": 4,
			"count": 83,
			"type": "VEC2",
			"componentType": 5126
		},
		{
			"bufferView": 5,
			"count": 83,
			"type": "VEC2",
			"componentType": 5126
		},
		{
			"bufferView": 6,
			"count": 660,
			"type": "SCALAR",
			"componentType": 5121
		},
		{
			"bufferView": 7,
			"count": 220,
			"type": "VEC3",
			"componentType": 5126,
			"min": [ -0.782586634, 0.124786489, 0.00802673306 ],
			"max": [ 0.782552838, 1.009799, 1.29123974 ]
		},
		{
			"bufferView": 8,
			"count": 220,
			"type": "VEC3",
			"componentType": 5126
		},
		{
			"bufferView": 9,
			"count": 220,
			"type": "VEC4",
			"componentType": 5126
		},
		{
			"bufferView": 10,
			"count": 220,
			"type": "VEC2",
			"componentType": 5126
		},
		{
			"bufferView": 11,
			"count": 220,
			"type": "VEC2",
			"componentType": 5126
		}
	],
	"buffers": [
		{
			"uri": "SM_ladder_03_9AD3CA2F.bin",
			"byteLength": 17840
		}
	],
	"bufferViews": [
		{
			"buffer": 0,
			"byteLength": 210,
			"target": 34963
		},
		{
			"buffer": 0,
			"byteLength": 996,
			"byteOffset": 212,
			"target": 34962
		},
		{
			"buffer": 0,
			"byteLength": 996,
			"byteOffset": 1208,
			"target": 34962
		},
		{
			"buffer": 0,
			"byteLength": 1328,
			"byteOffset": 2204,
			"target": 34962
		},
		{
			"buffer": 0,
			"byteLength": 664,
			"byteOffset": 3532,
			"target": 34962
		},
		{
			"buffer": 0,
			"byteLength": 664,
			"byteOffset": 4196,
			"target": 34962
		},
		{
			"buffer": 0,
			"byteLength": 660,
			"byteOffset": 4860,
			"target": 34963
		},
		{
			"buffer": 0,
			"byteLength": 2640,
			"byteOffset": 5520,
			"target": 34962
		},
		{
			"buffer": 0,
			"byteLength": 2640,
			"byteOffset": 8160,
			"target": 34962
		},
		{
			"buffer": 0,
			"byteLength": 3520,
			"byteOffset": 10800,
			"target": 34962
		},
		{
			"buffer": 0,
			"byteLength": 1760,
			"byteOffset": 14320,
			"target": 34962
		},
		{
			"buffer": 0,
			"byteLength": 1760,
			"byteOffset": 16080,
			"target": 34962
		}
	],
	"images": [
		{
			"uri": "MI_Wood_Trim_BaseColor.png"
		},
		{
			"uri": "MI_Wood_Trim_MetallicRoughness.png"
		},
		{
			"uri": "MI_Wood_Trim_Occlusion.png"
		},
		{
			"uri": "MI_Furniture_01_MetallicRoughness.png"
		},
		{
			"uri": "T_Wood_Trim_N.png"
		},
		{
			"uri": "T_Furniture_01_C.png"
		},
		{
			"uri": "T_Furniture_01_N.png"
		},
		{
			"uri": "T_Furniture_01_M.png"
		}
	],
	"materials": [
		{
			"name": "MI_Wood_Trim",
			"pbrMetallicRoughness":
			{
				"baseColorTexture":
				{
					"index": 0
				},
				"metallicRoughnessTexture":
				{
					"index": 1
				}
			},
			"normalTexture":
			{
				"index": 2
			},
			"occlusionTexture":
			{
				"index": 3
			}
		},
		{
			"name": "MI_Furniture_01",
			"pbrMetallicRoughness":
			{
				"baseColorTexture":
				{
					"index": 4
				},
				"metallicRoughnessTexture":
				{
					"index": 5
				}
			},
			"normalTexture":
			{
				"index": 6
			},
			"occlusionTexture":
			{
				"index": 7
			}
		}
	],
	"meshes": [
		{
			"name": "SM_ladder_03",
			"primitives": [
				{
					"attributes":
					{
						"POSITION": 1,
						"NORMAL": 2,
						"TANGENT": 3,
						"TEXCOORD_0": 4,
						"TEXCOORD_1": 5
					},
					"indices": 0,
					"material": 0
				},
				{
					"attributes":
					{
						"POSITION": 7,
						"NORMAL": 8,
						"TANGENT": 9,
						"TEXCOORD_0": 10,
						"TEXCOORD_1": 11
					},
					"indices": 6,
					"material": 1
				}
			]
		}
	],
	"nodes": [
		{
			"mesh": 0
		}
	],
	"samplers": [
		{
			"minFilter": 9987,
			"magFilter": 9729
		}
	],
	"scenes": [
		{
			"nodes": [ 0 ]
		}
	],
	"textures": [
		{
			"name": "MI_Wood_Trim_BaseColor",
			"sampler": 0,
			"source": 0
		},
		{
			"name": "MI_Wood_Trim_MetallicRoughness",
			"sampler": 0,
			"source": 1
		},
		{
			"name": "T_Wood_Trim_N",
			"sampler": 0,
			"source": 4
		},
		{
			"name": "MI_Wood_Trim_Occlusion",
			"sampler": 0,
			"source": 2
		},
		{
			"name": "T_Furniture_01_C",
			"sampler": 0,
			"source": 5
		},
		{
			"name": "MI_Furniture_01_MetallicRoughness",
			"sampler": 0,
			"source": 3
		},
		{
			"name": "T_Furniture_01_N",
			"sampler": 0,
			"source": 6
		},
		{
			"name": "T_Furniture_01_M",
			"sampler": 0,
			"source": 7
		}
	]
}