{
	"asset":
	{
		"version": "2.0",
		"generator": "Unreal Engine 5.6.1"
	},
	"scene": 0,
	"accessors": [
		{
			"bufferView": 0,
			"count": 1884,
			"type": "SCALAR",
			"componentType": 5123
		},
		{
			"bufferView": 1,
			"count": 678,
			"type": "VEC3",
			"componentType": 5126,
			"min": [ -2.32063007, -0.00145333109, -0.867018998 ],
			"max": [ 2.32062674, 0.580800176, 0.866586447 ]
		},
		{
			"bufferView": 2,
			"count": 678,
			"type": "VEC3",
			"componentType": 5126
		},
		{
			"bufferView": 3,
			"count": 678,
			"type": "VEC4",
			"componentType": 5126
		},
		{
			"bufferView": 4,
			"count": 678,
			"type": "VEC2",
			"componentType": 5126
		},
		{
			"bufferView": 5,
			"count": 678,
			"type": "VEC2",
			"componentType": 5126
		},
		{
			"bufferView": 6,
			"count": 396,
			"type": "SCALAR",
			"componentType": 5121
		},
		{
			"bufferView": 7,
			"count": 232,
			"type": "VEC3",
			"componentType": 5126,
			"min": [ -2.33399844, -0.00755438767, -0.865044594 ],
			"max": [ 2.33365774, 0.574689686, 0.869497657 ]
		},
		{
			"bufferView": 8,
			"count": 232,
			"type": "VEC3",
			"componentType": 5126
		},
		{
			"bufferView": 9,
			"count": 232,
			"type": "VEC4",
			"componentType": 5126
		},
		{
			"bufferView": 10,
			"count": 232,
			"type": "VEC2",
			"componentType": 5126
		},
		{
			"bufferView": 11,
			"count": 232,
			"type": "VEC2",
			"componentType": 5126
		}
	],
	"buffers": [
		{
			"uri": "SM_logs_pack_01_77F47B94.bin",
			"byteLength": 55124
		}
	],
	"bufferViews": [
		{
			"buffer": 0,
			"byteLength": 3768,
			"target": 34963
		},
		{
			"buffer": 0,
			"byteLength": 8136,
			"byteOffset": 3768,
			"target": 34962
		},
		{
			"buffer": 0,
			"byteLength": 8136,
			"byteOffset": 11904,
			"target": 34962
		},
		{
			"buffer": 0,
			"byteLength": 10848,
			"byteOffset": 20040,
			"target": 34962
		},
		{
			"buffer": 0,
			"byteLength": 5424,
			"byteOffset": 30888,
			"target": 34962
		},
		{
			"buffer": 0,
			"byteLength": 5424,
			"byteOffset": 36312,
			"target": 34962
		},
		{
			"buffer": 0,
			"byteLength": 396,
			"byteOffset": 41736,
			"target": 34963
		},
		{
			"buffer": 0,
			"byteLength": 2784,
			"byteOffset": 42132,
			"target": 34962
		},
		{
			"buffer": 0,
			"byteLength": 2784,
			"byteOffset": 44916,
			"target": 34962
		},
		{
			"buffer": 0,
			"byteLength": 3712,
			"byteOffset": 47700,
			"target": 34962
		},
		{
			"buffer": 0,
			"byteLength": 1856,
			"byteOffset": 51412,
			"target": 34962
		},
		{
			"buffer": 0,
			"byteLength": 1856,
			"byteOffset": 53268,
			"target": 34962
		}
	],
	"images": [
		{
			"uri": "MI_Atlas_01_MetallicRoughness.png"
		},
		{
			"uri": "MI_Log_props_01_MetallicRoughness.png"
		},
		{
			"uri": "T_Atlas_C.png"
		},
		{
			"uri": "T_Atlas_N.png"
		},
		{
			"uri": "T_Atlas_M.png"
		},
		{
			"uri": "T_Log_Props_C.png"
		},
		{
			"uri": "T_Log_Props_N.png"
		},
		{
			"uri": "T_Log_Props_M.png"
		}
	],
	"materials": [
		{
			"name": "MI_Atlas_01",
			"pbrMetallicRoughness":
			{
				"baseColorTexture":
				{
					"index": 0
				},
				"metallicRoughnessTexture":
				{
					"index": 1
				}
			},
			"normalTexture":
			{
				"index": 2
			},
			"occlusionTexture":
			{
				"index": 3
			}
		},
		{
			"name": "MI_Log_props_01",
			"pbrMetallicRoughness":
			{
				"baseColorTexture":
				{
					"index": 4
				},
				"metallicRoughnessTexture":
				{
					"index": 5
				}
			},
			"normalTexture":
			{
				"index": 6
			},
			"occlusionTexture":
			{
				"index": 7
			}
		}
	],
	"meshes": [
		{
			"name": "SM_logs_pack_01",
			"primitives": [
				{
					"attributes":
					{
						"POSITION": 1,
						"NORMAL": 2,
						"TANGENT": 3,
						"TEXCOORD_0": 4,
						"TEXCOORD_1": 5
					},
					"indices": 0,
					"material": 0
				},
				{
					"attributes":
					{
						"POSITION": 7,
						"NORMAL": 8,
						"TANGENT": 9,
						"TEXCOORD_0": 10,
						"TEXCOORD_1": 11
					},
					"indices": 6,
					"material": 1
				}
			]
		}
	],
	"nodes": [
		{
			"mesh": 0
		}
	],
	"samplers": [
		{
			"minFilter": 9987,
			"magFilter": 9729
		}
	],
	"scenes": [
		{
			"nodes": [ 0 ]
		}
	],
	"textures": [
		{
			"name": "T_Atlas_C",
			"sampler": 0,
			"source": 2
		},
		{
			"name": "MI_Atlas_01_MetallicRoughness",
			"sampler": 0,
			"source": 0
		},
		{
			"name": "T_Atlas_N",
			"sampler": 0,
			"source": 3
		},
		{
			"name": "T_Atlas_M",
			"sampler": 0,
			"source": 4
		},
		{
			"name": "T_Log_Props_C",
			"sampler": 0,
			"source": 5
		},
		{
			"name": "MI_Log_props_01_MetallicRoughness",
			"sampler": 0,
			"source": 1
		},
		{
			"name": "T_Log_Props_N",
			"sampler": 0,
			"source": 6
		},
		{
			"name": "T_Log_Props_M",
			"sampler": 0,
			"source": 7
		}
	]
}