{
	"asset":
	{
		"version": "2.0",
		"generator": "Unreal Engine 5.6.1"
	},
	"scene": 0,
	"accessors": [
		{
			"bufferView": 0,
			"count": 12786,
			"type": "SCALAR",
			"componentType": 5123
		},
		{
			"bufferView": 1,
			"count": 3049,
			"type": "VEC3",
			"componentType": 5126,
			"min": [ -2.25818777, -0.0441715233, -1.31662047 ],
			"max": [ 2.2557373, 3.46187115, 1.29394662 ]
		},
		{
			"bufferView": 2,
			"count": 3049,
			"type": "VEC3",
			"componentType": 5126
		},
		{
			"bufferView": 3,
			"count": 3049,
			"type": "VEC4",
			"componentType": 5126
		},
		{
			"bufferView": 4,
			"count": 3049,
			"type": "VEC2",
			"componentType": 5126
		},
		{
			"bufferView": 5,
			"count": 3049,
			"type": "VEC2",
			"componentType": 5126
		},
		{
			"bufferView": 6,
			"count": 17856,
			"type": "SCALAR",
			"componentType": 5123
		},
		{
			"bufferView": 7,
			"count": 11328,
			"type": "VEC3",
			"componentType": 5126,
			"min": [ -2.13455367, -0.0494500734, -1.26778352 ],
			"max": [ 2.12480092, 3.25896478, 2.6355567 ]
		},
		{
			"bufferView": 8,
			"count": 11328,
			"type": "VEC3",
			"componentType": 5126
		},
		{
			"bufferView": 9,
			"count": 11328,
			"type": "VEC4",
			"componentType": 5126
		},
		{
			"bufferView": 10,
			"count": 11328,
			"type": "VEC2",
			"componentType": 5126
		},
		{
			"bufferView": 11,
			"count": 11328,
			"type": "VEC2",
			"componentType": 5126
		},
		{
			"bufferView": 12,
			"count": 1140,
			"type": "SCALAR",
			"componentType": 5121
		},
		{
			"bufferView": 13,
			"count": 220,
			"type": "VEC3",
			"componentType": 5126,
			"min": [ -2.27638173, 0.0487322509, -1.42766321 ],
			"max": [ 2.27638173, 3.38619781, 1.21552312 ]
		},
		{
			"bufferView": 14,
			"count": 220,
			"type": "VEC3",
			"componentType": 5126
		},
		{
			"bufferView": 15,
			"count": 220,
			"type": "VEC4",
			"componentType": 5126
		},
		{
			"bufferView": 16,
			"count": 220,
			"type": "VEC2",
			"componentType": 5126
		},
		{
			"bufferView": 17,
			"count": 220,
			"type": "VEC2",
			"componentType": 5126
		},
		{
			"bufferView": 18,
			"count": 18672,
			"type": "SCALAR",
			"componentType": 5123
		},
		{
			"bufferView": 19,
			"count": 3548,
			"type": "VEC3",
			"componentType": 5126,
			"min": [ -1.66950452, 0.770778179, 0.20318678 ],
			"max": [ 1.02519798, 1.80243349, 1.87103176 ]
		},
		{
			"bufferView": 20,
			"count": 3548,
			"type": "VEC3",
			"componentType": 5126
		},
		{
			"bufferView": 21,
			"count": 3548,
			"type": "VEC4",
			"componentType": 5126
		},
		{
			"bufferView": 22,
			"count": 3548,
			"type": "VEC2",
			"componentType": 5126
		},
		{
			"bufferView": 23,
			"count": 3548,
			"type": "VEC2",
			"componentType": 5126
		},
		{
			"bufferView": 24,
			"count": 220032,
			"type": "SCALAR",
			"componentType": 5123
		},
		{
			"bufferView": 25,
			"count": 44960,
			"type": "VEC3",
			"componentType": 5126,
			"min": [ -2.00196218, 0.0580428056, 0.925696075 ],
			"max": [ 0.895886123, 1.55463648, 2.52510571 ]
		},
		{
			"bufferView": 26,
			"count": 44960,
			"type": "VEC3",
			"componentType": 5126
		},
		{
			"bufferView": 27,
			"count": 44960,
			"type": "VEC4",
			"componentType": 5126
		},
		{
			"bufferView": 28,
			"count": 44960,
			"type": "VEC2",
			"componentType": 5126
		},
		{
			"bufferView": 29,
			"count": 44960,
			"type": "VEC2",
			"componentType": 5126
		},
		{
			"bufferView": 30,
			"count": 18,
			"type": "SCALAR",
			"componentType": 5121
		},
		{
			"bufferView": 31,
			"count": 12,
			"type": "VEC3",
			"componentType": 5126,
			"min": [ -1.63205683, 0.37359035, 0.901607275 ],
			"max": [ 0.937898457, 1.5428139, 2.31843472 ]
		},
		{
			"bufferView": 32,
			"count": 12,
			"type": "VEC3",
			"componentType": 5126
		},
		{
			"bufferView": 33,
			"count": 12,
			"type": "VEC4",
			"componentType": 5126
		},
		{
			"bufferView": 34,
			"count": 12,
			"type": "VEC2",
			"componentType": 5126
		},
		{
			"bufferView": 35,
			"count": 12,
			"type": "VEC2",
			"componentType": 5126
		}
	],
	"buffers": [
		{
			"uri": "SM_market_02.bin",
			"byteLength": 4074404
		}
	],
	"bufferViews": [
		{
			"buffer": 0,
			"byteLength": 25572,
			"target": 34963
		},
		{
			"buffer": 0,
			"byteLength": 36588,
			"byteOffset": 25572,
			"target": 34962
		},
		{
			"buffer": 0,
			"byteLength": 36588,
			"byteOffset": 62160,
			"target": 34962
		},
		{
			"buffer": 0,
			"byteLength": 48784,
			"byteOffset": 98748,
			"target": 34962
		},
		{
			"buffer": 0,
			"byteLength": 24392,
			"byteOffset": 147532,
			"target": 34962
		},
		{
			"buffer": 0,
			"byteLength": 24392,
			"byteOffset": 171924,
			"target": 34962
		},
		{
			"buffer": 0,
			"byteLength": 35712,
			"byteOffset": 196316,
			"target": 34963
		},
		{
			"buffer": 0,
			"byteLength": 135936,
			"byteOffset": 232028,
			"target": 34962
		},
		{
			"buffer": 0,
			"byteLength": 135936,
			"byteOffset": 367964,
			"target": 34962
		},
		{
			"buffer": 0,
			"byteLength": 181248,
			"byteOffset": 503900,
			"target": 34962
		},
		{
			"buffer": 0,
			"byteLength": 90624,
			"byteOffset": 685148,
			"target": 34962
		},
		{
			"buffer": 0,
			"byteLength": 90624,
			"byteOffset": 775772,
			"target": 34962
		},
		{
			"buffer": 0,
			"byteLength": 1140,
			"byteOffset": 866396,
			"target": 34963
		},
		{
			"buffer": 0,
			"byteLength": 2640,
			"byteOffset": 867536,
			"target": 34962
		},
		{
			"buffer": 0,
			"byteLength": 2640,
			"byteOffset": 870176,
			"target": 34962
		},
		{
			"buffer": 0,
			"byteLength": 3520,
			"byteOffset": 872816,
			"target": 34962
		},
		{
			"buffer": 0,
			"byteLength": 1760,
			"byteOffset": 876336,
			"target": 34962
		},
		{
			"buffer": 0,
			"byteLength": 1760,
			"byteOffset": 878096,
			"target": 34962
		},
		{
			"buffer": 0,
			"byteLength": 37344,
			"byteOffset": 879856,
			"target": 34963
		},
		{
			"buffer": 0,
			"byteLength": 42576,
			"byteOffset": 917200,
			"target": 34962
		},
		{
			"buffer": 0,
			"byteLength": 42576,
			"byteOffset": 959776,
			"target": 34962
		},
		{
			"buffer": 0,
			"byteLength": 56768,
			"byteOffset": 1002352,
			"target": 34962
		},
		{
			"buffer": 0,
			"byteLength": 28384,
			"byteOffset": 1059120,
			"target": 34962
		},
		{
			"buffer": 0,
			"byteLength": 28384,
			"byteOffset": 1087504,
			"target": 34962
		},
		{
			"buffer": 0,
			"byteLength": 440064,
			"byteOffset": 1115888,
			"target": 34963
		},
		{
			"buffer": 0,
			"byteLength": 539520,
			"byteOffset": 1555952,
			"target": 34962
		},
		{
			"buffer": 0,
			"byteLength": 539520,
			"byteOffset": 2095472,
			"target": 34962
		},
		{
			"buffer": 0,
			"byteLength": 719360,
			"byteOffset": 2634992,
			"target": 34962
		},
		{
			"buffer": 0,
			"byteLength": 359680,
			"byteOffset": 3354352,
			"target": 34962
		},
		{
			"buffer": 0,
			"byteLength": 359680,
			"byteOffset": 3714032,
			"target": 34962
		},
		{
			"buffer": 0,
			"byteLength": 18,
			"byteOffset": 4073712,
			"target": 34963
		},
		{
			"buffer": 0,
			"byteLength": 144,
			"byteOffset": 4073732,
			"target": 34962
		},
		{
			"buffer": 0,
			"byteLength": 144,
			"byteOffset": 4073876,
			"target": 34962
		},
		{
			"buffer": 0,
			"byteLength": 192,
			"byteOffset": 4074020,
			"target": 34962
		},
		{
			"buffer": 0,
			"byteLength": 96,
			"byteOffset": 4074212,
			"target": 34962
		},
		{
			"buffer": 0,
			"byteLength": 96,
			"byteOffset": 4074308,
			"target": 34962
		}
	],
	"images": [
		{
			"uri": "MI_Atlas_01_MetallicRoughness.png"
		},
		{
			"uri": "MI_Wood_Trim_BaseColor.png"
		},
		{
			"uri": "MI_Wood_Trim_MetallicRoughness.png"
		},
		{
			"uri": "MI_Wood_Trim_Occlusion.png"
		},
		{
			"uri": "MI_Fish_MetallicRoughness.png"
		},
		{
			"uri": "MI_Fish_Tiling_BaseColor.png"
		},
		{
			"uri": "MI_Fish_Tiling_MetallicRoughness.png"
		},
		{
			"uri": "MI_Fish_Tiling_Normal.png"
		},
		{
			"uri": "MI_Fish_Tiling_Occlusion.png"
		},
		{
			"uri": "T_Atlas_C.png"
		},
		{
			"uri": "T_Atlas_N.png"
		},
		{
			"uri": "T_Atlas_M.png"
		},
		{
			"uri": "T_Wood_Trim_N.png"
		},
		{
			"uri": "T_fiber_C.png"
		},
		{
			"uri": "T_fiber_M.png"
		},
		{
			"uri": "T_fiber_N.png"
		},
		{
			"uri": "T_vegetables_C.png"
		},
		{
			"uri": "T_vegetables_M.png"
		},
		{
			"uri": "T_vegetables_N.png"
		},
		{
			"uri": "T_Fish_C.png"
		},
		{
			"uri": "T_Fish_N.png"
		},
		{
			"uri": "T_Fish_M.png"
		}
	],
	"materials": [
		{
			"name": "MI_Atlas_01",
			"pbrMetallicRoughness":
			{
				"baseColorTexture":
				{
					"index": 0
				},
				"metallicRoughnessTexture":
				{
					"index": 1
				}
			},
			"normalTexture":
			{
				"index": 2
			},
			"occlusionTexture":
			{
				"index": 3
			}
		},
		{
			"name": "MI_Wood_Trim",
			"pbrMetallicRoughness":
			{
				"baseColorTexture":
				{
					"index": 4
				},
				"metallicRoughnessTexture":
				{
					"index": 5
				}
			},
			"normalTexture":
			{
				"index": 6
			},
			"occlusionTexture":
			{
				"index": 7
			}
		},
		{
			"name": "MI_Fiber_01",
			"pbrMetallicRoughness":
			{
				"baseColorTexture":
				{
					"index": 8
				},
				"metallicRoughnessTexture":
				{
					"index": 9
				}
			},
			"normalTexture":
			{
				"index": 10
			},
			"occlusionTexture":
			{
				"index": 9
			},
			"doubleSided": true
		},
		{
			"name": "MI_vegetables",
			"pbrMetallicRoughness":
			{
				"baseColorTexture":
				{
					"index": 11
				},
				"metallicRoughnessTexture":
				{
					"index": 12
				}
			},
			"normalTexture":
			{
				"index": 13
			},
			"occlusionTexture":
			{
				"index": 12
			}
		},
		{
			"name": "MI_Fish",
			"pbrMetallicRoughness":
			{
				"baseColorTexture":
				{
					"index": 14
				},
				"metallicRoughnessTexture":
				{
					"index": 15
				}
			},
			"normalTexture":
			{
				"index": 16
			},
			"occlusionTexture":
			{
				"index": 17
			}
		},
		{
			"name": "MI_Fish_Tiling",
			"pbrMetallicRoughness":
			{
				"baseColorTexture":
				{
					"index": 18
				},
				"metallicRoughnessTexture":
				{
					"index": 19
				}
			},
			"normalTexture":
			{
				"index": 20
			},
			"occlusionTexture":
			{
				"index": 21
			}
		}
	],
	"meshes": [
		{
			"name": "SM_market_02",
			"primitives": [
				{
					"attributes":
					{
						"POSITION": 1,
						"NORMAL": 2,
						"TANGENT": 3,
						"TEXCOORD_0": 4,
						"TEXCOORD_1": 5
					},
					"indices": 0,
					"material": 0
				},
				{
					"attributes":
					{
						"POSITION": 7,
						"NORMAL": 8,
						"TANGENT": 9,
						"TEXCOORD_0": 10,
						"TEXCOORD_1": 11
					},
					"indices": 6,
					"material": 1
				},
				{
					"attributes":
					{
						"POSITION": 13,
						"NORMAL": 14,
						"TANGENT": 15,
						"TEXCOORD_0": 16,
						"TEXCOORD_1": 17
					},
					"indices": 12,
					"material": 2
				},
				{
					"attributes":
					{
						"POSITION": 19,
						"NORMAL": 20,
						"TANGENT": 21,
						"TEXCOORD_0": 22,
						"TEXCOORD_1": 23
					},
					"indices": 18,
					"material": 3
				},
				{
					"attributes":
					{
						"POSITION": 25,
						"NORMAL": 26,
						"TANGENT": 27,
						"TEXCOORD_0": 28,
						"TEXCOORD_1": 29
					},
					"indices": 24,
					"material": 4
				},
				{
					"attributes":
					{
						"POSITION": 31,
						"NORMAL": 32,
						"TANGENT": 33,
						"TEXCOORD_0": 34,
						"TEXCOORD_1": 35
					},
					"indices": 30,
					"material": 5
				}
			]
		}
	],
	"nodes": [
		{
			"mesh": 0
		}
	],
	"samplers": [
		{
			"minFilter": 9987,
			"magFilter": 9729
		}
	],
	"scenes": [
		{
			"nodes": [ 0 ]
		}
	],
	"textures": [
		{
			"name": "T_Atlas_C",
			"sampler": 0,
			"source": 9
		},
		{
			"name": "MI_Atlas_01_MetallicRoughness",
			"sampler": 0,
			"source": 0
		},
		{
			"name": "T_Atlas_N",
			"sampler": 0,
			"source": 10
		},
		{
			"name": "T_Atlas_M",
			"sampler": 0,
			"source": 11
		},
		{
			"name": "MI_Wood_Trim_BaseColor",
			"sampler": 0,
			"source": 1
		},
		{
			"name": "MI_Wood_Trim_MetallicRoughness",
			"sampler": 0,
			"source": 2
		},
		{
			"name": "T_Wood_Trim_N",
			"sampler": 0,
			"source": 12
		},
		{
			"name": "MI_Wood_Trim_Occlusion",
			"sampler": 0,
			"source": 3
		},
		{
			"name": "T_fiber_C",
			"sampler": 0,
			"source": 13
		},
		{
			"name": "T_fiber_M",
			"sampler": 0,
			"source": 14
		},
		{
			"name": "T_fiber_N",
			"sampler": 0,
			"source": 15
		},
		{
			"name": "T_vegetables_C",
			"sampler": 0,
			"source": 16
		},
		{
			"name": "T_vegetables_M",
			"sampler": 0,
			"source": 17
		},
		{
			"name": "T_vegetables_N",
			"sampler": 0,
			"source": 18
		},
		{
			"name": "T_Fish_C",
			"sampler": 0,
			"source": 19
		},
		{
			"name": "MI_Fish_MetallicRoughness",
			"sampler": 0,
			"source": 4
		},
		{
			"name": "T_Fish_N",
			"sampler": 0,
			"source": 20
		},
		{
			"name": "T_Fish_M",
			"sampler": 0,
			"source": 21
		},
		{
			"name": "MI_Fish_Tiling_BaseColor",
			"sampler": 0,
			"source": 5
		},
		{
			"name": "MI_Fish_Tiling_MetallicRoughness",
			"sampler": 0,
			"source": 6
		},
		{
			"name": "MI_Fish_Tiling_Normal",
			"sampler": 0,
			"source": 7
		},
		{
			"name": "MI_Fish_Tiling_Occlusion",
			"sampler": 0,
			"source": 8
		}
	]
}