{
	"asset":
	{
		"version": "2.0",
		"generator": "Unreal Engine 5.6.1"
	},
	"scene": 0,
	"accessors": [
		{
			"bufferView": 0,
			"count": 19902,
			"type": "SCALAR",
			"componentType": 5123
		},
		{
			"bufferView": 1,
			"count": 12740,
			"type": "VEC3",
			"componentType": 5126,
			"min": [ -2.08283234, -0.0413348861, -1.02626824 ],
			"max": [ 2.13275599, 3.10883427, 2.86932826 ]
		},
		{
			"bufferView": 2,
			"count": 12740,
			"type": "VEC3",
			"componentType": 5126
		},
		{
			"bufferView": 3,
			"count": 12740,
			"type": "VEC4",
			"componentType": 5126
		},
		{
			"bufferView": 4,
			"count": 12740,
			"type": "VEC2",
			"componentType": 5126
		},
		{
			"bufferView": 5,
			"count": 12740,
			"type": "VEC2",
			"componentType": 5126
		},
		{
			"bufferView": 6,
			"count": 12792,
			"type": "SCALAR",
			"componentType": 5123
		},
		{
			"bufferView": 7,
			"count": 3094,
			"type": "VEC3",
			"componentType": 5126,
			"min": [ -2.25696254, -0.0273579396, -0.971637428 ],
			"max": [ 2.25696254, 3.05360532, 1.17101765 ]
		},
		{
			"bufferView": 8,
			"count": 3094,
			"type": "VEC3",
			"componentType": 5126
		},
		{
			"bufferView": 9,
			"count": 3094,
			"type": "VEC4",
			"componentType": 5126
		},
		{
			"bufferView": 10,
			"count": 3094,
			"type": "VEC2",
			"componentType": 5126
		},
		{
			"bufferView": 11,
			"count": 3094,
			"type": "VEC2",
			"componentType": 5126
		},
		{
			"bufferView": 12,
			"count": 528,
			"type": "SCALAR",
			"componentType": 5121
		},
		{
			"bufferView": 13,
			"count": 115,
			"type": "VEC3",
			"componentType": 5126,
			"min": [ -2.07250762, 0.285733938, -0.896006346 ],
			"max": [ 2.15332723, 2.9863236, 0.839149475 ]
		},
		{
			"bufferView": 14,
			"count": 115,
			"type": "VEC3",
			"componentType": 5126
		},
		{
			"bufferView": 15,
			"count": 115,
			"type": "VEC4",
			"componentType": 5126
		},
		{
			"bufferView": 16,
			"count": 115,
			"type": "VEC2",
			"componentType": 5126
		},
		{
			"bufferView": 17,
			"count": 115,
			"type": "VEC2",
			"componentType": 5126
		},
		{
			"bufferView": 18,
			"count": 78732,
			"type": "SCALAR",
			"componentType": 5123
		},
		{
			"bufferView": 19,
			"count": 16537,
			"type": "VEC3",
			"componentType": 5126,
			"min": [ -1.79839218, 0.0205707233, 0.959897757 ],
			"max": [ 1.2365371, 1.49464524, 2.74841237 ]
		},
		{
			"bufferView": 20,
			"count": 16537,
			"type": "VEC3",
			"componentType": 5126
		},
		{
			"bufferView": 21,
			"count": 16537,
			"type": "VEC4",
			"componentType": 5126
		},
		{
			"bufferView": 22,
			"count": 16537,
			"type": "VEC2",
			"componentType": 5126
		},
		{
			"bufferView": 23,
			"count": 16537,
			"type": "VEC2",
			"componentType": 5126
		}
	],
	"buffers": [
		{
			"uri": "SM_market_01_7B6310D.bin",
			"byteLength": 2042596
		}
	],
	"bufferViews": [
		{
			"buffer": 0,
			"byteLength": 39804,
			"target": 34963
		},
		{
			"buffer": 0,
			"byteLength": 152880,
			"byteOffset": 39804,
			"target": 34962
		},
		{
			"buffer": 0,
			"byteLength": 152880,
			"byteOffset": 192684,
			"target": 34962
		},
		{
			"buffer": 0,
			"byteLength": 203840,
			"byteOffset": 345564,
			"target": 34962
		},
		{
			"buffer": 0,
			"byteLength": 101920,
			"byteOffset": 549404,
			"target": 34962
		},
		{
			"buffer": 0,
			"byteLength": 101920,
			"byteOffset": 651324,
			"target": 34962
		},
		{
			"buffer": 0,
			"byteLength": 25584,
			"byteOffset": 753244,
			"target": 34963
		},
		{
			"buffer": 0,
			"byteLength": 37128,
			"byteOffset": 778828,
			"target": 34962
		},
		{
			"buffer": 0,
			"byteLength": 37128,
			"byteOffset": 815956,
			"target": 34962
		},
		{
			"buffer": 0,
			"byteLength": 49504,
			"byteOffset": 853084,
			"target": 34962
		},
		{
			"buffer": 0,
			"byteLength": 24752,
			"byteOffset": 902588,
			"target": 34962
		},
		{
			"buffer": 0,
			"byteLength": 24752,
			"byteOffset": 927340,
			"target": 34962
		},
		{
			"buffer": 0,
			"byteLength": 528,
			"byteOffset": 952092,
			"target": 34963
		},
		{
			"buffer": 0,
			"byteLength": 1380,
			"byteOffset": 952620,
			"target": 34962
		},
		{
			"buffer": 0,
			"byteLength": 1380,
			"byteOffset": 954000,
			"target": 34962
		},
		{
			"buffer": 0,
			"byteLength": 1840,
			"byteOffset": 955380,
			"target": 34962
		},
		{
			"buffer": 0,
			"byteLength": 920,
			"byteOffset": 957220,
			"target": 34962
		},
		{
			"buffer": 0,
			"byteLength": 920,
			"byteOffset": 958140,
			"target": 34962
		},
		{
			"buffer": 0,
			"byteLength": 157464,
			"byteOffset": 959060,
			"target": 34963
		},
		{
			"buffer": 0,
			"byteLength": 198444,
			"byteOffset": 1116524,
			"target": 34962
		},
		{
			"buffer": 0,
			"byteLength": 198444,
			"byteOffset": 1314968,
			"target": 34962
		},
		{
			"buffer": 0,
			"byteLength": 264592,
			"byteOffset": 1513412,
			"target": 34962
		},
		{
			"buffer": 0,
			"byteLength": 132296,
			"byteOffset": 1778004,
			"target": 34962
		},
		{
			"buffer": 0,
			"byteLength": 132296,
			"byteOffset": 1910300,
			"target": 34962
		}
	],
	"images": [
		{
			"uri": "MI_Wood_Trim_BaseColor.png"
		},
		{
			"uri": "MI_Wood_Trim_MetallicRoughness.png"
		},
		{
			"uri": "MI_Wood_Trim_Occlusion.png"
		},
		{
			"uri": "MI_Atlas_01_MetallicRoughness.png"
		},
		{
			"uri": "T_Wood_Trim_N.png"
		},
		{
			"uri": "T_Atlas_C.png"
		},
		{
			"uri": "T_Atlas_N.png"
		},
		{
			"uri": "T_Atlas_M.png"
		},
		{
			"uri": "T_fiber_C.png"
		},
		{
			"uri": "T_fiber_M.png"
		},
		{
			"uri": "T_fiber_N.png"
		},
		{
			"uri": "T_vegetables_C.png"
		},
		{
			"uri": "T_vegetables_M.png"
		},
		{
			"uri": "T_vegetables_N.png"
		}
	],
	"materials": [
		{
			"name": "MI_Wood_Trim",
			"pbrMetallicRoughness":
			{
				"baseColorTexture":
				{
					"index": 0
				},
				"metallicRoughnessTexture":
				{
					"index": 1
				}
			},
			"normalTexture":
			{
				"index": 2
			},
			"occlusionTexture":
			{
				"index": 3
			}
		},
		{
			"name": "MI_Atlas_01",
			"pbrMetallicRoughness":
			{
				"baseColorTexture":
				{
					"index": 4
				},
				"metallicRoughnessTexture":
				{
					"index": 5
				}
			},
			"normalTexture":
			{
				"index": 6
			},
			"occlusionTexture":
			{
				"index": 7
			}
		},
		{
			"name": "MI_Fiber_01",
			"pbrMetallicRoughness":
			{
				"baseColorTexture":
				{
					"index": 8
				},
				"metallicRoughnessTexture":
				{
					"index": 9
				}
			},
			"normalTexture":
			{
				"index": 10
			},
			"occlusionTexture":
			{
				"index": 9
			},
			"doubleSided": true
		},
		{
			"name": "MI_vegetables",
			"pbrMetallicRoughness":
			{
				"baseColorTexture":
				{
					"index": 11
				},
				"metallicRoughnessTexture":
				{
					"index": 12
				}
			},
			"normalTexture":
			{
				"index": 13
			},
			"occlusionTexture":
			{
				"index": 12
			}
		}
	],
	"meshes": [
		{
			"name": "SM_market_01",
			"primitives": [
				{
					"attributes":
					{
						"POSITION": 1,
						"NORMAL": 2,
						"TANGENT": 3,
						"TEXCOORD_0": 4,
						"TEXCOORD_1": 5
					},
					"indices": 0,
					"material": 0
				},
				{
					"attributes":
					{
						"POSITION": 7,
						"NORMAL": 8,
						"TANGENT": 9,
						"TEXCOORD_0": 10,
						"TEXCOORD_1": 11
					},
					"indices": 6,
					"material": 1
				},
				{
					"attributes":
					{
						"POSITION": 13,
						"NORMAL": 14,
						"TANGENT": 15,
						"TEXCOORD_0": 16,
						"TEXCOORD_1": 17
					},
					"indices": 12,
					"material": 2
				},
				{
					"attributes":
					{
						"POSITION": 19,
						"NORMAL": 20,
						"TANGENT": 21,
						"TEXCOORD_0": 22,
						"TEXCOORD_1": 23
					},
					"indices": 18,
					"material": 3
				}
			]
		}
	],
	"nodes": [
		{
			"mesh": 0
		}
	],
	"samplers": [
		{
			"minFilter": 9987,
			"magFilter": 9729
		}
	],
	"scenes": [
		{
			"nodes": [ 0 ]
		}
	],
	"textures": [
		{
			"name": "MI_Wood_Trim_BaseColor",
			"sampler": 0,
			"source": 0
		},
		{
			"name": "MI_Wood_Trim_MetallicRoughness",
			"sampler": 0,
			"source": 1
		},
		{
			"name": "T_Wood_Trim_N",
			"sampler": 0,
			"source": 4
		},
		{
			"name": "MI_Wood_Trim_Occlusion",
			"sampler": 0,
			"source": 2
		},
		{
			"name": "T_Atlas_C",
			"sampler": 0,
			"source": 5
		},
		{
			"name": "MI_Atlas_01_MetallicRoughness",
			"sampler": 0,
			"source": 3
		},
		{
			"name": "T_Atlas_N",
			"sampler": 0,
			"source": 6
		},
		{
			"name": "T_Atlas_M",
			"sampler": 0,
			"source": 7
		},
		{
			"name": "T_fiber_C",
			"sampler": 0,
			"source": 8
		},
		{
			"name": "T_fiber_M",
			"sampler": 0,
			"source": 9
		},
		{
			"name": "T_fiber_N",
			"sampler": 0,
			"source": 10
		},
		{
			"name": "T_vegetables_C",
			"sampler": 0,
			"source": 11
		},
		{
			"name": "T_vegetables_M",
			"sampler": 0,
			"source": 12
		},
		{
			"name": "T_vegetables_N",
			"sampler": 0,
			"source": 13
		}
	]
}