{
	"asset":
	{
		"version": "2.0",
		"generator": "Unreal Engine 5.6.1"
	},
	"scene": 0,
	"accessors": [
		{
			"bufferView": 0,
			"count": 85488,
			"type": "SCALAR",
			"componentType": 5123
		},
		{
			"bufferView": 1,
			"count": 22236,
			"type": "VEC3",
			"componentType": 5126,
			"min": [ -4.62153721, -0.0432921201, -1.35337913 ],
			"max": [ 3.16281676, 2.62996078, 1.97327483 ]
		},
		{
			"bufferView": 2,
			"count": 22236,
			"type": "VEC3",
			"componentType": 5126
		},
		{
			"bufferView": 3,
			"count": 22236,
			"type": "VEC4",
			"componentType": 5126
		},
		{
			"bufferView": 4,
			"count": 22236,
			"type": "VEC2",
			"componentType": 5126
		},
		{
			"bufferView": 5,
			"count": 22236,
			"type": "VEC2",
			"componentType": 5126
		},
		{
			"bufferView": 6,
			"count": 10032,
			"type": "SCALAR",
			"componentType": 5123
		},
		{
			"bufferView": 7,
			"count": 4042,
			"type": "VEC3",
			"componentType": 5126,
			"min": [ -5.01808262, -0.0494500734, -1.26778352 ],
			"max": [ 3.15082979, 3.25896478, 2.14202738 ]
		},
		{
			"bufferView": 8,
			"count": 4042,
			"type": "VEC3",
			"componentType": 5126
		},
		{
			"bufferView": 9,
			"count": 4042,
			"type": "VEC4",
			"componentType": 5126
		},
		{
			"bufferView": 10,
			"count": 4042,
			"type": "VEC2",
			"componentType": 5126
		},
		{
			"bufferView": 11,
			"count": 4042,
			"type": "VEC2",
			"componentType": 5126
		},
		{
			"bufferView": 12,
			"count": 10440,
			"type": "SCALAR",
			"componentType": 5123
		},
		{
			"bufferView": 13,
			"count": 3480,
			"type": "VEC3",
			"componentType": 5126,
			"min": [ -4.66332579, 0.313055664, 0.909105062 ],
			"max": [ 2.87758803, 1.10079181, 1.95245779 ]
		},
		{
			"bufferView": 14,
			"count": 3480,
			"type": "VEC3",
			"componentType": 5126
		},
		{
			"bufferView": 15,
			"count": 3480,
			"type": "VEC4",
			"componentType": 5126
		},
		{
			"bufferView": 16,
			"count": 3480,
			"type": "VEC2",
			"componentType": 5126
		},
		{
			"bufferView": 17,
			"count": 3480,
			"type": "VEC2",
			"componentType": 5126
		},
		{
			"bufferView": 18,
			"count": 1200,
			"type": "SCALAR",
			"componentType": 5123
		},
		{
			"bufferView": 19,
			"count": 572,
			"type": "VEC3",
			"componentType": 5126,
			"min": [ -2.65216589, 0.234025821, -0.888645887 ],
			"max": [ 2.97438145, 0.797143221, 0.869733334 ]
		},
		{
			"bufferView": 20,
			"count": 572,
			"type": "VEC3",
			"componentType": 5126
		},
		{
			"bufferView": 21,
			"count": 572,
			"type": "VEC4",
			"componentType": 5126
		},
		{
			"bufferView": 22,
			"count": 572,
			"type": "VEC2",
			"componentType": 5126
		},
		{
			"bufferView": 23,
			"count": 572,
			"type": "VEC2",
			"componentType": 5126
		},
		{
			"bufferView": 24,
			"count": 62448,
			"type": "SCALAR",
			"componentType": 5123
		},
		{
			"bufferView": 25,
			"count": 15704,
			"type": "VEC3",
			"componentType": 5126,
			"min": [ -2.75174403, 3.51731466e-09, -0.982940435 ],
			"max": [ 3.06268978, 0.82494849, 0.968082309 ]
		},
		{
			"bufferView": 26,
			"count": 15704,
			"type": "VEC3",
			"componentType": 5126
		},
		{
			"bufferView": 27,
			"count": 15704,
			"type": "VEC4",
			"componentType": 5126
		},
		{
			"bufferView": 28,
			"count": 15704,
			"type": "VEC2",
			"componentType": 5126
		},
		{
			"bufferView": 29,
			"count": 15704,
			"type": "VEC2",
			"componentType": 5126
		},
		{
			"bufferView": 30,
			"count": 12786,
			"type": "SCALAR",
			"componentType": 5123
		},
		{
			"bufferView": 31,
			"count": 3049,
			"type": "VEC3",
			"componentType": 5126,
			"min": [ -2.25818777, -0.0441715233, -1.31662047 ],
			"max": [ 2.2557373, 3.46187115, 1.29394662 ]
		},
		{
			"bufferView": 32,
			"count": 3049,
			"type": "VEC3",
			"componentType": 5126
		},
		{
			"bufferView": 33,
			"count": 3049,
			"type": "VEC4",
			"componentType": 5126
		},
		{
			"bufferView": 34,
			"count": 3049,
			"type": "VEC2",
			"componentType": 5126
		},
		{
			"bufferView": 35,
			"count": 3049,
			"type": "VEC2",
			"componentType": 5126
		},
		{
			"bufferView": 36,
			"count": 1140,
			"type": "SCALAR",
			"componentType": 5121
		},
		{
			"bufferView": 37,
			"count": 220,
			"type": "VEC3",
			"componentType": 5126,
			"min": [ -2.27638173, 0.0487322509, -1.42766321 ],
			"max": [ 2.27638173, 3.38619781, 1.21552312 ]
		},
		{
			"bufferView": 38,
			"count": 220,
			"type": "VEC3",
			"componentType": 5126
		},
		{
			"bufferView": 39,
			"count": 220,
			"type": "VEC4",
			"componentType": 5126
		},
		{
			"bufferView": 40,
			"count": 220,
			"type": "VEC2",
			"componentType": 5126
		},
		{
			"bufferView": 41,
			"count": 220,
			"type": "VEC2",
			"componentType": 5126
		}
	],
	"buffers": [
		{
			"uri": "SM_market_03_989E7D23.bin",
			"byteLength": 3126896
		}
	],
	"bufferViews": [
		{
			"buffer": 0,
			"byteLength": 170976,
			"target": 34963
		},
		{
			"buffer": 0,
			"byteLength": 266832,
			"byteOffset": 170976,
			"target": 34962
		},
		{
			"buffer": 0,
			"byteLength": 266832,
			"byteOffset": 437808,
			"target": 34962
		},
		{
			"buffer": 0,
			"byteLength": 355776,
			"byteOffset": 704640,
			"target": 34962
		},
		{
			"buffer": 0,
			"byteLength": 177888,
			"byteOffset": 1060416,
			"target": 34962
		},
		{
			"buffer": 0,
			"byteLength": 177888,
			"byteOffset": 1238304,
			"target": 34962
		},
		{
			"buffer": 0,
			"byteLength": 20064,
			"byteOffset": 1416192,
			"target": 34963
		},
		{
			"buffer": 0,
			"byteLength": 48504,
			"byteOffset": 1436256,
			"target": 34962
		},
		{
			"buffer": 0,
			"byteLength": 48504,
			"byteOffset": 1484760,
			"target": 34962
		},
		{
			"buffer": 0,
			"byteLength": 64672,
			"byteOffset": 1533264,
			"target": 34962
		},
		{
			"buffer": 0,
			"byteLength": 32336,
			"byteOffset": 1597936,
			"target": 34962
		},
		{
			"buffer": 0,
			"byteLength": 32336,
			"byteOffset": 1630272,
			"target": 34962
		},
		{
			"buffer": 0,
			"byteLength": 20880,
			"byteOffset": 1662608,
			"target": 34963
		},
		{
			"buffer": 0,
			"byteLength": 41760,
			"byteOffset": 1683488,
			"target": 34962
		},
		{
			"buffer": 0,
			"byteLength": 41760,
			"byteOffset": 1725248,
			"target": 34962
		},
		{
			"buffer": 0,
			"byteLength": 55680,
			"byteOffset": 1767008,
			"target": 34962
		},
		{
			"buffer": 0,
			"byteLength": 27840,
			"byteOffset": 1822688,
			"target": 34962
		},
		{
			"buffer": 0,
			"byteLength": 27840,
			"byteOffset": 1850528,
			"target": 34962
		},
		{
			"buffer": 0,
			"byteLength": 2400,
			"byteOffset": 1878368,
			"target": 34963
		},
		{
			"buffer": 0,
			"byteLength": 6864,
			"byteOffset": 1880768,
			"target": 34962
		},
		{
			"buffer": 0,
			"byteLength": 6864,
			"byteOffset": 1887632,
			"target": 34962
		},
		{
			"buffer": 0,
			"byteLength": 9152,
			"byteOffset": 1894496,
			"target": 34962
		},
		{
			"buffer": 0,
			"byteLength": 4576,
			"byteOffset": 1903648,
			"target": 34962
		},
		{
			"buffer": 0,
			"byteLength": 4576,
			"byteOffset": 1908224,
			"target": 34962
		},
		{
			"buffer": 0,
			"byteLength": 124896,
			"byteOffset": 1912800,
			"target": 34963
		},
		{
			"buffer": 0,
			"byteLength": 188448,
			"byteOffset": 2037696,
			"target": 34962
		},
		{
			"buffer": 0,
			"byteLength": 188448,
			"byteOffset": 2226144,
			"target": 34962
		},
		{
			"buffer": 0,
			"byteLength": 251264,
			"byteOffset": 2414592,
			"target": 34962
		},
		{
			"buffer": 0,
			"byteLength": 125632,
			"byteOffset": 2665856,
			"target": 34962
		},
		{
			"buffer": 0,
			"byteLength": 125632,
			"byteOffset": 2791488,
			"target": 34962
		},
		{
			"buffer": 0,
			"byteLength": 25572,
			"byteOffset": 2917120,
			"target": 34963
		},
		{
			"buffer": 0,
			"byteLength": 36588,
			"byteOffset": 2942692,
			"target": 34962
		},
		{
			"buffer": 0,
			"byteLength": 36588,
			"byteOffset": 2979280,
			"target": 34962
		},
		{
			"buffer": 0,
			"byteLength": 48784,
			"byteOffset": 3015868,
			"target": 34962
		},
		{
			"buffer": 0,
			"byteLength": 24392,
			"byteOffset": 3064652,
			"target": 34962
		},
		{
			"buffer": 0,
			"byteLength": 24392,
			"byteOffset": 3089044,
			"target": 34962
		},
		{
			"buffer": 0,
			"byteLength": 1140,
			"byteOffset": 3113436,
			"target": 34963
		},
		{
			"buffer": 0,
			"byteLength": 2640,
			"byteOffset": 3114576,
			"target": 34962
		},
		{
			"buffer": 0,
			"byteLength": 2640,
			"byteOffset": 3117216,
			"target": 34962
		},
		{
			"buffer": 0,
			"byteLength": 3520,
			"byteOffset": 3119856,
			"target": 34962
		},
		{
			"buffer": 0,
			"byteLength": 1760,
			"byteOffset": 3123376,
			"target": 34962
		},
		{
			"buffer": 0,
			"byteLength": 1760,
			"byteOffset": 3125136,
			"target": 34962
		}
	],
	"images": [
		{
			"uri": "MI_Weapon_MetallicRoughness.png"
		},
		{
			"uri": "MI_Wood_Trim_BaseColor.png"
		},
		{
			"uri": "MI_Wood_Trim_MetallicRoughness.png"
		},
		{
			"uri": "MI_Wood_Trim_Occlusion.png"
		},
		{
			"uri": "MI_Metall_Trim_styl_01_MetallicRoughness.png"
		},
		{
			"uri": "MI_Metall_Trim_styl_01_Occlusion.png"
		},
		{
			"uri": "MI_Furniture_01_MetallicRoughness.png"
		},
		{
			"uri": "MI_Atlas_01_MetallicRoughness.png"
		},
		{
			"uri": "T_vase_veapon_C.png"
		},
		{
			"uri": "T_vase_veapon_N.png"
		},
		{
			"uri": "T_vase_veapon_M.png"
		},
		{
			"uri": "T_Wood_Trim_N.png"
		},
		{
			"uri": "T_fMetalTrimStyl_C.png"
		},
		{
			"uri": "T_fMetalTrimStyl_N.png"
		},
		{
			"uri": "T_Furniture_01_C.png"
		},
		{
			"uri": "T_Furniture_01_N.png"
		},
		{
			"uri": "T_Furniture_01_M.png"
		},
		{
			"uri": "T_Atlas_C.png"
		},
		{
			"uri": "T_Atlas_N.png"
		},
		{
			"uri": "T_Atlas_M.png"
		},
		{
			"uri": "T_fiber_C.png"
		},
		{
			"uri": "T_fiber_M.png"
		},
		{
			"uri": "T_fiber_N.png"
		}
	],
	"materials": [
		{
			"name": "MI_Weapon",
			"pbrMetallicRoughness":
			{
				"baseColorTexture":
				{
					"index": 0
				},
				"metallicRoughnessTexture":
				{
					"index": 1
				}
			},
			"normalTexture":
			{
				"index": 2
			},
			"occlusionTexture":
			{
				"index": 3
			}
		},
		{
			"name": "MI_Wood_Trim",
			"pbrMetallicRoughness":
			{
				"baseColorTexture":
				{
					"index": 4
				},
				"metallicRoughnessTexture":
				{
					"index": 5
				}
			},
			"normalTexture":
			{
				"index": 6
			},
			"occlusionTexture":
			{
				"index": 7
			}
		},
		{
			"name": "MI_Metall_Trim_styl_01",
			"pbrMetallicRoughness":
			{
				"baseColorTexture":
				{
					"index": 8
				},
				"metallicRoughnessTexture":
				{
					"index": 9
				}
			},
			"normalTexture":
			{
				"index": 10
			},
			"occlusionTexture":
			{
				"index": 11
			}
		},
		{
			"name": "MI_Furniture_01",
			"pbrMetallicRoughness":
			{
				"baseColorTexture":
				{
					"index": 12
				},
				"metallicRoughnessTexture":
				{
					"index": 13
				}
			},
			"normalTexture":
			{
				"index": 14
			},
			"occlusionTexture":
			{
				"index": 15
			}
		},
		{
			"name": "MI_Atlas_01",
			"pbrMetallicRoughness":
			{
				"baseColorTexture":
				{
					"index": 16
				},
				"metallicRoughnessTexture":
				{
					"index": 17
				}
			},
			"normalTexture":
			{
				"index": 18
			},
			"occlusionTexture":
			{
				"index": 19
			}
		},
		{
			"name": "MI_Fiber_01",
			"pbrMetallicRoughness":
			{
				"baseColorTexture":
				{
					"index": 20
				},
				"metallicRoughnessTexture":
				{
					"index": 21
				}
			},
			"normalTexture":
			{
				"index": 22
			},
			"occlusionTexture":
			{
				"index": 21
			},
			"doubleSided": true
		}
	],
	"meshes": [
		{
			"name": "SM_market_03",
			"primitives": [
				{
					"attributes":
					{
						"POSITION": 1,
						"NORMAL": 2,
						"TANGENT": 3,
						"TEXCOORD_0": 4,
						"TEXCOORD_1": 5
					},
					"indices": 0,
					"material": 0
				},
				{
					"attributes":
					{
						"POSITION": 7,
						"NORMAL": 8,
						"TANGENT": 9,
						"TEXCOORD_0": 10,
						"TEXCOORD_1": 11
					},
					"indices": 6,
					"material": 1
				},
				{
					"attributes":
					{
						"POSITION": 13,
						"NORMAL": 14,
						"TANGENT": 15,
						"TEXCOORD_0": 16,
						"TEXCOORD_1": 17
					},
					"indices": 12,
					"material": 2
				},
				{
					"attributes":
					{
						"POSITION": 19,
						"NORMAL": 20,
						"TANGENT": 21,
						"TEXCOORD_0": 22,
						"TEXCOORD_1": 23
					},
					"indices": 18,
					"material": 1
				},
				{
					"attributes":
					{
						"POSITION": 25,
						"NORMAL": 26,
						"TANGENT": 27,
						"TEXCOORD_0": 28,
						"TEXCOORD_1": 29
					},
					"indices": 24,
					"material": 3
				},
				{
					"attributes":
					{
						"POSITION": 31,
						"NORMAL": 32,
						"TANGENT": 33,
						"TEXCOORD_0": 34,
						"TEXCOORD_1": 35
					},
					"indices": 30,
					"material": 4
				},
				{
					"attributes":
					{
						"POSITION": 37,
						"NORMAL": 38,
						"TANGENT": 39,
						"TEXCOORD_0": 40,
						"TEXCOORD_1": 41
					},
					"indices": 36,
					"material": 5
				}
			]
		}
	],
	"nodes": [
		{
			"mesh": 0
		}
	],
	"samplers": [
		{
			"minFilter": 9987,
			"magFilter": 9729
		}
	],
	"scenes": [
		{
			"nodes": [ 0 ]
		}
	],
	"textures": [
		{
			"name": "T_vase_veapon_C",
			"sampler": 0,
			"source": 8
		},
		{
			"name": "MI_Weapon_MetallicRoughness",
			"sampler": 0,
			"source": 0
		},
		{
			"name": "T_vase_veapon_N",
			"sampler": 0,
			"source": 9
		},
		{
			"name": "T_vase_veapon_M",
			"sampler": 0,
			"source": 10
		},
		{
			"name": "MI_Wood_Trim_BaseColor",
			"sampler": 0,
			"source": 1
		},
		{
			"name": "MI_Wood_Trim_MetallicRoughness",
			"sampler": 0,
			"source": 2
		},
		{
			"name": "T_Wood_Trim_N",
			"sampler": 0,
			"source": 11
		},
		{
			"name": "MI_Wood_Trim_Occlusion",
			"sampler": 0,
			"source": 3
		},
		{
			"name": "T_fMetalTrimStyl_C",
			"sampler": 0,
			"source": 12
		},
		{
			"name": "MI_Metall_Trim_styl_01_MetallicRoughness",
			"sampler": 0,
			"source": 4
		},
		{
			"name": "T_fMetalTrimStyl_N",
			"sampler": 0,
			"source": 13
		},
		{
			"name": "MI_Metall_Trim_styl_01_Occlusion",
			"sampler": 0,
			"source": 5
		},
		{
			"name": "T_Furniture_01_C",
			"sampler": 0,
			"source": 14
		},
		{
			"name": "MI_Furniture_01_MetallicRoughness",
			"sampler": 0,
			"source": 6
		},
		{
			"name": "T_Furniture_01_N",
			"sampler": 0,
			"source": 15
		},
		{
			"name": "T_Furniture_01_M",
			"sampler": 0,
			"source": 16
		},
		{
			"name": "T_Atlas_C",
			"sampler": 0,
			"source": 17
		},
		{
			"name": "MI_Atlas_01_MetallicRoughness",
			"sampler": 0,
			"source": 7
		},
		{
			"name": "T_Atlas_N",
			"sampler": 0,
			"source": 18
		},
		{
			"name": "T_Atlas_M",
			"sampler": 0,
			"source": 19
		},
		{
			"name": "T_fiber_C",
			"sampler": 0,
			"source": 20
		},
		{
			"name": "T_fiber_M",
			"sampler": 0,
			"source": 21
		},
		{
			"name": "T_fiber_N",
			"sampler": 0,
			"source": 22
		}
	]
}