{
	"asset":
	{
		"version": "2.0",
		"generator": "Unreal Engine 5.6.1"
	},
	"scene": 0,
	"accessors": [
		{
			"bufferView": 0,
			"count": 768,
			"type": "SCALAR",
			"componentType": 5123
		},
		{
			"bufferView": 1,
			"count": 283,
			"type": "VEC3",
			"componentType": 5126,
			"min": [ -1.67073405, -6.66146481e-17, -1.1142714 ],
			"max": [ 1.67073405, 1.22759056, 1.1142714 ]
		},
		{
			"bufferView": 2,
			"count": 283,
			"type": "VEC3",
			"componentType": 5126
		},
		{
			"bufferView": 3,
			"count": 283,
			"type": "VEC4",
			"componentType": 5126
		},
		{
			"bufferView": 4,
			"count": 283,
			"type": "VEC2",
			"componentType": 5126
		},
		{
			"bufferView": 5,
			"count": 283,
			"type": "VEC2",
			"componentType": 5126
		}
	],
	"buffers": [
		{
			"uri": "SM_pedestal_02.bin",
			"byteLength": 17384
		}
	],
	"bufferViews": [
		{
			"buffer": 0,
			"byteLength": 1536,
			"target": 34963
		},
		{
			"buffer": 0,
			"byteLength": 3396,
			"byteOffset": 1536,
			"target": 34962
		},
		{
			"buffer": 0,
			"byteLength": 3396,
			"byteOffset": 4932,
			"target": 34962
		},
		{
			"buffer": 0,
			"byteLength": 4528,
			"byteOffset": 8328,
			"target": 34962
		},
		{
			"buffer": 0,
			"byteLength": 2264,
			"byteOffset": 12856,
			"target": 34962
		},
		{
			"buffer": 0,
			"byteLength": 2264,
			"byteOffset": 15120,
			"target": 34962
		}
	],
	"images": [
		{
			"uri": "MI_Pedestal_MetallicRoughness.png"
		},
		{
			"uri": "T_Pedestal_C.png"
		},
		{
			"uri": "T_Pedestal_N.png"
		},
		{
			"uri": "T_Pedestal_M.png"
		}
	],
	"materials": [
		{
			"name": "MI_Pedestal",
			"pbrMetallicRoughness":
			{
				"baseColorTexture":
				{
					"index": 0
				},
				"metallicRoughnessTexture":
				{
					"index": 1
				}
			},
			"normalTexture":
			{
				"index": 2
			},
			"occlusionTexture":
			{
				"index": 3
			}
		}
	],
	"meshes": [
		{
			"name": "SM_pedestal_02",
			"primitives": [
				{
					"attributes":
					{
						"POSITION": 1,
						"NORMAL": 2,
						"TANGENT": 3,
						"TEXCOORD_0": 4,
						"TEXCOORD_1": 5
					},
					"indices": 0,
					"material": 0
				}
			]
		}
	],
	"nodes": [
		{
			"mesh": 0
		}
	],
	"samplers": [
		{
			"minFilter": 9987,
			"magFilter": 9729
		}
	],
	"scenes": [
		{
			"nodes": [ 0 ]
		}
	],
	"textures": [
		{
			"name": "T_Pedestal_C",
			"sampler": 0,
			"source": 1
		},
		{
			"name": "MI_Pedestal_MetallicRoughness",
			"sampler": 0,
			"source": 0
		},
		{
			"name": "T_Pedestal_N",
			"sampler": 0,
			"source": 2
		},
		{
			"name": "T_Pedestal_M",
			"sampler": 0,
			"source": 3
		}
	]
}