{
	"asset":
	{
		"version": "2.0",
		"generator": "Unreal Engine 5.6.1"
	},
	"scene": 0,
	"accessors": [
		{
			"bufferView": 0,
			"count": 1200,
			"type": "SCALAR",
			"componentType": 5123
		},
		{
			"bufferView": 1,
			"count": 690,
			"type": "VEC3",
			"componentType": 5126,
			"min": [ 0.0220183898, -4.85764211e-08, -5.79263306 ],
			"max": [ 16.8271809, 22, 0.657237768 ]
		},
		{
			"bufferView": 2,
			"count": 690,
			"type": "VEC3",
			"componentType": 5126
		},
		{
			"bufferView": 3,
			"count": 690,
			"type": "VEC4",
			"componentType": 5126
		},
		{
			"bufferView": 4,
			"count": 690,
			"type": "VEC2",
			"componentType": 5126
		},
		{
			"bufferView": 5,
			"count": 690,
			"type": "VEC2",
			"componentType": 5126
		},
		{
			"bufferView": 6,
			"count": 144,
			"type": "SCALAR",
			"componentType": 5121
		},
		{
			"bufferView": 7,
			"count": 46,
			"type": "VEC3",
			"componentType": 5126,
			"min": [ -0.00626066187, -4.85764211e-08, -5.00112581 ],
			"max": [ 16.9999981, 22.0048866, 0.000113287861 ]
		},
		{
			"bufferView": 8,
			"count": 46,
			"type": "VEC3",
			"componentType": 5126
		},
		{
			"bufferView": 9,
			"count": 46,
			"type": "VEC4",
			"componentType": 5126
		},
		{
			"bufferView": 10,
			"count": 46,
			"type": "VEC2",
			"componentType": 5126
		},
		{
			"bufferView": 11,
			"count": 46,
			"type": "VEC2",
			"componentType": 5126
		},
		{
			"bufferView": 12,
			"count": 48,
			"type": "SCALAR",
			"componentType": 5121
		},
		{
			"bufferView": 13,
			"count": 28,
			"type": "VEC3",
			"componentType": 5126,
			"min": [ 5.04830599, 14.9110069, -5.01552105 ],
			"max": [ 11.8752928, 20.5534801, 0.042435497 ]
		},
		{
			"bufferView": 14,
			"count": 28,
			"type": "VEC3",
			"componentType": 5126
		},
		{
			"bufferView": 15,
			"count": 28,
			"type": "VEC4",
			"componentType": 5126
		},
		{
			"bufferView": 16,
			"count": 28,
			"type": "VEC2",
			"componentType": 5126
		},
		{
			"bufferView": 17,
			"count": 28,
			"type": "VEC2",
			"componentType": 5126
		}
	],
	"buffers": [
		{
			"uri": "SM_palace_wall_deco_01.bin",
			"byteLength": 45376
		}
	],
	"bufferViews": [
		{
			"buffer": 0,
			"byteLength": 2400,
			"target": 34963
		},
		{
			"buffer": 0,
			"byteLength": 8280,
			"byteOffset": 2400,
			"target": 34962
		},
		{
			"buffer": 0,
			"byteLength": 8280,
			"byteOffset": 10680,
			"target": 34962
		},
		{
			"buffer": 0,
			"byteLength": 11040,
			"byteOffset": 18960,
			"target": 34962
		},
		{
			"buffer": 0,
			"byteLength": 5520,
			"byteOffset": 30000,
			"target": 34962
		},
		{
			"buffer": 0,
			"byteLength": 5520,
			"byteOffset": 35520,
			"target": 34962
		},
		{
			"buffer": 0,
			"byteLength": 144,
			"byteOffset": 41040,
			"target": 34963
		},
		{
			"buffer": 0,
			"byteLength": 552,
			"byteOffset": 41184,
			"target": 34962
		},
		{
			"buffer": 0,
			"byteLength": 552,
			"byteOffset": 41736,
			"target": 34962
		},
		{
			"buffer": 0,
			"byteLength": 736,
			"byteOffset": 42288,
			"target": 34962
		},
		{
			"buffer": 0,
			"byteLength": 368,
			"byteOffset": 43024,
			"target": 34962
		},
		{
			"buffer": 0,
			"byteLength": 368,
			"byteOffset": 43392,
			"target": 34962
		},
		{
			"buffer": 0,
			"byteLength": 48,
			"byteOffset": 43760,
			"target": 34963
		},
		{
			"buffer": 0,
			"byteLength": 336,
			"byteOffset": 43808,
			"target": 34962
		},
		{
			"buffer": 0,
			"byteLength": 336,
			"byteOffset": 44144,
			"target": 34962
		},
		{
			"buffer": 0,
			"byteLength": 448,
			"byteOffset": 44480,
			"target": 34962
		},
		{
			"buffer": 0,
			"byteLength": 224,
			"byteOffset": 44928,
			"target": 34962
		},
		{
			"buffer": 0,
			"byteLength": 224,
			"byteOffset": 45152,
			"target": 34962
		}
	],
	"images": [
		{
			"uri": "MI_Brick_02_BaseColor.png"
		},
		{
			"uri": "MI_Brick_02_MetallicRoughness.png"
		},
		{
			"uri": "MI_Brick_02_Normal.png"
		},
		{
			"uri": "MI_Brick_02_Occlusion.png"
		},
		{
			"uri": "MI_Styl_Wall_Brick_02_SM_palace_wall_deco_01_BaseColor.png"
		},
		{
			"uri": "MI_Styl_Wall_Brick_02_SM_palace_wall_deco_01_MetallicRoughness.png"
		},
		{
			"uri": "MI_Styl_Wall_Brick_02_SM_palace_wall_deco_01_Normal.png"
		},
		{
			"uri": "MI_Styl_Wall_Brick_02_SM_palace_wall_deco_01_Occlusion.png"
		},
		{
			"uri": "MI_Glass_Normal.png"
		}
	],
	"materials": [
		{
			"name": "MI_Brick_02",
			"pbrMetallicRoughness":
			{
				"baseColorTexture":
				{
					"index": 0
				},
				"metallicRoughnessTexture":
				{
					"index": 1
				}
			},
			"normalTexture":
			{
				"index": 2
			},
			"occlusionTexture":
			{
				"index": 3
			}
		},
		{
			"name": "MI_Styl_Wall_Brick_02_SM_palace_wall_deco_01",
			"pbrMetallicRoughness":
			{
				"baseColorTexture":
				{
					"index": 4,
					"texCoord": 1,
					"extensions":
					{
						"KHR_texture_transform":
						{
							"offset": [ -0.00952068903, -0.00962020643 ],
							"scale": [ 1.19301701, 1.19520354 ]
						}
					}
				},
				"metallicRoughnessTexture":
				{
					"index": 5,
					"texCoord": 1,
					"extensions":
					{
						"KHR_texture_transform":
						{
							"offset": [ -0.00952068903, -0.00962020643 ],
							"scale": [ 1.19301701, 1.19520354 ]
						}
					}
				}
			},
			"normalTexture":
			{
				"index": 6,
				"texCoord": 1,
				"extensions":
				{
					"KHR_texture_transform":
					{
						"offset": [ -0.00952068903, -0.00962020643 ],
						"scale": [ 1.19301701, 1.19520354 ]
					}
				}
			},
			"occlusionTexture":
			{
				"index": 7,
				"texCoord": 1,
				"extensions":
				{
					"KHR_texture_transform":
					{
						"offset": [ -0.00952068903, -0.00962020643 ],
						"scale": [ 1.19301701, 1.19520354 ]
					}
				}
			}
		},
		{
			"name": "MI_Glass",
			"pbrMetallicRoughness":
			{
				"baseColorFactor": [ 0.0378840007, 0.0417999998, 0.0520830005, 1 ],
				"metallicFactor": 0,
				"roughnessFactor": 0.100000001
			},
			"normalTexture":
			{
				"index": 8
			},
			"doubleSided": true
		}
	],
	"meshes": [
		{
			"name": "SM_palace_wall_deco_01",
			"primitives": [
				{
					"attributes":
					{
						"POSITION": 1,
						"NORMAL": 2,
						"TANGENT": 3,
						"TEXCOORD_0": 4,
						"TEXCOORD_1": 5
					},
					"indices": 0,
					"material": 0
				},
				{
					"attributes":
					{
						"POSITION": 7,
						"NORMAL": 8,
						"TANGENT": 9,
						"TEXCOORD_0": 10,
						"TEXCOORD_1": 11
					},
					"indices": 6,
					"material": 1
				},
				{
					"attributes":
					{
						"POSITION": 13,
						"NORMAL": 14,
						"TANGENT": 15,
						"TEXCOORD_0": 16,
						"TEXCOORD_1": 17
					},
					"indices": 12,
					"material": 2
				}
			]
		}
	],
	"nodes": [
		{
			"mesh": 0
		}
	],
	"samplers": [
		{
			"minFilter": 9987,
			"magFilter": 9729
		}
	],
	"scenes": [
		{
			"nodes": [ 0 ]
		}
	],
	"textures": [
		{
			"name": "MI_Brick_02_BaseColor",
			"sampler": 0,
			"source": 0
		},
		{
			"name": "MI_Brick_02_MetallicRoughness",
			"sampler": 0,
			"source": 1
		},
		{
			"name": "MI_Brick_02_Normal",
			"sampler": 0,
			"source": 2
		},
		{
			"name": "MI_Brick_02_Occlusion",
			"sampler": 0,
			"source": 3
		},
		{
			"name": "MI_Styl_Wall_Brick_02_SM_palace_wall_deco_01_BaseColor",
			"sampler": 0,
			"source": 4
		},
		{
			"name": "MI_Styl_Wall_Brick_02_SM_palace_wall_deco_01_MetallicRoughness",
			"sampler": 0,
			"source": 5
		},
		{
			"name": "MI_Styl_Wall_Brick_02_SM_palace_wall_deco_01_Normal",
			"sampler": 0,
			"source": 6
		},
		{
			"name": "MI_Styl_Wall_Brick_02_SM_palace_wall_deco_01_Occlusion",
			"sampler": 0,
			"source": 7
		},
		{
			"name": "MI_Glass_Normal",
			"sampler": 0,
			"source": 8
		}
	],
	"extensionsUsed": [
		"KHR_texture_transform"
	]
}