{
	"asset":
	{
		"version": "2.0",
		"generator": "Unreal Engine 5.6.1"
	},
	"scene": 0,
	"accessors": [
		{
			"bufferView": 0,
			"count": 5511,
			"type": "SCALAR",
			"componentType": 5123
		},
		{
			"bufferView": 1,
			"count": 1742,
			"type": "VEC3",
			"componentType": 5126,
			"min": [ -0.41086027, -0.00298761786, -0.491781592 ],
			"max": [ 0.507273018, 1.66478157, 0.426351696 ]
		},
		{
			"bufferView": 2,
			"count": 1742,
			"type": "VEC3",
			"componentType": 5126
		},
		{
			"bufferView": 3,
			"count": 1742,
			"type": "VEC4",
			"componentType": 5126
		},
		{
			"bufferView": 4,
			"count": 1742,
			"type": "VEC2",
			"componentType": 5126
		},
		{
			"bufferView": 5,
			"count": 1742,
			"type": "VEC2",
			"componentType": 5126
		}
	],
	"buffers": [
		{
			"uri": "SM_prisoner_cage_01_9B3342BD.bin",
			"byteLength": 108576
		}
	],
	"bufferViews": [
		{
			"buffer": 0,
			"byteLength": 11022,
			"target": 34963
		},
		{
			"buffer": 0,
			"byteLength": 20904,
			"byteOffset": 11024,
			"target": 34962
		},
		{
			"buffer": 0,
			"byteLength": 20904,
			"byteOffset": 31928,
			"target": 34962
		},
		{
			"buffer": 0,
			"byteLength": 27872,
			"byteOffset": 52832,
			"target": 34962
		},
		{
			"buffer": 0,
			"byteLength": 13936,
			"byteOffset": 80704,
			"target": 34962
		},
		{
			"buffer": 0,
			"byteLength": 13936,
			"byteOffset": 94640,
			"target": 34962
		}
	],
	"images": [
		{
			"uri": "MI_Metall_Trim_styl_01_MetallicRoughness.png"
		},
		{
			"uri": "MI_Metall_Trim_styl_01_Occlusion.png"
		},
		{
			"uri": "T_fMetalTrimStyl_C.png"
		},
		{
			"uri": "T_fMetalTrimStyl_N.png"
		}
	],
	"materials": [
		{
			"name": "MI_Metall_Trim_styl_01",
			"pbrMetallicRoughness":
			{
				"baseColorTexture":
				{
					"index": 0
				},
				"metallicRoughnessTexture":
				{
					"index": 1
				}
			},
			"normalTexture":
			{
				"index": 2
			},
			"occlusionTexture":
			{
				"index": 3
			}
		}
	],
	"meshes": [
		{
			"name": "SM_prisoner_cage_01",
			"primitives": [
				{
					"attributes":
					{
						"POSITION": 1,
						"NORMAL": 2,
						"TANGENT": 3,
						"TEXCOORD_0": 4,
						"TEXCOORD_1": 5
					},
					"indices": 0,
					"material": 0
				}
			]
		}
	],
	"nodes": [
		{
			"mesh": 0
		}
	],
	"samplers": [
		{
			"minFilter": 9987,
			"magFilter": 9729
		}
	],
	"scenes": [
		{
			"nodes": [ 0 ]
		}
	],
	"textures": [
		{
			"name": "T_fMetalTrimStyl_C",
			"sampler": 0,
			"source": 2
		},
		{
			"name": "MI_Metall_Trim_styl_01_MetallicRoughness",
			"sampler": 0,
			"source": 0
		},
		{
			"name": "T_fMetalTrimStyl_N",
			"sampler": 0,
			"source": 3
		},
		{
			"name": "MI_Metall_Trim_styl_01_Occlusion",
			"sampler": 0,
			"source": 1
		}
	]
}