{
	"asset":
	{
		"version": "2.0",
		"generator": "Unreal Engine 5.6.1"
	},
	"scene": 0,
	"accessors": [
		{
			"bufferView": 0,
			"count": 528,
			"type": "SCALAR",
			"componentType": 5123
		},
		{
			"bufferView": 1,
			"count": 320,
			"type": "VEC3",
			"componentType": 5126,
			"min": [ 2.5186975, 8.69656086, -1.29444826 ],
			"max": [ 7.41384745, 13.3034372, 0.294448227 ]
		},
		{
			"bufferView": 2,
			"count": 320,
			"type": "VEC3",
			"componentType": 5126
		},
		{
			"bufferView": 3,
			"count": 320,
			"type": "VEC4",
			"componentType": 5126
		},
		{
			"bufferView": 4,
			"count": 320,
			"type": "VEC2",
			"componentType": 5126
		},
		{
			"bufferView": 5,
			"count": 320,
			"type": "VEC2",
			"componentType": 5126
		},
		{
			"bufferView": 6,
			"count": 204,
			"type": "SCALAR",
			"componentType": 5121
		},
		{
			"bufferView": 7,
			"count": 88,
			"type": "VEC3",
			"componentType": 5126,
			"min": [ 0, 4.24385064e-07, -1 ],
			"max": [ 10, 22, -2.59860911e-23 ]
		},
		{
			"bufferView": 8,
			"count": 88,
			"type": "VEC3",
			"componentType": 5126
		},
		{
			"bufferView": 9,
			"count": 88,
			"type": "VEC4",
			"componentType": 5126
		},
		{
			"bufferView": 10,
			"count": 88,
			"type": "VEC2",
			"componentType": 5126
		},
		{
			"bufferView": 11,
			"count": 88,
			"type": "VEC2",
			"componentType": 5126
		}
	],
	"buffers": [
		{
			"uri": "SM_palace_wall_window_01_353B1699.bin",
			"byteLength": 24108
		}
	],
	"bufferViews": [
		{
			"buffer": 0,
			"byteLength": 1056,
			"target": 34963
		},
		{
			"buffer": 0,
			"byteLength": 3840,
			"byteOffset": 1056,
			"target": 34962
		},
		{
			"buffer": 0,
			"byteLength": 3840,
			"byteOffset": 4896,
			"target": 34962
		},
		{
			"buffer": 0,
			"byteLength": 5120,
			"byteOffset": 8736,
			"target": 34962
		},
		{
			"buffer": 0,
			"byteLength": 2560,
			"byteOffset": 13856,
			"target": 34962
		},
		{
			"buffer": 0,
			"byteLength": 2560,
			"byteOffset": 16416,
			"target": 34962
		},
		{
			"buffer": 0,
			"byteLength": 204,
			"byteOffset": 18976,
			"target": 34963
		},
		{
			"buffer": 0,
			"byteLength": 1056,
			"byteOffset": 19180,
			"target": 34962
		},
		{
			"buffer": 0,
			"byteLength": 1056,
			"byteOffset": 20236,
			"target": 34962
		},
		{
			"buffer": 0,
			"byteLength": 1408,
			"byteOffset": 21292,
			"target": 34962
		},
		{
			"buffer": 0,
			"byteLength": 704,
			"byteOffset": 22700,
			"target": 34962
		},
		{
			"buffer": 0,
			"byteLength": 704,
			"byteOffset": 23404,
			"target": 34962
		}
	],
	"images": [
		{
			"uri": "MI_Brick_02_BaseColor.png"
		},
		{
			"uri": "MI_Brick_02_MetallicRoughness.png"
		},
		{
			"uri": "MI_Brick_02_Normal.png"
		},
		{
			"uri": "MI_Brick_02_Occlusion.png"
		},
		{
			"uri": "MI_Styl_Wall_Brick_02_SM_palace_wall_window_01_BaseColor.png"
		},
		{
			"uri": "MI_Styl_Wall_Brick_02_SM_palace_wall_window_01_MetallicRoughness.png"
		},
		{
			"uri": "MI_Styl_Wall_Brick_02_SM_palace_wall_window_01_Normal.png"
		},
		{
			"uri": "MI_Styl_Wall_Brick_02_SM_palace_wall_window_01_Occlusion.png"
		}
	],
	"materials": [
		{
			"name": "MI_Brick_02",
			"pbrMetallicRoughness":
			{
				"baseColorTexture":
				{
					"index": 0
				},
				"metallicRoughnessTexture":
				{
					"index": 1
				}
			},
			"normalTexture":
			{
				"index": 2
			},
			"occlusionTexture":
			{
				"index": 3
			}
		},
		{
			"name": "MI_Styl_Wall_Brick_02_SM_palace_wall_window_01",
			"pbrMetallicRoughness":
			{
				"baseColorTexture":
				{
					"index": 4,
					"texCoord": 1,
					"extensions":
					{
						"KHR_texture_transform":
						{
							"offset": [ -0.00834761374, -0.00851547252 ],
							"scale": [ 1.03513575, 1.05595076 ]
						}
					}
				},
				"metallicRoughnessTexture":
				{
					"index": 5,
					"texCoord": 1,
					"extensions":
					{
						"KHR_texture_transform":
						{
							"offset": [ -0.00834761374, -0.00851547252 ],
							"scale": [ 1.03513575, 1.05595076 ]
						}
					}
				}
			},
			"normalTexture":
			{
				"index": 6,
				"texCoord": 1,
				"extensions":
				{
					"KHR_texture_transform":
					{
						"offset": [ -0.00834761374, -0.00851547252 ],
						"scale": [ 1.03513575, 1.05595076 ]
					}
				}
			},
			"occlusionTexture":
			{
				"index": 7,
				"texCoord": 1,
				"extensions":
				{
					"KHR_texture_transform":
					{
						"offset": [ -0.00834761374, -0.00851547252 ],
						"scale": [ 1.03513575, 1.05595076 ]
					}
				}
			}
		}
	],
	"meshes": [
		{
			"name": "SM_palace_wall_window_01",
			"primitives": [
				{
					"attributes":
					{
						"POSITION": 1,
						"NORMAL": 2,
						"TANGENT": 3,
						"TEXCOORD_0": 4,
						"TEXCOORD_1": 5
					},
					"indices": 0,
					"material": 0
				},
				{
					"attributes":
					{
						"POSITION": 7,
						"NORMAL": 8,
						"TANGENT": 9,
						"TEXCOORD_0": 10,
						"TEXCOORD_1": 11
					},
					"indices": 6,
					"material": 1
				}
			]
		}
	],
	"nodes": [
		{
			"mesh": 0
		}
	],
	"samplers": [
		{
			"minFilter": 9987,
			"magFilter": 9729
		}
	],
	"scenes": [
		{
			"nodes": [ 0 ]
		}
	],
	"textures": [
		{
			"name": "MI_Brick_02_BaseColor",
			"sampler": 0,
			"source": 0
		},
		{
			"name": "MI_Brick_02_MetallicRoughness",
			"sampler": 0,
			"source": 1
		},
		{
			"name": "MI_Brick_02_Normal",
			"sampler": 0,
			"source": 2
		},
		{
			"name": "MI_Brick_02_Occlusion",
			"sampler": 0,
			"source": 3
		},
		{
			"name": "MI_Styl_Wall_Brick_02_SM_palace_wall_window_01_BaseColor",
			"sampler": 0,
			"source": 4
		},
		{
			"name": "MI_Styl_Wall_Brick_02_SM_palace_wall_window_01_MetallicRoughness",
			"sampler": 0,
			"source": 5
		},
		{
			"name": "MI_Styl_Wall_Brick_02_SM_palace_wall_window_01_Normal",
			"sampler": 0,
			"source": 6
		},
		{
			"name": "MI_Styl_Wall_Brick_02_SM_palace_wall_window_01_Occlusion",
			"sampler": 0,
			"source": 7
		}
	],
	"extensionsUsed": [
		"KHR_texture_transform"
	]
}