{
	"asset":
	{
		"version": "2.0",
		"generator": "Unreal Engine 5.6.1"
	},
	"scene": 0,
	"accessors": [
		{
			"bufferView": 0,
			"count": 768,
			"type": "SCALAR",
			"componentType": 5123
		},
		{
			"bufferView": 1,
			"count": 387,
			"type": "VEC3",
			"componentType": 5126,
			"min": [ -0.000401576195, -6.21724896e-17, -1.09693718 ],
			"max": [ 10.0000277, 11, 0.0726708993 ]
		},
		{
			"bufferView": 2,
			"count": 387,
			"type": "VEC3",
			"componentType": 5126
		},
		{
			"bufferView": 3,
			"count": 387,
			"type": "VEC4",
			"componentType": 5126
		},
		{
			"bufferView": 4,
			"count": 387,
			"type": "VEC2",
			"componentType": 5126
		},
		{
			"bufferView": 5,
			"count": 387,
			"type": "VEC2",
			"componentType": 5126
		}
	],
	"buffers": [
		{
			"uri": "SM_palace_wall_02_D6FB3C83.bin",
			"byteLength": 23208
		}
	],
	"bufferViews": [
		{
			"buffer": 0,
			"byteLength": 1536,
			"target": 34963
		},
		{
			"buffer": 0,
			"byteLength": 4644,
			"byteOffset": 1536,
			"target": 34962
		},
		{
			"buffer": 0,
			"byteLength": 4644,
			"byteOffset": 6180,
			"target": 34962
		},
		{
			"buffer": 0,
			"byteLength": 6192,
			"byteOffset": 10824,
			"target": 34962
		},
		{
			"buffer": 0,
			"byteLength": 3096,
			"byteOffset": 17016,
			"target": 34962
		},
		{
			"buffer": 0,
			"byteLength": 3096,
			"byteOffset": 20112,
			"target": 34962
		}
	],
	"images": [
		{
			"uri": "MI_Styl_Wall_Brick_02_SM_palace_wall_02_BaseColor.png"
		},
		{
			"uri": "MI_Styl_Wall_Brick_02_SM_palace_wall_02_MetallicRoughness.png"
		},
		{
			"uri": "MI_Styl_Wall_Brick_02_SM_palace_wall_02_Normal.png"
		},
		{
			"uri": "MI_Styl_Wall_Brick_02_SM_palace_wall_02_Occlusion.png"
		}
	],
	"materials": [
		{
			"name": "MI_Styl_Wall_Brick_02_SM_palace_wall_02",
			"pbrMetallicRoughness":
			{
				"baseColorTexture":
				{
					"index": 0,
					"texCoord": 1,
					"extensions":
					{
						"KHR_texture_transform":
						{
							"offset": [ -0.00800426025, -0.00790535379 ],
							"scale": [ 1.02655029, 1.01885009 ]
						}
					}
				},
				"metallicRoughnessTexture":
				{
					"index": 1,
					"texCoord": 1,
					"extensions":
					{
						"KHR_texture_transform":
						{
							"offset": [ -0.00800426025, -0.00790535379 ],
							"scale": [ 1.02655029, 1.01885009 ]
						}
					}
				}
			},
			"normalTexture":
			{
				"index": 2,
				"texCoord": 1,
				"extensions":
				{
					"KHR_texture_transform":
					{
						"offset": [ -0.00800426025, -0.00790535379 ],
						"scale": [ 1.02655029, 1.01885009 ]
					}
				}
			},
			"occlusionTexture":
			{
				"index": 3,
				"texCoord": 1,
				"extensions":
				{
					"KHR_texture_transform":
					{
						"offset": [ -0.00800426025, -0.00790535379 ],
						"scale": [ 1.02655029, 1.01885009 ]
					}
				}
			}
		}
	],
	"meshes": [
		{
			"name": "SM_palace_wall_02",
			"primitives": [
				{
					"attributes":
					{
						"POSITION": 1,
						"NORMAL": 2,
						"TANGENT": 3,
						"TEXCOORD_0": 4,
						"TEXCOORD_1": 5
					},
					"indices": 0,
					"material": 0
				}
			]
		}
	],
	"nodes": [
		{
			"mesh": 0
		}
	],
	"samplers": [
		{
			"minFilter": 9987,
			"magFilter": 9729
		}
	],
	"scenes": [
		{
			"nodes": [ 0 ]
		}
	],
	"textures": [
		{
			"name": "MI_Styl_Wall_Brick_02_SM_palace_wall_02_BaseColor",
			"sampler": 0,
			"source": 0
		},
		{
			"name": "MI_Styl_Wall_Brick_02_SM_palace_wall_02_MetallicRoughness",
			"sampler": 0,
			"source": 1
		},
		{
			"name": "MI_Styl_Wall_Brick_02_SM_palace_wall_02_Normal",
			"sampler": 0,
			"source": 2
		},
		{
			"name": "MI_Styl_Wall_Brick_02_SM_palace_wall_02_Occlusion",
			"sampler": 0,
			"source": 3
		}
	],
	"extensionsUsed": [
		"KHR_texture_transform"
	]
}