{
	"asset":
	{
		"version": "2.0",
		"generator": "Unreal Engine 5.6.1"
	},
	"scene": 0,
	"accessors": [
		{
			"bufferView": 0,
			"count": 1470,
			"type": "SCALAR",
			"componentType": 5123
		},
		{
			"bufferView": 1,
			"count": 533,
			"type": "VEC3",
			"componentType": 5126,
			"min": [ 2.42343068, 1.74198544, -1.33535087 ],
			"max": [ 5.6029129, 6.82909584, 0.324379385 ]
		},
		{
			"bufferView": 2,
			"count": 533,
			"type": "VEC3",
			"componentType": 5126
		},
		{
			"bufferView": 3,
			"count": 533,
			"type": "VEC4",
			"componentType": 5126
		},
		{
			"bufferView": 4,
			"count": 533,
			"type": "VEC2",
			"componentType": 5126
		},
		{
			"bufferView": 5,
			"count": 533,
			"type": "VEC2",
			"componentType": 5126
		},
		{
			"bufferView": 6,
			"count": 714,
			"type": "SCALAR",
			"componentType": 5121
		},
		{
			"bufferView": 7,
			"count": 243,
			"type": "VEC3",
			"componentType": 5126,
			"min": [ 2.94616199, 2.04583144, -0.41502136 ],
			"max": [ 5.08023691, 6.27165318, -0.145635366 ]
		},
		{
			"bufferView": 8,
			"count": 243,
			"type": "VEC3",
			"componentType": 5126
		},
		{
			"bufferView": 9,
			"count": 243,
			"type": "VEC4",
			"componentType": 5126
		},
		{
			"bufferView": 10,
			"count": 243,
			"type": "VEC2",
			"componentType": 5126
		},
		{
			"bufferView": 11,
			"count": 243,
			"type": "VEC2",
			"componentType": 5126
		},
		{
			"bufferView": 12,
			"count": 126,
			"type": "SCALAR",
			"componentType": 5121
		},
		{
			"bufferView": 13,
			"count": 62,
			"type": "VEC3",
			"componentType": 5126,
			"min": [ 0.000559961423, -0.000717588933, -1.00151324 ],
			"max": [ 8.00342941, 8.00024509, 0.00141099922 ]
		},
		{
			"bufferView": 14,
			"count": 62,
			"type": "VEC3",
			"componentType": 5126
		},
		{
			"bufferView": 15,
			"count": 62,
			"type": "VEC4",
			"componentType": 5126
		},
		{
			"bufferView": 16,
			"count": 62,
			"type": "VEC2",
			"componentType": 5126
		},
		{
			"bufferView": 17,
			"count": 62,
			"type": "VEC2",
			"componentType": 5126
		}
	],
	"buffers": [
		{
			"uri": "SM_palace_wall_06_A08DFFC4.bin",
			"byteLength": 50712
		}
	],
	"bufferViews": [
		{
			"buffer": 0,
			"byteLength": 2940,
			"target": 34963
		},
		{
			"buffer": 0,
			"byteLength": 6396,
			"byteOffset": 2940,
			"target": 34962
		},
		{
			"buffer": 0,
			"byteLength": 6396,
			"byteOffset": 9336,
			"target": 34962
		},
		{
			"buffer": 0,
			"byteLength": 8528,
			"byteOffset": 15732,
			"target": 34962
		},
		{
			"buffer": 0,
			"byteLength": 4264,
			"byteOffset": 24260,
			"target": 34962
		},
		{
			"buffer": 0,
			"byteLength": 4264,
			"byteOffset": 28524,
			"target": 34962
		},
		{
			"buffer": 0,
			"byteLength": 714,
			"byteOffset": 32788,
			"target": 34963
		},
		{
			"buffer": 0,
			"byteLength": 2916,
			"byteOffset": 33504,
			"target": 34962
		},
		{
			"buffer": 0,
			"byteLength": 2916,
			"byteOffset": 36420,
			"target": 34962
		},
		{
			"buffer": 0,
			"byteLength": 3888,
			"byteOffset": 39336,
			"target": 34962
		},
		{
			"buffer": 0,
			"byteLength": 1944,
			"byteOffset": 43224,
			"target": 34962
		},
		{
			"buffer": 0,
			"byteLength": 1944,
			"byteOffset": 45168,
			"target": 34962
		},
		{
			"buffer": 0,
			"byteLength": 126,
			"byteOffset": 47112,
			"target": 34963
		},
		{
			"buffer": 0,
			"byteLength": 744,
			"byteOffset": 47240,
			"target": 34962
		},
		{
			"buffer": 0,
			"byteLength": 744,
			"byteOffset": 47984,
			"target": 34962
		},
		{
			"buffer": 0,
			"byteLength": 992,
			"byteOffset": 48728,
			"target": 34962
		},
		{
			"buffer": 0,
			"byteLength": 496,
			"byteOffset": 49720,
			"target": 34962
		},
		{
			"buffer": 0,
			"byteLength": 496,
			"byteOffset": 50216,
			"target": 34962
		}
	],
	"images": [
		{
			"uri": "MI_Brick_02_BaseColor.png"
		},
		{
			"uri": "MI_Brick_02_MetallicRoughness.png"
		},
		{
			"uri": "MI_Brick_02_Normal.png"
		},
		{
			"uri": "MI_Brick_02_Occlusion.png"
		},
		{
			"uri": "MI_Wood_Trim_BaseColor.png"
		},
		{
			"uri": "MI_Wood_Trim_MetallicRoughness.png"
		},
		{
			"uri": "MI_Wood_Trim_Occlusion.png"
		},
		{
			"uri": "MI_Styl_Wall_Brick_02_SM_palace_wall_06_BaseColor.png"
		},
		{
			"uri": "MI_Styl_Wall_Brick_02_SM_palace_wall_06_MetallicRoughness.png"
		},
		{
			"uri": "MI_Styl_Wall_Brick_02_SM_palace_wall_06_Normal.png"
		},
		{
			"uri": "MI_Styl_Wall_Brick_02_SM_palace_wall_06_Occlusion.png"
		},
		{
			"uri": "T_Wood_Trim_N.png"
		}
	],
	"materials": [
		{
			"name": "MI_Brick_02",
			"pbrMetallicRoughness":
			{
				"baseColorTexture":
				{
					"index": 0
				},
				"metallicRoughnessTexture":
				{
					"index": 1
				}
			},
			"normalTexture":
			{
				"index": 2
			},
			"occlusionTexture":
			{
				"index": 3
			}
		},
		{
			"name": "MI_Wood_Trim",
			"pbrMetallicRoughness":
			{
				"baseColorTexture":
				{
					"index": 4
				},
				"metallicRoughnessTexture":
				{
					"index": 5
				}
			},
			"normalTexture":
			{
				"index": 6
			},
			"occlusionTexture":
			{
				"index": 7
			}
		},
		{
			"name": "MI_Styl_Wall_Brick_02_SM_palace_wall_06",
			"pbrMetallicRoughness":
			{
				"baseColorTexture":
				{
					"index": 8,
					"texCoord": 1,
					"extensions":
					{
						"KHR_texture_transform":
						{
							"offset": [ -0.00895696878, -0.00902384706 ],
							"scale": [ 1.12668693, 1.12430954 ]
						}
					}
				},
				"metallicRoughnessTexture":
				{
					"index": 9,
					"texCoord": 1,
					"extensions":
					{
						"KHR_texture_transform":
						{
							"offset": [ -0.00895696878, -0.00902384706 ],
							"scale": [ 1.12668693, 1.12430954 ]
						}
					}
				}
			},
			"normalTexture":
			{
				"index": 10,
				"texCoord": 1,
				"extensions":
				{
					"KHR_texture_transform":
					{
						"offset": [ -0.00895696878, -0.00902384706 ],
						"scale": [ 1.12668693, 1.12430954 ]
					}
				}
			},
			"occlusionTexture":
			{
				"index": 11,
				"texCoord": 1,
				"extensions":
				{
					"KHR_texture_transform":
					{
						"offset": [ -0.00895696878, -0.00902384706 ],
						"scale": [ 1.12668693, 1.12430954 ]
					}
				}
			}
		}
	],
	"meshes": [
		{
			"name": "SM_palace_wall_06",
			"primitives": [
				{
					"attributes":
					{
						"POSITION": 1,
						"NORMAL": 2,
						"TANGENT": 3,
						"TEXCOORD_0": 4,
						"TEXCOORD_1": 5
					},
					"indices": 0,
					"material": 0
				},
				{
					"attributes":
					{
						"POSITION": 7,
						"NORMAL": 8,
						"TANGENT": 9,
						"TEXCOORD_0": 10,
						"TEXCOORD_1": 11
					},
					"indices": 6,
					"material": 1
				},
				{
					"attributes":
					{
						"POSITION": 13,
						"NORMAL": 14,
						"TANGENT": 15,
						"TEXCOORD_0": 16,
						"TEXCOORD_1": 17
					},
					"indices": 12,
					"material": 2
				}
			]
		}
	],
	"nodes": [
		{
			"mesh": 0
		}
	],
	"samplers": [
		{
			"minFilter": 9987,
			"magFilter": 9729
		}
	],
	"scenes": [
		{
			"nodes": [ 0 ]
		}
	],
	"textures": [
		{
			"name": "MI_Brick_02_BaseColor",
			"sampler": 0,
			"source": 0
		},
		{
			"name": "MI_Brick_02_MetallicRoughness",
			"sampler": 0,
			"source": 1
		},
		{
			"name": "MI_Brick_02_Normal",
			"sampler": 0,
			"source": 2
		},
		{
			"name": "MI_Brick_02_Occlusion",
			"sampler": 0,
			"source": 3
		},
		{
			"name": "MI_Wood_Trim_BaseColor",
			"sampler": 0,
			"source": 4
		},
		{
			"name": "MI_Wood_Trim_MetallicRoughness",
			"sampler": 0,
			"source": 5
		},
		{
			"name": "T_Wood_Trim_N",
			"sampler": 0,
			"source": 11
		},
		{
			"name": "MI_Wood_Trim_Occlusion",
			"sampler": 0,
			"source": 6
		},
		{
			"name": "MI_Styl_Wall_Brick_02_SM_palace_wall_06_BaseColor",
			"sampler": 0,
			"source": 7
		},
		{
			"name": "MI_Styl_Wall_Brick_02_SM_palace_wall_06_MetallicRoughness",
			"sampler": 0,
			"source": 8
		},
		{
			"name": "MI_Styl_Wall_Brick_02_SM_palace_wall_06_Normal",
			"sampler": 0,
			"source": 9
		},
		{
			"name": "MI_Styl_Wall_Brick_02_SM_palace_wall_06_Occlusion",
			"sampler": 0,
			"source": 10
		}
	],
	"extensionsUsed": [
		"KHR_texture_transform"
	]
}