{
	"asset":
	{
		"version": "2.0",
		"generator": "Unreal Engine 5.6.1"
	},
	"scene": 0,
	"accessors": [
		{
			"bufferView": 0,
			"count": 12006,
			"type": "SCALAR",
			"componentType": 5123
		},
		{
			"bufferView": 1,
			"count": 3821,
			"type": "VEC3",
			"componentType": 5126,
			"min": [ -4.76828623, -0.020764159, -4.76828575 ],
			"max": [ 4.76828623, 1.09062278, 4.76828575 ]
		},
		{
			"bufferView": 2,
			"count": 3821,
			"type": "VEC3",
			"componentType": 5126
		},
		{
			"bufferView": 3,
			"count": 3821,
			"type": "VEC4",
			"componentType": 5126
		},
		{
			"bufferView": 4,
			"count": 3821,
			"type": "VEC2",
			"componentType": 5126
		},
		{
			"bufferView": 5,
			"count": 3821,
			"type": "VEC2",
			"componentType": 5126
		}
	],
	"buffers": [
		{
			"uri": "SM_pound_01_920C50E3.bin",
			"byteLength": 237988
		}
	],
	"bufferViews": [
		{
			"buffer": 0,
			"byteLength": 24012,
			"target": 34963
		},
		{
			"buffer": 0,
			"byteLength": 45852,
			"byteOffset": 24012,
			"target": 34962
		},
		{
			"buffer": 0,
			"byteLength": 45852,
			"byteOffset": 69864,
			"target": 34962
		},
		{
			"buffer": 0,
			"byteLength": 61136,
			"byteOffset": 115716,
			"target": 34962
		},
		{
			"buffer": 0,
			"byteLength": 30568,
			"byteOffset": 176852,
			"target": 34962
		},
		{
			"buffer": 0,
			"byteLength": 30568,
			"byteOffset": 207420,
			"target": 34962
		}
	],
	"images": [
		{
			"uri": "MI_Stones_BaseColor.png"
		},
		{
			"uri": "MI_Stones_MetallicRoughness.png"
		},
		{
			"uri": "T_Stone_N.png"
		}
	],
	"materials": [
		{
			"name": "MI_Stones",
			"pbrMetallicRoughness":
			{
				"baseColorTexture":
				{
					"index": 0
				},
				"metallicRoughnessTexture":
				{
					"index": 1
				}
			},
			"normalTexture":
			{
				"index": 2
			}
		}
	],
	"meshes": [
		{
			"name": "SM_pound_01",
			"primitives": [
				{
					"attributes":
					{
						"POSITION": 1,
						"NORMAL": 2,
						"TANGENT": 3,
						"TEXCOORD_0": 4,
						"TEXCOORD_1": 5
					},
					"indices": 0,
					"material": 0
				}
			]
		}
	],
	"nodes": [
		{
			"mesh": 0
		}
	],
	"samplers": [
		{
			"minFilter": 9987,
			"magFilter": 9729
		}
	],
	"scenes": [
		{
			"nodes": [ 0 ]
		}
	],
	"textures": [
		{
			"name": "MI_Stones_BaseColor",
			"sampler": 0,
			"source": 0
		},
		{
			"name": "MI_Stones_MetallicRoughness",
			"sampler": 0,
			"source": 1
		},
		{
			"name": "T_Stone_N",
			"sampler": 0,
			"source": 2
		}
	]
}