{
	"asset":
	{
		"version": "2.0",
		"generator": "Unreal Engine 5.6.1"
	},
	"scene": 0,
	"accessors": [
		{
			"bufferView": 0,
			"count": 720,
			"type": "SCALAR",
			"componentType": 5121
		},
		{
			"bufferView": 1,
			"count": 204,
			"type": "VEC3",
			"componentType": 5126,
			"min": [ -0.740171254, 5.96046323e-09, -0.740171194 ],
			"max": [ 0.740171254, 1.16591406, 0.740171194 ]
		},
		{
			"bufferView": 2,
			"count": 204,
			"type": "VEC3",
			"componentType": 5126
		},
		{
			"bufferView": 3,
			"count": 204,
			"type": "VEC4",
			"componentType": 5126
		},
		{
			"bufferView": 4,
			"count": 204,
			"type": "VEC2",
			"componentType": 5126
		},
		{
			"bufferView": 5,
			"count": 204,
			"type": "VEC2",
			"componentType": 5126
		}
	],
	"buffers": [
		{
			"uri": "SM_pedestal_01.bin",
			"byteLength": 12144
		}
	],
	"bufferViews": [
		{
			"buffer": 0,
			"byteLength": 720,
			"target": 34963
		},
		{
			"buffer": 0,
			"byteLength": 2448,
			"byteOffset": 720,
			"target": 34962
		},
		{
			"buffer": 0,
			"byteLength": 2448,
			"byteOffset": 3168,
			"target": 34962
		},
		{
			"buffer": 0,
			"byteLength": 3264,
			"byteOffset": 5616,
			"target": 34962
		},
		{
			"buffer": 0,
			"byteLength": 1632,
			"byteOffset": 8880,
			"target": 34962
		},
		{
			"buffer": 0,
			"byteLength": 1632,
			"byteOffset": 10512,
			"target": 34962
		}
	],
	"images": [
		{
			"uri": "MI_Pedestal_MetallicRoughness.png"
		},
		{
			"uri": "T_Pedestal_C.png"
		},
		{
			"uri": "T_Pedestal_N.png"
		},
		{
			"uri": "T_Pedestal_M.png"
		}
	],
	"materials": [
		{
			"name": "MI_Pedestal",
			"pbrMetallicRoughness":
			{
				"baseColorTexture":
				{
					"index": 0
				},
				"metallicRoughnessTexture":
				{
					"index": 1
				}
			},
			"normalTexture":
			{
				"index": 2
			},
			"occlusionTexture":
			{
				"index": 3
			}
		}
	],
	"meshes": [
		{
			"name": "SM_pedestal_01",
			"primitives": [
				{
					"attributes":
					{
						"POSITION": 1,
						"NORMAL": 2,
						"TANGENT": 3,
						"TEXCOORD_0": 4,
						"TEXCOORD_1": 5
					},
					"indices": 0,
					"material": 0
				}
			]
		}
	],
	"nodes": [
		{
			"mesh": 0
		}
	],
	"samplers": [
		{
			"minFilter": 9987,
			"magFilter": 9729
		}
	],
	"scenes": [
		{
			"nodes": [ 0 ]
		}
	],
	"textures": [
		{
			"name": "T_Pedestal_C",
			"sampler": 0,
			"source": 1
		},
		{
			"name": "MI_Pedestal_MetallicRoughness",
			"sampler": 0,
			"source": 0
		},
		{
			"name": "T_Pedestal_N",
			"sampler": 0,
			"source": 2
		},
		{
			"name": "T_Pedestal_M",
			"sampler": 0,
			"source": 3
		}
	]
}