{
	"asset":
	{
		"version": "2.0",
		"generator": "Unreal Engine 5.6.1"
	},
	"scene": 0,
	"accessors": [
		{
			"bufferView": 0,
			"count": 3792,
			"type": "SCALAR",
			"componentType": 5123
		},
		{
			"bufferView": 1,
			"count": 1682,
			"type": "VEC3",
			"componentType": 5126,
			"min": [ -9.70728016, -4.14512533e-06, -0.00975220744 ],
			"max": [ 9.70728493, 11.2888622, 7.38101435 ]
		},
		{
			"bufferView": 2,
			"count": 1682,
			"type": "VEC3",
			"componentType": 5126
		},
		{
			"bufferView": 3,
			"count": 1682,
			"type": "VEC4",
			"componentType": 5126
		},
		{
			"bufferView": 4,
			"count": 1682,
			"type": "VEC2",
			"componentType": 5126
		},
		{
			"bufferView": 5,
			"count": 1682,
			"type": "VEC2",
			"componentType": 5126
		},
		{
			"bufferView": 6,
			"count": 3654,
			"type": "SCALAR",
			"componentType": 5123
		},
		{
			"bufferView": 7,
			"count": 1429,
			"type": "VEC3",
			"componentType": 5126,
			"min": [ -8.03415108, 0.111422792, 4.0793786 ],
			"max": [ 8.03414536, 8.74240112, 6.22486782 ]
		},
		{
			"bufferView": 8,
			"count": 1429,
			"type": "VEC3",
			"componentType": 5126
		},
		{
			"bufferView": 9,
			"count": 1429,
			"type": "VEC4",
			"componentType": 5126
		},
		{
			"bufferView": 10,
			"count": 1429,
			"type": "VEC2",
			"componentType": 5126
		},
		{
			"bufferView": 11,
			"count": 1429,
			"type": "VEC2",
			"componentType": 5126
		},
		{
			"bufferView": 12,
			"count": 420,
			"type": "SCALAR",
			"componentType": 5121
		},
		{
			"bufferView": 13,
			"count": 196,
			"type": "VEC3",
			"componentType": 5126,
			"min": [ -8.95613766, 0.103081971, -0.00738715567 ],
			"max": [ 8.96070766, 11.2797508, 6.73783112 ]
		},
		{
			"bufferView": 14,
			"count": 196,
			"type": "VEC3",
			"componentType": 5126
		},
		{
			"bufferView": 15,
			"count": 196,
			"type": "VEC4",
			"componentType": 5126
		},
		{
			"bufferView": 16,
			"count": 196,
			"type": "VEC2",
			"componentType": 5126
		},
		{
			"bufferView": 17,
			"count": 196,
			"type": "VEC2",
			"componentType": 5126
		},
		{
			"bufferView": 18,
			"count": 1386,
			"type": "SCALAR",
			"componentType": 5123
		},
		{
			"bufferView": 19,
			"count": 522,
			"type": "VEC3",
			"componentType": 5126,
			"min": [ -5.26080322, 2.04583144, 5.23175573 ],
			"max": [ 5.26080322, 6.27115345, 5.51683378 ]
		},
		{
			"bufferView": 20,
			"count": 522,
			"type": "VEC3",
			"componentType": 5126
		},
		{
			"bufferView": 21,
			"count": 522,
			"type": "VEC4",
			"componentType": 5126
		},
		{
			"bufferView": 22,
			"count": 522,
			"type": "VEC2",
			"componentType": 5126
		},
		{
			"bufferView": 23,
			"count": 522,
			"type": "VEC2",
			"componentType": 5126
		},
		{
			"bufferView": 24,
			"count": 45804,
			"type": "SCALAR",
			"componentType": 5123
		},
		{
			"bufferView": 25,
			"count": 19968,
			"type": "VEC3",
			"componentType": 5126,
			"min": [ -10.5063448, 10.8893929, -0.610120833 ],
			"max": [ 10.5063572, 16.7200394, 7.91264629 ]
		},
		{
			"bufferView": 26,
			"count": 19968,
			"type": "VEC3",
			"componentType": 5126
		},
		{
			"bufferView": 27,
			"count": 19968,
			"type": "VEC4",
			"componentType": 5126
		},
		{
			"bufferView": 28,
			"count": 19968,
			"type": "VEC2",
			"componentType": 5126
		},
		{
			"bufferView": 29,
			"count": 19968,
			"type": "VEC2",
			"componentType": 5126
		}
	],
	"buffers": [
		{
			"uri": "SM_palace_extention_01.bin",
			"byteLength": 1442324
		}
	],
	"bufferViews": [
		{
			"buffer": 0,
			"byteLength": 7584,
			"target": 34963
		},
		{
			"buffer": 0,
			"byteLength": 20184,
			"byteOffset": 7584,
			"target": 34962
		},
		{
			"buffer": 0,
			"byteLength": 20184,
			"byteOffset": 27768,
			"target": 34962
		},
		{
			"buffer": 0,
			"byteLength": 26912,
			"byteOffset": 47952,
			"target": 34962
		},
		{
			"buffer": 0,
			"byteLength": 13456,
			"byteOffset": 74864,
			"target": 34962
		},
		{
			"buffer": 0,
			"byteLength": 13456,
			"byteOffset": 88320,
			"target": 34962
		},
		{
			"buffer": 0,
			"byteLength": 7308,
			"byteOffset": 101776,
			"target": 34963
		},
		{
			"buffer": 0,
			"byteLength": 17148,
			"byteOffset": 109084,
			"target": 34962
		},
		{
			"buffer": 0,
			"byteLength": 17148,
			"byteOffset": 126232,
			"target": 34962
		},
		{
			"buffer": 0,
			"byteLength": 22864,
			"byteOffset": 143380,
			"target": 34962
		},
		{
			"buffer": 0,
			"byteLength": 11432,
			"byteOffset": 166244,
			"target": 34962
		},
		{
			"buffer": 0,
			"byteLength": 11432,
			"byteOffset": 177676,
			"target": 34962
		},
		{
			"buffer": 0,
			"byteLength": 420,
			"byteOffset": 189108,
			"target": 34963
		},
		{
			"buffer": 0,
			"byteLength": 2352,
			"byteOffset": 189528,
			"target": 34962
		},
		{
			"buffer": 0,
			"byteLength": 2352,
			"byteOffset": 191880,
			"target": 34962
		},
		{
			"buffer": 0,
			"byteLength": 3136,
			"byteOffset": 194232,
			"target": 34962
		},
		{
			"buffer": 0,
			"byteLength": 1568,
			"byteOffset": 197368,
			"target": 34962
		},
		{
			"buffer": 0,
			"byteLength": 1568,
			"byteOffset": 198936,
			"target": 34962
		},
		{
			"buffer": 0,
			"byteLength": 2772,
			"byteOffset": 200504,
			"target": 34963
		},
		{
			"buffer": 0,
			"byteLength": 6264,
			"byteOffset": 203276,
			"target": 34962
		},
		{
			"buffer": 0,
			"byteLength": 6264,
			"byteOffset": 209540,
			"target": 34962
		},
		{
			"buffer": 0,
			"byteLength": 8352,
			"byteOffset": 215804,
			"target": 34962
		},
		{
			"buffer": 0,
			"byteLength": 4176,
			"byteOffset": 224156,
			"target": 34962
		},
		{
			"buffer": 0,
			"byteLength": 4176,
			"byteOffset": 228332,
			"target": 34962
		},
		{
			"buffer": 0,
			"byteLength": 91608,
			"byteOffset": 232508,
			"target": 34963
		},
		{
			"buffer": 0,
			"byteLength": 239616,
			"byteOffset": 324116,
			"target": 34962
		},
		{
			"buffer": 0,
			"byteLength": 239616,
			"byteOffset": 563732,
			"target": 34962
		},
		{
			"buffer": 0,
			"byteLength": 319488,
			"byteOffset": 803348,
			"target": 34962
		},
		{
			"buffer": 0,
			"byteLength": 159744,
			"byteOffset": 1122836,
			"target": 34962
		},
		{
			"buffer": 0,
			"byteLength": 159744,
			"byteOffset": 1282580,
			"target": 34962
		}
	],
	"images": [
		{
			"uri": "MI_Brick_02_BaseColor.png"
		},
		{
			"uri": "MI_Brick_02_MetallicRoughness.png"
		},
		{
			"uri": "MI_Brick_02_Normal.png"
		},
		{
			"uri": "MI_Brick_02_Occlusion.png"
		},
		{
			"uri": "MI_Stones_Dark_BaseColor.png"
		},
		{
			"uri": "MI_Stones_Dark_MetallicRoughness.png"
		},
		{
			"uri": "MI_Styl_Wall_Brick_02_SM_palace_extention_01_BaseColor.png"
		},
		{
			"uri": "MI_Styl_Wall_Brick_02_SM_palace_extention_01_MetallicRoughness.png"
		},
		{
			"uri": "MI_Styl_Wall_Brick_02_SM_palace_extention_01_Normal.png"
		},
		{
			"uri": "MI_Styl_Wall_Brick_02_SM_palace_extention_01_Occlusion.png"
		},
		{
			"uri": "MI_Wood_Trim_BaseColor.png"
		},
		{
			"uri": "MI_Wood_Trim_MetallicRoughness.png"
		},
		{
			"uri": "MI_Wood_Trim_Occlusion.png"
		},
		{
			"uri": "MI_Roof_01_BaseColor.png"
		},
		{
			"uri": "T_Stone_N.png"
		},
		{
			"uri": "T_Wood_Trim_N.png"
		},
		{
			"uri": "T_roof_texture_lambert1_OcclusionRoughnessMetallic.png"
		},
		{
			"uri": "T_roof_texture_lambert1_Normal.png"
		}
	],
	"materials": [
		{
			"name": "MI_Brick_02",
			"pbrMetallicRoughness":
			{
				"baseColorTexture":
				{
					"index": 0
				},
				"metallicRoughnessTexture":
				{
					"index": 1
				}
			},
			"normalTexture":
			{
				"index": 2
			},
			"occlusionTexture":
			{
				"index": 3
			}
		},
		{
			"name": "MI_Stones_Dark",
			"pbrMetallicRoughness":
			{
				"baseColorTexture":
				{
					"index": 4
				},
				"metallicRoughnessTexture":
				{
					"index": 5
				}
			},
			"normalTexture":
			{
				"index": 6
			}
		},
		{
			"name": "MI_Styl_Wall_Brick_02_SM_palace_extention_01",
			"pbrMetallicRoughness":
			{
				"baseColorTexture":
				{
					"index": 7,
					"texCoord": 1,
					"extensions":
					{
						"KHR_texture_transform":
						{
							"offset": [ -0.0095624458, -0.0310734455 ],
							"scale": [ 1.1869024, 3.85687375 ]
						}
					}
				},
				"metallicRoughnessTexture":
				{
					"index": 8,
					"texCoord": 1,
					"extensions":
					{
						"KHR_texture_transform":
						{
							"offset": [ -0.0095624458, -0.0310734455 ],
							"scale": [ 1.1869024, 3.85687375 ]
						}
					}
				}
			},
			"normalTexture":
			{
				"index": 9,
				"texCoord": 1,
				"extensions":
				{
					"KHR_texture_transform":
					{
						"offset": [ -0.0095624458, -0.0310734455 ],
						"scale": [ 1.1869024, 3.85687375 ]
					}
				}
			},
			"occlusionTexture":
			{
				"index": 10,
				"texCoord": 1,
				"extensions":
				{
					"KHR_texture_transform":
					{
						"offset": [ -0.0095624458, -0.0310734455 ],
						"scale": [ 1.1869024, 3.85687375 ]
					}
				}
			}
		},
		{
			"name": "MI_Wood_Trim",
			"pbrMetallicRoughness":
			{
				"baseColorTexture":
				{
					"index": 11
				},
				"metallicRoughnessTexture":
				{
					"index": 12
				}
			},
			"normalTexture":
			{
				"index": 13
			},
			"occlusionTexture":
			{
				"index": 14
			}
		},
		{
			"name": "MI_Roof_01",
			"pbrMetallicRoughness":
			{
				"baseColorTexture":
				{
					"index": 15
				},
				"metallicRoughnessTexture":
				{
					"index": 16
				}
			},
			"normalTexture":
			{
				"index": 17
			},
			"occlusionTexture":
			{
				"index": 16
			}
		}
	],
	"meshes": [
		{
			"name": "SM_palace_extention_01",
			"primitives": [
				{
					"attributes":
					{
						"POSITION": 1,
						"NORMAL": 2,
						"TANGENT": 3,
						"TEXCOORD_0": 4,
						"TEXCOORD_1": 5
					},
					"indices": 0,
					"material": 0
				},
				{
					"attributes":
					{
						"POSITION": 7,
						"NORMAL": 8,
						"TANGENT": 9,
						"TEXCOORD_0": 10,
						"TEXCOORD_1": 11
					},
					"indices": 6,
					"material": 1
				},
				{
					"attributes":
					{
						"POSITION": 13,
						"NORMAL": 14,
						"TANGENT": 15,
						"TEXCOORD_0": 16,
						"TEXCOORD_1": 17
					},
					"indices": 12,
					"material": 2
				},
				{
					"attributes":
					{
						"POSITION": 19,
						"NORMAL": 20,
						"TANGENT": 21,
						"TEXCOORD_0": 22,
						"TEXCOORD_1": 23
					},
					"indices": 18,
					"material": 3
				},
				{
					"attributes":
					{
						"POSITION": 25,
						"NORMAL": 26,
						"TANGENT": 27,
						"TEXCOORD_0": 28,
						"TEXCOORD_1": 29
					},
					"indices": 24,
					"material": 4
				}
			]
		}
	],
	"nodes": [
		{
			"mesh": 0
		}
	],
	"samplers": [
		{
			"minFilter": 9987,
			"magFilter": 9729
		}
	],
	"scenes": [
		{
			"nodes": [ 0 ]
		}
	],
	"textures": [
		{
			"name": "MI_Brick_02_BaseColor",
			"sampler": 0,
			"source": 0
		},
		{
			"name": "MI_Brick_02_MetallicRoughness",
			"sampler": 0,
			"source": 1
		},
		{
			"name": "MI_Brick_02_Normal",
			"sampler": 0,
			"source": 2
		},
		{
			"name": "MI_Brick_02_Occlusion",
			"sampler": 0,
			"source": 3
		},
		{
			"name": "MI_Stones_Dark_BaseColor",
			"sampler": 0,
			"source": 4
		},
		{
			"name": "MI_Stones_Dark_MetallicRoughness",
			"sampler": 0,
			"source": 5
		},
		{
			"name": "T_Stone_N",
			"sampler": 0,
			"source": 14
		},
		{
			"name": "MI_Styl_Wall_Brick_02_SM_palace_extention_01_BaseColor",
			"sampler": 0,
			"source": 6
		},
		{
			"name": "MI_Styl_Wall_Brick_02_SM_palace_extention_01_MetallicRoughness",
			"sampler": 0,
			"source": 7
		},
		{
			"name": "MI_Styl_Wall_Brick_02_SM_palace_extention_01_Normal",
			"sampler": 0,
			"source": 8
		},
		{
			"name": "MI_Styl_Wall_Brick_02_SM_palace_extention_01_Occlusion",
			"sampler": 0,
			"source": 9
		},
		{
			"name": "MI_Wood_Trim_BaseColor",
			"sampler": 0,
			"source": 10
		},
		{
			"name": "MI_Wood_Trim_MetallicRoughness",
			"sampler": 0,
			"source": 11
		},
		{
			"name": "T_Wood_Trim_N",
			"sampler": 0,
			"source": 15
		},
		{
			"name": "MI_Wood_Trim_Occlusion",
			"sampler": 0,
			"source": 12
		},
		{
			"name": "MI_Roof_01_BaseColor",
			"sampler": 0,
			"source": 13
		},
		{
			"name": "T_roof_texture_lambert1_OcclusionRoughnessMetallic",
			"sampler": 0,
			"source": 16
		},
		{
			"name": "T_roof_texture_lambert1_Normal",
			"sampler": 0,
			"source": 17
		}
	],
	"extensionsUsed": [
		"KHR_texture_transform"
	]
}