{
	"asset":
	{
		"version": "2.0",
		"generator": "Unreal Engine 5.6.1"
	},
	"scene": 0,
	"accessors": [
		{
			"bufferView": 0,
			"count": 1668,
			"type": "SCALAR",
			"componentType": 5123
		},
		{
			"bufferView": 1,
			"count": 832,
			"type": "VEC3",
			"componentType": 5126,
			"min": [ -6.38989496, -3.79789615, -7.01904264e-06 ],
			"max": [ 6.38989544, 0.411027223, 2.71311951 ]
		},
		{
			"bufferView": 2,
			"count": 832,
			"type": "VEC3",
			"componentType": 5126
		},
		{
			"bufferView": 3,
			"count": 832,
			"type": "VEC4",
			"componentType": 5126
		},
		{
			"bufferView": 4,
			"count": 832,
			"type": "VEC2",
			"componentType": 5126
		},
		{
			"bufferView": 5,
			"count": 832,
			"type": "VEC2",
			"componentType": 5126
		},
		{
			"bufferView": 6,
			"count": 75,
			"type": "SCALAR",
			"componentType": 5121
		},
		{
			"bufferView": 7,
			"count": 39,
			"type": "VEC3",
			"componentType": 5126,
			"min": [ -6.17312813, -1.43473268, -1.2207031e-06 ],
			"max": [ 6.17312813, -0.443173885, 2.48965192 ]
		},
		{
			"bufferView": 8,
			"count": 39,
			"type": "VEC3",
			"componentType": 5126
		},
		{
			"bufferView": 9,
			"count": 39,
			"type": "VEC4",
			"componentType": 5126
		},
		{
			"bufferView": 10,
			"count": 39,
			"type": "VEC2",
			"componentType": 5126
		},
		{
			"bufferView": 11,
			"count": 39,
			"type": "VEC2",
			"componentType": 5126
		},
		{
			"bufferView": 12,
			"count": 9,
			"type": "SCALAR",
			"componentType": 5121
		},
		{
			"bufferView": 13,
			"count": 5,
			"type": "VEC3",
			"componentType": 5126,
			"min": [ -6.36370945, 0, -8.17124108e-16 ],
			"max": [ 6.3637104, 5.51330925e-10, 2.6817534 ]
		},
		{
			"bufferView": 14,
			"count": 5,
			"type": "VEC3",
			"componentType": 5126
		},
		{
			"bufferView": 15,
			"count": 5,
			"type": "VEC4",
			"componentType": 5126
		},
		{
			"bufferView": 16,
			"count": 5,
			"type": "VEC2",
			"componentType": 5126
		},
		{
			"bufferView": 17,
			"count": 5,
			"type": "VEC2",
			"componentType": 5126
		}
	],
	"buffers": [
		{
			"uri": "SM_palace_balkony_01_EACF88C1.bin",
			"byteLength": 52480
		}
	],
	"bufferViews": [
		{
			"buffer": 0,
			"byteLength": 3336,
			"target": 34963
		},
		{
			"buffer": 0,
			"byteLength": 9984,
			"byteOffset": 3336,
			"target": 34962
		},
		{
			"buffer": 0,
			"byteLength": 9984,
			"byteOffset": 13320,
			"target": 34962
		},
		{
			"buffer": 0,
			"byteLength": 13312,
			"byteOffset": 23304,
			"target": 34962
		},
		{
			"buffer": 0,
			"byteLength": 6656,
			"byteOffset": 36616,
			"target": 34962
		},
		{
			"buffer": 0,
			"byteLength": 6656,
			"byteOffset": 43272,
			"target": 34962
		},
		{
			"buffer": 0,
			"byteLength": 75,
			"byteOffset": 49928,
			"target": 34963
		},
		{
			"buffer": 0,
			"byteLength": 468,
			"byteOffset": 50004,
			"target": 34962
		},
		{
			"buffer": 0,
			"byteLength": 468,
			"byteOffset": 50472,
			"target": 34962
		},
		{
			"buffer": 0,
			"byteLength": 624,
			"byteOffset": 50940,
			"target": 34962
		},
		{
			"buffer": 0,
			"byteLength": 312,
			"byteOffset": 51564,
			"target": 34962
		},
		{
			"buffer": 0,
			"byteLength": 312,
			"byteOffset": 51876,
			"target": 34962
		},
		{
			"buffer": 0,
			"byteLength": 9,
			"byteOffset": 52188,
			"target": 34963
		},
		{
			"buffer": 0,
			"byteLength": 60,
			"byteOffset": 52200,
			"target": 34962
		},
		{
			"buffer": 0,
			"byteLength": 60,
			"byteOffset": 52260,
			"target": 34962
		},
		{
			"buffer": 0,
			"byteLength": 80,
			"byteOffset": 52320,
			"target": 34962
		},
		{
			"buffer": 0,
			"byteLength": 40,
			"byteOffset": 52400,
			"target": 34962
		},
		{
			"buffer": 0,
			"byteLength": 40,
			"byteOffset": 52440,
			"target": 34962
		}
	],
	"images": [
		{
			"uri": "MI_Styl_Wall_Brick_02_SM_palace_balkony_01_BaseColor.png"
		},
		{
			"uri": "MI_Styl_Wall_Brick_02_SM_palace_balkony_01_MetallicRoughness.png"
		},
		{
			"uri": "MI_Styl_Wall_Brick_02_SM_palace_balkony_01_Normal.png"
		},
		{
			"uri": "MI_Styl_Wall_Brick_02_SM_palace_balkony_01_Occlusion.png"
		},
		{
			"uri": "MI_Floor_Brick_01_BaseColor.png"
		},
		{
			"uri": "MI_Floor_Brick_01_MetallicRoughness.png"
		},
		{
			"uri": "MI_Floor_Brick_01_Normal.png"
		},
		{
			"uri": "MI_Floor_Brick_01_Occlusion.png"
		}
	],
	"materials": [
		{
			"name": "MI_Styl_Wall_Brick_02_SM_palace_balkony_01",
			"pbrMetallicRoughness":
			{
				"baseColorTexture":
				{
					"index": 0,
					"texCoord": 1,
					"extensions":
					{
						"KHR_texture_transform":
						{
							"offset": [ -0.00675386842, -0.00817843899 ],
							"scale": [ 1.01869166, 1.01511776 ]
						}
					}
				},
				"metallicRoughnessTexture":
				{
					"index": 1,
					"texCoord": 1,
					"extensions":
					{
						"KHR_texture_transform":
						{
							"offset": [ -0.00675386842, -0.00817843899 ],
							"scale": [ 1.01869166, 1.01511776 ]
						}
					}
				}
			},
			"normalTexture":
			{
				"index": 2,
				"texCoord": 1,
				"extensions":
				{
					"KHR_texture_transform":
					{
						"offset": [ -0.00675386842, -0.00817843899 ],
						"scale": [ 1.01869166, 1.01511776 ]
					}
				}
			},
			"occlusionTexture":
			{
				"index": 3,
				"texCoord": 1,
				"extensions":
				{
					"KHR_texture_transform":
					{
						"offset": [ -0.00675386842, -0.00817843899 ],
						"scale": [ 1.01869166, 1.01511776 ]
					}
				}
			}
		},
		{
			"name": "MI_Floor_Brick_01",
			"pbrMetallicRoughness":
			{
				"baseColorTexture":
				{
					"index": 4
				},
				"metallicRoughnessTexture":
				{
					"index": 5
				}
			},
			"normalTexture":
			{
				"index": 6
			},
			"occlusionTexture":
			{
				"index": 7
			}
		}
	],
	"meshes": [
		{
			"name": "SM_palace_balkony_01",
			"primitives": [
				{
					"attributes":
					{
						"POSITION": 1,
						"NORMAL": 2,
						"TANGENT": 3,
						"TEXCOORD_0": 4,
						"TEXCOORD_1": 5
					},
					"indices": 0,
					"material": 0
				},
				{
					"attributes":
					{
						"POSITION": 7,
						"NORMAL": 8,
						"TANGENT": 9,
						"TEXCOORD_0": 10,
						"TEXCOORD_1": 11
					},
					"indices": 6,
					"material": 1
				},
				{
					"attributes":
					{
						"POSITION": 13,
						"NORMAL": 14,
						"TANGENT": 15,
						"TEXCOORD_0": 16,
						"TEXCOORD_1": 17
					},
					"indices": 12,
					"material": 1
				}
			]
		}
	],
	"nodes": [
		{
			"mesh": 0
		}
	],
	"samplers": [
		{
			"minFilter": 9987,
			"magFilter": 9729
		}
	],
	"scenes": [
		{
			"nodes": [ 0 ]
		}
	],
	"textures": [
		{
			"name": "MI_Styl_Wall_Brick_02_SM_palace_balkony_01_BaseColor",
			"sampler": 0,
			"source": 0
		},
		{
			"name": "MI_Styl_Wall_Brick_02_SM_palace_balkony_01_MetallicRoughness",
			"sampler": 0,
			"source": 1
		},
		{
			"name": "MI_Styl_Wall_Brick_02_SM_palace_balkony_01_Normal",
			"sampler": 0,
			"source": 2
		},
		{
			"name": "MI_Styl_Wall_Brick_02_SM_palace_balkony_01_Occlusion",
			"sampler": 0,
			"source": 3
		},
		{
			"name": "MI_Floor_Brick_01_BaseColor",
			"sampler": 0,
			"source": 4
		},
		{
			"name": "MI_Floor_Brick_01_MetallicRoughness",
			"sampler": 0,
			"source": 5
		},
		{
			"name": "MI_Floor_Brick_01_Normal",
			"sampler": 0,
			"source": 6
		},
		{
			"name": "MI_Floor_Brick_01_Occlusion",
			"sampler": 0,
			"source": 7
		}
	],
	"extensionsUsed": [
		"KHR_texture_transform"
	]
}