{
	"asset":
	{
		"version": "2.0",
		"generator": "Unreal Engine 5.6.1"
	},
	"scene": 0,
	"accessors": [
		{
			"bufferView": 0,
			"count": 2553,
			"type": "SCALAR",
			"componentType": 5123
		},
		{
			"bufferView": 1,
			"count": 1025,
			"type": "VEC3",
			"componentType": 5126,
			"min": [ 2.00286293, 1.36485779, -0.834139705 ],
			"max": [ 8.01791954, 10.2365522, -0.166446537 ]
		},
		{
			"bufferView": 2,
			"count": 1025,
			"type": "VEC3",
			"componentType": 5126
		},
		{
			"bufferView": 3,
			"count": 1025,
			"type": "VEC4",
			"componentType": 5126
		},
		{
			"bufferView": 4,
			"count": 1025,
			"type": "VEC2",
			"componentType": 5126
		},
		{
			"bufferView": 5,
			"count": 1025,
			"type": "VEC2",
			"componentType": 5126
		},
		{
			"bufferView": 6,
			"count": 564,
			"type": "SCALAR",
			"componentType": 5121
		},
		{
			"bufferView": 7,
			"count": 196,
			"type": "VEC3",
			"componentType": 5126,
			"min": [ 1.75032711, 1.04970205, -1.05040824 ],
			"max": [ 8.24967289, 10.5265293, 0.0504135974 ]
		},
		{
			"bufferView": 8,
			"count": 196,
			"type": "VEC3",
			"componentType": 5126
		},
		{
			"bufferView": 9,
			"count": 196,
			"type": "VEC4",
			"componentType": 5126
		},
		{
			"bufferView": 10,
			"count": 196,
			"type": "VEC2",
			"componentType": 5126
		},
		{
			"bufferView": 11,
			"count": 196,
			"type": "VEC2",
			"componentType": 5126
		},
		{
			"bufferView": 12,
			"count": 318,
			"type": "SCALAR",
			"componentType": 5121
		},
		{
			"bufferView": 13,
			"count": 173,
			"type": "VEC3",
			"componentType": 5126,
			"min": [ -0.00105346681, -0.00129620754, -1.00403643 ],
			"max": [ 10, 11, 0.000638180063 ]
		},
		{
			"bufferView": 14,
			"count": 173,
			"type": "VEC3",
			"componentType": 5126
		},
		{
			"bufferView": 15,
			"count": 173,
			"type": "VEC4",
			"componentType": 5126
		},
		{
			"bufferView": 16,
			"count": 173,
			"type": "VEC2",
			"componentType": 5126
		},
		{
			"bufferView": 17,
			"count": 173,
			"type": "VEC2",
			"componentType": 5126
		}
	],
	"buffers": [
		{
			"uri": "SM_palace_wall_03.bin",
			"byteLength": 84056
		}
	],
	"bufferViews": [
		{
			"buffer": 0,
			"byteLength": 5106,
			"target": 34963
		},
		{
			"buffer": 0,
			"byteLength": 12300,
			"byteOffset": 5108,
			"target": 34962
		},
		{
			"buffer": 0,
			"byteLength": 12300,
			"byteOffset": 17408,
			"target": 34962
		},
		{
			"buffer": 0,
			"byteLength": 16400,
			"byteOffset": 29708,
			"target": 34962
		},
		{
			"buffer": 0,
			"byteLength": 8200,
			"byteOffset": 46108,
			"target": 34962
		},
		{
			"buffer": 0,
			"byteLength": 8200,
			"byteOffset": 54308,
			"target": 34962
		},
		{
			"buffer": 0,
			"byteLength": 564,
			"byteOffset": 62508,
			"target": 34963
		},
		{
			"buffer": 0,
			"byteLength": 2352,
			"byteOffset": 63072,
			"target": 34962
		},
		{
			"buffer": 0,
			"byteLength": 2352,
			"byteOffset": 65424,
			"target": 34962
		},
		{
			"buffer": 0,
			"byteLength": 3136,
			"byteOffset": 67776,
			"target": 34962
		},
		{
			"buffer": 0,
			"byteLength": 1568,
			"byteOffset": 70912,
			"target": 34962
		},
		{
			"buffer": 0,
			"byteLength": 1568,
			"byteOffset": 72480,
			"target": 34962
		},
		{
			"buffer": 0,
			"byteLength": 318,
			"byteOffset": 74048,
			"target": 34963
		},
		{
			"buffer": 0,
			"byteLength": 2076,
			"byteOffset": 74368,
			"target": 34962
		},
		{
			"buffer": 0,
			"byteLength": 2076,
			"byteOffset": 76444,
			"target": 34962
		},
		{
			"buffer": 0,
			"byteLength": 2768,
			"byteOffset": 78520,
			"target": 34962
		},
		{
			"buffer": 0,
			"byteLength": 1384,
			"byteOffset": 81288,
			"target": 34962
		},
		{
			"buffer": 0,
			"byteLength": 1384,
			"byteOffset": 82672,
			"target": 34962
		}
	],
	"images": [
		{
			"uri": "MI_Wood_Trim_BaseColor.png"
		},
		{
			"uri": "MI_Wood_Trim_MetallicRoughness.png"
		},
		{
			"uri": "MI_Wood_Trim_Occlusion.png"
		},
		{
			"uri": "MI_Brick_02_BaseColor.png"
		},
		{
			"uri": "MI_Brick_02_MetallicRoughness.png"
		},
		{
			"uri": "MI_Brick_02_Normal.png"
		},
		{
			"uri": "MI_Brick_02_Occlusion.png"
		},
		{
			"uri": "MI_Styl_Wall_Brick_02_SM_palace_wall_03_BaseColor.png"
		},
		{
			"uri": "MI_Styl_Wall_Brick_02_SM_palace_wall_03_MetallicRoughness.png"
		},
		{
			"uri": "MI_Styl_Wall_Brick_02_SM_palace_wall_03_Normal.png"
		},
		{
			"uri": "MI_Styl_Wall_Brick_02_SM_palace_wall_03_Occlusion.png"
		},
		{
			"uri": "T_Wood_Trim_N.png"
		}
	],
	"materials": [
		{
			"name": "MI_Wood_Trim",
			"pbrMetallicRoughness":
			{
				"baseColorTexture":
				{
					"index": 0
				},
				"metallicRoughnessTexture":
				{
					"index": 1
				}
			},
			"normalTexture":
			{
				"index": 2
			},
			"occlusionTexture":
			{
				"index": 3
			}
		},
		{
			"name": "MI_Brick_02",
			"pbrMetallicRoughness":
			{
				"baseColorTexture":
				{
					"index": 4
				},
				"metallicRoughnessTexture":
				{
					"index": 5
				}
			},
			"normalTexture":
			{
				"index": 6
			},
			"occlusionTexture":
			{
				"index": 7
			}
		},
		{
			"name": "MI_Styl_Wall_Brick_02_SM_palace_wall_03",
			"pbrMetallicRoughness":
			{
				"baseColorTexture":
				{
					"index": 8,
					"texCoord": 1,
					"extensions":
					{
						"KHR_texture_transform":
						{
							"offset": [ -0.00762301264, -0.00828105398 ],
							"scale": [ 1.02007508, 1.02785444 ]
						}
					}
				},
				"metallicRoughnessTexture":
				{
					"index": 9,
					"texCoord": 1,
					"extensions":
					{
						"KHR_texture_transform":
						{
							"offset": [ -0.00762301264, -0.00828105398 ],
							"scale": [ 1.02007508, 1.02785444 ]
						}
					}
				}
			},
			"normalTexture":
			{
				"index": 10,
				"texCoord": 1,
				"extensions":
				{
					"KHR_texture_transform":
					{
						"offset": [ -0.00762301264, -0.00828105398 ],
						"scale": [ 1.02007508, 1.02785444 ]
					}
				}
			},
			"occlusionTexture":
			{
				"index": 11,
				"texCoord": 1,
				"extensions":
				{
					"KHR_texture_transform":
					{
						"offset": [ -0.00762301264, -0.00828105398 ],
						"scale": [ 1.02007508, 1.02785444 ]
					}
				}
			}
		}
	],
	"meshes": [
		{
			"name": "SM_palace_wall_03",
			"primitives": [
				{
					"attributes":
					{
						"POSITION": 1,
						"NORMAL": 2,
						"TANGENT": 3,
						"TEXCOORD_0": 4,
						"TEXCOORD_1": 5
					},
					"indices": 0,
					"material": 0
				},
				{
					"attributes":
					{
						"POSITION": 7,
						"NORMAL": 8,
						"TANGENT": 9,
						"TEXCOORD_0": 10,
						"TEXCOORD_1": 11
					},
					"indices": 6,
					"material": 1
				},
				{
					"attributes":
					{
						"POSITION": 13,
						"NORMAL": 14,
						"TANGENT": 15,
						"TEXCOORD_0": 16,
						"TEXCOORD_1": 17
					},
					"indices": 12,
					"material": 2
				}
			]
		}
	],
	"nodes": [
		{
			"mesh": 0
		}
	],
	"samplers": [
		{
			"minFilter": 9987,
			"magFilter": 9729
		}
	],
	"scenes": [
		{
			"nodes": [ 0 ]
		}
	],
	"textures": [
		{
			"name": "MI_Wood_Trim_BaseColor",
			"sampler": 0,
			"source": 0
		},
		{
			"name": "MI_Wood_Trim_MetallicRoughness",
			"sampler": 0,
			"source": 1
		},
		{
			"name": "T_Wood_Trim_N",
			"sampler": 0,
			"source": 11
		},
		{
			"name": "MI_Wood_Trim_Occlusion",
			"sampler": 0,
			"source": 2
		},
		{
			"name": "MI_Brick_02_BaseColor",
			"sampler": 0,
			"source": 3
		},
		{
			"name": "MI_Brick_02_MetallicRoughness",
			"sampler": 0,
			"source": 4
		},
		{
			"name": "MI_Brick_02_Normal",
			"sampler": 0,
			"source": 5
		},
		{
			"name": "MI_Brick_02_Occlusion",
			"sampler": 0,
			"source": 6
		},
		{
			"name": "MI_Styl_Wall_Brick_02_SM_palace_wall_03_BaseColor",
			"sampler": 0,
			"source": 7
		},
		{
			"name": "MI_Styl_Wall_Brick_02_SM_palace_wall_03_MetallicRoughness",
			"sampler": 0,
			"source": 8
		},
		{
			"name": "MI_Styl_Wall_Brick_02_SM_palace_wall_03_Normal",
			"sampler": 0,
			"source": 9
		},
		{
			"name": "MI_Styl_Wall_Brick_02_SM_palace_wall_03_Occlusion",
			"sampler": 0,
			"source": 10
		}
	],
	"extensionsUsed": [
		"KHR_texture_transform"
	]
}