{
	"asset":
	{
		"version": "2.0",
		"generator": "Unreal Engine 5.6.1"
	},
	"scene": 0,
	"accessors": [
		{
			"bufferView": 0,
			"count": 2088,
			"type": "SCALAR",
			"componentType": 5123
		},
		{
			"bufferView": 1,
			"count": 892,
			"type": "VEC3",
			"componentType": 5126,
			"min": [ 1.39704347, 1.12405431, -1.0592103 ],
			"max": [ 6.60295773, 7.42149496, 0.0642025992 ]
		},
		{
			"bufferView": 2,
			"count": 892,
			"type": "VEC3",
			"componentType": 5126
		},
		{
			"bufferView": 3,
			"count": 892,
			"type": "VEC4",
			"componentType": 5126
		},
		{
			"bufferView": 4,
			"count": 892,
			"type": "VEC2",
			"componentType": 5126
		},
		{
			"bufferView": 5,
			"count": 892,
			"type": "VEC2",
			"componentType": 5126
		},
		{
			"bufferView": 6,
			"count": 180,
			"type": "SCALAR",
			"componentType": 5121
		},
		{
			"bufferView": 7,
			"count": 60,
			"type": "VEC3",
			"componentType": 5126,
			"min": [ -0.000687602616, 0, -1.00159466 ],
			"max": [ 8.00139236, 8.00458813, 0.000251384306 ]
		},
		{
			"bufferView": 8,
			"count": 60,
			"type": "VEC3",
			"componentType": 5126
		},
		{
			"bufferView": 9,
			"count": 60,
			"type": "VEC4",
			"componentType": 5126
		},
		{
			"bufferView": 10,
			"count": 60,
			"type": "VEC2",
			"componentType": 5126
		},
		{
			"bufferView": 11,
			"count": 60,
			"type": "VEC2",
			"componentType": 5126
		}
	],
	"buffers": [
		{
			"uri": "SM_palace_wall_07_5FE72396.bin",
			"byteLength": 57668
		}
	],
	"bufferViews": [
		{
			"buffer": 0,
			"byteLength": 4176,
			"target": 34963
		},
		{
			"buffer": 0,
			"byteLength": 10704,
			"byteOffset": 4176,
			"target": 34962
		},
		{
			"buffer": 0,
			"byteLength": 10704,
			"byteOffset": 14880,
			"target": 34962
		},
		{
			"buffer": 0,
			"byteLength": 14272,
			"byteOffset": 25584,
			"target": 34962
		},
		{
			"buffer": 0,
			"byteLength": 7136,
			"byteOffset": 39856,
			"target": 34962
		},
		{
			"buffer": 0,
			"byteLength": 7136,
			"byteOffset": 46992,
			"target": 34962
		},
		{
			"buffer": 0,
			"byteLength": 180,
			"byteOffset": 54128,
			"target": 34963
		},
		{
			"buffer": 0,
			"byteLength": 720,
			"byteOffset": 54308,
			"target": 34962
		},
		{
			"buffer": 0,
			"byteLength": 720,
			"byteOffset": 55028,
			"target": 34962
		},
		{
			"buffer": 0,
			"byteLength": 960,
			"byteOffset": 55748,
			"target": 34962
		},
		{
			"buffer": 0,
			"byteLength": 480,
			"byteOffset": 56708,
			"target": 34962
		},
		{
			"buffer": 0,
			"byteLength": 480,
			"byteOffset": 57188,
			"target": 34962
		}
	],
	"images": [
		{
			"uri": "MI_Brick_02_BaseColor.png"
		},
		{
			"uri": "MI_Brick_02_MetallicRoughness.png"
		},
		{
			"uri": "MI_Brick_02_Normal.png"
		},
		{
			"uri": "MI_Brick_02_Occlusion.png"
		},
		{
			"uri": "MI_Styl_Wall_Brick_02_SM_palace_wall_07_BaseColor.png"
		},
		{
			"uri": "MI_Styl_Wall_Brick_02_SM_palace_wall_07_MetallicRoughness.png"
		},
		{
			"uri": "MI_Styl_Wall_Brick_02_SM_palace_wall_07_Normal.png"
		},
		{
			"uri": "MI_Styl_Wall_Brick_02_SM_palace_wall_07_Occlusion.png"
		}
	],
	"materials": [
		{
			"name": "MI_Brick_02",
			"pbrMetallicRoughness":
			{
				"baseColorTexture":
				{
					"index": 0
				},
				"metallicRoughnessTexture":
				{
					"index": 1
				}
			},
			"normalTexture":
			{
				"index": 2
			},
			"occlusionTexture":
			{
				"index": 3
			}
		},
		{
			"name": "MI_Styl_Wall_Brick_02_SM_palace_wall_07",
			"pbrMetallicRoughness":
			{
				"baseColorTexture":
				{
					"index": 4,
					"texCoord": 1,
					"extensions":
					{
						"KHR_texture_transform":
						{
							"offset": [ -0.00823290367, -0.00871774182 ],
							"scale": [ 1.60940063, 1.08103299 ]
						}
					}
				},
				"metallicRoughnessTexture":
				{
					"index": 5,
					"texCoord": 1,
					"extensions":
					{
						"KHR_texture_transform":
						{
							"offset": [ -0.00823290367, -0.00871774182 ],
							"scale": [ 1.60940063, 1.08103299 ]
						}
					}
				}
			},
			"normalTexture":
			{
				"index": 6,
				"texCoord": 1,
				"extensions":
				{
					"KHR_texture_transform":
					{
						"offset": [ -0.00823290367, -0.00871774182 ],
						"scale": [ 1.60940063, 1.08103299 ]
					}
				}
			},
			"occlusionTexture":
			{
				"index": 7,
				"texCoord": 1,
				"extensions":
				{
					"KHR_texture_transform":
					{
						"offset": [ -0.00823290367, -0.00871774182 ],
						"scale": [ 1.60940063, 1.08103299 ]
					}
				}
			}
		}
	],
	"meshes": [
		{
			"name": "SM_palace_wall_07",
			"primitives": [
				{
					"attributes":
					{
						"POSITION": 1,
						"NORMAL": 2,
						"TANGENT": 3,
						"TEXCOORD_0": 4,
						"TEXCOORD_1": 5
					},
					"indices": 0,
					"material": 0
				},
				{
					"attributes":
					{
						"POSITION": 7,
						"NORMAL": 8,
						"TANGENT": 9,
						"TEXCOORD_0": 10,
						"TEXCOORD_1": 11
					},
					"indices": 6,
					"material": 1
				}
			]
		}
	],
	"nodes": [
		{
			"mesh": 0
		}
	],
	"samplers": [
		{
			"minFilter": 9987,
			"magFilter": 9729
		}
	],
	"scenes": [
		{
			"nodes": [ 0 ]
		}
	],
	"textures": [
		{
			"name": "MI_Brick_02_BaseColor",
			"sampler": 0,
			"source": 0
		},
		{
			"name": "MI_Brick_02_MetallicRoughness",
			"sampler": 0,
			"source": 1
		},
		{
			"name": "MI_Brick_02_Normal",
			"sampler": 0,
			"source": 2
		},
		{
			"name": "MI_Brick_02_Occlusion",
			"sampler": 0,
			"source": 3
		},
		{
			"name": "MI_Styl_Wall_Brick_02_SM_palace_wall_07_BaseColor",
			"sampler": 0,
			"source": 4
		},
		{
			"name": "MI_Styl_Wall_Brick_02_SM_palace_wall_07_MetallicRoughness",
			"sampler": 0,
			"source": 5
		},
		{
			"name": "MI_Styl_Wall_Brick_02_SM_palace_wall_07_Normal",
			"sampler": 0,
			"source": 6
		},
		{
			"name": "MI_Styl_Wall_Brick_02_SM_palace_wall_07_Occlusion",
			"sampler": 0,
			"source": 7
		}
	],
	"extensionsUsed": [
		"KHR_texture_transform"
	]
}