{
	"asset":
	{
		"version": "2.0",
		"generator": "Unreal Engine 5.6.1"
	},
	"scene": 0,
	"accessors": [
		{
			"bufferView": 0,
			"count": 5403,
			"type": "SCALAR",
			"componentType": 5123
		},
		{
			"bufferView": 1,
			"count": 1879,
			"type": "VEC3",
			"componentType": 5126,
			"min": [ -0.740383387, -0.0232393928, -0.738816917 ],
			"max": [ 0.740383387, 2.54122376, 0.738816917 ]
		},
		{
			"bufferView": 2,
			"count": 1879,
			"type": "VEC3",
			"componentType": 5126
		},
		{
			"bufferView": 3,
			"count": 1879,
			"type": "VEC4",
			"componentType": 5126
		},
		{
			"bufferView": 4,
			"count": 1879,
			"type": "VEC2",
			"componentType": 5126
		},
		{
			"bufferView": 5,
			"count": 1879,
			"type": "VEC2",
			"componentType": 5126
		}
	],
	"buffers": [
		{
			"uri": "SM_prisoner_cage_02.bin",
			"byteLength": 116032
		}
	],
	"bufferViews": [
		{
			"buffer": 0,
			"byteLength": 10806,
			"target": 34963
		},
		{
			"buffer": 0,
			"byteLength": 22548,
			"byteOffset": 10808,
			"target": 34962
		},
		{
			"buffer": 0,
			"byteLength": 22548,
			"byteOffset": 33356,
			"target": 34962
		},
		{
			"buffer": 0,
			"byteLength": 30064,
			"byteOffset": 55904,
			"target": 34962
		},
		{
			"buffer": 0,
			"byteLength": 15032,
			"byteOffset": 85968,
			"target": 34962
		},
		{
			"buffer": 0,
			"byteLength": 15032,
			"byteOffset": 101000,
			"target": 34962
		}
	],
	"images": [
		{
			"uri": "MI_Metall_Trim_styl_01_MetallicRoughness.png"
		},
		{
			"uri": "MI_Metall_Trim_styl_01_Occlusion.png"
		},
		{
			"uri": "T_fMetalTrimStyl_C.png"
		},
		{
			"uri": "T_fMetalTrimStyl_N.png"
		}
	],
	"materials": [
		{
			"name": "MI_Metall_Trim_styl_01",
			"pbrMetallicRoughness":
			{
				"baseColorTexture":
				{
					"index": 0
				},
				"metallicRoughnessTexture":
				{
					"index": 1
				}
			},
			"normalTexture":
			{
				"index": 2
			},
			"occlusionTexture":
			{
				"index": 3
			}
		}
	],
	"meshes": [
		{
			"name": "SM_prisoner_cage_02",
			"primitives": [
				{
					"attributes":
					{
						"POSITION": 1,
						"NORMAL": 2,
						"TANGENT": 3,
						"TEXCOORD_0": 4,
						"TEXCOORD_1": 5
					},
					"indices": 0,
					"material": 0
				}
			]
		}
	],
	"nodes": [
		{
			"mesh": 0
		}
	],
	"samplers": [
		{
			"minFilter": 9987,
			"magFilter": 9729
		}
	],
	"scenes": [
		{
			"nodes": [ 0 ]
		}
	],
	"textures": [
		{
			"name": "T_fMetalTrimStyl_C",
			"sampler": 0,
			"source": 2
		},
		{
			"name": "MI_Metall_Trim_styl_01_MetallicRoughness",
			"sampler": 0,
			"source": 0
		},
		{
			"name": "T_fMetalTrimStyl_N",
			"sampler": 0,
			"source": 3
		},
		{
			"name": "MI_Metall_Trim_styl_01_Occlusion",
			"sampler": 0,
			"source": 1
		}
	]
}