{
	"asset":
	{
		"version": "2.0",
		"generator": "Unreal Engine 5.6.1"
	},
	"scene": 0,
	"accessors": [
		{
			"bufferView": 0,
			"count": 36,
			"type": "SCALAR",
			"componentType": 5121
		},
		{
			"bufferView": 1,
			"count": 24,
			"type": "VEC3",
			"componentType": 5126,
			"min": [ 0, -6.1232336e-17, -1 ],
			"max": [ 8.00000191, 8, -0 ]
		},
		{
			"bufferView": 2,
			"count": 24,
			"type": "VEC3",
			"componentType": 5126
		},
		{
			"bufferView": 3,
			"count": 24,
			"type": "VEC4",
			"componentType": 5126
		},
		{
			"bufferView": 4,
			"count": 24,
			"type": "VEC2",
			"componentType": 5126
		},
		{
			"bufferView": 5,
			"count": 24,
			"type": "VEC2",
			"componentType": 5126
		}
	],
	"buffers": [
		{
			"uri": "SM_palace_wall_05.bin",
			"byteLength": 1380
		}
	],
	"bufferViews": [
		{
			"buffer": 0,
			"byteLength": 36,
			"target": 34963
		},
		{
			"buffer": 0,
			"byteLength": 288,
			"byteOffset": 36,
			"target": 34962
		},
		{
			"buffer": 0,
			"byteLength": 288,
			"byteOffset": 324,
			"target": 34962
		},
		{
			"buffer": 0,
			"byteLength": 384,
			"byteOffset": 612,
			"target": 34962
		},
		{
			"buffer": 0,
			"byteLength": 192,
			"byteOffset": 996,
			"target": 34962
		},
		{
			"buffer": 0,
			"byteLength": 192,
			"byteOffset": 1188,
			"target": 34962
		}
	],
	"images": [
		{
			"uri": "MI_Styl_Wall_Brick_02_SM_palace_wall_05_BaseColor.png"
		},
		{
			"uri": "MI_Styl_Wall_Brick_02_SM_palace_wall_05_MetallicRoughness.png"
		},
		{
			"uri": "MI_Styl_Wall_Brick_02_SM_palace_wall_05_Normal.png"
		},
		{
			"uri": "MI_Styl_Wall_Brick_02_SM_palace_wall_05_Occlusion.png"
		}
	],
	"materials": [
		{
			"name": "MI_Styl_Wall_Brick_02_SM_palace_wall_05",
			"pbrMetallicRoughness":
			{
				"baseColorTexture":
				{
					"index": 0,
					"texCoord": 1,
					"extensions":
					{
						"KHR_texture_transform":
						{
							"offset": [ -0.00821474846, -0.012583483 ],
							"scale": [ 1.01865995, 1.56039953 ]
						}
					}
				},
				"metallicRoughnessTexture":
				{
					"index": 1,
					"texCoord": 1,
					"extensions":
					{
						"KHR_texture_transform":
						{
							"offset": [ -0.00821474846, -0.012583483 ],
							"scale": [ 1.01865995, 1.56039953 ]
						}
					}
				}
			},
			"normalTexture":
			{
				"index": 2,
				"texCoord": 1,
				"extensions":
				{
					"KHR_texture_transform":
					{
						"offset": [ -0.00821474846, -0.012583483 ],
						"scale": [ 1.01865995, 1.56039953 ]
					}
				}
			},
			"occlusionTexture":
			{
				"index": 3,
				"texCoord": 1,
				"extensions":
				{
					"KHR_texture_transform":
					{
						"offset": [ -0.00821474846, -0.012583483 ],
						"scale": [ 1.01865995, 1.56039953 ]
					}
				}
			}
		}
	],
	"meshes": [
		{
			"name": "SM_palace_wall_05",
			"primitives": [
				{
					"attributes":
					{
						"POSITION": 1,
						"NORMAL": 2,
						"TANGENT": 3,
						"TEXCOORD_0": 4,
						"TEXCOORD_1": 5
					},
					"indices": 0,
					"material": 0
				}
			]
		}
	],
	"nodes": [
		{
			"mesh": 0
		}
	],
	"samplers": [
		{
			"minFilter": 9987,
			"magFilter": 9729
		}
	],
	"scenes": [
		{
			"nodes": [ 0 ]
		}
	],
	"textures": [
		{
			"name": "MI_Styl_Wall_Brick_02_SM_palace_wall_05_BaseColor",
			"sampler": 0,
			"source": 0
		},
		{
			"name": "MI_Styl_Wall_Brick_02_SM_palace_wall_05_MetallicRoughness",
			"sampler": 0,
			"source": 1
		},
		{
			"name": "MI_Styl_Wall_Brick_02_SM_palace_wall_05_Normal",
			"sampler": 0,
			"source": 2
		},
		{
			"name": "MI_Styl_Wall_Brick_02_SM_palace_wall_05_Occlusion",
			"sampler": 0,
			"source": 3
		}
	],
	"extensionsUsed": [
		"KHR_texture_transform"
	]
}