{
	"asset":
	{
		"version": "2.0",
		"generator": "Unreal Engine 5.6.1"
	},
	"scene": 0,
	"accessors": [
		{
			"bufferView": 0,
			"count": 210,
			"type": "SCALAR",
			"componentType": 5121
		},
		{
			"bufferView": 1,
			"count": 117,
			"type": "VEC3",
			"componentType": 5126,
			"min": [ -0.0019528768, -0.000283660745, -1.00117838 ],
			"max": [ 10.0005779, 11.0013189, 4.49232648e-05 ]
		},
		{
			"bufferView": 2,
			"count": 117,
			"type": "VEC3",
			"componentType": 5126
		},
		{
			"bufferView": 3,
			"count": 117,
			"type": "VEC4",
			"componentType": 5126
		},
		{
			"bufferView": 4,
			"count": 117,
			"type": "VEC2",
			"componentType": 5126
		},
		{
			"bufferView": 5,
			"count": 117,
			"type": "VEC2",
			"componentType": 5126
		},
		{
			"bufferView": 6,
			"count": 2202,
			"type": "SCALAR",
			"componentType": 5123
		},
		{
			"bufferView": 7,
			"count": 1318,
			"type": "VEC3",
			"componentType": 5126,
			"min": [ 2.56648827, 3.19801927, -1.03974414 ],
			"max": [ 7.44881964, 7.80319929, 0.149148405 ]
		},
		{
			"bufferView": 8,
			"count": 1318,
			"type": "VEC3",
			"componentType": 5126
		},
		{
			"bufferView": 9,
			"count": 1318,
			"type": "VEC4",
			"componentType": 5126
		},
		{
			"bufferView": 10,
			"count": 1318,
			"type": "VEC2",
			"componentType": 5126
		},
		{
			"bufferView": 11,
			"count": 1318,
			"type": "VEC2",
			"componentType": 5126
		}
	],
	"buffers": [
		{
			"uri": "SM_palace_wall_10.bin",
			"byteLength": 84976
		}
	],
	"bufferViews": [
		{
			"buffer": 0,
			"byteLength": 210,
			"target": 34963
		},
		{
			"buffer": 0,
			"byteLength": 1404,
			"byteOffset": 212,
			"target": 34962
		},
		{
			"buffer": 0,
			"byteLength": 1404,
			"byteOffset": 1616,
			"target": 34962
		},
		{
			"buffer": 0,
			"byteLength": 1872,
			"byteOffset": 3020,
			"target": 34962
		},
		{
			"buffer": 0,
			"byteLength": 936,
			"byteOffset": 4892,
			"target": 34962
		},
		{
			"buffer": 0,
			"byteLength": 936,
			"byteOffset": 5828,
			"target": 34962
		},
		{
			"buffer": 0,
			"byteLength": 4404,
			"byteOffset": 6764,
			"target": 34963
		},
		{
			"buffer": 0,
			"byteLength": 15816,
			"byteOffset": 11168,
			"target": 34962
		},
		{
			"buffer": 0,
			"byteLength": 15816,
			"byteOffset": 26984,
			"target": 34962
		},
		{
			"buffer": 0,
			"byteLength": 21088,
			"byteOffset": 42800,
			"target": 34962
		},
		{
			"buffer": 0,
			"byteLength": 10544,
			"byteOffset": 63888,
			"target": 34962
		},
		{
			"buffer": 0,
			"byteLength": 10544,
			"byteOffset": 74432,
			"target": 34962
		}
	],
	"images": [
		{
			"uri": "MI_Styl_Wall_Brick_02_SM_palace_wall_10_BaseColor.png"
		},
		{
			"uri": "MI_Styl_Wall_Brick_02_SM_palace_wall_10_MetallicRoughness.png"
		},
		{
			"uri": "MI_Styl_Wall_Brick_02_SM_palace_wall_10_Normal.png"
		},
		{
			"uri": "MI_Styl_Wall_Brick_02_SM_palace_wall_10_Occlusion.png"
		},
		{
			"uri": "MI_Wood_Trim_BaseColor.png"
		},
		{
			"uri": "MI_Wood_Trim_MetallicRoughness.png"
		},
		{
			"uri": "MI_Wood_Trim_Occlusion.png"
		},
		{
			"uri": "T_Wood_Trim_N.png"
		}
	],
	"materials": [
		{
			"name": "MI_Styl_Wall_Brick_02_SM_palace_wall_10",
			"pbrMetallicRoughness":
			{
				"baseColorTexture":
				{
					"index": 0,
					"texCoord": 1,
					"extensions":
					{
						"KHR_texture_transform":
						{
							"offset": [ -0.0083835572, -0.00926861353 ],
							"scale": [ 1.04354191, 1.15152204 ]
						}
					}
				},
				"metallicRoughnessTexture":
				{
					"index": 1,
					"texCoord": 1,
					"extensions":
					{
						"KHR_texture_transform":
						{
							"offset": [ -0.0083835572, -0.00926861353 ],
							"scale": [ 1.04354191, 1.15152204 ]
						}
					}
				}
			},
			"normalTexture":
			{
				"index": 2,
				"texCoord": 1,
				"extensions":
				{
					"KHR_texture_transform":
					{
						"offset": [ -0.0083835572, -0.00926861353 ],
						"scale": [ 1.04354191, 1.15152204 ]
					}
				}
			},
			"occlusionTexture":
			{
				"index": 3,
				"texCoord": 1,
				"extensions":
				{
					"KHR_texture_transform":
					{
						"offset": [ -0.0083835572, -0.00926861353 ],
						"scale": [ 1.04354191, 1.15152204 ]
					}
				}
			}
		},
		{
			"name": "MI_Wood_Trim",
			"pbrMetallicRoughness":
			{
				"baseColorTexture":
				{
					"index": 4
				},
				"metallicRoughnessTexture":
				{
					"index": 5
				}
			},
			"normalTexture":
			{
				"index": 6
			},
			"occlusionTexture":
			{
				"index": 7
			}
		}
	],
	"meshes": [
		{
			"name": "SM_palace_wall_10",
			"primitives": [
				{
					"attributes":
					{
						"POSITION": 1,
						"NORMAL": 2,
						"TANGENT": 3,
						"TEXCOORD_0": 4,
						"TEXCOORD_1": 5
					},
					"indices": 0,
					"material": 0
				},
				{
					"attributes":
					{
						"POSITION": 7,
						"NORMAL": 8,
						"TANGENT": 9,
						"TEXCOORD_0": 10,
						"TEXCOORD_1": 11
					},
					"indices": 6,
					"material": 1
				}
			]
		}
	],
	"nodes": [
		{
			"mesh": 0
		}
	],
	"samplers": [
		{
			"minFilter": 9987,
			"magFilter": 9729
		}
	],
	"scenes": [
		{
			"nodes": [ 0 ]
		}
	],
	"textures": [
		{
			"name": "MI_Styl_Wall_Brick_02_SM_palace_wall_10_BaseColor",
			"sampler": 0,
			"source": 0
		},
		{
			"name": "MI_Styl_Wall_Brick_02_SM_palace_wall_10_MetallicRoughness",
			"sampler": 0,
			"source": 1
		},
		{
			"name": "MI_Styl_Wall_Brick_02_SM_palace_wall_10_Normal",
			"sampler": 0,
			"source": 2
		},
		{
			"name": "MI_Styl_Wall_Brick_02_SM_palace_wall_10_Occlusion",
			"sampler": 0,
			"source": 3
		},
		{
			"name": "MI_Wood_Trim_BaseColor",
			"sampler": 0,
			"source": 4
		},
		{
			"name": "MI_Wood_Trim_MetallicRoughness",
			"sampler": 0,
			"source": 5
		},
		{
			"name": "T_Wood_Trim_N",
			"sampler": 0,
			"source": 7
		},
		{
			"name": "MI_Wood_Trim_Occlusion",
			"sampler": 0,
			"source": 6
		}
	],
	"extensionsUsed": [
		"KHR_texture_transform"
	]
}