{
	"asset":
	{
		"version": "2.0",
		"generator": "Unreal Engine 5.6.1"
	},
	"scene": 0,
	"accessors": [
		{
			"bufferView": 0,
			"count": 138,
			"type": "SCALAR",
			"componentType": 5121
		},
		{
			"bufferView": 1,
			"count": 52,
			"type": "VEC3",
			"componentType": 5126,
			"min": [ -0.481779784, 5.96405361e-17, -2.84217088e-16 ],
			"max": [ 0.481779784, 4.99999952, 1.00000489 ]
		},
		{
			"bufferView": 2,
			"count": 52,
			"type": "VEC3",
			"componentType": 5126
		},
		{
			"bufferView": 3,
			"count": 52,
			"type": "VEC4",
			"componentType": 5126
		},
		{
			"bufferView": 4,
			"count": 52,
			"type": "VEC2",
			"componentType": 5126
		},
		{
			"bufferView": 5,
			"count": 52,
			"type": "VEC2",
			"componentType": 5126
		}
	],
	"buffers": [
		{
			"uri": "SM_palace_column_ondoor_02.bin",
			"byteLength": 3052
		}
	],
	"bufferViews": [
		{
			"buffer": 0,
			"byteLength": 138,
			"target": 34963
		},
		{
			"buffer": 0,
			"byteLength": 624,
			"byteOffset": 140,
			"target": 34962
		},
		{
			"buffer": 0,
			"byteLength": 624,
			"byteOffset": 764,
			"target": 34962
		},
		{
			"buffer": 0,
			"byteLength": 832,
			"byteOffset": 1388,
			"target": 34962
		},
		{
			"buffer": 0,
			"byteLength": 416,
			"byteOffset": 2220,
			"target": 34962
		},
		{
			"buffer": 0,
			"byteLength": 416,
			"byteOffset": 2636,
			"target": 34962
		}
	],
	"images": [
		{
			"uri": "MI_Brick_02_BaseColor.png"
		},
		{
			"uri": "MI_Brick_02_MetallicRoughness.png"
		},
		{
			"uri": "MI_Brick_02_Normal.png"
		},
		{
			"uri": "MI_Brick_02_Occlusion.png"
		}
	],
	"materials": [
		{
			"name": "MI_Brick_02",
			"pbrMetallicRoughness":
			{
				"baseColorTexture":
				{
					"index": 0
				},
				"metallicRoughnessTexture":
				{
					"index": 1
				}
			},
			"normalTexture":
			{
				"index": 2
			},
			"occlusionTexture":
			{
				"index": 3
			}
		}
	],
	"meshes": [
		{
			"name": "SM_palace_column_ondoor_02",
			"primitives": [
				{
					"attributes":
					{
						"POSITION": 1,
						"NORMAL": 2,
						"TANGENT": 3,
						"TEXCOORD_0": 4,
						"TEXCOORD_1": 5
					},
					"indices": 0,
					"material": 0
				}
			]
		}
	],
	"nodes": [
		{
			"mesh": 0
		}
	],
	"samplers": [
		{
			"minFilter": 9987,
			"magFilter": 9729
		}
	],
	"scenes": [
		{
			"nodes": [ 0 ]
		}
	],
	"textures": [
		{
			"name": "MI_Brick_02_BaseColor",
			"sampler": 0,
			"source": 0
		},
		{
			"name": "MI_Brick_02_MetallicRoughness",
			"sampler": 0,
			"source": 1
		},
		{
			"name": "MI_Brick_02_Normal",
			"sampler": 0,
			"source": 2
		},
		{
			"name": "MI_Brick_02_Occlusion",
			"sampler": 0,
			"source": 3
		}
	]
}