{
	"asset":
	{
		"version": "2.0",
		"generator": "Unreal Engine 5.6.1"
	},
	"scene": 0,
	"accessors": [
		{
			"bufferView": 0,
			"count": 3042,
			"type": "SCALAR",
			"componentType": 5123
		},
		{
			"bufferView": 1,
			"count": 1409,
			"type": "VEC3",
			"componentType": 5126,
			"min": [ 2.99264789, -0.0407833681, -6.35648203 ],
			"max": [ 13.8981133, 22.0415478, 1.26698005 ]
		},
		{
			"bufferView": 2,
			"count": 1409,
			"type": "VEC3",
			"componentType": 5126
		},
		{
			"bufferView": 3,
			"count": 1409,
			"type": "VEC4",
			"componentType": 5126
		},
		{
			"bufferView": 4,
			"count": 1409,
			"type": "VEC2",
			"componentType": 5126
		},
		{
			"bufferView": 5,
			"count": 1409,
			"type": "VEC2",
			"componentType": 5126
		},
		{
			"bufferView": 6,
			"count": 162,
			"type": "SCALAR",
			"componentType": 5121
		},
		{
			"bufferView": 7,
			"count": 52,
			"type": "VEC3",
			"componentType": 5126,
			"min": [ 5.30000477e-07, -4.85764211e-08, -5.00087214 ],
			"max": [ 16.9999981, 22.0408592, 0.00225007976 ]
		},
		{
			"bufferView": 8,
			"count": 52,
			"type": "VEC3",
			"componentType": 5126
		},
		{
			"bufferView": 9,
			"count": 52,
			"type": "VEC4",
			"componentType": 5126
		},
		{
			"bufferView": 10,
			"count": 52,
			"type": "VEC2",
			"componentType": 5126
		},
		{
			"bufferView": 11,
			"count": 52,
			"type": "VEC2",
			"componentType": 5126
		},
		{
			"bufferView": 12,
			"count": 42,
			"type": "SCALAR",
			"componentType": 5121
		},
		{
			"bufferView": 13,
			"count": 26,
			"type": "VEC3",
			"componentType": 5126,
			"min": [ 5.07215643, 14.9135828, -5.00001287 ],
			"max": [ 11.8832188, 20.6362991, 0.0369951613 ]
		},
		{
			"bufferView": 14,
			"count": 26,
			"type": "VEC3",
			"componentType": 5126
		},
		{
			"bufferView": 15,
			"count": 26,
			"type": "VEC4",
			"componentType": 5126
		},
		{
			"bufferView": 16,
			"count": 26,
			"type": "VEC2",
			"componentType": 5126
		},
		{
			"bufferView": 17,
			"count": 26,
			"type": "VEC2",
			"componentType": 5126
		}
	],
	"buffers": [
		{
			"uri": "SM_palace_wall_entry_01_C2CE632C.bin",
			"byteLength": 89564
		}
	],
	"bufferViews": [
		{
			"buffer": 0,
			"byteLength": 6084,
			"target": 34963
		},
		{
			"buffer": 0,
			"byteLength": 16908,
			"byteOffset": 6084,
			"target": 34962
		},
		{
			"buffer": 0,
			"byteLength": 16908,
			"byteOffset": 22992,
			"target": 34962
		},
		{
			"buffer": 0,
			"byteLength": 22544,
			"byteOffset": 39900,
			"target": 34962
		},
		{
			"buffer": 0,
			"byteLength": 11272,
			"byteOffset": 62444,
			"target": 34962
		},
		{
			"buffer": 0,
			"byteLength": 11272,
			"byteOffset": 73716,
			"target": 34962
		},
		{
			"buffer": 0,
			"byteLength": 162,
			"byteOffset": 84988,
			"target": 34963
		},
		{
			"buffer": 0,
			"byteLength": 624,
			"byteOffset": 85152,
			"target": 34962
		},
		{
			"buffer": 0,
			"byteLength": 624,
			"byteOffset": 85776,
			"target": 34962
		},
		{
			"buffer": 0,
			"byteLength": 832,
			"byteOffset": 86400,
			"target": 34962
		},
		{
			"buffer": 0,
			"byteLength": 416,
			"byteOffset": 87232,
			"target": 34962
		},
		{
			"buffer": 0,
			"byteLength": 416,
			"byteOffset": 87648,
			"target": 34962
		},
		{
			"buffer": 0,
			"byteLength": 42,
			"byteOffset": 88064,
			"target": 34963
		},
		{
			"buffer": 0,
			"byteLength": 312,
			"byteOffset": 88108,
			"target": 34962
		},
		{
			"buffer": 0,
			"byteLength": 312,
			"byteOffset": 88420,
			"target": 34962
		},
		{
			"buffer": 0,
			"byteLength": 416,
			"byteOffset": 88732,
			"target": 34962
		},
		{
			"buffer": 0,
			"byteLength": 208,
			"byteOffset": 89148,
			"target": 34962
		},
		{
			"buffer": 0,
			"byteLength": 208,
			"byteOffset": 89356,
			"target": 34962
		}
	],
	"images": [
		{
			"uri": "MI_Brick_02_BaseColor.png"
		},
		{
			"uri": "MI_Brick_02_MetallicRoughness.png"
		},
		{
			"uri": "MI_Brick_02_Normal.png"
		},
		{
			"uri": "MI_Brick_02_Occlusion.png"
		},
		{
			"uri": "MI_Styl_Wall_Brick_02_SM_palace_wall_entry_01_BaseColor.png"
		},
		{
			"uri": "MI_Styl_Wall_Brick_02_SM_palace_wall_entry_01_MetallicRoughness.png"
		},
		{
			"uri": "MI_Styl_Wall_Brick_02_SM_palace_wall_entry_01_Normal.png"
		},
		{
			"uri": "MI_Styl_Wall_Brick_02_SM_palace_wall_entry_01_Occlusion.png"
		},
		{
			"uri": "MI_Glass_Normal.png"
		}
	],
	"materials": [
		{
			"name": "MI_Brick_02",
			"pbrMetallicRoughness":
			{
				"baseColorTexture":
				{
					"index": 0
				},
				"metallicRoughnessTexture":
				{
					"index": 1
				}
			},
			"normalTexture":
			{
				"index": 2
			},
			"occlusionTexture":
			{
				"index": 3
			}
		},
		{
			"name": "MI_Styl_Wall_Brick_02_SM_palace_wall_entry_01",
			"pbrMetallicRoughness":
			{
				"baseColorTexture":
				{
					"index": 4,
					"texCoord": 1,
					"extensions":
					{
						"KHR_texture_transform":
						{
							"offset": [ -0.0181743018, -0.0098867286 ],
							"scale": [ 2.2579546, 1.22599173 ]
						}
					}
				},
				"metallicRoughnessTexture":
				{
					"index": 5,
					"texCoord": 1,
					"extensions":
					{
						"KHR_texture_transform":
						{
							"offset": [ -0.0181743018, -0.0098867286 ],
							"scale": [ 2.2579546, 1.22599173 ]
						}
					}
				}
			},
			"normalTexture":
			{
				"index": 6,
				"texCoord": 1,
				"extensions":
				{
					"KHR_texture_transform":
					{
						"offset": [ -0.0181743018, -0.0098867286 ],
						"scale": [ 2.2579546, 1.22599173 ]
					}
				}
			},
			"occlusionTexture":
			{
				"index": 7,
				"texCoord": 1,
				"extensions":
				{
					"KHR_texture_transform":
					{
						"offset": [ -0.0181743018, -0.0098867286 ],
						"scale": [ 2.2579546, 1.22599173 ]
					}
				}
			}
		},
		{
			"name": "MI_Glass",
			"pbrMetallicRoughness":
			{
				"baseColorFactor": [ 0.0378840007, 0.0417999998, 0.0520830005, 1 ],
				"metallicFactor": 0,
				"roughnessFactor": 0.100000001
			},
			"normalTexture":
			{
				"index": 8
			},
			"doubleSided": true
		}
	],
	"meshes": [
		{
			"name": "SM_palace_wall_entry_01",
			"primitives": [
				{
					"attributes":
					{
						"POSITION": 1,
						"NORMAL": 2,
						"TANGENT": 3,
						"TEXCOORD_0": 4,
						"TEXCOORD_1": 5
					},
					"indices": 0,
					"material": 0
				},
				{
					"attributes":
					{
						"POSITION": 7,
						"NORMAL": 8,
						"TANGENT": 9,
						"TEXCOORD_0": 10,
						"TEXCOORD_1": 11
					},
					"indices": 6,
					"material": 1
				},
				{
					"attributes":
					{
						"POSITION": 13,
						"NORMAL": 14,
						"TANGENT": 15,
						"TEXCOORD_0": 16,
						"TEXCOORD_1": 17
					},
					"indices": 12,
					"material": 2
				}
			]
		}
	],
	"nodes": [
		{
			"mesh": 0
		}
	],
	"samplers": [
		{
			"minFilter": 9987,
			"magFilter": 9729
		}
	],
	"scenes": [
		{
			"nodes": [ 0 ]
		}
	],
	"textures": [
		{
			"name": "MI_Brick_02_BaseColor",
			"sampler": 0,
			"source": 0
		},
		{
			"name": "MI_Brick_02_MetallicRoughness",
			"sampler": 0,
			"source": 1
		},
		{
			"name": "MI_Brick_02_Normal",
			"sampler": 0,
			"source": 2
		},
		{
			"name": "MI_Brick_02_Occlusion",
			"sampler": 0,
			"source": 3
		},
		{
			"name": "MI_Styl_Wall_Brick_02_SM_palace_wall_entry_01_BaseColor",
			"sampler": 0,
			"source": 4
		},
		{
			"name": "MI_Styl_Wall_Brick_02_SM_palace_wall_entry_01_MetallicRoughness",
			"sampler": 0,
			"source": 5
		},
		{
			"name": "MI_Styl_Wall_Brick_02_SM_palace_wall_entry_01_Normal",
			"sampler": 0,
			"source": 6
		},
		{
			"name": "MI_Styl_Wall_Brick_02_SM_palace_wall_entry_01_Occlusion",
			"sampler": 0,
			"source": 7
		},
		{
			"name": "MI_Glass_Normal",
			"sampler": 0,
			"source": 8
		}
	],
	"extensionsUsed": [
		"KHR_texture_transform"
	]
}