{
	"asset":
	{
		"version": "2.0",
		"generator": "Unreal Engine 5.6.1"
	},
	"scene": 0,
	"accessors": [
		{
			"bufferView": 0,
			"count": 2484,
			"type": "SCALAR",
			"componentType": 5123
		},
		{
			"bufferView": 1,
			"count": 726,
			"type": "VEC3",
			"componentType": 5126,
			"min": [ -2.48963094, -8.40425457e-07, -2.48962998 ],
			"max": [ 4.66466093, 6.97272205, 2.48963165 ]
		},
		{
			"bufferView": 2,
			"count": 726,
			"type": "VEC3",
			"componentType": 5126
		},
		{
			"bufferView": 3,
			"count": 726,
			"type": "VEC4",
			"componentType": 5126
		},
		{
			"bufferView": 4,
			"count": 726,
			"type": "VEC2",
			"componentType": 5126
		},
		{
			"bufferView": 5,
			"count": 726,
			"type": "VEC2",
			"componentType": 5126
		}
	],
	"buffers": [
		{
			"uri": "SM_roof_flag_01.bin",
			"byteLength": 45624
		}
	],
	"bufferViews": [
		{
			"buffer": 0,
			"byteLength": 4968,
			"target": 34963
		},
		{
			"buffer": 0,
			"byteLength": 8712,
			"byteOffset": 4968,
			"target": 34962
		},
		{
			"buffer": 0,
			"byteLength": 8712,
			"byteOffset": 13680,
			"target": 34962
		},
		{
			"buffer": 0,
			"byteLength": 11616,
			"byteOffset": 22392,
			"target": 34962
		},
		{
			"buffer": 0,
			"byteLength": 5808,
			"byteOffset": 34008,
			"target": 34962
		},
		{
			"buffer": 0,
			"byteLength": 5808,
			"byteOffset": 39816,
			"target": 34962
		}
	],
	"images": [
		{
			"uri": "T_Metal_Trim_C.png"
		},
		{
			"uri": "T_Metal_Trim_M.png"
		},
		{
			"uri": "T_Metal_Trim_N.png"
		}
	],
	"materials": [
		{
			"name": "MI_Metall_Trim_01",
			"pbrMetallicRoughness":
			{
				"baseColorTexture":
				{
					"index": 0
				},
				"metallicRoughnessTexture":
				{
					"index": 1
				}
			},
			"normalTexture":
			{
				"index": 2
			},
			"occlusionTexture":
			{
				"index": 1
			}
		}
	],
	"meshes": [
		{
			"name": "SM_roof_flag_01",
			"primitives": [
				{
					"attributes":
					{
						"POSITION": 1,
						"NORMAL": 2,
						"TANGENT": 3,
						"TEXCOORD_0": 4,
						"TEXCOORD_1": 5
					},
					"indices": 0,
					"material": 0
				}
			]
		}
	],
	"nodes": [
		{
			"mesh": 0
		}
	],
	"samplers": [
		{
			"minFilter": 9987,
			"magFilter": 9729
		}
	],
	"scenes": [
		{
			"nodes": [ 0 ]
		}
	],
	"textures": [
		{
			"name": "T_Metal_Trim_C",
			"sampler": 0,
			"source": 0
		},
		{
			"name": "T_Metal_Trim_M",
			"sampler": 0,
			"source": 1
		},
		{
			"name": "T_Metal_Trim_N",
			"sampler": 0,
			"source": 2
		}
	]
}