{
	"asset":
	{
		"version": "2.0",
		"generator": "Unreal Engine 5.6.1"
	},
	"scene": 0,
	"accessors": [
		{
			"bufferView": 0,
			"count": 303,
			"type": "SCALAR",
			"componentType": 5121
		},
		{
			"bufferView": 1,
			"count": 107,
			"type": "VEC3",
			"componentType": 5126,
			"min": [ -3.37277675, 4.63273191, -3.37551761 ],
			"max": [ 3.37879181, 4.99407291, 3.37417769 ]
		},
		{
			"bufferView": 2,
			"count": 107,
			"type": "VEC3",
			"componentType": 5126
		},
		{
			"bufferView": 3,
			"count": 107,
			"type": "VEC4",
			"componentType": 5126
		},
		{
			"bufferView": 4,
			"count": 107,
			"type": "VEC2",
			"componentType": 5126
		},
		{
			"bufferView": 5,
			"count": 107,
			"type": "VEC2",
			"componentType": 5126
		},
		{
			"bufferView": 6,
			"count": 5247,
			"type": "SCALAR",
			"componentType": 5123
		},
		{
			"bufferView": 7,
			"count": 2266,
			"type": "VEC3",
			"componentType": 5126,
			"min": [ -3.91140556, -0.00837002508, -3.91136217 ],
			"max": [ 3.91140556, 12.0011435, 3.9111135 ]
		},
		{
			"bufferView": 8,
			"count": 2266,
			"type": "VEC3",
			"componentType": 5126
		},
		{
			"bufferView": 9,
			"count": 2266,
			"type": "VEC4",
			"componentType": 5126
		},
		{
			"bufferView": 10,
			"count": 2266,
			"type": "VEC2",
			"componentType": 5126
		},
		{
			"bufferView": 11,
			"count": 2266,
			"type": "VEC2",
			"componentType": 5126
		},
		{
			"bufferView": 12,
			"count": 1254,
			"type": "SCALAR",
			"componentType": 5123
		},
		{
			"bufferView": 13,
			"count": 396,
			"type": "VEC3",
			"componentType": 5126,
			"min": [ -3.60471272, -1.69906821e-06, -3.60472226 ],
			"max": [ 3.60471773, 12.0011091, 3.60480738 ]
		},
		{
			"bufferView": 14,
			"count": 396,
			"type": "VEC3",
			"componentType": 5126
		},
		{
			"bufferView": 15,
			"count": 396,
			"type": "VEC4",
			"componentType": 5126
		},
		{
			"bufferView": 16,
			"count": 396,
			"type": "VEC2",
			"componentType": 5126
		},
		{
			"bufferView": 17,
			"count": 396,
			"type": "VEC2",
			"componentType": 5126
		}
	],
	"buffers": [
		{
			"uri": "SM_round_tower_body_05_E8B4C3A.bin",
			"byteLength": 168372
		}
	],
	"bufferViews": [
		{
			"buffer": 0,
			"byteLength": 303,
			"target": 34963
		},
		{
			"buffer": 0,
			"byteLength": 1284,
			"byteOffset": 304,
			"target": 34962
		},
		{
			"buffer": 0,
			"byteLength": 1284,
			"byteOffset": 1588,
			"target": 34962
		},
		{
			"buffer": 0,
			"byteLength": 1712,
			"byteOffset": 2872,
			"target": 34962
		},
		{
			"buffer": 0,
			"byteLength": 856,
			"byteOffset": 4584,
			"target": 34962
		},
		{
			"buffer": 0,
			"byteLength": 856,
			"byteOffset": 5440,
			"target": 34962
		},
		{
			"buffer": 0,
			"byteLength": 10494,
			"byteOffset": 6296,
			"target": 34963
		},
		{
			"buffer": 0,
			"byteLength": 27192,
			"byteOffset": 16792,
			"target": 34962
		},
		{
			"buffer": 0,
			"byteLength": 27192,
			"byteOffset": 43984,
			"target": 34962
		},
		{
			"buffer": 0,
			"byteLength": 36256,
			"byteOffset": 71176,
			"target": 34962
		},
		{
			"buffer": 0,
			"byteLength": 18128,
			"byteOffset": 107432,
			"target": 34962
		},
		{
			"buffer": 0,
			"byteLength": 18128,
			"byteOffset": 125560,
			"target": 34962
		},
		{
			"buffer": 0,
			"byteLength": 2508,
			"byteOffset": 143688,
			"target": 34963
		},
		{
			"buffer": 0,
			"byteLength": 4752,
			"byteOffset": 146196,
			"target": 34962
		},
		{
			"buffer": 0,
			"byteLength": 4752,
			"byteOffset": 150948,
			"target": 34962
		},
		{
			"buffer": 0,
			"byteLength": 6336,
			"byteOffset": 155700,
			"target": 34962
		},
		{
			"buffer": 0,
			"byteLength": 3168,
			"byteOffset": 162036,
			"target": 34962
		},
		{
			"buffer": 0,
			"byteLength": 3168,
			"byteOffset": 165204,
			"target": 34962
		}
	],
	"images": [
		{
			"uri": "MI_Floor_Brick_01_BaseColor.png"
		},
		{
			"uri": "MI_Floor_Brick_01_MetallicRoughness.png"
		},
		{
			"uri": "MI_Floor_Brick_01_Normal.png"
		},
		{
			"uri": "MI_Floor_Brick_01_Occlusion.png"
		},
		{
			"uri": "MI_Brick_02_BaseColor.png"
		},
		{
			"uri": "MI_Brick_02_MetallicRoughness.png"
		},
		{
			"uri": "MI_Brick_02_Normal.png"
		},
		{
			"uri": "MI_Brick_02_Occlusion.png"
		},
		{
			"uri": "MI_Styl_Wall_Brick_02_SM_round_tower_body_05_BaseColor.png"
		},
		{
			"uri": "MI_Styl_Wall_Brick_02_SM_round_tower_body_05_MetallicRoughness.png"
		},
		{
			"uri": "MI_Styl_Wall_Brick_02_SM_round_tower_body_05_Normal.png"
		},
		{
			"uri": "MI_Styl_Wall_Brick_02_SM_round_tower_body_05_Occlusion.png"
		}
	],
	"materials": [
		{
			"name": "MI_Floor_Brick_01",
			"pbrMetallicRoughness":
			{
				"baseColorTexture":
				{
					"index": 0
				},
				"metallicRoughnessTexture":
				{
					"index": 1
				}
			},
			"normalTexture":
			{
				"index": 2
			},
			"occlusionTexture":
			{
				"index": 3
			}
		},
		{
			"name": "MI_Brick_02",
			"pbrMetallicRoughness":
			{
				"baseColorTexture":
				{
					"index": 4
				},
				"metallicRoughnessTexture":
				{
					"index": 5
				}
			},
			"normalTexture":
			{
				"index": 6
			},
			"occlusionTexture":
			{
				"index": 7
			}
		},
		{
			"name": "MI_Styl_Wall_Brick_02_SM_round_tower_body_05",
			"pbrMetallicRoughness":
			{
				"baseColorTexture":
				{
					"index": 8,
					"texCoord": 1,
					"extensions":
					{
						"KHR_texture_transform":
						{
							"offset": [ -0.0236445013, -0.016201565 ],
							"scale": [ 3.25026965, 2.01860404 ]
						}
					}
				},
				"metallicRoughnessTexture":
				{
					"index": 9,
					"texCoord": 1,
					"extensions":
					{
						"KHR_texture_transform":
						{
							"offset": [ -0.0236445013, -0.016201565 ],
							"scale": [ 3.25026965, 2.01860404 ]
						}
					}
				}
			},
			"normalTexture":
			{
				"index": 10,
				"texCoord": 1,
				"extensions":
				{
					"KHR_texture_transform":
					{
						"offset": [ -0.0236445013, -0.016201565 ],
						"scale": [ 3.25026965, 2.01860404 ]
					}
				}
			},
			"occlusionTexture":
			{
				"index": 11,
				"texCoord": 1,
				"extensions":
				{
					"KHR_texture_transform":
					{
						"offset": [ -0.0236445013, -0.016201565 ],
						"scale": [ 3.25026965, 2.01860404 ]
					}
				}
			}
		}
	],
	"meshes": [
		{
			"name": "SM_round_tower_body_05",
			"primitives": [
				{
					"attributes":
					{
						"POSITION": 1,
						"NORMAL": 2,
						"TANGENT": 3,
						"TEXCOORD_0": 4,
						"TEXCOORD_1": 5
					},
					"indices": 0,
					"material": 0
				},
				{
					"attributes":
					{
						"POSITION": 7,
						"NORMAL": 8,
						"TANGENT": 9,
						"TEXCOORD_0": 10,
						"TEXCOORD_1": 11
					},
					"indices": 6,
					"material": 1
				},
				{
					"attributes":
					{
						"POSITION": 13,
						"NORMAL": 14,
						"TANGENT": 15,
						"TEXCOORD_0": 16,
						"TEXCOORD_1": 17
					},
					"indices": 12,
					"material": 2
				}
			]
		}
	],
	"nodes": [
		{
			"mesh": 0
		}
	],
	"samplers": [
		{
			"minFilter": 9987,
			"magFilter": 9729
		}
	],
	"scenes": [
		{
			"nodes": [ 0 ]
		}
	],
	"textures": [
		{
			"name": "MI_Floor_Brick_01_BaseColor",
			"sampler": 0,
			"source": 0
		},
		{
			"name": "MI_Floor_Brick_01_MetallicRoughness",
			"sampler": 0,
			"source": 1
		},
		{
			"name": "MI_Floor_Brick_01_Normal",
			"sampler": 0,
			"source": 2
		},
		{
			"name": "MI_Floor_Brick_01_Occlusion",
			"sampler": 0,
			"source": 3
		},
		{
			"name": "MI_Brick_02_BaseColor",
			"sampler": 0,
			"source": 4
		},
		{
			"name": "MI_Brick_02_MetallicRoughness",
			"sampler": 0,
			"source": 5
		},
		{
			"name": "MI_Brick_02_Normal",
			"sampler": 0,
			"source": 6
		},
		{
			"name": "MI_Brick_02_Occlusion",
			"sampler": 0,
			"source": 7
		},
		{
			"name": "MI_Styl_Wall_Brick_02_SM_round_tower_body_05_BaseColor",
			"sampler": 0,
			"source": 8
		},
		{
			"name": "MI_Styl_Wall_Brick_02_SM_round_tower_body_05_MetallicRoughness",
			"sampler": 0,
			"source": 9
		},
		{
			"name": "MI_Styl_Wall_Brick_02_SM_round_tower_body_05_Normal",
			"sampler": 0,
			"source": 10
		},
		{
			"name": "MI_Styl_Wall_Brick_02_SM_round_tower_body_05_Occlusion",
			"sampler": 0,
			"source": 11
		}
	],
	"extensionsUsed": [
		"KHR_texture_transform"
	]
}