{
	"asset":
	{
		"version": "2.0",
		"generator": "Unreal Engine 5.6.1"
	},
	"scene": 0,
	"accessors": [
		{
			"bufferView": 0,
			"count": 1728,
			"type": "SCALAR",
			"componentType": 5123
		},
		{
			"bufferView": 1,
			"count": 1152,
			"type": "VEC3",
			"componentType": 5126,
			"min": [ -2.32076049, -1.90734859e-08, -2.32239032 ],
			"max": [ 2.32339358, 8.00000381, 2.32450175 ]
		},
		{
			"bufferView": 2,
			"count": 1152,
			"type": "VEC3",
			"componentType": 5126
		},
		{
			"bufferView": 3,
			"count": 1152,
			"type": "VEC4",
			"componentType": 5126
		},
		{
			"bufferView": 4,
			"count": 1152,
			"type": "VEC2",
			"componentType": 5126
		},
		{
			"bufferView": 5,
			"count": 1152,
			"type": "VEC2",
			"componentType": 5126
		},
		{
			"bufferView": 6,
			"count": 102,
			"type": "SCALAR",
			"componentType": 5121
		},
		{
			"bufferView": 7,
			"count": 38,
			"type": "VEC3",
			"componentType": 5126,
			"min": [ -0.349030256, -0.000148542778, -0.344139993 ],
			"max": [ 0.347937167, 8.01512051, 0.361398637 ]
		},
		{
			"bufferView": 8,
			"count": 38,
			"type": "VEC3",
			"componentType": 5126
		},
		{
			"bufferView": 9,
			"count": 38,
			"type": "VEC4",
			"componentType": 5126
		},
		{
			"bufferView": 10,
			"count": 38,
			"type": "VEC2",
			"componentType": 5126
		},
		{
			"bufferView": 11,
			"count": 38,
			"type": "VEC2",
			"componentType": 5126
		}
	],
	"buffers": [
		{
			"uri": "SM_round_tower_stairs_01_F2CC76CC.bin",
			"byteLength": 70200
		}
	],
	"bufferViews": [
		{
			"buffer": 0,
			"byteLength": 3456,
			"target": 34963
		},
		{
			"buffer": 0,
			"byteLength": 13824,
			"byteOffset": 3456,
			"target": 34962
		},
		{
			"buffer": 0,
			"byteLength": 13824,
			"byteOffset": 17280,
			"target": 34962
		},
		{
			"buffer": 0,
			"byteLength": 18432,
			"byteOffset": 31104,
			"target": 34962
		},
		{
			"buffer": 0,
			"byteLength": 9216,
			"byteOffset": 49536,
			"target": 34962
		},
		{
			"buffer": 0,
			"byteLength": 9216,
			"byteOffset": 58752,
			"target": 34962
		},
		{
			"buffer": 0,
			"byteLength": 102,
			"byteOffset": 67968,
			"target": 34963
		},
		{
			"buffer": 0,
			"byteLength": 456,
			"byteOffset": 68072,
			"target": 34962
		},
		{
			"buffer": 0,
			"byteLength": 456,
			"byteOffset": 68528,
			"target": 34962
		},
		{
			"buffer": 0,
			"byteLength": 608,
			"byteOffset": 68984,
			"target": 34962
		},
		{
			"buffer": 0,
			"byteLength": 304,
			"byteOffset": 69592,
			"target": 34962
		},
		{
			"buffer": 0,
			"byteLength": 304,
			"byteOffset": 69896,
			"target": 34962
		}
	],
	"images": [
		{
			"uri": "MI_Styl_Wall_Concrete_SM_round_tower_stairs_01_BaseColor.png"
		},
		{
			"uri": "MI_Styl_Wall_Concrete_SM_round_tower_stairs_01_MetallicRoughness.png"
		},
		{
			"uri": "MI_Styl_Wall_Concrete_SM_round_tower_stairs_01_Normal.png"
		},
		{
			"uri": "MI_Styl_Wall_Concrete_SM_round_tower_stairs_01_Occlusion.png"
		},
		{
			"uri": "MI_Brick_02_BaseColor.png"
		},
		{
			"uri": "MI_Brick_02_MetallicRoughness.png"
		},
		{
			"uri": "MI_Brick_02_Normal.png"
		},
		{
			"uri": "MI_Brick_02_Occlusion.png"
		}
	],
	"materials": [
		{
			"name": "MI_Styl_Wall_Concrete_SM_round_tower_stairs_01",
			"pbrMetallicRoughness":
			{
				"baseColorTexture":
				{
					"index": 0,
					"texCoord": 1,
					"extensions":
					{
						"KHR_texture_transform":
						{
							"offset": [ -0.00825581327, -0.00825581327 ],
							"scale": [ 1.02375209, 1.02375209 ]
						}
					}
				},
				"metallicRoughnessTexture":
				{
					"index": 1,
					"texCoord": 1,
					"extensions":
					{
						"KHR_texture_transform":
						{
							"offset": [ -0.00825581327, -0.00825581327 ],
							"scale": [ 1.02375209, 1.02375209 ]
						}
					}
				}
			},
			"normalTexture":
			{
				"index": 2,
				"texCoord": 1,
				"extensions":
				{
					"KHR_texture_transform":
					{
						"offset": [ -0.00825581327, -0.00825581327 ],
						"scale": [ 1.02375209, 1.02375209 ]
					}
				}
			},
			"occlusionTexture":
			{
				"index": 3,
				"texCoord": 1,
				"extensions":
				{
					"KHR_texture_transform":
					{
						"offset": [ -0.00825581327, -0.00825581327 ],
						"scale": [ 1.02375209, 1.02375209 ]
					}
				}
			},
			"doubleSided": true
		},
		{
			"name": "MI_Brick_02",
			"pbrMetallicRoughness":
			{
				"baseColorTexture":
				{
					"index": 4
				},
				"metallicRoughnessTexture":
				{
					"index": 5
				}
			},
			"normalTexture":
			{
				"index": 6
			},
			"occlusionTexture":
			{
				"index": 7
			}
		}
	],
	"meshes": [
		{
			"name": "SM_round_tower_stairs_01",
			"primitives": [
				{
					"attributes":
					{
						"POSITION": 1,
						"NORMAL": 2,
						"TANGENT": 3,
						"TEXCOORD_0": 4,
						"TEXCOORD_1": 5
					},
					"indices": 0,
					"material": 0
				},
				{
					"attributes":
					{
						"POSITION": 7,
						"NORMAL": 8,
						"TANGENT": 9,
						"TEXCOORD_0": 10,
						"TEXCOORD_1": 11
					},
					"indices": 6,
					"material": 1
				}
			]
		}
	],
	"nodes": [
		{
			"mesh": 0
		}
	],
	"samplers": [
		{
			"minFilter": 9987,
			"magFilter": 9729
		}
	],
	"scenes": [
		{
			"nodes": [ 0 ]
		}
	],
	"textures": [
		{
			"name": "MI_Styl_Wall_Concrete_SM_round_tower_stairs_01_BaseColor",
			"sampler": 0,
			"source": 0
		},
		{
			"name": "MI_Styl_Wall_Concrete_SM_round_tower_stairs_01_MetallicRoughness",
			"sampler": 0,
			"source": 1
		},
		{
			"name": "MI_Styl_Wall_Concrete_SM_round_tower_stairs_01_Normal",
			"sampler": 0,
			"source": 2
		},
		{
			"name": "MI_Styl_Wall_Concrete_SM_round_tower_stairs_01_Occlusion",
			"sampler": 0,
			"source": 3
		},
		{
			"name": "MI_Brick_02_BaseColor",
			"sampler": 0,
			"source": 4
		},
		{
			"name": "MI_Brick_02_MetallicRoughness",
			"sampler": 0,
			"source": 5
		},
		{
			"name": "MI_Brick_02_Normal",
			"sampler": 0,
			"source": 6
		},
		{
			"name": "MI_Brick_02_Occlusion",
			"sampler": 0,
			"source": 7
		}
	],
	"extensionsUsed": [
		"KHR_texture_transform"
	]
}