{
	"asset":
	{
		"version": "2.0",
		"generator": "Unreal Engine 5.6.1"
	},
	"scene": 0,
	"accessors": [
		{
			"bufferView": 0,
			"count": 2718,
			"type": "SCALAR",
			"componentType": 5123
		},
		{
			"bufferView": 1,
			"count": 550,
			"type": "VEC3",
			"componentType": 5126,
			"min": [ -14.8399401, -13.6320477, -14.8802423 ],
			"max": [ 15.4895897, 13.1265154, 14.0359678 ]
		},
		{
			"bufferView": 2,
			"count": 550,
			"type": "VEC3",
			"componentType": 5126
		},
		{
			"bufferView": 3,
			"count": 550,
			"type": "VEC4",
			"componentType": 5126
		},
		{
			"bufferView": 4,
			"count": 550,
			"type": "VEC2",
			"componentType": 5126
		},
		{
			"bufferView": 5,
			"count": 550,
			"type": "VEC2",
			"componentType": 5126
		}
	],
	"buffers": [
		{
			"uri": "SM_Rock2_mid_58196F66.bin",
			"byteLength": 36236
		}
	],
	"bufferViews": [
		{
			"buffer": 0,
			"byteLength": 5436,
			"target": 34963
		},
		{
			"buffer": 0,
			"byteLength": 6600,
			"byteOffset": 5436,
			"target": 34962
		},
		{
			"buffer": 0,
			"byteLength": 6600,
			"byteOffset": 12036,
			"target": 34962
		},
		{
			"buffer": 0,
			"byteLength": 8800,
			"byteOffset": 18636,
			"target": 34962
		},
		{
			"buffer": 0,
			"byteLength": 4400,
			"byteOffset": 27436,
			"target": 34962
		},
		{
			"buffer": 0,
			"byteLength": 4400,
			"byteOffset": 31836,
			"target": 34962
		}
	],
	"images": [
		{
			"uri": "MI_Rock_Tile_01_SM_Rock2_mid_BaseColor.png"
		},
		{
			"uri": "MI_Rock_Tile_01_SM_Rock2_mid_MetallicRoughness.png"
		},
		{
			"uri": "MI_Rock_Tile_01_SM_Rock2_mid_Normal.png"
		},
		{
			"uri": "MI_Rock_Tile_01_SM_Rock2_mid_Occlusion.png"
		}
	],
	"materials": [
		{
			"name": "MI_Rock_Tile_01_SM_Rock2_mid",
			"pbrMetallicRoughness":
			{
				"baseColorTexture":
				{
					"index": 0,
					"texCoord": 1,
					"extensions":
					{
						"KHR_texture_transform":
						{
							"offset": [ -0.00747951865, -0.00827235449 ],
							"scale": [ 1.01591241, 1.02580321 ]
						}
					}
				},
				"metallicRoughnessTexture":
				{
					"index": 1,
					"texCoord": 1,
					"extensions":
					{
						"KHR_texture_transform":
						{
							"offset": [ -0.00747951865, -0.00827235449 ],
							"scale": [ 1.01591241, 1.02580321 ]
						}
					}
				}
			},
			"normalTexture":
			{
				"index": 2,
				"texCoord": 1,
				"extensions":
				{
					"KHR_texture_transform":
					{
						"offset": [ -0.00747951865, -0.00827235449 ],
						"scale": [ 1.01591241, 1.02580321 ]
					}
				}
			},
			"occlusionTexture":
			{
				"index": 3,
				"texCoord": 1,
				"extensions":
				{
					"KHR_texture_transform":
					{
						"offset": [ -0.00747951865, -0.00827235449 ],
						"scale": [ 1.01591241, 1.02580321 ]
					}
				}
			}
		}
	],
	"meshes": [
		{
			"name": "SM_Rock2_mid",
			"primitives": [
				{
					"attributes":
					{
						"POSITION": 1,
						"NORMAL": 2,
						"TANGENT": 3,
						"TEXCOORD_0": 4,
						"TEXCOORD_1": 5
					},
					"indices": 0,
					"material": 0
				}
			]
		}
	],
	"nodes": [
		{
			"mesh": 0
		}
	],
	"samplers": [
		{
			"minFilter": 9987,
			"magFilter": 9729
		}
	],
	"scenes": [
		{
			"nodes": [ 0 ]
		}
	],
	"textures": [
		{
			"name": "MI_Rock_Tile_01_SM_Rock2_mid_BaseColor",
			"sampler": 0,
			"source": 0
		},
		{
			"name": "MI_Rock_Tile_01_SM_Rock2_mid_MetallicRoughness",
			"sampler": 0,
			"source": 1
		},
		{
			"name": "MI_Rock_Tile_01_SM_Rock2_mid_Normal",
			"sampler": 0,
			"source": 2
		},
		{
			"name": "MI_Rock_Tile_01_SM_Rock2_mid_Occlusion",
			"sampler": 0,
			"source": 3
		}
	],
	"extensionsUsed": [
		"KHR_texture_transform"
	]
}