{
	"asset":
	{
		"version": "2.0",
		"generator": "Unreal Engine 5.6.1"
	},
	"scene": 0,
	"accessors": [
		{
			"bufferView": 0,
			"count": 828,
			"type": "SCALAR",
			"componentType": 5123
		},
		{
			"bufferView": 1,
			"count": 369,
			"type": "VEC3",
			"componentType": 5126,
			"min": [ -2.60743213, -0.0254457705, -2.77894044 ],
			"max": [ 2.69558406, 7.99999857, 2.77894044 ]
		},
		{
			"bufferView": 2,
			"count": 369,
			"type": "VEC3",
			"componentType": 5126
		},
		{
			"bufferView": 3,
			"count": 369,
			"type": "VEC4",
			"componentType": 5126
		},
		{
			"bufferView": 4,
			"count": 369,
			"type": "VEC2",
			"componentType": 5126
		},
		{
			"bufferView": 5,
			"count": 369,
			"type": "VEC2",
			"componentType": 5126
		},
		{
			"bufferView": 6,
			"count": 330,
			"type": "SCALAR",
			"componentType": 5121
		},
		{
			"bufferView": 7,
			"count": 118,
			"type": "VEC3",
			"componentType": 5126,
			"min": [ -2.57383776, -0.00391052244, -2.57384276 ],
			"max": [ 2.57384276, 7.99999475, 2.57382798 ]
		},
		{
			"bufferView": 8,
			"count": 118,
			"type": "VEC3",
			"componentType": 5126
		},
		{
			"bufferView": 9,
			"count": 118,
			"type": "VEC4",
			"componentType": 5126
		},
		{
			"bufferView": 10,
			"count": 118,
			"type": "VEC2",
			"componentType": 5126
		},
		{
			"bufferView": 11,
			"count": 118,
			"type": "VEC2",
			"componentType": 5126
		}
	],
	"buffers": [
		{
			"uri": "SM_round_tower_body_03.bin",
			"byteLength": 29260
		}
	],
	"bufferViews": [
		{
			"buffer": 0,
			"byteLength": 1656,
			"target": 34963
		},
		{
			"buffer": 0,
			"byteLength": 4428,
			"byteOffset": 1656,
			"target": 34962
		},
		{
			"buffer": 0,
			"byteLength": 4428,
			"byteOffset": 6084,
			"target": 34962
		},
		{
			"buffer": 0,
			"byteLength": 5904,
			"byteOffset": 10512,
			"target": 34962
		},
		{
			"buffer": 0,
			"byteLength": 2952,
			"byteOffset": 16416,
			"target": 34962
		},
		{
			"buffer": 0,
			"byteLength": 2952,
			"byteOffset": 19368,
			"target": 34962
		},
		{
			"buffer": 0,
			"byteLength": 330,
			"byteOffset": 22320,
			"target": 34963
		},
		{
			"buffer": 0,
			"byteLength": 1416,
			"byteOffset": 22652,
			"target": 34962
		},
		{
			"buffer": 0,
			"byteLength": 1416,
			"byteOffset": 24068,
			"target": 34962
		},
		{
			"buffer": 0,
			"byteLength": 1888,
			"byteOffset": 25484,
			"target": 34962
		},
		{
			"buffer": 0,
			"byteLength": 944,
			"byteOffset": 27372,
			"target": 34962
		},
		{
			"buffer": 0,
			"byteLength": 944,
			"byteOffset": 28316,
			"target": 34962
		}
	],
	"images": [
		{
			"uri": "MI_Brick_02_BaseColor.png"
		},
		{
			"uri": "MI_Brick_02_MetallicRoughness.png"
		},
		{
			"uri": "MI_Brick_02_Normal.png"
		},
		{
			"uri": "MI_Brick_02_Occlusion.png"
		},
		{
			"uri": "MI_Styl_Wall_Brick_02_SM_round_tower_body_03_BaseColor.png"
		},
		{
			"uri": "MI_Styl_Wall_Brick_02_SM_round_tower_body_03_MetallicRoughness.png"
		},
		{
			"uri": "MI_Styl_Wall_Brick_02_SM_round_tower_body_03_Normal.png"
		},
		{
			"uri": "MI_Styl_Wall_Brick_02_SM_round_tower_body_03_Occlusion.png"
		}
	],
	"materials": [
		{
			"name": "MI_Brick_02",
			"pbrMetallicRoughness":
			{
				"baseColorTexture":
				{
					"index": 0
				},
				"metallicRoughnessTexture":
				{
					"index": 1
				}
			},
			"normalTexture":
			{
				"index": 2
			},
			"occlusionTexture":
			{
				"index": 3
			}
		},
		{
			"name": "MI_Styl_Wall_Brick_02_SM_round_tower_body_03",
			"pbrMetallicRoughness":
			{
				"baseColorTexture":
				{
					"index": 4,
					"texCoord": 1,
					"extensions":
					{
						"KHR_texture_transform":
						{
							"offset": [ -0.0116640404, -0.0116731524 ],
							"scale": [ 1.47570372, 1.4488858 ]
						}
					}
				},
				"metallicRoughnessTexture":
				{
					"index": 5,
					"texCoord": 1,
					"extensions":
					{
						"KHR_texture_transform":
						{
							"offset": [ -0.0116640404, -0.0116731524 ],
							"scale": [ 1.47570372, 1.4488858 ]
						}
					}
				}
			},
			"normalTexture":
			{
				"index": 6,
				"texCoord": 1,
				"extensions":
				{
					"KHR_texture_transform":
					{
						"offset": [ -0.0116640404, -0.0116731524 ],
						"scale": [ 1.47570372, 1.4488858 ]
					}
				}
			},
			"occlusionTexture":
			{
				"index": 7,
				"texCoord": 1,
				"extensions":
				{
					"KHR_texture_transform":
					{
						"offset": [ -0.0116640404, -0.0116731524 ],
						"scale": [ 1.47570372, 1.4488858 ]
					}
				}
			}
		}
	],
	"meshes": [
		{
			"name": "SM_round_tower_body_03",
			"primitives": [
				{
					"attributes":
					{
						"POSITION": 1,
						"NORMAL": 2,
						"TANGENT": 3,
						"TEXCOORD_0": 4,
						"TEXCOORD_1": 5
					},
					"indices": 0,
					"material": 0
				},
				{
					"attributes":
					{
						"POSITION": 7,
						"NORMAL": 8,
						"TANGENT": 9,
						"TEXCOORD_0": 10,
						"TEXCOORD_1": 11
					},
					"indices": 6,
					"material": 1
				}
			]
		}
	],
	"nodes": [
		{
			"mesh": 0
		}
	],
	"samplers": [
		{
			"minFilter": 9987,
			"magFilter": 9729
		}
	],
	"scenes": [
		{
			"nodes": [ 0 ]
		}
	],
	"textures": [
		{
			"name": "MI_Brick_02_BaseColor",
			"sampler": 0,
			"source": 0
		},
		{
			"name": "MI_Brick_02_MetallicRoughness",
			"sampler": 0,
			"source": 1
		},
		{
			"name": "MI_Brick_02_Normal",
			"sampler": 0,
			"source": 2
		},
		{
			"name": "MI_Brick_02_Occlusion",
			"sampler": 0,
			"source": 3
		},
		{
			"name": "MI_Styl_Wall_Brick_02_SM_round_tower_body_03_BaseColor",
			"sampler": 0,
			"source": 4
		},
		{
			"name": "MI_Styl_Wall_Brick_02_SM_round_tower_body_03_MetallicRoughness",
			"sampler": 0,
			"source": 5
		},
		{
			"name": "MI_Styl_Wall_Brick_02_SM_round_tower_body_03_Normal",
			"sampler": 0,
			"source": 6
		},
		{
			"name": "MI_Styl_Wall_Brick_02_SM_round_tower_body_03_Occlusion",
			"sampler": 0,
			"source": 7
		}
	],
	"extensionsUsed": [
		"KHR_texture_transform"
	]
}