{
	"asset":
	{
		"version": "2.0",
		"generator": "Unreal Engine 5.6.1"
	},
	"scene": 0,
	"accessors": [
		{
			"bufferView": 0,
			"count": 21,
			"type": "SCALAR",
			"componentType": 5121
		},
		{
			"bufferView": 1,
			"count": 11,
			"type": "VEC3",
			"componentType": 5126,
			"min": [ 0.129631951, 4.85021687, 4.88281239e-06 ],
			"max": [ 4.6344347, 5.73993778, 4.88281239e-06 ]
		},
		{
			"bufferView": 2,
			"count": 11,
			"type": "VEC3",
			"componentType": 5126
		},
		{
			"bufferView": 3,
			"count": 11,
			"type": "VEC4",
			"componentType": 5126
		},
		{
			"bufferView": 4,
			"count": 11,
			"type": "VEC2",
			"componentType": 5126
		},
		{
			"bufferView": 5,
			"count": 11,
			"type": "VEC2",
			"componentType": 5126
		},
		{
			"bufferView": 6,
			"count": 504,
			"type": "SCALAR",
			"componentType": 5121
		},
		{
			"bufferView": 7,
			"count": 144,
			"type": "VEC3",
			"componentType": 5126,
			"min": [ -0.431090295, -8.40425457e-07, -0.431089401 ],
			"max": [ 0.431090295, 6.97272205, 0.431090921 ]
		},
		{
			"bufferView": 8,
			"count": 144,
			"type": "VEC3",
			"componentType": 5126
		},
		{
			"bufferView": 9,
			"count": 144,
			"type": "VEC4",
			"componentType": 5126
		},
		{
			"bufferView": 10,
			"count": 144,
			"type": "VEC2",
			"componentType": 5126
		},
		{
			"bufferView": 11,
			"count": 144,
			"type": "VEC2",
			"componentType": 5126
		}
	],
	"buffers": [
		{
			"uri": "SM_roof_flag_roof_flag_02.bin",
			"byteLength": 9208
		}
	],
	"bufferViews": [
		{
			"buffer": 0,
			"byteLength": 21,
			"target": 34963
		},
		{
			"buffer": 0,
			"byteLength": 132,
			"byteOffset": 24,
			"target": 34962
		},
		{
			"buffer": 0,
			"byteLength": 132,
			"byteOffset": 156,
			"target": 34962
		},
		{
			"buffer": 0,
			"byteLength": 176,
			"byteOffset": 288,
			"target": 34962
		},
		{
			"buffer": 0,
			"byteLength": 88,
			"byteOffset": 464,
			"target": 34962
		},
		{
			"buffer": 0,
			"byteLength": 88,
			"byteOffset": 552,
			"target": 34962
		},
		{
			"buffer": 0,
			"byteLength": 504,
			"byteOffset": 640,
			"target": 34963
		},
		{
			"buffer": 0,
			"byteLength": 1728,
			"byteOffset": 1144,
			"target": 34962
		},
		{
			"buffer": 0,
			"byteLength": 1728,
			"byteOffset": 2872,
			"target": 34962
		},
		{
			"buffer": 0,
			"byteLength": 2304,
			"byteOffset": 4600,
			"target": 34962
		},
		{
			"buffer": 0,
			"byteLength": 1152,
			"byteOffset": 6904,
			"target": 34962
		},
		{
			"buffer": 0,
			"byteLength": 1152,
			"byteOffset": 8056,
			"target": 34962
		}
	],
	"images": [
		{
			"uri": "MI_Flag_BaseColor.png"
		},
		{
			"uri": "MI_Flag_MetallicRoughness.png"
		},
		{
			"uri": "MI_Flag_Normal.png"
		},
		{
			"uri": "T_Metal_Trim_C.png"
		},
		{
			"uri": "T_Metal_Trim_M.png"
		},
		{
			"uri": "T_Metal_Trim_N.png"
		}
	],
	"materials": [
		{
			"name": "MI_Flag",
			"pbrMetallicRoughness":
			{
				"baseColorTexture":
				{
					"index": 0
				},
				"metallicRoughnessTexture":
				{
					"index": 1
				}
			},
			"normalTexture":
			{
				"index": 2
			},
			"doubleSided": true
		},
		{
			"name": "MI_Metall_Trim_01",
			"pbrMetallicRoughness":
			{
				"baseColorTexture":
				{
					"index": 3
				},
				"metallicRoughnessTexture":
				{
					"index": 4
				}
			},
			"normalTexture":
			{
				"index": 5
			},
			"occlusionTexture":
			{
				"index": 4
			}
		}
	],
	"meshes": [
		{
			"name": "SM_roof_flag_roof_flag_02",
			"primitives": [
				{
					"attributes":
					{
						"POSITION": 1,
						"NORMAL": 2,
						"TANGENT": 3,
						"TEXCOORD_0": 4,
						"TEXCOORD_1": 5
					},
					"indices": 0,
					"material": 0
				},
				{
					"attributes":
					{
						"POSITION": 7,
						"NORMAL": 8,
						"TANGENT": 9,
						"TEXCOORD_0": 10,
						"TEXCOORD_1": 11
					},
					"indices": 6,
					"material": 1
				}
			]
		}
	],
	"nodes": [
		{
			"mesh": 0
		}
	],
	"samplers": [
		{
			"minFilter": 9987,
			"magFilter": 9729
		}
	],
	"scenes": [
		{
			"nodes": [ 0 ]
		}
	],
	"textures": [
		{
			"name": "MI_Flag_BaseColor",
			"sampler": 0,
			"source": 0
		},
		{
			"name": "MI_Flag_MetallicRoughness",
			"sampler": 0,
			"source": 1
		},
		{
			"name": "MI_Flag_Normal",
			"sampler": 0,
			"source": 2
		},
		{
			"name": "T_Metal_Trim_C",
			"sampler": 0,
			"source": 3
		},
		{
			"name": "T_Metal_Trim_M",
			"sampler": 0,
			"source": 4
		},
		{
			"name": "T_Metal_Trim_N",
			"sampler": 0,
			"source": 5
		}
	]
}