{
	"asset":
	{
		"version": "2.0",
		"generator": "Unreal Engine 5.6.1"
	},
	"scene": 0,
	"accessors": [
		{
			"bufferView": 0,
			"count": 864,
			"type": "SCALAR",
			"componentType": 5123
		},
		{
			"bufferView": 1,
			"count": 576,
			"type": "VEC3",
			"componentType": 5126,
			"min": [ -2.32231927, 5.72204577e-08, -2.3247273 ],
			"max": [ 2.32411361, 3.99626446, 2.32271338 ]
		},
		{
			"bufferView": 2,
			"count": 576,
			"type": "VEC3",
			"componentType": 5126
		},
		{
			"bufferView": 3,
			"count": 576,
			"type": "VEC4",
			"componentType": 5126
		},
		{
			"bufferView": 4,
			"count": 576,
			"type": "VEC2",
			"componentType": 5126
		},
		{
			"bufferView": 5,
			"count": 576,
			"type": "VEC2",
			"componentType": 5126
		},
		{
			"bufferView": 6,
			"count": 99,
			"type": "SCALAR",
			"componentType": 5121
		},
		{
			"bufferView": 7,
			"count": 37,
			"type": "VEC3",
			"componentType": 5126,
			"min": [ -0.348986834, -0.000200535709, -0.344132692 ],
			"max": [ 0.345007211, 4.02441549, 0.360589981 ]
		},
		{
			"bufferView": 8,
			"count": 37,
			"type": "VEC3",
			"componentType": 5126
		},
		{
			"bufferView": 9,
			"count": 37,
			"type": "VEC4",
			"componentType": 5126
		},
		{
			"bufferView": 10,
			"count": 37,
			"type": "VEC2",
			"componentType": 5126
		},
		{
			"bufferView": 11,
			"count": 37,
			"type": "VEC2",
			"componentType": 5126
		}
	],
	"buffers": [
		{
			"uri": "SM_round_tower_stairs_02_97FD78DD.bin",
			"byteLength": 36156
		}
	],
	"bufferViews": [
		{
			"buffer": 0,
			"byteLength": 1728,
			"target": 34963
		},
		{
			"buffer": 0,
			"byteLength": 6912,
			"byteOffset": 1728,
			"target": 34962
		},
		{
			"buffer": 0,
			"byteLength": 6912,
			"byteOffset": 8640,
			"target": 34962
		},
		{
			"buffer": 0,
			"byteLength": 9216,
			"byteOffset": 15552,
			"target": 34962
		},
		{
			"buffer": 0,
			"byteLength": 4608,
			"byteOffset": 24768,
			"target": 34962
		},
		{
			"buffer": 0,
			"byteLength": 4608,
			"byteOffset": 29376,
			"target": 34962
		},
		{
			"buffer": 0,
			"byteLength": 99,
			"byteOffset": 33984,
			"target": 34963
		},
		{
			"buffer": 0,
			"byteLength": 444,
			"byteOffset": 34084,
			"target": 34962
		},
		{
			"buffer": 0,
			"byteLength": 444,
			"byteOffset": 34528,
			"target": 34962
		},
		{
			"buffer": 0,
			"byteLength": 592,
			"byteOffset": 34972,
			"target": 34962
		},
		{
			"buffer": 0,
			"byteLength": 296,
			"byteOffset": 35564,
			"target": 34962
		},
		{
			"buffer": 0,
			"byteLength": 296,
			"byteOffset": 35860,
			"target": 34962
		}
	],
	"images": [
		{
			"uri": "MI_Styl_Wall_Concrete_SM_round_tower_stairs_02_BaseColor.png"
		},
		{
			"uri": "MI_Styl_Wall_Concrete_SM_round_tower_stairs_02_MetallicRoughness.png"
		},
		{
			"uri": "MI_Styl_Wall_Concrete_SM_round_tower_stairs_02_Normal.png"
		},
		{
			"uri": "MI_Styl_Wall_Concrete_SM_round_tower_stairs_02_Occlusion.png"
		},
		{
			"uri": "MI_Brick_02_BaseColor.png"
		},
		{
			"uri": "MI_Brick_02_MetallicRoughness.png"
		},
		{
			"uri": "MI_Brick_02_Normal.png"
		},
		{
			"uri": "MI_Brick_02_Occlusion.png"
		}
	],
	"materials": [
		{
			"name": "MI_Styl_Wall_Concrete_SM_round_tower_stairs_02",
			"pbrMetallicRoughness":
			{
				"baseColorTexture":
				{
					"index": 0,
					"texCoord": 1,
					"extensions":
					{
						"KHR_texture_transform":
						{
							"offset": [ -0.00819843821, -0.00822702516 ],
							"scale": [ 1.01663733, 1.02018225 ]
						}
					}
				},
				"metallicRoughnessTexture":
				{
					"index": 1,
					"texCoord": 1,
					"extensions":
					{
						"KHR_texture_transform":
						{
							"offset": [ -0.00819843821, -0.00822702516 ],
							"scale": [ 1.01663733, 1.02018225 ]
						}
					}
				}
			},
			"normalTexture":
			{
				"index": 2,
				"texCoord": 1,
				"extensions":
				{
					"KHR_texture_transform":
					{
						"offset": [ -0.00819843821, -0.00822702516 ],
						"scale": [ 1.01663733, 1.02018225 ]
					}
				}
			},
			"occlusionTexture":
			{
				"index": 3,
				"texCoord": 1,
				"extensions":
				{
					"KHR_texture_transform":
					{
						"offset": [ -0.00819843821, -0.00822702516 ],
						"scale": [ 1.01663733, 1.02018225 ]
					}
				}
			},
			"doubleSided": true
		},
		{
			"name": "MI_Brick_02",
			"pbrMetallicRoughness":
			{
				"baseColorTexture":
				{
					"index": 4
				},
				"metallicRoughnessTexture":
				{
					"index": 5
				}
			},
			"normalTexture":
			{
				"index": 6
			},
			"occlusionTexture":
			{
				"index": 7
			}
		}
	],
	"meshes": [
		{
			"name": "SM_round_tower_stairs_02",
			"primitives": [
				{
					"attributes":
					{
						"POSITION": 1,
						"NORMAL": 2,
						"TANGENT": 3,
						"TEXCOORD_0": 4,
						"TEXCOORD_1": 5
					},
					"indices": 0,
					"material": 0
				},
				{
					"attributes":
					{
						"POSITION": 7,
						"NORMAL": 8,
						"TANGENT": 9,
						"TEXCOORD_0": 10,
						"TEXCOORD_1": 11
					},
					"indices": 6,
					"material": 1
				}
			]
		}
	],
	"nodes": [
		{
			"mesh": 0
		}
	],
	"samplers": [
		{
			"minFilter": 9987,
			"magFilter": 9729
		}
	],
	"scenes": [
		{
			"nodes": [ 0 ]
		}
	],
	"textures": [
		{
			"name": "MI_Styl_Wall_Concrete_SM_round_tower_stairs_02_BaseColor",
			"sampler": 0,
			"source": 0
		},
		{
			"name": "MI_Styl_Wall_Concrete_SM_round_tower_stairs_02_MetallicRoughness",
			"sampler": 0,
			"source": 1
		},
		{
			"name": "MI_Styl_Wall_Concrete_SM_round_tower_stairs_02_Normal",
			"sampler": 0,
			"source": 2
		},
		{
			"name": "MI_Styl_Wall_Concrete_SM_round_tower_stairs_02_Occlusion",
			"sampler": 0,
			"source": 3
		},
		{
			"name": "MI_Brick_02_BaseColor",
			"sampler": 0,
			"source": 4
		},
		{
			"name": "MI_Brick_02_MetallicRoughness",
			"sampler": 0,
			"source": 5
		},
		{
			"name": "MI_Brick_02_Normal",
			"sampler": 0,
			"source": 6
		},
		{
			"name": "MI_Brick_02_Occlusion",
			"sampler": 0,
			"source": 7
		}
	],
	"extensionsUsed": [
		"KHR_texture_transform"
	]
}