{
	"asset":
	{
		"version": "2.0",
		"generator": "Unreal Engine 5.6.1"
	},
	"scene": 0,
	"accessors": [
		{
			"bufferView": 0,
			"count": 930,
			"type": "SCALAR",
			"componentType": 5123
		},
		{
			"bufferView": 1,
			"count": 286,
			"type": "VEC3",
			"componentType": 5126,
			"min": [ -1.05978489, -0.0162542369, -0.112866931 ],
			"max": [ 0.0322600193, 0.0162542369, 0.112866931 ]
		},
		{
			"bufferView": 2,
			"count": 286,
			"type": "VEC3",
			"componentType": 5126
		},
		{
			"bufferView": 3,
			"count": 286,
			"type": "VEC4",
			"componentType": 5126
		},
		{
			"bufferView": 4,
			"count": 286,
			"type": "VEC2",
			"componentType": 5126
		},
		{
			"bufferView": 5,
			"count": 286,
			"type": "VEC2",
			"componentType": 5126
		}
	],
	"buffers": [
		{
			"uri": "SM_sword_01_FB4AF1EE.bin",
			"byteLength": 17876
		}
	],
	"bufferViews": [
		{
			"buffer": 0,
			"byteLength": 1860,
			"target": 34963
		},
		{
			"buffer": 0,
			"byteLength": 3432,
			"byteOffset": 1860,
			"target": 34962
		},
		{
			"buffer": 0,
			"byteLength": 3432,
			"byteOffset": 5292,
			"target": 34962
		},
		{
			"buffer": 0,
			"byteLength": 4576,
			"byteOffset": 8724,
			"target": 34962
		},
		{
			"buffer": 0,
			"byteLength": 2288,
			"byteOffset": 13300,
			"target": 34962
		},
		{
			"buffer": 0,
			"byteLength": 2288,
			"byteOffset": 15588,
			"target": 34962
		}
	],
	"images": [
		{
			"uri": "MI_Weapon_MetallicRoughness.png"
		},
		{
			"uri": "T_vase_veapon_C.png"
		},
		{
			"uri": "T_vase_veapon_N.png"
		},
		{
			"uri": "T_vase_veapon_M.png"
		}
	],
	"materials": [
		{
			"name": "MI_Weapon",
			"pbrMetallicRoughness":
			{
				"baseColorTexture":
				{
					"index": 0
				},
				"metallicRoughnessTexture":
				{
					"index": 1
				}
			},
			"normalTexture":
			{
				"index": 2
			},
			"occlusionTexture":
			{
				"index": 3
			}
		}
	],
	"meshes": [
		{
			"name": "SM_sword_01",
			"primitives": [
				{
					"attributes":
					{
						"POSITION": 1,
						"NORMAL": 2,
						"TANGENT": 3,
						"TEXCOORD_0": 4,
						"TEXCOORD_1": 5
					},
					"indices": 0,
					"material": 0
				}
			]
		}
	],
	"nodes": [
		{
			"mesh": 0
		}
	],
	"samplers": [
		{
			"minFilter": 9987,
			"magFilter": 9729
		}
	],
	"scenes": [
		{
			"nodes": [ 0 ]
		}
	],
	"textures": [
		{
			"name": "T_vase_veapon_C",
			"sampler": 0,
			"source": 1
		},
		{
			"name": "MI_Weapon_MetallicRoughness",
			"sampler": 0,
			"source": 0
		},
		{
			"name": "T_vase_veapon_N",
			"sampler": 0,
			"source": 2
		},
		{
			"name": "T_vase_veapon_M",
			"sampler": 0,
			"source": 3
		}
	]
}