{
	"asset":
	{
		"version": "2.0",
		"generator": "Unreal Engine 5.6.1"
	},
	"scene": 0,
	"accessors": [
		{
			"bufferView": 0,
			"count": 14895,
			"type": "SCALAR",
			"componentType": 5123
		},
		{
			"bufferView": 1,
			"count": 6387,
			"type": "VEC3",
			"componentType": 5126,
			"min": [ -0.386887729, -0.0372280627, -0.617511988 ],
			"max": [ 0.345555365, 1.34626329, 0.626887023 ]
		},
		{
			"bufferView": 2,
			"count": 6387,
			"type": "VEC3",
			"componentType": 5126
		},
		{
			"bufferView": 3,
			"count": 6387,
			"type": "VEC4",
			"componentType": 5126
		},
		{
			"bufferView": 4,
			"count": 6387,
			"type": "VEC2",
			"componentType": 5126
		},
		{
			"bufferView": 5,
			"count": 6387,
			"type": "VEC2",
			"componentType": 5126
		}
	],
	"buffers": [
		{
			"uri": "SM_skeleton_03.bin",
			"byteLength": 387464
		}
	],
	"bufferViews": [
		{
			"buffer": 0,
			"byteLength": 29790,
			"target": 34963
		},
		{
			"buffer": 0,
			"byteLength": 76644,
			"byteOffset": 29792,
			"target": 34962
		},
		{
			"buffer": 0,
			"byteLength": 76644,
			"byteOffset": 106436,
			"target": 34962
		},
		{
			"buffer": 0,
			"byteLength": 102192,
			"byteOffset": 183080,
			"target": 34962
		},
		{
			"buffer": 0,
			"byteLength": 51096,
			"byteOffset": 285272,
			"target": 34962
		},
		{
			"buffer": 0,
			"byteLength": 51096,
			"byteOffset": 336368,
			"target": 34962
		}
	],
	"images": [
		{
			"uri": "T_Skeleton_C.png"
		},
		{
			"uri": "T_Skeleton_M.png"
		},
		{
			"uri": "T_Skeleton_N.png"
		}
	],
	"materials": [
		{
			"name": "MI_Skeleton",
			"pbrMetallicRoughness":
			{
				"baseColorTexture":
				{
					"index": 0
				},
				"metallicRoughnessTexture":
				{
					"index": 1
				}
			},
			"normalTexture":
			{
				"index": 2
			},
			"occlusionTexture":
			{
				"index": 1
			}
		}
	],
	"meshes": [
		{
			"name": "SM_skeleton_03",
			"primitives": [
				{
					"attributes":
					{
						"POSITION": 1,
						"NORMAL": 2,
						"TANGENT": 3,
						"TEXCOORD_0": 4,
						"TEXCOORD_1": 5
					},
					"indices": 0,
					"material": 0
				}
			]
		}
	],
	"nodes": [
		{
			"mesh": 0
		}
	],
	"samplers": [
		{
			"minFilter": 9987,
			"magFilter": 9729
		}
	],
	"scenes": [
		{
			"nodes": [ 0 ]
		}
	],
	"textures": [
		{
			"name": "T_Skeleton_C",
			"sampler": 0,
			"source": 0
		},
		{
			"name": "T_Skeleton_M",
			"sampler": 0,
			"source": 1
		},
		{
			"name": "T_Skeleton_N",
			"sampler": 0,
			"source": 2
		}
	]
}