{
	"asset":
	{
		"version": "2.0",
		"generator": "Unreal Engine 5.6.1"
	},
	"scene": 0,
	"accessors": [
		{
			"bufferView": 0,
			"count": 756,
			"type": "SCALAR",
			"componentType": 5123
		},
		{
			"bufferView": 1,
			"count": 344,
			"type": "VEC3",
			"componentType": 5126,
			"min": [ -2.67115569, -0.0215412397, -0.0880192146 ],
			"max": [ -3.59941659e-08, 0.0215412397, 0.0880192146 ]
		},
		{
			"bufferView": 2,
			"count": 344,
			"type": "VEC3",
			"componentType": 5126
		},
		{
			"bufferView": 3,
			"count": 344,
			"type": "VEC4",
			"componentType": 5126
		},
		{
			"bufferView": 4,
			"count": 344,
			"type": "VEC2",
			"componentType": 5126
		},
		{
			"bufferView": 5,
			"count": 344,
			"type": "VEC2",
			"componentType": 5126
		}
	],
	"buffers": [
		{
			"uri": "SM_spier_01_6C3E406C.bin",
			"byteLength": 20776
		}
	],
	"bufferViews": [
		{
			"buffer": 0,
			"byteLength": 1512,
			"target": 34963
		},
		{
			"buffer": 0,
			"byteLength": 4128,
			"byteOffset": 1512,
			"target": 34962
		},
		{
			"buffer": 0,
			"byteLength": 4128,
			"byteOffset": 5640,
			"target": 34962
		},
		{
			"buffer": 0,
			"byteLength": 5504,
			"byteOffset": 9768,
			"target": 34962
		},
		{
			"buffer": 0,
			"byteLength": 2752,
			"byteOffset": 15272,
			"target": 34962
		},
		{
			"buffer": 0,
			"byteLength": 2752,
			"byteOffset": 18024,
			"target": 34962
		}
	],
	"images": [
		{
			"uri": "MI_Weapon_MetallicRoughness.png"
		},
		{
			"uri": "T_vase_veapon_C.png"
		},
		{
			"uri": "T_vase_veapon_N.png"
		},
		{
			"uri": "T_vase_veapon_M.png"
		}
	],
	"materials": [
		{
			"name": "MI_Weapon",
			"pbrMetallicRoughness":
			{
				"baseColorTexture":
				{
					"index": 0
				},
				"metallicRoughnessTexture":
				{
					"index": 1
				}
			},
			"normalTexture":
			{
				"index": 2
			},
			"occlusionTexture":
			{
				"index": 3
			}
		}
	],
	"meshes": [
		{
			"name": "SM_spier_01",
			"primitives": [
				{
					"attributes":
					{
						"POSITION": 1,
						"NORMAL": 2,
						"TANGENT": 3,
						"TEXCOORD_0": 4,
						"TEXCOORD_1": 5
					},
					"indices": 0,
					"material": 0
				}
			]
		}
	],
	"nodes": [
		{
			"mesh": 0
		}
	],
	"samplers": [
		{
			"minFilter": 9987,
			"magFilter": 9729
		}
	],
	"scenes": [
		{
			"nodes": [ 0 ]
		}
	],
	"textures": [
		{
			"name": "T_vase_veapon_C",
			"sampler": 0,
			"source": 1
		},
		{
			"name": "MI_Weapon_MetallicRoughness",
			"sampler": 0,
			"source": 0
		},
		{
			"name": "T_vase_veapon_N",
			"sampler": 0,
			"source": 2
		},
		{
			"name": "T_vase_veapon_M",
			"sampler": 0,
			"source": 3
		}
	]
}