{
	"asset":
	{
		"version": "2.0",
		"generator": "Unreal Engine 5.6.1"
	},
	"scene": 0,
	"accessors": [
		{
			"bufferView": 0,
			"count": 16194,
			"type": "SCALAR",
			"componentType": 5123
		},
		{
			"bufferView": 1,
			"count": 6867,
			"type": "VEC3",
			"componentType": 5126,
			"min": [ -0.444468021, -0.00363730849, -0.370106965 ],
			"max": [ 0.425958484, 1.74526596, 0.31779772 ]
		},
		{
			"bufferView": 2,
			"count": 6867,
			"type": "VEC3",
			"componentType": 5126
		},
		{
			"bufferView": 3,
			"count": 6867,
			"type": "VEC4",
			"componentType": 5126
		},
		{
			"bufferView": 4,
			"count": 6867,
			"type": "VEC2",
			"componentType": 5126
		},
		{
			"bufferView": 5,
			"count": 6867,
			"type": "VEC2",
			"componentType": 5126
		}
	],
	"buffers": [
		{
			"uri": "SM_skeleton_02_5E002203.bin",
			"byteLength": 416940
		}
	],
	"bufferViews": [
		{
			"buffer": 0,
			"byteLength": 32388,
			"target": 34963
		},
		{
			"buffer": 0,
			"byteLength": 82404,
			"byteOffset": 32388,
			"target": 34962
		},
		{
			"buffer": 0,
			"byteLength": 82404,
			"byteOffset": 114792,
			"target": 34962
		},
		{
			"buffer": 0,
			"byteLength": 109872,
			"byteOffset": 197196,
			"target": 34962
		},
		{
			"buffer": 0,
			"byteLength": 54936,
			"byteOffset": 307068,
			"target": 34962
		},
		{
			"buffer": 0,
			"byteLength": 54936,
			"byteOffset": 362004,
			"target": 34962
		}
	],
	"images": [
		{
			"uri": "T_Skeleton_C.png"
		},
		{
			"uri": "T_Skeleton_M.png"
		},
		{
			"uri": "T_Skeleton_N.png"
		}
	],
	"materials": [
		{
			"name": "MI_Skeleton",
			"pbrMetallicRoughness":
			{
				"baseColorTexture":
				{
					"index": 0
				},
				"metallicRoughnessTexture":
				{
					"index": 1
				}
			},
			"normalTexture":
			{
				"index": 2
			},
			"occlusionTexture":
			{
				"index": 1
			}
		}
	],
	"meshes": [
		{
			"name": "SM_skeleton_02",
			"primitives": [
				{
					"attributes":
					{
						"POSITION": 1,
						"NORMAL": 2,
						"TANGENT": 3,
						"TEXCOORD_0": 4,
						"TEXCOORD_1": 5
					},
					"indices": 0,
					"material": 0
				}
			]
		}
	],
	"nodes": [
		{
			"mesh": 0
		}
	],
	"samplers": [
		{
			"minFilter": 9987,
			"magFilter": 9729
		}
	],
	"scenes": [
		{
			"nodes": [ 0 ]
		}
	],
	"textures": [
		{
			"name": "T_Skeleton_C",
			"sampler": 0,
			"source": 0
		},
		{
			"name": "T_Skeleton_M",
			"sampler": 0,
			"source": 1
		},
		{
			"name": "T_Skeleton_N",
			"sampler": 0,
			"source": 2
		}
	]
}