{
	"asset":
	{
		"version": "2.0",
		"generator": "Unreal Engine 5.6.1"
	},
	"scene": 0,
	"accessors": [
		{
			"bufferView": 0,
			"count": 15,
			"type": "SCALAR",
			"componentType": 5121
		},
		{
			"bufferView": 1,
			"count": 7,
			"type": "VEC3",
			"componentType": 5126,
			"min": [ -0.691980243, -0.801650465, -3.06917359e-16 ],
			"max": [ 0.691980243, 0.801650465, 3.06917359e-16 ]
		},
		{
			"bufferView": 2,
			"count": 7,
			"type": "VEC3",
			"componentType": 5126
		},
		{
			"bufferView": 3,
			"count": 7,
			"type": "VEC4",
			"componentType": 5126
		},
		{
			"bufferView": 4,
			"count": 7,
			"type": "VEC2",
			"componentType": 5126
		},
		{
			"bufferView": 5,
			"count": 7,
			"type": "VEC2",
			"componentType": 5126
		}
	],
	"buffers": [
		{
			"uri": "SM_spider_web_01_80BDD147.bin",
			"byteLength": 408
		}
	],
	"bufferViews": [
		{
			"buffer": 0,
			"byteLength": 15,
			"target": 34963
		},
		{
			"buffer": 0,
			"byteLength": 84,
			"byteOffset": 16,
			"target": 34962
		},
		{
			"buffer": 0,
			"byteLength": 84,
			"byteOffset": 100,
			"target": 34962
		},
		{
			"buffer": 0,
			"byteLength": 112,
			"byteOffset": 184,
			"target": 34962
		},
		{
			"buffer": 0,
			"byteLength": 56,
			"byteOffset": 296,
			"target": 34962
		},
		{
			"buffer": 0,
			"byteLength": 56,
			"byteOffset": 352,
			"target": 34962
		}
	],
	"images": [
		{
			"uri": "MI_web_01_BaseColor.png"
		}
	],
	"materials": [
		{
			"name": "MI_web_01",
			"pbrMetallicRoughness":
			{
				"baseColorTexture":
				{
					"index": 0
				},
				"metallicFactor": 0,
				"roughnessFactor": 0.5
			},
			"alphaMode": "MASK",
			"alphaCutoff": 0.333299994,
			"doubleSided": true
		}
	],
	"meshes": [
		{
			"name": "SM_spider_web_01",
			"primitives": [
				{
					"attributes":
					{
						"POSITION": 1,
						"NORMAL": 2,
						"TANGENT": 3,
						"TEXCOORD_0": 4,
						"TEXCOORD_1": 5
					},
					"indices": 0,
					"material": 0
				}
			]
		}
	],
	"nodes": [
		{
			"mesh": 0
		}
	],
	"samplers": [
		{
			"minFilter": 9987,
			"magFilter": 9729
		}
	],
	"scenes": [
		{
			"nodes": [ 0 ]
		}
	],
	"textures": [
		{
			"name": "MI_web_01_BaseColor",
			"sampler": 0,
			"source": 0
		}
	]
}