{
	"asset":
	{
		"version": "2.0",
		"generator": "Unreal Engine 5.6.1"
	},
	"scene": 0,
	"accessors": [
		{
			"bufferView": 0,
			"count": 1788,
			"type": "SCALAR",
			"componentType": 5123
		},
		{
			"bufferView": 1,
			"count": 716,
			"type": "VEC3",
			"componentType": 5126,
			"min": [ -0.0248361677, -1.78813924e-08, -0.254745632 ],
			"max": [ 0.0405230336, 0.865274131, 0.254853904 ]
		},
		{
			"bufferView": 2,
			"count": 716,
			"type": "VEC3",
			"componentType": 5126
		},
		{
			"bufferView": 3,
			"count": 716,
			"type": "VEC4",
			"componentType": 5126
		},
		{
			"bufferView": 4,
			"count": 716,
			"type": "VEC2",
			"componentType": 5126
		},
		{
			"bufferView": 5,
			"count": 716,
			"type": "VEC2",
			"componentType": 5126
		}
	],
	"buffers": [
		{
			"uri": "SM_shield_01.bin",
			"byteLength": 43672
		}
	],
	"bufferViews": [
		{
			"buffer": 0,
			"byteLength": 3576,
			"target": 34963
		},
		{
			"buffer": 0,
			"byteLength": 8592,
			"byteOffset": 3576,
			"target": 34962
		},
		{
			"buffer": 0,
			"byteLength": 8592,
			"byteOffset": 12168,
			"target": 34962
		},
		{
			"buffer": 0,
			"byteLength": 11456,
			"byteOffset": 20760,
			"target": 34962
		},
		{
			"buffer": 0,
			"byteLength": 5728,
			"byteOffset": 32216,
			"target": 34962
		},
		{
			"buffer": 0,
			"byteLength": 5728,
			"byteOffset": 37944,
			"target": 34962
		}
	],
	"images": [
		{
			"uri": "MI_Weapon_MetallicRoughness.png"
		},
		{
			"uri": "T_vase_veapon_C.png"
		},
		{
			"uri": "T_vase_veapon_N.png"
		},
		{
			"uri": "T_vase_veapon_M.png"
		}
	],
	"materials": [
		{
			"name": "MI_Weapon",
			"pbrMetallicRoughness":
			{
				"baseColorTexture":
				{
					"index": 0
				},
				"metallicRoughnessTexture":
				{
					"index": 1
				}
			},
			"normalTexture":
			{
				"index": 2
			},
			"occlusionTexture":
			{
				"index": 3
			}
		}
	],
	"meshes": [
		{
			"name": "SM_shield_01",
			"primitives": [
				{
					"attributes":
					{
						"POSITION": 1,
						"NORMAL": 2,
						"TANGENT": 3,
						"TEXCOORD_0": 4,
						"TEXCOORD_1": 5
					},
					"indices": 0,
					"material": 0
				}
			]
		}
	],
	"nodes": [
		{
			"mesh": 0
		}
	],
	"samplers": [
		{
			"minFilter": 9987,
			"magFilter": 9729
		}
	],
	"scenes": [
		{
			"nodes": [ 0 ]
		}
	],
	"textures": [
		{
			"name": "T_vase_veapon_C",
			"sampler": 0,
			"source": 1
		},
		{
			"name": "MI_Weapon_MetallicRoughness",
			"sampler": 0,
			"source": 0
		},
		{
			"name": "T_vase_veapon_N",
			"sampler": 0,
			"source": 2
		},
		{
			"name": "T_vase_veapon_M",
			"sampler": 0,
			"source": 3
		}
	]
}