{
	"asset":
	{
		"version": "2.0",
		"generator": "Unreal Engine 5.6.1"
	},
	"scene": 0,
	"accessors": [
		{
			"bufferView": 0,
			"count": 16962,
			"type": "SCALAR",
			"componentType": 5123
		},
		{
			"bufferView": 1,
			"count": 7132,
			"type": "VEC3",
			"componentType": 5126,
			"min": [ -0.420270681, -0.082106404, -0.128149301 ],
			"max": [ 0.469906688, 0.902300537, 1.04685855 ]
		},
		{
			"bufferView": 2,
			"count": 7132,
			"type": "VEC3",
			"componentType": 5126
		},
		{
			"bufferView": 3,
			"count": 7132,
			"type": "VEC4",
			"componentType": 5126
		},
		{
			"bufferView": 4,
			"count": 7132,
			"type": "VEC2",
			"componentType": 5126
		},
		{
			"bufferView": 5,
			"count": 7132,
			"type": "VEC2",
			"componentType": 5126
		}
	],
	"buffers": [
		{
			"uri": "SM_skeleton_08_85CC34E4.bin",
			"byteLength": 433316
		}
	],
	"bufferViews": [
		{
			"buffer": 0,
			"byteLength": 33924,
			"target": 34963
		},
		{
			"buffer": 0,
			"byteLength": 85584,
			"byteOffset": 33924,
			"target": 34962
		},
		{
			"buffer": 0,
			"byteLength": 85584,
			"byteOffset": 119508,
			"target": 34962
		},
		{
			"buffer": 0,
			"byteLength": 114112,
			"byteOffset": 205092,
			"target": 34962
		},
		{
			"buffer": 0,
			"byteLength": 57056,
			"byteOffset": 319204,
			"target": 34962
		},
		{
			"buffer": 0,
			"byteLength": 57056,
			"byteOffset": 376260,
			"target": 34962
		}
	],
	"images": [
		{
			"uri": "T_Skeleton_C.png"
		},
		{
			"uri": "T_Skeleton_M.png"
		},
		{
			"uri": "T_Skeleton_N.png"
		}
	],
	"materials": [
		{
			"name": "MI_Skeleton",
			"pbrMetallicRoughness":
			{
				"baseColorTexture":
				{
					"index": 0
				},
				"metallicRoughnessTexture":
				{
					"index": 1
				}
			},
			"normalTexture":
			{
				"index": 2
			},
			"occlusionTexture":
			{
				"index": 1
			}
		}
	],
	"meshes": [
		{
			"name": "SM_skeleton_08",
			"primitives": [
				{
					"attributes":
					{
						"POSITION": 1,
						"NORMAL": 2,
						"TANGENT": 3,
						"TEXCOORD_0": 4,
						"TEXCOORD_1": 5
					},
					"indices": 0,
					"material": 0
				}
			]
		}
	],
	"nodes": [
		{
			"mesh": 0
		}
	],
	"samplers": [
		{
			"minFilter": 9987,
			"magFilter": 9729
		}
	],
	"scenes": [
		{
			"nodes": [ 0 ]
		}
	],
	"textures": [
		{
			"name": "T_Skeleton_C",
			"sampler": 0,
			"source": 0
		},
		{
			"name": "T_Skeleton_M",
			"sampler": 0,
			"source": 1
		},
		{
			"name": "T_Skeleton_N",
			"sampler": 0,
			"source": 2
		}
	]
}