{
	"asset":
	{
		"version": "2.0",
		"generator": "Unreal Engine 5.6.1"
	},
	"scene": 0,
	"accessors": [
		{
			"bufferView": 0,
			"count": 9075,
			"type": "SCALAR",
			"componentType": 5123
		},
		{
			"bufferView": 1,
			"count": 1972,
			"type": "VEC3",
			"componentType": 5126,
			"min": [ -0.887695551, -3.63280619e-17, -0.667555749 ],
			"max": [ 0.788016737, 4.51733685, 0.91089344 ]
		},
		{
			"bufferView": 2,
			"count": 1972,
			"type": "VEC3",
			"componentType": 5126
		},
		{
			"bufferView": 3,
			"count": 1972,
			"type": "VEC4",
			"componentType": 5126
		},
		{
			"bufferView": 4,
			"count": 1972,
			"type": "VEC2",
			"componentType": 5126
		},
		{
			"bufferView": 5,
			"count": 1972,
			"type": "VEC2",
			"componentType": 5126
		}
	],
	"buffers": [
		{
			"uri": "SM_statue_03_2817FBB8.bin",
			"byteLength": 128584
		}
	],
	"bufferViews": [
		{
			"buffer": 0,
			"byteLength": 18150,
			"target": 34963
		},
		{
			"buffer": 0,
			"byteLength": 23664,
			"byteOffset": 18152,
			"target": 34962
		},
		{
			"buffer": 0,
			"byteLength": 23664,
			"byteOffset": 41816,
			"target": 34962
		},
		{
			"buffer": 0,
			"byteLength": 31552,
			"byteOffset": 65480,
			"target": 34962
		},
		{
			"buffer": 0,
			"byteLength": 15776,
			"byteOffset": 97032,
			"target": 34962
		},
		{
			"buffer": 0,
			"byteLength": 15776,
			"byteOffset": 112808,
			"target": 34962
		}
	],
	"images": [
		{
			"uri": "MI_Knight_01_BaseColor.png"
		},
		{
			"uri": "T_Knight_01_M.png"
		},
		{
			"uri": "T_Knight_01_N.png"
		}
	],
	"materials": [
		{
			"name": "MI_Knight_01",
			"pbrMetallicRoughness":
			{
				"baseColorTexture":
				{
					"index": 0
				},
				"metallicRoughnessTexture":
				{
					"index": 1
				}
			},
			"normalTexture":
			{
				"index": 2
			},
			"occlusionTexture":
			{
				"index": 1
			}
		}
	],
	"meshes": [
		{
			"name": "SM_statue_03",
			"primitives": [
				{
					"attributes":
					{
						"POSITION": 1,
						"NORMAL": 2,
						"TANGENT": 3,
						"TEXCOORD_0": 4,
						"TEXCOORD_1": 5
					},
					"indices": 0,
					"material": 0
				}
			]
		}
	],
	"nodes": [
		{
			"mesh": 0
		}
	],
	"samplers": [
		{
			"minFilter": 9987,
			"magFilter": 9729
		}
	],
	"scenes": [
		{
			"nodes": [ 0 ]
		}
	],
	"textures": [
		{
			"name": "MI_Knight_01_BaseColor",
			"sampler": 0,
			"source": 0
		},
		{
			"name": "T_Knight_01_M",
			"sampler": 0,
			"source": 1
		},
		{
			"name": "T_Knight_01_N",
			"sampler": 0,
			"source": 2
		}
	]
}