{
	"asset":
	{
		"version": "2.0",
		"generator": "Unreal Engine 5.6.1"
	},
	"scene": 0,
	"accessors": [
		{
			"bufferView": 0,
			"count": 2838,
			"type": "SCALAR",
			"componentType": 5123
		},
		{
			"bufferView": 1,
			"count": 837,
			"type": "VEC3",
			"componentType": 5126,
			"min": [ -0.0779285803, -0.00686147436, -0.128347754 ],
			"max": [ 0.0763887838, 0.187139109, 0.135984495 ]
		},
		{
			"bufferView": 2,
			"count": 837,
			"type": "VEC3",
			"componentType": 5126
		},
		{
			"bufferView": 3,
			"count": 837,
			"type": "VEC4",
			"componentType": 5126
		},
		{
			"bufferView": 4,
			"count": 837,
			"type": "VEC2",
			"componentType": 5126
		},
		{
			"bufferView": 5,
			"count": 837,
			"type": "VEC2",
			"componentType": 5126
		}
	],
	"buffers": [
		{
			"uri": "SM_skull_02.bin",
			"byteLength": 52548
		}
	],
	"bufferViews": [
		{
			"buffer": 0,
			"byteLength": 5676,
			"target": 34963
		},
		{
			"buffer": 0,
			"byteLength": 10044,
			"byteOffset": 5676,
			"target": 34962
		},
		{
			"buffer": 0,
			"byteLength": 10044,
			"byteOffset": 15720,
			"target": 34962
		},
		{
			"buffer": 0,
			"byteLength": 13392,
			"byteOffset": 25764,
			"target": 34962
		},
		{
			"buffer": 0,
			"byteLength": 6696,
			"byteOffset": 39156,
			"target": 34962
		},
		{
			"buffer": 0,
			"byteLength": 6696,
			"byteOffset": 45852,
			"target": 34962
		}
	],
	"images": [
		{
			"uri": "T_Skeleton_C.png"
		},
		{
			"uri": "T_Skeleton_M.png"
		},
		{
			"uri": "T_Skeleton_N.png"
		}
	],
	"materials": [
		{
			"name": "MI_Skeleton",
			"pbrMetallicRoughness":
			{
				"baseColorTexture":
				{
					"index": 0
				},
				"metallicRoughnessTexture":
				{
					"index": 1
				}
			},
			"normalTexture":
			{
				"index": 2
			},
			"occlusionTexture":
			{
				"index": 1
			}
		}
	],
	"meshes": [
		{
			"name": "SM_skull_02",
			"primitives": [
				{
					"attributes":
					{
						"POSITION": 1,
						"NORMAL": 2,
						"TANGENT": 3,
						"TEXCOORD_0": 4,
						"TEXCOORD_1": 5
					},
					"indices": 0,
					"material": 0
				}
			]
		}
	],
	"nodes": [
		{
			"mesh": 0
		}
	],
	"samplers": [
		{
			"minFilter": 9987,
			"magFilter": 9729
		}
	],
	"scenes": [
		{
			"nodes": [ 0 ]
		}
	],
	"textures": [
		{
			"name": "T_Skeleton_C",
			"sampler": 0,
			"source": 0
		},
		{
			"name": "T_Skeleton_M",
			"sampler": 0,
			"source": 1
		},
		{
			"name": "T_Skeleton_N",
			"sampler": 0,
			"source": 2
		}
	]
}