{
	"asset":
	{
		"version": "2.0",
		"generator": "Unreal Engine 5.6.1"
	},
	"scene": 0,
	"accessors": [
		{
			"bufferView": 0,
			"count": 24144,
			"type": "SCALAR",
			"componentType": 5123
		},
		{
			"bufferView": 1,
			"count": 9643,
			"type": "VEC3",
			"componentType": 5126,
			"min": [ -0.248598441, -0.0914997458, -0.897845805 ],
			"max": [ 0.309367687, 0.19468452, 0.913172901 ]
		},
		{
			"bufferView": 2,
			"count": 9643,
			"type": "VEC3",
			"componentType": 5126
		},
		{
			"bufferView": 3,
			"count": 9643,
			"type": "VEC4",
			"componentType": 5126
		},
		{
			"bufferView": 4,
			"count": 9643,
			"type": "VEC2",
			"componentType": 5126
		},
		{
			"bufferView": 5,
			"count": 9643,
			"type": "VEC2",
			"componentType": 5126
		}
	],
	"buffers": [
		{
			"uri": "SM_skeleton_07_7CA03278.bin",
			"byteLength": 588296
		}
	],
	"bufferViews": [
		{
			"buffer": 0,
			"byteLength": 48288,
			"target": 34963
		},
		{
			"buffer": 0,
			"byteLength": 115716,
			"byteOffset": 48288,
			"target": 34962
		},
		{
			"buffer": 0,
			"byteLength": 115716,
			"byteOffset": 164004,
			"target": 34962
		},
		{
			"buffer": 0,
			"byteLength": 154288,
			"byteOffset": 279720,
			"target": 34962
		},
		{
			"buffer": 0,
			"byteLength": 77144,
			"byteOffset": 434008,
			"target": 34962
		},
		{
			"buffer": 0,
			"byteLength": 77144,
			"byteOffset": 511152,
			"target": 34962
		}
	],
	"images": [
		{
			"uri": "T_Skeleton_C.png"
		},
		{
			"uri": "T_Skeleton_M.png"
		},
		{
			"uri": "T_Skeleton_N.png"
		}
	],
	"materials": [
		{
			"name": "MI_Skeleton",
			"pbrMetallicRoughness":
			{
				"baseColorTexture":
				{
					"index": 0
				},
				"metallicRoughnessTexture":
				{
					"index": 1
				}
			},
			"normalTexture":
			{
				"index": 2
			},
			"occlusionTexture":
			{
				"index": 1
			}
		}
	],
	"meshes": [
		{
			"name": "SM_skeleton_07",
			"primitives": [
				{
					"attributes":
					{
						"POSITION": 1,
						"NORMAL": 2,
						"TANGENT": 3,
						"TEXCOORD_0": 4,
						"TEXCOORD_1": 5
					},
					"indices": 0,
					"material": 0
				}
			]
		}
	],
	"nodes": [
		{
			"mesh": 0
		}
	],
	"samplers": [
		{
			"minFilter": 9987,
			"magFilter": 9729
		}
	],
	"scenes": [
		{
			"nodes": [ 0 ]
		}
	],
	"textures": [
		{
			"name": "T_Skeleton_C",
			"sampler": 0,
			"source": 0
		},
		{
			"name": "T_Skeleton_M",
			"sampler": 0,
			"source": 1
		},
		{
			"name": "T_Skeleton_N",
			"sampler": 0,
			"source": 2
		}
	]
}