{
	"asset":
	{
		"version": "2.0",
		"generator": "Unreal Engine 5.6.1"
	},
	"scene": 0,
	"accessors": [
		{
			"bufferView": 0,
			"count": 25380,
			"type": "SCALAR",
			"componentType": 5123
		},
		{
			"bufferView": 1,
			"count": 10042,
			"type": "VEC3",
			"componentType": 5126,
			"min": [ -0.446570754, -0.0223115645, -0.545707941 ],
			"max": [ 0.459126204, 0.254047602, 0.558700979 ]
		},
		{
			"bufferView": 2,
			"count": 10042,
			"type": "VEC3",
			"componentType": 5126
		},
		{
			"bufferView": 3,
			"count": 10042,
			"type": "VEC4",
			"componentType": 5126
		},
		{
			"bufferView": 4,
			"count": 10042,
			"type": "VEC2",
			"componentType": 5126
		},
		{
			"bufferView": 5,
			"count": 10042,
			"type": "VEC2",
			"componentType": 5126
		}
	],
	"buffers": [
		{
			"uri": "SM_skeleton_04.bin",
			"byteLength": 613112
		}
	],
	"bufferViews": [
		{
			"buffer": 0,
			"byteLength": 50760,
			"target": 34963
		},
		{
			"buffer": 0,
			"byteLength": 120504,
			"byteOffset": 50760,
			"target": 34962
		},
		{
			"buffer": 0,
			"byteLength": 120504,
			"byteOffset": 171264,
			"target": 34962
		},
		{
			"buffer": 0,
			"byteLength": 160672,
			"byteOffset": 291768,
			"target": 34962
		},
		{
			"buffer": 0,
			"byteLength": 80336,
			"byteOffset": 452440,
			"target": 34962
		},
		{
			"buffer": 0,
			"byteLength": 80336,
			"byteOffset": 532776,
			"target": 34962
		}
	],
	"images": [
		{
			"uri": "T_Skeleton_C.png"
		},
		{
			"uri": "T_Skeleton_M.png"
		},
		{
			"uri": "T_Skeleton_N.png"
		}
	],
	"materials": [
		{
			"name": "MI_Skeleton",
			"pbrMetallicRoughness":
			{
				"baseColorTexture":
				{
					"index": 0
				},
				"metallicRoughnessTexture":
				{
					"index": 1
				}
			},
			"normalTexture":
			{
				"index": 2
			},
			"occlusionTexture":
			{
				"index": 1
			}
		}
	],
	"meshes": [
		{
			"name": "SM_skeleton_04",
			"primitives": [
				{
					"attributes":
					{
						"POSITION": 1,
						"NORMAL": 2,
						"TANGENT": 3,
						"TEXCOORD_0": 4,
						"TEXCOORD_1": 5
					},
					"indices": 0,
					"material": 0
				}
			]
		}
	],
	"nodes": [
		{
			"mesh": 0
		}
	],
	"samplers": [
		{
			"minFilter": 9987,
			"magFilter": 9729
		}
	],
	"scenes": [
		{
			"nodes": [ 0 ]
		}
	],
	"textures": [
		{
			"name": "T_Skeleton_C",
			"sampler": 0,
			"source": 0
		},
		{
			"name": "T_Skeleton_M",
			"sampler": 0,
			"source": 1
		},
		{
			"name": "T_Skeleton_N",
			"sampler": 0,
			"source": 2
		}
	]
}