{
	"asset":
	{
		"version": "2.0",
		"generator": "Unreal Engine 5.6.1"
	},
	"scene": 0,
	"accessors": [
		{
			"bufferView": 0,
			"count": 24,
			"type": "SCALAR",
			"componentType": 5121
		},
		{
			"bufferView": 1,
			"count": 10,
			"type": "VEC3",
			"componentType": 5126,
			"min": [ -0.97424686, -0.903667271, -3.45975213e-16 ],
			"max": [ 0.97424686, 0.903667271, 3.45975213e-16 ]
		},
		{
			"bufferView": 2,
			"count": 10,
			"type": "VEC3",
			"componentType": 5126
		},
		{
			"bufferView": 3,
			"count": 10,
			"type": "VEC4",
			"componentType": 5126
		},
		{
			"bufferView": 4,
			"count": 10,
			"type": "VEC2",
			"componentType": 5126
		},
		{
			"bufferView": 5,
			"count": 10,
			"type": "VEC2",
			"componentType": 5126
		}
	],
	"buffers": [
		{
			"uri": "SM_spider_web_05_95E6F892.bin",
			"byteLength": 584
		}
	],
	"bufferViews": [
		{
			"buffer": 0,
			"byteLength": 24,
			"target": 34963
		},
		{
			"buffer": 0,
			"byteLength": 120,
			"byteOffset": 24,
			"target": 34962
		},
		{
			"buffer": 0,
			"byteLength": 120,
			"byteOffset": 144,
			"target": 34962
		},
		{
			"buffer": 0,
			"byteLength": 160,
			"byteOffset": 264,
			"target": 34962
		},
		{
			"buffer": 0,
			"byteLength": 80,
			"byteOffset": 424,
			"target": 34962
		},
		{
			"buffer": 0,
			"byteLength": 80,
			"byteOffset": 504,
			"target": 34962
		}
	],
	"images": [
		{
			"uri": "MI_web_01_BaseColor.png"
		}
	],
	"materials": [
		{
			"name": "MI_web_01",
			"pbrMetallicRoughness":
			{
				"baseColorTexture":
				{
					"index": 0
				},
				"metallicFactor": 0,
				"roughnessFactor": 0.5
			},
			"alphaMode": "MASK",
			"alphaCutoff": 0.333299994,
			"doubleSided": true
		}
	],
	"meshes": [
		{
			"name": "SM_spider_web_05",
			"primitives": [
				{
					"attributes":
					{
						"POSITION": 1,
						"NORMAL": 2,
						"TANGENT": 3,
						"TEXCOORD_0": 4,
						"TEXCOORD_1": 5
					},
					"indices": 0,
					"material": 0
				}
			]
		}
	],
	"nodes": [
		{
			"mesh": 0
		}
	],
	"samplers": [
		{
			"minFilter": 9987,
			"magFilter": 9729
		}
	],
	"scenes": [
		{
			"nodes": [ 0 ]
		}
	],
	"textures": [
		{
			"name": "MI_web_01_BaseColor",
			"sampler": 0,
			"source": 0
		}
	]
}