{
	"asset":
	{
		"version": "2.0",
		"generator": "Unreal Engine 5.6.1"
	},
	"scene": 0,
	"accessors": [
		{
			"bufferView": 0,
			"count": 19065,
			"type": "SCALAR",
			"componentType": 5123
		},
		{
			"bufferView": 1,
			"count": 7856,
			"type": "VEC3",
			"componentType": 5126,
			"min": [ -0.273861736, -0.0545851551, -1.25130129 ],
			"max": [ 0.282539248, 0.303612649, 1.29337049 ]
		},
		{
			"bufferView": 2,
			"count": 7856,
			"type": "VEC3",
			"componentType": 5126
		},
		{
			"bufferView": 3,
			"count": 7856,
			"type": "VEC4",
			"componentType": 5126
		},
		{
			"bufferView": 4,
			"count": 7856,
			"type": "VEC2",
			"componentType": 5126
		},
		{
			"bufferView": 5,
			"count": 7856,
			"type": "VEC2",
			"componentType": 5126
		}
	],
	"buffers": [
		{
			"uri": "SM_skeleton_05.bin",
			"byteLength": 478068
		}
	],
	"bufferViews": [
		{
			"buffer": 0,
			"byteLength": 38130,
			"target": 34963
		},
		{
			"buffer": 0,
			"byteLength": 94272,
			"byteOffset": 38132,
			"target": 34962
		},
		{
			"buffer": 0,
			"byteLength": 94272,
			"byteOffset": 132404,
			"target": 34962
		},
		{
			"buffer": 0,
			"byteLength": 125696,
			"byteOffset": 226676,
			"target": 34962
		},
		{
			"buffer": 0,
			"byteLength": 62848,
			"byteOffset": 352372,
			"target": 34962
		},
		{
			"buffer": 0,
			"byteLength": 62848,
			"byteOffset": 415220,
			"target": 34962
		}
	],
	"images": [
		{
			"uri": "T_Skeleton_C.png"
		},
		{
			"uri": "T_Skeleton_M.png"
		},
		{
			"uri": "T_Skeleton_N.png"
		}
	],
	"materials": [
		{
			"name": "MI_Skeleton",
			"pbrMetallicRoughness":
			{
				"baseColorTexture":
				{
					"index": 0
				},
				"metallicRoughnessTexture":
				{
					"index": 1
				}
			},
			"normalTexture":
			{
				"index": 2
			},
			"occlusionTexture":
			{
				"index": 1
			}
		}
	],
	"meshes": [
		{
			"name": "SM_skeleton_05",
			"primitives": [
				{
					"attributes":
					{
						"POSITION": 1,
						"NORMAL": 2,
						"TANGENT": 3,
						"TEXCOORD_0": 4,
						"TEXCOORD_1": 5
					},
					"indices": 0,
					"material": 0
				}
			]
		}
	],
	"nodes": [
		{
			"mesh": 0
		}
	],
	"samplers": [
		{
			"minFilter": 9987,
			"magFilter": 9729
		}
	],
	"scenes": [
		{
			"nodes": [ 0 ]
		}
	],
	"textures": [
		{
			"name": "T_Skeleton_C",
			"sampler": 0,
			"source": 0
		},
		{
			"name": "T_Skeleton_M",
			"sampler": 0,
			"source": 1
		},
		{
			"name": "T_Skeleton_N",
			"sampler": 0,
			"source": 2
		}
	]
}