{
	"asset":
	{
		"version": "2.0",
		"generator": "Unreal Engine 5.6.1"
	},
	"scene": 0,
	"accessors": [
		{
			"bufferView": 0,
			"count": 984,
			"type": "SCALAR",
			"componentType": 5121
		},
		{
			"bufferView": 1,
			"count": 185,
			"type": "VEC3",
			"componentType": 5126,
			"min": [ -0.593393028, -0.418058395, -0.378857374 ],
			"max": [ 0.593393028, 0.418058395, 0.378857374 ]
		},
		{
			"bufferView": 2,
			"count": 185,
			"type": "VEC3",
			"componentType": 5126
		},
		{
			"bufferView": 3,
			"count": 185,
			"type": "VEC4",
			"componentType": 5126
		},
		{
			"bufferView": 4,
			"count": 185,
			"type": "VEC2",
			"componentType": 5126
		},
		{
			"bufferView": 5,
			"count": 185,
			"type": "VEC2",
			"componentType": 5126
		}
	],
	"buffers": [
		{
			"uri": "SM_Stone2_B318BF18.bin",
			"byteLength": 11344
		}
	],
	"bufferViews": [
		{
			"buffer": 0,
			"byteLength": 984,
			"target": 34963
		},
		{
			"buffer": 0,
			"byteLength": 2220,
			"byteOffset": 984,
			"target": 34962
		},
		{
			"buffer": 0,
			"byteLength": 2220,
			"byteOffset": 3204,
			"target": 34962
		},
		{
			"buffer": 0,
			"byteLength": 2960,
			"byteOffset": 5424,
			"target": 34962
		},
		{
			"buffer": 0,
			"byteLength": 1480,
			"byteOffset": 8384,
			"target": 34962
		},
		{
			"buffer": 0,
			"byteLength": 1480,
			"byteOffset": 9864,
			"target": 34962
		}
	],
	"images": [
		{
			"uri": "MI_Rock_island_MetallicRoughness.png"
		},
		{
			"uri": "T_Rocks_C.png"
		},
		{
			"uri": "T_Rocks_N.png"
		},
		{
			"uri": "T_Rocks_M.png"
		}
	],
	"materials": [
		{
			"name": "MI_Rock_island",
			"pbrMetallicRoughness":
			{
				"baseColorTexture":
				{
					"index": 0
				},
				"metallicRoughnessTexture":
				{
					"index": 1
				}
			},
			"normalTexture":
			{
				"index": 2
			},
			"occlusionTexture":
			{
				"index": 3
			}
		}
	],
	"meshes": [
		{
			"name": "SM_Stone2",
			"primitives": [
				{
					"attributes":
					{
						"POSITION": 1,
						"NORMAL": 2,
						"TANGENT": 3,
						"TEXCOORD_0": 4,
						"TEXCOORD_1": 5
					},
					"indices": 0,
					"material": 0
				}
			]
		}
	],
	"nodes": [
		{
			"mesh": 0
		}
	],
	"samplers": [
		{
			"minFilter": 9987,
			"magFilter": 9729
		}
	],
	"scenes": [
		{
			"nodes": [ 0 ]
		}
	],
	"textures": [
		{
			"name": "T_Rocks_C",
			"sampler": 0,
			"source": 1
		},
		{
			"name": "MI_Rock_island_MetallicRoughness",
			"sampler": 0,
			"source": 0
		},
		{
			"name": "T_Rocks_N",
			"sampler": 0,
			"source": 2
		},
		{
			"name": "T_Rocks_M",
			"sampler": 0,
			"source": 3
		}
	]
}