{
	"asset":
	{
		"version": "2.0",
		"generator": "Unreal Engine 5.6.1"
	},
	"scene": 0,
	"accessors": [
		{
			"bufferView": 0,
			"count": 2286,
			"type": "SCALAR",
			"componentType": 5123
		},
		{
			"bufferView": 1,
			"count": 842,
			"type": "VEC3",
			"componentType": 5126,
			"min": [ -6.25984812, -3.35977233e-16, -6.24566841 ],
			"max": [ 6.25703907, 5.49410868, 6.2460165 ]
		},
		{
			"bufferView": 2,
			"count": 842,
			"type": "VEC3",
			"componentType": 5126
		},
		{
			"bufferView": 3,
			"count": 842,
			"type": "VEC4",
			"componentType": 5126
		},
		{
			"bufferView": 4,
			"count": 842,
			"type": "VEC2",
			"componentType": 5126
		},
		{
			"bufferView": 5,
			"count": 842,
			"type": "VEC2",
			"componentType": 5126
		},
		{
			"bufferView": 6,
			"count": 852,
			"type": "SCALAR",
			"componentType": 5123
		},
		{
			"bufferView": 7,
			"count": 392,
			"type": "VEC3",
			"componentType": 5126,
			"min": [ -3.32753658, -0.12153998, -5.58205748 ],
			"max": [ 3.06776261, 4.16929913, 0.812213719 ]
		},
		{
			"bufferView": 8,
			"count": 392,
			"type": "VEC3",
			"componentType": 5126
		},
		{
			"bufferView": 9,
			"count": 392,
			"type": "VEC4",
			"componentType": 5126
		},
		{
			"bufferView": 10,
			"count": 392,
			"type": "VEC2",
			"componentType": 5126
		},
		{
			"bufferView": 11,
			"count": 392,
			"type": "VEC2",
			"componentType": 5126
		}
	],
	"buffers": [
		{
			"uri": "SM_tower_big_body_03.bin",
			"byteLength": 75380
		}
	],
	"bufferViews": [
		{
			"buffer": 0,
			"byteLength": 4572,
			"target": 34963
		},
		{
			"buffer": 0,
			"byteLength": 10104,
			"byteOffset": 4572,
			"target": 34962
		},
		{
			"buffer": 0,
			"byteLength": 10104,
			"byteOffset": 14676,
			"target": 34962
		},
		{
			"buffer": 0,
			"byteLength": 13472,
			"byteOffset": 24780,
			"target": 34962
		},
		{
			"buffer": 0,
			"byteLength": 6736,
			"byteOffset": 38252,
			"target": 34962
		},
		{
			"buffer": 0,
			"byteLength": 6736,
			"byteOffset": 44988,
			"target": 34962
		},
		{
			"buffer": 0,
			"byteLength": 1704,
			"byteOffset": 51724,
			"target": 34963
		},
		{
			"buffer": 0,
			"byteLength": 4704,
			"byteOffset": 53428,
			"target": 34962
		},
		{
			"buffer": 0,
			"byteLength": 4704,
			"byteOffset": 58132,
			"target": 34962
		},
		{
			"buffer": 0,
			"byteLength": 6272,
			"byteOffset": 62836,
			"target": 34962
		},
		{
			"buffer": 0,
			"byteLength": 3136,
			"byteOffset": 69108,
			"target": 34962
		},
		{
			"buffer": 0,
			"byteLength": 3136,
			"byteOffset": 72244,
			"target": 34962
		}
	],
	"images": [
		{
			"uri": "MI_Styl_Wall_Brick_02_SM_tower_big_body_03_BaseColor.png"
		},
		{
			"uri": "MI_Styl_Wall_Brick_02_SM_tower_big_body_03_MetallicRoughness.png"
		},
		{
			"uri": "MI_Styl_Wall_Brick_02_SM_tower_big_body_03_Normal.png"
		},
		{
			"uri": "MI_Styl_Wall_Brick_02_SM_tower_big_body_03_Occlusion.png"
		},
		{
			"uri": "MI_Brick_02_BaseColor.png"
		},
		{
			"uri": "MI_Brick_02_MetallicRoughness.png"
		},
		{
			"uri": "MI_Brick_02_Normal.png"
		},
		{
			"uri": "MI_Brick_02_Occlusion.png"
		}
	],
	"materials": [
		{
			"name": "MI_Styl_Wall_Brick_02_SM_tower_big_body_03",
			"pbrMetallicRoughness":
			{
				"baseColorTexture":
				{
					"index": 0,
					"texCoord": 1,
					"extensions":
					{
						"KHR_texture_transform":
						{
							"offset": [ -0.00808176678, -0.00831399765 ],
							"scale": [ 1.01953161, 1.03096712 ]
						}
					}
				},
				"metallicRoughnessTexture":
				{
					"index": 1,
					"texCoord": 1,
					"extensions":
					{
						"KHR_texture_transform":
						{
							"offset": [ -0.00808176678, -0.00831399765 ],
							"scale": [ 1.01953161, 1.03096712 ]
						}
					}
				}
			},
			"normalTexture":
			{
				"index": 2,
				"texCoord": 1,
				"extensions":
				{
					"KHR_texture_transform":
					{
						"offset": [ -0.00808176678, -0.00831399765 ],
						"scale": [ 1.01953161, 1.03096712 ]
					}
				}
			},
			"occlusionTexture":
			{
				"index": 3,
				"texCoord": 1,
				"extensions":
				{
					"KHR_texture_transform":
					{
						"offset": [ -0.00808176678, -0.00831399765 ],
						"scale": [ 1.01953161, 1.03096712 ]
					}
				}
			}
		},
		{
			"name": "MI_Brick_02",
			"pbrMetallicRoughness":
			{
				"baseColorTexture":
				{
					"index": 4
				},
				"metallicRoughnessTexture":
				{
					"index": 5
				}
			},
			"normalTexture":
			{
				"index": 6
			},
			"occlusionTexture":
			{
				"index": 7
			}
		}
	],
	"meshes": [
		{
			"name": "SM_tower_big_body_03",
			"primitives": [
				{
					"attributes":
					{
						"POSITION": 1,
						"NORMAL": 2,
						"TANGENT": 3,
						"TEXCOORD_0": 4,
						"TEXCOORD_1": 5
					},
					"indices": 0,
					"material": 0
				},
				{
					"attributes":
					{
						"POSITION": 7,
						"NORMAL": 8,
						"TANGENT": 9,
						"TEXCOORD_0": 10,
						"TEXCOORD_1": 11
					},
					"indices": 6,
					"material": 1
				}
			]
		}
	],
	"nodes": [
		{
			"mesh": 0
		}
	],
	"samplers": [
		{
			"minFilter": 9987,
			"magFilter": 9729
		}
	],
	"scenes": [
		{
			"nodes": [ 0 ]
		}
	],
	"textures": [
		{
			"name": "MI_Styl_Wall_Brick_02_SM_tower_big_body_03_BaseColor",
			"sampler": 0,
			"source": 0
		},
		{
			"name": "MI_Styl_Wall_Brick_02_SM_tower_big_body_03_MetallicRoughness",
			"sampler": 0,
			"source": 1
		},
		{
			"name": "MI_Styl_Wall_Brick_02_SM_tower_big_body_03_Normal",
			"sampler": 0,
			"source": 2
		},
		{
			"name": "MI_Styl_Wall_Brick_02_SM_tower_big_body_03_Occlusion",
			"sampler": 0,
			"source": 3
		},
		{
			"name": "MI_Brick_02_BaseColor",
			"sampler": 0,
			"source": 4
		},
		{
			"name": "MI_Brick_02_MetallicRoughness",
			"sampler": 0,
			"source": 5
		},
		{
			"name": "MI_Brick_02_Normal",
			"sampler": 0,
			"source": 6
		},
		{
			"name": "MI_Brick_02_Occlusion",
			"sampler": 0,
			"source": 7
		}
	],
	"extensionsUsed": [
		"KHR_texture_transform"
	]
}