{
	"asset":
	{
		"version": "2.0",
		"generator": "Unreal Engine 5.6.1"
	},
	"scene": 0,
	"accessors": [
		{
			"bufferView": 0,
			"count": 11820,
			"type": "SCALAR",
			"componentType": 5123
		},
		{
			"bufferView": 1,
			"count": 4762,
			"type": "VEC3",
			"componentType": 5126,
			"min": [ -0.475061297, 0.0270319693, -0.475061297 ],
			"max": [ 0.487656504, 2.16900802, 0.469618291 ]
		},
		{
			"bufferView": 2,
			"count": 4762,
			"type": "VEC3",
			"componentType": 5126
		},
		{
			"bufferView": 3,
			"count": 4762,
			"type": "VEC4",
			"componentType": 5126
		},
		{
			"bufferView": 4,
			"count": 4762,
			"type": "VEC2",
			"componentType": 5126
		},
		{
			"bufferView": 5,
			"count": 4762,
			"type": "VEC2",
			"componentType": 5126
		},
		{
			"bufferView": 6,
			"count": 9288,
			"type": "SCALAR",
			"componentType": 5123
		},
		{
			"bufferView": 7,
			"count": 2869,
			"type": "VEC3",
			"componentType": 5126,
			"min": [ -0.463766277, -4.2783654e-08, -0.463766247 ],
			"max": [ 0.463766247, 2.31402755, 0.463005394 ]
		},
		{
			"bufferView": 8,
			"count": 2869,
			"type": "VEC3",
			"componentType": 5126
		},
		{
			"bufferView": 9,
			"count": 2869,
			"type": "VEC4",
			"componentType": 5126
		},
		{
			"bufferView": 10,
			"count": 2869,
			"type": "VEC2",
			"componentType": 5126
		},
		{
			"bufferView": 11,
			"count": 2869,
			"type": "VEC2",
			"componentType": 5126
		}
	],
	"buffers": [
		{
			"uri": "SM_torture_device_05.bin",
			"byteLength": 469552
		}
	],
	"bufferViews": [
		{
			"buffer": 0,
			"byteLength": 23640,
			"target": 34963
		},
		{
			"buffer": 0,
			"byteLength": 57144,
			"byteOffset": 23640,
			"target": 34962
		},
		{
			"buffer": 0,
			"byteLength": 57144,
			"byteOffset": 80784,
			"target": 34962
		},
		{
			"buffer": 0,
			"byteLength": 76192,
			"byteOffset": 137928,
			"target": 34962
		},
		{
			"buffer": 0,
			"byteLength": 38096,
			"byteOffset": 214120,
			"target": 34962
		},
		{
			"buffer": 0,
			"byteLength": 38096,
			"byteOffset": 252216,
			"target": 34962
		},
		{
			"buffer": 0,
			"byteLength": 18576,
			"byteOffset": 290312,
			"target": 34963
		},
		{
			"buffer": 0,
			"byteLength": 34428,
			"byteOffset": 308888,
			"target": 34962
		},
		{
			"buffer": 0,
			"byteLength": 34428,
			"byteOffset": 343316,
			"target": 34962
		},
		{
			"buffer": 0,
			"byteLength": 45904,
			"byteOffset": 377744,
			"target": 34962
		},
		{
			"buffer": 0,
			"byteLength": 22952,
			"byteOffset": 423648,
			"target": 34962
		},
		{
			"buffer": 0,
			"byteLength": 22952,
			"byteOffset": 446600,
			"target": 34962
		}
	],
	"images": [
		{
			"uri": "MI_Metall_Trim_styl_01_MetallicRoughness.png"
		},
		{
			"uri": "MI_Metall_Trim_styl_01_Occlusion.png"
		},
		{
			"uri": "MI_Wood_Trim_BaseColor.png"
		},
		{
			"uri": "MI_Wood_Trim_MetallicRoughness.png"
		},
		{
			"uri": "MI_Wood_Trim_Occlusion.png"
		},
		{
			"uri": "T_fMetalTrimStyl_C.png"
		},
		{
			"uri": "T_fMetalTrimStyl_N.png"
		},
		{
			"uri": "T_Wood_Trim_N.png"
		}
	],
	"materials": [
		{
			"name": "MI_Metall_Trim_styl_01",
			"pbrMetallicRoughness":
			{
				"baseColorTexture":
				{
					"index": 0
				},
				"metallicRoughnessTexture":
				{
					"index": 1
				}
			},
			"normalTexture":
			{
				"index": 2
			},
			"occlusionTexture":
			{
				"index": 3
			}
		},
		{
			"name": "MI_Wood_Trim",
			"pbrMetallicRoughness":
			{
				"baseColorTexture":
				{
					"index": 4
				},
				"metallicRoughnessTexture":
				{
					"index": 5
				}
			},
			"normalTexture":
			{
				"index": 6
			},
			"occlusionTexture":
			{
				"index": 7
			}
		}
	],
	"meshes": [
		{
			"name": "SM_torture_device_05",
			"primitives": [
				{
					"attributes":
					{
						"POSITION": 1,
						"NORMAL": 2,
						"TANGENT": 3,
						"TEXCOORD_0": 4,
						"TEXCOORD_1": 5
					},
					"indices": 0,
					"material": 0
				},
				{
					"attributes":
					{
						"POSITION": 7,
						"NORMAL": 8,
						"TANGENT": 9,
						"TEXCOORD_0": 10,
						"TEXCOORD_1": 11
					},
					"indices": 6,
					"material": 1
				}
			]
		}
	],
	"nodes": [
		{
			"mesh": 0
		}
	],
	"samplers": [
		{
			"minFilter": 9987,
			"magFilter": 9729
		}
	],
	"scenes": [
		{
			"nodes": [ 0 ]
		}
	],
	"textures": [
		{
			"name": "T_fMetalTrimStyl_C",
			"sampler": 0,
			"source": 5
		},
		{
			"name": "MI_Metall_Trim_styl_01_MetallicRoughness",
			"sampler": 0,
			"source": 0
		},
		{
			"name": "T_fMetalTrimStyl_N",
			"sampler": 0,
			"source": 6
		},
		{
			"name": "MI_Metall_Trim_styl_01_Occlusion",
			"sampler": 0,
			"source": 1
		},
		{
			"name": "MI_Wood_Trim_BaseColor",
			"sampler": 0,
			"source": 2
		},
		{
			"name": "MI_Wood_Trim_MetallicRoughness",
			"sampler": 0,
			"source": 3
		},
		{
			"name": "T_Wood_Trim_N",
			"sampler": 0,
			"source": 7
		},
		{
			"name": "MI_Wood_Trim_Occlusion",
			"sampler": 0,
			"source": 4
		}
	]
}