{
	"asset":
	{
		"version": "2.0",
		"generator": "Unreal Engine 5.6.1"
	},
	"scene": 0,
	"accessors": [
		{
			"bufferView": 0,
			"count": 288,
			"type": "SCALAR",
			"componentType": 5121
		},
		{
			"bufferView": 1,
			"count": 146,
			"type": "VEC3",
			"componentType": 5126,
			"min": [ -10.3817396, -6.10351549e-07, -10.3817272 ],
			"max": [ 10.3817272, 1.00000179, 10.3817415 ]
		},
		{
			"bufferView": 2,
			"count": 146,
			"type": "VEC3",
			"componentType": 5126
		},
		{
			"bufferView": 3,
			"count": 146,
			"type": "VEC4",
			"componentType": 5126
		},
		{
			"bufferView": 4,
			"count": 146,
			"type": "VEC2",
			"componentType": 5126
		},
		{
			"bufferView": 5,
			"count": 146,
			"type": "VEC2",
			"componentType": 5126
		}
	],
	"buffers": [
		{
			"uri": "SM_tower_big_floor_02_A69CB70A.bin",
			"byteLength": 8464
		}
	],
	"bufferViews": [
		{
			"buffer": 0,
			"byteLength": 288,
			"target": 34963
		},
		{
			"buffer": 0,
			"byteLength": 1752,
			"byteOffset": 288,
			"target": 34962
		},
		{
			"buffer": 0,
			"byteLength": 1752,
			"byteOffset": 2040,
			"target": 34962
		},
		{
			"buffer": 0,
			"byteLength": 2336,
			"byteOffset": 3792,
			"target": 34962
		},
		{
			"buffer": 0,
			"byteLength": 1168,
			"byteOffset": 6128,
			"target": 34962
		},
		{
			"buffer": 0,
			"byteLength": 1168,
			"byteOffset": 7296,
			"target": 34962
		}
	],
	"images": [
		{
			"uri": "MI_Floor_Brick_01_BaseColor.png"
		},
		{
			"uri": "MI_Floor_Brick_01_MetallicRoughness.png"
		},
		{
			"uri": "MI_Floor_Brick_01_Normal.png"
		},
		{
			"uri": "MI_Floor_Brick_01_Occlusion.png"
		}
	],
	"materials": [
		{
			"name": "MI_Floor_Brick_01",
			"pbrMetallicRoughness":
			{
				"baseColorTexture":
				{
					"index": 0
				},
				"metallicRoughnessTexture":
				{
					"index": 1
				}
			},
			"normalTexture":
			{
				"index": 2
			},
			"occlusionTexture":
			{
				"index": 3
			}
		}
	],
	"meshes": [
		{
			"name": "SM_tower_big_floor_02",
			"primitives": [
				{
					"attributes":
					{
						"POSITION": 1,
						"NORMAL": 2,
						"TANGENT": 3,
						"TEXCOORD_0": 4,
						"TEXCOORD_1": 5
					},
					"indices": 0,
					"material": 0
				}
			]
		}
	],
	"nodes": [
		{
			"mesh": 0
		}
	],
	"samplers": [
		{
			"minFilter": 9987,
			"magFilter": 9729
		}
	],
	"scenes": [
		{
			"nodes": [ 0 ]
		}
	],
	"textures": [
		{
			"name": "MI_Floor_Brick_01_BaseColor",
			"sampler": 0,
			"source": 0
		},
		{
			"name": "MI_Floor_Brick_01_MetallicRoughness",
			"sampler": 0,
			"source": 1
		},
		{
			"name": "MI_Floor_Brick_01_Normal",
			"sampler": 0,
			"source": 2
		},
		{
			"name": "MI_Floor_Brick_01_Occlusion",
			"sampler": 0,
			"source": 3
		}
	]
}