{
	"asset":
	{
		"version": "2.0",
		"generator": "Unreal Engine 5.6.1"
	},
	"scene": 0,
	"accessors": [
		{
			"bufferView": 0,
			"count": 5736,
			"type": "SCALAR",
			"componentType": 5123
		},
		{
			"bufferView": 1,
			"count": 2344,
			"type": "VEC3",
			"componentType": 5126,
			"min": [ -0.475480795, -0.263421416, -0.0210914277 ],
			"max": [ 0.0210913084, 1.28979516, 0.455581397 ]
		},
		{
			"bufferView": 2,
			"count": 2344,
			"type": "VEC3",
			"componentType": 5126
		},
		{
			"bufferView": 3,
			"count": 2344,
			"type": "VEC4",
			"componentType": 5126
		},
		{
			"bufferView": 4,
			"count": 2344,
			"type": "VEC2",
			"componentType": 5126
		},
		{
			"bufferView": 5,
			"count": 2344,
			"type": "VEC2",
			"componentType": 5126
		},
		{
			"bufferView": 6,
			"count": 1860,
			"type": "SCALAR",
			"componentType": 5123
		},
		{
			"bufferView": 7,
			"count": 470,
			"type": "VEC3",
			"componentType": 5126,
			"min": [ -0.494112432, -0.290453464, -0.00858455803 ],
			"max": [ -0.00355979917, 1.52778018, 0.444286376 ]
		},
		{
			"bufferView": 8,
			"count": 470,
			"type": "VEC3",
			"componentType": 5126
		},
		{
			"bufferView": 9,
			"count": 470,
			"type": "VEC4",
			"componentType": 5126
		},
		{
			"bufferView": 10,
			"count": 470,
			"type": "VEC2",
			"componentType": 5126
		},
		{
			"bufferView": 11,
			"count": 470,
			"type": "VEC2",
			"componentType": 5126
		}
	],
	"buffers": [
		{
			"uri": "SM_torture_device_05_door_CC486F63.bin",
			"byteLength": 172776
		}
	],
	"bufferViews": [
		{
			"buffer": 0,
			"byteLength": 11472,
			"target": 34963
		},
		{
			"buffer": 0,
			"byteLength": 28128,
			"byteOffset": 11472,
			"target": 34962
		},
		{
			"buffer": 0,
			"byteLength": 28128,
			"byteOffset": 39600,
			"target": 34962
		},
		{
			"buffer": 0,
			"byteLength": 37504,
			"byteOffset": 67728,
			"target": 34962
		},
		{
			"buffer": 0,
			"byteLength": 18752,
			"byteOffset": 105232,
			"target": 34962
		},
		{
			"buffer": 0,
			"byteLength": 18752,
			"byteOffset": 123984,
			"target": 34962
		},
		{
			"buffer": 0,
			"byteLength": 3720,
			"byteOffset": 142736,
			"target": 34963
		},
		{
			"buffer": 0,
			"byteLength": 5640,
			"byteOffset": 146456,
			"target": 34962
		},
		{
			"buffer": 0,
			"byteLength": 5640,
			"byteOffset": 152096,
			"target": 34962
		},
		{
			"buffer": 0,
			"byteLength": 7520,
			"byteOffset": 157736,
			"target": 34962
		},
		{
			"buffer": 0,
			"byteLength": 3760,
			"byteOffset": 165256,
			"target": 34962
		},
		{
			"buffer": 0,
			"byteLength": 3760,
			"byteOffset": 169016,
			"target": 34962
		}
	],
	"images": [
		{
			"uri": "MI_Metall_Trim_styl_01_MetallicRoughness.png"
		},
		{
			"uri": "MI_Metall_Trim_styl_01_Occlusion.png"
		},
		{
			"uri": "MI_Wood_Trim_BaseColor.png"
		},
		{
			"uri": "MI_Wood_Trim_MetallicRoughness.png"
		},
		{
			"uri": "MI_Wood_Trim_Occlusion.png"
		},
		{
			"uri": "T_fMetalTrimStyl_C.png"
		},
		{
			"uri": "T_fMetalTrimStyl_N.png"
		},
		{
			"uri": "T_Wood_Trim_N.png"
		}
	],
	"materials": [
		{
			"name": "MI_Metall_Trim_styl_01",
			"pbrMetallicRoughness":
			{
				"baseColorTexture":
				{
					"index": 0
				},
				"metallicRoughnessTexture":
				{
					"index": 1
				}
			},
			"normalTexture":
			{
				"index": 2
			},
			"occlusionTexture":
			{
				"index": 3
			}
		},
		{
			"name": "MI_Wood_Trim",
			"pbrMetallicRoughness":
			{
				"baseColorTexture":
				{
					"index": 4
				},
				"metallicRoughnessTexture":
				{
					"index": 5
				}
			},
			"normalTexture":
			{
				"index": 6
			},
			"occlusionTexture":
			{
				"index": 7
			}
		}
	],
	"meshes": [
		{
			"name": "SM_torture_device_05_door",
			"primitives": [
				{
					"attributes":
					{
						"POSITION": 1,
						"NORMAL": 2,
						"TANGENT": 3,
						"TEXCOORD_0": 4,
						"TEXCOORD_1": 5
					},
					"indices": 0,
					"material": 0
				},
				{
					"attributes":
					{
						"POSITION": 7,
						"NORMAL": 8,
						"TANGENT": 9,
						"TEXCOORD_0": 10,
						"TEXCOORD_1": 11
					},
					"indices": 6,
					"material": 1
				}
			]
		}
	],
	"nodes": [
		{
			"mesh": 0
		}
	],
	"samplers": [
		{
			"minFilter": 9987,
			"magFilter": 9729
		}
	],
	"scenes": [
		{
			"nodes": [ 0 ]
		}
	],
	"textures": [
		{
			"name": "T_fMetalTrimStyl_C",
			"sampler": 0,
			"source": 5
		},
		{
			"name": "MI_Metall_Trim_styl_01_MetallicRoughness",
			"sampler": 0,
			"source": 0
		},
		{
			"name": "T_fMetalTrimStyl_N",
			"sampler": 0,
			"source": 6
		},
		{
			"name": "MI_Metall_Trim_styl_01_Occlusion",
			"sampler": 0,
			"source": 1
		},
		{
			"name": "MI_Wood_Trim_BaseColor",
			"sampler": 0,
			"source": 2
		},
		{
			"name": "MI_Wood_Trim_MetallicRoughness",
			"sampler": 0,
			"source": 3
		},
		{
			"name": "T_Wood_Trim_N",
			"sampler": 0,
			"source": 7
		},
		{
			"name": "MI_Wood_Trim_Occlusion",
			"sampler": 0,
			"source": 4
		}
	]
}