{
	"asset":
	{
		"version": "2.0",
		"generator": "Unreal Engine 5.6.1"
	},
	"scene": 0,
	"accessors": [
		{
			"bufferView": 0,
			"count": 79890,
			"type": "SCALAR",
			"componentType": 5123
		},
		{
			"bufferView": 1,
			"count": 28950,
			"type": "VEC3",
			"componentType": 5126,
			"min": [ -4.14677715, -0.134199217, -5.91627932 ],
			"max": [ 8.38197231, 11.9543085, 2.47390628 ]
		},
		{
			"bufferView": 2,
			"count": 28950,
			"type": "VEC3",
			"componentType": 5126
		},
		{
			"bufferView": 3,
			"count": 28950,
			"type": "VEC4",
			"componentType": 5126
		},
		{
			"bufferView": 4,
			"count": 28950,
			"type": "VEC2",
			"componentType": 5126
		},
		{
			"bufferView": 5,
			"count": 28950,
			"type": "VEC2",
			"componentType": 5126
		},
		{
			"bufferView": 6,
			"count": 3210,
			"type": "SCALAR",
			"componentType": 5123
		},
		{
			"bufferView": 7,
			"count": 1022,
			"type": "VEC3",
			"componentType": 5126,
			"min": [ -1.56328118, -1.02177429, -0.688408196 ],
			"max": [ 3.95812488, 11.8777075, 2.06604481 ]
		},
		{
			"bufferView": 8,
			"count": 1022,
			"type": "VEC3",
			"componentType": 5126
		},
		{
			"bufferView": 9,
			"count": 1022,
			"type": "VEC4",
			"componentType": 5126
		},
		{
			"bufferView": 10,
			"count": 1022,
			"type": "VEC2",
			"componentType": 5126
		},
		{
			"bufferView": 11,
			"count": 1022,
			"type": "VEC2",
			"componentType": 5126
		},
		{
			"bufferView": 12,
			"count": 42768,
			"type": "SCALAR",
			"componentType": 5123
		},
		{
			"bufferView": 13,
			"count": 13608,
			"type": "VEC3",
			"componentType": 5126,
			"min": [ -1.9534179, -1.0217706, -4.34741211 ],
			"max": [ 4.36962891, 6.70744085, 1.02791989 ]
		},
		{
			"bufferView": 14,
			"count": 13608,
			"type": "VEC3",
			"componentType": 5126
		},
		{
			"bufferView": 15,
			"count": 13608,
			"type": "VEC4",
			"componentType": 5126
		},
		{
			"bufferView": 16,
			"count": 13608,
			"type": "VEC2",
			"componentType": 5126
		},
		{
			"bufferView": 17,
			"count": 13608,
			"type": "VEC2",
			"componentType": 5126
		},
		{
			"bufferView": 18,
			"count": 4428,
			"type": "SCALAR",
			"componentType": 5123
		},
		{
			"bufferView": 19,
			"count": 1158,
			"type": "VEC3",
			"componentType": 5126,
			"min": [ -1.08429682, 1.07882905, -3.44907212 ],
			"max": [ 4.11525393, 7.36552286, -1.20628905 ]
		},
		{
			"bufferView": 20,
			"count": 1158,
			"type": "VEC3",
			"componentType": 5126
		},
		{
			"bufferView": 21,
			"count": 1158,
			"type": "VEC4",
			"componentType": 5126
		},
		{
			"bufferView": 22,
			"count": 1158,
			"type": "VEC2",
			"componentType": 5126
		},
		{
			"bufferView": 23,
			"count": 1158,
			"type": "VEC2",
			"componentType": 5126
		},
		{
			"bufferView": 24,
			"count": 168,
			"type": "SCALAR",
			"componentType": 5121
		},
		{
			"bufferView": 25,
			"count": 112,
			"type": "VEC3",
			"componentType": 5126,
			"min": [ -1.07099605, 1.32145381, -3.43611312 ],
			"max": [ 4.10349607, 7.41986227, -1.2215234 ]
		},
		{
			"bufferView": 26,
			"count": 112,
			"type": "VEC3",
			"componentType": 5126
		},
		{
			"bufferView": 27,
			"count": 112,
			"type": "VEC4",
			"componentType": 5126
		},
		{
			"bufferView": 28,
			"count": 112,
			"type": "VEC2",
			"componentType": 5126
		},
		{
			"bufferView": 29,
			"count": 112,
			"type": "VEC2",
			"componentType": 5126
		},
		{
			"bufferView": 30,
			"count": 54666,
			"type": "SCALAR",
			"componentType": 5123
		},
		{
			"bufferView": 31,
			"count": 18689,
			"type": "VEC3",
			"componentType": 5126,
			"min": [ -1.09525406, 0.775675595, -3.45729733 ],
			"max": [ 4.12902355, 10.8834906, -1.19867182 ]
		},
		{
			"bufferView": 32,
			"count": 18689,
			"type": "VEC3",
			"componentType": 5126
		},
		{
			"bufferView": 33,
			"count": 18689,
			"type": "VEC4",
			"componentType": 5126
		},
		{
			"bufferView": 34,
			"count": 18689,
			"type": "VEC2",
			"componentType": 5126
		},
		{
			"bufferView": 35,
			"count": 18689,
			"type": "VEC2",
			"componentType": 5126
		},
		{
			"bufferView": 36,
			"count": 24285,
			"type": "SCALAR",
			"componentType": 5123
		},
		{
			"bufferView": 37,
			"count": 7349,
			"type": "VEC3",
			"componentType": 5126,
			"min": [ -1.49736321, 0.173915401, -4.58340788 ],
			"max": [ 5.5383997, 4.76860666, 0.839902341 ]
		},
		{
			"bufferView": 38,
			"count": 7349,
			"type": "VEC3",
			"componentType": 5126
		},
		{
			"bufferView": 39,
			"count": 7349,
			"type": "VEC4",
			"componentType": 5126
		},
		{
			"bufferView": 40,
			"count": 7349,
			"type": "VEC2",
			"componentType": 5126
		},
		{
			"bufferView": 41,
			"count": 7349,
			"type": "VEC2",
			"componentType": 5126
		},
		{
			"bufferView": 42,
			"count": 504,
			"type": "SCALAR",
			"componentType": 5121
		},
		{
			"bufferView": 43,
			"count": 156,
			"type": "VEC3",
			"componentType": 5126,
			"min": [ -0.939121068, 4.64838696, -0.366025388 ],
			"max": [ 0.088476561, 5.12360144, 0.525253892 ]
		},
		{
			"bufferView": 44,
			"count": 156,
			"type": "VEC3",
			"componentType": 5126
		},
		{
			"bufferView": 45,
			"count": 156,
			"type": "VEC4",
			"componentType": 5126
		},
		{
			"bufferView": 46,
			"count": 156,
			"type": "VEC2",
			"componentType": 5126
		},
		{
			"bufferView": 47,
			"count": 156,
			"type": "VEC2",
			"componentType": 5126
		},
		{
			"bufferView": 48,
			"count": 606,
			"type": "SCALAR",
			"componentType": 5121
		},
		{
			"bufferView": 49,
			"count": 223,
			"type": "VEC3",
			"componentType": 5126,
			"min": [ -1.88142574, 4.03205395, -0.991357386 ],
			"max": [ 0.0356654264, 8.14836025, 0.925742149 ]
		},
		{
			"bufferView": 50,
			"count": 223,
			"type": "VEC3",
			"componentType": 5126
		},
		{
			"bufferView": 51,
			"count": 223,
			"type": "VEC4",
			"componentType": 5126
		},
		{
			"bufferView": 52,
			"count": 223,
			"type": "VEC2",
			"componentType": 5126
		},
		{
			"bufferView": 53,
			"count": 223,
			"type": "VEC2",
			"componentType": 5126
		},
		{
			"bufferView": 54,
			"count": 78,
			"type": "SCALAR",
			"componentType": 5121
		},
		{
			"bufferView": 55,
			"count": 44,
			"type": "VEC3",
			"componentType": 5126,
			"min": [ -2.04832029, 0.125518799, -4.93573093 ],
			"max": [ 5.95236301, 3.94365764, 1.06497312 ]
		},
		{
			"bufferView": 56,
			"count": 44,
			"type": "VEC3",
			"componentType": 5126
		},
		{
			"bufferView": 57,
			"count": 44,
			"type": "VEC4",
			"componentType": 5126
		},
		{
			"bufferView": 58,
			"count": 44,
			"type": "VEC2",
			"componentType": 5126
		},
		{
			"bufferView": 59,
			"count": 44,
			"type": "VEC2",
			"componentType": 5126
		},
		{
			"bufferView": 60,
			"count": 211527,
			"type": "SCALAR",
			"componentType": 5123
		},
		{
			"bufferView": 61,
			"count": 63179,
			"type": "VEC3",
			"componentType": 5126,
			"min": [ -3.25644517, 6.32169724, -6.17083979 ],
			"max": [ 7.49166012, 11.7283688, 2.62571287 ]
		},
		{
			"bufferView": 62,
			"count": 63179,
			"type": "VEC3",
			"componentType": 5126
		},
		{
			"bufferView": 63,
			"count": 63179,
			"type": "VEC4",
			"componentType": 5126
		},
		{
			"bufferView": 64,
			"count": 63179,
			"type": "VEC2",
			"componentType": 5126
		},
		{
			"bufferView": 65,
			"count": 63179,
			"type": "VEC2",
			"componentType": 5126
		},
		{
			"bufferView": 66,
			"count": 507,
			"type": "SCALAR",
			"componentType": 5121
		},
		{
			"bufferView": 67,
			"count": 204,
			"type": "VEC3",
			"componentType": 5126,
			"min": [ -2.08248043, -0.129754633, -4.94615221 ],
			"max": [ 5.94302702, 11.3559761, 2.10383773 ]
		},
		{
			"bufferView": 68,
			"count": 204,
			"type": "VEC3",
			"componentType": 5126
		},
		{
			"bufferView": 69,
			"count": 204,
			"type": "VEC4",
			"componentType": 5126
		},
		{
			"bufferView": 70,
			"count": 204,
			"type": "VEC2",
			"componentType": 5126
		},
		{
			"bufferView": 71,
			"count": 204,
			"type": "VEC2",
			"componentType": 5126
		},
		{
			"bufferView": 72,
			"count": 336,
			"type": "SCALAR",
			"componentType": 5121
		},
		{
			"bufferView": 73,
			"count": 144,
			"type": "VEC3",
			"componentType": 5126,
			"min": [ -1.43804681, 8.12509727, -0.494062483 ],
			"max": [ -0.516874969, 11.3828516, 0.427109361 ]
		},
		{
			"bufferView": 74,
			"count": 144,
			"type": "VEC3",
			"componentType": 5126
		},
		{
			"bufferView": 75,
			"count": 144,
			"type": "VEC4",
			"componentType": 5126
		},
		{
			"bufferView": 76,
			"count": 144,
			"type": "VEC2",
			"componentType": 5126
		},
		{
			"bufferView": 77,
			"count": 144,
			"type": "VEC2",
			"componentType": 5126
		},
		{
			"bufferView": 78,
			"count": 1344,
			"type": "SCALAR",
			"componentType": 5123
		},
		{
			"bufferView": 79,
			"count": 384,
			"type": "VEC3",
			"componentType": 5126,
			"min": [ -2.13570309, 1.01103878, -4.9831934 ],
			"max": [ 5.97769499, 6.21472216, 2.05107427 ]
		},
		{
			"bufferView": 80,
			"count": 384,
			"type": "VEC3",
			"componentType": 5126
		},
		{
			"bufferView": 81,
			"count": 384,
			"type": "VEC4",
			"componentType": 5126
		},
		{
			"bufferView": 82,
			"count": 384,
			"type": "VEC2",
			"componentType": 5126
		},
		{
			"bufferView": 83,
			"count": 384,
			"type": "VEC2",
			"componentType": 5126
		}
	],
	"buffers": [
		{
			"uri": "SM_Town_House_01_Merged.bin",
			"byteLength": 8418876
		}
	],
	"bufferViews": [
		{
			"buffer": 0,
			"byteLength": 159780,
			"target": 34963
		},
		{
			"buffer": 0,
			"byteLength": 347400,
			"byteOffset": 159780,
			"target": 34962
		},
		{
			"buffer": 0,
			"byteLength": 347400,
			"byteOffset": 507180,
			"target": 34962
		},
		{
			"buffer": 0,
			"byteLength": 463200,
			"byteOffset": 854580,
			"target": 34962
		},
		{
			"buffer": 0,
			"byteLength": 231600,
			"byteOffset": 1317780,
			"target": 34962
		},
		{
			"buffer": 0,
			"byteLength": 231600,
			"byteOffset": 1549380,
			"target": 34962
		},
		{
			"buffer": 0,
			"byteLength": 6420,
			"byteOffset": 1780980,
			"target": 34963
		},
		{
			"buffer": 0,
			"byteLength": 12264,
			"byteOffset": 1787400,
			"target": 34962
		},
		{
			"buffer": 0,
			"byteLength": 12264,
			"byteOffset": 1799664,
			"target": 34962
		},
		{
			"buffer": 0,
			"byteLength": 16352,
			"byteOffset": 1811928,
			"target": 34962
		},
		{
			"buffer": 0,
			"byteLength": 8176,
			"byteOffset": 1828280,
			"target": 34962
		},
		{
			"buffer": 0,
			"byteLength": 8176,
			"byteOffset": 1836456,
			"target": 34962
		},
		{
			"buffer": 0,
			"byteLength": 85536,
			"byteOffset": 1844632,
			"target": 34963
		},
		{
			"buffer": 0,
			"byteLength": 163296,
			"byteOffset": 1930168,
			"target": 34962
		},
		{
			"buffer": 0,
			"byteLength": 163296,
			"byteOffset": 2093464,
			"target": 34962
		},
		{
			"buffer": 0,
			"byteLength": 217728,
			"byteOffset": 2256760,
			"target": 34962
		},
		{
			"buffer": 0,
			"byteLength": 108864,
			"byteOffset": 2474488,
			"target": 34962
		},
		{
			"buffer": 0,
			"byteLength": 108864,
			"byteOffset": 2583352,
			"target": 34962
		},
		{
			"buffer": 0,
			"byteLength": 8856,
			"byteOffset": 2692216,
			"target": 34963
		},
		{
			"buffer": 0,
			"byteLength": 13896,
			"byteOffset": 2701072,
			"target": 34962
		},
		{
			"buffer": 0,
			"byteLength": 13896,
			"byteOffset": 2714968,
			"target": 34962
		},
		{
			"buffer": 0,
			"byteLength": 18528,
			"byteOffset": 2728864,
			"target": 34962
		},
		{
			"buffer": 0,
			"byteLength": 9264,
			"byteOffset": 2747392,
			"target": 34962
		},
		{
			"buffer": 0,
			"byteLength": 9264,
			"byteOffset": 2756656,
			"target": 34962
		},
		{
			"buffer": 0,
			"byteLength": 168,
			"byteOffset": 2765920,
			"target": 34963
		},
		{
			"buffer": 0,
			"byteLength": 1344,
			"byteOffset": 2766088,
			"target": 34962
		},
		{
			"buffer": 0,
			"byteLength": 1344,
			"byteOffset": 2767432,
			"target": 34962
		},
		{
			"buffer": 0,
			"byteLength": 1792,
			"byteOffset": 2768776,
			"target": 34962
		},
		{
			"buffer": 0,
			"byteLength": 896,
			"byteOffset": 2770568,
			"target": 34962
		},
		{
			"buffer": 0,
			"byteLength": 896,
			"byteOffset": 2771464,
			"target": 34962
		},
		{
			"buffer": 0,
			"byteLength": 109332,
			"byteOffset": 2772360,
			"target": 34963
		},
		{
			"buffer": 0,
			"byteLength": 224268,
			"byteOffset": 2881692,
			"target": 34962
		},
		{
			"buffer": 0,
			"byteLength": 224268,
			"byteOffset": 3105960,
			"target": 34962
		},
		{
			"buffer": 0,
			"byteLength": 299024,
			"byteOffset": 3330228,
			"target": 34962
		},
		{
			"buffer": 0,
			"byteLength": 149512,
			"byteOffset": 3629252,
			"target": 34962
		},
		{
			"buffer": 0,
			"byteLength": 149512,
			"byteOffset": 3778764,
			"target": 34962
		},
		{
			"buffer": 0,
			"byteLength": 48570,
			"byteOffset": 3928276,
			"target": 34963
		},
		{
			"buffer": 0,
			"byteLength": 88188,
			"byteOffset": 3976848,
			"target": 34962
		},
		{
			"buffer": 0,
			"byteLength": 88188,
			"byteOffset": 4065036,
			"target": 34962
		},
		{
			"buffer": 0,
			"byteLength": 117584,
			"byteOffset": 4153224,
			"target": 34962
		},
		{
			"buffer": 0,
			"byteLength": 58792,
			"byteOffset": 4270808,
			"target": 34962
		},
		{
			"buffer": 0,
			"byteLength": 58792,
			"byteOffset": 4329600,
			"target": 34962
		},
		{
			"buffer": 0,
			"byteLength": 504,
			"byteOffset": 4388392,
			"target": 34963
		},
		{
			"buffer": 0,
			"byteLength": 1872,
			"byteOffset": 4388896,
			"target": 34962
		},
		{
			"buffer": 0,
			"byteLength": 1872,
			"byteOffset": 4390768,
			"target": 34962
		},
		{
			"buffer": 0,
			"byteLength": 2496,
			"byteOffset": 4392640,
			"target": 34962
		},
		{
			"buffer": 0,
			"byteLength": 1248,
			"byteOffset": 4395136,
			"target": 34962
		},
		{
			"buffer": 0,
			"byteLength": 1248,
			"byteOffset": 4396384,
			"target": 34962
		},
		{
			"buffer": 0,
			"byteLength": 606,
			"byteOffset": 4397632,
			"target": 34963
		},
		{
			"buffer": 0,
			"byteLength": 2676,
			"byteOffset": 4398240,
			"target": 34962
		},
		{
			"buffer": 0,
			"byteLength": 2676,
			"byteOffset": 4400916,
			"target": 34962
		},
		{
			"buffer": 0,
			"byteLength": 3568,
			"byteOffset": 4403592,
			"target": 34962
		},
		{
			"buffer": 0,
			"byteLength": 1784,
			"byteOffset": 4407160,
			"target": 34962
		},
		{
			"buffer": 0,
			"byteLength": 1784,
			"byteOffset": 4408944,
			"target": 34962
		},
		{
			"buffer": 0,
			"byteLength": 78,
			"byteOffset": 4410728,
			"target": 34963
		},
		{
			"buffer": 0,
			"byteLength": 528,
			"byteOffset": 4410808,
			"target": 34962
		},
		{
			"buffer": 0,
			"byteLength": 528,
			"byteOffset": 4411336,
			"target": 34962
		},
		{
			"buffer": 0,
			"byteLength": 704,
			"byteOffset": 4411864,
			"target": 34962
		},
		{
			"buffer": 0,
			"byteLength": 352,
			"byteOffset": 4412568,
			"target": 34962
		},
		{
			"buffer": 0,
			"byteLength": 352,
			"byteOffset": 4412920,
			"target": 34962
		},
		{
			"buffer": 0,
			"byteLength": 423054,
			"byteOffset": 4413272,
			"target": 34963
		},
		{
			"buffer": 0,
			"byteLength": 758148,
			"byteOffset": 4836328,
			"target": 34962
		},
		{
			"buffer": 0,
			"byteLength": 758148,
			"byteOffset": 5594476,
			"target": 34962
		},
		{
			"buffer": 0,
			"byteLength": 1010864,
			"byteOffset": 6352624,
			"target": 34962
		},
		{
			"buffer": 0,
			"byteLength": 505432,
			"byteOffset": 7363488,
			"target": 34962
		},
		{
			"buffer": 0,
			"byteLength": 505432,
			"byteOffset": 7868920,
			"target": 34962
		},
		{
			"buffer": 0,
			"byteLength": 507,
			"byteOffset": 8374352,
			"target": 34963
		},
		{
			"buffer": 0,
			"byteLength": 2448,
			"byteOffset": 8374860,
			"target": 34962
		},
		{
			"buffer": 0,
			"byteLength": 2448,
			"byteOffset": 8377308,
			"target": 34962
		},
		{
			"buffer": 0,
			"byteLength": 3264,
			"byteOffset": 8379756,
			"target": 34962
		},
		{
			"buffer": 0,
			"byteLength": 1632,
			"byteOffset": 8383020,
			"target": 34962
		},
		{
			"buffer": 0,
			"byteLength": 1632,
			"byteOffset": 8384652,
			"target": 34962
		},
		{
			"buffer": 0,
			"byteLength": 336,
			"byteOffset": 8386284,
			"target": 34963
		},
		{
			"buffer": 0,
			"byteLength": 1728,
			"byteOffset": 8386620,
			"target": 34962
		},
		{
			"buffer": 0,
			"byteLength": 1728,
			"byteOffset": 8388348,
			"target": 34962
		},
		{
			"buffer": 0,
			"byteLength": 2304,
			"byteOffset": 8390076,
			"target": 34962
		},
		{
			"buffer": 0,
			"byteLength": 1152,
			"byteOffset": 8392380,
			"target": 34962
		},
		{
			"buffer": 0,
			"byteLength": 1152,
			"byteOffset": 8393532,
			"target": 34962
		},
		{
			"buffer": 0,
			"byteLength": 2688,
			"byteOffset": 8394684,
			"target": 34963
		},
		{
			"buffer": 0,
			"byteLength": 4608,
			"byteOffset": 8397372,
			"target": 34962
		},
		{
			"buffer": 0,
			"byteLength": 4608,
			"byteOffset": 8401980,
			"target": 34962
		},
		{
			"buffer": 0,
			"byteLength": 6144,
			"byteOffset": 8406588,
			"target": 34962
		},
		{
			"buffer": 0,
			"byteLength": 3072,
			"byteOffset": 8412732,
			"target": 34962
		},
		{
			"buffer": 0,
			"byteLength": 3072,
			"byteOffset": 8415804,
			"target": 34962
		}
	],
	"images": [
		{
			"uri": "MI_Wood_Trim_BaseColor.png"
		},
		{
			"uri": "MI_Wood_Trim_MetallicRoughness.png"
		},
		{
			"uri": "MI_Wood_Trim_Occlusion.png"
		},
		{
			"uri": "MI_Stone_Props_01_MetallicRoughness.png"
		},
		{
			"uri": "MI_Stones_BaseColor.png"
		},
		{
			"uri": "MI_Stones_MetallicRoughness.png"
		},
		{
			"uri": "MI_Candle_MetallicRoughness.png"
		},
		{
			"uri": "MI_Light_props_MetallicRoughness.png"
		},
		{
			"uri": "MI_Furniture_01_MetallicRoughness.png"
		},
		{
			"uri": "MI_Log_props_01_MetallicRoughness.png"
		},
		{
			"uri": "M_Styl_Wall_Brick_BaseColor.png"
		},
		{
			"uri": "M_Styl_Wall_Brick_MetallicRoughness.png"
		},
		{
			"uri": "M_Styl_Wall_Brick_Occlusion.png"
		},
		{
			"uri": "M_Wood_Floor_Inst_BaseColor.png"
		},
		{
			"uri": "M_Wood_Floor_Inst_MetallicRoughness.png"
		},
		{
			"uri": "M_Wood_Floor_Inst_Normal.png"
		},
		{
			"uri": "M_Wood_Floor_Inst_Occlusion.png"
		},
		{
			"uri": "MI_Roof_Tile_BaseColor.png"
		},
		{
			"uri": "MI_Roof_Tile_MetallicRoughness.png"
		},
		{
			"uri": "MI_Roof_Tile_Occlusion.png"
		},
		{
			"uri": "MI_Styl_Wall_Plaster_SM_Town_House_01_Merged_BaseColor.png"
		},
		{
			"uri": "MI_Styl_Wall_Plaster_SM_Town_House_01_Merged_MetallicRoughness.png"
		},
		{
			"uri": "MI_Styl_Wall_Plaster_SM_Town_House_01_Merged_Normal.png"
		},
		{
			"uri": "MI_Styl_Wall_Plaster_SM_Town_House_01_Merged_Occlusion.png"
		},
		{
			"uri": "MI_Styl_Wall_Brick_BaseColor.png"
		},
		{
			"uri": "MI_Styl_Wall_Brick_MetallicRoughness.png"
		},
		{
			"uri": "MI_Styl_Wall_Brick_Normal.png"
		},
		{
			"uri": "MI_Styl_Wall_Brick_Occlusion.png"
		},
		{
			"uri": "MI_Glass_Normal.png"
		},
		{
			"uri": "T_Wood_Trim_N.png"
		},
		{
			"uri": "T_Rocks_C.png"
		},
		{
			"uri": "T_Rocks_N.png"
		},
		{
			"uri": "T_Rocks_M.png"
		},
		{
			"uri": "T_Stone_N.png"
		},
		{
			"uri": "T_candle_C.png"
		},
		{
			"uri": "T_candle_N.png"
		},
		{
			"uri": "T_candle_M.png"
		},
		{
			"uri": "T_Light_C.png"
		},
		{
			"uri": "T_Light_N.png"
		},
		{
			"uri": "T_Light_M.png"
		},
		{
			"uri": "T_Furniture_01_C.png"
		},
		{
			"uri": "T_Furniture_01_N.png"
		},
		{
			"uri": "T_Furniture_01_M.png"
		},
		{
			"uri": "T_Log_Props_C.png"
		},
		{
			"uri": "T_Log_Props_N.png"
		},
		{
			"uri": "T_Log_Props_M.png"
		},
		{
			"uri": "T_Roof_N.png"
		}
	],
	"materials": [
		{
			"name": "MI_Wood_Trim",
			"pbrMetallicRoughness":
			{
				"baseColorTexture":
				{
					"index": 0
				},
				"metallicRoughnessTexture":
				{
					"index": 1
				}
			},
			"normalTexture":
			{
				"index": 2
			},
			"occlusionTexture":
			{
				"index": 3
			}
		},
		{
			"name": "MI_Stone_Props_01",
			"pbrMetallicRoughness":
			{
				"baseColorTexture":
				{
					"index": 4
				},
				"metallicRoughnessTexture":
				{
					"index": 5
				}
			},
			"normalTexture":
			{
				"index": 6
			},
			"occlusionTexture":
			{
				"index": 7
			}
		},
		{
			"name": "MI_Stones",
			"pbrMetallicRoughness":
			{
				"baseColorTexture":
				{
					"index": 8
				},
				"metallicRoughnessTexture":
				{
					"index": 9
				}
			},
			"normalTexture":
			{
				"index": 10
			}
		},
		{
			"name": "MI_Candle",
			"pbrMetallicRoughness":
			{
				"baseColorTexture":
				{
					"index": 11
				},
				"metallicRoughnessTexture":
				{
					"index": 12
				}
			},
			"normalTexture":
			{
				"index": 13
			},
			"occlusionTexture":
			{
				"index": 14
			},
			"alphaMode": "MASK",
			"alphaCutoff": 0.333299994
		},
		{
			"name": "MI_Candle_light",
			"pbrMetallicRoughness":
			{
				"baseColorFactor": [ 0, 0, 0, 0.690196097 ],
				"metallicFactor": 0,
				"roughnessFactor": 0.5
			},
			"emissiveFactor": [ 1, 0.764705956, 0.313725501 ],
			"alphaMode": "BLEND",
			"doubleSided": true,
			"extensions":
			{
				"KHR_materials_ior":
				{
					"ior": 1
				}
			}
		},
		{
			"name": "MI_Light_props",
			"pbrMetallicRoughness":
			{
				"baseColorTexture":
				{
					"index": 15
				},
				"metallicRoughnessTexture":
				{
					"index": 16
				}
			},
			"normalTexture":
			{
				"index": 17
			},
			"occlusionTexture":
			{
				"index": 18
			}
		},
		{
			"name": "MI_Furniture_01",
			"pbrMetallicRoughness":
			{
				"baseColorTexture":
				{
					"index": 19
				},
				"metallicRoughnessTexture":
				{
					"index": 20
				}
			},
			"normalTexture":
			{
				"index": 21
			},
			"occlusionTexture":
			{
				"index": 22
			}
		},
		{
			"name": "MI_Log_props_01",
			"pbrMetallicRoughness":
			{
				"baseColorTexture":
				{
					"index": 23
				},
				"metallicRoughnessTexture":
				{
					"index": 24
				}
			},
			"normalTexture":
			{
				"index": 25
			},
			"occlusionTexture":
			{
				"index": 26
			}
		},
		{
			"name": "M_Styl_Wall_Brick",
			"pbrMetallicRoughness":
			{
				"baseColorTexture":
				{
					"index": 27
				},
				"metallicRoughnessTexture":
				{
					"index": 28
				}
			},
			"occlusionTexture":
			{
				"index": 29
			}
		},
		{
			"name": "M_Wood_Floor_Inst",
			"pbrMetallicRoughness":
			{
				"baseColorTexture":
				{
					"index": 30
				},
				"metallicRoughnessTexture":
				{
					"index": 31
				}
			},
			"normalTexture":
			{
				"index": 32
			},
			"occlusionTexture":
			{
				"index": 33
			}
		},
		{
			"name": "MI_Roof_Tile",
			"pbrMetallicRoughness":
			{
				"baseColorTexture":
				{
					"index": 34
				},
				"metallicRoughnessTexture":
				{
					"index": 35
				}
			},
			"normalTexture":
			{
				"index": 36
			},
			"occlusionTexture":
			{
				"index": 37
			}
		},
		{
			"name": "MI_Styl_Wall_Plaster_SM_Town_House_01_Merged",
			"pbrMetallicRoughness":
			{
				"baseColorTexture":
				{
					"index": 38,
					"texCoord": 1,
					"extensions":
					{
						"KHR_texture_transform":
						{
							"offset": [ -0.00208229083, -0.00197910867 ],
							"scale": [ 1.05786836, 1.00837994 ]
						}
					}
				},
				"metallicRoughnessTexture":
				{
					"index": 39,
					"texCoord": 1,
					"extensions":
					{
						"KHR_texture_transform":
						{
							"offset": [ -0.00208229083, -0.00197910867 ],
							"scale": [ 1.05786836, 1.00837994 ]
						}
					}
				}
			},
			"normalTexture":
			{
				"index": 40,
				"texCoord": 1,
				"extensions":
				{
					"KHR_texture_transform":
					{
						"offset": [ -0.00208229083, -0.00197910867 ],
						"scale": [ 1.05786836, 1.00837994 ]
					}
				}
			},
			"occlusionTexture":
			{
				"index": 41,
				"texCoord": 1,
				"extensions":
				{
					"KHR_texture_transform":
					{
						"offset": [ -0.00208229083, -0.00197910867 ],
						"scale": [ 1.05786836, 1.00837994 ]
					}
				}
			},
			"doubleSided": true
		},
		{
			"name": "MI_Styl_Wall_Brick",
			"pbrMetallicRoughness":
			{
				"baseColorTexture":
				{
					"index": 42
				},
				"metallicRoughnessTexture":
				{
					"index": 43
				}
			},
			"normalTexture":
			{
				"index": 44
			},
			"occlusionTexture":
			{
				"index": 45
			}
		},
		{
			"name": "MI_Glass",
			"pbrMetallicRoughness":
			{
				"baseColorFactor": [ 0.0378840007, 0.0417999998, 0.0520830005, 1 ],
				"metallicFactor": 0,
				"roughnessFactor": 0.100000001
			},
			"normalTexture":
			{
				"index": 46
			},
			"doubleSided": true
		}
	],
	"meshes": [
		{
			"name": "SM_Town_House_01_Merged",
			"primitives": [
				{
					"attributes":
					{
						"POSITION": 1,
						"NORMAL": 2,
						"TANGENT": 3,
						"TEXCOORD_0": 4,
						"TEXCOORD_1": 5
					},
					"indices": 0,
					"material": 0
				},
				{
					"attributes":
					{
						"POSITION": 7,
						"NORMAL": 8,
						"TANGENT": 9,
						"TEXCOORD_0": 10,
						"TEXCOORD_1": 11
					},
					"indices": 6,
					"material": 1
				},
				{
					"attributes":
					{
						"POSITION": 13,
						"NORMAL": 14,
						"TANGENT": 15,
						"TEXCOORD_0": 16,
						"TEXCOORD_1": 17
					},
					"indices": 12,
					"material": 2
				},
				{
					"attributes":
					{
						"POSITION": 19,
						"NORMAL": 20,
						"TANGENT": 21,
						"TEXCOORD_0": 22,
						"TEXCOORD_1": 23
					},
					"indices": 18,
					"material": 3
				},
				{
					"attributes":
					{
						"POSITION": 25,
						"NORMAL": 26,
						"TANGENT": 27,
						"TEXCOORD_0": 28,
						"TEXCOORD_1": 29
					},
					"indices": 24,
					"material": 4
				},
				{
					"attributes":
					{
						"POSITION": 31,
						"NORMAL": 32,
						"TANGENT": 33,
						"TEXCOORD_0": 34,
						"TEXCOORD_1": 35
					},
					"indices": 30,
					"material": 5
				},
				{
					"attributes":
					{
						"POSITION": 37,
						"NORMAL": 38,
						"TANGENT": 39,
						"TEXCOORD_0": 40,
						"TEXCOORD_1": 41
					},
					"indices": 36,
					"material": 6
				},
				{
					"attributes":
					{
						"POSITION": 43,
						"NORMAL": 44,
						"TANGENT": 45,
						"TEXCOORD_0": 46,
						"TEXCOORD_1": 47
					},
					"indices": 42,
					"material": 7
				},
				{
					"attributes":
					{
						"POSITION": 49,
						"NORMAL": 50,
						"TANGENT": 51,
						"TEXCOORD_0": 52,
						"TEXCOORD_1": 53
					},
					"indices": 48,
					"material": 8
				},
				{
					"attributes":
					{
						"POSITION": 55,
						"NORMAL": 56,
						"TANGENT": 57,
						"TEXCOORD_0": 58,
						"TEXCOORD_1": 59
					},
					"indices": 54,
					"material": 9
				},
				{
					"attributes":
					{
						"POSITION": 61,
						"NORMAL": 62,
						"TANGENT": 63,
						"TEXCOORD_0": 64,
						"TEXCOORD_1": 65
					},
					"indices": 60,
					"material": 10
				},
				{
					"attributes":
					{
						"POSITION": 67,
						"NORMAL": 68,
						"TANGENT": 69,
						"TEXCOORD_0": 70,
						"TEXCOORD_1": 71
					},
					"indices": 66,
					"material": 11
				},
				{
					"attributes":
					{
						"POSITION": 73,
						"NORMAL": 74,
						"TANGENT": 75,
						"TEXCOORD_0": 76,
						"TEXCOORD_1": 77
					},
					"indices": 72,
					"material": 12
				},
				{
					"attributes":
					{
						"POSITION": 79,
						"NORMAL": 80,
						"TANGENT": 81,
						"TEXCOORD_0": 82,
						"TEXCOORD_1": 83
					},
					"indices": 78,
					"material": 13
				}
			]
		}
	],
	"nodes": [
		{
			"mesh": 0
		}
	],
	"samplers": [
		{
			"minFilter": 9987,
			"magFilter": 9729
		}
	],
	"scenes": [
		{
			"nodes": [ 0 ]
		}
	],
	"textures": [
		{
			"name": "MI_Wood_Trim_BaseColor",
			"sampler": 0,
			"source": 0
		},
		{
			"name": "MI_Wood_Trim_MetallicRoughness",
			"sampler": 0,
			"source": 1
		},
		{
			"name": "T_Wood_Trim_N",
			"sampler": 0,
			"source": 29
		},
		{
			"name": "MI_Wood_Trim_Occlusion",
			"sampler": 0,
			"source": 2
		},
		{
			"name": "T_Rocks_C",
			"sampler": 0,
			"source": 30
		},
		{
			"name": "MI_Stone_Props_01_MetallicRoughness",
			"sampler": 0,
			"source": 3
		},
		{
			"name": "T_Rocks_N",
			"sampler": 0,
			"source": 31
		},
		{
			"name": "T_Rocks_M",
			"sampler": 0,
			"source": 32
		},
		{
			"name": "MI_Stones_BaseColor",
			"sampler": 0,
			"source": 4
		},
		{
			"name": "MI_Stones_MetallicRoughness",
			"sampler": 0,
			"source": 5
		},
		{
			"name": "T_Stone_N",
			"sampler": 0,
			"source": 33
		},
		{
			"name": "T_candle_C",
			"sampler": 0,
			"source": 34
		},
		{
			"name": "MI_Candle_MetallicRoughness",
			"sampler": 0,
			"source": 6
		},
		{
			"name": "T_candle_N",
			"sampler": 0,
			"source": 35
		},
		{
			"name": "T_candle_M",
			"sampler": 0,
			"source": 36
		},
		{
			"name": "T_Light_C",
			"sampler": 0,
			"source": 37
		},
		{
			"name": "MI_Light_props_MetallicRoughness",
			"sampler": 0,
			"source": 7
		},
		{
			"name": "T_Light_N",
			"sampler": 0,
			"source": 38
		},
		{
			"name": "T_Light_M",
			"sampler": 0,
			"source": 39
		},
		{
			"name": "T_Furniture_01_C",
			"sampler": 0,
			"source": 40
		},
		{
			"name": "MI_Furniture_01_MetallicRoughness",
			"sampler": 0,
			"source": 8
		},
		{
			"name": "T_Furniture_01_N",
			"sampler": 0,
			"source": 41
		},
		{
			"name": "T_Furniture_01_M",
			"sampler": 0,
			"source": 42
		},
		{
			"name": "T_Log_Props_C",
			"sampler": 0,
			"source": 43
		},
		{
			"name": "MI_Log_props_01_MetallicRoughness",
			"sampler": 0,
			"source": 9
		},
		{
			"name": "T_Log_Props_N",
			"sampler": 0,
			"source": 44
		},
		{
			"name": "T_Log_Props_M",
			"sampler": 0,
			"source": 45
		},
		{
			"name": "M_Styl_Wall_Brick_BaseColor",
			"sampler": 0,
			"source": 10
		},
		{
			"name": "M_Styl_Wall_Brick_MetallicRoughness",
			"sampler": 0,
			"source": 11
		},
		{
			"name": "M_Styl_Wall_Brick_Occlusion",
			"sampler": 0,
			"source": 12
		},
		{
			"name": "M_Wood_Floor_Inst_BaseColor",
			"sampler": 0,
			"source": 13
		},
		{
			"name": "M_Wood_Floor_Inst_MetallicRoughness",
			"sampler": 0,
			"source": 14
		},
		{
			"name": "M_Wood_Floor_Inst_Normal",
			"sampler": 0,
			"source": 15
		},
		{
			"name": "M_Wood_Floor_Inst_Occlusion",
			"sampler": 0,
			"source": 16
		},
		{
			"name": "MI_Roof_Tile_BaseColor",
			"sampler": 0,
			"source": 17
		},
		{
			"name": "MI_Roof_Tile_MetallicRoughness",
			"sampler": 0,
			"source": 18
		},
		{
			"name": "T_Roof_N",
			"sampler": 0,
			"source": 46
		},
		{
			"name": "MI_Roof_Tile_Occlusion",
			"sampler": 0,
			"source": 19
		},
		{
			"name": "MI_Styl_Wall_Plaster_SM_Town_House_01_Merged_BaseColor",
			"sampler": 0,
			"source": 20
		},
		{
			"name": "MI_Styl_Wall_Plaster_SM_Town_House_01_Merged_MetallicRoughness",
			"sampler": 0,
			"source": 21
		},
		{
			"name": "MI_Styl_Wall_Plaster_SM_Town_House_01_Merged_Normal",
			"sampler": 0,
			"source": 22
		},
		{
			"name": "MI_Styl_Wall_Plaster_SM_Town_House_01_Merged_Occlusion",
			"sampler": 0,
			"source": 23
		},
		{
			"name": "MI_Styl_Wall_Brick_BaseColor",
			"sampler": 0,
			"source": 24
		},
		{
			"name": "MI_Styl_Wall_Brick_MetallicRoughness",
			"sampler": 0,
			"source": 25
		},
		{
			"name": "MI_Styl_Wall_Brick_Normal",
			"sampler": 0,
			"source": 26
		},
		{
			"name": "MI_Styl_Wall_Brick_Occlusion",
			"sampler": 0,
			"source": 27
		},
		{
			"name": "MI_Glass_Normal",
			"sampler": 0,
			"source": 28
		}
	],
	"extensionsUsed": [
		"KHR_materials_ior",
		"KHR_texture_transform"
	]
}