{
	"asset":
	{
		"version": "2.0",
		"generator": "Unreal Engine 5.6.1"
	},
	"scene": 0,
	"accessors": [
		{
			"bufferView": 0,
			"count": 3210,
			"type": "SCALAR",
			"componentType": 5123
		},
		{
			"bufferView": 1,
			"count": 1200,
			"type": "VEC3",
			"componentType": 5126,
			"min": [ -0.988371789, 1.0215683, -0.0474132672 ],
			"max": [ 0.988371789, 1.57671738, 0.0436293483 ]
		},
		{
			"bufferView": 2,
			"count": 1200,
			"type": "VEC3",
			"componentType": 5126
		},
		{
			"bufferView": 3,
			"count": 1200,
			"type": "VEC4",
			"componentType": 5126
		},
		{
			"bufferView": 4,
			"count": 1200,
			"type": "VEC2",
			"componentType": 5126
		},
		{
			"bufferView": 5,
			"count": 1200,
			"type": "VEC2",
			"componentType": 5126
		},
		{
			"bufferView": 6,
			"count": 2400,
			"type": "SCALAR",
			"componentType": 5123
		},
		{
			"bufferView": 7,
			"count": 838,
			"type": "VEC3",
			"componentType": 5126,
			"min": [ -0.873096883, -7.01812368e-08, -0.654100716 ],
			"max": [ 0.955868483, 1.57431114, 0.654100716 ]
		},
		{
			"bufferView": 8,
			"count": 838,
			"type": "VEC3",
			"componentType": 5126
		},
		{
			"bufferView": 9,
			"count": 838,
			"type": "VEC4",
			"componentType": 5126
		},
		{
			"bufferView": 10,
			"count": 838,
			"type": "VEC2",
			"componentType": 5126
		},
		{
			"bufferView": 11,
			"count": 838,
			"type": "VEC2",
			"componentType": 5126
		}
	],
	"buffers": [
		{
			"uri": "SM_torture_device_03_A2635F26.bin",
			"byteLength": 125348
		}
	],
	"bufferViews": [
		{
			"buffer": 0,
			"byteLength": 6420,
			"target": 34963
		},
		{
			"buffer": 0,
			"byteLength": 14400,
			"byteOffset": 6420,
			"target": 34962
		},
		{
			"buffer": 0,
			"byteLength": 14400,
			"byteOffset": 20820,
			"target": 34962
		},
		{
			"buffer": 0,
			"byteLength": 19200,
			"byteOffset": 35220,
			"target": 34962
		},
		{
			"buffer": 0,
			"byteLength": 9600,
			"byteOffset": 54420,
			"target": 34962
		},
		{
			"buffer": 0,
			"byteLength": 9600,
			"byteOffset": 64020,
			"target": 34962
		},
		{
			"buffer": 0,
			"byteLength": 4800,
			"byteOffset": 73620,
			"target": 34963
		},
		{
			"buffer": 0,
			"byteLength": 10056,
			"byteOffset": 78420,
			"target": 34962
		},
		{
			"buffer": 0,
			"byteLength": 10056,
			"byteOffset": 88476,
			"target": 34962
		},
		{
			"buffer": 0,
			"byteLength": 13408,
			"byteOffset": 98532,
			"target": 34962
		},
		{
			"buffer": 0,
			"byteLength": 6704,
			"byteOffset": 111940,
			"target": 34962
		},
		{
			"buffer": 0,
			"byteLength": 6704,
			"byteOffset": 118644,
			"target": 34962
		}
	],
	"images": [
		{
			"uri": "MI_Metall_Trim_styl_01_MetallicRoughness.png"
		},
		{
			"uri": "MI_Metall_Trim_styl_01_Occlusion.png"
		},
		{
			"uri": "MI_Wood_Trim_BaseColor.png"
		},
		{
			"uri": "MI_Wood_Trim_MetallicRoughness.png"
		},
		{
			"uri": "MI_Wood_Trim_Occlusion.png"
		},
		{
			"uri": "T_fMetalTrimStyl_C.png"
		},
		{
			"uri": "T_fMetalTrimStyl_N.png"
		},
		{
			"uri": "T_Wood_Trim_N.png"
		}
	],
	"materials": [
		{
			"name": "MI_Metall_Trim_styl_01",
			"pbrMetallicRoughness":
			{
				"baseColorTexture":
				{
					"index": 0
				},
				"metallicRoughnessTexture":
				{
					"index": 1
				}
			},
			"normalTexture":
			{
				"index": 2
			},
			"occlusionTexture":
			{
				"index": 3
			}
		},
		{
			"name": "MI_Wood_Trim",
			"pbrMetallicRoughness":
			{
				"baseColorTexture":
				{
					"index": 4
				},
				"metallicRoughnessTexture":
				{
					"index": 5
				}
			},
			"normalTexture":
			{
				"index": 6
			},
			"occlusionTexture":
			{
				"index": 7
			}
		}
	],
	"meshes": [
		{
			"name": "SM_torture_device_03",
			"primitives": [
				{
					"attributes":
					{
						"POSITION": 1,
						"NORMAL": 2,
						"TANGENT": 3,
						"TEXCOORD_0": 4,
						"TEXCOORD_1": 5
					},
					"indices": 0,
					"material": 0
				},
				{
					"attributes":
					{
						"POSITION": 7,
						"NORMAL": 8,
						"TANGENT": 9,
						"TEXCOORD_0": 10,
						"TEXCOORD_1": 11
					},
					"indices": 6,
					"material": 1
				}
			]
		}
	],
	"nodes": [
		{
			"mesh": 0
		}
	],
	"samplers": [
		{
			"minFilter": 9987,
			"magFilter": 9729
		}
	],
	"scenes": [
		{
			"nodes": [ 0 ]
		}
	],
	"textures": [
		{
			"name": "T_fMetalTrimStyl_C",
			"sampler": 0,
			"source": 5
		},
		{
			"name": "MI_Metall_Trim_styl_01_MetallicRoughness",
			"sampler": 0,
			"source": 0
		},
		{
			"name": "T_fMetalTrimStyl_N",
			"sampler": 0,
			"source": 6
		},
		{
			"name": "MI_Metall_Trim_styl_01_Occlusion",
			"sampler": 0,
			"source": 1
		},
		{
			"name": "MI_Wood_Trim_BaseColor",
			"sampler": 0,
			"source": 2
		},
		{
			"name": "MI_Wood_Trim_MetallicRoughness",
			"sampler": 0,
			"source": 3
		},
		{
			"name": "T_Wood_Trim_N",
			"sampler": 0,
			"source": 7
		},
		{
			"name": "MI_Wood_Trim_Occlusion",
			"sampler": 0,
			"source": 4
		}
	]
}