{
	"asset":
	{
		"version": "2.0",
		"generator": "Unreal Engine 5.6.1"
	},
	"scene": 0,
	"accessors": [
		{
			"bufferView": 0,
			"count": 9045,
			"type": "SCALAR",
			"componentType": 5123
		},
		{
			"bufferView": 1,
			"count": 3314,
			"type": "VEC3",
			"componentType": 5126,
			"min": [ -0.392633885, -1.81111929e-07, -0.408959508 ],
			"max": [ 0.392633438, 2.57086396, 0.416156411 ]
		},
		{
			"bufferView": 2,
			"count": 3314,
			"type": "VEC3",
			"componentType": 5126
		},
		{
			"bufferView": 3,
			"count": 3314,
			"type": "VEC4",
			"componentType": 5126
		},
		{
			"bufferView": 4,
			"count": 3314,
			"type": "VEC2",
			"componentType": 5126
		},
		{
			"bufferView": 5,
			"count": 3314,
			"type": "VEC2",
			"componentType": 5126
		},
		{
			"bufferView": 6,
			"count": 420,
			"type": "SCALAR",
			"componentType": 5121
		},
		{
			"bufferView": 7,
			"count": 84,
			"type": "VEC3",
			"componentType": 5126,
			"min": [ -0.256629169, 0.51534307, -0.331551731 ],
			"max": [ 0.256551266, 2.40024447, 0.312451899 ]
		},
		{
			"bufferView": 8,
			"count": 84,
			"type": "VEC3",
			"componentType": 5126
		},
		{
			"bufferView": 9,
			"count": 84,
			"type": "VEC4",
			"componentType": 5126
		},
		{
			"bufferView": 10,
			"count": 84,
			"type": "VEC2",
			"componentType": 5126
		},
		{
			"bufferView": 11,
			"count": 84,
			"type": "VEC2",
			"componentType": 5126
		}
	],
	"buffers": [
		{
			"uri": "SM_throne_chair_01_AEB3A958.bin",
			"byteLength": 208800
		}
	],
	"bufferViews": [
		{
			"buffer": 0,
			"byteLength": 18090,
			"target": 34963
		},
		{
			"buffer": 0,
			"byteLength": 39768,
			"byteOffset": 18092,
			"target": 34962
		},
		{
			"buffer": 0,
			"byteLength": 39768,
			"byteOffset": 57860,
			"target": 34962
		},
		{
			"buffer": 0,
			"byteLength": 53024,
			"byteOffset": 97628,
			"target": 34962
		},
		{
			"buffer": 0,
			"byteLength": 26512,
			"byteOffset": 150652,
			"target": 34962
		},
		{
			"buffer": 0,
			"byteLength": 26512,
			"byteOffset": 177164,
			"target": 34962
		},
		{
			"buffer": 0,
			"byteLength": 420,
			"byteOffset": 203676,
			"target": 34963
		},
		{
			"buffer": 0,
			"byteLength": 1008,
			"byteOffset": 204096,
			"target": 34962
		},
		{
			"buffer": 0,
			"byteLength": 1008,
			"byteOffset": 205104,
			"target": 34962
		},
		{
			"buffer": 0,
			"byteLength": 1344,
			"byteOffset": 206112,
			"target": 34962
		},
		{
			"buffer": 0,
			"byteLength": 672,
			"byteOffset": 207456,
			"target": 34962
		},
		{
			"buffer": 0,
			"byteLength": 672,
			"byteOffset": 208128,
			"target": 34962
		}
	],
	"images": [
		{
			"uri": "MI_Furniture_01_MetallicRoughness.png"
		},
		{
			"uri": "MI_Textile_BaseColor.png"
		},
		{
			"uri": "MI_Textile_MetallicRoughness.png"
		},
		{
			"uri": "MI_Textile_Normal.png"
		},
		{
			"uri": "T_Furniture_01_C.png"
		},
		{
			"uri": "T_Furniture_01_N.png"
		},
		{
			"uri": "T_Furniture_01_M.png"
		}
	],
	"materials": [
		{
			"name": "MI_Furniture_01",
			"pbrMetallicRoughness":
			{
				"baseColorTexture":
				{
					"index": 0
				},
				"metallicRoughnessTexture":
				{
					"index": 1
				}
			},
			"normalTexture":
			{
				"index": 2
			},
			"occlusionTexture":
			{
				"index": 3
			}
		},
		{
			"name": "MI_Textile",
			"pbrMetallicRoughness":
			{
				"baseColorTexture":
				{
					"index": 4
				},
				"metallicRoughnessTexture":
				{
					"index": 5
				}
			},
			"normalTexture":
			{
				"index": 6
			}
		}
	],
	"meshes": [
		{
			"name": "SM_throne_chair_01",
			"primitives": [
				{
					"attributes":
					{
						"POSITION": 1,
						"NORMAL": 2,
						"TANGENT": 3,
						"TEXCOORD_0": 4,
						"TEXCOORD_1": 5
					},
					"indices": 0,
					"material": 0
				},
				{
					"attributes":
					{
						"POSITION": 7,
						"NORMAL": 8,
						"TANGENT": 9,
						"TEXCOORD_0": 10,
						"TEXCOORD_1": 11
					},
					"indices": 6,
					"material": 1
				}
			]
		}
	],
	"nodes": [
		{
			"mesh": 0
		}
	],
	"samplers": [
		{
			"minFilter": 9987,
			"magFilter": 9729
		}
	],
	"scenes": [
		{
			"nodes": [ 0 ]
		}
	],
	"textures": [
		{
			"name": "T_Furniture_01_C",
			"sampler": 0,
			"source": 4
		},
		{
			"name": "MI_Furniture_01_MetallicRoughness",
			"sampler": 0,
			"source": 0
		},
		{
			"name": "T_Furniture_01_N",
			"sampler": 0,
			"source": 5
		},
		{
			"name": "T_Furniture_01_M",
			"sampler": 0,
			"source": 6
		},
		{
			"name": "MI_Textile_BaseColor",
			"sampler": 0,
			"source": 1
		},
		{
			"name": "MI_Textile_MetallicRoughness",
			"sampler": 0,
			"source": 2
		},
		{
			"name": "MI_Textile_Normal",
			"sampler": 0,
			"source": 3
		}
	]
}