{
	"asset":
	{
		"version": "2.0",
		"generator": "Unreal Engine 5.6.1"
	},
	"scene": 0,
	"accessors": [
		{
			"bufferView": 0,
			"count": 1944,
			"type": "SCALAR",
			"componentType": 5123
		},
		{
			"bufferView": 1,
			"count": 608,
			"type": "VEC3",
			"componentType": 5126,
			"min": [ -0.902499974, -3.66210929e-06, -0.85894531 ],
			"max": [ 0.821777344, 1.08789551, 0.845429659 ]
		},
		{
			"bufferView": 2,
			"count": 608,
			"type": "VEC3",
			"componentType": 5126
		},
		{
			"bufferView": 3,
			"count": 608,
			"type": "VEC4",
			"componentType": 5126
		},
		{
			"bufferView": 4,
			"count": 608,
			"type": "VEC2",
			"componentType": 5126
		},
		{
			"bufferView": 5,
			"count": 608,
			"type": "VEC2",
			"componentType": 5126
		},
		{
			"bufferView": 6,
			"count": 96,
			"type": "SCALAR",
			"componentType": 5121
		},
		{
			"bufferView": 7,
			"count": 56,
			"type": "VEC3",
			"componentType": 5126,
			"min": [ 1.53748047, 1.11213136, -2.3977344 ],
			"max": [ 7.53757811, 1.11213136, 13.6024799 ]
		},
		{
			"bufferView": 8,
			"count": 56,
			"type": "VEC3",
			"componentType": 5126
		},
		{
			"bufferView": 9,
			"count": 56,
			"type": "VEC4",
			"componentType": 5126
		},
		{
			"bufferView": 10,
			"count": 56,
			"type": "VEC2",
			"componentType": 5126
		},
		{
			"bufferView": 11,
			"count": 56,
			"type": "VEC2",
			"componentType": 5126
		},
		{
			"bufferView": 12,
			"count": 97626,
			"type": "SCALAR",
			"componentType": 5123
		},
		{
			"bufferView": 13,
			"count": 31038,
			"type": "VEC3",
			"componentType": 5126,
			"min": [ 0.463691384, 0.965966761, -5.12931633 ],
			"max": [ 8.60435486, 9.07638168, 16.3994331 ]
		},
		{
			"bufferView": 14,
			"count": 31038,
			"type": "VEC3",
			"componentType": 5126
		},
		{
			"bufferView": 15,
			"count": 31038,
			"type": "VEC4",
			"componentType": 5126
		},
		{
			"bufferView": 16,
			"count": 31038,
			"type": "VEC2",
			"componentType": 5126
		},
		{
			"bufferView": 17,
			"count": 31038,
			"type": "VEC2",
			"componentType": 5126
		},
		{
			"bufferView": 18,
			"count": 240984,
			"type": "SCALAR",
			"componentType": 5125
		},
		{
			"bufferView": 19,
			"count": 72555,
			"type": "VEC3",
			"componentType": 5126,
			"min": [ 2.88939452, 1.69585204, -0.894804657 ],
			"max": [ 6.36544895, 7.69166994, 11.9834566 ]
		},
		{
			"bufferView": 20,
			"count": 72555,
			"type": "VEC3",
			"componentType": 5126
		},
		{
			"bufferView": 21,
			"count": 72555,
			"type": "VEC4",
			"componentType": 5126
		},
		{
			"bufferView": 22,
			"count": 72555,
			"type": "VEC2",
			"componentType": 5126
		},
		{
			"bufferView": 23,
			"count": 72555,
			"type": "VEC2",
			"componentType": 5126
		},
		{
			"bufferView": 24,
			"count": 15552,
			"type": "SCALAR",
			"componentType": 5123
		},
		{
			"bufferView": 25,
			"count": 3708,
			"type": "VEC3",
			"componentType": 5126,
			"min": [ 2.88904285, 1.99926269, -0.881347656 ],
			"max": [ 6.36056614, 4.17370844, 11.9699993 ]
		},
		{
			"bufferView": 26,
			"count": 3708,
			"type": "VEC3",
			"componentType": 5126
		},
		{
			"bufferView": 27,
			"count": 3708,
			"type": "VEC4",
			"componentType": 5126
		},
		{
			"bufferView": 28,
			"count": 3708,
			"type": "VEC2",
			"componentType": 5126
		},
		{
			"bufferView": 29,
			"count": 3708,
			"type": "VEC2",
			"componentType": 5126
		},
		{
			"bufferView": 30,
			"count": 432,
			"type": "SCALAR",
			"componentType": 5123
		},
		{
			"bufferView": 31,
			"count": 288,
			"type": "VEC3",
			"componentType": 5126,
			"min": [ 2.90083981, 2.24163079, -0.869453132 ],
			"max": [ 6.34804678, 4.22804928, 11.9581051 ]
		},
		{
			"bufferView": 32,
			"count": 288,
			"type": "VEC3",
			"componentType": 5126
		},
		{
			"bufferView": 33,
			"count": 288,
			"type": "VEC4",
			"componentType": 5126
		},
		{
			"bufferView": 34,
			"count": 288,
			"type": "VEC2",
			"componentType": 5126
		},
		{
			"bufferView": 35,
			"count": 288,
			"type": "VEC2",
			"componentType": 5126
		},
		{
			"bufferView": 36,
			"count": 159156,
			"type": "SCALAR",
			"componentType": 5123
		},
		{
			"bufferView": 37,
			"count": 42399,
			"type": "VEC3",
			"componentType": 5126,
			"min": [ 1.84912109, 1.03505611, -2.18892574 ],
			"max": [ 7.23183584, 2.2250073, 11.1255465 ]
		},
		{
			"bufferView": 38,
			"count": 42399,
			"type": "VEC3",
			"componentType": 5126
		},
		{
			"bufferView": 39,
			"count": 42399,
			"type": "VEC4",
			"componentType": 5126
		},
		{
			"bufferView": 40,
			"count": 42399,
			"type": "VEC2",
			"componentType": 5126
		},
		{
			"bufferView": 41,
			"count": 42399,
			"type": "VEC2",
			"componentType": 5126
		},
		{
			"bufferView": 42,
			"count": 13728,
			"type": "SCALAR",
			"componentType": 5123
		},
		{
			"bufferView": 43,
			"count": 4368,
			"type": "VEC3",
			"componentType": 5126,
			"min": [ 0.702167928, -0.000341796869, -3.35093737 ],
			"max": [ 8.38648415, 1.08533084, 14.0147848 ]
		},
		{
			"bufferView": 44,
			"count": 4368,
			"type": "VEC3",
			"componentType": 5126
		},
		{
			"bufferView": 45,
			"count": 4368,
			"type": "VEC4",
			"componentType": 5126
		},
		{
			"bufferView": 46,
			"count": 4368,
			"type": "VEC2",
			"componentType": 5126
		},
		{
			"bufferView": 47,
			"count": 4368,
			"type": "VEC2",
			"componentType": 5126
		},
		{
			"bufferView": 48,
			"count": 48,
			"type": "SCALAR",
			"componentType": 5121
		},
		{
			"bufferView": 49,
			"count": 32,
			"type": "VEC3",
			"componentType": 5126,
			"min": [ 1.53384757, 1.00013185, -2.46488285 ],
			"max": [ 7.53404284, 1.00031614, 13.5350971 ]
		},
		{
			"bufferView": 50,
			"count": 32,
			"type": "VEC3",
			"componentType": 5126
		},
		{
			"bufferView": 51,
			"count": 32,
			"type": "VEC4",
			"componentType": 5126
		},
		{
			"bufferView": 52,
			"count": 32,
			"type": "VEC2",
			"componentType": 5126
		},
		{
			"bufferView": 53,
			"count": 32,
			"type": "VEC2",
			"componentType": 5126
		},
		{
			"bufferView": 54,
			"count": 1176,
			"type": "SCALAR",
			"componentType": 5123
		},
		{
			"bufferView": 55,
			"count": 336,
			"type": "VEC3",
			"componentType": 5126,
			"min": [ 1.49398434, 2.110708, -1.24132812 ],
			"max": [ 7.58476543, 3.22063947, 12.3246679 ]
		},
		{
			"bufferView": 56,
			"count": 336,
			"type": "VEC3",
			"componentType": 5126
		},
		{
			"bufferView": 57,
			"count": 336,
			"type": "VEC4",
			"componentType": 5126
		},
		{
			"bufferView": 58,
			"count": 336,
			"type": "VEC2",
			"componentType": 5126
		},
		{
			"bufferView": 59,
			"count": 336,
			"type": "VEC2",
			"componentType": 5126
		},
		{
			"bufferView": 60,
			"count": 3252,
			"type": "SCALAR",
			"componentType": 5123
		},
		{
			"bufferView": 61,
			"count": 818,
			"type": "VEC3",
			"componentType": 5126,
			"min": [ 1.53384757, 1.00013185, -2.49044919 ],
			"max": [ 7.54482412, 8.37802505, 13.5351954 ]
		},
		{
			"bufferView": 62,
			"count": 818,
			"type": "VEC3",
			"componentType": 5126
		},
		{
			"bufferView": 63,
			"count": 818,
			"type": "VEC4",
			"componentType": 5126
		},
		{
			"bufferView": 64,
			"count": 818,
			"type": "VEC2",
			"componentType": 5126
		},
		{
			"bufferView": 65,
			"count": 818,
			"type": "VEC2",
			"componentType": 5126
		},
		{
			"bufferView": 66,
			"count": 363360,
			"type": "SCALAR",
			"componentType": 5125
		},
		{
			"bufferView": 67,
			"count": 108480,
			"type": "VEC3",
			"componentType": 5126,
			"min": [ 0.209101558, 4.65067625, -4.23888683 ],
			"max": [ 8.85894489, 8.88950157, 15.50914 ]
		},
		{
			"bufferView": 68,
			"count": 108480,
			"type": "VEC3",
			"componentType": 5126
		},
		{
			"bufferView": 69,
			"count": 108480,
			"type": "VEC4",
			"componentType": 5126
		},
		{
			"bufferView": 70,
			"count": 108480,
			"type": "VEC2",
			"componentType": 5126
		},
		{
			"bufferView": 71,
			"count": 108480,
			"type": "VEC2",
			"componentType": 5126
		}
	],
	"buffers": [
		{
			"uri": "SM_Town_House_02_Merged.bin",
			"byteLength": 17825668
		}
	],
	"bufferViews": [
		{
			"buffer": 0,
			"byteLength": 3888,
			"target": 34963
		},
		{
			"buffer": 0,
			"byteLength": 7296,
			"byteOffset": 3888,
			"target": 34962
		},
		{
			"buffer": 0,
			"byteLength": 7296,
			"byteOffset": 11184,
			"target": 34962
		},
		{
			"buffer": 0,
			"byteLength": 9728,
			"byteOffset": 18480,
			"target": 34962
		},
		{
			"buffer": 0,
			"byteLength": 4864,
			"byteOffset": 28208,
			"target": 34962
		},
		{
			"buffer": 0,
			"byteLength": 4864,
			"byteOffset": 33072,
			"target": 34962
		},
		{
			"buffer": 0,
			"byteLength": 96,
			"byteOffset": 37936,
			"target": 34963
		},
		{
			"buffer": 0,
			"byteLength": 672,
			"byteOffset": 38032,
			"target": 34962
		},
		{
			"buffer": 0,
			"byteLength": 672,
			"byteOffset": 38704,
			"target": 34962
		},
		{
			"buffer": 0,
			"byteLength": 896,
			"byteOffset": 39376,
			"target": 34962
		},
		{
			"buffer": 0,
			"byteLength": 448,
			"byteOffset": 40272,
			"target": 34962
		},
		{
			"buffer": 0,
			"byteLength": 448,
			"byteOffset": 40720,
			"target": 34962
		},
		{
			"buffer": 0,
			"byteLength": 195252,
			"byteOffset": 41168,
			"target": 34963
		},
		{
			"buffer": 0,
			"byteLength": 372456,
			"byteOffset": 236420,
			"target": 34962
		},
		{
			"buffer": 0,
			"byteLength": 372456,
			"byteOffset": 608876,
			"target": 34962
		},
		{
			"buffer": 0,
			"byteLength": 496608,
			"byteOffset": 981332,
			"target": 34962
		},
		{
			"buffer": 0,
			"byteLength": 248304,
			"byteOffset": 1477940,
			"target": 34962
		},
		{
			"buffer": 0,
			"byteLength": 248304,
			"byteOffset": 1726244,
			"target": 34962
		},
		{
			"buffer": 0,
			"byteLength": 963936,
			"byteOffset": 1974548,
			"target": 34963
		},
		{
			"buffer": 0,
			"byteLength": 870660,
			"byteOffset": 2938484,
			"target": 34962
		},
		{
			"buffer": 0,
			"byteLength": 870660,
			"byteOffset": 3809144,
			"target": 34962
		},
		{
			"buffer": 0,
			"byteLength": 1160880,
			"byteOffset": 4679804,
			"target": 34962
		},
		{
			"buffer": 0,
			"byteLength": 580440,
			"byteOffset": 5840684,
			"target": 34962
		},
		{
			"buffer": 0,
			"byteLength": 580440,
			"byteOffset": 6421124,
			"target": 34962
		},
		{
			"buffer": 0,
			"byteLength": 31104,
			"byteOffset": 7001564,
			"target": 34963
		},
		{
			"buffer": 0,
			"byteLength": 44496,
			"byteOffset": 7032668,
			"target": 34962
		},
		{
			"buffer": 0,
			"byteLength": 44496,
			"byteOffset": 7077164,
			"target": 34962
		},
		{
			"buffer": 0,
			"byteLength": 59328,
			"byteOffset": 7121660,
			"target": 34962
		},
		{
			"buffer": 0,
			"byteLength": 29664,
			"byteOffset": 7180988,
			"target": 34962
		},
		{
			"buffer": 0,
			"byteLength": 29664,
			"byteOffset": 7210652,
			"target": 34962
		},
		{
			"buffer": 0,
			"byteLength": 864,
			"byteOffset": 7240316,
			"target": 34963
		},
		{
			"buffer": 0,
			"byteLength": 3456,
			"byteOffset": 7241180,
			"target": 34962
		},
		{
			"buffer": 0,
			"byteLength": 3456,
			"byteOffset": 7244636,
			"target": 34962
		},
		{
			"buffer": 0,
			"byteLength": 4608,
			"byteOffset": 7248092,
			"target": 34962
		},
		{
			"buffer": 0,
			"byteLength": 2304,
			"byteOffset": 7252700,
			"target": 34962
		},
		{
			"buffer": 0,
			"byteLength": 2304,
			"byteOffset": 7255004,
			"target": 34962
		},
		{
			"buffer": 0,
			"byteLength": 318312,
			"byteOffset": 7257308,
			"target": 34963
		},
		{
			"buffer": 0,
			"byteLength": 508788,
			"byteOffset": 7575620,
			"target": 34962
		},
		{
			"buffer": 0,
			"byteLength": 508788,
			"byteOffset": 8084408,
			"target": 34962
		},
		{
			"buffer": 0,
			"byteLength": 678384,
			"byteOffset": 8593196,
			"target": 34962
		},
		{
			"buffer": 0,
			"byteLength": 339192,
			"byteOffset": 9271580,
			"target": 34962
		},
		{
			"buffer": 0,
			"byteLength": 339192,
			"byteOffset": 9610772,
			"target": 34962
		},
		{
			"buffer": 0,
			"byteLength": 27456,
			"byteOffset": 9949964,
			"target": 34963
		},
		{
			"buffer": 0,
			"byteLength": 52416,
			"byteOffset": 9977420,
			"target": 34962
		},
		{
			"buffer": 0,
			"byteLength": 52416,
			"byteOffset": 10029836,
			"target": 34962
		},
		{
			"buffer": 0,
			"byteLength": 69888,
			"byteOffset": 10082252,
			"target": 34962
		},
		{
			"buffer": 0,
			"byteLength": 34944,
			"byteOffset": 10152140,
			"target": 34962
		},
		{
			"buffer": 0,
			"byteLength": 34944,
			"byteOffset": 10187084,
			"target": 34962
		},
		{
			"buffer": 0,
			"byteLength": 48,
			"byteOffset": 10222028,
			"target": 34963
		},
		{
			"buffer": 0,
			"byteLength": 384,
			"byteOffset": 10222076,
			"target": 34962
		},
		{
			"buffer": 0,
			"byteLength": 384,
			"byteOffset": 10222460,
			"target": 34962
		},
		{
			"buffer": 0,
			"byteLength": 512,
			"byteOffset": 10222844,
			"target": 34962
		},
		{
			"buffer": 0,
			"byteLength": 256,
			"byteOffset": 10223356,
			"target": 34962
		},
		{
			"buffer": 0,
			"byteLength": 256,
			"byteOffset": 10223612,
			"target": 34962
		},
		{
			"buffer": 0,
			"byteLength": 2352,
			"byteOffset": 10223868,
			"target": 34963
		},
		{
			"buffer": 0,
			"byteLength": 4032,
			"byteOffset": 10226220,
			"target": 34962
		},
		{
			"buffer": 0,
			"byteLength": 4032,
			"byteOffset": 10230252,
			"target": 34962
		},
		{
			"buffer": 0,
			"byteLength": 5376,
			"byteOffset": 10234284,
			"target": 34962
		},
		{
			"buffer": 0,
			"byteLength": 2688,
			"byteOffset": 10239660,
			"target": 34962
		},
		{
			"buffer": 0,
			"byteLength": 2688,
			"byteOffset": 10242348,
			"target": 34962
		},
		{
			"buffer": 0,
			"byteLength": 6504,
			"byteOffset": 10245036,
			"target": 34963
		},
		{
			"buffer": 0,
			"byteLength": 9816,
			"byteOffset": 10251540,
			"target": 34962
		},
		{
			"buffer": 0,
			"byteLength": 9816,
			"byteOffset": 10261356,
			"target": 34962
		},
		{
			"buffer": 0,
			"byteLength": 13088,
			"byteOffset": 10271172,
			"target": 34962
		},
		{
			"buffer": 0,
			"byteLength": 6544,
			"byteOffset": 10284260,
			"target": 34962
		},
		{
			"buffer": 0,
			"byteLength": 6544,
			"byteOffset": 10290804,
			"target": 34962
		},
		{
			"buffer": 0,
			"byteLength": 1453440,
			"byteOffset": 10297348,
			"target": 34963
		},
		{
			"buffer": 0,
			"byteLength": 1301760,
			"byteOffset": 11750788,
			"target": 34962
		},
		{
			"buffer": 0,
			"byteLength": 1301760,
			"byteOffset": 13052548,
			"target": 34962
		},
		{
			"buffer": 0,
			"byteLength": 1735680,
			"byteOffset": 14354308,
			"target": 34962
		},
		{
			"buffer": 0,
			"byteLength": 867840,
			"byteOffset": 16089988,
			"target": 34962
		},
		{
			"buffer": 0,
			"byteLength": 867840,
			"byteOffset": 16957828,
			"target": 34962
		}
	],
	"images": [
		{
			"uri": "MI_Stone_Props_01_MetallicRoughness.png"
		},
		{
			"uri": "M_Wood_Floor_Inst_2Side_BaseColor.png"
		},
		{
			"uri": "M_Wood_Floor_Inst_2Side_MetallicRoughness.png"
		},
		{
			"uri": "M_Wood_Floor_Inst_2Side_Normal.png"
		},
		{
			"uri": "M_Wood_Floor_Inst_2Side_Occlusion.png"
		},
		{
			"uri": "MI_Wood_Trim_With2Side_BaseColor.png"
		},
		{
			"uri": "MI_Wood_Trim_With2Side_MetallicRoughness.png"
		},
		{
			"uri": "MI_Wood_Trim_With2Side_Occlusion.png"
		},
		{
			"uri": "MI_Light_props_MetallicRoughness.png"
		},
		{
			"uri": "MI_Candle_MetallicRoughness.png"
		},
		{
			"uri": "MI_Furniture_01_MetallicRoughness.png"
		},
		{
			"uri": "MI_Stones_BaseColor.png"
		},
		{
			"uri": "MI_Stones_MetallicRoughness.png"
		},
		{
			"uri": "MI_Styl_Wall_Brick_02_SM_Town_House_02_Merged_BaseColor.png"
		},
		{
			"uri": "MI_Styl_Wall_Brick_02_SM_Town_House_02_Merged_MetallicRoughness.png"
		},
		{
			"uri": "MI_Styl_Wall_Brick_02_SM_Town_House_02_Merged_Normal.png"
		},
		{
			"uri": "MI_Styl_Wall_Brick_02_SM_Town_House_02_Merged_Occlusion.png"
		},
		{
			"uri": "MI_Glass_Normal.png"
		},
		{
			"uri": "MI_Styl_Wall_Plaster_SM_Town_House_02_Merged_BaseColor.png"
		},
		{
			"uri": "MI_Styl_Wall_Plaster_SM_Town_House_02_Merged_MetallicRoughness.png"
		},
		{
			"uri": "MI_Styl_Wall_Plaster_SM_Town_House_02_Merged_Normal.png"
		},
		{
			"uri": "MI_Styl_Wall_Plaster_SM_Town_House_02_Merged_Occlusion.png"
		},
		{
			"uri": "MI_Roof_Tile_BaseColor.png"
		},
		{
			"uri": "MI_Roof_Tile_MetallicRoughness.png"
		},
		{
			"uri": "MI_Roof_Tile_Occlusion.png"
		},
		{
			"uri": "T_Rocks_C.png"
		},
		{
			"uri": "T_Rocks_N.png"
		},
		{
			"uri": "T_Rocks_M.png"
		},
		{
			"uri": "T_Wood_Trim_N.png"
		},
		{
			"uri": "T_Light_C.png"
		},
		{
			"uri": "T_Light_N.png"
		},
		{
			"uri": "T_Light_M.png"
		},
		{
			"uri": "T_candle_C.png"
		},
		{
			"uri": "T_candle_N.png"
		},
		{
			"uri": "T_candle_M.png"
		},
		{
			"uri": "T_Furniture_01_C.png"
		},
		{
			"uri": "T_Furniture_01_N.png"
		},
		{
			"uri": "T_Furniture_01_M.png"
		},
		{
			"uri": "T_Stone_N.png"
		},
		{
			"uri": "T_Roof_N.png"
		}
	],
	"materials": [
		{
			"name": "MI_Stone_Props_01",
			"pbrMetallicRoughness":
			{
				"baseColorTexture":
				{
					"index": 0
				},
				"metallicRoughnessTexture":
				{
					"index": 1
				}
			},
			"normalTexture":
			{
				"index": 2
			},
			"occlusionTexture":
			{
				"index": 3
			}
		},
		{
			"name": "M_Wood_Floor_Inst_2Side",
			"pbrMetallicRoughness":
			{
				"baseColorTexture":
				{
					"index": 4
				},
				"metallicRoughnessTexture":
				{
					"index": 5
				}
			},
			"normalTexture":
			{
				"index": 6
			},
			"occlusionTexture":
			{
				"index": 7
			},
			"doubleSided": true
		},
		{
			"name": "MI_Wood_Trim_With2Side",
			"pbrMetallicRoughness":
			{
				"baseColorTexture":
				{
					"index": 8
				},
				"metallicRoughnessTexture":
				{
					"index": 9
				}
			},
			"normalTexture":
			{
				"index": 10
			},
			"occlusionTexture":
			{
				"index": 11
			},
			"doubleSided": true
		},
		{
			"name": "MI_Light_props",
			"pbrMetallicRoughness":
			{
				"baseColorTexture":
				{
					"index": 12
				},
				"metallicRoughnessTexture":
				{
					"index": 13
				}
			},
			"normalTexture":
			{
				"index": 14
			},
			"occlusionTexture":
			{
				"index": 15
			}
		},
		{
			"name": "MI_Candle",
			"pbrMetallicRoughness":
			{
				"baseColorTexture":
				{
					"index": 16
				},
				"metallicRoughnessTexture":
				{
					"index": 17
				}
			},
			"normalTexture":
			{
				"index": 18
			},
			"occlusionTexture":
			{
				"index": 19
			},
			"alphaMode": "MASK",
			"alphaCutoff": 0.333299994
		},
		{
			"name": "MI_Candle_light",
			"pbrMetallicRoughness":
			{
				"baseColorFactor": [ 0, 0, 0, 0.690196097 ],
				"metallicFactor": 0,
				"roughnessFactor": 0.5
			},
			"emissiveFactor": [ 1, 0.764705956, 0.313725501 ],
			"alphaMode": "BLEND",
			"doubleSided": true,
			"extensions":
			{
				"KHR_materials_ior":
				{
					"ior": 1
				}
			}
		},
		{
			"name": "MI_Furniture_01",
			"pbrMetallicRoughness":
			{
				"baseColorTexture":
				{
					"index": 20
				},
				"metallicRoughnessTexture":
				{
					"index": 21
				}
			},
			"normalTexture":
			{
				"index": 22
			},
			"occlusionTexture":
			{
				"index": 23
			}
		},
		{
			"name": "MI_Stones",
			"pbrMetallicRoughness":
			{
				"baseColorTexture":
				{
					"index": 24
				},
				"metallicRoughnessTexture":
				{
					"index": 25
				}
			},
			"normalTexture":
			{
				"index": 26
			}
		},
		{
			"name": "MI_Styl_Wall_Brick_02_SM_Town_House_02_Merged",
			"pbrMetallicRoughness":
			{
				"baseColorTexture":
				{
					"index": 27,
					"texCoord": 1,
					"extensions":
					{
						"KHR_texture_transform":
						{
							"offset": [ -0.00347530912, -0.00352699938 ],
							"scale": [ 1.7655648, 1.79182506 ]
						}
					}
				},
				"metallicRoughnessTexture":
				{
					"index": 28,
					"texCoord": 1,
					"extensions":
					{
						"KHR_texture_transform":
						{
							"offset": [ -0.00347530912, -0.00352699938 ],
							"scale": [ 1.7655648, 1.79182506 ]
						}
					}
				}
			},
			"normalTexture":
			{
				"index": 29,
				"texCoord": 1,
				"extensions":
				{
					"KHR_texture_transform":
					{
						"offset": [ -0.00347530912, -0.00352699938 ],
						"scale": [ 1.7655648, 1.79182506 ]
					}
				}
			},
			"occlusionTexture":
			{
				"index": 30,
				"texCoord": 1,
				"extensions":
				{
					"KHR_texture_transform":
					{
						"offset": [ -0.00347530912, -0.00352699938 ],
						"scale": [ 1.7655648, 1.79182506 ]
					}
				}
			}
		},
		{
			"name": "MI_Glass",
			"pbrMetallicRoughness":
			{
				"baseColorFactor": [ 0.0378840007, 0.0417999998, 0.0520830005, 1 ],
				"metallicFactor": 0,
				"roughnessFactor": 0.100000001
			},
			"normalTexture":
			{
				"index": 31
			},
			"doubleSided": true
		},
		{
			"name": "MI_Styl_Wall_Plaster_SM_Town_House_02_Merged",
			"pbrMetallicRoughness":
			{
				"baseColorTexture":
				{
					"index": 32,
					"texCoord": 1,
					"extensions":
					{
						"KHR_texture_transform":
						{
							"offset": [ -0.00334552256, -0.00202578562 ],
							"scale": [ 1.69962919, 1.02916193 ]
						}
					}
				},
				"metallicRoughnessTexture":
				{
					"index": 33,
					"texCoord": 1,
					"extensions":
					{
						"KHR_texture_transform":
						{
							"offset": [ -0.00334552256, -0.00202578562 ],
							"scale": [ 1.69962919, 1.02916193 ]
						}
					}
				}
			},
			"normalTexture":
			{
				"index": 34,
				"texCoord": 1,
				"extensions":
				{
					"KHR_texture_transform":
					{
						"offset": [ -0.00334552256, -0.00202578562 ],
						"scale": [ 1.69962919, 1.02916193 ]
					}
				}
			},
			"occlusionTexture":
			{
				"index": 35,
				"texCoord": 1,
				"extensions":
				{
					"KHR_texture_transform":
					{
						"offset": [ -0.00334552256, -0.00202578562 ],
						"scale": [ 1.69962919, 1.02916193 ]
					}
				}
			},
			"doubleSided": true
		},
		{
			"name": "MI_Roof_Tile",
			"pbrMetallicRoughness":
			{
				"baseColorTexture":
				{
					"index": 36
				},
				"metallicRoughnessTexture":
				{
					"index": 37
				}
			},
			"normalTexture":
			{
				"index": 38
			},
			"occlusionTexture":
			{
				"index": 39
			}
		}
	],
	"meshes": [
		{
			"name": "SM_Town_House_02_Merged",
			"primitives": [
				{
					"attributes":
					{
						"POSITION": 1,
						"NORMAL": 2,
						"TANGENT": 3,
						"TEXCOORD_0": 4,
						"TEXCOORD_1": 5
					},
					"indices": 0,
					"material": 0
				},
				{
					"attributes":
					{
						"POSITION": 7,
						"NORMAL": 8,
						"TANGENT": 9,
						"TEXCOORD_0": 10,
						"TEXCOORD_1": 11
					},
					"indices": 6,
					"material": 1
				},
				{
					"attributes":
					{
						"POSITION": 13,
						"NORMAL": 14,
						"TANGENT": 15,
						"TEXCOORD_0": 16,
						"TEXCOORD_1": 17
					},
					"indices": 12,
					"material": 2
				},
				{
					"attributes":
					{
						"POSITION": 19,
						"NORMAL": 20,
						"TANGENT": 21,
						"TEXCOORD_0": 22,
						"TEXCOORD_1": 23
					},
					"indices": 18,
					"material": 3
				},
				{
					"attributes":
					{
						"POSITION": 25,
						"NORMAL": 26,
						"TANGENT": 27,
						"TEXCOORD_0": 28,
						"TEXCOORD_1": 29
					},
					"indices": 24,
					"material": 4
				},
				{
					"attributes":
					{
						"POSITION": 31,
						"NORMAL": 32,
						"TANGENT": 33,
						"TEXCOORD_0": 34,
						"TEXCOORD_1": 35
					},
					"indices": 30,
					"material": 5
				},
				{
					"attributes":
					{
						"POSITION": 37,
						"NORMAL": 38,
						"TANGENT": 39,
						"TEXCOORD_0": 40,
						"TEXCOORD_1": 41
					},
					"indices": 36,
					"material": 6
				},
				{
					"attributes":
					{
						"POSITION": 43,
						"NORMAL": 44,
						"TANGENT": 45,
						"TEXCOORD_0": 46,
						"TEXCOORD_1": 47
					},
					"indices": 42,
					"material": 7
				},
				{
					"attributes":
					{
						"POSITION": 49,
						"NORMAL": 50,
						"TANGENT": 51,
						"TEXCOORD_0": 52,
						"TEXCOORD_1": 53
					},
					"indices": 48,
					"material": 8
				},
				{
					"attributes":
					{
						"POSITION": 55,
						"NORMAL": 56,
						"TANGENT": 57,
						"TEXCOORD_0": 58,
						"TEXCOORD_1": 59
					},
					"indices": 54,
					"material": 9
				},
				{
					"attributes":
					{
						"POSITION": 61,
						"NORMAL": 62,
						"TANGENT": 63,
						"TEXCOORD_0": 64,
						"TEXCOORD_1": 65
					},
					"indices": 60,
					"material": 10
				},
				{
					"attributes":
					{
						"POSITION": 67,
						"NORMAL": 68,
						"TANGENT": 69,
						"TEXCOORD_0": 70,
						"TEXCOORD_1": 71
					},
					"indices": 66,
					"material": 11
				}
			]
		}
	],
	"nodes": [
		{
			"mesh": 0
		}
	],
	"samplers": [
		{
			"minFilter": 9987,
			"magFilter": 9729
		}
	],
	"scenes": [
		{
			"nodes": [ 0 ]
		}
	],
	"textures": [
		{
			"name": "T_Rocks_C",
			"sampler": 0,
			"source": 25
		},
		{
			"name": "MI_Stone_Props_01_MetallicRoughness",
			"sampler": 0,
			"source": 0
		},
		{
			"name": "T_Rocks_N",
			"sampler": 0,
			"source": 26
		},
		{
			"name": "T_Rocks_M",
			"sampler": 0,
			"source": 27
		},
		{
			"name": "M_Wood_Floor_Inst_2Side_BaseColor",
			"sampler": 0,
			"source": 1
		},
		{
			"name": "M_Wood_Floor_Inst_2Side_MetallicRoughness",
			"sampler": 0,
			"source": 2
		},
		{
			"name": "M_Wood_Floor_Inst_2Side_Normal",
			"sampler": 0,
			"source": 3
		},
		{
			"name": "M_Wood_Floor_Inst_2Side_Occlusion",
			"sampler": 0,
			"source": 4
		},
		{
			"name": "MI_Wood_Trim_With2Side_BaseColor",
			"sampler": 0,
			"source": 5
		},
		{
			"name": "MI_Wood_Trim_With2Side_MetallicRoughness",
			"sampler": 0,
			"source": 6
		},
		{
			"name": "T_Wood_Trim_N",
			"sampler": 0,
			"source": 28
		},
		{
			"name": "MI_Wood_Trim_With2Side_Occlusion",
			"sampler": 0,
			"source": 7
		},
		{
			"name": "T_Light_C",
			"sampler": 0,
			"source": 29
		},
		{
			"name": "MI_Light_props_MetallicRoughness",
			"sampler": 0,
			"source": 8
		},
		{
			"name": "T_Light_N",
			"sampler": 0,
			"source": 30
		},
		{
			"name": "T_Light_M",
			"sampler": 0,
			"source": 31
		},
		{
			"name": "T_candle_C",
			"sampler": 0,
			"source": 32
		},
		{
			"name": "MI_Candle_MetallicRoughness",
			"sampler": 0,
			"source": 9
		},
		{
			"name": "T_candle_N",
			"sampler": 0,
			"source": 33
		},
		{
			"name": "T_candle_M",
			"sampler": 0,
			"source": 34
		},
		{
			"name": "T_Furniture_01_C",
			"sampler": 0,
			"source": 35
		},
		{
			"name": "MI_Furniture_01_MetallicRoughness",
			"sampler": 0,
			"source": 10
		},
		{
			"name": "T_Furniture_01_N",
			"sampler": 0,
			"source": 36
		},
		{
			"name": "T_Furniture_01_M",
			"sampler": 0,
			"source": 37
		},
		{
			"name": "MI_Stones_BaseColor",
			"sampler": 0,
			"source": 11
		},
		{
			"name": "MI_Stones_MetallicRoughness",
			"sampler": 0,
			"source": 12
		},
		{
			"name": "T_Stone_N",
			"sampler": 0,
			"source": 38
		},
		{
			"name": "MI_Styl_Wall_Brick_02_SM_Town_House_02_Merged_BaseColor",
			"sampler": 0,
			"source": 13
		},
		{
			"name": "MI_Styl_Wall_Brick_02_SM_Town_House_02_Merged_MetallicRoughness",
			"sampler": 0,
			"source": 14
		},
		{
			"name": "MI_Styl_Wall_Brick_02_SM_Town_House_02_Merged_Normal",
			"sampler": 0,
			"source": 15
		},
		{
			"name": "MI_Styl_Wall_Brick_02_SM_Town_House_02_Merged_Occlusion",
			"sampler": 0,
			"source": 16
		},
		{
			"name": "MI_Glass_Normal",
			"sampler": 0,
			"source": 17
		},
		{
			"name": "MI_Styl_Wall_Plaster_SM_Town_House_02_Merged_BaseColor",
			"sampler": 0,
			"source": 18
		},
		{
			"name": "MI_Styl_Wall_Plaster_SM_Town_House_02_Merged_MetallicRoughness",
			"sampler": 0,
			"source": 19
		},
		{
			"name": "MI_Styl_Wall_Plaster_SM_Town_House_02_Merged_Normal",
			"sampler": 0,
			"source": 20
		},
		{
			"name": "MI_Styl_Wall_Plaster_SM_Town_House_02_Merged_Occlusion",
			"sampler": 0,
			"source": 21
		},
		{
			"name": "MI_Roof_Tile_BaseColor",
			"sampler": 0,
			"source": 22
		},
		{
			"name": "MI_Roof_Tile_MetallicRoughness",
			"sampler": 0,
			"source": 23
		},
		{
			"name": "T_Roof_N",
			"sampler": 0,
			"source": 39
		},
		{
			"name": "MI_Roof_Tile_Occlusion",
			"sampler": 0,
			"source": 24
		}
	],
	"extensionsUsed": [
		"KHR_materials_ior",
		"KHR_texture_transform"
	]
}