{
	"asset":
	{
		"version": "2.0",
		"generator": "Unreal Engine 5.6.1"
	},
	"scene": 0,
	"accessors": [
		{
			"bufferView": 0,
			"count": 9552,
			"type": "SCALAR",
			"componentType": 5123
		},
		{
			"bufferView": 1,
			"count": 2867,
			"type": "VEC3",
			"componentType": 5126,
			"min": [ -11.1622486, 7.2012341e-07, -11.1597996 ],
			"max": [ 10.7243538, 9.52700424, 10.9253674 ]
		},
		{
			"bufferView": 2,
			"count": 2867,
			"type": "VEC3",
			"componentType": 5126
		},
		{
			"bufferView": 3,
			"count": 2867,
			"type": "VEC4",
			"componentType": 5126
		},
		{
			"bufferView": 4,
			"count": 2867,
			"type": "VEC2",
			"componentType": 5126
		},
		{
			"bufferView": 5,
			"count": 2867,
			"type": "VEC2",
			"componentType": 5126
		},
		{
			"bufferView": 6,
			"count": 2412,
			"type": "SCALAR",
			"componentType": 5123
		},
		{
			"bufferView": 7,
			"count": 748,
			"type": "VEC3",
			"componentType": 5126,
			"min": [ -11.4765148, -1.08550966, -11.4806719 ],
			"max": [ 11.4584808, 9.2202177, 11.4625092 ]
		},
		{
			"bufferView": 8,
			"count": 748,
			"type": "VEC3",
			"componentType": 5126
		},
		{
			"bufferView": 9,
			"count": 748,
			"type": "VEC4",
			"componentType": 5126
		},
		{
			"bufferView": 10,
			"count": 748,
			"type": "VEC2",
			"componentType": 5126
		},
		{
			"bufferView": 11,
			"count": 748,
			"type": "VEC2",
			"componentType": 5126
		}
	],
	"buffers": [
		{
			"uri": "SM_tower_big_body_02_73B597AC.bin",
			"byteLength": 226368
		}
	],
	"bufferViews": [
		{
			"buffer": 0,
			"byteLength": 19104,
			"target": 34963
		},
		{
			"buffer": 0,
			"byteLength": 34404,
			"byteOffset": 19104,
			"target": 34962
		},
		{
			"buffer": 0,
			"byteLength": 34404,
			"byteOffset": 53508,
			"target": 34962
		},
		{
			"buffer": 0,
			"byteLength": 45872,
			"byteOffset": 87912,
			"target": 34962
		},
		{
			"buffer": 0,
			"byteLength": 22936,
			"byteOffset": 133784,
			"target": 34962
		},
		{
			"buffer": 0,
			"byteLength": 22936,
			"byteOffset": 156720,
			"target": 34962
		},
		{
			"buffer": 0,
			"byteLength": 4824,
			"byteOffset": 179656,
			"target": 34963
		},
		{
			"buffer": 0,
			"byteLength": 8976,
			"byteOffset": 184480,
			"target": 34962
		},
		{
			"buffer": 0,
			"byteLength": 8976,
			"byteOffset": 193456,
			"target": 34962
		},
		{
			"buffer": 0,
			"byteLength": 11968,
			"byteOffset": 202432,
			"target": 34962
		},
		{
			"buffer": 0,
			"byteLength": 5984,
			"byteOffset": 214400,
			"target": 34962
		},
		{
			"buffer": 0,
			"byteLength": 5984,
			"byteOffset": 220384,
			"target": 34962
		}
	],
	"images": [
		{
			"uri": "MI_Brick_02_BaseColor.png"
		},
		{
			"uri": "MI_Brick_02_MetallicRoughness.png"
		},
		{
			"uri": "MI_Brick_02_Normal.png"
		},
		{
			"uri": "MI_Brick_02_Occlusion.png"
		},
		{
			"uri": "MI_Styl_Wall_Brick_02_SM_tower_big_body_02_BaseColor.png"
		},
		{
			"uri": "MI_Styl_Wall_Brick_02_SM_tower_big_body_02_MetallicRoughness.png"
		},
		{
			"uri": "MI_Styl_Wall_Brick_02_SM_tower_big_body_02_Normal.png"
		},
		{
			"uri": "MI_Styl_Wall_Brick_02_SM_tower_big_body_02_Occlusion.png"
		}
	],
	"materials": [
		{
			"name": "MI_Brick_02",
			"pbrMetallicRoughness":
			{
				"baseColorTexture":
				{
					"index": 0
				},
				"metallicRoughnessTexture":
				{
					"index": 1
				}
			},
			"normalTexture":
			{
				"index": 2
			},
			"occlusionTexture":
			{
				"index": 3
			}
		},
		{
			"name": "MI_Styl_Wall_Brick_02_SM_tower_big_body_02",
			"pbrMetallicRoughness":
			{
				"baseColorTexture":
				{
					"index": 4,
					"texCoord": 1,
					"extensions":
					{
						"KHR_texture_transform":
						{
							"offset": [ -0.00711263949, -0.00741991494 ],
							"scale": [ 1.01554239, 1.06405151 ]
						}
					}
				},
				"metallicRoughnessTexture":
				{
					"index": 5,
					"texCoord": 1,
					"extensions":
					{
						"KHR_texture_transform":
						{
							"offset": [ -0.00711263949, -0.00741991494 ],
							"scale": [ 1.01554239, 1.06405151 ]
						}
					}
				}
			},
			"normalTexture":
			{
				"index": 6,
				"texCoord": 1,
				"extensions":
				{
					"KHR_texture_transform":
					{
						"offset": [ -0.00711263949, -0.00741991494 ],
						"scale": [ 1.01554239, 1.06405151 ]
					}
				}
			},
			"occlusionTexture":
			{
				"index": 7,
				"texCoord": 1,
				"extensions":
				{
					"KHR_texture_transform":
					{
						"offset": [ -0.00711263949, -0.00741991494 ],
						"scale": [ 1.01554239, 1.06405151 ]
					}
				}
			}
		}
	],
	"meshes": [
		{
			"name": "SM_tower_big_body_02",
			"primitives": [
				{
					"attributes":
					{
						"POSITION": 1,
						"NORMAL": 2,
						"TANGENT": 3,
						"TEXCOORD_0": 4,
						"TEXCOORD_1": 5
					},
					"indices": 0,
					"material": 0
				},
				{
					"attributes":
					{
						"POSITION": 7,
						"NORMAL": 8,
						"TANGENT": 9,
						"TEXCOORD_0": 10,
						"TEXCOORD_1": 11
					},
					"indices": 6,
					"material": 1
				}
			]
		}
	],
	"nodes": [
		{
			"mesh": 0
		}
	],
	"samplers": [
		{
			"minFilter": 9987,
			"magFilter": 9729
		}
	],
	"scenes": [
		{
			"nodes": [ 0 ]
		}
	],
	"textures": [
		{
			"name": "MI_Brick_02_BaseColor",
			"sampler": 0,
			"source": 0
		},
		{
			"name": "MI_Brick_02_MetallicRoughness",
			"sampler": 0,
			"source": 1
		},
		{
			"name": "MI_Brick_02_Normal",
			"sampler": 0,
			"source": 2
		},
		{
			"name": "MI_Brick_02_Occlusion",
			"sampler": 0,
			"source": 3
		},
		{
			"name": "MI_Styl_Wall_Brick_02_SM_tower_big_body_02_BaseColor",
			"sampler": 0,
			"source": 4
		},
		{
			"name": "MI_Styl_Wall_Brick_02_SM_tower_big_body_02_MetallicRoughness",
			"sampler": 0,
			"source": 5
		},
		{
			"name": "MI_Styl_Wall_Brick_02_SM_tower_big_body_02_Normal",
			"sampler": 0,
			"source": 6
		},
		{
			"name": "MI_Styl_Wall_Brick_02_SM_tower_big_body_02_Occlusion",
			"sampler": 0,
			"source": 7
		}
	],
	"extensionsUsed": [
		"KHR_texture_transform"
	]
}