{
	"asset":
	{
		"version": "2.0",
		"generator": "Unreal Engine 5.6.1"
	},
	"scene": 0,
	"accessors": [
		{
			"bufferView": 0,
			"count": 1722,
			"type": "SCALAR",
			"componentType": 5123
		},
		{
			"bufferView": 1,
			"count": 570,
			"type": "VEC3",
			"componentType": 5126,
			"min": [ -3.90595508, -1.736233e-06, -3.9057188 ],
			"max": [ 3.90569592, 0.52028501, 3.90681887 ]
		},
		{
			"bufferView": 2,
			"count": 570,
			"type": "VEC3",
			"componentType": 5126
		},
		{
			"bufferView": 3,
			"count": 570,
			"type": "VEC4",
			"componentType": 5126
		},
		{
			"bufferView": 4,
			"count": 570,
			"type": "VEC2",
			"componentType": 5126
		},
		{
			"bufferView": 5,
			"count": 570,
			"type": "VEC2",
			"componentType": 5126
		}
	],
	"buffers": [
		{
			"uri": "SM_tower_big_floor_01_FE90B952.bin",
			"byteLength": 35364
		}
	],
	"bufferViews": [
		{
			"buffer": 0,
			"byteLength": 3444,
			"target": 34963
		},
		{
			"buffer": 0,
			"byteLength": 6840,
			"byteOffset": 3444,
			"target": 34962
		},
		{
			"buffer": 0,
			"byteLength": 6840,
			"byteOffset": 10284,
			"target": 34962
		},
		{
			"buffer": 0,
			"byteLength": 9120,
			"byteOffset": 17124,
			"target": 34962
		},
		{
			"buffer": 0,
			"byteLength": 4560,
			"byteOffset": 26244,
			"target": 34962
		},
		{
			"buffer": 0,
			"byteLength": 4560,
			"byteOffset": 30804,
			"target": 34962
		}
	],
	"images": [
		{
			"uri": "MI_Floor_Brick_01_BaseColor.png"
		},
		{
			"uri": "MI_Floor_Brick_01_MetallicRoughness.png"
		},
		{
			"uri": "MI_Floor_Brick_01_Normal.png"
		},
		{
			"uri": "MI_Floor_Brick_01_Occlusion.png"
		}
	],
	"materials": [
		{
			"name": "MI_Floor_Brick_01",
			"pbrMetallicRoughness":
			{
				"baseColorTexture":
				{
					"index": 0
				},
				"metallicRoughnessTexture":
				{
					"index": 1
				}
			},
			"normalTexture":
			{
				"index": 2
			},
			"occlusionTexture":
			{
				"index": 3
			}
		}
	],
	"meshes": [
		{
			"name": "SM_tower_big_floor_01",
			"primitives": [
				{
					"attributes":
					{
						"POSITION": 1,
						"NORMAL": 2,
						"TANGENT": 3,
						"TEXCOORD_0": 4,
						"TEXCOORD_1": 5
					},
					"indices": 0,
					"material": 0
				}
			]
		}
	],
	"nodes": [
		{
			"mesh": 0
		}
	],
	"samplers": [
		{
			"minFilter": 9987,
			"magFilter": 9729
		}
	],
	"scenes": [
		{
			"nodes": [ 0 ]
		}
	],
	"textures": [
		{
			"name": "MI_Floor_Brick_01_BaseColor",
			"sampler": 0,
			"source": 0
		},
		{
			"name": "MI_Floor_Brick_01_MetallicRoughness",
			"sampler": 0,
			"source": 1
		},
		{
			"name": "MI_Floor_Brick_01_Normal",
			"sampler": 0,
			"source": 2
		},
		{
			"name": "MI_Floor_Brick_01_Occlusion",
			"sampler": 0,
			"source": 3
		}
	]
}