{
	"asset":
	{
		"version": "2.0",
		"generator": "Unreal Engine 5.6.1"
	},
	"scene": 0,
	"accessors": [
		{
			"bufferView": 0,
			"count": 312,
			"type": "SCALAR",
			"componentType": 5121
		},
		{
			"bufferView": 1,
			"count": 148,
			"type": "VEC3",
			"componentType": 5126,
			"min": [ -5.50034285, -3.36777865e-16, -5.50205564 ],
			"max": [ 5.50001192, 20.6600189, 5.50000238 ]
		},
		{
			"bufferView": 2,
			"count": 148,
			"type": "VEC3",
			"componentType": 5126
		},
		{
			"bufferView": 3,
			"count": 148,
			"type": "VEC4",
			"componentType": 5126
		},
		{
			"bufferView": 4,
			"count": 148,
			"type": "VEC2",
			"componentType": 5126
		},
		{
			"bufferView": 5,
			"count": 148,
			"type": "VEC2",
			"componentType": 5126
		},
		{
			"bufferView": 6,
			"count": 30,
			"type": "SCALAR",
			"componentType": 5121
		},
		{
			"bufferView": 7,
			"count": 14,
			"type": "VEC3",
			"componentType": 5126,
			"min": [ -5.5, 16.1695557, -4.90262699 ],
			"max": [ 5.50001192, 16.1707249, 4.90263033 ]
		},
		{
			"bufferView": 8,
			"count": 14,
			"type": "VEC3",
			"componentType": 5126
		},
		{
			"bufferView": 9,
			"count": 14,
			"type": "VEC4",
			"componentType": 5126
		},
		{
			"bufferView": 10,
			"count": 14,
			"type": "VEC2",
			"componentType": 5126
		},
		{
			"bufferView": 11,
			"count": 14,
			"type": "VEC2",
			"componentType": 5126
		},
		{
			"bufferView": 12,
			"count": 816,
			"type": "SCALAR",
			"componentType": 5123
		},
		{
			"bufferView": 13,
			"count": 482,
			"type": "VEC3",
			"componentType": 5126,
			"min": [ -6.51883125, 15.5988188, -1.4852035 ],
			"max": [ 6.51883125, 20.0709057, 1.02491415 ]
		},
		{
			"bufferView": 14,
			"count": 482,
			"type": "VEC3",
			"componentType": 5126
		},
		{
			"bufferView": 15,
			"count": 482,
			"type": "VEC4",
			"componentType": 5126
		},
		{
			"bufferView": 16,
			"count": 482,
			"type": "VEC2",
			"componentType": 5126
		},
		{
			"bufferView": 17,
			"count": 482,
			"type": "VEC2",
			"componentType": 5126
		}
	],
	"buffers": [
		{
			"uri": "SM_tower_big_body_02.bin",
			"byteLength": 38040
		}
	],
	"bufferViews": [
		{
			"buffer": 0,
			"byteLength": 312,
			"target": 34963
		},
		{
			"buffer": 0,
			"byteLength": 1776,
			"byteOffset": 312,
			"target": 34962
		},
		{
			"buffer": 0,
			"byteLength": 1776,
			"byteOffset": 2088,
			"target": 34962
		},
		{
			"buffer": 0,
			"byteLength": 2368,
			"byteOffset": 3864,
			"target": 34962
		},
		{
			"buffer": 0,
			"byteLength": 1184,
			"byteOffset": 6232,
			"target": 34962
		},
		{
			"buffer": 0,
			"byteLength": 1184,
			"byteOffset": 7416,
			"target": 34962
		},
		{
			"buffer": 0,
			"byteLength": 30,
			"byteOffset": 8600,
			"target": 34963
		},
		{
			"buffer": 0,
			"byteLength": 168,
			"byteOffset": 8632,
			"target": 34962
		},
		{
			"buffer": 0,
			"byteLength": 168,
			"byteOffset": 8800,
			"target": 34962
		},
		{
			"buffer": 0,
			"byteLength": 224,
			"byteOffset": 8968,
			"target": 34962
		},
		{
			"buffer": 0,
			"byteLength": 112,
			"byteOffset": 9192,
			"target": 34962
		},
		{
			"buffer": 0,
			"byteLength": 112,
			"byteOffset": 9304,
			"target": 34962
		},
		{
			"buffer": 0,
			"byteLength": 1632,
			"byteOffset": 9416,
			"target": 34963
		},
		{
			"buffer": 0,
			"byteLength": 5784,
			"byteOffset": 11048,
			"target": 34962
		},
		{
			"buffer": 0,
			"byteLength": 5784,
			"byteOffset": 16832,
			"target": 34962
		},
		{
			"buffer": 0,
			"byteLength": 7712,
			"byteOffset": 22616,
			"target": 34962
		},
		{
			"buffer": 0,
			"byteLength": 3856,
			"byteOffset": 30328,
			"target": 34962
		},
		{
			"buffer": 0,
			"byteLength": 3856,
			"byteOffset": 34184,
			"target": 34962
		}
	],
	"images": [
		{
			"uri": "MI_Styl_Wall_Brick_02_SM_tower_big_body_02_BaseColor.png"
		},
		{
			"uri": "MI_Styl_Wall_Brick_02_SM_tower_big_body_02_MetallicRoughness.png"
		},
		{
			"uri": "MI_Styl_Wall_Brick_02_SM_tower_big_body_02_Normal.png"
		},
		{
			"uri": "MI_Styl_Wall_Brick_02_SM_tower_big_body_02_Occlusion.png"
		},
		{
			"uri": "MI_Floor_Brick_01_BaseColor.png"
		},
		{
			"uri": "MI_Floor_Brick_01_MetallicRoughness.png"
		},
		{
			"uri": "MI_Floor_Brick_01_Normal.png"
		},
		{
			"uri": "MI_Floor_Brick_01_Occlusion.png"
		},
		{
			"uri": "MI_Brick_02_BaseColor.png"
		},
		{
			"uri": "MI_Brick_02_MetallicRoughness.png"
		},
		{
			"uri": "MI_Brick_02_Normal.png"
		},
		{
			"uri": "MI_Brick_02_Occlusion.png"
		}
	],
	"materials": [
		{
			"name": "MI_Styl_Wall_Brick_02_SM_tower_big_body_02",
			"pbrMetallicRoughness":
			{
				"baseColorTexture":
				{
					"index": 0,
					"texCoord": 1,
					"extensions":
					{
						"KHR_texture_transform":
						{
							"offset": [ -0.00828064978, -0.00863138027 ],
							"scale": [ 1.02683187, 1.07643414 ]
						}
					}
				},
				"metallicRoughnessTexture":
				{
					"index": 1,
					"texCoord": 1,
					"extensions":
					{
						"KHR_texture_transform":
						{
							"offset": [ -0.00828064978, -0.00863138027 ],
							"scale": [ 1.02683187, 1.07643414 ]
						}
					}
				}
			},
			"normalTexture":
			{
				"index": 2,
				"texCoord": 1,
				"extensions":
				{
					"KHR_texture_transform":
					{
						"offset": [ -0.00828064978, -0.00863138027 ],
						"scale": [ 1.02683187, 1.07643414 ]
					}
				}
			},
			"occlusionTexture":
			{
				"index": 3,
				"texCoord": 1,
				"extensions":
				{
					"KHR_texture_transform":
					{
						"offset": [ -0.00828064978, -0.00863138027 ],
						"scale": [ 1.02683187, 1.07643414 ]
					}
				}
			}
		},
		{
			"name": "MI_Floor_Brick_01",
			"pbrMetallicRoughness":
			{
				"baseColorTexture":
				{
					"index": 4
				},
				"metallicRoughnessTexture":
				{
					"index": 5
				}
			},
			"normalTexture":
			{
				"index": 6
			},
			"occlusionTexture":
			{
				"index": 7
			}
		},
		{
			"name": "MI_Brick_02",
			"pbrMetallicRoughness":
			{
				"baseColorTexture":
				{
					"index": 8
				},
				"metallicRoughnessTexture":
				{
					"index": 9
				}
			},
			"normalTexture":
			{
				"index": 10
			},
			"occlusionTexture":
			{
				"index": 11
			}
		}
	],
	"meshes": [
		{
			"name": "SM_tower_big_body_02",
			"primitives": [
				{
					"attributes":
					{
						"POSITION": 1,
						"NORMAL": 2,
						"TANGENT": 3,
						"TEXCOORD_0": 4,
						"TEXCOORD_1": 5
					},
					"indices": 0,
					"material": 0
				},
				{
					"attributes":
					{
						"POSITION": 7,
						"NORMAL": 8,
						"TANGENT": 9,
						"TEXCOORD_0": 10,
						"TEXCOORD_1": 11
					},
					"indices": 6,
					"material": 1
				},
				{
					"attributes":
					{
						"POSITION": 13,
						"NORMAL": 14,
						"TANGENT": 15,
						"TEXCOORD_0": 16,
						"TEXCOORD_1": 17
					},
					"indices": 12,
					"material": 2
				}
			]
		}
	],
	"nodes": [
		{
			"mesh": 0
		}
	],
	"samplers": [
		{
			"minFilter": 9987,
			"magFilter": 9729
		}
	],
	"scenes": [
		{
			"nodes": [ 0 ]
		}
	],
	"textures": [
		{
			"name": "MI_Styl_Wall_Brick_02_SM_tower_big_body_02_BaseColor",
			"sampler": 0,
			"source": 0
		},
		{
			"name": "MI_Styl_Wall_Brick_02_SM_tower_big_body_02_MetallicRoughness",
			"sampler": 0,
			"source": 1
		},
		{
			"name": "MI_Styl_Wall_Brick_02_SM_tower_big_body_02_Normal",
			"sampler": 0,
			"source": 2
		},
		{
			"name": "MI_Styl_Wall_Brick_02_SM_tower_big_body_02_Occlusion",
			"sampler": 0,
			"source": 3
		},
		{
			"name": "MI_Floor_Brick_01_BaseColor",
			"sampler": 0,
			"source": 4
		},
		{
			"name": "MI_Floor_Brick_01_MetallicRoughness",
			"sampler": 0,
			"source": 5
		},
		{
			"name": "MI_Floor_Brick_01_Normal",
			"sampler": 0,
			"source": 6
		},
		{
			"name": "MI_Floor_Brick_01_Occlusion",
			"sampler": 0,
			"source": 7
		},
		{
			"name": "MI_Brick_02_BaseColor",
			"sampler": 0,
			"source": 8
		},
		{
			"name": "MI_Brick_02_MetallicRoughness",
			"sampler": 0,
			"source": 9
		},
		{
			"name": "MI_Brick_02_Normal",
			"sampler": 0,
			"source": 10
		},
		{
			"name": "MI_Brick_02_Occlusion",
			"sampler": 0,
			"source": 11
		}
	],
	"extensionsUsed": [
		"KHR_texture_transform"
	]
}