{
	"asset":
	{
		"version": "2.0",
		"generator": "Unreal Engine 5.6.1"
	},
	"scene": 0,
	"accessors": [
		{
			"bufferView": 0,
			"count": 29814,
			"type": "SCALAR",
			"componentType": 5123
		},
		{
			"bufferView": 1,
			"count": 9290,
			"type": "VEC3",
			"componentType": 5126,
			"min": [ -0.391627371, 0.558700502, -1.59550774 ],
			"max": [ 0.391627371, 0.862098992, 1.59616053 ]
		},
		{
			"bufferView": 2,
			"count": 9290,
			"type": "VEC3",
			"componentType": 5126
		},
		{
			"bufferView": 3,
			"count": 9290,
			"type": "VEC4",
			"componentType": 5126
		},
		{
			"bufferView": 4,
			"count": 9290,
			"type": "VEC2",
			"componentType": 5126
		},
		{
			"bufferView": 5,
			"count": 9290,
			"type": "VEC2",
			"componentType": 5126
		},
		{
			"bufferView": 6,
			"count": 6384,
			"type": "SCALAR",
			"componentType": 5123
		},
		{
			"bufferView": 7,
			"count": 2020,
			"type": "VEC3",
			"componentType": 5126,
			"min": [ -0.413320869, -8.81870684e-17, -1.6308558 ],
			"max": [ 0.413320869, 0.927164376, 1.6308558 ]
		},
		{
			"bufferView": 8,
			"count": 2020,
			"type": "VEC3",
			"componentType": 5126
		},
		{
			"bufferView": 9,
			"count": 2020,
			"type": "VEC4",
			"componentType": 5126
		},
		{
			"bufferView": 10,
			"count": 2020,
			"type": "VEC2",
			"componentType": 5126
		},
		{
			"bufferView": 11,
			"count": 2020,
			"type": "VEC2",
			"componentType": 5126
		}
	],
	"buffers": [
		{
			"uri": "SM_torture_device_02.bin",
			"byteLength": 705756
		}
	],
	"bufferViews": [
		{
			"buffer": 0,
			"byteLength": 59628,
			"target": 34963
		},
		{
			"buffer": 0,
			"byteLength": 111480,
			"byteOffset": 59628,
			"target": 34962
		},
		{
			"buffer": 0,
			"byteLength": 111480,
			"byteOffset": 171108,
			"target": 34962
		},
		{
			"buffer": 0,
			"byteLength": 148640,
			"byteOffset": 282588,
			"target": 34962
		},
		{
			"buffer": 0,
			"byteLength": 74320,
			"byteOffset": 431228,
			"target": 34962
		},
		{
			"buffer": 0,
			"byteLength": 74320,
			"byteOffset": 505548,
			"target": 34962
		},
		{
			"buffer": 0,
			"byteLength": 12768,
			"byteOffset": 579868,
			"target": 34963
		},
		{
			"buffer": 0,
			"byteLength": 24240,
			"byteOffset": 592636,
			"target": 34962
		},
		{
			"buffer": 0,
			"byteLength": 24240,
			"byteOffset": 616876,
			"target": 34962
		},
		{
			"buffer": 0,
			"byteLength": 32320,
			"byteOffset": 641116,
			"target": 34962
		},
		{
			"buffer": 0,
			"byteLength": 16160,
			"byteOffset": 673436,
			"target": 34962
		},
		{
			"buffer": 0,
			"byteLength": 16160,
			"byteOffset": 689596,
			"target": 34962
		}
	],
	"images": [
		{
			"uri": "MI_Metall_Trim_styl_01_MetallicRoughness.png"
		},
		{
			"uri": "MI_Metall_Trim_styl_01_Occlusion.png"
		},
		{
			"uri": "MI_Wood_Trim_BaseColor.png"
		},
		{
			"uri": "MI_Wood_Trim_MetallicRoughness.png"
		},
		{
			"uri": "MI_Wood_Trim_Occlusion.png"
		},
		{
			"uri": "T_fMetalTrimStyl_C.png"
		},
		{
			"uri": "T_fMetalTrimStyl_N.png"
		},
		{
			"uri": "T_Wood_Trim_N.png"
		}
	],
	"materials": [
		{
			"name": "MI_Metall_Trim_styl_01",
			"pbrMetallicRoughness":
			{
				"baseColorTexture":
				{
					"index": 0
				},
				"metallicRoughnessTexture":
				{
					"index": 1
				}
			},
			"normalTexture":
			{
				"index": 2
			},
			"occlusionTexture":
			{
				"index": 3
			}
		},
		{
			"name": "MI_Wood_Trim",
			"pbrMetallicRoughness":
			{
				"baseColorTexture":
				{
					"index": 4
				},
				"metallicRoughnessTexture":
				{
					"index": 5
				}
			},
			"normalTexture":
			{
				"index": 6
			},
			"occlusionTexture":
			{
				"index": 7
			}
		}
	],
	"meshes": [
		{
			"name": "SM_torture_device_02",
			"primitives": [
				{
					"attributes":
					{
						"POSITION": 1,
						"NORMAL": 2,
						"TANGENT": 3,
						"TEXCOORD_0": 4,
						"TEXCOORD_1": 5
					},
					"indices": 0,
					"material": 0
				},
				{
					"attributes":
					{
						"POSITION": 7,
						"NORMAL": 8,
						"TANGENT": 9,
						"TEXCOORD_0": 10,
						"TEXCOORD_1": 11
					},
					"indices": 6,
					"material": 1
				}
			]
		}
	],
	"nodes": [
		{
			"mesh": 0
		}
	],
	"samplers": [
		{
			"minFilter": 9987,
			"magFilter": 9729
		}
	],
	"scenes": [
		{
			"nodes": [ 0 ]
		}
	],
	"textures": [
		{
			"name": "T_fMetalTrimStyl_C",
			"sampler": 0,
			"source": 5
		},
		{
			"name": "MI_Metall_Trim_styl_01_MetallicRoughness",
			"sampler": 0,
			"source": 0
		},
		{
			"name": "T_fMetalTrimStyl_N",
			"sampler": 0,
			"source": 6
		},
		{
			"name": "MI_Metall_Trim_styl_01_Occlusion",
			"sampler": 0,
			"source": 1
		},
		{
			"name": "MI_Wood_Trim_BaseColor",
			"sampler": 0,
			"source": 2
		},
		{
			"name": "MI_Wood_Trim_MetallicRoughness",
			"sampler": 0,
			"source": 3
		},
		{
			"name": "T_Wood_Trim_N",
			"sampler": 0,
			"source": 7
		},
		{
			"name": "MI_Wood_Trim_Occlusion",
			"sampler": 0,
			"source": 4
		}
	]
}