{
	"asset":
	{
		"version": "2.0",
		"generator": "Unreal Engine 5.6.1"
	},
	"scene": 0,
	"accessors": [
		{
			"bufferView": 0,
			"count": 5868,
			"type": "SCALAR",
			"componentType": 5123
		},
		{
			"bufferView": 1,
			"count": 2176,
			"type": "VEC3",
			"componentType": 5126,
			"min": [ -0.383691847, -0.0048933411, -0.335589439 ],
			"max": [ 0.383691847, 1.47735941, 0.335589439 ]
		},
		{
			"bufferView": 2,
			"count": 2176,
			"type": "VEC3",
			"componentType": 5126
		},
		{
			"bufferView": 3,
			"count": 2176,
			"type": "VEC4",
			"componentType": 5126
		},
		{
			"bufferView": 4,
			"count": 2176,
			"type": "VEC2",
			"componentType": 5126
		},
		{
			"bufferView": 5,
			"count": 2176,
			"type": "VEC2",
			"componentType": 5126
		},
		{
			"bufferView": 6,
			"count": 5484,
			"type": "SCALAR",
			"componentType": 5123
		},
		{
			"bufferView": 7,
			"count": 3764,
			"type": "VEC3",
			"componentType": 5126,
			"min": [ -0.362826377, 0.0321458653, -0.269408792 ],
			"max": [ 0.362826377, 1.30837202, 0.315314054 ]
		},
		{
			"bufferView": 8,
			"count": 3764,
			"type": "VEC3",
			"componentType": 5126
		},
		{
			"bufferView": 9,
			"count": 3764,
			"type": "VEC4",
			"componentType": 5126
		},
		{
			"bufferView": 10,
			"count": 3764,
			"type": "VEC2",
			"componentType": 5126
		},
		{
			"bufferView": 11,
			"count": 3764,
			"type": "VEC2",
			"componentType": 5126
		}
	],
	"buffers": [
		{
			"uri": "SM_torture_device_04_EEB14C18.bin",
			"byteLength": 355344
		}
	],
	"bufferViews": [
		{
			"buffer": 0,
			"byteLength": 11736,
			"target": 34963
		},
		{
			"buffer": 0,
			"byteLength": 26112,
			"byteOffset": 11736,
			"target": 34962
		},
		{
			"buffer": 0,
			"byteLength": 26112,
			"byteOffset": 37848,
			"target": 34962
		},
		{
			"buffer": 0,
			"byteLength": 34816,
			"byteOffset": 63960,
			"target": 34962
		},
		{
			"buffer": 0,
			"byteLength": 17408,
			"byteOffset": 98776,
			"target": 34962
		},
		{
			"buffer": 0,
			"byteLength": 17408,
			"byteOffset": 116184,
			"target": 34962
		},
		{
			"buffer": 0,
			"byteLength": 10968,
			"byteOffset": 133592,
			"target": 34963
		},
		{
			"buffer": 0,
			"byteLength": 45168,
			"byteOffset": 144560,
			"target": 34962
		},
		{
			"buffer": 0,
			"byteLength": 45168,
			"byteOffset": 189728,
			"target": 34962
		},
		{
			"buffer": 0,
			"byteLength": 60224,
			"byteOffset": 234896,
			"target": 34962
		},
		{
			"buffer": 0,
			"byteLength": 30112,
			"byteOffset": 295120,
			"target": 34962
		},
		{
			"buffer": 0,
			"byteLength": 30112,
			"byteOffset": 325232,
			"target": 34962
		}
	],
	"images": [
		{
			"uri": "MI_Wood_Trim_BaseColor.png"
		},
		{
			"uri": "MI_Wood_Trim_MetallicRoughness.png"
		},
		{
			"uri": "MI_Wood_Trim_Occlusion.png"
		},
		{
			"uri": "MI_Metall_Trim_styl_01_MetallicRoughness.png"
		},
		{
			"uri": "MI_Metall_Trim_styl_01_Occlusion.png"
		},
		{
			"uri": "T_Wood_Trim_N.png"
		},
		{
			"uri": "T_fMetalTrimStyl_C.png"
		},
		{
			"uri": "T_fMetalTrimStyl_N.png"
		}
	],
	"materials": [
		{
			"name": "MI_Wood_Trim",
			"pbrMetallicRoughness":
			{
				"baseColorTexture":
				{
					"index": 0
				},
				"metallicRoughnessTexture":
				{
					"index": 1
				}
			},
			"normalTexture":
			{
				"index": 2
			},
			"occlusionTexture":
			{
				"index": 3
			}
		},
		{
			"name": "MI_Metall_Trim_styl_01",
			"pbrMetallicRoughness":
			{
				"baseColorTexture":
				{
					"index": 4
				},
				"metallicRoughnessTexture":
				{
					"index": 5
				}
			},
			"normalTexture":
			{
				"index": 6
			},
			"occlusionTexture":
			{
				"index": 7
			}
		}
	],
	"meshes": [
		{
			"name": "SM_torture_device_04",
			"primitives": [
				{
					"attributes":
					{
						"POSITION": 1,
						"NORMAL": 2,
						"TANGENT": 3,
						"TEXCOORD_0": 4,
						"TEXCOORD_1": 5
					},
					"indices": 0,
					"material": 0
				},
				{
					"attributes":
					{
						"POSITION": 7,
						"NORMAL": 8,
						"TANGENT": 9,
						"TEXCOORD_0": 10,
						"TEXCOORD_1": 11
					},
					"indices": 6,
					"material": 1
				}
			]
		}
	],
	"nodes": [
		{
			"mesh": 0
		}
	],
	"samplers": [
		{
			"minFilter": 9987,
			"magFilter": 9729
		}
	],
	"scenes": [
		{
			"nodes": [ 0 ]
		}
	],
	"textures": [
		{
			"name": "MI_Wood_Trim_BaseColor",
			"sampler": 0,
			"source": 0
		},
		{
			"name": "MI_Wood_Trim_MetallicRoughness",
			"sampler": 0,
			"source": 1
		},
		{
			"name": "T_Wood_Trim_N",
			"sampler": 0,
			"source": 5
		},
		{
			"name": "MI_Wood_Trim_Occlusion",
			"sampler": 0,
			"source": 2
		},
		{
			"name": "T_fMetalTrimStyl_C",
			"sampler": 0,
			"source": 6
		},
		{
			"name": "MI_Metall_Trim_styl_01_MetallicRoughness",
			"sampler": 0,
			"source": 3
		},
		{
			"name": "T_fMetalTrimStyl_N",
			"sampler": 0,
			"source": 7
		},
		{
			"name": "MI_Metall_Trim_styl_01_Occlusion",
			"sampler": 0,
			"source": 4
		}
	]
}