{
	"asset":
	{
		"version": "2.0",
		"generator": "Unreal Engine 5.6.1"
	},
	"scene": 0,
	"accessors": [
		{
			"bufferView": 0,
			"count": 7068,
			"type": "SCALAR",
			"componentType": 5123
		},
		{
			"bufferView": 1,
			"count": 1902,
			"type": "VEC3",
			"componentType": 5126,
			"min": [ -0.681460381, 0.0701556206, -0.989721119 ],
			"max": [ 0.681460381, 0.821665227, 0.992608786 ]
		},
		{
			"bufferView": 2,
			"count": 1902,
			"type": "VEC3",
			"componentType": 5126
		},
		{
			"bufferView": 3,
			"count": 1902,
			"type": "VEC4",
			"componentType": 5126
		},
		{
			"bufferView": 4,
			"count": 1902,
			"type": "VEC2",
			"componentType": 5126
		},
		{
			"bufferView": 5,
			"count": 1902,
			"type": "VEC2",
			"componentType": 5126
		},
		{
			"bufferView": 6,
			"count": 8496,
			"type": "SCALAR",
			"componentType": 5123
		},
		{
			"bufferView": 7,
			"count": 4208,
			"type": "VEC3",
			"componentType": 5126,
			"min": [ -0.703153908, 3.93359567e-09, -1.14077175 ],
			"max": [ 0.703153908, 0.792977512, 1.14077175 ]
		},
		{
			"bufferView": 8,
			"count": 4208,
			"type": "VEC3",
			"componentType": 5126
		},
		{
			"bufferView": 9,
			"count": 4208,
			"type": "VEC4",
			"componentType": 5126
		},
		{
			"bufferView": 10,
			"count": 4208,
			"type": "VEC2",
			"componentType": 5126
		},
		{
			"bufferView": 11,
			"count": 4208,
			"type": "VEC2",
			"componentType": 5126
		}
	],
	"buffers": [
		{
			"uri": "SM_torture_device_01_4BCE9882.bin",
			"byteLength": 373288
		}
	],
	"bufferViews": [
		{
			"buffer": 0,
			"byteLength": 14136,
			"target": 34963
		},
		{
			"buffer": 0,
			"byteLength": 22824,
			"byteOffset": 14136,
			"target": 34962
		},
		{
			"buffer": 0,
			"byteLength": 22824,
			"byteOffset": 36960,
			"target": 34962
		},
		{
			"buffer": 0,
			"byteLength": 30432,
			"byteOffset": 59784,
			"target": 34962
		},
		{
			"buffer": 0,
			"byteLength": 15216,
			"byteOffset": 90216,
			"target": 34962
		},
		{
			"buffer": 0,
			"byteLength": 15216,
			"byteOffset": 105432,
			"target": 34962
		},
		{
			"buffer": 0,
			"byteLength": 16992,
			"byteOffset": 120648,
			"target": 34963
		},
		{
			"buffer": 0,
			"byteLength": 50496,
			"byteOffset": 137640,
			"target": 34962
		},
		{
			"buffer": 0,
			"byteLength": 50496,
			"byteOffset": 188136,
			"target": 34962
		},
		{
			"buffer": 0,
			"byteLength": 67328,
			"byteOffset": 238632,
			"target": 34962
		},
		{
			"buffer": 0,
			"byteLength": 33664,
			"byteOffset": 305960,
			"target": 34962
		},
		{
			"buffer": 0,
			"byteLength": 33664,
			"byteOffset": 339624,
			"target": 34962
		}
	],
	"images": [
		{
			"uri": "MI_Metall_Trim_styl_01_MetallicRoughness.png"
		},
		{
			"uri": "MI_Metall_Trim_styl_01_Occlusion.png"
		},
		{
			"uri": "MI_Wood_Trim_BaseColor.png"
		},
		{
			"uri": "MI_Wood_Trim_MetallicRoughness.png"
		},
		{
			"uri": "MI_Wood_Trim_Occlusion.png"
		},
		{
			"uri": "T_fMetalTrimStyl_C.png"
		},
		{
			"uri": "T_fMetalTrimStyl_N.png"
		},
		{
			"uri": "T_Wood_Trim_N.png"
		}
	],
	"materials": [
		{
			"name": "MI_Metall_Trim_styl_01",
			"pbrMetallicRoughness":
			{
				"baseColorTexture":
				{
					"index": 0
				},
				"metallicRoughnessTexture":
				{
					"index": 1
				}
			},
			"normalTexture":
			{
				"index": 2
			},
			"occlusionTexture":
			{
				"index": 3
			}
		},
		{
			"name": "MI_Wood_Trim",
			"pbrMetallicRoughness":
			{
				"baseColorTexture":
				{
					"index": 4
				},
				"metallicRoughnessTexture":
				{
					"index": 5
				}
			},
			"normalTexture":
			{
				"index": 6
			},
			"occlusionTexture":
			{
				"index": 7
			}
		}
	],
	"meshes": [
		{
			"name": "SM_torture_device_01",
			"primitives": [
				{
					"attributes":
					{
						"POSITION": 1,
						"NORMAL": 2,
						"TANGENT": 3,
						"TEXCOORD_0": 4,
						"TEXCOORD_1": 5
					},
					"indices": 0,
					"material": 0
				},
				{
					"attributes":
					{
						"POSITION": 7,
						"NORMAL": 8,
						"TANGENT": 9,
						"TEXCOORD_0": 10,
						"TEXCOORD_1": 11
					},
					"indices": 6,
					"material": 1
				}
			]
		}
	],
	"nodes": [
		{
			"mesh": 0
		}
	],
	"samplers": [
		{
			"minFilter": 9987,
			"magFilter": 9729
		}
	],
	"scenes": [
		{
			"nodes": [ 0 ]
		}
	],
	"textures": [
		{
			"name": "T_fMetalTrimStyl_C",
			"sampler": 0,
			"source": 5
		},
		{
			"name": "MI_Metall_Trim_styl_01_MetallicRoughness",
			"sampler": 0,
			"source": 0
		},
		{
			"name": "T_fMetalTrimStyl_N",
			"sampler": 0,
			"source": 6
		},
		{
			"name": "MI_Metall_Trim_styl_01_Occlusion",
			"sampler": 0,
			"source": 1
		},
		{
			"name": "MI_Wood_Trim_BaseColor",
			"sampler": 0,
			"source": 2
		},
		{
			"name": "MI_Wood_Trim_MetallicRoughness",
			"sampler": 0,
			"source": 3
		},
		{
			"name": "T_Wood_Trim_N",
			"sampler": 0,
			"source": 7
		},
		{
			"name": "MI_Wood_Trim_Occlusion",
			"sampler": 0,
			"source": 4
		}
	]
}