{
	"asset":
	{
		"version": "2.0",
		"generator": "Unreal Engine 5.6.1"
	},
	"scene": 0,
	"accessors": [
		{
			"bufferView": 0,
			"count": 3045,
			"type": "SCALAR",
			"componentType": 5123
		},
		{
			"bufferView": 1,
			"count": 760,
			"type": "VEC3",
			"componentType": 5126,
			"min": [ -0.357089937, 0, -0.354105055 ],
			"max": [ 0.357091367, 0.881829143, 0.35547477 ]
		},
		{
			"bufferView": 2,
			"count": 760,
			"type": "VEC3",
			"componentType": 5126
		},
		{
			"bufferView": 3,
			"count": 760,
			"type": "VEC4",
			"componentType": 5126
		},
		{
			"bufferView": 4,
			"count": 760,
			"type": "VEC2",
			"componentType": 5126
		},
		{
			"bufferView": 5,
			"count": 760,
			"type": "VEC2",
			"componentType": 5126
		}
	],
	"buffers": [
		{
			"uri": "SM_Vase_02_833B0E1A.bin",
			"byteLength": 48652
		}
	],
	"bufferViews": [
		{
			"buffer": 0,
			"byteLength": 6090,
			"target": 34963
		},
		{
			"buffer": 0,
			"byteLength": 9120,
			"byteOffset": 6092,
			"target": 34962
		},
		{
			"buffer": 0,
			"byteLength": 9120,
			"byteOffset": 15212,
			"target": 34962
		},
		{
			"buffer": 0,
			"byteLength": 12160,
			"byteOffset": 24332,
			"target": 34962
		},
		{
			"buffer": 0,
			"byteLength": 6080,
			"byteOffset": 36492,
			"target": 34962
		},
		{
			"buffer": 0,
			"byteLength": 6080,
			"byteOffset": 42572,
			"target": 34962
		}
	],
	"images": [
		{
			"uri": "T_vases_bench_C.png"
		},
		{
			"uri": "T_vases_bench_M.png"
		},
		{
			"uri": "T_vases_bench_N.png"
		}
	],
	"materials": [
		{
			"name": "MI_vases_bench_01",
			"pbrMetallicRoughness":
			{
				"baseColorTexture":
				{
					"index": 0
				},
				"metallicRoughnessTexture":
				{
					"index": 1
				}
			},
			"normalTexture":
			{
				"index": 2
			},
			"occlusionTexture":
			{
				"index": 1
			}
		}
	],
	"meshes": [
		{
			"name": "SM_Vase_02",
			"primitives": [
				{
					"attributes":
					{
						"POSITION": 1,
						"NORMAL": 2,
						"TANGENT": 3,
						"TEXCOORD_0": 4,
						"TEXCOORD_1": 5
					},
					"indices": 0,
					"material": 0
				}
			]
		}
	],
	"nodes": [
		{
			"mesh": 0
		}
	],
	"samplers": [
		{
			"minFilter": 9987,
			"magFilter": 9729
		}
	],
	"scenes": [
		{
			"nodes": [ 0 ]
		}
	],
	"textures": [
		{
			"name": "T_vases_bench_C",
			"sampler": 0,
			"source": 0
		},
		{
			"name": "T_vases_bench_M",
			"sampler": 0,
			"source": 1
		},
		{
			"name": "T_vases_bench_N",
			"sampler": 0,
			"source": 2
		}
	]
}