{
	"asset":
	{
		"version": "2.0",
		"generator": "Unreal Engine 5.6.1"
	},
	"scene": 0,
	"accessors": [
		{
			"bufferView": 0,
			"count": 4602,
			"type": "SCALAR",
			"componentType": 5123
		},
		{
			"bufferView": 1,
			"count": 1438,
			"type": "VEC3",
			"componentType": 5126,
			"min": [ -0.685394049, -0.00896784477, -0.685394704 ],
			"max": [ 0.685394049, 0.904695094, 0.685394704 ]
		},
		{
			"bufferView": 2,
			"count": 1438,
			"type": "VEC3",
			"componentType": 5126
		},
		{
			"bufferView": 3,
			"count": 1438,
			"type": "VEC4",
			"componentType": 5126
		},
		{
			"bufferView": 4,
			"count": 1438,
			"type": "VEC2",
			"componentType": 5126
		},
		{
			"bufferView": 5,
			"count": 1438,
			"type": "VEC2",
			"componentType": 5126
		}
	],
	"buffers": [
		{
			"uri": "SM_Vase_03_FDA1E2BE.bin",
			"byteLength": 89732
		}
	],
	"bufferViews": [
		{
			"buffer": 0,
			"byteLength": 9204,
			"target": 34963
		},
		{
			"buffer": 0,
			"byteLength": 17256,
			"byteOffset": 9204,
			"target": 34962
		},
		{
			"buffer": 0,
			"byteLength": 17256,
			"byteOffset": 26460,
			"target": 34962
		},
		{
			"buffer": 0,
			"byteLength": 23008,
			"byteOffset": 43716,
			"target": 34962
		},
		{
			"buffer": 0,
			"byteLength": 11504,
			"byteOffset": 66724,
			"target": 34962
		},
		{
			"buffer": 0,
			"byteLength": 11504,
			"byteOffset": 78228,
			"target": 34962
		}
	],
	"images": [
		{
			"uri": "T_vases_bench_C.png"
		},
		{
			"uri": "T_vases_bench_M.png"
		},
		{
			"uri": "T_vases_bench_N.png"
		}
	],
	"materials": [
		{
			"name": "MI_vases_bench_01",
			"pbrMetallicRoughness":
			{
				"baseColorTexture":
				{
					"index": 0
				},
				"metallicRoughnessTexture":
				{
					"index": 1
				}
			},
			"normalTexture":
			{
				"index": 2
			},
			"occlusionTexture":
			{
				"index": 1
			}
		}
	],
	"meshes": [
		{
			"name": "SM_Vase_03",
			"primitives": [
				{
					"attributes":
					{
						"POSITION": 1,
						"NORMAL": 2,
						"TANGENT": 3,
						"TEXCOORD_0": 4,
						"TEXCOORD_1": 5
					},
					"indices": 0,
					"material": 0
				}
			]
		}
	],
	"nodes": [
		{
			"mesh": 0
		}
	],
	"samplers": [
		{
			"minFilter": 9987,
			"magFilter": 9729
		}
	],
	"scenes": [
		{
			"nodes": [ 0 ]
		}
	],
	"textures": [
		{
			"name": "T_vases_bench_C",
			"sampler": 0,
			"source": 0
		},
		{
			"name": "T_vases_bench_M",
			"sampler": 0,
			"source": 1
		},
		{
			"name": "T_vases_bench_N",
			"sampler": 0,
			"source": 2
		}
	]
}