{
	"asset":
	{
		"version": "2.0",
		"generator": "Unreal Engine 5.6.1"
	},
	"scene": 0,
	"accessors": [
		{
			"bufferView": 0,
			"count": 1926,
			"type": "SCALAR",
			"componentType": 5123
		},
		{
			"bufferView": 1,
			"count": 468,
			"type": "VEC3",
			"componentType": 5126,
			"min": [ -0.302687496, -0.0001190564, -0.295904428 ],
			"max": [ 0.302091926, 0.80494374, 0.302673876 ]
		},
		{
			"bufferView": 2,
			"count": 468,
			"type": "VEC3",
			"componentType": 5126
		},
		{
			"bufferView": 3,
			"count": 468,
			"type": "VEC4",
			"componentType": 5126
		},
		{
			"bufferView": 4,
			"count": 468,
			"type": "VEC2",
			"componentType": 5126
		},
		{
			"bufferView": 5,
			"count": 468,
			"type": "VEC2",
			"componentType": 5126
		}
	],
	"buffers": [
		{
			"uri": "SM_vase2_03_5584510E.bin",
			"byteLength": 30060
		}
	],
	"bufferViews": [
		{
			"buffer": 0,
			"byteLength": 3852,
			"target": 34963
		},
		{
			"buffer": 0,
			"byteLength": 5616,
			"byteOffset": 3852,
			"target": 34962
		},
		{
			"buffer": 0,
			"byteLength": 5616,
			"byteOffset": 9468,
			"target": 34962
		},
		{
			"buffer": 0,
			"byteLength": 7488,
			"byteOffset": 15084,
			"target": 34962
		},
		{
			"buffer": 0,
			"byteLength": 3744,
			"byteOffset": 22572,
			"target": 34962
		},
		{
			"buffer": 0,
			"byteLength": 3744,
			"byteOffset": 26316,
			"target": 34962
		}
	],
	"images": [
		{
			"uri": "MI_Vase_MetallicRoughness.png"
		},
		{
			"uri": "T_vase_C.png"
		},
		{
			"uri": "T_vase_N.png"
		},
		{
			"uri": "T_vase_M.png"
		}
	],
	"materials": [
		{
			"name": "MI_Vase",
			"pbrMetallicRoughness":
			{
				"baseColorTexture":
				{
					"index": 0
				},
				"metallicRoughnessTexture":
				{
					"index": 1
				}
			},
			"normalTexture":
			{
				"index": 2
			},
			"occlusionTexture":
			{
				"index": 3
			}
		}
	],
	"meshes": [
		{
			"name": "SM_vase2_03",
			"primitives": [
				{
					"attributes":
					{
						"POSITION": 1,
						"NORMAL": 2,
						"TANGENT": 3,
						"TEXCOORD_0": 4,
						"TEXCOORD_1": 5
					},
					"indices": 0,
					"material": 0
				}
			]
		}
	],
	"nodes": [
		{
			"mesh": 0
		}
	],
	"samplers": [
		{
			"minFilter": 9987,
			"magFilter": 9729
		}
	],
	"scenes": [
		{
			"nodes": [ 0 ]
		}
	],
	"textures": [
		{
			"name": "T_vase_C",
			"sampler": 0,
			"source": 1
		},
		{
			"name": "MI_Vase_MetallicRoughness",
			"sampler": 0,
			"source": 0
		},
		{
			"name": "T_vase_N",
			"sampler": 0,
			"source": 2
		},
		{
			"name": "T_vase_M",
			"sampler": 0,
			"source": 3
		}
	]
}