{
	"asset":
	{
		"version": "2.0",
		"generator": "Unreal Engine 5.6.1"
	},
	"scene": 0,
	"accessors": [
		{
			"bufferView": 0,
			"count": 1758,
			"type": "SCALAR",
			"componentType": 5123
		},
		{
			"bufferView": 1,
			"count": 416,
			"type": "VEC3",
			"componentType": 5126,
			"min": [ -0.302104771, 3.17787729e-09, -0.295904428 ],
			"max": [ 0.302681953, 1.12694001, 0.302672982 ]
		},
		{
			"bufferView": 2,
			"count": 416,
			"type": "VEC3",
			"componentType": 5126
		},
		{
			"bufferView": 3,
			"count": 416,
			"type": "VEC4",
			"componentType": 5126
		},
		{
			"bufferView": 4,
			"count": 416,
			"type": "VEC2",
			"componentType": 5126
		},
		{
			"bufferView": 5,
			"count": 416,
			"type": "VEC2",
			"componentType": 5126
		}
	],
	"buffers": [
		{
			"uri": "SM_vase2_01_DB92C74C.bin",
			"byteLength": 26812
		}
	],
	"bufferViews": [
		{
			"buffer": 0,
			"byteLength": 3516,
			"target": 34963
		},
		{
			"buffer": 0,
			"byteLength": 4992,
			"byteOffset": 3516,
			"target": 34962
		},
		{
			"buffer": 0,
			"byteLength": 4992,
			"byteOffset": 8508,
			"target": 34962
		},
		{
			"buffer": 0,
			"byteLength": 6656,
			"byteOffset": 13500,
			"target": 34962
		},
		{
			"buffer": 0,
			"byteLength": 3328,
			"byteOffset": 20156,
			"target": 34962
		},
		{
			"buffer": 0,
			"byteLength": 3328,
			"byteOffset": 23484,
			"target": 34962
		}
	],
	"images": [
		{
			"uri": "MI_Vase_MetallicRoughness.png"
		},
		{
			"uri": "T_vase_C.png"
		},
		{
			"uri": "T_vase_N.png"
		},
		{
			"uri": "T_vase_M.png"
		}
	],
	"materials": [
		{
			"name": "MI_Vase",
			"pbrMetallicRoughness":
			{
				"baseColorTexture":
				{
					"index": 0
				},
				"metallicRoughnessTexture":
				{
					"index": 1
				}
			},
			"normalTexture":
			{
				"index": 2
			},
			"occlusionTexture":
			{
				"index": 3
			}
		}
	],
	"meshes": [
		{
			"name": "SM_vase2_01",
			"primitives": [
				{
					"attributes":
					{
						"POSITION": 1,
						"NORMAL": 2,
						"TANGENT": 3,
						"TEXCOORD_0": 4,
						"TEXCOORD_1": 5
					},
					"indices": 0,
					"material": 0
				}
			]
		}
	],
	"nodes": [
		{
			"mesh": 0
		}
	],
	"samplers": [
		{
			"minFilter": 9987,
			"magFilter": 9729
		}
	],
	"scenes": [
		{
			"nodes": [ 0 ]
		}
	],
	"textures": [
		{
			"name": "T_vase_C",
			"sampler": 0,
			"source": 1
		},
		{
			"name": "MI_Vase_MetallicRoughness",
			"sampler": 0,
			"source": 0
		},
		{
			"name": "T_vase_N",
			"sampler": 0,
			"source": 2
		},
		{
			"name": "T_vase_M",
			"sampler": 0,
			"source": 3
		}
	]
}