{
	"asset":
	{
		"version": "2.0",
		"generator": "Unreal Engine 5.6.1"
	},
	"scene": 0,
	"accessors": [
		{
			"bufferView": 0,
			"count": 1848,
			"type": "SCALAR",
			"componentType": 5123
		},
		{
			"bufferView": 1,
			"count": 487,
			"type": "VEC3",
			"componentType": 5126,
			"min": [ -0.259484857, -1.55811763e-09, -0.259484887 ],
			"max": [ 0.259484738, 0.461261749, 0.259484738 ]
		},
		{
			"bufferView": 2,
			"count": 487,
			"type": "VEC3",
			"componentType": 5126
		},
		{
			"bufferView": 3,
			"count": 487,
			"type": "VEC4",
			"componentType": 5126
		},
		{
			"bufferView": 4,
			"count": 487,
			"type": "VEC2",
			"componentType": 5126
		},
		{
			"bufferView": 5,
			"count": 487,
			"type": "VEC2",
			"componentType": 5126
		}
	],
	"buffers": [
		{
			"uri": "SM_vase_05_FC97D171.bin",
			"byteLength": 30968
		}
	],
	"bufferViews": [
		{
			"buffer": 0,
			"byteLength": 3696,
			"target": 34963
		},
		{
			"buffer": 0,
			"byteLength": 5844,
			"byteOffset": 3696,
			"target": 34962
		},
		{
			"buffer": 0,
			"byteLength": 5844,
			"byteOffset": 9540,
			"target": 34962
		},
		{
			"buffer": 0,
			"byteLength": 7792,
			"byteOffset": 15384,
			"target": 34962
		},
		{
			"buffer": 0,
			"byteLength": 3896,
			"byteOffset": 23176,
			"target": 34962
		},
		{
			"buffer": 0,
			"byteLength": 3896,
			"byteOffset": 27072,
			"target": 34962
		}
	],
	"images": [
		{
			"uri": "MI_Vase_MetallicRoughness.png"
		},
		{
			"uri": "T_vase_C.png"
		},
		{
			"uri": "T_vase_N.png"
		},
		{
			"uri": "T_vase_M.png"
		}
	],
	"materials": [
		{
			"name": "MI_Vase",
			"pbrMetallicRoughness":
			{
				"baseColorTexture":
				{
					"index": 0
				},
				"metallicRoughnessTexture":
				{
					"index": 1
				}
			},
			"normalTexture":
			{
				"index": 2
			},
			"occlusionTexture":
			{
				"index": 3
			}
		}
	],
	"meshes": [
		{
			"name": "SM_vase_05",
			"primitives": [
				{
					"attributes":
					{
						"POSITION": 1,
						"NORMAL": 2,
						"TANGENT": 3,
						"TEXCOORD_0": 4,
						"TEXCOORD_1": 5
					},
					"indices": 0,
					"material": 0
				}
			]
		}
	],
	"nodes": [
		{
			"mesh": 0
		}
	],
	"samplers": [
		{
			"minFilter": 9987,
			"magFilter": 9729
		}
	],
	"scenes": [
		{
			"nodes": [ 0 ]
		}
	],
	"textures": [
		{
			"name": "T_vase_C",
			"sampler": 0,
			"source": 1
		},
		{
			"name": "MI_Vase_MetallicRoughness",
			"sampler": 0,
			"source": 0
		},
		{
			"name": "T_vase_N",
			"sampler": 0,
			"source": 2
		},
		{
			"name": "T_vase_M",
			"sampler": 0,
			"source": 3
		}
	]
}