{
	"asset":
	{
		"version": "2.0",
		"generator": "Unreal Engine 5.6.1"
	},
	"scene": 0,
	"accessors": [
		{
			"bufferView": 0,
			"count": 243,
			"type": "SCALAR",
			"componentType": 5121
		},
		{
			"bufferView": 1,
			"count": 164,
			"type": "VEC3",
			"componentType": 5126,
			"min": [ 4.15585852, 3.4578476, -0.921132743 ],
			"max": [ 5.84203339, 5.80417538, -0.822352827 ]
		},
		{
			"bufferView": 2,
			"count": 164,
			"type": "VEC3",
			"componentType": 5126
		},
		{
			"bufferView": 3,
			"count": 164,
			"type": "VEC4",
			"componentType": 5126
		},
		{
			"bufferView": 4,
			"count": 164,
			"type": "VEC2",
			"componentType": 5126
		},
		{
			"bufferView": 5,
			"count": 164,
			"type": "VEC2",
			"componentType": 5126
		},
		{
			"bufferView": 6,
			"count": 1824,
			"type": "SCALAR",
			"componentType": 5123
		},
		{
			"bufferView": 7,
			"count": 1072,
			"type": "VEC3",
			"componentType": 5126,
			"min": [ 2.25116706, 1.68554246, -0.104875028 ],
			"max": [ 7.77708292, 8.00954723, 0.107190028 ]
		},
		{
			"bufferView": 8,
			"count": 1072,
			"type": "VEC3",
			"componentType": 5126
		},
		{
			"bufferView": 9,
			"count": 1072,
			"type": "VEC4",
			"componentType": 5126
		},
		{
			"bufferView": 10,
			"count": 1072,
			"type": "VEC2",
			"componentType": 5126
		},
		{
			"bufferView": 11,
			"count": 1072,
			"type": "VEC2",
			"componentType": 5126
		},
		{
			"bufferView": 12,
			"count": 390,
			"type": "SCALAR",
			"componentType": 5121
		},
		{
			"bufferView": 13,
			"count": 161,
			"type": "VEC3",
			"componentType": 5126,
			"min": [ 2.11987495, 1.41209042, -0.904077649 ],
			"max": [ 7.88013268, 8.16903114, 0.0990000069 ]
		},
		{
			"bufferView": 14,
			"count": 161,
			"type": "VEC3",
			"componentType": 5126
		},
		{
			"bufferView": 15,
			"count": 161,
			"type": "VEC4",
			"componentType": 5126
		},
		{
			"bufferView": 16,
			"count": 161,
			"type": "VEC2",
			"componentType": 5126
		},
		{
			"bufferView": 17,
			"count": 161,
			"type": "VEC2",
			"componentType": 5126
		},
		{
			"bufferView": 18,
			"count": 102,
			"type": "SCALAR",
			"componentType": 5121
		},
		{
			"bufferView": 19,
			"count": 52,
			"type": "VEC3",
			"componentType": 5126,
			"min": [ 0, -2.91528544e-16, -1 ],
			"max": [ 10, 11, -0 ]
		},
		{
			"bufferView": 20,
			"count": 52,
			"type": "VEC3",
			"componentType": 5126
		},
		{
			"bufferView": 21,
			"count": 52,
			"type": "VEC4",
			"componentType": 5126
		},
		{
			"bufferView": 22,
			"count": 52,
			"type": "VEC2",
			"componentType": 5126
		},
		{
			"bufferView": 23,
			"count": 52,
			"type": "VEC2",
			"componentType": 5126
		}
	],
	"buffers": [
		{
			"uri": "SM_wall_niche_02.bin",
			"byteLength": 85532
		}
	],
	"bufferViews": [
		{
			"buffer": 0,
			"byteLength": 243,
			"target": 34963
		},
		{
			"buffer": 0,
			"byteLength": 1968,
			"byteOffset": 244,
			"target": 34962
		},
		{
			"buffer": 0,
			"byteLength": 1968,
			"byteOffset": 2212,
			"target": 34962
		},
		{
			"buffer": 0,
			"byteLength": 2624,
			"byteOffset": 4180,
			"target": 34962
		},
		{
			"buffer": 0,
			"byteLength": 1312,
			"byteOffset": 6804,
			"target": 34962
		},
		{
			"buffer": 0,
			"byteLength": 1312,
			"byteOffset": 8116,
			"target": 34962
		},
		{
			"buffer": 0,
			"byteLength": 3648,
			"byteOffset": 9428,
			"target": 34963
		},
		{
			"buffer": 0,
			"byteLength": 12864,
			"byteOffset": 13076,
			"target": 34962
		},
		{
			"buffer": 0,
			"byteLength": 12864,
			"byteOffset": 25940,
			"target": 34962
		},
		{
			"buffer": 0,
			"byteLength": 17152,
			"byteOffset": 38804,
			"target": 34962
		},
		{
			"buffer": 0,
			"byteLength": 8576,
			"byteOffset": 55956,
			"target": 34962
		},
		{
			"buffer": 0,
			"byteLength": 8576,
			"byteOffset": 64532,
			"target": 34962
		},
		{
			"buffer": 0,
			"byteLength": 390,
			"byteOffset": 73108,
			"target": 34963
		},
		{
			"buffer": 0,
			"byteLength": 1932,
			"byteOffset": 73500,
			"target": 34962
		},
		{
			"buffer": 0,
			"byteLength": 1932,
			"byteOffset": 75432,
			"target": 34962
		},
		{
			"buffer": 0,
			"byteLength": 2576,
			"byteOffset": 77364,
			"target": 34962
		},
		{
			"buffer": 0,
			"byteLength": 1288,
			"byteOffset": 79940,
			"target": 34962
		},
		{
			"buffer": 0,
			"byteLength": 1288,
			"byteOffset": 81228,
			"target": 34962
		},
		{
			"buffer": 0,
			"byteLength": 102,
			"byteOffset": 82516,
			"target": 34963
		},
		{
			"buffer": 0,
			"byteLength": 624,
			"byteOffset": 82620,
			"target": 34962
		},
		{
			"buffer": 0,
			"byteLength": 624,
			"byteOffset": 83244,
			"target": 34962
		},
		{
			"buffer": 0,
			"byteLength": 832,
			"byteOffset": 83868,
			"target": 34962
		},
		{
			"buffer": 0,
			"byteLength": 416,
			"byteOffset": 84700,
			"target": 34962
		},
		{
			"buffer": 0,
			"byteLength": 416,
			"byteOffset": 85116,
			"target": 34962
		}
	],
	"images": [
		{
			"uri": "MI_Weapon_MetallicRoughness.png"
		},
		{
			"uri": "MI_Brick_02_BaseColor.png"
		},
		{
			"uri": "MI_Brick_02_MetallicRoughness.png"
		},
		{
			"uri": "MI_Brick_02_Normal.png"
		},
		{
			"uri": "MI_Brick_02_Occlusion.png"
		},
		{
			"uri": "MI_Styl_Wall_Brick_02_SM_wall_niche_02_BaseColor.png"
		},
		{
			"uri": "MI_Styl_Wall_Brick_02_SM_wall_niche_02_MetallicRoughness.png"
		},
		{
			"uri": "MI_Styl_Wall_Brick_02_SM_wall_niche_02_Normal.png"
		},
		{
			"uri": "MI_Styl_Wall_Brick_02_SM_wall_niche_02_Occlusion.png"
		},
		{
			"uri": "T_vase_veapon_C.png"
		},
		{
			"uri": "T_vase_veapon_N.png"
		},
		{
			"uri": "T_vase_veapon_M.png"
		},
		{
			"uri": "T_Metal_Trim_C.png"
		},
		{
			"uri": "T_Metal_Trim_M.png"
		},
		{
			"uri": "T_Metal_Trim_N.png"
		}
	],
	"materials": [
		{
			"name": "MI_Weapon",
			"pbrMetallicRoughness":
			{
				"baseColorTexture":
				{
					"index": 0
				},
				"metallicRoughnessTexture":
				{
					"index": 1
				}
			},
			"normalTexture":
			{
				"index": 2
			},
			"occlusionTexture":
			{
				"index": 3
			}
		},
		{
			"name": "MI_Metall_Trim_01",
			"pbrMetallicRoughness":
			{
				"baseColorTexture":
				{
					"index": 4
				},
				"metallicRoughnessTexture":
				{
					"index": 5
				}
			},
			"normalTexture":
			{
				"index": 6
			},
			"occlusionTexture":
			{
				"index": 5
			}
		},
		{
			"name": "MI_Brick_02",
			"pbrMetallicRoughness":
			{
				"baseColorTexture":
				{
					"index": 7
				},
				"metallicRoughnessTexture":
				{
					"index": 8
				}
			},
			"normalTexture":
			{
				"index": 9
			},
			"occlusionTexture":
			{
				"index": 10
			}
		},
		{
			"name": "MI_Styl_Wall_Brick_02_SM_wall_niche_02",
			"pbrMetallicRoughness":
			{
				"baseColorTexture":
				{
					"index": 11,
					"texCoord": 1,
					"extensions":
					{
						"KHR_texture_transform":
						{
							"offset": [ -0.00883432105, -0.00839002058 ],
							"scale": [ 1.09548926, 1.04039431 ]
						}
					}
				},
				"metallicRoughnessTexture":
				{
					"index": 12,
					"texCoord": 1,
					"extensions":
					{
						"KHR_texture_transform":
						{
							"offset": [ -0.00883432105, -0.00839002058 ],
							"scale": [ 1.09548926, 1.04039431 ]
						}
					}
				}
			},
			"normalTexture":
			{
				"index": 13,
				"texCoord": 1,
				"extensions":
				{
					"KHR_texture_transform":
					{
						"offset": [ -0.00883432105, -0.00839002058 ],
						"scale": [ 1.09548926, 1.04039431 ]
					}
				}
			},
			"occlusionTexture":
			{
				"index": 14,
				"texCoord": 1,
				"extensions":
				{
					"KHR_texture_transform":
					{
						"offset": [ -0.00883432105, -0.00839002058 ],
						"scale": [ 1.09548926, 1.04039431 ]
					}
				}
			}
		}
	],
	"meshes": [
		{
			"name": "SM_wall_niche_02",
			"primitives": [
				{
					"attributes":
					{
						"POSITION": 1,
						"NORMAL": 2,
						"TANGENT": 3,
						"TEXCOORD_0": 4,
						"TEXCOORD_1": 5
					},
					"indices": 0,
					"material": 0
				},
				{
					"attributes":
					{
						"POSITION": 7,
						"NORMAL": 8,
						"TANGENT": 9,
						"TEXCOORD_0": 10,
						"TEXCOORD_1": 11
					},
					"indices": 6,
					"material": 1
				},
				{
					"attributes":
					{
						"POSITION": 13,
						"NORMAL": 14,
						"TANGENT": 15,
						"TEXCOORD_0": 16,
						"TEXCOORD_1": 17
					},
					"indices": 12,
					"material": 2
				},
				{
					"attributes":
					{
						"POSITION": 19,
						"NORMAL": 20,
						"TANGENT": 21,
						"TEXCOORD_0": 22,
						"TEXCOORD_1": 23
					},
					"indices": 18,
					"material": 3
				}
			]
		}
	],
	"nodes": [
		{
			"mesh": 0
		}
	],
	"samplers": [
		{
			"minFilter": 9987,
			"magFilter": 9729
		}
	],
	"scenes": [
		{
			"nodes": [ 0 ]
		}
	],
	"textures": [
		{
			"name": "T_vase_veapon_C",
			"sampler": 0,
			"source": 9
		},
		{
			"name": "MI_Weapon_MetallicRoughness",
			"sampler": 0,
			"source": 0
		},
		{
			"name": "T_vase_veapon_N",
			"sampler": 0,
			"source": 10
		},
		{
			"name": "T_vase_veapon_M",
			"sampler": 0,
			"source": 11
		},
		{
			"name": "T_Metal_Trim_C",
			"sampler": 0,
			"source": 12
		},
		{
			"name": "T_Metal_Trim_M",
			"sampler": 0,
			"source": 13
		},
		{
			"name": "T_Metal_Trim_N",
			"sampler": 0,
			"source": 14
		},
		{
			"name": "MI_Brick_02_BaseColor",
			"sampler": 0,
			"source": 1
		},
		{
			"name": "MI_Brick_02_MetallicRoughness",
			"sampler": 0,
			"source": 2
		},
		{
			"name": "MI_Brick_02_Normal",
			"sampler": 0,
			"source": 3
		},
		{
			"name": "MI_Brick_02_Occlusion",
			"sampler": 0,
			"source": 4
		},
		{
			"name": "MI_Styl_Wall_Brick_02_SM_wall_niche_02_BaseColor",
			"sampler": 0,
			"source": 5
		},
		{
			"name": "MI_Styl_Wall_Brick_02_SM_wall_niche_02_MetallicRoughness",
			"sampler": 0,
			"source": 6
		},
		{
			"name": "MI_Styl_Wall_Brick_02_SM_wall_niche_02_Normal",
			"sampler": 0,
			"source": 7
		},
		{
			"name": "MI_Styl_Wall_Brick_02_SM_wall_niche_02_Occlusion",
			"sampler": 0,
			"source": 8
		}
	],
	"extensionsUsed": [
		"KHR_texture_transform"
	]
}