{
	"asset":
	{
		"version": "2.0",
		"generator": "Unreal Engine 5.6.1"
	},
	"scene": 0,
	"accessors": [
		{
			"bufferView": 0,
			"count": 1212,
			"type": "SCALAR",
			"componentType": 5123
		},
		{
			"bufferView": 1,
			"count": 313,
			"type": "VEC3",
			"componentType": 5126,
			"min": [ 3.1458447, 1.84507346, -0.858788073 ],
			"max": [ 6.85415506, 8.71688366, 0.330518425 ]
		},
		{
			"bufferView": 2,
			"count": 313,
			"type": "VEC3",
			"componentType": 5126
		},
		{
			"bufferView": 3,
			"count": 313,
			"type": "VEC4",
			"componentType": 5126
		},
		{
			"bufferView": 4,
			"count": 313,
			"type": "VEC2",
			"componentType": 5126
		},
		{
			"bufferView": 5,
			"count": 313,
			"type": "VEC2",
			"componentType": 5126
		},
		{
			"bufferView": 6,
			"count": 618,
			"type": "SCALAR",
			"componentType": 5123
		},
		{
			"bufferView": 7,
			"count": 308,
			"type": "VEC3",
			"componentType": 5126,
			"min": [ -0.00445546536, -0.0077367262, -1.00077724 ],
			"max": [ 10.0070391, 11.0120754, 0.101389952 ]
		},
		{
			"bufferView": 8,
			"count": 308,
			"type": "VEC3",
			"componentType": 5126
		},
		{
			"bufferView": 9,
			"count": 308,
			"type": "VEC4",
			"componentType": 5126
		},
		{
			"bufferView": 10,
			"count": 308,
			"type": "VEC2",
			"componentType": 5126
		},
		{
			"bufferView": 11,
			"count": 308,
			"type": "VEC2",
			"componentType": 5126
		}
	],
	"buffers": [
		{
			"uri": "SM_wall_niche_01_ADEAAE5.bin",
			"byteLength": 38436
		}
	],
	"bufferViews": [
		{
			"buffer": 0,
			"byteLength": 2424,
			"target": 34963
		},
		{
			"buffer": 0,
			"byteLength": 3756,
			"byteOffset": 2424,
			"target": 34962
		},
		{
			"buffer": 0,
			"byteLength": 3756,
			"byteOffset": 6180,
			"target": 34962
		},
		{
			"buffer": 0,
			"byteLength": 5008,
			"byteOffset": 9936,
			"target": 34962
		},
		{
			"buffer": 0,
			"byteLength": 2504,
			"byteOffset": 14944,
			"target": 34962
		},
		{
			"buffer": 0,
			"byteLength": 2504,
			"byteOffset": 17448,
			"target": 34962
		},
		{
			"buffer": 0,
			"byteLength": 1236,
			"byteOffset": 19952,
			"target": 34963
		},
		{
			"buffer": 0,
			"byteLength": 3696,
			"byteOffset": 21188,
			"target": 34962
		},
		{
			"buffer": 0,
			"byteLength": 3696,
			"byteOffset": 24884,
			"target": 34962
		},
		{
			"buffer": 0,
			"byteLength": 4928,
			"byteOffset": 28580,
			"target": 34962
		},
		{
			"buffer": 0,
			"byteLength": 2464,
			"byteOffset": 33508,
			"target": 34962
		},
		{
			"buffer": 0,
			"byteLength": 2464,
			"byteOffset": 35972,
			"target": 34962
		}
	],
	"images": [
		{
			"uri": "MI_Brick_02_BaseColor.png"
		},
		{
			"uri": "MI_Brick_02_MetallicRoughness.png"
		},
		{
			"uri": "MI_Brick_02_Normal.png"
		},
		{
			"uri": "MI_Brick_02_Occlusion.png"
		},
		{
			"uri": "MI_Styl_Wall_Brick_02_SM_wall_niche_01_BaseColor.png"
		},
		{
			"uri": "MI_Styl_Wall_Brick_02_SM_wall_niche_01_MetallicRoughness.png"
		},
		{
			"uri": "MI_Styl_Wall_Brick_02_SM_wall_niche_01_Normal.png"
		},
		{
			"uri": "MI_Styl_Wall_Brick_02_SM_wall_niche_01_Occlusion.png"
		}
	],
	"materials": [
		{
			"name": "MI_Brick_02",
			"pbrMetallicRoughness":
			{
				"baseColorTexture":
				{
					"index": 0
				},
				"metallicRoughnessTexture":
				{
					"index": 1
				}
			},
			"normalTexture":
			{
				"index": 2
			},
			"occlusionTexture":
			{
				"index": 3
			}
		},
		{
			"name": "MI_Styl_Wall_Brick_02_SM_wall_niche_01",
			"pbrMetallicRoughness":
			{
				"baseColorTexture":
				{
					"index": 4,
					"texCoord": 1,
					"extensions":
					{
						"KHR_texture_transform":
						{
							"offset": [ -0.00770068588, -0.00578175299 ],
							"scale": [ 1.00183058, 1.06286943 ]
						}
					}
				},
				"metallicRoughnessTexture":
				{
					"index": 5,
					"texCoord": 1,
					"extensions":
					{
						"KHR_texture_transform":
						{
							"offset": [ -0.00770068588, -0.00578175299 ],
							"scale": [ 1.00183058, 1.06286943 ]
						}
					}
				}
			},
			"normalTexture":
			{
				"index": 6,
				"texCoord": 1,
				"extensions":
				{
					"KHR_texture_transform":
					{
						"offset": [ -0.00770068588, -0.00578175299 ],
						"scale": [ 1.00183058, 1.06286943 ]
					}
				}
			},
			"occlusionTexture":
			{
				"index": 7,
				"texCoord": 1,
				"extensions":
				{
					"KHR_texture_transform":
					{
						"offset": [ -0.00770068588, -0.00578175299 ],
						"scale": [ 1.00183058, 1.06286943 ]
					}
				}
			}
		}
	],
	"meshes": [
		{
			"name": "SM_wall_niche_01",
			"primitives": [
				{
					"attributes":
					{
						"POSITION": 1,
						"NORMAL": 2,
						"TANGENT": 3,
						"TEXCOORD_0": 4,
						"TEXCOORD_1": 5
					},
					"indices": 0,
					"material": 0
				},
				{
					"attributes":
					{
						"POSITION": 7,
						"NORMAL": 8,
						"TANGENT": 9,
						"TEXCOORD_0": 10,
						"TEXCOORD_1": 11
					},
					"indices": 6,
					"material": 1
				}
			]
		}
	],
	"nodes": [
		{
			"mesh": 0
		}
	],
	"samplers": [
		{
			"minFilter": 9987,
			"magFilter": 9729
		}
	],
	"scenes": [
		{
			"nodes": [ 0 ]
		}
	],
	"textures": [
		{
			"name": "MI_Brick_02_BaseColor",
			"sampler": 0,
			"source": 0
		},
		{
			"name": "MI_Brick_02_MetallicRoughness",
			"sampler": 0,
			"source": 1
		},
		{
			"name": "MI_Brick_02_Normal",
			"sampler": 0,
			"source": 2
		},
		{
			"name": "MI_Brick_02_Occlusion",
			"sampler": 0,
			"source": 3
		},
		{
			"name": "MI_Styl_Wall_Brick_02_SM_wall_niche_01_BaseColor",
			"sampler": 0,
			"source": 4
		},
		{
			"name": "MI_Styl_Wall_Brick_02_SM_wall_niche_01_MetallicRoughness",
			"sampler": 0,
			"source": 5
		},
		{
			"name": "MI_Styl_Wall_Brick_02_SM_wall_niche_01_Normal",
			"sampler": 0,
			"source": 6
		},
		{
			"name": "MI_Styl_Wall_Brick_02_SM_wall_niche_01_Occlusion",
			"sampler": 0,
			"source": 7
		}
	],
	"extensionsUsed": [
		"KHR_texture_transform"
	]
}