{
	"asset":
	{
		"version": "2.0",
		"generator": "Unreal Engine 5.6.1"
	},
	"scene": 0,
	"accessors": [
		{
			"bufferView": 0,
			"count": 504,
			"type": "SCALAR",
			"componentType": 5121
		},
		{
			"bufferView": 1,
			"count": 112,
			"type": "VEC3",
			"componentType": 5126,
			"min": [ -1.99999678, 6.10351549e-07, -5.00000191 ],
			"max": [ 3.00000048, 3.97403193, 6.98475333e-07 ]
		},
		{
			"bufferView": 2,
			"count": 112,
			"type": "VEC3",
			"componentType": 5126
		},
		{
			"bufferView": 3,
			"count": 112,
			"type": "VEC4",
			"componentType": 5126
		},
		{
			"bufferView": 4,
			"count": 112,
			"type": "VEC2",
			"componentType": 5126
		},
		{
			"bufferView": 5,
			"count": 112,
			"type": "VEC2",
			"componentType": 5126
		}
	],
	"buffers": [
		{
			"uri": "SM_wall_tonnel_03_345FD71D.bin",
			"byteLength": 6776
		}
	],
	"bufferViews": [
		{
			"buffer": 0,
			"byteLength": 504,
			"target": 34963
		},
		{
			"buffer": 0,
			"byteLength": 1344,
			"byteOffset": 504,
			"target": 34962
		},
		{
			"buffer": 0,
			"byteLength": 1344,
			"byteOffset": 1848,
			"target": 34962
		},
		{
			"buffer": 0,
			"byteLength": 1792,
			"byteOffset": 3192,
			"target": 34962
		},
		{
			"buffer": 0,
			"byteLength": 896,
			"byteOffset": 4984,
			"target": 34962
		},
		{
			"buffer": 0,
			"byteLength": 896,
			"byteOffset": 5880,
			"target": 34962
		}
	],
	"images": [
		{
			"uri": "MI_wall_01_MetallicRoughness.png"
		},
		{
			"uri": "MI_wall_01_Occlusion.png"
		},
		{
			"uri": "T_wall01_C.png"
		},
		{
			"uri": "T_wall01_N.png"
		}
	],
	"materials": [
		{
			"name": "MI_wall_01",
			"pbrMetallicRoughness":
			{
				"baseColorTexture":
				{
					"index": 0
				},
				"metallicRoughnessTexture":
				{
					"index": 1
				}
			},
			"normalTexture":
			{
				"index": 2
			},
			"occlusionTexture":
			{
				"index": 3
			},
			"doubleSided": true
		}
	],
	"meshes": [
		{
			"name": "SM_wall_tonnel_03",
			"primitives": [
				{
					"attributes":
					{
						"POSITION": 1,
						"NORMAL": 2,
						"TANGENT": 3,
						"TEXCOORD_0": 4,
						"TEXCOORD_1": 5
					},
					"indices": 0,
					"material": 0
				}
			]
		}
	],
	"nodes": [
		{
			"mesh": 0
		}
	],
	"samplers": [
		{
			"minFilter": 9987,
			"magFilter": 9729
		}
	],
	"scenes": [
		{
			"nodes": [ 0 ]
		}
	],
	"textures": [
		{
			"name": "T_wall01_C",
			"sampler": 0,
			"source": 2
		},
		{
			"name": "MI_wall_01_MetallicRoughness",
			"sampler": 0,
			"source": 0
		},
		{
			"name": "T_wall01_N",
			"sampler": 0,
			"source": 3
		},
		{
			"name": "MI_wall_01_Occlusion",
			"sampler": 0,
			"source": 1
		}
	]
}