{
	"asset":
	{
		"version": "2.0",
		"generator": "Unreal Engine 5.6.1"
	},
	"scene": 0,
	"accessors": [
		{
			"bufferView": 0,
			"count": 798,
			"type": "SCALAR",
			"componentType": 5123
		},
		{
			"bufferView": 1,
			"count": 313,
			"type": "VEC3",
			"componentType": 5126,
			"min": [ -1.26148605, -0.0426337384, -2.08843207 ],
			"max": [ 1.87473333, 0.11282935, 0.978719056 ]
		},
		{
			"bufferView": 2,
			"count": 313,
			"type": "VEC3",
			"componentType": 5126
		},
		{
			"bufferView": 3,
			"count": 313,
			"type": "VEC4",
			"componentType": 5126
		},
		{
			"bufferView": 4,
			"count": 313,
			"type": "VEC2",
			"componentType": 5126
		},
		{
			"bufferView": 5,
			"count": 313,
			"type": "VEC2",
			"componentType": 5126
		}
	],
	"buffers": [
		{
			"uri": "SM_wood_debris_02.bin",
			"byteLength": 19124
		}
	],
	"bufferViews": [
		{
			"buffer": 0,
			"byteLength": 1596,
			"target": 34963
		},
		{
			"buffer": 0,
			"byteLength": 3756,
			"byteOffset": 1596,
			"target": 34962
		},
		{
			"buffer": 0,
			"byteLength": 3756,
			"byteOffset": 5352,
			"target": 34962
		},
		{
			"buffer": 0,
			"byteLength": 5008,
			"byteOffset": 9108,
			"target": 34962
		},
		{
			"buffer": 0,
			"byteLength": 2504,
			"byteOffset": 14116,
			"target": 34962
		},
		{
			"buffer": 0,
			"byteLength": 2504,
			"byteOffset": 16620,
			"target": 34962
		}
	],
	"images": [
		{
			"uri": "MI_Wood_Trim_BaseColor.png"
		},
		{
			"uri": "MI_Wood_Trim_MetallicRoughness.png"
		},
		{
			"uri": "MI_Wood_Trim_Occlusion.png"
		},
		{
			"uri": "T_Wood_Trim_N.png"
		}
	],
	"materials": [
		{
			"name": "MI_Wood_Trim",
			"pbrMetallicRoughness":
			{
				"baseColorTexture":
				{
					"index": 0
				},
				"metallicRoughnessTexture":
				{
					"index": 1
				}
			},
			"normalTexture":
			{
				"index": 2
			},
			"occlusionTexture":
			{
				"index": 3
			}
		}
	],
	"meshes": [
		{
			"name": "SM_wood_debris_02",
			"primitives": [
				{
					"attributes":
					{
						"POSITION": 1,
						"NORMAL": 2,
						"TANGENT": 3,
						"TEXCOORD_0": 4,
						"TEXCOORD_1": 5
					},
					"indices": 0,
					"material": 0
				}
			]
		}
	],
	"nodes": [
		{
			"mesh": 0
		}
	],
	"samplers": [
		{
			"minFilter": 9987,
			"magFilter": 9729
		}
	],
	"scenes": [
		{
			"nodes": [ 0 ]
		}
	],
	"textures": [
		{
			"name": "MI_Wood_Trim_BaseColor",
			"sampler": 0,
			"source": 0
		},
		{
			"name": "MI_Wood_Trim_MetallicRoughness",
			"sampler": 0,
			"source": 1
		},
		{
			"name": "T_Wood_Trim_N",
			"sampler": 0,
			"source": 3
		},
		{
			"name": "MI_Wood_Trim_Occlusion",
			"sampler": 0,
			"source": 2
		}
	]
}