{
	"asset":
	{
		"version": "2.0",
		"generator": "Unreal Engine 5.6.1"
	},
	"scene": 0,
	"accessors": [
		{
			"bufferView": 0,
			"count": 69,
			"type": "SCALAR",
			"componentType": 5121
		},
		{
			"bufferView": 1,
			"count": 25,
			"type": "VEC3",
			"componentType": 5126,
			"min": [ -8.75874946e-08, -2.13162816e-16, -0.000107404761 ],
			"max": [ 4.75292969, 8.20357418, 7.341323e-06 ]
		},
		{
			"bufferView": 2,
			"count": 25,
			"type": "VEC3",
			"componentType": 5126
		},
		{
			"bufferView": 3,
			"count": 25,
			"type": "VEC4",
			"componentType": 5126
		},
		{
			"bufferView": 4,
			"count": 25,
			"type": "VEC2",
			"componentType": 5126
		},
		{
			"bufferView": 5,
			"count": 25,
			"type": "VEC2",
			"componentType": 5126
		}
	],
	"buffers": [
		{
			"uri": "SM_wall_07.bin",
			"byteLength": 1472
		}
	],
	"bufferViews": [
		{
			"buffer": 0,
			"byteLength": 69,
			"target": 34963
		},
		{
			"buffer": 0,
			"byteLength": 300,
			"byteOffset": 72,
			"target": 34962
		},
		{
			"buffer": 0,
			"byteLength": 300,
			"byteOffset": 372,
			"target": 34962
		},
		{
			"buffer": 0,
			"byteLength": 400,
			"byteOffset": 672,
			"target": 34962
		},
		{
			"buffer": 0,
			"byteLength": 200,
			"byteOffset": 1072,
			"target": 34962
		},
		{
			"buffer": 0,
			"byteLength": 200,
			"byteOffset": 1272,
			"target": 34962
		}
	],
	"images": [
		{
			"uri": "MI_wall_01_MetallicRoughness.png"
		},
		{
			"uri": "MI_wall_01_Occlusion.png"
		},
		{
			"uri": "T_wall01_C.png"
		},
		{
			"uri": "T_wall01_N.png"
		}
	],
	"materials": [
		{
			"name": "MI_wall_01",
			"pbrMetallicRoughness":
			{
				"baseColorTexture":
				{
					"index": 0
				},
				"metallicRoughnessTexture":
				{
					"index": 1
				}
			},
			"normalTexture":
			{
				"index": 2
			},
			"occlusionTexture":
			{
				"index": 3
			},
			"doubleSided": true
		}
	],
	"meshes": [
		{
			"name": "SM_wall_07",
			"primitives": [
				{
					"attributes":
					{
						"POSITION": 1,
						"NORMAL": 2,
						"TANGENT": 3,
						"TEXCOORD_0": 4,
						"TEXCOORD_1": 5
					},
					"indices": 0,
					"material": 0
				}
			]
		}
	],
	"nodes": [
		{
			"mesh": 0
		}
	],
	"samplers": [
		{
			"minFilter": 9987,
			"magFilter": 9729
		}
	],
	"scenes": [
		{
			"nodes": [ 0 ]
		}
	],
	"textures": [
		{
			"name": "T_wall01_C",
			"sampler": 0,
			"source": 2
		},
		{
			"name": "MI_wall_01_MetallicRoughness",
			"sampler": 0,
			"source": 0
		},
		{
			"name": "T_wall01_N",
			"sampler": 0,
			"source": 3
		},
		{
			"name": "MI_wall_01_Occlusion",
			"sampler": 0,
			"source": 1
		}
	]
}