{
	"asset":
	{
		"version": "2.0",
		"generator": "Unreal Engine 5.6.1"
	},
	"scene": 0,
	"accessors": [
		{
			"bufferView": 0,
			"count": 2343,
			"type": "SCALAR",
			"componentType": 5123
		},
		{
			"bufferView": 1,
			"count": 838,
			"type": "VEC3",
			"componentType": 5126,
			"min": [ -1.91978557e-07, 1.21557521e-22, -0.494712174 ],
			"max": [ 5.9990406, 10.7030725, 0.218345106 ]
		},
		{
			"bufferView": 2,
			"count": 838,
			"type": "VEC3",
			"componentType": 5126
		},
		{
			"bufferView": 3,
			"count": 838,
			"type": "VEC4",
			"componentType": 5126
		},
		{
			"bufferView": 4,
			"count": 838,
			"type": "VEC2",
			"componentType": 5126
		},
		{
			"bufferView": 5,
			"count": 838,
			"type": "VEC2",
			"componentType": 5126
		},
		{
			"bufferView": 6,
			"count": 7392,
			"type": "SCALAR",
			"componentType": 5123
		},
		{
			"bufferView": 7,
			"count": 3472,
			"type": "VEC3",
			"componentType": 5126,
			"min": [ 1.50929368, 6.97956944, -0.704266965 ],
			"max": [ 4.48974895, 10.251318, 0.0718313903 ]
		},
		{
			"bufferView": 8,
			"count": 3472,
			"type": "VEC3",
			"componentType": 5126
		},
		{
			"bufferView": 9,
			"count": 3472,
			"type": "VEC4",
			"componentType": 5126
		},
		{
			"bufferView": 10,
			"count": 3472,
			"type": "VEC2",
			"componentType": 5126
		},
		{
			"bufferView": 11,
			"count": 3472,
			"type": "VEC2",
			"componentType": 5126
		},
		{
			"bufferView": 12,
			"count": 5820,
			"type": "SCALAR",
			"componentType": 5123
		},
		{
			"bufferView": 13,
			"count": 2400,
			"type": "VEC3",
			"componentType": 5126,
			"min": [ -4.14701553e-08, 4.96496296, -0.566544712 ],
			"max": [ 5.9990387, 6.38216734, 0.140955344 ]
		},
		{
			"bufferView": 14,
			"count": 2400,
			"type": "VEC3",
			"componentType": 5126
		},
		{
			"bufferView": 15,
			"count": 2400,
			"type": "VEC4",
			"componentType": 5126
		},
		{
			"bufferView": 16,
			"count": 2400,
			"type": "VEC2",
			"componentType": 5126
		},
		{
			"bufferView": 17,
			"count": 2400,
			"type": "VEC2",
			"componentType": 5126
		}
	],
	"buffers": [
		{
			"uri": "SM_wall_08.bin",
			"byteLength": 406872
		}
	],
	"bufferViews": [
		{
			"buffer": 0,
			"byteLength": 4686,
			"target": 34963
		},
		{
			"buffer": 0,
			"byteLength": 10056,
			"byteOffset": 4688,
			"target": 34962
		},
		{
			"buffer": 0,
			"byteLength": 10056,
			"byteOffset": 14744,
			"target": 34962
		},
		{
			"buffer": 0,
			"byteLength": 13408,
			"byteOffset": 24800,
			"target": 34962
		},
		{
			"buffer": 0,
			"byteLength": 6704,
			"byteOffset": 38208,
			"target": 34962
		},
		{
			"buffer": 0,
			"byteLength": 6704,
			"byteOffset": 44912,
			"target": 34962
		},
		{
			"buffer": 0,
			"byteLength": 14784,
			"byteOffset": 51616,
			"target": 34963
		},
		{
			"buffer": 0,
			"byteLength": 41664,
			"byteOffset": 66400,
			"target": 34962
		},
		{
			"buffer": 0,
			"byteLength": 41664,
			"byteOffset": 108064,
			"target": 34962
		},
		{
			"buffer": 0,
			"byteLength": 55552,
			"byteOffset": 149728,
			"target": 34962
		},
		{
			"buffer": 0,
			"byteLength": 27776,
			"byteOffset": 205280,
			"target": 34962
		},
		{
			"buffer": 0,
			"byteLength": 27776,
			"byteOffset": 233056,
			"target": 34962
		},
		{
			"buffer": 0,
			"byteLength": 11640,
			"byteOffset": 260832,
			"target": 34963
		},
		{
			"buffer": 0,
			"byteLength": 28800,
			"byteOffset": 272472,
			"target": 34962
		},
		{
			"buffer": 0,
			"byteLength": 28800,
			"byteOffset": 301272,
			"target": 34962
		},
		{
			"buffer": 0,
			"byteLength": 38400,
			"byteOffset": 330072,
			"target": 34962
		},
		{
			"buffer": 0,
			"byteLength": 19200,
			"byteOffset": 368472,
			"target": 34962
		},
		{
			"buffer": 0,
			"byteLength": 19200,
			"byteOffset": 387672,
			"target": 34962
		}
	],
	"images": [
		{
			"uri": "MI_wall_01_MetallicRoughness.png"
		},
		{
			"uri": "MI_wall_01_Occlusion.png"
		},
		{
			"uri": "MI_Arches_01_MetallicRoughness.png"
		},
		{
			"uri": "MI_Column_02_MetallicRoughness.png"
		},
		{
			"uri": "T_wall01_C.png"
		},
		{
			"uri": "T_wall01_N.png"
		},
		{
			"uri": "T_arches_C.png"
		},
		{
			"uri": "T_arches_N.png"
		},
		{
			"uri": "T_arches_M.png"
		},
		{
			"uri": "T_column02_C.png"
		},
		{
			"uri": "T_column02_N.png"
		},
		{
			"uri": "T_column02_M.png"
		}
	],
	"materials": [
		{
			"name": "MI_wall_01",
			"pbrMetallicRoughness":
			{
				"baseColorTexture":
				{
					"index": 0
				},
				"metallicRoughnessTexture":
				{
					"index": 1
				}
			},
			"normalTexture":
			{
				"index": 2
			},
			"occlusionTexture":
			{
				"index": 3
			},
			"doubleSided": true
		},
		{
			"name": "MI_Arches_01",
			"pbrMetallicRoughness":
			{
				"baseColorTexture":
				{
					"index": 4
				},
				"metallicRoughnessTexture":
				{
					"index": 5
				}
			},
			"normalTexture":
			{
				"index": 6
			},
			"occlusionTexture":
			{
				"index": 7
			},
			"doubleSided": true
		},
		{
			"name": "MI_Column_02",
			"pbrMetallicRoughness":
			{
				"baseColorTexture":
				{
					"index": 8
				},
				"metallicRoughnessTexture":
				{
					"index": 9
				}
			},
			"normalTexture":
			{
				"index": 10
			},
			"occlusionTexture":
			{
				"index": 11
			}
		}
	],
	"meshes": [
		{
			"name": "SM_wall_08",
			"primitives": [
				{
					"attributes":
					{
						"POSITION": 1,
						"NORMAL": 2,
						"TANGENT": 3,
						"TEXCOORD_0": 4,
						"TEXCOORD_1": 5
					},
					"indices": 0,
					"material": 0
				},
				{
					"attributes":
					{
						"POSITION": 7,
						"NORMAL": 8,
						"TANGENT": 9,
						"TEXCOORD_0": 10,
						"TEXCOORD_1": 11
					},
					"indices": 6,
					"material": 1
				},
				{
					"attributes":
					{
						"POSITION": 13,
						"NORMAL": 14,
						"TANGENT": 15,
						"TEXCOORD_0": 16,
						"TEXCOORD_1": 17
					},
					"indices": 12,
					"material": 2
				}
			]
		}
	],
	"nodes": [
		{
			"mesh": 0
		}
	],
	"samplers": [
		{
			"minFilter": 9987,
			"magFilter": 9729
		}
	],
	"scenes": [
		{
			"nodes": [ 0 ]
		}
	],
	"textures": [
		{
			"name": "T_wall01_C",
			"sampler": 0,
			"source": 4
		},
		{
			"name": "MI_wall_01_MetallicRoughness",
			"sampler": 0,
			"source": 0
		},
		{
			"name": "T_wall01_N",
			"sampler": 0,
			"source": 5
		},
		{
			"name": "MI_wall_01_Occlusion",
			"sampler": 0,
			"source": 1
		},
		{
			"name": "T_arches_C",
			"sampler": 0,
			"source": 6
		},
		{
			"name": "MI_Arches_01_MetallicRoughness",
			"sampler": 0,
			"source": 2
		},
		{
			"name": "T_arches_N",
			"sampler": 0,
			"source": 7
		},
		{
			"name": "T_arches_M",
			"sampler": 0,
			"source": 8
		},
		{
			"name": "T_column02_C",
			"sampler": 0,
			"source": 9
		},
		{
			"name": "MI_Column_02_MetallicRoughness",
			"sampler": 0,
			"source": 3
		},
		{
			"name": "T_column02_N",
			"sampler": 0,
			"source": 10
		},
		{
			"name": "T_column02_M",
			"sampler": 0,
			"source": 11
		}
	]
}