{
	"asset":
	{
		"version": "2.0",
		"generator": "Unreal Engine 5.6.1"
	},
	"scene": 0,
	"accessors": [
		{
			"bufferView": 0,
			"count": 3714,
			"type": "SCALAR",
			"componentType": 5123
		},
		{
			"bufferView": 1,
			"count": 1432,
			"type": "VEC3",
			"componentType": 5126,
			"min": [ -1.09844363, -3.81469718e-08, -1.05697167 ],
			"max": [ 1.22799695, 2.89652205, 1.05700076 ]
		},
		{
			"bufferView": 2,
			"count": 1432,
			"type": "VEC3",
			"componentType": 5126
		},
		{
			"bufferView": 3,
			"count": 1432,
			"type": "VEC4",
			"componentType": 5126
		},
		{
			"bufferView": 4,
			"count": 1432,
			"type": "VEC2",
			"componentType": 5126
		},
		{
			"bufferView": 5,
			"count": 1432,
			"type": "VEC2",
			"componentType": 5126
		},
		{
			"bufferView": 6,
			"count": 9192,
			"type": "SCALAR",
			"componentType": 5123
		},
		{
			"bufferView": 7,
			"count": 3141,
			"type": "VEC3",
			"componentType": 5126,
			"min": [ -0.610989392, -0.0253133476, -0.599939704 ],
			"max": [ 0.597304165, 0.676479757, 0.605044723 ]
		},
		{
			"bufferView": 8,
			"count": 3141,
			"type": "VEC3",
			"componentType": 5126
		},
		{
			"bufferView": 9,
			"count": 3141,
			"type": "VEC4",
			"componentType": 5126
		},
		{
			"bufferView": 10,
			"count": 3141,
			"type": "VEC2",
			"componentType": 5126
		},
		{
			"bufferView": 11,
			"count": 3141,
			"type": "VEC2",
			"componentType": 5126
		}
	],
	"buffers": [
		{
			"uri": "SM_well_01_6C78D77D.bin",
			"byteLength": 281900
		}
	],
	"bufferViews": [
		{
			"buffer": 0,
			"byteLength": 7428,
			"target": 34963
		},
		{
			"buffer": 0,
			"byteLength": 17184,
			"byteOffset": 7428,
			"target": 34962
		},
		{
			"buffer": 0,
			"byteLength": 17184,
			"byteOffset": 24612,
			"target": 34962
		},
		{
			"buffer": 0,
			"byteLength": 22912,
			"byteOffset": 41796,
			"target": 34962
		},
		{
			"buffer": 0,
			"byteLength": 11456,
			"byteOffset": 64708,
			"target": 34962
		},
		{
			"buffer": 0,
			"byteLength": 11456,
			"byteOffset": 76164,
			"target": 34962
		},
		{
			"buffer": 0,
			"byteLength": 18384,
			"byteOffset": 87620,
			"target": 34963
		},
		{
			"buffer": 0,
			"byteLength": 37692,
			"byteOffset": 106004,
			"target": 34962
		},
		{
			"buffer": 0,
			"byteLength": 37692,
			"byteOffset": 143696,
			"target": 34962
		},
		{
			"buffer": 0,
			"byteLength": 50256,
			"byteOffset": 181388,
			"target": 34962
		},
		{
			"buffer": 0,
			"byteLength": 25128,
			"byteOffset": 231644,
			"target": 34962
		},
		{
			"buffer": 0,
			"byteLength": 25128,
			"byteOffset": 256772,
			"target": 34962
		}
	],
	"images": [
		{
			"uri": "MI_Wood_Trim_BaseColor.png"
		},
		{
			"uri": "MI_Wood_Trim_MetallicRoughness.png"
		},
		{
			"uri": "MI_Wood_Trim_Occlusion.png"
		},
		{
			"uri": "MI_Stones_BaseColor.png"
		},
		{
			"uri": "MI_Stones_MetallicRoughness.png"
		},
		{
			"uri": "T_Wood_Trim_N.png"
		},
		{
			"uri": "T_Stone_N.png"
		}
	],
	"materials": [
		{
			"name": "MI_Wood_Trim",
			"pbrMetallicRoughness":
			{
				"baseColorTexture":
				{
					"index": 0
				},
				"metallicRoughnessTexture":
				{
					"index": 1
				}
			},
			"normalTexture":
			{
				"index": 2
			},
			"occlusionTexture":
			{
				"index": 3
			}
		},
		{
			"name": "MI_Stones",
			"pbrMetallicRoughness":
			{
				"baseColorTexture":
				{
					"index": 4
				},
				"metallicRoughnessTexture":
				{
					"index": 5
				}
			},
			"normalTexture":
			{
				"index": 6
			}
		}
	],
	"meshes": [
		{
			"name": "SM_well_01",
			"primitives": [
				{
					"attributes":
					{
						"POSITION": 1,
						"NORMAL": 2,
						"TANGENT": 3,
						"TEXCOORD_0": 4,
						"TEXCOORD_1": 5
					},
					"indices": 0,
					"material": 0
				},
				{
					"attributes":
					{
						"POSITION": 7,
						"NORMAL": 8,
						"TANGENT": 9,
						"TEXCOORD_0": 10,
						"TEXCOORD_1": 11
					},
					"indices": 6,
					"material": 1
				}
			]
		}
	],
	"nodes": [
		{
			"mesh": 0
		}
	],
	"samplers": [
		{
			"minFilter": 9987,
			"magFilter": 9729
		}
	],
	"scenes": [
		{
			"nodes": [ 0 ]
		}
	],
	"textures": [
		{
			"name": "MI_Wood_Trim_BaseColor",
			"sampler": 0,
			"source": 0
		},
		{
			"name": "MI_Wood_Trim_MetallicRoughness",
			"sampler": 0,
			"source": 1
		},
		{
			"name": "T_Wood_Trim_N",
			"sampler": 0,
			"source": 5
		},
		{
			"name": "MI_Wood_Trim_Occlusion",
			"sampler": 0,
			"source": 2
		},
		{
			"name": "MI_Stones_BaseColor",
			"sampler": 0,
			"source": 3
		},
		{
			"name": "MI_Stones_MetallicRoughness",
			"sampler": 0,
			"source": 4
		},
		{
			"name": "T_Stone_N",
			"sampler": 0,
			"source": 6
		}
	]
}