{
	"asset":
	{
		"version": "2.0",
		"generator": "Unreal Engine 5.6.1"
	},
	"scene": 0,
	"accessors": [
		{
			"bufferView": 0,
			"count": 8976,
			"type": "SCALAR",
			"componentType": 5123
		},
		{
			"bufferView": 1,
			"count": 4176,
			"type": "VEC3",
			"componentType": 5126,
			"min": [ 1.88765168, 6.97956944, -0.707194984 ],
			"max": [ 7.14380312, 10.251318, 0.0718313903 ]
		},
		{
			"bufferView": 2,
			"count": 4176,
			"type": "VEC3",
			"componentType": 5126
		},
		{
			"bufferView": 3,
			"count": 4176,
			"type": "VEC4",
			"componentType": 5126
		},
		{
			"bufferView": 4,
			"count": 4176,
			"type": "VEC2",
			"componentType": 5126
		},
		{
			"bufferView": 5,
			"count": 4176,
			"type": "VEC2",
			"componentType": 5126
		},
		{
			"bufferView": 6,
			"count": 3618,
			"type": "SCALAR",
			"componentType": 5123
		},
		{
			"bufferView": 7,
			"count": 1294,
			"type": "VEC3",
			"componentType": 5126,
			"min": [ -4.03174909e-06, 0, -0.595978975 ],
			"max": [ 9.0314579, 10.5782051, 0.218345106 ]
		},
		{
			"bufferView": 8,
			"count": 1294,
			"type": "VEC3",
			"componentType": 5126
		},
		{
			"bufferView": 9,
			"count": 1294,
			"type": "VEC4",
			"componentType": 5126
		},
		{
			"bufferView": 10,
			"count": 1294,
			"type": "VEC2",
			"componentType": 5126
		},
		{
			"bufferView": 11,
			"count": 1294,
			"type": "VEC2",
			"componentType": 5126
		},
		{
			"bufferView": 12,
			"count": 8148,
			"type": "SCALAR",
			"componentType": 5123
		},
		{
			"bufferView": 13,
			"count": 3360,
			"type": "VEC3",
			"componentType": 5126,
			"min": [ 0.0170070957, 4.96496296, -0.566544712 ],
			"max": [ 9.01444817, 6.38216734, 0.140955344 ]
		},
		{
			"bufferView": 14,
			"count": 3360,
			"type": "VEC3",
			"componentType": 5126
		},
		{
			"bufferView": 15,
			"count": 3360,
			"type": "VEC4",
			"componentType": 5126
		},
		{
			"bufferView": 16,
			"count": 3360,
			"type": "VEC2",
			"componentType": 5126
		},
		{
			"bufferView": 17,
			"count": 3360,
			"type": "VEC2",
			"componentType": 5126
		}
	],
	"buffers": [
		{
			"uri": "SM_wall_06_FF5FE387.bin",
			"byteLength": 535964
		}
	],
	"bufferViews": [
		{
			"buffer": 0,
			"byteLength": 17952,
			"target": 34963
		},
		{
			"buffer": 0,
			"byteLength": 50112,
			"byteOffset": 17952,
			"target": 34962
		},
		{
			"buffer": 0,
			"byteLength": 50112,
			"byteOffset": 68064,
			"target": 34962
		},
		{
			"buffer": 0,
			"byteLength": 66816,
			"byteOffset": 118176,
			"target": 34962
		},
		{
			"buffer": 0,
			"byteLength": 33408,
			"byteOffset": 184992,
			"target": 34962
		},
		{
			"buffer": 0,
			"byteLength": 33408,
			"byteOffset": 218400,
			"target": 34962
		},
		{
			"buffer": 0,
			"byteLength": 7236,
			"byteOffset": 251808,
			"target": 34963
		},
		{
			"buffer": 0,
			"byteLength": 15528,
			"byteOffset": 259044,
			"target": 34962
		},
		{
			"buffer": 0,
			"byteLength": 15528,
			"byteOffset": 274572,
			"target": 34962
		},
		{
			"buffer": 0,
			"byteLength": 20704,
			"byteOffset": 290100,
			"target": 34962
		},
		{
			"buffer": 0,
			"byteLength": 10352,
			"byteOffset": 310804,
			"target": 34962
		},
		{
			"buffer": 0,
			"byteLength": 10352,
			"byteOffset": 321156,
			"target": 34962
		},
		{
			"buffer": 0,
			"byteLength": 16296,
			"byteOffset": 331508,
			"target": 34963
		},
		{
			"buffer": 0,
			"byteLength": 40320,
			"byteOffset": 347804,
			"target": 34962
		},
		{
			"buffer": 0,
			"byteLength": 40320,
			"byteOffset": 388124,
			"target": 34962
		},
		{
			"buffer": 0,
			"byteLength": 53760,
			"byteOffset": 428444,
			"target": 34962
		},
		{
			"buffer": 0,
			"byteLength": 26880,
			"byteOffset": 482204,
			"target": 34962
		},
		{
			"buffer": 0,
			"byteLength": 26880,
			"byteOffset": 509084,
			"target": 34962
		}
	],
	"images": [
		{
			"uri": "MI_Arches_01_MetallicRoughness.png"
		},
		{
			"uri": "MI_wall_01_MetallicRoughness.png"
		},
		{
			"uri": "MI_wall_01_Occlusion.png"
		},
		{
			"uri": "MI_Column_02_MetallicRoughness.png"
		},
		{
			"uri": "T_arches_C.png"
		},
		{
			"uri": "T_arches_N.png"
		},
		{
			"uri": "T_arches_M.png"
		},
		{
			"uri": "T_wall01_C.png"
		},
		{
			"uri": "T_wall01_N.png"
		},
		{
			"uri": "T_column02_C.png"
		},
		{
			"uri": "T_column02_N.png"
		},
		{
			"uri": "T_column02_M.png"
		}
	],
	"materials": [
		{
			"name": "MI_Arches_01",
			"pbrMetallicRoughness":
			{
				"baseColorTexture":
				{
					"index": 0
				},
				"metallicRoughnessTexture":
				{
					"index": 1
				}
			},
			"normalTexture":
			{
				"index": 2
			},
			"occlusionTexture":
			{
				"index": 3
			},
			"doubleSided": true
		},
		{
			"name": "MI_wall_01",
			"pbrMetallicRoughness":
			{
				"baseColorTexture":
				{
					"index": 4
				},
				"metallicRoughnessTexture":
				{
					"index": 5
				}
			},
			"normalTexture":
			{
				"index": 6
			},
			"occlusionTexture":
			{
				"index": 7
			},
			"doubleSided": true
		},
		{
			"name": "MI_Column_02",
			"pbrMetallicRoughness":
			{
				"baseColorTexture":
				{
					"index": 8
				},
				"metallicRoughnessTexture":
				{
					"index": 9
				}
			},
			"normalTexture":
			{
				"index": 10
			},
			"occlusionTexture":
			{
				"index": 11
			}
		}
	],
	"meshes": [
		{
			"name": "SM_wall_06",
			"primitives": [
				{
					"attributes":
					{
						"POSITION": 1,
						"NORMAL": 2,
						"TANGENT": 3,
						"TEXCOORD_0": 4,
						"TEXCOORD_1": 5
					},
					"indices": 0,
					"material": 0
				},
				{
					"attributes":
					{
						"POSITION": 7,
						"NORMAL": 8,
						"TANGENT": 9,
						"TEXCOORD_0": 10,
						"TEXCOORD_1": 11
					},
					"indices": 6,
					"material": 1
				},
				{
					"attributes":
					{
						"POSITION": 13,
						"NORMAL": 14,
						"TANGENT": 15,
						"TEXCOORD_0": 16,
						"TEXCOORD_1": 17
					},
					"indices": 12,
					"material": 2
				}
			]
		}
	],
	"nodes": [
		{
			"mesh": 0
		}
	],
	"samplers": [
		{
			"minFilter": 9987,
			"magFilter": 9729
		}
	],
	"scenes": [
		{
			"nodes": [ 0 ]
		}
	],
	"textures": [
		{
			"name": "T_arches_C",
			"sampler": 0,
			"source": 4
		},
		{
			"name": "MI_Arches_01_MetallicRoughness",
			"sampler": 0,
			"source": 0
		},
		{
			"name": "T_arches_N",
			"sampler": 0,
			"source": 5
		},
		{
			"name": "T_arches_M",
			"sampler": 0,
			"source": 6
		},
		{
			"name": "T_wall01_C",
			"sampler": 0,
			"source": 7
		},
		{
			"name": "MI_wall_01_MetallicRoughness",
			"sampler": 0,
			"source": 1
		},
		{
			"name": "T_wall01_N",
			"sampler": 0,
			"source": 8
		},
		{
			"name": "MI_wall_01_Occlusion",
			"sampler": 0,
			"source": 2
		},
		{
			"name": "T_column02_C",
			"sampler": 0,
			"source": 9
		},
		{
			"name": "MI_Column_02_MetallicRoughness",
			"sampler": 0,
			"source": 3
		},
		{
			"name": "T_column02_N",
			"sampler": 0,
			"source": 10
		},
		{
			"name": "T_column02_M",
			"sampler": 0,
			"source": 11
		}
	]
}