{
	"asset":
	{
		"version": "2.0",
		"generator": "Unreal Engine 5.6.1"
	},
	"scene": 0,
	"accessors": [
		{
			"bufferView": 0,
			"count": 2724,
			"type": "SCALAR",
			"componentType": 5123
		},
		{
			"bufferView": 1,
			"count": 1246,
			"type": "VEC3",
			"componentType": 5126,
			"min": [ -0.192917243, -2.63339182e-16, -3.99999499 ],
			"max": [ 3.19291735, 3.97403097, -0 ]
		},
		{
			"bufferView": 2,
			"count": 1246,
			"type": "VEC3",
			"componentType": 5126
		},
		{
			"bufferView": 3,
			"count": 1246,
			"type": "VEC4",
			"componentType": 5126
		},
		{
			"bufferView": 4,
			"count": 1246,
			"type": "VEC2",
			"componentType": 5126
		},
		{
			"bufferView": 5,
			"count": 1246,
			"type": "VEC2",
			"componentType": 5126
		}
	],
	"buffers": [
		{
			"uri": "SM_wall_tonnel_05_E6E667AF.bin",
			"byteLength": 75224
		}
	],
	"bufferViews": [
		{
			"buffer": 0,
			"byteLength": 5448,
			"target": 34963
		},
		{
			"buffer": 0,
			"byteLength": 14952,
			"byteOffset": 5448,
			"target": 34962
		},
		{
			"buffer": 0,
			"byteLength": 14952,
			"byteOffset": 20400,
			"target": 34962
		},
		{
			"buffer": 0,
			"byteLength": 19936,
			"byteOffset": 35352,
			"target": 34962
		},
		{
			"buffer": 0,
			"byteLength": 9968,
			"byteOffset": 55288,
			"target": 34962
		},
		{
			"buffer": 0,
			"byteLength": 9968,
			"byteOffset": 65256,
			"target": 34962
		}
	],
	"images": [
		{
			"uri": "MI_wall_01_MetallicRoughness.png"
		},
		{
			"uri": "MI_wall_01_Occlusion.png"
		},
		{
			"uri": "T_wall01_C.png"
		},
		{
			"uri": "T_wall01_N.png"
		}
	],
	"materials": [
		{
			"name": "MI_wall_01",
			"pbrMetallicRoughness":
			{
				"baseColorTexture":
				{
					"index": 0
				},
				"metallicRoughnessTexture":
				{
					"index": 1
				}
			},
			"normalTexture":
			{
				"index": 2
			},
			"occlusionTexture":
			{
				"index": 3
			},
			"doubleSided": true
		}
	],
	"meshes": [
		{
			"name": "SM_wall_tonnel_05",
			"primitives": [
				{
					"attributes":
					{
						"POSITION": 1,
						"NORMAL": 2,
						"TANGENT": 3,
						"TEXCOORD_0": 4,
						"TEXCOORD_1": 5
					},
					"indices": 0,
					"material": 0
				}
			]
		}
	],
	"nodes": [
		{
			"mesh": 0
		}
	],
	"samplers": [
		{
			"minFilter": 9987,
			"magFilter": 9729
		}
	],
	"scenes": [
		{
			"nodes": [ 0 ]
		}
	],
	"textures": [
		{
			"name": "T_wall01_C",
			"sampler": 0,
			"source": 2
		},
		{
			"name": "MI_wall_01_MetallicRoughness",
			"sampler": 0,
			"source": 0
		},
		{
			"name": "T_wall01_N",
			"sampler": 0,
			"source": 3
		},
		{
			"name": "MI_wall_01_Occlusion",
			"sampler": 0,
			"source": 1
		}
	]
}