{
	"asset":
	{
		"version": "2.0",
		"generator": "Unreal Engine 5.6.1"
	},
	"scene": 0,
	"accessors": [
		{
			"bufferView": 0,
			"count": 31134,
			"type": "SCALAR",
			"componentType": 5123
		},
		{
			"bufferView": 1,
			"count": 8068,
			"type": "VEC3",
			"componentType": 5126,
			"min": [ -1.00000024, -0.291624516, -1.09377182 ],
			"max": [ 1.00000024, 0.852009356, 0.999999881 ]
		},
		{
			"bufferView": 2,
			"count": 8068,
			"type": "VEC3",
			"componentType": 5126
		},
		{
			"bufferView": 3,
			"count": 8068,
			"type": "VEC4",
			"componentType": 5126
		},
		{
			"bufferView": 4,
			"count": 8068,
			"type": "VEC2",
			"componentType": 5126
		},
		{
			"bufferView": 5,
			"count": 8068,
			"type": "VEC2",
			"componentType": 5126
		},
		{
			"bufferView": 6,
			"count": 8068,
			"type": "VEC2",
			"componentType": 5126
		},
		{
			"bufferView": 7,
			"count": 8068,
			"type": "VEC2",
			"componentType": 5126
		}
	],
	"buffers": [
		{
			"uri": "StaticMesh_4931EF49.bin",
			"byteLength": 643164
		}
	],
	"bufferViews": [
		{
			"buffer": 0,
			"byteLength": 62268,
			"target": 34963
		},
		{
			"buffer": 0,
			"byteLength": 96816,
			"byteOffset": 62268,
			"target": 34962
		},
		{
			"buffer": 0,
			"byteLength": 96816,
			"byteOffset": 159084,
			"target": 34962
		},
		{
			"buffer": 0,
			"byteLength": 129088,
			"byteOffset": 255900,
			"target": 34962
		},
		{
			"buffer": 0,
			"byteLength": 64544,
			"byteOffset": 384988,
			"target": 34962
		},
		{
			"buffer": 0,
			"byteLength": 64544,
			"byteOffset": 449532,
			"target": 34962
		},
		{
			"buffer": 0,
			"byteLength": 64544,
			"byteOffset": 514076,
			"target": 34962
		},
		{
			"buffer": 0,
			"byteLength": 64544,
			"byteOffset": 578620,
			"target": 34962
		}
	],
	"images": [
		{
			"uri": "Material_001_StaticMesh_BaseColor.png"
		},
		{
			"uri": "Material_001_StaticMesh_MetallicRoughness.png"
		},
		{
			"uri": "Material_001_StaticMesh_Normal.png"
		}
	],
	"materials": [
		{
			"name": "Material_001_StaticMesh",
			"pbrMetallicRoughness":
			{
				"baseColorTexture":
				{
					"index": 0,
					"texCoord": 3,
					"extensions":
					{
						"KHR_texture_transform":
						{
							"offset": [ -0.00823933817, -0.00832657143 ],
							"scale": [ 1.02170908, 1.03252637 ]
						}
					}
				},
				"metallicRoughnessTexture":
				{
					"index": 1,
					"texCoord": 3,
					"extensions":
					{
						"KHR_texture_transform":
						{
							"offset": [ -0.00823933817, -0.00832657143 ],
							"scale": [ 1.02170908, 1.03252637 ]
						}
					}
				}
			},
			"normalTexture":
			{
				"index": 2,
				"texCoord": 3,
				"extensions":
				{
					"KHR_texture_transform":
					{
						"offset": [ -0.00823933817, -0.00832657143 ],
						"scale": [ 1.02170908, 1.03252637 ]
					}
				}
			},
			"doubleSided": true
		}
	],
	"meshes": [
		{
			"name": "StaticMesh",
			"primitives": [
				{
					"attributes":
					{
						"POSITION": 1,
						"NORMAL": 2,
						"TANGENT": 3,
						"TEXCOORD_0": 4,
						"TEXCOORD_1": 5,
						"TEXCOORD_2": 6,
						"TEXCOORD_3": 7
					},
					"indices": 0,
					"material": 0
				}
			]
		}
	],
	"nodes": [
		{
			"mesh": 0
		}
	],
	"samplers": [
		{
			"minFilter": 9987,
			"magFilter": 9729
		}
	],
	"scenes": [
		{
			"nodes": [ 0 ]
		}
	],
	"textures": [
		{
			"name": "Material_001_StaticMesh_BaseColor",
			"sampler": 0,
			"source": 0
		},
		{
			"name": "Material_001_StaticMesh_MetallicRoughness",
			"sampler": 0,
			"source": 1
		},
		{
			"name": "Material_001_StaticMesh_Normal",
			"sampler": 0,
			"source": 2
		}
	],
	"extensionsUsed": [
		"KHR_texture_transform"
	]
}