{
	"asset":
	{
		"version": "2.0",
		"generator": "Unreal Engine 5.6.1"
	},
	"scene": 0,
	"accessors": [
		{
			"bufferView": 0,
			"count": 2796,
			"type": "SCALAR",
			"componentType": 5123
		},
		{
			"bufferView": 1,
			"count": 817,
			"type": "VEC3",
			"componentType": 5126,
			"min": [ -0.0649996474, -0.114619933, -0.00722543895 ],
			"max": [ 0.0646945015, 0.0740746558, 0.0296371747 ]
		},
		{
			"bufferView": 2,
			"count": 817,
			"type": "VEC3",
			"componentType": 5126
		},
		{
			"bufferView": 3,
			"count": 817,
			"type": "VEC4",
			"componentType": 5126
		},
		{
			"bufferView": 4,
			"count": 817,
			"type": "VEC2",
			"componentType": 5126
		},
		{
			"bufferView": 5,
			"count": 817,
			"type": "VEC2",
			"componentType": 5126
		},
		{
			"bufferView": 6,
			"count": 817,
			"type": "VEC2",
			"componentType": 5126
		},
		{
			"bufferView": 7,
			"count": 720,
			"type": "SCALAR",
			"componentType": 5121
		},
		{
			"bufferView": 8,
			"count": 204,
			"type": "VEC3",
			"componentType": 5126,
			"min": [ -0.039898213, -0.0962356254, 0.0143383769 ],
			"max": [ 0.0402033553, 0.117247783, 0.127009183 ]
		},
		{
			"bufferView": 9,
			"count": 204,
			"type": "VEC3",
			"componentType": 5126
		},
		{
			"bufferView": 10,
			"count": 204,
			"type": "VEC4",
			"componentType": 5126
		},
		{
			"bufferView": 11,
			"count": 204,
			"type": "VEC2",
			"componentType": 5126
		},
		{
			"bufferView": 12,
			"count": 204,
			"type": "VEC2",
			"componentType": 5126
		},
		{
			"bufferView": 13,
			"count": 204,
			"type": "VEC2",
			"componentType": 5126
		}
	],
	"buffers": [
		{
			"uri": "cc0_switch.bin",
			"byteLength": 71656
		}
	],
	"bufferViews": [
		{
			"buffer": 0,
			"byteLength": 5592,
			"target": 34963
		},
		{
			"buffer": 0,
			"byteLength": 9804,
			"byteOffset": 5592,
			"target": 34962
		},
		{
			"buffer": 0,
			"byteLength": 9804,
			"byteOffset": 15396,
			"target": 34962
		},
		{
			"buffer": 0,
			"byteLength": 13072,
			"byteOffset": 25200,
			"target": 34962
		},
		{
			"buffer": 0,
			"byteLength": 6536,
			"byteOffset": 38272,
			"target": 34962
		},
		{
			"buffer": 0,
			"byteLength": 6536,
			"byteOffset": 44808,
			"target": 34962
		},
		{
			"buffer": 0,
			"byteLength": 6536,
			"byteOffset": 51344,
			"target": 34962
		},
		{
			"buffer": 0,
			"byteLength": 720,
			"byteOffset": 57880,
			"target": 34963
		},
		{
			"buffer": 0,
			"byteLength": 2448,
			"byteOffset": 58600,
			"target": 34962
		},
		{
			"buffer": 0,
			"byteLength": 2448,
			"byteOffset": 61048,
			"target": 34962
		},
		{
			"buffer": 0,
			"byteLength": 3264,
			"byteOffset": 63496,
			"target": 34962
		},
		{
			"buffer": 0,
			"byteLength": 1632,
			"byteOffset": 66760,
			"target": 34962
		},
		{
			"buffer": 0,
			"byteLength": 1632,
			"byteOffset": 68392,
			"target": 34962
		},
		{
			"buffer": 0,
			"byteLength": 1632,
			"byteOffset": 70024,
			"target": 34962
		}
	],
	"images": [
		{
			"uri": "cc0_switch_texture_0.png"
		},
		{
			"uri": "cc0_switch_texture_1.png"
		},
		{
			"uri": "cc0_switch_texture_2.png"
		},
		{
			"uri": "cc0_switch_texture_3.png"
		},
		{
			"uri": "cc0_switch_texture_4.png"
		},
		{
			"uri": "cc0_switch_texture_5.png"
		}
	],
	"materials": [
		{
			"name": "SwitchMain_cc0_switch",
			"pbrMetallicRoughness":
			{
				"baseColorTexture":
				{
					"index": 0
				},
				"metallicRoughnessTexture":
				{
					"index": 1
				}
			},
			"normalTexture":
			{
				"index": 2
			},
			"occlusionTexture":
			{
				"index": 1
			},
			"doubleSided": true
		},
		{
			"name": "SwitchHandle_cc0_switch",
			"pbrMetallicRoughness":
			{
				"baseColorTexture":
				{
					"index": 3
				},
				"metallicRoughnessTexture":
				{
					"index": 4
				}
			},
			"normalTexture":
			{
				"index": 5
			},
			"occlusionTexture":
			{
				"index": 4
			},
			"doubleSided": true
		}
	],
	"meshes": [
		{
			"name": "cc0_switch",
			"primitives": [
				{
					"attributes":
					{
						"POSITION": 1,
						"NORMAL": 2,
						"TANGENT": 3,
						"TEXCOORD_0": 4,
						"TEXCOORD_1": 5,
						"TEXCOORD_2": 6
					},
					"indices": 0,
					"material": 0
				},
				{
					"attributes":
					{
						"POSITION": 8,
						"NORMAL": 9,
						"TANGENT": 10,
						"TEXCOORD_0": 11,
						"TEXCOORD_1": 12,
						"TEXCOORD_2": 13
					},
					"indices": 7,
					"material": 1
				}
			]
		}
	],
	"nodes": [
		{
			"mesh": 0
		}
	],
	"samplers": [
		{
			"minFilter": 9987,
			"magFilter": 9729
		}
	],
	"scenes": [
		{
			"nodes": [ 0 ]
		}
	],
	"textures": [
		{
			"name": "cc0_switch_texture_0",
			"sampler": 0,
			"source": 0
		},
		{
			"name": "cc0_switch_texture_1",
			"sampler": 0,
			"source": 1
		},
		{
			"name": "cc0_switch_texture_2",
			"sampler": 0,
			"source": 2
		},
		{
			"name": "cc0_switch_texture_3",
			"sampler": 0,
			"source": 3
		},
		{
			"name": "cc0_switch_texture_4",
			"sampler": 0,
			"source": 4
		},
		{
			"name": "cc0_switch_texture_5",
			"sampler": 0,
			"source": 5
		}
	]
}