{
	"asset":
	{
		"version": "2.0",
		"generator": "Unreal Engine 5.6.1"
	},
	"scene": 0,
	"accessors": [
		{
			"bufferView": 0,
			"count": 5640,
			"type": "SCALAR",
			"componentType": 5123
		},
		{
			"bufferView": 1,
			"count": 3493,
			"type": "VEC3",
			"componentType": 5126,
			"min": [ -3.81872296, -0.624459684, -0.878057778 ],
			"max": [ 4.1063571, 4.20497942, 0.871962667 ]
		},
		{
			"bufferView": 2,
			"count": 3493,
			"type": "VEC3",
			"componentType": 5126
		},
		{
			"bufferView": 3,
			"count": 3493,
			"type": "VEC4",
			"componentType": 5126
		},
		{
			"bufferView": 4,
			"count": 3493,
			"type": "VEC2",
			"componentType": 5126
		},
		{
			"bufferView": 5,
			"count": 3493,
			"type": "VEC2",
			"componentType": 5126
		},
		{
			"bufferView": 6,
			"count": 2076,
			"type": "SCALAR",
			"componentType": 5123
		},
		{
			"bufferView": 7,
			"count": 1182,
			"type": "VEC3",
			"componentType": 5126,
			"min": [ -1.39501703, -0.624459624, -0.0275374819 ],
			"max": [ 1.69071412, 2.81585932, 0.349646688 ]
		},
		{
			"bufferView": 8,
			"count": 1182,
			"type": "VEC3",
			"componentType": 5126
		},
		{
			"bufferView": 9,
			"count": 1182,
			"type": "VEC4",
			"componentType": 5126
		},
		{
			"bufferView": 10,
			"count": 1182,
			"type": "VEC2",
			"componentType": 5126
		},
		{
			"bufferView": 11,
			"count": 1182,
			"type": "VEC2",
			"componentType": 5126
		}
	],
	"buffers": [
		{
			"uri": "Combined_DEC539CE.bin",
			"byteLength": 277232
		}
	],
	"bufferViews": [
		{
			"buffer": 0,
			"byteLength": 11280,
			"target": 34963
		},
		{
			"buffer": 0,
			"byteLength": 41916,
			"byteOffset": 11280,
			"target": 34962
		},
		{
			"buffer": 0,
			"byteLength": 41916,
			"byteOffset": 53196,
			"target": 34962
		},
		{
			"buffer": 0,
			"byteLength": 55888,
			"byteOffset": 95112,
			"target": 34962
		},
		{
			"buffer": 0,
			"byteLength": 27944,
			"byteOffset": 151000,
			"target": 34962
		},
		{
			"buffer": 0,
			"byteLength": 27944,
			"byteOffset": 178944,
			"target": 34962
		},
		{
			"buffer": 0,
			"byteLength": 4152,
			"byteOffset": 206888,
			"target": 34963
		},
		{
			"buffer": 0,
			"byteLength": 14184,
			"byteOffset": 211040,
			"target": 34962
		},
		{
			"buffer": 0,
			"byteLength": 14184,
			"byteOffset": 225224,
			"target": 34962
		},
		{
			"buffer": 0,
			"byteLength": 18912,
			"byteOffset": 239408,
			"target": 34962
		},
		{
			"buffer": 0,
			"byteLength": 9456,
			"byteOffset": 258320,
			"target": 34962
		},
		{
			"buffer": 0,
			"byteLength": 9456,
			"byteOffset": 267776,
			"target": 34962
		}
	],
	"materials": [
		{
			"name": "Wall01",
			"pbrMetallicRoughness":
			{
			},
			"doubleSided": true
		},
		{
			"name": "Door",
			"pbrMetallicRoughness":
			{
			},
			"doubleSided": true
		}
	],
	"meshes": [
		{
			"name": "Combined_DEC539CE",
			"primitives": [
				{
					"attributes":
					{
						"POSITION": 1,
						"NORMAL": 2,
						"TANGENT": 3,
						"TEXCOORD_0": 4,
						"TEXCOORD_1": 5
					},
					"indices": 0,
					"material": 0
				},
				{
					"attributes":
					{
						"POSITION": 7,
						"NORMAL": 8,
						"TANGENT": 9,
						"TEXCOORD_0": 10,
						"TEXCOORD_1": 11
					},
					"indices": 6,
					"material": 1
				}
			]
		}
	],
	"nodes": [
		{
			"mesh": 0
		}
	],
	"scenes": [
		{
			"nodes": [ 0 ]
		}
	]
}