{
	"asset":
	{
		"version": "2.0",
		"generator": "Unreal Engine 5.6.1"
	},
	"scene": 0,
	"accessors": [
		{
			"bufferView": 0,
			"count": 15090,
			"type": "SCALAR",
			"componentType": 5123
		},
		{
			"bufferView": 1,
			"count": 5579,
			"type": "VEC3",
			"componentType": 5126,
			"min": [ -0.998329043, -0.395911008, -0.998615801 ],
			"max": [ 0.988474011, -0.0201897901, 0.997579932 ]
		},
		{
			"bufferView": 2,
			"count": 5579,
			"type": "VEC3",
			"componentType": 5126
		},
		{
			"bufferView": 3,
			"count": 5579,
			"type": "VEC4",
			"componentType": 5126
		},
		{
			"bufferView": 4,
			"count": 5579,
			"type": "VEC2",
			"componentType": 5126
		}
	],
	"buffers": [
		{
			"uri": "mana_pool_0810063423_texture.bin",
			"byteLength": 297972
		}
	],
	"bufferViews": [
		{
			"buffer": 0,
			"byteLength": 30180,
			"target": 34963
		},
		{
			"buffer": 0,
			"byteLength": 66948,
			"byteOffset": 30180,
			"target": 34962
		},
		{
			"buffer": 0,
			"byteLength": 66948,
			"byteOffset": 97128,
			"target": 34962
		},
		{
			"buffer": 0,
			"byteLength": 89264,
			"byteOffset": 164076,
			"target": 34962
		},
		{
			"buffer": 0,
			"byteLength": 44632,
			"byteOffset": 253340,
			"target": 34962
		}
	],
	"images": [
		{
			"uri": "mana_pool_0810063423_texture_texture_0.png"
		},
		{
			"uri": "mana_pool_0810063423_texture_texture_1.png"
		},
		{
			"uri": "mana_pool_0810063423_texture_texture_2.png"
		}
	],
	"materials": [
		{
			"name": "mana_pool_0810063423_texture_material_0_mana_pool_0810063423_texture",
			"pbrMetallicRoughness":
			{
				"baseColorTexture":
				{
					"index": 0
				},
				"metallicRoughnessTexture":
				{
					"index": 1
				}
			},
			"normalTexture":
			{
				"index": 2
			},
			"doubleSided": true
		}
	],
	"meshes": [
		{
			"name": "mana_pool_0810063423_texture",
			"primitives": [
				{
					"attributes":
					{
						"POSITION": 1,
						"NORMAL": 2,
						"TANGENT": 3,
						"TEXCOORD_0": 4
					},
					"indices": 0,
					"material": 0
				}
			]
		}
	],
	"nodes": [
		{
			"mesh": 0
		}
	],
	"samplers": [
		{
			"minFilter": 9987,
			"magFilter": 9729
		}
	],
	"scenes": [
		{
			"nodes": [ 0 ]
		}
	],
	"textures": [
		{
			"name": "mana_pool_0810063423_texture_texture_0",
			"sampler": 0,
			"source": 0
		},
		{
			"name": "mana_pool_0810063423_texture_texture_1",
			"sampler": 0,
			"source": 1
		},
		{
			"name": "mana_pool_0810063423_texture_texture_2",
			"sampler": 0,
			"source": 2
		}
	]
}