{
	"asset":
	{
		"version": "2.0",
		"generator": "Unreal Engine 5.6.1"
	},
	"scene": 0,
	"accessors": [
		{
			"bufferView": 0,
			"count": 90,
			"type": "SCALAR",
			"componentType": 5121
		},
		{
			"bufferView": 1,
			"count": 60,
			"type": "VEC3",
			"componentType": 5126,
			"min": [ -5.31846952, 1.43318009, -0.56080997 ],
			"max": [ 1.27140999, 13.7847996, 0.955340028 ]
		},
		{
			"bufferView": 2,
			"count": 60,
			"type": "VEC3",
			"componentType": 5126
		},
		{
			"bufferView": 3,
			"count": 60,
			"type": "VEC4",
			"componentType": 5126
		},
		{
			"bufferView": 4,
			"count": 60,
			"type": "VEC2",
			"componentType": 5126
		},
		{
			"bufferView": 5,
			"count": 60,
			"type": "VEC2",
			"componentType": 5126
		},
		{
			"bufferView": 6,
			"count": 12,
			"type": "SCALAR",
			"componentType": 5121
		},
		{
			"bufferView": 7,
			"count": 8,
			"type": "VEC3",
			"componentType": 5126,
			"min": [ -5.31846952, 3.48870993, -0.56080997 ],
			"max": [ -4.94294977, 3.59550977, 0.955340028 ]
		},
		{
			"bufferView": 8,
			"count": 8,
			"type": "VEC3",
			"componentType": 5126
		},
		{
			"bufferView": 9,
			"count": 8,
			"type": "VEC4",
			"componentType": 5126
		},
		{
			"bufferView": 10,
			"count": 8,
			"type": "VEC2",
			"componentType": 5126
		},
		{
			"bufferView": 11,
			"count": 8,
			"type": "VEC2",
			"componentType": 5126
		},
		{
			"bufferView": 12,
			"count": 6,
			"type": "SCALAR",
			"componentType": 5121
		},
		{
			"bufferView": 13,
			"count": 4,
			"type": "VEC3",
			"componentType": 5126,
			"min": [ -5.26102972, 1.43318009, -0.370099962 ],
			"max": [ -5.26102972, 3.50153017, 0.767759979 ]
		},
		{
			"bufferView": 14,
			"count": 4,
			"type": "VEC3",
			"componentType": 5126
		},
		{
			"bufferView": 15,
			"count": 4,
			"type": "VEC4",
			"componentType": 5126
		},
		{
			"bufferView": 16,
			"count": 4,
			"type": "VEC2",
			"componentType": 5126
		},
		{
			"bufferView": 17,
			"count": 4,
			"type": "VEC2",
			"componentType": 5126
		},
		{
			"bufferView": 18,
			"count": 1098,
			"type": "SCALAR",
			"componentType": 5123
		},
		{
			"bufferView": 19,
			"count": 263,
			"type": "VEC3",
			"componentType": 5126,
			"min": [ -5.31393003, 2.26366997, 0.619269967 ],
			"max": [ -5.26028967, 2.42339993, 0.741550028 ]
		},
		{
			"bufferView": 20,
			"count": 263,
			"type": "VEC3",
			"componentType": 5126
		},
		{
			"bufferView": 21,
			"count": 263,
			"type": "VEC4",
			"componentType": 5126
		},
		{
			"bufferView": 22,
			"count": 263,
			"type": "VEC2",
			"componentType": 5126
		},
		{
			"bufferView": 23,
			"count": 263,
			"type": "VEC2",
			"componentType": 5126
		},
		{
			"bufferView": 24,
			"count": 81672,
			"type": "SCALAR",
			"componentType": 5123
		},
		{
			"bufferView": 25,
			"count": 24616,
			"type": "VEC3",
			"componentType": 5126,
			"min": [ -0.672320008, 3.79324222, -10.0138502 ],
			"max": [ 0.64004004, 7.2051096, -9.3235569 ]
		},
		{
			"bufferView": 26,
			"count": 24616,
			"type": "VEC3",
			"componentType": 5126
		},
		{
			"bufferView": 27,
			"count": 24616,
			"type": "VEC4",
			"componentType": 5126
		},
		{
			"bufferView": 28,
			"count": 24616,
			"type": "VEC2",
			"componentType": 5126
		},
		{
			"bufferView": 29,
			"count": 24616,
			"type": "VEC2",
			"componentType": 5126
		},
		{
			"bufferView": 30,
			"count": 4815,
			"type": "SCALAR",
			"componentType": 5123
		},
		{
			"bufferView": 31,
			"count": 2919,
			"type": "VEC3",
			"componentType": 5126,
			"min": [ -7.11111975, -0.0118600568, -11.6712303 ],
			"max": [ 5.07141018, 14.0246992, 5.19997978 ]
		},
		{
			"bufferView": 32,
			"count": 2919,
			"type": "VEC3",
			"componentType": 5126
		},
		{
			"bufferView": 33,
			"count": 2919,
			"type": "VEC4",
			"componentType": 5126
		},
		{
			"bufferView": 34,
			"count": 2919,
			"type": "VEC2",
			"componentType": 5126
		},
		{
			"bufferView": 35,
			"count": 2919,
			"type": "VEC2",
			"componentType": 5126
		},
		{
			"bufferView": 36,
			"count": 27,
			"type": "SCALAR",
			"componentType": 5121
		},
		{
			"bufferView": 37,
			"count": 11,
			"type": "VEC3",
			"componentType": 5126,
			"min": [ -0.881940007, 0.540569961, -10.1827097 ],
			"max": [ 0.881940007, 2.79860997, -10.1827097 ]
		},
		{
			"bufferView": 38,
			"count": 11,
			"type": "VEC3",
			"componentType": 5126
		},
		{
			"bufferView": 39,
			"count": 11,
			"type": "VEC4",
			"componentType": 5126
		},
		{
			"bufferView": 40,
			"count": 11,
			"type": "VEC2",
			"componentType": 5126
		},
		{
			"bufferView": 41,
			"count": 11,
			"type": "VEC2",
			"componentType": 5126
		},
		{
			"bufferView": 42,
			"count": 11328,
			"type": "SCALAR",
			"componentType": 5123
		},
		{
			"bufferView": 43,
			"count": 6666,
			"type": "VEC3",
			"componentType": 5126,
			"min": [ -5.02817965, 1.25081003, -8.86830997 ],
			"max": [ 5.04567003, 13.8313303, 4.89811993 ]
		},
		{
			"bufferView": 44,
			"count": 6666,
			"type": "VEC3",
			"componentType": 5126
		},
		{
			"bufferView": 45,
			"count": 6666,
			"type": "VEC4",
			"componentType": 5126
		},
		{
			"bufferView": 46,
			"count": 6666,
			"type": "VEC2",
			"componentType": 5126
		},
		{
			"bufferView": 47,
			"count": 6666,
			"type": "VEC2",
			"componentType": 5126
		},
		{
			"bufferView": 48,
			"count": 25317,
			"type": "SCALAR",
			"componentType": 5123
		},
		{
			"bufferView": 49,
			"count": 10371,
			"type": "VEC3",
			"componentType": 5126,
			"min": [ -7.08589935, -0.0117800897, -10.68505 ],
			"max": [ 5.29711008, 14.0690804, 5.24532938 ]
		},
		{
			"bufferView": 50,
			"count": 10371,
			"type": "VEC3",
			"componentType": 5126
		},
		{
			"bufferView": 51,
			"count": 10371,
			"type": "VEC4",
			"componentType": 5126
		},
		{
			"bufferView": 52,
			"count": 10371,
			"type": "VEC2",
			"componentType": 5126
		},
		{
			"bufferView": 53,
			"count": 10371,
			"type": "VEC2",
			"componentType": 5126
		},
		{
			"bufferView": 54,
			"count": 3294,
			"type": "SCALAR",
			"componentType": 5123
		},
		{
			"bufferView": 55,
			"count": 1776,
			"type": "VEC3",
			"componentType": 5126,
			"min": [ -5, 4.23745012, -10.5802889 ],
			"max": [ 5, 18.7608109, 3.32243991 ]
		},
		{
			"bufferView": 56,
			"count": 1776,
			"type": "VEC3",
			"componentType": 5126
		},
		{
			"bufferView": 57,
			"count": 1776,
			"type": "VEC4",
			"componentType": 5126
		},
		{
			"bufferView": 58,
			"count": 1776,
			"type": "VEC2",
			"componentType": 5126
		},
		{
			"bufferView": 59,
			"count": 1776,
			"type": "VEC2",
			"componentType": 5126
		},
		{
			"bufferView": 60,
			"count": 120,
			"type": "SCALAR",
			"componentType": 5121
		},
		{
			"bufferView": 61,
			"count": 96,
			"type": "VEC3",
			"componentType": 5126,
			"min": [ -5, 4.2687602, -10.5487404 ],
			"max": [ 5, 17.3534203, 3.32243991 ]
		},
		{
			"bufferView": 62,
			"count": 96,
			"type": "VEC3",
			"componentType": 5126
		},
		{
			"bufferView": 63,
			"count": 96,
			"type": "VEC4",
			"componentType": 5126
		},
		{
			"bufferView": 64,
			"count": 96,
			"type": "VEC2",
			"componentType": 5126
		},
		{
			"bufferView": 65,
			"count": 96,
			"type": "VEC2",
			"componentType": 5126
		},
		{
			"bufferView": 66,
			"count": 1431,
			"type": "SCALAR",
			"componentType": 5123
		},
		{
			"bufferView": 67,
			"count": 678,
			"type": "VEC3",
			"componentType": 5126,
			"min": [ -4.9669919, 1.73762465, -8.18304825 ],
			"max": [ 4.9669919, 8.82539368, 4.83897305 ]
		},
		{
			"bufferView": 68,
			"count": 678,
			"type": "VEC3",
			"componentType": 5126
		},
		{
			"bufferView": 69,
			"count": 678,
			"type": "VEC4",
			"componentType": 5126
		},
		{
			"bufferView": 70,
			"count": 678,
			"type": "VEC2",
			"componentType": 5126
		},
		{
			"bufferView": 71,
			"count": 678,
			"type": "VEC2",
			"componentType": 5126
		}
	],
	"buffers": [
		{
			"uri": "medieval_church.bin",
			"byteLength": 2916384
		}
	],
	"bufferViews": [
		{
			"buffer": 0,
			"byteLength": 90,
			"target": 34963
		},
		{
			"buffer": 0,
			"byteLength": 720,
			"byteOffset": 92,
			"target": 34962
		},
		{
			"buffer": 0,
			"byteLength": 720,
			"byteOffset": 812,
			"target": 34962
		},
		{
			"buffer": 0,
			"byteLength": 960,
			"byteOffset": 1532,
			"target": 34962
		},
		{
			"buffer": 0,
			"byteLength": 480,
			"byteOffset": 2492,
			"target": 34962
		},
		{
			"buffer": 0,
			"byteLength": 480,
			"byteOffset": 2972,
			"target": 34962
		},
		{
			"buffer": 0,
			"byteLength": 12,
			"byteOffset": 3452,
			"target": 34963
		},
		{
			"buffer": 0,
			"byteLength": 96,
			"byteOffset": 3464,
			"target": 34962
		},
		{
			"buffer": 0,
			"byteLength": 96,
			"byteOffset": 3560,
			"target": 34962
		},
		{
			"buffer": 0,
			"byteLength": 128,
			"byteOffset": 3656,
			"target": 34962
		},
		{
			"buffer": 0,
			"byteLength": 64,
			"byteOffset": 3784,
			"target": 34962
		},
		{
			"buffer": 0,
			"byteLength": 64,
			"byteOffset": 3848,
			"target": 34962
		},
		{
			"buffer": 0,
			"byteLength": 6,
			"byteOffset": 3912,
			"target": 34963
		},
		{
			"buffer": 0,
			"byteLength": 48,
			"byteOffset": 3920,
			"target": 34962
		},
		{
			"buffer": 0,
			"byteLength": 48,
			"byteOffset": 3968,
			"target": 34962
		},
		{
			"buffer": 0,
			"byteLength": 64,
			"byteOffset": 4016,
			"target": 34962
		},
		{
			"buffer": 0,
			"byteLength": 32,
			"byteOffset": 4080,
			"target": 34962
		},
		{
			"buffer": 0,
			"byteLength": 32,
			"byteOffset": 4112,
			"target": 34962
		},
		{
			"buffer": 0,
			"byteLength": 2196,
			"byteOffset": 4144,
			"target": 34963
		},
		{
			"buffer": 0,
			"byteLength": 3156,
			"byteOffset": 6340,
			"target": 34962
		},
		{
			"buffer": 0,
			"byteLength": 3156,
			"byteOffset": 9496,
			"target": 34962
		},
		{
			"buffer": 0,
			"byteLength": 4208,
			"byteOffset": 12652,
			"target": 34962
		},
		{
			"buffer": 0,
			"byteLength": 2104,
			"byteOffset": 16860,
			"target": 34962
		},
		{
			"buffer": 0,
			"byteLength": 2104,
			"byteOffset": 18964,
			"target": 34962
		},
		{
			"buffer": 0,
			"byteLength": 163344,
			"byteOffset": 21068,
			"target": 34963
		},
		{
			"buffer": 0,
			"byteLength": 295392,
			"byteOffset": 184412,
			"target": 34962
		},
		{
			"buffer": 0,
			"byteLength": 295392,
			"byteOffset": 479804,
			"target": 34962
		},
		{
			"buffer": 0,
			"byteLength": 393856,
			"byteOffset": 775196,
			"target": 34962
		},
		{
			"buffer": 0,
			"byteLength": 196928,
			"byteOffset": 1169052,
			"target": 34962
		},
		{
			"buffer": 0,
			"byteLength": 196928,
			"byteOffset": 1365980,
			"target": 34962
		},
		{
			"buffer": 0,
			"byteLength": 9630,
			"byteOffset": 1562908,
			"target": 34963
		},
		{
			"buffer": 0,
			"byteLength": 35028,
			"byteOffset": 1572540,
			"target": 34962
		},
		{
			"buffer": 0,
			"byteLength": 35028,
			"byteOffset": 1607568,
			"target": 34962
		},
		{
			"buffer": 0,
			"byteLength": 46704,
			"byteOffset": 1642596,
			"target": 34962
		},
		{
			"buffer": 0,
			"byteLength": 23352,
			"byteOffset": 1689300,
			"target": 34962
		},
		{
			"buffer": 0,
			"byteLength": 23352,
			"byteOffset": 1712652,
			"target": 34962
		},
		{
			"buffer": 0,
			"byteLength": 27,
			"byteOffset": 1736004,
			"target": 34963
		},
		{
			"buffer": 0,
			"byteLength": 132,
			"byteOffset": 1736032,
			"target": 34962
		},
		{
			"buffer": 0,
			"byteLength": 132,
			"byteOffset": 1736164,
			"target": 34962
		},
		{
			"buffer": 0,
			"byteLength": 176,
			"byteOffset": 1736296,
			"target": 34962
		},
		{
			"buffer": 0,
			"byteLength": 88,
			"byteOffset": 1736472,
			"target": 34962
		},
		{
			"buffer": 0,
			"byteLength": 88,
			"byteOffset": 1736560,
			"target": 34962
		},
		{
			"buffer": 0,
			"byteLength": 22656,
			"byteOffset": 1736648,
			"target": 34963
		},
		{
			"buffer": 0,
			"byteLength": 79992,
			"byteOffset": 1759304,
			"target": 34962
		},
		{
			"buffer": 0,
			"byteLength": 79992,
			"byteOffset": 1839296,
			"target": 34962
		},
		{
			"buffer": 0,
			"byteLength": 106656,
			"byteOffset": 1919288,
			"target": 34962
		},
		{
			"buffer": 0,
			"byteLength": 53328,
			"byteOffset": 2025944,
			"target": 34962
		},
		{
			"buffer": 0,
			"byteLength": 53328,
			"byteOffset": 2079272,
			"target": 34962
		},
		{
			"buffer": 0,
			"byteLength": 50634,
			"byteOffset": 2132600,
			"target": 34963
		},
		{
			"buffer": 0,
			"byteLength": 124452,
			"byteOffset": 2183236,
			"target": 34962
		},
		{
			"buffer": 0,
			"byteLength": 124452,
			"byteOffset": 2307688,
			"target": 34962
		},
		{
			"buffer": 0,
			"byteLength": 165936,
			"byteOffset": 2432140,
			"target": 34962
		},
		{
			"buffer": 0,
			"byteLength": 82968,
			"byteOffset": 2598076,
			"target": 34962
		},
		{
			"buffer": 0,
			"byteLength": 82968,
			"byteOffset": 2681044,
			"target": 34962
		},
		{
			"buffer": 0,
			"byteLength": 6588,
			"byteOffset": 2764012,
			"target": 34963
		},
		{
			"buffer": 0,
			"byteLength": 21312,
			"byteOffset": 2770600,
			"target": 34962
		},
		{
			"buffer": 0,
			"byteLength": 21312,
			"byteOffset": 2791912,
			"target": 34962
		},
		{
			"buffer": 0,
			"byteLength": 28416,
			"byteOffset": 2813224,
			"target": 34962
		},
		{
			"buffer": 0,
			"byteLength": 14208,
			"byteOffset": 2841640,
			"target": 34962
		},
		{
			"buffer": 0,
			"byteLength": 14208,
			"byteOffset": 2855848,
			"target": 34962
		},
		{
			"buffer": 0,
			"byteLength": 120,
			"byteOffset": 2870056,
			"target": 34963
		},
		{
			"buffer": 0,
			"byteLength": 1152,
			"byteOffset": 2870176,
			"target": 34962
		},
		{
			"buffer": 0,
			"byteLength": 1152,
			"byteOffset": 2871328,
			"target": 34962
		},
		{
			"buffer": 0,
			"byteLength": 1536,
			"byteOffset": 2872480,
			"target": 34962
		},
		{
			"buffer": 0,
			"byteLength": 768,
			"byteOffset": 2874016,
			"target": 34962
		},
		{
			"buffer": 0,
			"byteLength": 768,
			"byteOffset": 2874784,
			"target": 34962
		},
		{
			"buffer": 0,
			"byteLength": 2862,
			"byteOffset": 2875552,
			"target": 34963
		},
		{
			"buffer": 0,
			"byteLength": 8136,
			"byteOffset": 2878416,
			"target": 34962
		},
		{
			"buffer": 0,
			"byteLength": 8136,
			"byteOffset": 2886552,
			"target": 34962
		},
		{
			"buffer": 0,
			"byteLength": 10848,
			"byteOffset": 2894688,
			"target": 34962
		},
		{
			"buffer": 0,
			"byteLength": 5424,
			"byteOffset": 2905536,
			"target": 34962
		},
		{
			"buffer": 0,
			"byteLength": 5424,
			"byteOffset": 2910960,
			"target": 34962
		}
	],
	"images": [
		{
			"uri": "medieval_church_texture_6.png"
		},
		{
			"uri": "medieval_church_texture_9.png"
		},
		{
			"uri": "medieval_church_texture_10.png"
		},
		{
			"uri": "medieval_church_texture_11.png"
		},
		{
			"uri": "medieval_church_texture_7.png"
		},
		{
			"uri": "medieval_church_texture_4.png"
		},
		{
			"uri": "medieval_church_texture_8.png"
		},
		{
			"uri": "medieval_church_texture_5.png"
		},
		{
			"uri": "medieval_church_texture_3.png"
		},
		{
			"uri": "medieval_church_texture_1.png"
		},
		{
			"uri": "medieval_church_texture_2.png"
		},
		{
			"uri": "medieval_church_texture_0.png"
		}
	],
	"materials": [
		{
			"name": "Wood_medieval_church",
			"pbrMetallicRoughness":
			{
				"baseColorTexture":
				{
					"index": 0
				},
				"metallicFactor": 0,
				"roughnessFactor": 0.200000003
			},
			"doubleSided": true
		},
		{
			"name": "LogEdgeWeathered_medieval_church",
			"pbrMetallicRoughness":
			{
				"baseColorTexture":
				{
					"index": 1
				},
				"metallicFactor": 0,
				"roughnessFactor": 0.200000003
			},
			"doubleSided": true
		},
		{
			"name": "DoorType1_2_medieval_church",
			"pbrMetallicRoughness":
			{
				"baseColorTexture":
				{
					"index": 2
				},
				"metallicFactor": 0,
				"roughnessFactor": 0.200000003
			},
			"doubleSided": true
		},
		{
			"name": "RustedMetal",
			"pbrMetallicRoughness":
			{
				"baseColorTexture":
				{
					"index": 3
				},
				"metallicFactor": 0,
				"roughnessFactor": 0.200000003
			},
			"doubleSided": true
		},
		{
			"name": "Marble_medieval_church",
			"pbrMetallicRoughness":
			{
				"baseColorTexture":
				{
					"index": 4
				},
				"metallicFactor": 0,
				"roughnessFactor": 0.200000003
			},
			"doubleSided": true
		},
		{
			"name": "Stone_medieval_church",
			"pbrMetallicRoughness":
			{
				"baseColorTexture":
				{
					"index": 5
				},
				"metallicFactor": 0,
				"roughnessFactor": 0.200000003
			},
			"doubleSided": true
		},
		{
			"name": "ChurchDoor1_medieval_church",
			"pbrMetallicRoughness":
			{
				"baseColorTexture":
				{
					"index": 6
				},
				"metallicFactor": 0,
				"roughnessFactor": 0.200000003
			},
			"doubleSided": true
		},
		{
			"name": "WroughtIron_medieval_church",
			"pbrMetallicRoughness":
			{
				"baseColorTexture":
				{
					"index": 7
				},
				"metallicFactor": 0,
				"roughnessFactor": 0.200000003
			},
			"doubleSided": true
		},
		{
			"name": "GreyBrick2_medieval_church",
			"pbrMetallicRoughness":
			{
				"baseColorTexture":
				{
					"index": 8
				},
				"metallicFactor": 0
			},
			"doubleSided": true
		},
		{
			"name": "Metal_medieval_church",
			"pbrMetallicRoughness":
			{
				"baseColorTexture":
				{
					"index": 9
				},
				"metallicFactor": 0,
				"roughnessFactor": 0.200000003
			},
			"doubleSided": true
		},
		{
			"name": "RoofTiles3_medieval_church",
			"pbrMetallicRoughness":
			{
				"baseColorTexture":
				{
					"index": 10
				},
				"roughnessFactor": 0.751714945
			},
			"doubleSided": true
		},
		{
			"name": "Black_medieval_church",
			"pbrMetallicRoughness":
			{
				"baseColorTexture":
				{
					"index": 11
				},
				"metallicFactor": 0,
				"roughnessFactor": 0.200000003
			},
			"doubleSided": true
		}
	],
	"meshes": [
		{
			"name": "medieval_church",
			"primitives": [
				{
					"attributes":
					{
						"POSITION": 1,
						"NORMAL": 2,
						"TANGENT": 3,
						"TEXCOORD_0": 4,
						"TEXCOORD_1": 5
					},
					"indices": 0,
					"material": 0
				},
				{
					"attributes":
					{
						"POSITION": 7,
						"NORMAL": 8,
						"TANGENT": 9,
						"TEXCOORD_0": 10,
						"TEXCOORD_1": 11
					},
					"indices": 6,
					"material": 1
				},
				{
					"attributes":
					{
						"POSITION": 13,
						"NORMAL": 14,
						"TANGENT": 15,
						"TEXCOORD_0": 16,
						"TEXCOORD_1": 17
					},
					"indices": 12,
					"material": 2
				},
				{
					"attributes":
					{
						"POSITION": 19,
						"NORMAL": 20,
						"TANGENT": 21,
						"TEXCOORD_0": 22,
						"TEXCOORD_1": 23
					},
					"indices": 18,
					"material": 3
				},
				{
					"attributes":
					{
						"POSITION": 25,
						"NORMAL": 26,
						"TANGENT": 27,
						"TEXCOORD_0": 28,
						"TEXCOORD_1": 29
					},
					"indices": 24,
					"material": 4
				},
				{
					"attributes":
					{
						"POSITION": 31,
						"NORMAL": 32,
						"TANGENT": 33,
						"TEXCOORD_0": 34,
						"TEXCOORD_1": 35
					},
					"indices": 30,
					"material": 5
				},
				{
					"attributes":
					{
						"POSITION": 37,
						"NORMAL": 38,
						"TANGENT": 39,
						"TEXCOORD_0": 40,
						"TEXCOORD_1": 41
					},
					"indices": 36,
					"material": 6
				},
				{
					"attributes":
					{
						"POSITION": 43,
						"NORMAL": 44,
						"TANGENT": 45,
						"TEXCOORD_0": 46,
						"TEXCOORD_1": 47
					},
					"indices": 42,
					"material": 7
				},
				{
					"attributes":
					{
						"POSITION": 49,
						"NORMAL": 50,
						"TANGENT": 51,
						"TEXCOORD_0": 52,
						"TEXCOORD_1": 53
					},
					"indices": 48,
					"material": 8
				},
				{
					"attributes":
					{
						"POSITION": 55,
						"NORMAL": 56,
						"TANGENT": 57,
						"TEXCOORD_0": 58,
						"TEXCOORD_1": 59
					},
					"indices": 54,
					"material": 9
				},
				{
					"attributes":
					{
						"POSITION": 61,
						"NORMAL": 62,
						"TANGENT": 63,
						"TEXCOORD_0": 64,
						"TEXCOORD_1": 65
					},
					"indices": 60,
					"material": 10
				},
				{
					"attributes":
					{
						"POSITION": 67,
						"NORMAL": 68,
						"TANGENT": 69,
						"TEXCOORD_0": 70,
						"TEXCOORD_1": 71
					},
					"indices": 66,
					"material": 11
				}
			]
		}
	],
	"nodes": [
		{
			"mesh": 0
		}
	],
	"samplers": [
		{
			"minFilter": 9987,
			"magFilter": 9729
		}
	],
	"scenes": [
		{
			"nodes": [ 0 ]
		}
	],
	"textures": [
		{
			"name": "medieval_church_texture_6",
			"sampler": 0,
			"source": 0
		},
		{
			"name": "medieval_church_texture_9",
			"sampler": 0,
			"source": 1
		},
		{
			"name": "medieval_church_texture_10",
			"sampler": 0,
			"source": 2
		},
		{
			"name": "medieval_church_texture_11",
			"sampler": 0,
			"source": 3
		},
		{
			"name": "medieval_church_texture_7",
			"sampler": 0,
			"source": 4
		},
		{
			"name": "medieval_church_texture_4",
			"sampler": 0,
			"source": 5
		},
		{
			"name": "medieval_church_texture_8",
			"sampler": 0,
			"source": 6
		},
		{
			"name": "medieval_church_texture_5",
			"sampler": 0,
			"source": 7
		},
		{
			"name": "medieval_church_texture_3",
			"sampler": 0,
			"source": 8
		},
		{
			"name": "medieval_church_texture_1",
			"sampler": 0,
			"source": 9
		},
		{
			"name": "medieval_church_texture_2",
			"sampler": 0,
			"source": 10
		},
		{
			"name": "medieval_church_texture_0",
			"sampler": 0,
			"source": 11
		}
	]
}