{
	"asset":
	{
		"version": "2.0",
		"generator": "Unreal Engine 5.6.1"
	},
	"scene": 0,
	"accessors": [
		{
			"bufferView": 0,
			"count": 24540,
			"type": "SCALAR",
			"componentType": 5123
		},
		{
			"bufferView": 1,
			"count": 5658,
			"type": "VEC3",
			"componentType": 5126,
			"min": [ -3.80011368, 1.049734, -2.41619563 ],
			"max": [ 2.89334893, 3.917377, 2.41619611 ]
		},
		{
			"bufferView": 2,
			"count": 5658,
			"type": "VEC3",
			"componentType": 5126
		},
		{
			"bufferView": 3,
			"count": 5658,
			"type": "VEC4",
			"componentType": 5126
		},
		{
			"bufferView": 4,
			"count": 5658,
			"type": "VEC2",
			"componentType": 5126
		},
		{
			"bufferView": 5,
			"count": 5658,
			"type": "VEC2",
			"componentType": 5126
		},
		{
			"bufferView": 6,
			"count": 62688,
			"type": "SCALAR",
			"componentType": 5123
		},
		{
			"bufferView": 7,
			"count": 12878,
			"type": "VEC3",
			"componentType": 5126,
			"min": [ -3.34169984, 1.01399446, -2.47692609 ],
			"max": [ 5.61639261, 4.67511511, 2.47692657 ]
		},
		{
			"bufferView": 8,
			"count": 12878,
			"type": "VEC3",
			"componentType": 5126
		},
		{
			"bufferView": 9,
			"count": 12878,
			"type": "VEC4",
			"componentType": 5126
		},
		{
			"bufferView": 10,
			"count": 12878,
			"type": "VEC2",
			"componentType": 5126
		},
		{
			"bufferView": 11,
			"count": 12878,
			"type": "VEC2",
			"componentType": 5126
		},
		{
			"bufferView": 12,
			"count": 135786,
			"type": "SCALAR",
			"componentType": 5123
		},
		{
			"bufferView": 13,
			"count": 24670,
			"type": "VEC3",
			"componentType": 5126,
			"min": [ -2.98724627, 1.01094353, -2.14304996 ],
			"max": [ 5.4201026, 4.13104677, 2.59904957 ]
		},
		{
			"bufferView": 14,
			"count": 24670,
			"type": "VEC3",
			"componentType": 5126
		},
		{
			"bufferView": 15,
			"count": 24670,
			"type": "VEC4",
			"componentType": 5126
		},
		{
			"bufferView": 16,
			"count": 24670,
			"type": "VEC2",
			"componentType": 5126
		},
		{
			"bufferView": 17,
			"count": 24670,
			"type": "VEC2",
			"componentType": 5126
		},
		{
			"bufferView": 18,
			"count": 3210,
			"type": "SCALAR",
			"componentType": 5123
		},
		{
			"bufferView": 19,
			"count": 674,
			"type": "VEC3",
			"componentType": 5126,
			"min": [ -7.2153368, -6.24552399e-07, -4.38225126 ],
			"max": [ 7.2153368, 1.0212208, 4.38225126 ]
		},
		{
			"bufferView": 20,
			"count": 674,
			"type": "VEC3",
			"componentType": 5126
		},
		{
			"bufferView": 21,
			"count": 674,
			"type": "VEC4",
			"componentType": 5126
		},
		{
			"bufferView": 22,
			"count": 674,
			"type": "VEC2",
			"componentType": 5126
		},
		{
			"bufferView": 23,
			"count": 674,
			"type": "VEC2",
			"componentType": 5126
		},
		{
			"bufferView": 24,
			"count": 8640,
			"type": "SCALAR",
			"componentType": 5123
		},
		{
			"bufferView": 25,
			"count": 1683,
			"type": "VEC3",
			"componentType": 5126,
			"min": [ -0.46997878, 1.02936172, -1.54704857 ],
			"max": [ 6.18463612, 1.59171093, 3.65993667 ]
		},
		{
			"bufferView": 26,
			"count": 1683,
			"type": "VEC3",
			"componentType": 5126
		},
		{
			"bufferView": 27,
			"count": 1683,
			"type": "VEC4",
			"componentType": 5126
		},
		{
			"bufferView": 28,
			"count": 1683,
			"type": "VEC2",
			"componentType": 5126
		},
		{
			"bufferView": 29,
			"count": 1683,
			"type": "VEC2",
			"componentType": 5126
		}
	],
	"buffers": [
		{
			"uri": "old_cannon.bin",
			"byteLength": 3021256
		}
	],
	"bufferViews": [
		{
			"buffer": 0,
			"byteLength": 49080,
			"target": 34963
		},
		{
			"buffer": 0,
			"byteLength": 67896,
			"byteOffset": 49080,
			"target": 34962
		},
		{
			"buffer": 0,
			"byteLength": 67896,
			"byteOffset": 116976,
			"target": 34962
		},
		{
			"buffer": 0,
			"byteLength": 90528,
			"byteOffset": 184872,
			"target": 34962
		},
		{
			"buffer": 0,
			"byteLength": 45264,
			"byteOffset": 275400,
			"target": 34962
		},
		{
			"buffer": 0,
			"byteLength": 45264,
			"byteOffset": 320664,
			"target": 34962
		},
		{
			"buffer": 0,
			"byteLength": 125376,
			"byteOffset": 365928,
			"target": 34963
		},
		{
			"buffer": 0,
			"byteLength": 154536,
			"byteOffset": 491304,
			"target": 34962
		},
		{
			"buffer": 0,
			"byteLength": 154536,
			"byteOffset": 645840,
			"target": 34962
		},
		{
			"buffer": 0,
			"byteLength": 206048,
			"byteOffset": 800376,
			"target": 34962
		},
		{
			"buffer": 0,
			"byteLength": 103024,
			"byteOffset": 1006424,
			"target": 34962
		},
		{
			"buffer": 0,
			"byteLength": 103024,
			"byteOffset": 1109448,
			"target": 34962
		},
		{
			"buffer": 0,
			"byteLength": 271572,
			"byteOffset": 1212472,
			"target": 34963
		},
		{
			"buffer": 0,
			"byteLength": 296040,
			"byteOffset": 1484044,
			"target": 34962
		},
		{
			"buffer": 0,
			"byteLength": 296040,
			"byteOffset": 1780084,
			"target": 34962
		},
		{
			"buffer": 0,
			"byteLength": 394720,
			"byteOffset": 2076124,
			"target": 34962
		},
		{
			"buffer": 0,
			"byteLength": 197360,
			"byteOffset": 2470844,
			"target": 34962
		},
		{
			"buffer": 0,
			"byteLength": 197360,
			"byteOffset": 2668204,
			"target": 34962
		},
		{
			"buffer": 0,
			"byteLength": 6420,
			"byteOffset": 2865564,
			"target": 34963
		},
		{
			"buffer": 0,
			"byteLength": 8088,
			"byteOffset": 2871984,
			"target": 34962
		},
		{
			"buffer": 0,
			"byteLength": 8088,
			"byteOffset": 2880072,
			"target": 34962
		},
		{
			"buffer": 0,
			"byteLength": 10784,
			"byteOffset": 2888160,
			"target": 34962
		},
		{
			"buffer": 0,
			"byteLength": 5392,
			"byteOffset": 2898944,
			"target": 34962
		},
		{
			"buffer": 0,
			"byteLength": 5392,
			"byteOffset": 2904336,
			"target": 34962
		},
		{
			"buffer": 0,
			"byteLength": 17280,
			"byteOffset": 2909728,
			"target": 34963
		},
		{
			"buffer": 0,
			"byteLength": 20196,
			"byteOffset": 2927008,
			"target": 34962
		},
		{
			"buffer": 0,
			"byteLength": 20196,
			"byteOffset": 2947204,
			"target": 34962
		},
		{
			"buffer": 0,
			"byteLength": 26928,
			"byteOffset": 2967400,
			"target": 34962
		},
		{
			"buffer": 0,
			"byteLength": 13464,
			"byteOffset": 2994328,
			"target": 34962
		},
		{
			"buffer": 0,
			"byteLength": 13464,
			"byteOffset": 3007792,
			"target": 34962
		}
	],
	"images": [
		{
			"uri": "old_cannon_texture_0.png"
		},
		{
			"uri": "old_cannon_texture_1.png"
		},
		{
			"uri": "old_cannon_texture_2.png"
		},
		{
			"uri": "old_cannon_texture_3.png"
		},
		{
			"uri": "old_cannon_texture_4.png"
		},
		{
			"uri": "old_cannon_texture_5.png"
		},
		{
			"uri": "old_cannon_texture_6.png"
		},
		{
			"uri": "old_cannon_texture_7.png"
		},
		{
			"uri": "old_cannon_texture_8.png"
		},
		{
			"uri": "old_cannon_texture_9.png"
		},
		{
			"uri": "old_cannon_texture_10.png"
		},
		{
			"uri": "old_cannon_texture_11.png"
		},
		{
			"uri": "old_cannon_texture_12.png"
		},
		{
			"uri": "old_cannon_texture_13.png"
		}
	],
	"materials": [
		{
			"name": "Wood_old_cannon",
			"pbrMetallicRoughness":
			{
				"baseColorTexture":
				{
					"index": 0
				},
				"metallicRoughnessTexture":
				{
					"index": 1
				}
			},
			"normalTexture":
			{
				"index": 2
			},
			"occlusionTexture":
			{
				"index": 1
			},
			"doubleSided": true
		},
		{
			"name": "Metal-1_old_cannon",
			"pbrMetallicRoughness":
			{
				"baseColorTexture":
				{
					"index": 3
				},
				"metallicRoughnessTexture":
				{
					"index": 4
				}
			},
			"occlusionTexture":
			{
				"index": 4
			},
			"doubleSided": true
		},
		{
			"name": "Rope_old_cannon",
			"pbrMetallicRoughness":
			{
				"baseColorTexture":
				{
					"index": 5
				},
				"metallicRoughnessTexture":
				{
					"index": 6
				}
			},
			"normalTexture":
			{
				"index": 7
			},
			"occlusionTexture":
			{
				"index": 6
			},
			"doubleSided": true
		},
		{
			"name": "Stage_old_cannon",
			"pbrMetallicRoughness":
			{
				"baseColorTexture":
				{
					"index": 8
				},
				"metallicRoughnessTexture":
				{
					"index": 9
				}
			},
			"normalTexture":
			{
				"index": 10
			},
			"occlusionTexture":
			{
				"index": 9
			},
			"doubleSided": true
		},
		{
			"name": "Metal-2_old_cannon",
			"pbrMetallicRoughness":
			{
				"baseColorTexture":
				{
					"index": 11
				},
				"metallicRoughnessTexture":
				{
					"index": 12
				}
			},
			"normalTexture":
			{
				"index": 13
			},
			"occlusionTexture":
			{
				"index": 12
			},
			"doubleSided": true
		}
	],
	"meshes": [
		{
			"name": "old_cannon",
			"primitives": [
				{
					"attributes":
					{
						"POSITION": 1,
						"NORMAL": 2,
						"TANGENT": 3,
						"TEXCOORD_0": 4,
						"TEXCOORD_1": 5
					},
					"indices": 0,
					"material": 0
				},
				{
					"attributes":
					{
						"POSITION": 7,
						"NORMAL": 8,
						"TANGENT": 9,
						"TEXCOORD_0": 10,
						"TEXCOORD_1": 11
					},
					"indices": 6,
					"material": 1
				},
				{
					"attributes":
					{
						"POSITION": 13,
						"NORMAL": 14,
						"TANGENT": 15,
						"TEXCOORD_0": 16,
						"TEXCOORD_1": 17
					},
					"indices": 12,
					"material": 2
				},
				{
					"attributes":
					{
						"POSITION": 19,
						"NORMAL": 20,
						"TANGENT": 21,
						"TEXCOORD_0": 22,
						"TEXCOORD_1": 23
					},
					"indices": 18,
					"material": 3
				},
				{
					"attributes":
					{
						"POSITION": 25,
						"NORMAL": 26,
						"TANGENT": 27,
						"TEXCOORD_0": 28,
						"TEXCOORD_1": 29
					},
					"indices": 24,
					"material": 4
				}
			]
		}
	],
	"nodes": [
		{
			"mesh": 0
		}
	],
	"samplers": [
		{
			"minFilter": 9987,
			"magFilter": 9729
		}
	],
	"scenes": [
		{
			"nodes": [ 0 ]
		}
	],
	"textures": [
		{
			"name": "old_cannon_texture_0",
			"sampler": 0,
			"source": 0
		},
		{
			"name": "old_cannon_texture_1",
			"sampler": 0,
			"source": 1
		},
		{
			"name": "old_cannon_texture_2",
			"sampler": 0,
			"source": 2
		},
		{
			"name": "old_cannon_texture_3",
			"sampler": 0,
			"source": 3
		},
		{
			"name": "old_cannon_texture_4",
			"sampler": 0,
			"source": 4
		},
		{
			"name": "old_cannon_texture_5",
			"sampler": 0,
			"source": 5
		},
		{
			"name": "old_cannon_texture_6",
			"sampler": 0,
			"source": 6
		},
		{
			"name": "old_cannon_texture_7",
			"sampler": 0,
			"source": 7
		},
		{
			"name": "old_cannon_texture_8",
			"sampler": 0,
			"source": 8
		},
		{
			"name": "old_cannon_texture_9",
			"sampler": 0,
			"source": 9
		},
		{
			"name": "old_cannon_texture_10",
			"sampler": 0,
			"source": 10
		},
		{
			"name": "old_cannon_texture_11",
			"sampler": 0,
			"source": 11
		},
		{
			"name": "old_cannon_texture_12",
			"sampler": 0,
			"source": 12
		},
		{
			"name": "old_cannon_texture_13",
			"sampler": 0,
			"source": 13
		}
	]
}