{
	"asset":
	{
		"version": "2.0",
		"generator": "Unreal Engine 5.6.1"
	},
	"scene": 0,
	"accessors": [
		{
			"bufferView": 0,
			"count": 726,
			"type": "SCALAR",
			"componentType": 5123
		},
		{
			"bufferView": 1,
			"count": 676,
			"type": "VEC3",
			"componentType": 5126,
			"min": [ -0.0645787269, -0.000197120316, -0.0645787343 ],
			"max": [ 0.0645787269, 0.319498658, 0.0645787194 ]
		},
		{
			"bufferView": 2,
			"count": 676,
			"type": "VEC3",
			"componentType": 5126
		},
		{
			"bufferView": 3,
			"count": 676,
			"type": "VEC4",
			"componentType": 5126
		},
		{
			"bufferView": 4,
			"count": 676,
			"type": "VEC2",
			"componentType": 5126
		},
		{
			"bufferView": 5,
			"count": 676,
			"type": "VEC2",
			"componentType": 5126
		}
	],
	"buffers": [
		{
			"uri": "SM_Bottle_02.bin",
			"byteLength": 39308
		}
	],
	"bufferViews": [
		{
			"buffer": 0,
			"byteLength": 1452,
			"target": 34963
		},
		{
			"buffer": 0,
			"byteLength": 8112,
			"byteOffset": 1452,
			"target": 34962
		},
		{
			"buffer": 0,
			"byteLength": 8112,
			"byteOffset": 9564,
			"target": 34962
		},
		{
			"buffer": 0,
			"byteLength": 10816,
			"byteOffset": 17676,
			"target": 34962
		},
		{
			"buffer": 0,
			"byteLength": 5408,
			"byteOffset": 28492,
			"target": 34962
		},
		{
			"buffer": 0,
			"byteLength": 5408,
			"byteOffset": 33900,
			"target": 34962
		}
	],
	"materials": [
		{
			"name": "MI_Prop_01",
			"pbrMetallicRoughness":
			{
				"metallicFactor": 0,
				"roughnessFactor": 0.5
			}
		}
	],
	"meshes": [
		{
			"name": "SM_Bottle_02",
			"primitives": [
				{
					"attributes":
					{
						"POSITION": 1,
						"NORMAL": 2,
						"TANGENT": 3,
						"TEXCOORD_0": 4,
						"TEXCOORD_1": 5
					},
					"indices": 0,
					"material": 0
				}
			]
		}
	],
	"nodes": [
		{
			"mesh": 0
		}
	],
	"scenes": [
		{
			"nodes": [ 0 ]
		}
	]
}