{
	"asset":
	{
		"version": "2.0",
		"generator": "Unreal Engine 5.6.1"
	},
	"scene": 0,
	"accessors": [
		{
			"bufferView": 0,
			"count": 2592,
			"type": "SCALAR",
			"componentType": 5123
		},
		{
			"bufferView": 1,
			"count": 1492,
			"type": "VEC3",
			"componentType": 5126,
			"min": [ -0.430199414, -0.558000147, -0.430200219 ],
			"max": [ 0.430201054, 0.558000028, 0.43020004 ]
		},
		{
			"bufferView": 2,
			"count": 1492,
			"type": "VEC3",
			"componentType": 5126
		},
		{
			"bufferView": 3,
			"count": 1492,
			"type": "VEC4",
			"componentType": 5126
		},
		{
			"bufferView": 4,
			"count": 1492,
			"type": "VEC2",
			"componentType": 5126
		},
		{
			"bufferView": 5,
			"count": 1492,
			"type": "VEC2",
			"componentType": 5126
		}
	],
	"buffers": [
		{
			"uri": "SM_Barrell_Closed_01.bin",
			"byteLength": 88736
		}
	],
	"bufferViews": [
		{
			"buffer": 0,
			"byteLength": 5184,
			"target": 34963
		},
		{
			"buffer": 0,
			"byteLength": 17904,
			"byteOffset": 5184,
			"target": 34962
		},
		{
			"buffer": 0,
			"byteLength": 17904,
			"byteOffset": 23088,
			"target": 34962
		},
		{
			"buffer": 0,
			"byteLength": 23872,
			"byteOffset": 40992,
			"target": 34962
		},
		{
			"buffer": 0,
			"byteLength": 11936,
			"byteOffset": 64864,
			"target": 34962
		},
		{
			"buffer": 0,
			"byteLength": 11936,
			"byteOffset": 76800,
			"target": 34962
		}
	],
	"images": [
		{
			"uri": "MI_Prop_01_BaseColor.png"
		}
	],
	"materials": [
		{
			"name": "MI_Prop_01",
			"pbrMetallicRoughness":
			{
				"baseColorTexture":
				{
					"index": 0
				},
				"metallicFactor": 0,
				"roughnessFactor": 0.5
			}
		}
	],
	"meshes": [
		{
			"name": "SM_Barrell_Closed_01",
			"primitives": [
				{
					"attributes":
					{
						"POSITION": 1,
						"NORMAL": 2,
						"TANGENT": 3,
						"TEXCOORD_0": 4,
						"TEXCOORD_1": 5
					},
					"indices": 0,
					"material": 0
				}
			]
		}
	],
	"nodes": [
		{
			"mesh": 0
		}
	],
	"samplers": [
		{
			"minFilter": 9987,
			"magFilter": 9729
		}
	],
	"scenes": [
		{
			"nodes": [ 0 ]
		}
	],
	"textures": [
		{
			"name": "MI_Prop_01_BaseColor",
			"sampler": 0,
			"source": 0
		}
	]
}