{
	"asset":
	{
		"version": "2.0",
		"generator": "Unreal Engine 5.6.1"
	},
	"scene": 0,
	"accessors": [
		{
			"bufferView": 0,
			"count": 1032,
			"type": "SCALAR",
			"componentType": 5123
		},
		{
			"bufferView": 1,
			"count": 952,
			"type": "VEC3",
			"componentType": 5126,
			"min": [ -0.0720258132, 2.6002188e-05, -0.0720258206 ],
			"max": [ 0.0720258132, 0.278098732, 0.0720258057 ]
		},
		{
			"bufferView": 2,
			"count": 952,
			"type": "VEC3",
			"componentType": 5126
		},
		{
			"bufferView": 3,
			"count": 952,
			"type": "VEC4",
			"componentType": 5126
		},
		{
			"bufferView": 4,
			"count": 952,
			"type": "VEC2",
			"componentType": 5126
		},
		{
			"bufferView": 5,
			"count": 952,
			"type": "VEC2",
			"componentType": 5126
		}
	],
	"buffers": [
		{
			"uri": "SM_Bottle_03.bin",
			"byteLength": 55376
		}
	],
	"bufferViews": [
		{
			"buffer": 0,
			"byteLength": 2064,
			"target": 34963
		},
		{
			"buffer": 0,
			"byteLength": 11424,
			"byteOffset": 2064,
			"target": 34962
		},
		{
			"buffer": 0,
			"byteLength": 11424,
			"byteOffset": 13488,
			"target": 34962
		},
		{
			"buffer": 0,
			"byteLength": 15232,
			"byteOffset": 24912,
			"target": 34962
		},
		{
			"buffer": 0,
			"byteLength": 7616,
			"byteOffset": 40144,
			"target": 34962
		},
		{
			"buffer": 0,
			"byteLength": 7616,
			"byteOffset": 47760,
			"target": 34962
		}
	],
	"images": [
		{
			"uri": "MI_Prop_01_SM_Bottle_03_BaseColor.png"
		}
	],
	"materials": [
		{
			"name": "MI_Prop_01_SM_Bottle_03",
			"pbrMetallicRoughness":
			{
				"baseColorTexture":
				{
					"index": 0,
					"texCoord": 1,
					"extensions":
					{
						"KHR_texture_transform":
						{
							"offset": [ -0, 0.0592867061 ],
							"scale": [ 1.07846236, 0.948587298 ]
						}
					}
				},
				"metallicFactor": 0,
				"roughnessFactor": 0.5
			}
		}
	],
	"meshes": [
		{
			"name": "SM_Bottle_03",
			"primitives": [
				{
					"attributes":
					{
						"POSITION": 1,
						"NORMAL": 2,
						"TANGENT": 3,
						"TEXCOORD_0": 4,
						"TEXCOORD_1": 5
					},
					"indices": 0,
					"material": 0
				}
			]
		}
	],
	"nodes": [
		{
			"mesh": 0
		}
	],
	"samplers": [
		{
			"minFilter": 9987,
			"magFilter": 9729
		}
	],
	"scenes": [
		{
			"nodes": [ 0 ]
		}
	],
	"textures": [
		{
			"name": "MI_Prop_01_SM_Bottle_03_BaseColor",
			"sampler": 0,
			"source": 0
		}
	],
	"extensionsUsed": [
		"KHR_texture_transform"
	]
}