{
	"asset":
	{
		"version": "2.0",
		"generator": "Unreal Engine 5.6.1"
	},
	"scene": 0,
	"accessors": [
		{
			"bufferView": 0,
			"count": 2526,
			"type": "SCALAR",
			"componentType": 5123
		},
		{
			"bufferView": 1,
			"count": 1507,
			"type": "VEC3",
			"componentType": 5126,
			"min": [ -2.20000005, -0.499509186, -0.770000041 ],
			"max": [ 1.0544765, 0.499509305, 0.770000041 ]
		},
		{
			"bufferView": 2,
			"count": 1507,
			"type": "VEC3",
			"componentType": 5126
		},
		{
			"bufferView": 3,
			"count": 1507,
			"type": "VEC4",
			"componentType": 5126
		},
		{
			"bufferView": 4,
			"count": 1507,
			"type": "VEC2",
			"componentType": 5126
		},
		{
			"bufferView": 5,
			"count": 1507,
			"type": "VEC2",
			"componentType": 5126
		}
	],
	"buffers": [
		{
			"uri": "SM_Cart_01.bin",
			"byteLength": 89444
		}
	],
	"bufferViews": [
		{
			"buffer": 0,
			"byteLength": 5052,
			"target": 34963
		},
		{
			"buffer": 0,
			"byteLength": 18084,
			"byteOffset": 5052,
			"target": 34962
		},
		{
			"buffer": 0,
			"byteLength": 18084,
			"byteOffset": 23136,
			"target": 34962
		},
		{
			"buffer": 0,
			"byteLength": 24112,
			"byteOffset": 41220,
			"target": 34962
		},
		{
			"buffer": 0,
			"byteLength": 12056,
			"byteOffset": 65332,
			"target": 34962
		},
		{
			"buffer": 0,
			"byteLength": 12056,
			"byteOffset": 77388,
			"target": 34962
		}
	],
	"materials": [
		{
			"name": "MI_Prop_01",
			"pbrMetallicRoughness":
			{
				"metallicFactor": 0,
				"roughnessFactor": 0.5
			}
		}
	],
	"meshes": [
		{
			"name": "SM_Cart_01",
			"primitives": [
				{
					"attributes":
					{
						"POSITION": 1,
						"NORMAL": 2,
						"TANGENT": 3,
						"TEXCOORD_0": 4,
						"TEXCOORD_1": 5
					},
					"indices": 0,
					"material": 0
				}
			]
		}
	],
	"nodes": [
		{
			"mesh": 0
		}
	],
	"scenes": [
		{
			"nodes": [ 0 ]
		}
	]
}