{
	"asset":
	{
		"version": "2.0",
		"generator": "Unreal Engine 5.6.1"
	},
	"scene": 0,
	"accessors": [
		{
			"bufferView": 0,
			"count": 3516,
			"type": "SCALAR",
			"componentType": 5123
		},
		{
			"bufferView": 1,
			"count": 802,
			"type": "VEC3",
			"componentType": 5126,
			"min": [ -1, -0.000500001654, -1 ],
			"max": [ 1, 0.0497499965, 5.27108893e-18 ]
		},
		{
			"bufferView": 2,
			"count": 802,
			"type": "VEC3",
			"componentType": 5126
		},
		{
			"bufferView": 3,
			"count": 802,
			"type": "VEC4",
			"componentType": 5126
		},
		{
			"bufferView": 4,
			"count": 802,
			"type": "VEC2",
			"componentType": 5126
		}
	],
	"buffers": [
		{
			"uri": "SM_FLOOR.bin",
			"byteLength": 45528
		}
	],
	"bufferViews": [
		{
			"buffer": 0,
			"byteLength": 7032,
			"target": 34963
		},
		{
			"buffer": 0,
			"byteLength": 9624,
			"byteOffset": 7032,
			"target": 34962
		},
		{
			"buffer": 0,
			"byteLength": 9624,
			"byteOffset": 16656,
			"target": 34962
		},
		{
			"buffer": 0,
			"byteLength": 12832,
			"byteOffset": 26280,
			"target": 34962
		},
		{
			"buffer": 0,
			"byteLength": 6416,
			"byteOffset": 39112,
			"target": 34962
		}
	],
	"materials": [
		{
			"name": "M_AssetPlatform",
			"pbrMetallicRoughness":
			{
				"baseColorFactor": [ 0.300000012, 0.300000012, 0.300000012, 1 ],
				"metallicFactor": 0,
				"roughnessFactor": 0.300000012
			}
		}
	],
	"meshes": [
		{
			"name": "SM_FLOOR",
			"primitives": [
				{
					"attributes":
					{
						"POSITION": 1,
						"NORMAL": 2,
						"TANGENT": 3,
						"TEXCOORD_0": 4
					},
					"indices": 0,
					"material": 0
				}
			]
		}
	],
	"nodes": [
		{
			"mesh": 0
		}
	],
	"scenes": [
		{
			"nodes": [ 0 ]
		}
	]
}