{
	"asset":
	{
		"version": "2.0",
		"generator": "Unreal Engine 5.6.1"
	},
	"scene": 0,
	"accessors": [
		{
			"bufferView": 0,
			"count": 996,
			"type": "SCALAR",
			"componentType": 5123
		},
		{
			"bufferView": 1,
			"count": 624,
			"type": "VEC3",
			"componentType": 5126,
			"min": [ -0.886996806, -1.51565828e-07, -1.75999939 ],
			"max": [ 1.42999971, 2.54497886, 1.75999951 ]
		},
		{
			"bufferView": 2,
			"count": 624,
			"type": "VEC3",
			"componentType": 5126
		},
		{
			"bufferView": 3,
			"count": 624,
			"type": "VEC4",
			"componentType": 5126
		},
		{
			"bufferView": 4,
			"count": 624,
			"type": "VEC2",
			"componentType": 5126
		},
		{
			"bufferView": 5,
			"count": 624,
			"type": "VEC2",
			"componentType": 5126
		},
		{
			"bufferView": 6,
			"count": 2052,
			"type": "SCALAR",
			"componentType": 5123
		},
		{
			"bufferView": 7,
			"count": 1912,
			"type": "VEC3",
			"componentType": 5126,
			"min": [ -1.13397181, 1.72064507, -2.00276732 ],
			"max": [ 1.58690321, 2.59225345, 2.01743937 ]
		},
		{
			"bufferView": 8,
			"count": 1912,
			"type": "VEC3",
			"componentType": 5126
		},
		{
			"bufferView": 9,
			"count": 1912,
			"type": "VEC4",
			"componentType": 5126
		},
		{
			"bufferView": 10,
			"count": 1912,
			"type": "VEC2",
			"componentType": 5126
		},
		{
			"bufferView": 11,
			"count": 1912,
			"type": "VEC2",
			"componentType": 5126
		}
	],
	"buffers": [
		{
			"uri": "SM_MarketStall_01.bin",
			"byteLength": 148112
		}
	],
	"bufferViews": [
		{
			"buffer": 0,
			"byteLength": 1992,
			"target": 34963
		},
		{
			"buffer": 0,
			"byteLength": 7488,
			"byteOffset": 1992,
			"target": 34962
		},
		{
			"buffer": 0,
			"byteLength": 7488,
			"byteOffset": 9480,
			"target": 34962
		},
		{
			"buffer": 0,
			"byteLength": 9984,
			"byteOffset": 16968,
			"target": 34962
		},
		{
			"buffer": 0,
			"byteLength": 4992,
			"byteOffset": 26952,
			"target": 34962
		},
		{
			"buffer": 0,
			"byteLength": 4992,
			"byteOffset": 31944,
			"target": 34962
		},
		{
			"buffer": 0,
			"byteLength": 4104,
			"byteOffset": 36936,
			"target": 34963
		},
		{
			"buffer": 0,
			"byteLength": 22944,
			"byteOffset": 41040,
			"target": 34962
		},
		{
			"buffer": 0,
			"byteLength": 22944,
			"byteOffset": 63984,
			"target": 34962
		},
		{
			"buffer": 0,
			"byteLength": 30592,
			"byteOffset": 86928,
			"target": 34962
		},
		{
			"buffer": 0,
			"byteLength": 15296,
			"byteOffset": 117520,
			"target": 34962
		},
		{
			"buffer": 0,
			"byteLength": 15296,
			"byteOffset": 132816,
			"target": 34962
		}
	],
	"images": [
		{
			"uri": "MI_Prop_01_BaseColor.png"
		}
	],
	"materials": [
		{
			"name": "MI_Prop_01",
			"pbrMetallicRoughness":
			{
				"baseColorTexture":
				{
					"index": 0
				},
				"metallicFactor": 0,
				"roughnessFactor": 0.5
			}
		},
		{
			"name": "MI_Cloth_01",
			"pbrMetallicRoughness":
			{
				"baseColorTexture":
				{
					"index": 1
				},
				"metallicFactor": 0,
				"roughnessFactor": 0.5
			}
		}
	],
	"meshes": [
		{
			"name": "SM_MarketStall_01",
			"primitives": [
				{
					"attributes":
					{
						"POSITION": 1,
						"NORMAL": 2,
						"TANGENT": 3,
						"TEXCOORD_0": 4,
						"TEXCOORD_1": 5
					},
					"indices": 0,
					"material": 0
				},
				{
					"attributes":
					{
						"POSITION": 7,
						"NORMAL": 8,
						"TANGENT": 9,
						"TEXCOORD_0": 10,
						"TEXCOORD_1": 11
					},
					"indices": 6,
					"material": 1
				}
			]
		}
	],
	"nodes": [
		{
			"mesh": 0
		}
	],
	"samplers": [
		{
			"minFilter": 9987,
			"magFilter": 9729
		}
	],
	"scenes": [
		{
			"nodes": [ 0 ]
		}
	],
	"textures": [
		{
			"name": "MI_Prop_01_BaseColor",
			"sampler": 0,
			"source": 0
		},
		{
			"name": "MI_Cloth_01_BaseColor",
			"sampler": 0,
			"source": 0
		}
	]
}