{
	"asset":
	{
		"version": "2.0",
		"generator": "Unreal Engine 5.6.1"
	},
	"scene": 0,
	"accessors": [
		{
			"bufferView": 0,
			"count": 513,
			"type": "SCALAR",
			"componentType": 5123
		},
		{
			"bufferView": 1,
			"count": 472,
			"type": "VEC3",
			"componentType": 5126,
			"min": [ -0.137234583, -0.0416000038, -0.171377152 ],
			"max": [ 0.161437884, 0.815886259, 0.173179835 ]
		},
		{
			"bufferView": 2,
			"count": 472,
			"type": "VEC3",
			"componentType": 5126
		},
		{
			"bufferView": 3,
			"count": 472,
			"type": "VEC4",
			"componentType": 5126
		},
		{
			"bufferView": 4,
			"count": 472,
			"type": "VEC2",
			"componentType": 5126
		},
		{
			"bufferView": 5,
			"count": 472,
			"type": "VEC2",
			"componentType": 5126
		}
	],
	"buffers": [
		{
			"uri": "SM_Mace_01.bin",
			"byteLength": 27460
		}
	],
	"bufferViews": [
		{
			"buffer": 0,
			"byteLength": 1026,
			"target": 34963
		},
		{
			"buffer": 0,
			"byteLength": 5664,
			"byteOffset": 1028,
			"target": 34962
		},
		{
			"buffer": 0,
			"byteLength": 5664,
			"byteOffset": 6692,
			"target": 34962
		},
		{
			"buffer": 0,
			"byteLength": 7552,
			"byteOffset": 12356,
			"target": 34962
		},
		{
			"buffer": 0,
			"byteLength": 3776,
			"byteOffset": 19908,
			"target": 34962
		},
		{
			"buffer": 0,
			"byteLength": 3776,
			"byteOffset": 23684,
			"target": 34962
		}
	],
	"materials": [
		{
			"name": "MI_Prop_01",
			"pbrMetallicRoughness":
			{
				"metallicFactor": 0,
				"roughnessFactor": 0.5
			}
		}
	],
	"meshes": [
		{
			"name": "SM_Mace_01",
			"primitives": [
				{
					"attributes":
					{
						"POSITION": 1,
						"NORMAL": 2,
						"TANGENT": 3,
						"TEXCOORD_0": 4,
						"TEXCOORD_1": 5
					},
					"indices": 0,
					"material": 0
				}
			]
		}
	],
	"nodes": [
		{
			"mesh": 0
		}
	],
	"scenes": [
		{
			"nodes": [ 0 ]
		}
	]
}