{
	"asset":
	{
		"version": "2.0",
		"generator": "Unreal Engine 5.6.1"
	},
	"scene": 0,
	"accessors": [
		{
			"bufferView": 0,
			"count": 408,
			"type": "SCALAR",
			"componentType": 5123
		},
		{
			"bufferView": 1,
			"count": 388,
			"type": "VEC3",
			"componentType": 5126,
			"min": [ -0.114887759, -0.17497389, -0.0216761176 ],
			"max": [ 0.115784392, 1.01774073, 0.0216625892 ]
		},
		{
			"bufferView": 2,
			"count": 388,
			"type": "VEC3",
			"componentType": 5126
		},
		{
			"bufferView": 3,
			"count": 388,
			"type": "VEC4",
			"componentType": 5126
		},
		{
			"bufferView": 4,
			"count": 388,
			"type": "VEC2",
			"componentType": 5126
		},
		{
			"bufferView": 5,
			"count": 388,
			"type": "VEC2",
			"componentType": 5126
		}
	],
	"buffers": [
		{
			"uri": "SM_Sword_01.bin",
			"byteLength": 22544
		}
	],
	"bufferViews": [
		{
			"buffer": 0,
			"byteLength": 816,
			"target": 34963
		},
		{
			"buffer": 0,
			"byteLength": 4656,
			"byteOffset": 816,
			"target": 34962
		},
		{
			"buffer": 0,
			"byteLength": 4656,
			"byteOffset": 5472,
			"target": 34962
		},
		{
			"buffer": 0,
			"byteLength": 6208,
			"byteOffset": 10128,
			"target": 34962
		},
		{
			"buffer": 0,
			"byteLength": 3104,
			"byteOffset": 16336,
			"target": 34962
		},
		{
			"buffer": 0,
			"byteLength": 3104,
			"byteOffset": 19440,
			"target": 34962
		}
	],
	"materials": [
		{
			"name": "MI_Prop_01",
			"pbrMetallicRoughness":
			{
				"metallicFactor": 0,
				"roughnessFactor": 0.5
			}
		}
	],
	"meshes": [
		{
			"name": "SM_Sword_01",
			"primitives": [
				{
					"attributes":
					{
						"POSITION": 1,
						"NORMAL": 2,
						"TANGENT": 3,
						"TEXCOORD_0": 4,
						"TEXCOORD_1": 5
					},
					"indices": 0,
					"material": 0
				}
			]
		}
	],
	"nodes": [
		{
			"mesh": 0
		}
	],
	"scenes": [
		{
			"nodes": [ 0 ]
		}
	]
}