{
	"asset":
	{
		"version": "2.0",
		"generator": "Unreal Engine 5.6.1"
	},
	"scene": 0,
	"accessors": [
		{
			"bufferView": 0,
			"count": 1092,
			"type": "SCALAR",
			"componentType": 5123
		},
		{
			"bufferView": 1,
			"count": 732,
			"type": "VEC3",
			"componentType": 5126,
			"min": [ -1.55733061, -1.44550711e-07, -0.60719192 ],
			"max": [ 1.55387998, 0.801866651, 0.602031291 ]
		},
		{
			"bufferView": 2,
			"count": 732,
			"type": "VEC3",
			"componentType": 5126
		},
		{
			"bufferView": 3,
			"count": 732,
			"type": "VEC4",
			"componentType": 5126
		},
		{
			"bufferView": 4,
			"count": 732,
			"type": "VEC2",
			"componentType": 5126
		},
		{
			"bufferView": 5,
			"count": 732,
			"type": "VEC2",
			"componentType": 5126
		}
	],
	"buffers": [
		{
			"uri": "SM_Table_01.bin",
			"byteLength": 43176
		}
	],
	"bufferViews": [
		{
			"buffer": 0,
			"byteLength": 2184,
			"target": 34963
		},
		{
			"buffer": 0,
			"byteLength": 8784,
			"byteOffset": 2184,
			"target": 34962
		},
		{
			"buffer": 0,
			"byteLength": 8784,
			"byteOffset": 10968,
			"target": 34962
		},
		{
			"buffer": 0,
			"byteLength": 11712,
			"byteOffset": 19752,
			"target": 34962
		},
		{
			"buffer": 0,
			"byteLength": 5856,
			"byteOffset": 31464,
			"target": 34962
		},
		{
			"buffer": 0,
			"byteLength": 5856,
			"byteOffset": 37320,
			"target": 34962
		}
	],
	"images": [
		{
			"uri": "MI_Prop_01_BaseColor.png"
		}
	],
	"materials": [
		{
			"name": "MI_Prop_01",
			"pbrMetallicRoughness":
			{
				"baseColorTexture":
				{
					"index": 0
				},
				"metallicFactor": 0,
				"roughnessFactor": 0.5
			}
		}
	],
	"meshes": [
		{
			"name": "SM_Table_01",
			"primitives": [
				{
					"attributes":
					{
						"POSITION": 1,
						"NORMAL": 2,
						"TANGENT": 3,
						"TEXCOORD_0": 4,
						"TEXCOORD_1": 5
					},
					"indices": 0,
					"material": 0
				}
			]
		}
	],
	"nodes": [
		{
			"mesh": 0
		}
	],
	"samplers": [
		{
			"minFilter": 9987,
			"magFilter": 9729
		}
	],
	"scenes": [
		{
			"nodes": [ 0 ]
		}
	],
	"textures": [
		{
			"name": "MI_Prop_01_BaseColor",
			"sampler": 0,
			"source": 0
		}
	]
}