{
	"asset":
	{
		"version": "2.0",
		"generator": "Unreal Engine 5.6.1"
	},
	"scene": 0,
	"accessors": [
		{
			"bufferView": 0,
			"count": 2868,
			"type": "SCALAR",
			"componentType": 5123
		},
		{
			"bufferView": 1,
			"count": 1912,
			"type": "VEC3",
			"componentType": 5126,
			"min": [ -6.00768805, -0.00620902982, -0.453368932 ],
			"max": [ 5.97884321, 4.69083548, 0.456322253 ]
		},
		{
			"bufferView": 2,
			"count": 1912,
			"type": "VEC3",
			"componentType": 5126
		},
		{
			"bufferView": 3,
			"count": 1912,
			"type": "VEC4",
			"componentType": 5126
		},
		{
			"bufferView": 4,
			"count": 1912,
			"type": "VEC2",
			"componentType": 5126
		},
		{
			"bufferView": 5,
			"count": 1912,
			"type": "VEC2",
			"componentType": 5126
		}
	],
	"buffers": [
		{
			"uri": "tower_and_castle_walls_1_B4BB0D62.bin",
			"byteLength": 112808
		}
	],
	"bufferViews": [
		{
			"buffer": 0,
			"byteLength": 5736,
			"target": 34963
		},
		{
			"buffer": 0,
			"byteLength": 22944,
			"byteOffset": 5736,
			"target": 34962
		},
		{
			"buffer": 0,
			"byteLength": 22944,
			"byteOffset": 28680,
			"target": 34962
		},
		{
			"buffer": 0,
			"byteLength": 30592,
			"byteOffset": 51624,
			"target": 34962
		},
		{
			"buffer": 0,
			"byteLength": 15296,
			"byteOffset": 82216,
			"target": 34962
		},
		{
			"buffer": 0,
			"byteLength": 15296,
			"byteOffset": 97512,
			"target": 34962
		}
	],
	"materials": [
		{
			"name": "Wall",
			"pbrMetallicRoughness":
			{
			},
			"doubleSided": true
		}
	],
	"meshes": [
		{
			"name": "tower_and_castle_walls_1_B4BB0D62",
			"primitives": [
				{
					"attributes":
					{
						"POSITION": 1,
						"NORMAL": 2,
						"TANGENT": 3,
						"TEXCOORD_0": 4,
						"TEXCOORD_1": 5
					},
					"indices": 0,
					"material": 0
				}
			]
		}
	],
	"nodes": [
		{
			"mesh": 0
		}
	],
	"scenes": [
		{
			"nodes": [ 0 ]
		}
	]
}