{
	"asset":
	{
		"version": "2.0",
		"generator": "Unreal Engine 5.6.1"
	},
	"scene": 0,
	"accessors": [
		{
			"bufferView": 0,
			"count": 891,
			"type": "SCALAR",
			"componentType": 5123
		},
		{
			"bufferView": 1,
			"count": 303,
			"type": "VEC3",
			"componentType": 5126,
			"min": [ -3.37790632, -0.180196181, -3.37551022 ],
			"max": [ 3.3926928, 0.18009907, 3.37812185 ]
		},
		{
			"bufferView": 2,
			"count": 303,
			"type": "VEC3",
			"componentType": 5126
		},
		{
			"bufferView": 3,
			"count": 303,
			"type": "VEC4",
			"componentType": 5126
		},
		{
			"bufferView": 4,
			"count": 303,
			"type": "VEC2",
			"componentType": 5126
		},
		{
			"bufferView": 5,
			"count": 303,
			"type": "VEC2",
			"componentType": 5126
		},
		{
			"bufferView": 6,
			"count": 729,
			"type": "SCALAR",
			"componentType": 5121
		},
		{
			"bufferView": 7,
			"count": 247,
			"type": "VEC3",
			"componentType": 5126,
			"min": [ -3.37159252, -0.180196181, -3.37551022 ],
			"max": [ 3.37177849, 0.108859852, 3.37812185 ]
		},
		{
			"bufferView": 8,
			"count": 247,
			"type": "VEC3",
			"componentType": 5126
		},
		{
			"bufferView": 9,
			"count": 247,
			"type": "VEC4",
			"componentType": 5126
		},
		{
			"bufferView": 10,
			"count": 247,
			"type": "VEC2",
			"componentType": 5126
		},
		{
			"bufferView": 11,
			"count": 247,
			"type": "VEC2",
			"componentType": 5126
		}
	],
	"buffers": [
		{
			"uri": "SM_round_tower_floor_01.bin",
			"byteLength": 33316
		}
	],
	"bufferViews": [
		{
			"buffer": 0,
			"byteLength": 1782,
			"target": 34963
		},
		{
			"buffer": 0,
			"byteLength": 3636,
			"byteOffset": 1784,
			"target": 34962
		},
		{
			"buffer": 0,
			"byteLength": 3636,
			"byteOffset": 5420,
			"target": 34962
		},
		{
			"buffer": 0,
			"byteLength": 4848,
			"byteOffset": 9056,
			"target": 34962
		},
		{
			"buffer": 0,
			"byteLength": 2424,
			"byteOffset": 13904,
			"target": 34962
		},
		{
			"buffer": 0,
			"byteLength": 2424,
			"byteOffset": 16328,
			"target": 34962
		},
		{
			"buffer": 0,
			"byteLength": 729,
			"byteOffset": 18752,
			"target": 34963
		},
		{
			"buffer": 0,
			"byteLength": 2964,
			"byteOffset": 19484,
			"target": 34962
		},
		{
			"buffer": 0,
			"byteLength": 2964,
			"byteOffset": 22448,
			"target": 34962
		},
		{
			"buffer": 0,
			"byteLength": 3952,
			"byteOffset": 25412,
			"target": 34962
		},
		{
			"buffer": 0,
			"byteLength": 1976,
			"byteOffset": 29364,
			"target": 34962
		},
		{
			"buffer": 0,
			"byteLength": 1976,
			"byteOffset": 31340,
			"target": 34962
		}
	],
	"images": [
		{
			"uri": "MI_Floor_04_BaseColor.png"
		},
		{
			"uri": "MI_Floor_04_MetallicRoughness.png"
		},
		{
			"uri": "MI_Floor_04_Normal.png"
		},
		{
			"uri": "MI_Floor_04_Occlusion.png"
		},
		{
			"uri": "MI_Brick_02_BaseColor.png"
		},
		{
			"uri": "MI_Brick_02_MetallicRoughness.png"
		},
		{
			"uri": "MI_Brick_02_Normal.png"
		},
		{
			"uri": "MI_Brick_02_Occlusion.png"
		}
	],
	"materials": [
		{
			"name": "MI_Floor_04",
			"pbrMetallicRoughness":
			{
				"baseColorTexture":
				{
					"index": 0
				},
				"metallicRoughnessTexture":
				{
					"index": 1
				}
			},
			"normalTexture":
			{
				"index": 2
			},
			"occlusionTexture":
			{
				"index": 3
			}
		},
		{
			"name": "MI_Brick_02",
			"pbrMetallicRoughness":
			{
				"baseColorTexture":
				{
					"index": 4
				},
				"metallicRoughnessTexture":
				{
					"index": 5
				}
			},
			"normalTexture":
			{
				"index": 6
			},
			"occlusionTexture":
			{
				"index": 7
			}
		}
	],
	"meshes": [
		{
			"name": "SM_round_tower_floor_01",
			"primitives": [
				{
					"attributes":
					{
						"POSITION": 1,
						"NORMAL": 2,
						"TANGENT": 3,
						"TEXCOORD_0": 4,
						"TEXCOORD_1": 5
					},
					"indices": 0,
					"material": 0
				},
				{
					"attributes":
					{
						"POSITION": 7,
						"NORMAL": 8,
						"TANGENT": 9,
						"TEXCOORD_0": 10,
						"TEXCOORD_1": 11
					},
					"indices": 6,
					"material": 1
				}
			]
		}
	],
	"nodes": [
		{
			"mesh": 0
		}
	],
	"samplers": [
		{
			"minFilter": 9987,
			"magFilter": 9729
		}
	],
	"scenes": [
		{
			"nodes": [ 0 ]
		}
	],
	"textures": [
		{
			"name": "MI_Floor_04_BaseColor",
			"sampler": 0,
			"source": 0
		},
		{
			"name": "MI_Floor_04_MetallicRoughness",
			"sampler": 0,
			"source": 1
		},
		{
			"name": "MI_Floor_04_Normal",
			"sampler": 0,
			"source": 2
		},
		{
			"name": "MI_Floor_04_Occlusion",
			"sampler": 0,
			"source": 3
		},
		{
			"name": "MI_Brick_02_BaseColor",
			"sampler": 0,
			"source": 4
		},
		{
			"name": "MI_Brick_02_MetallicRoughness",
			"sampler": 0,
			"source": 5
		},
		{
			"name": "MI_Brick_02_Normal",
			"sampler": 0,
			"source": 6
		},
		{
			"name": "MI_Brick_02_Occlusion",
			"sampler": 0,
			"source": 7
		}
	]
}