{
	"asset":
	{
		"version": "2.0",
		"generator": "Unreal Engine 5.6.1"
	},
	"scene": 0,
	"accessors": [
		{
			"bufferView": 0,
			"count": 11904,
			"type": "SCALAR",
			"componentType": 5123
		},
		{
			"bufferView": 1,
			"count": 2208,
			"type": "VEC3",
			"componentType": 5126,
			"min": [ -40.9599991, -40.9599991, -40.9599991 ],
			"max": [ 40.9599991, 40.9599991, 40.9599991 ]
		},
		{
			"bufferView": 2,
			"count": 2208,
			"type": "VEC3",
			"componentType": 5126
		},
		{
			"bufferView": 3,
			"count": 2208,
			"type": "VEC4",
			"componentType": 5126
		},
		{
			"bufferView": 4,
			"count": 2208,
			"type": "VEC2",
			"componentType": 5126
		},
		{
			"bufferView": 5,
			"count": 2208,
			"type": "VEC2",
			"componentType": 5126
		}
	],
	"buffers": [
		{
			"uri": "SM_SkySphere.bin",
			"byteLength": 147456
		}
	],
	"bufferViews": [
		{
			"buffer": 0,
			"byteLength": 23808,
			"target": 34963
		},
		{
			"buffer": 0,
			"byteLength": 26496,
			"byteOffset": 23808,
			"target": 34962
		},
		{
			"buffer": 0,
			"byteLength": 26496,
			"byteOffset": 50304,
			"target": 34962
		},
		{
			"buffer": 0,
			"byteLength": 35328,
			"byteOffset": 76800,
			"target": 34962
		},
		{
			"buffer": 0,
			"byteLength": 17664,
			"byteOffset": 112128,
			"target": 34962
		},
		{
			"buffer": 0,
			"byteLength": 17664,
			"byteOffset": 129792,
			"target": 34962
		}
	],
	"images": [
		{
			"uri": "M_Sky_Panning_Clouds2_SM_SkySphere_Emissive.png"
		}
	],
	"materials": [
		{
			"name": "M_Sky_Panning_Clouds2_SM_SkySphere",
			"pbrMetallicRoughness":
			{
				"baseColorFactor": [ 0, 0, 0, 1 ],
				"metallicFactor": 0,
				"roughnessFactor": 0.5
			},
			"emissiveTexture":
			{
				"index": 0,
				"texCoord": 1
			},
			"emissiveFactor": [ 1, 1, 1 ]
		}
	],
	"meshes": [
		{
			"name": "SM_SkySphere",
			"primitives": [
				{
					"attributes":
					{
						"POSITION": 1,
						"NORMAL": 2,
						"TANGENT": 3,
						"TEXCOORD_0": 4,
						"TEXCOORD_1": 5
					},
					"indices": 0,
					"material": 0
				}
			]
		}
	],
	"nodes": [
		{
			"mesh": 0
		}
	],
	"samplers": [
		{
			"minFilter": 9987,
			"magFilter": 9729
		}
	],
	"scenes": [
		{
			"nodes": [ 0 ]
		}
	],
	"textures": [
		{
			"name": "M_Sky_Panning_Clouds2_SM_SkySphere_Emissive",
			"sampler": 0,
			"source": 0
		}
	]
}