{
	"asset":
	{
		"version": "2.0",
		"generator": "Unreal Engine 5.6.1"
	},
	"scene": 0,
	"accessors": [
		{
			"bufferView": 0,
			"count": 42,
			"type": "SCALAR",
			"componentType": 5121
		},
		{
			"bufferView": 1,
			"count": 28,
			"type": "VEC3",
			"componentType": 5126,
			"min": [ -0.399026752, -0.00511085521, -0.415929139 ],
			"max": [ 0.399026781, 0.476678759, 0.415929168 ]
		},
		{
			"bufferView": 2,
			"count": 28,
			"type": "VEC3",
			"componentType": 5126
		},
		{
			"bufferView": 3,
			"count": 28,
			"type": "VEC4",
			"componentType": 5126
		},
		{
			"bufferView": 4,
			"count": 28,
			"type": "VEC2",
			"componentType": 5126
		},
		{
			"bufferView": 5,
			"count": 28,
			"type": "VEC2",
			"componentType": 5126
		}
	],
	"buffers": [
		{
			"uri": "SM_Dead_grass_01.bin",
			"byteLength": 1612
		}
	],
	"bufferViews": [
		{
			"buffer": 0,
			"byteLength": 42,
			"target": 34963
		},
		{
			"buffer": 0,
			"byteLength": 336,
			"byteOffset": 44,
			"target": 34962
		},
		{
			"buffer": 0,
			"byteLength": 336,
			"byteOffset": 380,
			"target": 34962
		},
		{
			"buffer": 0,
			"byteLength": 448,
			"byteOffset": 716,
			"target": 34962
		},
		{
			"buffer": 0,
			"byteLength": 224,
			"byteOffset": 1164,
			"target": 34962
		},
		{
			"buffer": 0,
			"byteLength": 224,
			"byteOffset": 1388,
			"target": 34962
		}
	],
	"images": [
		{
			"uri": "MI_Grass_03_SM_Dead_grass_01_BaseColor.png"
		}
	],
	"materials": [
		{
			"name": "MI_Grass_03_SM_Dead_grass_01",
			"pbrMetallicRoughness":
			{
				"baseColorTexture":
				{
					"index": 0,
					"texCoord": 1,
					"extensions":
					{
						"KHR_texture_transform":
						{
							"offset": [ -0.00849794596, -0.00849794596 ],
							"scale": [ 1.05377746, 1.05377746 ]
						}
					}
				},
				"metallicFactor": 0
			},
			"alphaMode": "MASK",
			"alphaCutoff": 0.333299994,
			"doubleSided": true
		}
	],
	"meshes": [
		{
			"name": "SM_Dead_grass_01",
			"primitives": [
				{
					"attributes":
					{
						"POSITION": 1,
						"NORMAL": 2,
						"TANGENT": 3,
						"TEXCOORD_0": 4,
						"TEXCOORD_1": 5
					},
					"indices": 0,
					"material": 0
				}
			]
		}
	],
	"nodes": [
		{
			"mesh": 0
		}
	],
	"samplers": [
		{
			"minFilter": 9987,
			"magFilter": 9729
		}
	],
	"scenes": [
		{
			"nodes": [ 0 ]
		}
	],
	"textures": [
		{
			"name": "MI_Grass_03_SM_Dead_grass_01_BaseColor",
			"sampler": 0,
			"source": 0
		}
	],
	"extensionsUsed": [
		"KHR_texture_transform"
	]
}