{
	"asset":
	{
		"version": "2.0",
		"generator": "Unreal Engine 5.6.1"
	},
	"scene": 0,
	"accessors": [
		{
			"bufferView": 0,
			"count": 50,
			"type": "MAT4",
			"componentType": 5126
		},
		{
			"bufferView": 1,
			"count": 101,
			"type": "SCALAR",
			"componentType": 5126,
			"min": [ 0 ],
			"max": [ 3.33333302 ]
		},
		{
			"bufferView": 2,
			"count": 101,
			"type": "VEC3",
			"componentType": 5126
		},
		{
			"bufferView": 3,
			"count": 101,
			"type": "VEC4",
			"componentType": 5126
		},
		{
			"bufferView": 4,
			"count": 101,
			"type": "VEC3",
			"componentType": 5126
		},
		{
			"bufferView": 5,
			"count": 101,
			"type": "VEC3",
			"componentType": 5126
		},
		{
			"bufferView": 6,
			"count": 101,
			"type": "VEC4",
			"componentType": 5126
		},
		{
			"bufferView": 7,
			"count": 101,
			"type": "VEC3",
			"componentType": 5126
		},
		{
			"bufferView": 8,
			"count": 101,
			"type": "VEC3",
			"componentType": 5126
		},
		{
			"bufferView": 9,
			"count": 101,
			"type": "VEC4",
			"componentType": 5126
		},
		{
			"bufferView": 10,
			"count": 101,
			"type": "VEC3",
			"componentType": 5126
		},
		{
			"bufferView": 11,
			"count": 101,
			"type": "VEC3",
			"componentType": 5126
		},
		{
			"bufferView": 12,
			"count": 101,
			"type": "VEC4",
			"componentType": 5126
		},
		{
			"bufferView": 13,
			"count": 101,
			"type": "VEC3",
			"componentType": 5126
		},
		{
			"bufferView": 14,
			"count": 101,
			"type": "VEC3",
			"componentType": 5126
		},
		{
			"bufferView": 15,
			"count": 101,
			"type": "VEC4",
			"componentType": 5126
		},
		{
			"bufferView": 16,
			"count": 101,
			"type": "VEC3",
			"componentType": 5126
		},
		{
			"bufferView": 17,
			"count": 101,
			"type": "VEC3",
			"componentType": 5126
		},
		{
			"bufferView": 18,
			"count": 101,
			"type": "VEC4",
			"componentType": 5126
		},
		{
			"bufferView": 19,
			"count": 101,
			"type": "VEC3",
			"componentType": 5126
		},
		{
			"bufferView": 20,
			"count": 101,
			"type": "VEC3",
			"componentType": 5126
		},
		{
			"bufferView": 21,
			"count": 101,
			"type": "VEC4",
			"componentType": 5126
		},
		{
			"bufferView": 22,
			"count": 101,
			"type": "VEC3",
			"componentType": 5126
		},
		{
			"bufferView": 23,
			"count": 101,
			"type": "VEC3",
			"componentType": 5126
		},
		{
			"bufferView": 24,
			"count": 101,
			"type": "VEC4",
			"componentType": 5126
		},
		{
			"bufferView": 25,
			"count": 101,
			"type": "VEC3",
			"componentType": 5126
		},
		{
			"bufferView": 26,
			"count": 101,
			"type": "VEC3",
			"componentType": 5126
		},
		{
			"bufferView": 27,
			"count": 101,
			"type": "VEC4",
			"componentType": 5126
		},
		{
			"bufferView": 28,
			"count": 101,
			"type": "VEC3",
			"componentType": 5126
		},
		{
			"bufferView": 29,
			"count": 101,
			"type": "VEC3",
			"componentType": 5126
		},
		{
			"bufferView": 30,
			"count": 101,
			"type": "VEC4",
			"componentType": 5126
		},
		{
			"bufferView": 31,
			"count": 101,
			"type": "VEC3",
			"componentType": 5126
		},
		{
			"bufferView": 32,
			"count": 101,
			"type": "VEC3",
			"componentType": 5126
		},
		{
			"bufferView": 33,
			"count": 101,
			"type": "VEC4",
			"componentType": 5126
		},
		{
			"bufferView": 34,
			"count": 101,
			"type": "VEC3",
			"componentType": 5126
		},
		{
			"bufferView": 35,
			"count": 101,
			"type": "VEC3",
			"componentType": 5126
		},
		{
			"bufferView": 36,
			"count": 101,
			"type": "VEC4",
			"componentType": 5126
		},
		{
			"bufferView": 37,
			"count": 101,
			"type": "VEC3",
			"componentType": 5126
		},
		{
			"bufferView": 38,
			"count": 101,
			"type": "VEC3",
			"componentType": 5126
		},
		{
			"bufferView": 39,
			"count": 101,
			"type": "VEC4",
			"componentType": 5126
		},
		{
			"bufferView": 40,
			"count": 101,
			"type": "VEC3",
			"componentType": 5126
		},
		{
			"bufferView": 41,
			"count": 101,
			"type": "VEC3",
			"componentType": 5126
		},
		{
			"bufferView": 42,
			"count": 101,
			"type": "VEC4",
			"componentType": 5126
		},
		{
			"bufferView": 43,
			"count": 101,
			"type": "VEC3",
			"componentType": 5126
		},
		{
			"bufferView": 44,
			"count": 101,
			"type": "VEC3",
			"componentType": 5126
		},
		{
			"bufferView": 45,
			"count": 101,
			"type": "VEC4",
			"componentType": 5126
		},
		{
			"bufferView": 46,
			"count": 101,
			"type": "VEC3",
			"componentType": 5126
		},
		{
			"bufferView": 47,
			"count": 101,
			"type": "VEC3",
			"componentType": 5126
		},
		{
			"bufferView": 48,
			"count": 101,
			"type": "VEC4",
			"componentType": 5126
		},
		{
			"bufferView": 49,
			"count": 101,
			"type": "VEC3",
			"componentType": 5126
		},
		{
			"bufferView": 50,
			"count": 101,
			"type": "VEC3",
			"componentType": 5126
		},
		{
			"bufferView": 51,
			"count": 101,
			"type": "VEC4",
			"componentType": 5126
		},
		{
			"bufferView": 52,
			"count": 101,
			"type": "VEC3",
			"componentType": 5126
		},
		{
			"bufferView": 53,
			"count": 101,
			"type": "VEC3",
			"componentType": 5126
		},
		{
			"bufferView": 54,
			"count": 101,
			"type": "VEC4",
			"componentType": 5126
		},
		{
			"bufferView": 55,
			"count": 101,
			"type": "VEC3",
			"componentType": 5126
		},
		{
			"bufferView": 56,
			"count": 101,
			"type": "VEC3",
			"componentType": 5126
		},
		{
			"bufferView": 57,
			"count": 101,
			"type": "VEC4",
			"componentType": 5126
		},
		{
			"bufferView": 58,
			"count": 101,
			"type": "VEC3",
			"componentType": 5126
		},
		{
			"bufferView": 59,
			"count": 101,
			"type": "VEC3",
			"componentType": 5126
		},
		{
			"bufferView": 60,
			"count": 101,
			"type": "VEC4",
			"componentType": 5126
		},
		{
			"bufferView": 61,
			"count": 101,
			"type": "VEC3",
			"componentType": 5126
		},
		{
			"bufferView": 62,
			"count": 101,
			"type": "VEC3",
			"componentType": 5126
		},
		{
			"bufferView": 63,
			"count": 101,
			"type": "VEC4",
			"componentType": 5126
		},
		{
			"bufferView": 64,
			"count": 101,
			"type": "VEC3",
			"componentType": 5126
		},
		{
			"bufferView": 65,
			"count": 101,
			"type": "VEC3",
			"componentType": 5126
		},
		{
			"bufferView": 66,
			"count": 101,
			"type": "VEC4",
			"componentType": 5126
		},
		{
			"bufferView": 67,
			"count": 101,
			"type": "VEC3",
			"componentType": 5126
		},
		{
			"bufferView": 68,
			"count": 101,
			"type": "VEC3",
			"componentType": 5126
		},
		{
			"bufferView": 69,
			"count": 101,
			"type": "VEC4",
			"componentType": 5126
		},
		{
			"bufferView": 70,
			"count": 101,
			"type": "VEC3",
			"componentType": 5126
		},
		{
			"bufferView": 71,
			"count": 101,
			"type": "VEC3",
			"componentType": 5126
		},
		{
			"bufferView": 72,
			"count": 101,
			"type": "VEC4",
			"componentType": 5126
		},
		{
			"bufferView": 73,
			"count": 101,
			"type": "VEC3",
			"componentType": 5126
		},
		{
			"bufferView": 74,
			"count": 101,
			"type": "VEC3",
			"componentType": 5126
		},
		{
			"bufferView": 75,
			"count": 101,
			"type": "VEC4",
			"componentType": 5126
		},
		{
			"bufferView": 76,
			"count": 101,
			"type": "VEC3",
			"componentType": 5126
		},
		{
			"bufferView": 77,
			"count": 101,
			"type": "VEC3",
			"componentType": 5126
		},
		{
			"bufferView": 78,
			"count": 101,
			"type": "VEC4",
			"componentType": 5126
		},
		{
			"bufferView": 79,
			"count": 101,
			"type": "VEC3",
			"componentType": 5126
		},
		{
			"bufferView": 80,
			"count": 101,
			"type": "VEC3",
			"componentType": 5126
		},
		{
			"bufferView": 81,
			"count": 101,
			"type": "VEC4",
			"componentType": 5126
		},
		{
			"bufferView": 82,
			"count": 101,
			"type": "VEC3",
			"componentType": 5126
		},
		{
			"bufferView": 83,
			"count": 101,
			"type": "VEC3",
			"componentType": 5126
		},
		{
			"bufferView": 84,
			"count": 101,
			"type": "VEC4",
			"componentType": 5126
		},
		{
			"bufferView": 85,
			"count": 101,
			"type": "VEC3",
			"componentType": 5126
		},
		{
			"bufferView": 86,
			"count": 101,
			"type": "VEC3",
			"componentType": 5126
		},
		{
			"bufferView": 87,
			"count": 101,
			"type": "VEC4",
			"componentType": 5126
		},
		{
			"bufferView": 88,
			"count": 101,
			"type": "VEC3",
			"componentType": 5126
		},
		{
			"bufferView": 89,
			"count": 101,
			"type": "VEC3",
			"componentType": 5126
		},
		{
			"bufferView": 90,
			"count": 101,
			"type": "VEC4",
			"componentType": 5126
		},
		{
			"bufferView": 91,
			"count": 101,
			"type": "VEC3",
			"componentType": 5126
		},
		{
			"bufferView": 92,
			"count": 101,
			"type": "VEC3",
			"componentType": 5126
		},
		{
			"bufferView": 93,
			"count": 101,
			"type": "VEC4",
			"componentType": 5126
		},
		{
			"bufferView": 94,
			"count": 101,
			"type": "VEC3",
			"componentType": 5126
		},
		{
			"bufferView": 95,
			"count": 101,
			"type": "VEC3",
			"componentType": 5126
		},
		{
			"bufferView": 96,
			"count": 101,
			"type": "VEC4",
			"componentType": 5126
		},
		{
			"bufferView": 97,
			"count": 101,
			"type": "VEC3",
			"componentType": 5126
		},
		{
			"bufferView": 98,
			"count": 101,
			"type": "VEC3",
			"componentType": 5126
		},
		{
			"bufferView": 99,
			"count": 101,
			"type": "VEC4",
			"componentType": 5126
		},
		{
			"bufferView": 100,
			"count": 101,
			"type": "VEC3",
			"componentType": 5126
		},
		{
			"bufferView": 101,
			"count": 101,
			"type": "VEC3",
			"componentType": 5126
		},
		{
			"bufferView": 102,
			"count": 101,
			"type": "VEC4",
			"componentType": 5126
		},
		{
			"bufferView": 103,
			"count": 101,
			"type": "VEC3",
			"componentType": 5126
		},
		{
			"bufferView": 104,
			"count": 101,
			"type": "VEC3",
			"componentType": 5126
		},
		{
			"bufferView": 105,
			"count": 101,
			"type": "VEC4",
			"componentType": 5126
		},
		{
			"bufferView": 106,
			"count": 101,
			"type": "VEC3",
			"componentType": 5126
		},
		{
			"bufferView": 107,
			"count": 101,
			"type": "VEC3",
			"componentType": 5126
		},
		{
			"bufferView": 108,
			"count": 101,
			"type": "VEC4",
			"componentType": 5126
		},
		{
			"bufferView": 109,
			"count": 101,
			"type": "VEC3",
			"componentType": 5126
		},
		{
			"bufferView": 110,
			"count": 101,
			"type": "VEC3",
			"componentType": 5126
		},
		{
			"bufferView": 111,
			"count": 101,
			"type": "VEC4",
			"componentType": 5126
		},
		{
			"bufferView": 112,
			"count": 101,
			"type": "VEC3",
			"componentType": 5126
		},
		{
			"bufferView": 113,
			"count": 101,
			"type": "VEC3",
			"componentType": 5126
		},
		{
			"bufferView": 114,
			"count": 101,
			"type": "VEC4",
			"componentType": 5126
		},
		{
			"bufferView": 115,
			"count": 101,
			"type": "VEC3",
			"componentType": 5126
		},
		{
			"bufferView": 116,
			"count": 101,
			"type": "VEC3",
			"componentType": 5126
		},
		{
			"bufferView": 117,
			"count": 101,
			"type": "VEC4",
			"componentType": 5126
		},
		{
			"bufferView": 118,
			"count": 101,
			"type": "VEC3",
			"componentType": 5126
		},
		{
			"bufferView": 119,
			"count": 101,
			"type": "VEC3",
			"componentType": 5126
		},
		{
			"bufferView": 120,
			"count": 101,
			"type": "VEC4",
			"componentType": 5126
		},
		{
			"bufferView": 121,
			"count": 101,
			"type": "VEC3",
			"componentType": 5126
		},
		{
			"bufferView": 122,
			"count": 101,
			"type": "VEC3",
			"componentType": 5126
		},
		{
			"bufferView": 123,
			"count": 101,
			"type": "VEC4",
			"componentType": 5126
		},
		{
			"bufferView": 124,
			"count": 101,
			"type": "VEC3",
			"componentType": 5126
		},
		{
			"bufferView": 125,
			"count": 101,
			"type": "VEC3",
			"componentType": 5126
		},
		{
			"bufferView": 126,
			"count": 101,
			"type": "VEC4",
			"componentType": 5126
		},
		{
			"bufferView": 127,
			"count": 101,
			"type": "VEC3",
			"componentType": 5126
		},
		{
			"bufferView": 128,
			"count": 101,
			"type": "VEC3",
			"componentType": 5126
		},
		{
			"bufferView": 129,
			"count": 101,
			"type": "VEC4",
			"componentType": 5126
		},
		{
			"bufferView": 130,
			"count": 101,
			"type": "VEC3",
			"componentType": 5126
		},
		{
			"bufferView": 131,
			"count": 101,
			"type": "VEC3",
			"componentType": 5126
		},
		{
			"bufferView": 132,
			"count": 101,
			"type": "VEC4",
			"componentType": 5126
		},
		{
			"bufferView": 133,
			"count": 101,
			"type": "VEC3",
			"componentType": 5126
		},
		{
			"bufferView": 134,
			"count": 101,
			"type": "VEC3",
			"componentType": 5126
		},
		{
			"bufferView": 135,
			"count": 101,
			"type": "VEC4",
			"componentType": 5126
		},
		{
			"bufferView": 136,
			"count": 101,
			"type": "VEC3",
			"componentType": 5126
		},
		{
			"bufferView": 137,
			"count": 101,
			"type": "VEC3",
			"componentType": 5126
		},
		{
			"bufferView": 138,
			"count": 101,
			"type": "VEC4",
			"componentType": 5126
		},
		{
			"bufferView": 139,
			"count": 101,
			"type": "VEC3",
			"componentType": 5126
		},
		{
			"bufferView": 140,
			"count": 101,
			"type": "VEC3",
			"componentType": 5126
		},
		{
			"bufferView": 141,
			"count": 101,
			"type": "VEC4",
			"componentType": 5126
		},
		{
			"bufferView": 142,
			"count": 101,
			"type": "VEC3",
			"componentType": 5126
		},
		{
			"bufferView": 143,
			"count": 101,
			"type": "VEC3",
			"componentType": 5126
		},
		{
			"bufferView": 144,
			"count": 101,
			"type": "VEC4",
			"componentType": 5126
		},
		{
			"bufferView": 145,
			"count": 101,
			"type": "VEC3",
			"componentType": 5126
		},
		{
			"bufferView": 146,
			"count": 101,
			"type": "VEC3",
			"componentType": 5126
		},
		{
			"bufferView": 147,
			"count": 101,
			"type": "VEC4",
			"componentType": 5126
		},
		{
			"bufferView": 148,
			"count": 101,
			"type": "VEC3",
			"componentType": 5126
		},
		{
			"bufferView": 149,
			"count": 101,
			"type": "VEC3",
			"componentType": 5126
		},
		{
			"bufferView": 150,
			"count": 101,
			"type": "VEC4",
			"componentType": 5126
		},
		{
			"bufferView": 151,
			"count": 101,
			"type": "VEC3",
			"componentType": 5126
		}
	],
	"animations": [
		{
			"name": "A_BoneGolem_Idle01_0",
			"channels": [
				{
					"sampler": 0,
					"target":
					{
						"node": 1,
						"path": "translation"
					}
				},
				{
					"sampler": 1,
					"target":
					{
						"node": 1,
						"path": "rotation"
					}
				},
				{
					"sampler": 2,
					"target":
					{
						"node": 1,
						"path": "scale"
					}
				},
				{
					"sampler": 3,
					"target":
					{
						"node": 2,
						"path": "translation"
					}
				},
				{
					"sampler": 4,
					"target":
					{
						"node": 2,
						"path": "rotation"
					}
				},
				{
					"sampler": 5,
					"target":
					{
						"node": 2,
						"path": "scale"
					}
				},
				{
					"sampler": 6,
					"target":
					{
						"node": 3,
						"path": "translation"
					}
				},
				{
					"sampler": 7,
					"target":
					{
						"node": 3,
						"path": "rotation"
					}
				},
				{
					"sampler": 8,
					"target":
					{
						"node": 3,
						"path": "scale"
					}
				},
				{
					"sampler": 9,
					"target":
					{
						"node": 4,
						"path": "translation"
					}
				},
				{
					"sampler": 10,
					"target":
					{
						"node": 4,
						"path": "rotation"
					}
				},
				{
					"sampler": 11,
					"target":
					{
						"node": 4,
						"path": "scale"
					}
				},
				{
					"sampler": 12,
					"target":
					{
						"node": 5,
						"path": "translation"
					}
				},
				{
					"sampler": 13,
					"target":
					{
						"node": 5,
						"path": "rotation"
					}
				},
				{
					"sampler": 14,
					"target":
					{
						"node": 5,
						"path": "scale"
					}
				},
				{
					"sampler": 15,
					"target":
					{
						"node": 6,
						"path": "translation"
					}
				},
				{
					"sampler": 16,
					"target":
					{
						"node": 6,
						"path": "rotation"
					}
				},
				{
					"sampler": 17,
					"target":
					{
						"node": 6,
						"path": "scale"
					}
				},
				{
					"sampler": 18,
					"target":
					{
						"node": 7,
						"path": "translation"
					}
				},
				{
					"sampler": 19,
					"target":
					{
						"node": 7,
						"path": "rotation"
					}
				},
				{
					"sampler": 20,
					"target":
					{
						"node": 7,
						"path": "scale"
					}
				},
				{
					"sampler": 21,
					"target":
					{
						"node": 8,
						"path": "translation"
					}
				},
				{
					"sampler": 22,
					"target":
					{
						"node": 8,
						"path": "rotation"
					}
				},
				{
					"sampler": 23,
					"target":
					{
						"node": 8,
						"path": "scale"
					}
				},
				{
					"sampler": 24,
					"target":
					{
						"node": 9,
						"path": "translation"
					}
				},
				{
					"sampler": 25,
					"target":
					{
						"node": 9,
						"path": "rotation"
					}
				},
				{
					"sampler": 26,
					"target":
					{
						"node": 9,
						"path": "scale"
					}
				},
				{
					"sampler": 27,
					"target":
					{
						"node": 10,
						"path": "translation"
					}
				},
				{
					"sampler": 28,
					"target":
					{
						"node": 10,
						"path": "rotation"
					}
				},
				{
					"sampler": 29,
					"target":
					{
						"node": 10,
						"path": "scale"
					}
				},
				{
					"sampler": 30,
					"target":
					{
						"node": 11,
						"path": "translation"
					}
				},
				{
					"sampler": 31,
					"target":
					{
						"node": 11,
						"path": "rotation"
					}
				},
				{
					"sampler": 32,
					"target":
					{
						"node": 11,
						"path": "scale"
					}
				},
				{
					"sampler": 33,
					"target":
					{
						"node": 12,
						"path": "translation"
					}
				},
				{
					"sampler": 34,
					"target":
					{
						"node": 12,
						"path": "rotation"
					}
				},
				{
					"sampler": 35,
					"target":
					{
						"node": 12,
						"path": "scale"
					}
				},
				{
					"sampler": 36,
					"target":
					{
						"node": 13,
						"path": "translation"
					}
				},
				{
					"sampler": 37,
					"target":
					{
						"node": 13,
						"path": "rotation"
					}
				},
				{
					"sampler": 38,
					"target":
					{
						"node": 13,
						"path": "scale"
					}
				},
				{
					"sampler": 39,
					"target":
					{
						"node": 14,
						"path": "translation"
					}
				},
				{
					"sampler": 40,
					"target":
					{
						"node": 14,
						"path": "rotation"
					}
				},
				{
					"sampler": 41,
					"target":
					{
						"node": 14,
						"path": "scale"
					}
				},
				{
					"sampler": 42,
					"target":
					{
						"node": 15,
						"path": "translation"
					}
				},
				{
					"sampler": 43,
					"target":
					{
						"node": 15,
						"path": "rotation"
					}
				},
				{
					"sampler": 44,
					"target":
					{
						"node": 15,
						"path": "scale"
					}
				},
				{
					"sampler": 45,
					"target":
					{
						"node": 16,
						"path": "translation"
					}
				},
				{
					"sampler": 46,
					"target":
					{
						"node": 16,
						"path": "rotation"
					}
				},
				{
					"sampler": 47,
					"target":
					{
						"node": 16,
						"path": "scale"
					}
				},
				{
					"sampler": 48,
					"target":
					{
						"node": 17,
						"path": "translation"
					}
				},
				{
					"sampler": 49,
					"target":
					{
						"node": 17,
						"path": "rotation"
					}
				},
				{
					"sampler": 50,
					"target":
					{
						"node": 17,
						"path": "scale"
					}
				},
				{
					"sampler": 51,
					"target":
					{
						"node": 18,
						"path": "translation"
					}
				},
				{
					"sampler": 52,
					"target":
					{
						"node": 18,
						"path": "rotation"
					}
				},
				{
					"sampler": 53,
					"target":
					{
						"node": 18,
						"path": "scale"
					}
				},
				{
					"sampler": 54,
					"target":
					{
						"node": 19,
						"path": "translation"
					}
				},
				{
					"sampler": 55,
					"target":
					{
						"node": 19,
						"path": "rotation"
					}
				},
				{
					"sampler": 56,
					"target":
					{
						"node": 19,
						"path": "scale"
					}
				},
				{
					"sampler": 57,
					"target":
					{
						"node": 20,
						"path": "translation"
					}
				},
				{
					"sampler": 58,
					"target":
					{
						"node": 20,
						"path": "rotation"
					}
				},
				{
					"sampler": 59,
					"target":
					{
						"node": 20,
						"path": "scale"
					}
				},
				{
					"sampler": 60,
					"target":
					{
						"node": 21,
						"path": "translation"
					}
				},
				{
					"sampler": 61,
					"target":
					{
						"node": 21,
						"path": "rotation"
					}
				},
				{
					"sampler": 62,
					"target":
					{
						"node": 21,
						"path": "scale"
					}
				},
				{
					"sampler": 63,
					"target":
					{
						"node": 22,
						"path": "translation"
					}
				},
				{
					"sampler": 64,
					"target":
					{
						"node": 22,
						"path": "rotation"
					}
				},
				{
					"sampler": 65,
					"target":
					{
						"node": 22,
						"path": "scale"
					}
				},
				{
					"sampler": 66,
					"target":
					{
						"node": 23,
						"path": "translation"
					}
				},
				{
					"sampler": 67,
					"target":
					{
						"node": 23,
						"path": "rotation"
					}
				},
				{
					"sampler": 68,
					"target":
					{
						"node": 23,
						"path": "scale"
					}
				},
				{
					"sampler": 69,
					"target":
					{
						"node": 24,
						"path": "translation"
					}
				},
				{
					"sampler": 70,
					"target":
					{
						"node": 24,
						"path": "rotation"
					}
				},
				{
					"sampler": 71,
					"target":
					{
						"node": 24,
						"path": "scale"
					}
				},
				{
					"sampler": 72,
					"target":
					{
						"node": 25,
						"path": "translation"
					}
				},
				{
					"sampler": 73,
					"target":
					{
						"node": 25,
						"path": "rotation"
					}
				},
				{
					"sampler": 74,
					"target":
					{
						"node": 25,
						"path": "scale"
					}
				},
				{
					"sampler": 75,
					"target":
					{
						"node": 26,
						"path": "translation"
					}
				},
				{
					"sampler": 76,
					"target":
					{
						"node": 26,
						"path": "rotation"
					}
				},
				{
					"sampler": 77,
					"target":
					{
						"node": 26,
						"path": "scale"
					}
				},
				{
					"sampler": 78,
					"target":
					{
						"node": 27,
						"path": "translation"
					}
				},
				{
					"sampler": 79,
					"target":
					{
						"node": 27,
						"path": "rotation"
					}
				},
				{
					"sampler": 80,
					"target":
					{
						"node": 27,
						"path": "scale"
					}
				},
				{
					"sampler": 81,
					"target":
					{
						"node": 28,
						"path": "translation"
					}
				},
				{
					"sampler": 82,
					"target":
					{
						"node": 28,
						"path": "rotation"
					}
				},
				{
					"sampler": 83,
					"target":
					{
						"node": 28,
						"path": "scale"
					}
				},
				{
					"sampler": 84,
					"target":
					{
						"node": 29,
						"path": "translation"
					}
				},
				{
					"sampler": 85,
					"target":
					{
						"node": 29,
						"path": "rotation"
					}
				},
				{
					"sampler": 86,
					"target":
					{
						"node": 29,
						"path": "scale"
					}
				},
				{
					"sampler": 87,
					"target":
					{
						"node": 30,
						"path": "translation"
					}
				},
				{
					"sampler": 88,
					"target":
					{
						"node": 30,
						"path": "rotation"
					}
				},
				{
					"sampler": 89,
					"target":
					{
						"node": 30,
						"path": "scale"
					}
				},
				{
					"sampler": 90,
					"target":
					{
						"node": 31,
						"path": "translation"
					}
				},
				{
					"sampler": 91,
					"target":
					{
						"node": 31,
						"path": "rotation"
					}
				},
				{
					"sampler": 92,
					"target":
					{
						"node": 31,
						"path": "scale"
					}
				},
				{
					"sampler": 93,
					"target":
					{
						"node": 32,
						"path": "translation"
					}
				},
				{
					"sampler": 94,
					"target":
					{
						"node": 32,
						"path": "rotation"
					}
				},
				{
					"sampler": 95,
					"target":
					{
						"node": 32,
						"path": "scale"
					}
				},
				{
					"sampler": 96,
					"target":
					{
						"node": 33,
						"path": "translation"
					}
				},
				{
					"sampler": 97,
					"target":
					{
						"node": 33,
						"path": "rotation"
					}
				},
				{
					"sampler": 98,
					"target":
					{
						"node": 33,
						"path": "scale"
					}
				},
				{
					"sampler": 99,
					"target":
					{
						"node": 34,
						"path": "translation"
					}
				},
				{
					"sampler": 100,
					"target":
					{
						"node": 34,
						"path": "rotation"
					}
				},
				{
					"sampler": 101,
					"target":
					{
						"node": 34,
						"path": "scale"
					}
				},
				{
					"sampler": 102,
					"target":
					{
						"node": 35,
						"path": "translation"
					}
				},
				{
					"sampler": 103,
					"target":
					{
						"node": 35,
						"path": "rotation"
					}
				},
				{
					"sampler": 104,
					"target":
					{
						"node": 35,
						"path": "scale"
					}
				},
				{
					"sampler": 105,
					"target":
					{
						"node": 36,
						"path": "translation"
					}
				},
				{
					"sampler": 106,
					"target":
					{
						"node": 36,
						"path": "rotation"
					}
				},
				{
					"sampler": 107,
					"target":
					{
						"node": 36,
						"path": "scale"
					}
				},
				{
					"sampler": 108,
					"target":
					{
						"node": 37,
						"path": "translation"
					}
				},
				{
					"sampler": 109,
					"target":
					{
						"node": 37,
						"path": "rotation"
					}
				},
				{
					"sampler": 110,
					"target":
					{
						"node": 37,
						"path": "scale"
					}
				},
				{
					"sampler": 111,
					"target":
					{
						"node": 38,
						"path": "translation"
					}
				},
				{
					"sampler": 112,
					"target":
					{
						"node": 38,
						"path": "rotation"
					}
				},
				{
					"sampler": 113,
					"target":
					{
						"node": 38,
						"path": "scale"
					}
				},
				{
					"sampler": 114,
					"target":
					{
						"node": 39,
						"path": "translation"
					}
				},
				{
					"sampler": 115,
					"target":
					{
						"node": 39,
						"path": "rotation"
					}
				},
				{
					"sampler": 116,
					"target":
					{
						"node": 39,
						"path": "scale"
					}
				},
				{
					"sampler": 117,
					"target":
					{
						"node": 40,
						"path": "translation"
					}
				},
				{
					"sampler": 118,
					"target":
					{
						"node": 40,
						"path": "rotation"
					}
				},
				{
					"sampler": 119,
					"target":
					{
						"node": 40,
						"path": "scale"
					}
				},
				{
					"sampler": 120,
					"target":
					{
						"node": 41,
						"path": "translation"
					}
				},
				{
					"sampler": 121,
					"target":
					{
						"node": 41,
						"path": "rotation"
					}
				},
				{
					"sampler": 122,
					"target":
					{
						"node": 41,
						"path": "scale"
					}
				},
				{
					"sampler": 123,
					"target":
					{
						"node": 42,
						"path": "translation"
					}
				},
				{
					"sampler": 124,
					"target":
					{
						"node": 42,
						"path": "rotation"
					}
				},
				{
					"sampler": 125,
					"target":
					{
						"node": 42,
						"path": "scale"
					}
				},
				{
					"sampler": 126,
					"target":
					{
						"node": 43,
						"path": "translation"
					}
				},
				{
					"sampler": 127,
					"target":
					{
						"node": 43,
						"path": "rotation"
					}
				},
				{
					"sampler": 128,
					"target":
					{
						"node": 43,
						"path": "scale"
					}
				},
				{
					"sampler": 129,
					"target":
					{
						"node": 44,
						"path": "translation"
					}
				},
				{
					"sampler": 130,
					"target":
					{
						"node": 44,
						"path": "rotation"
					}
				},
				{
					"sampler": 131,
					"target":
					{
						"node": 44,
						"path": "scale"
					}
				},
				{
					"sampler": 132,
					"target":
					{
						"node": 45,
						"path": "translation"
					}
				},
				{
					"sampler": 133,
					"target":
					{
						"node": 45,
						"path": "rotation"
					}
				},
				{
					"sampler": 134,
					"target":
					{
						"node": 45,
						"path": "scale"
					}
				},
				{
					"sampler": 135,
					"target":
					{
						"node": 46,
						"path": "translation"
					}
				},
				{
					"sampler": 136,
					"target":
					{
						"node": 46,
						"path": "rotation"
					}
				},
				{
					"sampler": 137,
					"target":
					{
						"node": 46,
						"path": "scale"
					}
				},
				{
					"sampler": 138,
					"target":
					{
						"node": 47,
						"path": "translation"
					}
				},
				{
					"sampler": 139,
					"target":
					{
						"node": 47,
						"path": "rotation"
					}
				},
				{
					"sampler": 140,
					"target":
					{
						"node": 47,
						"path": "scale"
					}
				},
				{
					"sampler": 141,
					"target":
					{
						"node": 48,
						"path": "translation"
					}
				},
				{
					"sampler": 142,
					"target":
					{
						"node": 48,
						"path": "rotation"
					}
				},
				{
					"sampler": 143,
					"target":
					{
						"node": 48,
						"path": "scale"
					}
				},
				{
					"sampler": 144,
					"target":
					{
						"node": 49,
						"path": "translation"
					}
				},
				{
					"sampler": 145,
					"target":
					{
						"node": 49,
						"path": "rotation"
					}
				},
				{
					"sampler": 146,
					"target":
					{
						"node": 49,
						"path": "scale"
					}
				},
				{
					"sampler": 147,
					"target":
					{
						"node": 50,
						"path": "translation"
					}
				},
				{
					"sampler": 148,
					"target":
					{
						"node": 50,
						"path": "rotation"
					}
				},
				{
					"sampler": 149,
					"target":
					{
						"node": 50,
						"path": "scale"
					}
				}
			],
			"samplers": [
				{
					"input": 1,
					"output": 2
				},
				{
					"input": 1,
					"output": 3
				},
				{
					"input": 1,
					"output": 4
				},
				{
					"input": 1,
					"output": 5
				},
				{
					"input": 1,
					"output": 6
				},
				{
					"input": 1,
					"output": 7
				},
				{
					"input": 1,
					"output": 8
				},
				{
					"input": 1,
					"output": 9
				},
				{
					"input": 1,
					"output": 10
				},
				{
					"input": 1,
					"output": 11
				},
				{
					"input": 1,
					"output": 12
				},
				{
					"input": 1,
					"output": 13
				},
				{
					"input": 1,
					"output": 14
				},
				{
					"input": 1,
					"output": 15
				},
				{
					"input": 1,
					"output": 16
				},
				{
					"input": 1,
					"output": 17
				},
				{
					"input": 1,
					"output": 18
				},
				{
					"input": 1,
					"output": 19
				},
				{
					"input": 1,
					"output": 20
				},
				{
					"input": 1,
					"output": 21
				},
				{
					"input": 1,
					"output": 22
				},
				{
					"input": 1,
					"output": 23
				},
				{
					"input": 1,
					"output": 24
				},
				{
					"input": 1,
					"output": 25
				},
				{
					"input": 1,
					"output": 26
				},
				{
					"input": 1,
					"output": 27
				},
				{
					"input": 1,
					"output": 28
				},
				{
					"input": 1,
					"output": 29
				},
				{
					"input": 1,
					"output": 30
				},
				{
					"input": 1,
					"output": 31
				},
				{
					"input": 1,
					"output": 32
				},
				{
					"input": 1,
					"output": 33
				},
				{
					"input": 1,
					"output": 34
				},
				{
					"input": 1,
					"output": 35
				},
				{
					"input": 1,
					"output": 36
				},
				{
					"input": 1,
					"output": 37
				},
				{
					"input": 1,
					"output": 38
				},
				{
					"input": 1,
					"output": 39
				},
				{
					"input": 1,
					"output": 40
				},
				{
					"input": 1,
					"output": 41
				},
				{
					"input": 1,
					"output": 42
				},
				{
					"input": 1,
					"output": 43
				},
				{
					"input": 1,
					"output": 44
				},
				{
					"input": 1,
					"output": 45
				},
				{
					"input": 1,
					"output": 46
				},
				{
					"input": 1,
					"output": 47
				},
				{
					"input": 1,
					"output": 48
				},
				{
					"input": 1,
					"output": 49
				},
				{
					"input": 1,
					"output": 50
				},
				{
					"input": 1,
					"output": 51
				},
				{
					"input": 1,
					"output": 52
				},
				{
					"input": 1,
					"output": 53
				},
				{
					"input": 1,
					"output": 54
				},
				{
					"input": 1,
					"output": 55
				},
				{
					"input": 1,
					"output": 56
				},
				{
					"input": 1,
					"output": 57
				},
				{
					"input": 1,
					"output": 58
				},
				{
					"input": 1,
					"output": 59
				},
				{
					"input": 1,
					"output": 60
				},
				{
					"input": 1,
					"output": 61
				},
				{
					"input": 1,
					"output": 62
				},
				{
					"input": 1,
					"output": 63
				},
				{
					"input": 1,
					"output": 64
				},
				{
					"input": 1,
					"output": 65
				},
				{
					"input": 1,
					"output": 66
				},
				{
					"input": 1,
					"output": 67
				},
				{
					"input": 1,
					"output": 68
				},
				{
					"input": 1,
					"output": 69
				},
				{
					"input": 1,
					"output": 70
				},
				{
					"input": 1,
					"output": 71
				},
				{
					"input": 1,
					"output": 72
				},
				{
					"input": 1,
					"output": 73
				},
				{
					"input": 1,
					"output": 74
				},
				{
					"input": 1,
					"output": 75
				},
				{
					"input": 1,
					"output": 76
				},
				{
					"input": 1,
					"output": 77
				},
				{
					"input": 1,
					"output": 78
				},
				{
					"input": 1,
					"output": 79
				},
				{
					"input": 1,
					"output": 80
				},
				{
					"input": 1,
					"output": 81
				},
				{
					"input": 1,
					"output": 82
				},
				{
					"input": 1,
					"output": 83
				},
				{
					"input": 1,
					"output": 84
				},
				{
					"input": 1,
					"output": 85
				},
				{
					"input": 1,
					"output": 86
				},
				{
					"input": 1,
					"output": 87
				},
				{
					"input": 1,
					"output": 88
				},
				{
					"input": 1,
					"output": 89
				},
				{
					"input": 1,
					"output": 90
				},
				{
					"input": 1,
					"output": 91
				},
				{
					"input": 1,
					"output": 92
				},
				{
					"input": 1,
					"output": 93
				},
				{
					"input": 1,
					"output": 94
				},
				{
					"input": 1,
					"output": 95
				},
				{
					"input": 1,
					"output": 96
				},
				{
					"input": 1,
					"output": 97
				},
				{
					"input": 1,
					"output": 98
				},
				{
					"input": 1,
					"output": 99
				},
				{
					"input": 1,
					"output": 100
				},
				{
					"input": 1,
					"output": 101
				},
				{
					"input": 1,
					"output": 102
				},
				{
					"input": 1,
					"output": 103
				},
				{
					"input": 1,
					"output": 104
				},
				{
					"input": 1,
					"output": 105
				},
				{
					"input": 1,
					"output": 106
				},
				{
					"input": 1,
					"output": 107
				},
				{
					"input": 1,
					"output": 108
				},
				{
					"input": 1,
					"output": 109
				},
				{
					"input": 1,
					"output": 110
				},
				{
					"input": 1,
					"output": 111
				},
				{
					"input": 1,
					"output": 112
				},
				{
					"input": 1,
					"output": 113
				},
				{
					"input": 1,
					"output": 114
				},
				{
					"input": 1,
					"output": 115
				},
				{
					"input": 1,
					"output": 116
				},
				{
					"input": 1,
					"output": 117
				},
				{
					"input": 1,
					"output": 118
				},
				{
					"input": 1,
					"output": 119
				},
				{
					"input": 1,
					"output": 120
				},
				{
					"input": 1,
					"output": 121
				},
				{
					"input": 1,
					"output": 122
				},
				{
					"input": 1,
					"output": 123
				},
				{
					"input": 1,
					"output": 124
				},
				{
					"input": 1,
					"output": 125
				},
				{
					"input": 1,
					"output": 126
				},
				{
					"input": 1,
					"output": 127
				},
				{
					"input": 1,
					"output": 128
				},
				{
					"input": 1,
					"output": 129
				},
				{
					"input": 1,
					"output": 130
				},
				{
					"input": 1,
					"output": 131
				},
				{
					"input": 1,
					"output": 132
				},
				{
					"input": 1,
					"output": 133
				},
				{
					"input": 1,
					"output": 134
				},
				{
					"input": 1,
					"output": 135
				},
				{
					"input": 1,
					"output": 136
				},
				{
					"input": 1,
					"output": 137
				},
				{
					"input": 1,
					"output": 138
				},
				{
					"input": 1,
					"output": 139
				},
				{
					"input": 1,
					"output": 140
				},
				{
					"input": 1,
					"output": 141
				},
				{
					"input": 1,
					"output": 142
				},
				{
					"input": 1,
					"output": 143
				},
				{
					"input": 1,
					"output": 144
				},
				{
					"input": 1,
					"output": 145
				},
				{
					"input": 1,
					"output": 146
				},
				{
					"input": 1,
					"output": 147
				},
				{
					"input": 1,
					"output": 148
				},
				{
					"input": 1,
					"output": 149
				},
				{
					"input": 1,
					"output": 150
				},
				{
					"input": 1,
					"output": 151
				}
			]
		}
	],
	"buffers": [
		{
			"uri": "A_BoneGolem_Idle01.bin",
			"byteLength": 205604
		}
	],
	"bufferViews": [
		{
			"buffer": 0,
			"byteLength": 3200
		},
		{
			"buffer": 0,
			"byteLength": 404,
			"byteOffset": 3200
		},
		{
			"buffer": 0,
			"byteLength": 1212,
			"byteOffset": 3604
		},
		{
			"buffer": 0,
			"byteLength": 1616,
			"byteOffset": 4816
		},
		{
			"buffer": 0,
			"byteLength": 1212,
			"byteOffset": 6432
		},
		{
			"buffer": 0,
			"byteLength": 1212,
			"byteOffset": 7644
		},
		{
			"buffer": 0,
			"byteLength": 1616,
			"byteOffset": 8856
		},
		{
			"buffer": 0,
			"byteLength": 1212,
			"byteOffset": 10472
		},
		{
			"buffer": 0,
			"byteLength": 1212,
			"byteOffset": 11684
		},
		{
			"buffer": 0,
			"byteLength": 1616,
			"byteOffset": 12896
		},
		{
			"buffer": 0,
			"byteLength": 1212,
			"byteOffset": 14512
		},
		{
			"buffer": 0,
			"byteLength": 1212,
			"byteOffset": 15724
		},
		{
			"buffer": 0,
			"byteLength": 1616,
			"byteOffset": 16936
		},
		{
			"buffer": 0,
			"byteLength": 1212,
			"byteOffset": 18552
		},
		{
			"buffer": 0,
			"byteLength": 1212,
			"byteOffset": 19764
		},
		{
			"buffer": 0,
			"byteLength": 1616,
			"byteOffset": 20976
		},
		{
			"buffer": 0,
			"byteLength": 1212,
			"byteOffset": 22592
		},
		{
			"buffer": 0,
			"byteLength": 1212,
			"byteOffset": 23804
		},
		{
			"buffer": 0,
			"byteLength": 1616,
			"byteOffset": 25016
		},
		{
			"buffer": 0,
			"byteLength": 1212,
			"byteOffset": 26632
		},
		{
			"buffer": 0,
			"byteLength": 1212,
			"byteOffset": 27844
		},
		{
			"buffer": 0,
			"byteLength": 1616,
			"byteOffset": 29056
		},
		{
			"buffer": 0,
			"byteLength": 1212,
			"byteOffset": 30672
		},
		{
			"buffer": 0,
			"byteLength": 1212,
			"byteOffset": 31884
		},
		{
			"buffer": 0,
			"byteLength": 1616,
			"byteOffset": 33096
		},
		{
			"buffer": 0,
			"byteLength": 1212,
			"byteOffset": 34712
		},
		{
			"buffer": 0,
			"byteLength": 1212,
			"byteOffset": 35924
		},
		{
			"buffer": 0,
			"byteLength": 1616,
			"byteOffset": 37136
		},
		{
			"buffer": 0,
			"byteLength": 1212,
			"byteOffset": 38752
		},
		{
			"buffer": 0,
			"byteLength": 1212,
			"byteOffset": 39964
		},
		{
			"buffer": 0,
			"byteLength": 1616,
			"byteOffset": 41176
		},
		{
			"buffer": 0,
			"byteLength": 1212,
			"byteOffset": 42792
		},
		{
			"buffer": 0,
			"byteLength": 1212,
			"byteOffset": 44004
		},
		{
			"buffer": 0,
			"byteLength": 1616,
			"byteOffset": 45216
		},
		{
			"buffer": 0,
			"byteLength": 1212,
			"byteOffset": 46832
		},
		{
			"buffer": 0,
			"byteLength": 1212,
			"byteOffset": 48044
		},
		{
			"buffer": 0,
			"byteLength": 1616,
			"byteOffset": 49256
		},
		{
			"buffer": 0,
			"byteLength": 1212,
			"byteOffset": 50872
		},
		{
			"buffer": 0,
			"byteLength": 1212,
			"byteOffset": 52084
		},
		{
			"buffer": 0,
			"byteLength": 1616,
			"byteOffset": 53296
		},
		{
			"buffer": 0,
			"byteLength": 1212,
			"byteOffset": 54912
		},
		{
			"buffer": 0,
			"byteLength": 1212,
			"byteOffset": 56124
		},
		{
			"buffer": 0,
			"byteLength": 1616,
			"byteOffset": 57336
		},
		{
			"buffer": 0,
			"byteLength": 1212,
			"byteOffset": 58952
		},
		{
			"buffer": 0,
			"byteLength": 1212,
			"byteOffset": 60164
		},
		{
			"buffer": 0,
			"byteLength": 1616,
			"byteOffset": 61376
		},
		{
			"buffer": 0,
			"byteLength": 1212,
			"byteOffset": 62992
		},
		{
			"buffer": 0,
			"byteLength": 1212,
			"byteOffset": 64204
		},
		{
			"buffer": 0,
			"byteLength": 1616,
			"byteOffset": 65416
		},
		{
			"buffer": 0,
			"byteLength": 1212,
			"byteOffset": 67032
		},
		{
			"buffer": 0,
			"byteLength": 1212,
			"byteOffset": 68244
		},
		{
			"buffer": 0,
			"byteLength": 1616,
			"byteOffset": 69456
		},
		{
			"buffer": 0,
			"byteLength": 1212,
			"byteOffset": 71072
		},
		{
			"buffer": 0,
			"byteLength": 1212,
			"byteOffset": 72284
		},
		{
			"buffer": 0,
			"byteLength": 1616,
			"byteOffset": 73496
		},
		{
			"buffer": 0,
			"byteLength": 1212,
			"byteOffset": 75112
		},
		{
			"buffer": 0,
			"byteLength": 1212,
			"byteOffset": 76324
		},
		{
			"buffer": 0,
			"byteLength": 1616,
			"byteOffset": 77536
		},
		{
			"buffer": 0,
			"byteLength": 1212,
			"byteOffset": 79152
		},
		{
			"buffer": 0,
			"byteLength": 1212,
			"byteOffset": 80364
		},
		{
			"buffer": 0,
			"byteLength": 1616,
			"byteOffset": 81576
		},
		{
			"buffer": 0,
			"byteLength": 1212,
			"byteOffset": 83192
		},
		{
			"buffer": 0,
			"byteLength": 1212,
			"byteOffset": 84404
		},
		{
			"buffer": 0,
			"byteLength": 1616,
			"byteOffset": 85616
		},
		{
			"buffer": 0,
			"byteLength": 1212,
			"byteOffset": 87232
		},
		{
			"buffer": 0,
			"byteLength": 1212,
			"byteOffset": 88444
		},
		{
			"buffer": 0,
			"byteLength": 1616,
			"byteOffset": 89656
		},
		{
			"buffer": 0,
			"byteLength": 1212,
			"byteOffset": 91272
		},
		{
			"buffer": 0,
			"byteLength": 1212,
			"byteOffset": 92484
		},
		{
			"buffer": 0,
			"byteLength": 1616,
			"byteOffset": 93696
		},
		{
			"buffer": 0,
			"byteLength": 1212,
			"byteOffset": 95312
		},
		{
			"buffer": 0,
			"byteLength": 1212,
			"byteOffset": 96524
		},
		{
			"buffer": 0,
			"byteLength": 1616,
			"byteOffset": 97736
		},
		{
			"buffer": 0,
			"byteLength": 1212,
			"byteOffset": 99352
		},
		{
			"buffer": 0,
			"byteLength": 1212,
			"byteOffset": 100564
		},
		{
			"buffer": 0,
			"byteLength": 1616,
			"byteOffset": 101776
		},
		{
			"buffer": 0,
			"byteLength": 1212,
			"byteOffset": 103392
		},
		{
			"buffer": 0,
			"byteLength": 1212,
			"byteOffset": 104604
		},
		{
			"buffer": 0,
			"byteLength": 1616,
			"byteOffset": 105816
		},
		{
			"buffer": 0,
			"byteLength": 1212,
			"byteOffset": 107432
		},
		{
			"buffer": 0,
			"byteLength": 1212,
			"byteOffset": 108644
		},
		{
			"buffer": 0,
			"byteLength": 1616,
			"byteOffset": 109856
		},
		{
			"buffer": 0,
			"byteLength": 1212,
			"byteOffset": 111472
		},
		{
			"buffer": 0,
			"byteLength": 1212,
			"byteOffset": 112684
		},
		{
			"buffer": 0,
			"byteLength": 1616,
			"byteOffset": 113896
		},
		{
			"buffer": 0,
			"byteLength": 1212,
			"byteOffset": 115512
		},
		{
			"buffer": 0,
			"byteLength": 1212,
			"byteOffset": 116724
		},
		{
			"buffer": 0,
			"byteLength": 1616,
			"byteOffset": 117936
		},
		{
			"buffer": 0,
			"byteLength": 1212,
			"byteOffset": 119552
		},
		{
			"buffer": 0,
			"byteLength": 1212,
			"byteOffset": 120764
		},
		{
			"buffer": 0,
			"byteLength": 1616,
			"byteOffset": 121976
		},
		{
			"buffer": 0,
			"byteLength": 1212,
			"byteOffset": 123592
		},
		{
			"buffer": 0,
			"byteLength": 1212,
			"byteOffset": 124804
		},
		{
			"buffer": 0,
			"byteLength": 1616,
			"byteOffset": 126016
		},
		{
			"buffer": 0,
			"byteLength": 1212,
			"byteOffset": 127632
		},
		{
			"buffer": 0,
			"byteLength": 1212,
			"byteOffset": 128844
		},
		{
			"buffer": 0,
			"byteLength": 1616,
			"byteOffset": 130056
		},
		{
			"buffer": 0,
			"byteLength": 1212,
			"byteOffset": 131672
		},
		{
			"buffer": 0,
			"byteLength": 1212,
			"byteOffset": 132884
		},
		{
			"buffer": 0,
			"byteLength": 1616,
			"byteOffset": 134096
		},
		{
			"buffer": 0,
			"byteLength": 1212,
			"byteOffset": 135712
		},
		{
			"buffer": 0,
			"byteLength": 1212,
			"byteOffset": 136924
		},
		{
			"buffer": 0,
			"byteLength": 1616,
			"byteOffset": 138136
		},
		{
			"buffer": 0,
			"byteLength": 1212,
			"byteOffset": 139752
		},
		{
			"buffer": 0,
			"byteLength": 1212,
			"byteOffset": 140964
		},
		{
			"buffer": 0,
			"byteLength": 1616,
			"byteOffset": 142176
		},
		{
			"buffer": 0,
			"byteLength": 1212,
			"byteOffset": 143792
		},
		{
			"buffer": 0,
			"byteLength": 1212,
			"byteOffset": 145004
		},
		{
			"buffer": 0,
			"byteLength": 1616,
			"byteOffset": 146216
		},
		{
			"buffer": 0,
			"byteLength": 1212,
			"byteOffset": 147832
		},
		{
			"buffer": 0,
			"byteLength": 1212,
			"byteOffset": 149044
		},
		{
			"buffer": 0,
			"byteLength": 1616,
			"byteOffset": 150256
		},
		{
			"buffer": 0,
			"byteLength": 1212,
			"byteOffset": 151872
		},
		{
			"buffer": 0,
			"byteLength": 1212,
			"byteOffset": 153084
		},
		{
			"buffer": 0,
			"byteLength": 1616,
			"byteOffset": 154296
		},
		{
			"buffer": 0,
			"byteLength": 1212,
			"byteOffset": 155912
		},
		{
			"buffer": 0,
			"byteLength": 1212,
			"byteOffset": 157124
		},
		{
			"buffer": 0,
			"byteLength": 1616,
			"byteOffset": 158336
		},
		{
			"buffer": 0,
			"byteLength": 1212,
			"byteOffset": 159952
		},
		{
			"buffer": 0,
			"byteLength": 1212,
			"byteOffset": 161164
		},
		{
			"buffer": 0,
			"byteLength": 1616,
			"byteOffset": 162376
		},
		{
			"buffer": 0,
			"byteLength": 1212,
			"byteOffset": 163992
		},
		{
			"buffer": 0,
			"byteLength": 1212,
			"byteOffset": 165204
		},
		{
			"buffer": 0,
			"byteLength": 1616,
			"byteOffset": 166416
		},
		{
			"buffer": 0,
			"byteLength": 1212,
			"byteOffset": 168032
		},
		{
			"buffer": 0,
			"byteLength": 1212,
			"byteOffset": 169244
		},
		{
			"buffer": 0,
			"byteLength": 1616,
			"byteOffset": 170456
		},
		{
			"buffer": 0,
			"byteLength": 1212,
			"byteOffset": 172072
		},
		{
			"buffer": 0,
			"byteLength": 1212,
			"byteOffset": 173284
		},
		{
			"buffer": 0,
			"byteLength": 1616,
			"byteOffset": 174496
		},
		{
			"buffer": 0,
			"byteLength": 1212,
			"byteOffset": 176112
		},
		{
			"buffer": 0,
			"byteLength": 1212,
			"byteOffset": 177324
		},
		{
			"buffer": 0,
			"byteLength": 1616,
			"byteOffset": 178536
		},
		{
			"buffer": 0,
			"byteLength": 1212,
			"byteOffset": 180152
		},
		{
			"buffer": 0,
			"byteLength": 1212,
			"byteOffset": 181364
		},
		{
			"buffer": 0,
			"byteLength": 1616,
			"byteOffset": 182576
		},
		{
			"buffer": 0,
			"byteLength": 1212,
			"byteOffset": 184192
		},
		{
			"buffer": 0,
			"byteLength": 1212,
			"byteOffset": 185404
		},
		{
			"buffer": 0,
			"byteLength": 1616,
			"byteOffset": 186616
		},
		{
			"buffer": 0,
			"byteLength": 1212,
			"byteOffset": 188232
		},
		{
			"buffer": 0,
			"byteLength": 1212,
			"byteOffset": 189444
		},
		{
			"buffer": 0,
			"byteLength": 1616,
			"byteOffset": 190656
		},
		{
			"buffer": 0,
			"byteLength": 1212,
			"byteOffset": 192272
		},
		{
			"buffer": 0,
			"byteLength": 1212,
			"byteOffset": 193484
		},
		{
			"buffer": 0,
			"byteLength": 1616,
			"byteOffset": 194696
		},
		{
			"buffer": 0,
			"byteLength": 1212,
			"byteOffset": 196312
		},
		{
			"buffer": 0,
			"byteLength": 1212,
			"byteOffset": 197524
		},
		{
			"buffer": 0,
			"byteLength": 1616,
			"byteOffset": 198736
		},
		{
			"buffer": 0,
			"byteLength": 1212,
			"byteOffset": 200352
		},
		{
			"buffer": 0,
			"byteLength": 1212,
			"byteOffset": 201564
		},
		{
			"buffer": 0,
			"byteLength": 1616,
			"byteOffset": 202776
		},
		{
			"buffer": 0,
			"byteLength": 1212,
			"byteOffset": 204392
		}
	],
	"nodes": [
		{
			"skin": 0,
			"children": [ 1 ]
		},
		{
			"name": "root",
			"children": [ 2 ]
		},
		{
			"name": "pelvis",
			"translation": [ 0, 0.889999986, 0.00999999978 ],
			"rotation": [ -0.706965506, -0.706965506, 0.014133337, -0.0141337141 ],
			"children": [ 3, 7, 47 ]
		},
		{
			"name": "thigh_R",
			"translation": [ -0.0864307508, -0.160891026, 0.00345723005 ],
			"rotation": [ -0.195995331, 0.208792016, 0.937807322, -0.196237475 ],
			"children": [ 4 ]
		},
		{
			"name": "calf_R",
			"translation": [ 0.375872523, -1.99999999e-08, -1.99999999e-08 ],
			"rotation": [ -1.07070172e-16, 0.432964116, -9.76146246e-17, -0.901411176 ],
			"children": [ 5 ]
		},
		{
			"name": "foot_R",
			"translation": [ 0.313808143, -7.1054272e-17, -0 ],
			"rotation": [ -0.52206409, 0.323013157, 0.784139335, -0.0907586142 ],
			"children": [ 6 ]
		},
		{
			"name": "ball_R",
			"translation": [ 0.236657247, -0.116612822, -0.089414224 ],
			"rotation": [ -0.975709677, 0.100528628, 0.175945267, -0.0832339972 ]
		},
		{
			"name": "spine_01",
			"translation": [ 0.250199914, 1.99999999e-08, -0 ],
			"rotation": [ -5.37390098e-23, -0.0477203727, 8.36423932e-24, -0.998860717 ],
			"children": [ 8 ]
		},
		{
			"name": "spine_02",
			"translation": [ 0.180277556, -8.47032928e-24, -0 ],
			"rotation": [ 8.04221479e-23, -0.0814945325, 1.16828714e-23, -0.996673882 ],
			"children": [ 9 ]
		},
		{
			"name": "spine_03",
			"translation": [ 0.184390903, 4.23516464e-24, -3.5527136e-17 ],
			"rotation": [ -4.84974771e-23, -0.157503426, -7.34237652e-24, -0.98751843 ],
			"children": [ 10, 27, 30 ]
		},
		{
			"name": "clavicle_R",
			"translation": [ 0.16705966, -0.170000002, -0.145101905 ],
			"rotation": [ -0.0914162621, 0.257042378, 0.603667796, -0.74910444 ],
			"children": [ 11, 26 ]
		},
		{
			"name": "upperarm_R",
			"translation": [ 0.241744876, -2.84217088e-16, -0 ],
			"rotation": [ 0.242068991, 0.0155223226, 0.553156137, -0.796981931 ],
			"children": [ 12 ]
		},
		{
			"name": "lowerarm_R",
			"translation": [ 0.502518833, 3.99999998e-08, 3.99999998e-08 ],
			"rotation": [ -4.23279337e-17, -0.357755303, -1.35064524e-17, -0.93381536 ],
			"children": [ 13 ]
		},
		{
			"name": "hand_R",
			"translation": [ 0.525889397, 0, -1.99999999e-08 ],
			"rotation": [ -0.112321645, 0.0660839528, 0.0270391256, -0.991103232 ],
			"children": [ 14, 17, 20, 23 ]
		},
		{
			"name": "middle_01_R",
			"translation": [ 0.212270468, 1.99999999e-08, -1.99999999e-08 ],
			"rotation": [ -0.0530364476, -0.00687655155, 0.19543843, -0.979256809 ],
			"children": [ 15 ]
		},
		{
			"name": "middle_02_R",
			"translation": [ 0.144263327, 0, -0 ],
			"rotation": [ -0.0147307208, 0.0933949053, 0.107535169, -0.989695191 ],
			"children": [ 16 ]
		},
		{
			"name": "middle_03_R",
			"translation": [ 0.10598664, 3.99999998e-08, -0 ],
			"rotation": [ 0.0149082923, 0.0909963623, 0.274251729, -0.957226932 ]
		},
		{
			"name": "thumb_01_R",
			"translation": [ -0.023970589, -0.0899293125, -0.057244949 ],
			"rotation": [ -0.780778766, 0.390590489, 0.438841581, -0.212700769 ],
			"children": [ 18 ]
		},
		{
			"name": "thumb_02_R",
			"translation": [ 0.0828323066, 9.99999994e-09, -1.42108544e-16 ],
			"rotation": [ -0.934888363, -0.0116494559, 0.263984323, -0.236982048 ],
			"children": [ 19 ]
		},
		{
			"name": "thumb_03_R",
			"translation": [ 0.114158034, 0, 6.99999987e-08 ],
			"rotation": [ 0.0711021423, 0.298944265, -0.041730836, -0.950702548 ]
		},
		{
			"name": "index_01_R",
			"translation": [ 0.175068587, -0.0341979004, -0.0755086467 ],
			"rotation": [ 0.0727071837, -0.0873863026, 0.233526975, -0.965682387 ],
			"children": [ 21 ]
		},
		{
			"name": "index_02_R",
			"translation": [ 0.134128362, 4.9999997e-08, 2.99999989e-08 ],
			"rotation": [ -0.0368484855, -0.0156677067, 0.106709205, -0.993483722 ],
			"children": [ 22 ]
		},
		{
			"name": "index_03_R",
			"translation": [ 0.0979691893, -1.42108544e-16, -9.99999994e-09 ],
			"rotation": [ -0.085824348, 0.138122812, 0.360706717, -0.918393672 ]
		},
		{
			"name": "ring_01_R",
			"translation": [ 0.214431316, 0.0122263096, 0.0911385342 ],
			"rotation": [ -0.0782773644, 0.14375478, 0.161544472, -0.973196149 ],
			"children": [ 24 ]
		},
		{
			"name": "ring_02_R",
			"translation": [ 0.12439052, 1.99999999e-08, 3.5527136e-17 ],
			"rotation": [ 0.00453441776, -0.00236010668, 0.114383161, -0.993423641 ],
			"children": [ 25 ]
		},
		{
			"name": "ring_03_R",
			"translation": [ 0.0855567977, 1.99999999e-08, -0 ],
			"rotation": [ 0.0854972675, 0.170021966, 0.367048025, -0.910526514 ]
		},
		{
			"name": "shoulder_armor_R",
			"translation": [ 0.241744876, -2.84217088e-16, -0 ]
		},
		{
			"name": "neck",
			"translation": [ 0.19520241, 1.27054939e-23, 4.9999997e-08 ],
			"rotation": [ -4.92168457e-23, -0.229203194, -3.21757052e-23, -0.973378599 ],
			"children": [ 28 ]
		},
		{
			"name": "head",
			"translation": [ 0.179626301, 0, -0 ],
			"rotation": [ -0.638499737, 1.02481373e-07, 0.769622028, 8.50213837e-08 ],
			"children": [ 29 ]
		},
		{
			"name": "jaw",
			"translation": [ 0.0835957527, 3.38813171e-23, -0 ],
			"rotation": [ -0.999163091, -5.4466418e-09, 0.0409035869, -1.33046612e-07 ]
		},
		{
			"name": "clavicle_L",
			"translation": [ 0.16705966, 0.170000002, -0.145101875 ],
			"rotation": [ 0.603667796, -0.74910444, 0.0914164484, -0.257042646 ],
			"children": [ 31, 46 ]
		},
		{
			"name": "upperarm_L",
			"translation": [ -0.241744876, 1.99999999e-08, -0 ],
			"rotation": [ 0.242068991, 0.0155223226, 0.553156137, -0.796981931 ],
			"children": [ 32 ]
		},
		{
			"name": "lowerarm_L",
			"translation": [ -0.502518833, 1.42108544e-16, -3.99999998e-08 ],
			"rotation": [ -1.9438938e-17, -0.357755303, 7.44727828e-18, -0.93381536 ],
			"children": [ 33 ]
		},
		{
			"name": "hand_L",
			"translation": [ -0.525889397, 7.99999995e-08, -1.7763568e-17 ],
			"rotation": [ -0.112321645, 0.0660839528, 0.0270391256, -0.991103232 ],
			"children": [ 34, 37, 40, 43 ]
		},
		{
			"name": "middle_01_L",
			"translation": [ -0.212270468, 1.99999999e-08, 9.99999994e-09 ],
			"rotation": [ -0.0530364476, -0.00687655155, 0.19543843, -0.979256809 ],
			"children": [ 35 ]
		},
		{
			"name": "middle_02_L",
			"translation": [ -0.144263327, 0, -7.1054272e-17 ],
			"rotation": [ -0.0147307208, 0.0933949053, 0.107535169, -0.989695191 ],
			"children": [ 36 ]
		},
		{
			"name": "middle_03_L",
			"translation": [ -0.10598664, -4.9999997e-08, -0 ],
			"rotation": [ 0.0149082923, 0.0909963623, 0.274251729, -0.957226932 ]
		},
		{
			"name": "thumb_01_L",
			"translation": [ 0.0239705984, 0.0899293125, 0.057244949 ],
			"rotation": [ -0.747912347, 0.45033735, 0.420902014, -0.246302664 ],
			"children": [ 38 ]
		},
		{
			"name": "thumb_02_L",
			"translation": [ -0.0828322992, 0, 1.99999999e-08 ],
			"rotation": [ -0.934888363, -0.0116494559, 0.263984323, -0.236982048 ],
			"children": [ 39 ]
		},
		{
			"name": "thumb_03_L",
			"translation": [ -0.114158005, 0, -2.99999989e-08 ],
			"rotation": [ 0.0711021423, 0.298944265, -0.041730836, -0.950702548 ]
		},
		{
			"name": "index_01_L",
			"translation": [ -0.175068602, 0.0341979191, 0.0755086243 ],
			"rotation": [ 0.0727071837, -0.0873863026, 0.233526975, -0.965682387 ],
			"children": [ 41 ]
		},
		{
			"name": "index_02_L",
			"translation": [ -0.134128347, -5.99999979e-08, -1.99999999e-08 ],
			"rotation": [ -0.0368484855, -0.0156677067, 0.106709205, -0.993483722 ],
			"children": [ 42 ]
		},
		{
			"name": "index_03_L",
			"translation": [ -0.0979691967, 1.42108544e-16, 9.99999994e-09 ],
			"rotation": [ -0.085824348, 0.138122812, 0.360706717, -0.918393672 ]
		},
		{
			"name": "ring_01_L",
			"translation": [ -0.21443136, -0.0122263003, -0.0911385342 ],
			"rotation": [ -0.0782773644, 0.14375478, 0.161544472, -0.973196149 ],
			"children": [ 44 ]
		},
		{
			"name": "ring_02_L",
			"translation": [ -0.124390535, -1.99999999e-08, -0 ],
			"rotation": [ 0.00453441776, -0.00236010668, 0.114383161, -0.993423641 ],
			"children": [ 45 ]
		},
		{
			"name": "ring_03_L",
			"translation": [ -0.0855567977, -2.99999989e-08, -0 ],
			"rotation": [ 0.0854972675, 0.170021966, 0.367048025, -0.910526514 ]
		},
		{
			"name": "shoulder_armor_L",
			"translation": [ -0.241744876, 1.99999999e-08, -0 ]
		},
		{
			"name": "thigh_L",
			"translation": [ -0.0864307359, 0.160891026, 0.00345723005 ],
			"rotation": [ -0.937807381, 0.19623746, -0.195995554, 0.208792076 ],
			"children": [ 48 ]
		},
		{
			"name": "calf_L",
			"translation": [ -0.375872523, 0, -0 ],
			"rotation": [ -7.55499788e-17, 0.432964116, -6.70792787e-17, -0.901411176 ],
			"children": [ 49 ]
		},
		{
			"name": "foot_L",
			"translation": [ -0.313808143, -3.99999998e-08, 3.5527136e-17 ],
			"rotation": [ -0.52206409, 0.323013157, 0.784139335, -0.0907586142 ],
			"children": [ 50 ]
		},
		{
			"name": "ball_L",
			"translation": [ -0.236657247, 0.116612822, 0.0894142315 ],
			"rotation": [ -0.975709677, 0.100528628, 0.175945267, -0.0832339972 ]
		}
	],
	"scenes": [
		{
			"nodes": [ 0 ]
		}
	],
	"skins": [
		{
			"name": "SK_Body",
			"inverseBindMatrices": 0,
			"skeleton": 0,
			"joints": [ 1, 2, 3, 4, 5, 6, 7, 8, 9, 10, 11, 12, 13, 14, 15, 16, 17, 18, 19, 20, 21, 22, 23, 24, 25, 26, 27, 28, 29, 30, 31, 32, 33, 34, 35, 36, 37, 38, 39, 40, 41, 42, 43, 44, 45, 46, 47, 48, 49, 50 ]
		}
	]
}