{
	"asset":
	{
		"version": "2.0",
		"generator": "Unreal Engine 5.6.1"
	},
	"scene": 0,
	"accessors": [
		{
			"bufferView": 0,
			"count": 89,
			"type": "MAT4",
			"componentType": 5126
		},
		{
			"bufferView": 1,
			"count": 17340,
			"type": "SCALAR",
			"componentType": 5123
		},
		{
			"bufferView": 2,
			"count": 3583,
			"type": "VEC3",
			"componentType": 5126,
			"min": [ -0.204372823, 0.310016066, -0.104152933 ],
			"max": [ 0.204372823, 1.0883981, 0.145683825 ]
		},
		{
			"bufferView": 3,
			"count": 3583,
			"type": "VEC3",
			"componentType": 5126
		},
		{
			"bufferView": 4,
			"count": 3583,
			"type": "VEC4",
			"componentType": 5126
		},
		{
			"bufferView": 5,
			"count": 3583,
			"type": "VEC2",
			"componentType": 5126
		},
		{
			"bufferView": 6,
			"count": 3583,
			"type": "VEC4",
			"componentType": 5121
		},
		{
			"bufferView": 7,
			"count": 3583,
			"type": "VEC4",
			"componentType": 5121,
			"normalized": true
		},
		{
			"bufferView": 8,
			"count": 3583,
			"type": "VEC4",
			"componentType": 5121
		},
		{
			"bufferView": 9,
			"count": 3583,
			"type": "VEC4",
			"componentType": 5121,
			"normalized": true
		},
		{
			"bufferView": 10,
			"count": 22716,
			"type": "SCALAR",
			"componentType": 5123
		},
		{
			"bufferView": 11,
			"count": 4696,
			"type": "VEC3",
			"componentType": 5126,
			"min": [ -0.523723543, 0.896251678, -0.0454710759 ],
			"max": [ 0.521365643, 1.24708533, 0.254192263 ]
		},
		{
			"bufferView": 12,
			"count": 4696,
			"type": "VEC3",
			"componentType": 5126
		},
		{
			"bufferView": 13,
			"count": 4696,
			"type": "VEC4",
			"componentType": 5126
		},
		{
			"bufferView": 14,
			"count": 4696,
			"type": "VEC2",
			"componentType": 5126
		},
		{
			"bufferView": 15,
			"count": 4696,
			"type": "VEC4",
			"componentType": 5121
		},
		{
			"bufferView": 16,
			"count": 4696,
			"type": "VEC4",
			"componentType": 5121,
			"normalized": true
		},
		{
			"bufferView": 17,
			"count": 4696,
			"type": "VEC4",
			"componentType": 5121
		},
		{
			"bufferView": 18,
			"count": 4696,
			"type": "VEC4",
			"componentType": 5121,
			"normalized": true
		},
		{
			"bufferView": 19,
			"count": 38862,
			"type": "SCALAR",
			"componentType": 5123
		},
		{
			"bufferView": 20,
			"count": 8680,
			"type": "VEC3",
			"componentType": 5126,
			"min": [ -0.396805644, 0.528891683, -0.156710446 ],
			"max": [ 0.396598935, 1.57425416, 0.186528638 ]
		},
		{
			"bufferView": 21,
			"count": 8680,
			"type": "VEC3",
			"componentType": 5126
		},
		{
			"bufferView": 22,
			"count": 8680,
			"type": "VEC4",
			"componentType": 5126
		},
		{
			"bufferView": 23,
			"count": 8680,
			"type": "VEC2",
			"componentType": 5126
		},
		{
			"bufferView": 24,
			"count": 8680,
			"type": "VEC4",
			"componentType": 5121
		},
		{
			"bufferView": 25,
			"count": 8680,
			"type": "VEC4",
			"componentType": 5121,
			"normalized": true
		},
		{
			"bufferView": 26,
			"count": 8680,
			"type": "VEC4",
			"componentType": 5121
		},
		{
			"bufferView": 27,
			"count": 8680,
			"type": "VEC4",
			"componentType": 5121,
			"normalized": true
		},
		{
			"bufferView": 28,
			"count": 2733,
			"type": "SCALAR",
			"componentType": 5123
		},
		{
			"bufferView": 29,
			"count": 520,
			"type": "VEC3",
			"componentType": 5126,
			"min": [ -0.171121597, 0.857204497, -0.169191837 ],
			"max": [ 0.166370615, 1.55462897, 0.100055598 ]
		},
		{
			"bufferView": 30,
			"count": 520,
			"type": "VEC3",
			"componentType": 5126
		},
		{
			"bufferView": 31,
			"count": 520,
			"type": "VEC4",
			"componentType": 5126
		},
		{
			"bufferView": 32,
			"count": 520,
			"type": "VEC2",
			"componentType": 5126
		},
		{
			"bufferView": 33,
			"count": 520,
			"type": "VEC4",
			"componentType": 5121
		},
		{
			"bufferView": 34,
			"count": 520,
			"type": "VEC4",
			"componentType": 5121,
			"normalized": true
		},
		{
			"bufferView": 35,
			"count": 520,
			"type": "VEC4",
			"componentType": 5121
		},
		{
			"bufferView": 36,
			"count": 520,
			"type": "VEC4",
			"componentType": 5121,
			"normalized": true
		},
		{
			"bufferView": 37,
			"count": 14346,
			"type": "SCALAR",
			"componentType": 5123
		},
		{
			"bufferView": 38,
			"count": 3079,
			"type": "VEC3",
			"componentType": 5126,
			"min": [ -0.109911904, 1.46452999, -0.108214587 ],
			"max": [ 0.109911904, 1.81360769, 0.156012863 ]
		},
		{
			"bufferView": 39,
			"count": 3079,
			"type": "VEC3",
			"componentType": 5126
		},
		{
			"bufferView": 40,
			"count": 3079,
			"type": "VEC4",
			"componentType": 5126
		},
		{
			"bufferView": 41,
			"count": 3079,
			"type": "VEC2",
			"componentType": 5126
		},
		{
			"bufferView": 42,
			"count": 3079,
			"type": "VEC4",
			"componentType": 5121
		},
		{
			"bufferView": 43,
			"count": 3079,
			"type": "VEC4",
			"componentType": 5121,
			"normalized": true
		},
		{
			"bufferView": 44,
			"count": 3079,
			"type": "VEC4",
			"componentType": 5121
		},
		{
			"bufferView": 45,
			"count": 3079,
			"type": "VEC4",
			"componentType": 5121,
			"normalized": true
		},
		{
			"bufferView": 46,
			"count": 7560,
			"type": "SCALAR",
			"componentType": 5123
		},
		{
			"bufferView": 47,
			"count": 1866,
			"type": "VEC3",
			"componentType": 5126,
			"min": [ -0.212029725, -0.00330296415, -0.0792712793 ],
			"max": [ 0.212029725, 0.443560779, 0.232686356 ]
		},
		{
			"bufferView": 48,
			"count": 1866,
			"type": "VEC3",
			"componentType": 5126
		},
		{
			"bufferView": 49,
			"count": 1866,
			"type": "VEC4",
			"componentType": 5126
		},
		{
			"bufferView": 50,
			"count": 1866,
			"type": "VEC2",
			"componentType": 5126
		},
		{
			"bufferView": 51,
			"count": 1866,
			"type": "VEC4",
			"componentType": 5121
		},
		{
			"bufferView": 52,
			"count": 1866,
			"type": "VEC4",
			"componentType": 5121,
			"normalized": true
		},
		{
			"bufferView": 53,
			"count": 1866,
			"type": "VEC4",
			"componentType": 5121
		},
		{
			"bufferView": 54,
			"count": 1866,
			"type": "VEC4",
			"componentType": 5121,
			"normalized": true
		},
		{
			"bufferView": 55,
			"count": 12804,
			"type": "SCALAR",
			"componentType": 5123
		},
		{
			"bufferView": 56,
			"count": 3087,
			"type": "VEC3",
			"componentType": 5126,
			"min": [ -0.0263635125, -0.13147296, -0.152291015 ],
			"max": [ 0.0263635125, 0.131472945, 1.14243495 ]
		},
		{
			"bufferView": 57,
			"count": 3087,
			"type": "VEC3",
			"componentType": 5126
		},
		{
			"bufferView": 58,
			"count": 3087,
			"type": "VEC4",
			"componentType": 5126
		},
		{
			"bufferView": 59,
			"count": 3087,
			"type": "VEC2",
			"componentType": 5126
		},
		{
			"bufferView": 60,
			"count": 3087,
			"type": "VEC4",
			"componentType": 5121
		},
		{
			"bufferView": 61,
			"count": 3087,
			"type": "VEC4",
			"componentType": 5121,
			"normalized": true
		},
		{
			"bufferView": 62,
			"count": 3087,
			"type": "VEC4",
			"componentType": 5121
		},
		{
			"bufferView": 63,
			"count": 3087,
			"type": "VEC4",
			"componentType": 5121,
			"normalized": true
		}
	],
	"buffers": [
		{
			"uri": "SKM_DKF_Full_With_Sword.bin",
			"byteLength": 1871124
		}
	],
	"bufferViews": [
		{
			"buffer": 0,
			"byteLength": 5696
		},
		{
			"buffer": 0,
			"byteLength": 34680,
			"byteOffset": 5696,
			"target": 34963
		},
		{
			"buffer": 0,
			"byteLength": 42996,
			"byteOffset": 40376,
			"target": 34962
		},
		{
			"buffer": 0,
			"byteLength": 42996,
			"byteOffset": 83372,
			"target": 34962
		},
		{
			"buffer": 0,
			"byteLength": 57328,
			"byteOffset": 126368,
			"target": 34962
		},
		{
			"buffer": 0,
			"byteLength": 28664,
			"byteOffset": 183696,
			"target": 34962
		},
		{
			"buffer": 0,
			"byteLength": 14332,
			"byteOffset": 212360,
			"target": 34962
		},
		{
			"buffer": 0,
			"byteLength": 14332,
			"byteOffset": 226692,
			"target": 34962
		},
		{
			"buffer": 0,
			"byteLength": 14332,
			"byteOffset": 241024,
			"target": 34962
		},
		{
			"buffer": 0,
			"byteLength": 14332,
			"byteOffset": 255356,
			"target": 34962
		},
		{
			"buffer": 0,
			"byteLength": 45432,
			"byteOffset": 269688,
			"target": 34963
		},
		{
			"buffer": 0,
			"byteLength": 56352,
			"byteOffset": 315120,
			"target": 34962
		},
		{
			"buffer": 0,
			"byteLength": 56352,
			"byteOffset": 371472,
			"target": 34962
		},
		{
			"buffer": 0,
			"byteLength": 75136,
			"byteOffset": 427824,
			"target": 34962
		},
		{
			"buffer": 0,
			"byteLength": 37568,
			"byteOffset": 502960,
			"target": 34962
		},
		{
			"buffer": 0,
			"byteLength": 18784,
			"byteOffset": 540528,
			"target": 34962
		},
		{
			"buffer": 0,
			"byteLength": 18784,
			"byteOffset": 559312,
			"target": 34962
		},
		{
			"buffer": 0,
			"byteLength": 18784,
			"byteOffset": 578096,
			"target": 34962
		},
		{
			"buffer": 0,
			"byteLength": 18784,
			"byteOffset": 596880,
			"target": 34962
		},
		{
			"buffer": 0,
			"byteLength": 77724,
			"byteOffset": 615664,
			"target": 34963
		},
		{
			"buffer": 0,
			"byteLength": 104160,
			"byteOffset": 693388,
			"target": 34962
		},
		{
			"buffer": 0,
			"byteLength": 104160,
			"byteOffset": 797548,
			"target": 34962
		},
		{
			"buffer": 0,
			"byteLength": 138880,
			"byteOffset": 901708,
			"target": 34962
		},
		{
			"buffer": 0,
			"byteLength": 69440,
			"byteOffset": 1040588,
			"target": 34962
		},
		{
			"buffer": 0,
			"byteLength": 34720,
			"byteOffset": 1110028,
			"target": 34962
		},
		{
			"buffer": 0,
			"byteLength": 34720,
			"byteOffset": 1144748,
			"target": 34962
		},
		{
			"buffer": 0,
			"byteLength": 34720,
			"byteOffset": 1179468,
			"target": 34962
		},
		{
			"buffer": 0,
			"byteLength": 34720,
			"byteOffset": 1214188,
			"target": 34962
		},
		{
			"buffer": 0,
			"byteLength": 5466,
			"byteOffset": 1248908,
			"target": 34963
		},
		{
			"buffer": 0,
			"byteLength": 6240,
			"byteOffset": 1254376,
			"target": 34962
		},
		{
			"buffer": 0,
			"byteLength": 6240,
			"byteOffset": 1260616,
			"target": 34962
		},
		{
			"buffer": 0,
			"byteLength": 8320,
			"byteOffset": 1266856,
			"target": 34962
		},
		{
			"buffer": 0,
			"byteLength": 4160,
			"byteOffset": 1275176,
			"target": 34962
		},
		{
			"buffer": 0,
			"byteLength": 2080,
			"byteOffset": 1279336,
			"target": 34962
		},
		{
			"buffer": 0,
			"byteLength": 2080,
			"byteOffset": 1281416,
			"target": 34962
		},
		{
			"buffer": 0,
			"byteLength": 2080,
			"byteOffset": 1283496,
			"target": 34962
		},
		{
			"buffer": 0,
			"byteLength": 2080,
			"byteOffset": 1285576,
			"target": 34962
		},
		{
			"buffer": 0,
			"byteLength": 28692,
			"byteOffset": 1287656,
			"target": 34963
		},
		{
			"buffer": 0,
			"byteLength": 36948,
			"byteOffset": 1316348,
			"target": 34962
		},
		{
			"buffer": 0,
			"byteLength": 36948,
			"byteOffset": 1353296,
			"target": 34962
		},
		{
			"buffer": 0,
			"byteLength": 49264,
			"byteOffset": 1390244,
			"target": 34962
		},
		{
			"buffer": 0,
			"byteLength": 24632,
			"byteOffset": 1439508,
			"target": 34962
		},
		{
			"buffer": 0,
			"byteLength": 12316,
			"byteOffset": 1464140,
			"target": 34962
		},
		{
			"buffer": 0,
			"byteLength": 12316,
			"byteOffset": 1476456,
			"target": 34962
		},
		{
			"buffer": 0,
			"byteLength": 12316,
			"byteOffset": 1488772,
			"target": 34962
		},
		{
			"buffer": 0,
			"byteLength": 12316,
			"byteOffset": 1501088,
			"target": 34962
		},
		{
			"buffer": 0,
			"byteLength": 15120,
			"byteOffset": 1513404,
			"target": 34963
		},
		{
			"buffer": 0,
			"byteLength": 22392,
			"byteOffset": 1528524,
			"target": 34962
		},
		{
			"buffer": 0,
			"byteLength": 22392,
			"byteOffset": 1550916,
			"target": 34962
		},
		{
			"buffer": 0,
			"byteLength": 29856,
			"byteOffset": 1573308,
			"target": 34962
		},
		{
			"buffer": 0,
			"byteLength": 14928,
			"byteOffset": 1603164,
			"target": 34962
		},
		{
			"buffer": 0,
			"byteLength": 7464,
			"byteOffset": 1618092,
			"target": 34962
		},
		{
			"buffer": 0,
			"byteLength": 7464,
			"byteOffset": 1625556,
			"target": 34962
		},
		{
			"buffer": 0,
			"byteLength": 7464,
			"byteOffset": 1633020,
			"target": 34962
		},
		{
			"buffer": 0,
			"byteLength": 7464,
			"byteOffset": 1640484,
			"target": 34962
		},
		{
			"buffer": 0,
			"byteLength": 25608,
			"byteOffset": 1647948,
			"target": 34963
		},
		{
			"buffer": 0,
			"byteLength": 37044,
			"byteOffset": 1673556,
			"target": 34962
		},
		{
			"buffer": 0,
			"byteLength": 37044,
			"byteOffset": 1710600,
			"target": 34962
		},
		{
			"buffer": 0,
			"byteLength": 49392,
			"byteOffset": 1747644,
			"target": 34962
		},
		{
			"buffer": 0,
			"byteLength": 24696,
			"byteOffset": 1797036,
			"target": 34962
		},
		{
			"buffer": 0,
			"byteLength": 12348,
			"byteOffset": 1821732,
			"target": 34962
		},
		{
			"buffer": 0,
			"byteLength": 12348,
			"byteOffset": 1834080,
			"target": 34962
		},
		{
			"buffer": 0,
			"byteLength": 12348,
			"byteOffset": 1846428,
			"target": 34962
		},
		{
			"buffer": 0,
			"byteLength": 12348,
			"byteOffset": 1858776,
			"target": 34962
		}
	],
	"images": [
		{
			"uri": "MI_DKF_Pants_BaseColor.png"
		},
		{
			"uri": "MI_DKF_Pants_MetallicRoughness.png"
		},
		{
			"uri": "MI_DKF_Gauntlets_BaseColor.png"
		},
		{
			"uri": "MI_DKF_Gauntlets_MetallicRoughness.png"
		},
		{
			"uri": "MI_DKF_Armor_BaseColor.png"
		},
		{
			"uri": "MI_DKF_Armor_MetallicRoughness.png"
		},
		{
			"uri": "MI_DKF_Helmet_BaseColor.png"
		},
		{
			"uri": "MI_DKF_Helmet_MetallicRoughness.png"
		},
		{
			"uri": "MI_DKF_Boots_BaseColor.png"
		},
		{
			"uri": "MI_DKF_Boots_MetallicRoughness.png"
		},
		{
			"uri": "T_DKF_Pants_NRM.png"
		},
		{
			"uri": "T_DKF_Gauntlets_NRM.png"
		},
		{
			"uri": "T_DKF_Armor_NRM.png"
		},
		{
			"uri": "T_DKF_Helmet_NRM.png"
		},
		{
			"uri": "T_DKF_Boots_NRM.png"
		},
		{
			"uri": "T_DKF_Sword_ALB.png"
		},
		{
			"uri": "T_DKF_Sword_ARM.png"
		},
		{
			"uri": "T_DKF_Sword_NRM.png"
		}
	],
	"materials": [
		{
			"name": "MI_DKF_Pants",
			"pbrMetallicRoughness":
			{
				"baseColorTexture":
				{
					"index": 0
				},
				"metallicRoughnessTexture":
				{
					"index": 1
				}
			},
			"normalTexture":
			{
				"index": 2
			}
		},
		{
			"name": "MI_DKF_Gauntlets",
			"pbrMetallicRoughness":
			{
				"baseColorTexture":
				{
					"index": 3
				},
				"metallicRoughnessTexture":
				{
					"index": 4
				}
			},
			"normalTexture":
			{
				"index": 5
			}
		},
		{
			"name": "MI_DKF_Armor",
			"pbrMetallicRoughness":
			{
				"baseColorTexture":
				{
					"index": 6
				},
				"metallicRoughnessTexture":
				{
					"index": 7
				}
			},
			"normalTexture":
			{
				"index": 8
			},
			"alphaMode": "MASK",
			"alphaCutoff": 0.333299994,
			"doubleSided": true
		},
		{
			"name": "MI_DKF_Helmet",
			"pbrMetallicRoughness":
			{
				"baseColorTexture":
				{
					"index": 9
				},
				"metallicRoughnessTexture":
				{
					"index": 10
				}
			},
			"normalTexture":
			{
				"index": 11
			}
		},
		{
			"name": "MI_DKF_Boots",
			"pbrMetallicRoughness":
			{
				"baseColorTexture":
				{
					"index": 12
				},
				"metallicRoughnessTexture":
				{
					"index": 13
				}
			},
			"normalTexture":
			{
				"index": 14
			}
		},
		{
			"name": "M_DKF_Sword",
			"pbrMetallicRoughness":
			{
				"baseColorTexture":
				{
					"index": 15
				},
				"metallicRoughnessTexture":
				{
					"index": 16
				}
			},
			"normalTexture":
			{
				"index": 17
			}
		}
	],
	"meshes": [
		{
			"name": "SKM_DKF_Full_With_Sword",
			"primitives": [
				{
					"attributes":
					{
						"POSITION": 2,
						"NORMAL": 3,
						"TANGENT": 4,
						"TEXCOORD_0": 5,
						"JOINTS_0": 6,
						"JOINTS_1": 8,
						"WEIGHTS_0": 7,
						"WEIGHTS_1": 9
					},
					"indices": 1,
					"material": 0
				},
				{
					"attributes":
					{
						"POSITION": 11,
						"NORMAL": 12,
						"TANGENT": 13,
						"TEXCOORD_0": 14,
						"JOINTS_0": 15,
						"JOINTS_1": 17,
						"WEIGHTS_0": 16,
						"WEIGHTS_1": 18
					},
					"indices": 10,
					"material": 1
				},
				{
					"attributes":
					{
						"POSITION": 20,
						"NORMAL": 21,
						"TANGENT": 22,
						"TEXCOORD_0": 23,
						"JOINTS_0": 24,
						"JOINTS_1": 26,
						"WEIGHTS_0": 25,
						"WEIGHTS_1": 27
					},
					"indices": 19,
					"material": 2
				},
				{
					"attributes":
					{
						"POSITION": 29,
						"NORMAL": 30,
						"TANGENT": 31,
						"TEXCOORD_0": 32,
						"JOINTS_0": 33,
						"JOINTS_1": 35,
						"WEIGHTS_0": 34,
						"WEIGHTS_1": 36
					},
					"indices": 28,
					"material": 2
				},
				{
					"attributes":
					{
						"POSITION": 38,
						"NORMAL": 39,
						"TANGENT": 40,
						"TEXCOORD_0": 41,
						"JOINTS_0": 42,
						"JOINTS_1": 44,
						"WEIGHTS_0": 43,
						"WEIGHTS_1": 45
					},
					"indices": 37,
					"material": 3
				},
				{
					"attributes":
					{
						"POSITION": 47,
						"NORMAL": 48,
						"TANGENT": 49,
						"TEXCOORD_0": 50,
						"JOINTS_0": 51,
						"JOINTS_1": 53,
						"WEIGHTS_0": 52,
						"WEIGHTS_1": 54
					},
					"indices": 46,
					"material": 4
				},
				{
					"attributes":
					{
						"POSITION": 56,
						"NORMAL": 57,
						"TANGENT": 58,
						"TEXCOORD_0": 59,
						"JOINTS_0": 60,
						"JOINTS_1": 62,
						"WEIGHTS_0": 61,
						"WEIGHTS_1": 63
					},
					"indices": 55,
					"material": 5
				}
			]
		}
	],
	"nodes": [
		{
			"skin": 0,
			"mesh": 0,
			"children": [ 1 ]
		},
		{
			"name": "root",
			"children": [ 2, 81, 84, 88, 89 ]
		},
		{
			"name": "pelvis",
			"translation": [ 1.64358034e-23, 0.986932218, 0.023794625 ],
			"rotation": [ 0.0222270992, -0.0222270992, -0.706757367, -0.706757367 ],
			"children": [ 3, 65, 73 ]
		},
		{
			"name": "spine_01",
			"translation": [ 0.0247185305, 1.7832339e-18, -7.42481597e-13 ],
			"rotation": [ -8.52557093e-07, 0.149938703, -1.29292914e-07, -0.988695323 ],
			"children": [ 4 ]
		},
		{
			"name": "spine_02",
			"translation": [ 0.0498751327, -4.95357732e-16, 1.51359806e-12 ],
			"rotation": [ 1.31494016e-06, -0.0595242791, 2.42462974e-08, -0.998226881 ],
			"children": [ 5 ]
		},
		{
			"name": "spine_03",
			"translation": [ 0.0762588307, 2.29337049e-17, 6.58964419e-12 ],
			"rotation": [ -1.70930775e-06, -0.089947775, 7.25269942e-08, -0.995946467 ],
			"children": [ 6 ]
		},
		{
			"name": "spine_04",
			"translation": [ 0.0885111466, 1.5608689e-16, 4.10831195e-11 ],
			"rotation": [ -1.75434093e-06, -0.0739220753, 3.16515269e-07, -0.997264028 ],
			"children": [ 7 ]
		},
		{
			"name": "spine_05",
			"translation": [ 0.174987584, -5.09032928e-18, -2.15126042e-11 ],
			"rotation": [ 1.94375207e-06, -0.00225565466, -4.38444392e-09, -0.999997556 ],
			"children": [ 8, 11, 38 ]
		},
		{
			"name": "neck_01",
			"translation": [ 0.119150437, 6.99969393e-16, -1.57649713e-10 ],
			"rotation": [ -6.19013889e-08, 0.217584386, -4.82328346e-07, -0.976041615 ],
			"children": [ 9 ]
		},
		{
			"name": "neck_02",
			"translation": [ 0.0584883578, 5.77066579e-19, 1.51436974e-10 ],
			"rotation": [ 4.12966347e-06, -0.00527076377, -9.74863212e-09, -0.999986112 ],
			"children": [ 10 ]
		},
		{
			"name": "head",
			"translation": [ 0.0575848483, 9.07016446e-18, 4.51708004e-10 ],
			"rotation": [ -2.96816052e-06, -0.107055508, -3.07126669e-07, -0.994253039 ]
		},
		{
			"name": "clavicle_l",
			"translation": [ 0.0583087541, -0.00931362156, -0.0100481575 ],
			"rotation": [ -0.0899127275, 0.0595802292, 0.75046277, -0.652051806 ],
			"children": [ 12 ]
		},
		{
			"name": "upperarm_l",
			"translation": [ 0.15286094, 2.84217088e-16, 4.52970986e-16 ],
			"rotation": [ 0.0249732044, 0.0139615526, 0.380739182, -0.924239755 ],
			"children": [ 13, 36, 37 ]
		},
		{
			"name": "lowerarm_l",
			"translation": [ 0.270903528, -2.84217088e-16, -1.24344979e-16 ],
			"rotation": [ 4.39502765e-17, 0.314824313, 4.38204621e-17, -0.949149966 ],
			"children": [ 14, 15, 16 ]
		},
		{
			"name": "lowerarm_twist_02_l",
			"translation": [ 0.0869838595, -2.84217088e-16, -2.84217088e-16 ],
			"rotation": [ -0.00124772137, -0.000585549511, -0.00167474116, -0.999997675 ]
		},
		{
			"name": "lowerarm_twist_01_l",
			"translation": [ 0.173967719, 1.42108544e-16, 7.1054272e-17 ],
			"rotation": [ -0.00124772137, -0.000585549569, -0.00167467445, -0.999997675 ]
		},
		{
			"name": "hand_l",
			"translation": [ 0.260951579, 1.42108544e-16, -7.1054272e-17 ],
			"rotation": [ 0.591983199, -0.0800928622, 0.0539576523, -0.80014348 ],
			"children": [ 17, 21, 25, 29, 32 ]
		},
		{
			"name": "middle_metacarpal_l",
			"translation": [ 0.0311662573, -0.00364510412, 0.000677163189 ],
			"rotation": [ -0.000413337373, 0.0624301918, -0.0175959282, -0.997894228 ],
			"children": [ 18 ]
		},
		{
			"name": "middle_01_l",
			"translation": [ 0.0556054674, -1.06581408e-16, -4.26325632e-16 ],
			"rotation": [ 0.0235397629, -0.206842244, -0.0432236195, -0.977135658 ],
			"children": [ 19 ]
		},
		{
			"name": "middle_02_l",
			"translation": [ 0.0491967052, -4.61852761e-16, -0 ],
			"rotation": [ -9.98374235e-05, -0.166358337, 0.00422991673, -0.986056387 ],
			"children": [ 20 ]
		},
		{
			"name": "middle_03_l",
			"translation": [ 0.0290205181, -7.1054272e-17, 6.39488435e-16 ],
			"rotation": [ 4.75037305e-05, -0.0248709563, -0.00190941396, -0.999688864 ]
		},
		{
			"name": "pinky_metacarpal_l",
			"translation": [ 0.0298312232, 0.0192750115, -0.00242037373 ],
			"rotation": [ 0.200405747, -0.0355378911, -0.199636951, -0.958498776 ],
			"children": [ 22 ]
		},
		{
			"name": "pinky_01_l",
			"translation": [ 0.047179468, -2.84217088e-16, 2.84217088e-16 ],
			"rotation": [ -0.00131078518, -0.102230676, 0.00989510771, -0.994710624 ],
			"children": [ 23 ]
		},
		{
			"name": "pinky_02_l",
			"translation": [ 0.0289329737, -3.55271347e-16, -5.68434176e-16 ],
			"rotation": [ 0.000586143404, -0.176199868, -0.00175152789, -0.984352708 ],
			"children": [ 24 ]
		},
		{
			"name": "pinky_03_l",
			"translation": [ 0.0179151967, 1.42108544e-16, 1.13686835e-15 ],
			"rotation": [ 2.53512608e-05, -0.0283930879, -0.000732202316, -0.999596596 ]
		},
		{
			"name": "ring_metacarpal_l",
			"translation": [ 0.0310860816, 0.0080135921, -0.000603117398 ],
			"rotation": [ 0.0906560794, 0.0352946445, -0.116363503, -0.988430738 ],
			"children": [ 26 ]
		},
		{
			"name": "ring_01_l",
			"translation": [ 0.0499276146, -5.3290702e-16, 2.84217088e-16 ],
			"rotation": [ 0.00681916717, -0.155733213, 0.00576096168, -0.987758815 ],
			"children": [ 27 ]
		},
		{
			"name": "ring_02_l",
			"translation": [ 0.0425138846, -4.97379917e-16, 1.13686835e-15 ],
			"rotation": [ 0.00055203354, -0.228156328, 0.00387011864, -0.973616779 ],
			"children": [ 28 ]
		},
		{
			"name": "ring_03_l",
			"translation": [ 0.0323482789, -2.84217088e-16, 5.68434176e-16 ],
			"rotation": [ 0.000134558344, -0.0403730571, -0.00321562472, -0.999179482 ]
		},
		{
			"name": "thumb_01_l",
			"translation": [ 0.0231000651, -0.0254707728, -0.0145192286 ],
			"rotation": [ -0.580987751, 0.0572039001, 0.322829306, -0.744957864 ],
			"children": [ 30 ]
		},
		{
			"name": "thumb_02_l",
			"translation": [ 0.0463178903, 7.10542693e-16, -2.84217088e-16 ],
			"rotation": [ -0.000483229145, -0.17485027, -0.0556733459, -0.983019769 ],
			"children": [ 31 ]
		},
		{
			"name": "thumb_03_l",
			"translation": [ 0.0271059051, -5.68434176e-16, -3.55271347e-16 ],
			"rotation": [ -0.000140444012, -0.073276028, 0.00171638967, -0.997310221 ]
		},
		{
			"name": "index_metacarpal_l",
			"translation": [ 0.0345267355, -0.0205190182, -0.00112795806 ],
			"rotation": [ -0.15400736, 0.0407918878, 0.0434599146, -0.986270249 ],
			"children": [ 33 ]
		},
		{
			"name": "index_01_l",
			"translation": [ 0.0537690632, -2.84217088e-16, 1.13686835e-15 ],
			"rotation": [ 0.084570922, -0.16264163, -0.0534945615, -0.981597543 ],
			"children": [ 34 ]
		},
		{
			"name": "index_02_l",
			"translation": [ 0.0456454828, 5.50670624e-16, -8.52651264e-16 ],
			"rotation": [ -0.000344415166, -0.102045864, 0.00220671552, -0.994777203 ],
			"children": [ 35 ]
		},
		{
			"name": "index_03_l",
			"translation": [ 0.024864709, 2.84217088e-16, -0 ],
			"rotation": [ 2.19017627e-16, 0.000107798638, 0.00052507082, -0.999999881 ]
		},
		{
			"name": "upperarm_twist_01_l",
			"translation": [ 0.0903011784, -4.26325632e-16, -1.24344979e-16 ],
			"rotation": [ 6.57369234e-17, -0.000119421391, -0.00208826247, -0.999997914 ]
		},
		{
			"name": "upperarm_twist_02_l",
			"translation": [ 0.180602357, -7.10542693e-16, -1.1546319e-16 ]
		},
		{
			"name": "clavicle_r",
			"translation": [ 0.0583043024, 0.00931357406, -0.0100491382 ],
			"rotation": [ -0.75046289, 0.652051628, -0.0899141282, 0.0595786087 ],
			"children": [ 39 ]
		},
		{
			"name": "upperarm_r",
			"translation": [ -0.152859882, -4.02098294e-06, 5.46861294e-08 ],
			"rotation": [ 0.0249732044, 0.0139615526, 0.380739182, -0.924239755 ],
			"children": [ 40, 63, 64 ]
		},
		{
			"name": "lowerarm_r",
			"translation": [ -0.270899236, -1.42108544e-16, 1.24344979e-16 ],
			"rotation": [ 2.59627179e-19, 0.314824313, 1.75541477e-16, -0.949149966 ],
			"children": [ 41, 42, 43 ]
		},
		{
			"name": "lowerarm_twist_02_r",
			"translation": [ -0.0869850963, 0, 4.26325632e-16 ],
			"rotation": [ -0.00124772137, -0.000585549511, -0.00167474116, -0.999997675 ]
		},
		{
			"name": "lowerarm_twist_01_r",
			"translation": [ -0.173970014, 5.68434176e-16, -0 ],
			"rotation": [ -0.00124772137, -0.000585549569, -0.00167467445, -0.999997675 ]
		},
		{
			"name": "hand_r",
			"translation": [ -0.260954946, 1.42108544e-16, 2.84217088e-16 ],
			"rotation": [ 0.591983199, -0.0800928622, 0.0539576523, -0.80014348 ],
			"children": [ 44, 48, 52, 56, 59 ]
		},
		{
			"name": "middle_metacarpal_r",
			"translation": [ -0.0311660971, 0.00364204752, -0.000677166798 ],
			"rotation": [ -0.000413337373, 0.0624301918, -0.0175959282, -0.997894228 ],
			"children": [ 45 ]
		},
		{
			"name": "middle_01_r",
			"translation": [ -0.055606164, 4.77121375e-07, -1.32579316e-07 ],
			"rotation": [ 0.0235397629, -0.206842244, -0.0432236195, -0.977135658 ],
			"children": [ 46 ]
		},
		{
			"name": "middle_02_r",
			"translation": [ -0.0491960831, -3.2841686e-07, 3.3851731e-07 ],
			"rotation": [ -9.98374235e-05, -0.166358337, 0.00422991673, -0.986056387 ],
			"children": [ 47 ]
		},
		{
			"name": "middle_03_r",
			"translation": [ -0.0290207062, 2.65007685e-07, -1.22090412e-07 ],
			"rotation": [ 4.75037305e-05, -0.0248709563, -0.00190941396, -0.999688864 ]
		},
		{
			"name": "pinky_metacarpal_r",
			"translation": [ -0.0298308637, -0.0192775857, 0.00242032437 ],
			"rotation": [ 0.200405747, -0.0355378911, -0.199636951, -0.958498776 ],
			"children": [ 49 ]
		},
		{
			"name": "pinky_01_r",
			"translation": [ -0.0471798889, -2.94186265e-07, 4.64821596e-07 ],
			"rotation": [ -0.00131078518, -0.102230676, 0.00989510771, -0.994710624 ],
			"children": [ 50 ]
		},
		{
			"name": "pinky_02_r",
			"translation": [ -0.0289332028, 5.78503204e-07, -3.28430986e-07 ],
			"rotation": [ 0.000586143404, -0.176199868, -0.00175152789, -0.984352708 ],
			"children": [ 51 ]
		},
		{
			"name": "pinky_03_r",
			"translation": [ -0.0179147422, -3.44562096e-07, -1.8642146e-07 ],
			"rotation": [ 2.53512571e-05, -0.0283930879, -0.000732202316, -0.999596596 ]
		},
		{
			"name": "ring_metacarpal_r",
			"translation": [ -0.0310862176, -0.00801638607, 0.000603639521 ],
			"rotation": [ 0.0906560794, 0.0352946445, -0.116363503, -0.988430738 ],
			"children": [ 53 ]
		},
		{
			"name": "ring_01_r",
			"translation": [ -0.0499280542, 2.64258205e-07, -5.88085015e-07 ],
			"rotation": [ 0.00681916717, -0.155733213, 0.00576096168, -0.987758815 ],
			"children": [ 54 ]
		},
		{
			"name": "ring_02_r",
			"translation": [ -0.0425138324, -2.08544122e-07, 8.28428028e-07 ],
			"rotation": [ 0.00055203354, -0.228156328, 0.00387011864, -0.973616779 ],
			"children": [ 55 ]
		},
		{
			"name": "ring_03_r",
			"translation": [ -0.0323473178, 3.33011172e-07, -5.11807571e-07 ],
			"rotation": [ 0.000134558344, -0.0403730571, -0.00321562472, -0.999179482 ]
		},
		{
			"name": "thumb_01_r",
			"translation": [ -0.0231007785, 0.0254684091, 0.0145192342 ],
			"rotation": [ -0.580987751, 0.0572039001, 0.322829306, -0.744957864 ],
			"children": [ 57 ]
		},
		{
			"name": "thumb_02_r",
			"translation": [ -0.0463180207, 4.94527171e-07, -1.64326281e-07 ],
			"rotation": [ -0.000483229145, -0.17485027, -0.0556733459, -0.983019769 ],
			"children": [ 58 ]
		},
		{
			"name": "thumb_03_r",
			"translation": [ -0.0271057505, 7.96917092e-08, 5.00430531e-07 ],
			"rotation": [ -0.000140444012, -0.073276028, 0.00171638967, -0.997310221 ]
		},
		{
			"name": "index_metacarpal_r",
			"translation": [ -0.0345265679, 0.0205159746, 0.00112789648 ],
			"rotation": [ -0.15400736, 0.0407918878, 0.0434599146, -0.986270249 ],
			"children": [ 60 ]
		},
		{
			"name": "index_01_r",
			"translation": [ -0.0537689924, 4.13586406e-07, 4.13068449e-07 ],
			"rotation": [ 0.084570922, -0.16264163, -0.0534945615, -0.981597543 ],
			"children": [ 61 ]
		},
		{
			"name": "index_02_r",
			"translation": [ -0.0456456877, 2.72198491e-07, -1.01201317e-06 ],
			"rotation": [ -0.000344415166, -0.102045864, 0.00220671552, -0.994777203 ],
			"children": [ 62 ]
		},
		{
			"name": "index_03_r",
			"translation": [ -0.0248644687, 5.13459604e-08, 9.58482858e-08 ],
			"rotation": [ -1.05367102e-08, 0.000107798638, 0.00052507082, -0.999999881 ]
		},
		{
			"name": "upperarm_twist_01_r",
			"translation": [ -0.0902997479, -1.25848908e-06, -1.01009462e-07 ],
			"rotation": [ -4.87341531e-17, -0.000119421391, -0.00208826247, -0.999997914 ]
		},
		{
			"name": "upperarm_twist_02_r",
			"translation": [ -0.180599496, -2.51697816e-06, -2.02018924e-07 ]
		},
		{
			"name": "thigh_r",
			"translation": [ -0.0323204361, 0.111546002, 0.000679918507 ],
			"rotation": [ -0.02387367, -0.99623996, 0.0729436427, -0.040190421 ],
			"children": [ 66, 71, 72 ]
		},
		{
			"name": "calf_r",
			"translation": [ 0.457519382, -7.1054272e-17, 8.881784e-18 ],
			"rotation": [ 4.96723943e-17, 0.00954207592, 2.1291629e-17, -0.999954462 ],
			"children": [ 67, 69, 70 ]
		},
		{
			"name": "foot_r",
			"translation": [ 0.417054653, 5.3290704e-17, 5.3290704e-17 ],
			"rotation": [ -2.25970289e-05, -0.000991816632, 0.0221623871, -0.999753892 ],
			"children": [ 68 ]
		},
		{
			"name": "ball_r",
			"translation": [ 0.0653676316, -0.000438976451, -0.136292309 ],
			"rotation": [ 9.49538095e-17, 0.707106829, -7.23019648e-16, -0.707106829 ]
		},
		{
			"name": "calf_twist_02_r",
			"translation": [ 0.139018223, 0.000499971851, 8.43769488e-17 ],
			"rotation": [ -4.63546967e-05, -0.000990957371, -0.00247145072, -0.999996483 ]
		},
		{
			"name": "calf_twist_01_r",
			"translation": [ 0.278036445, 0.000999943702, 7.54951665e-17 ],
			"rotation": [ -4.63546967e-05, -0.000990957371, -0.00247145072, -0.999996483 ]
		},
		{
			"name": "thigh_twist_01_r",
			"translation": [ 0.152506456, -1.24344979e-16, 1.7763568e-17 ],
			"rotation": [ -2.48629952e-16, -0.000465099118, -0.00247189775, -0.999996841 ]
		},
		{
			"name": "thigh_twist_02_r",
			"translation": [ 0.305012912, -5.3290704e-17, 5.3290704e-17 ],
			"rotation": [ -3.8644899e-14, -0.000465099118, -0.00247189775, -0.999996841 ]
		},
		{
			"name": "thigh_l",
			"translation": [ -0.0323199145, -0.111545853, 0.000680315017 ],
			"rotation": [ -0.0729436427, 0.040190421, -0.02387367, -0.99623996 ],
			"children": [ 74, 79, 80 ]
		},
		{
			"name": "calf_l",
			"translation": [ -0.457520366, 3.5527136e-17, -5.3290704e-17 ],
			"rotation": [ 4.24747815e-17, 0.00954207592, 1.4283735e-17, -0.999954462 ],
			"children": [ 75, 77, 78 ]
		},
		{
			"name": "foot_l",
			"translation": [ -0.417054206, -1.7763568e-17, -6.661338e-18 ],
			"rotation": [ -2.25970289e-05, -0.000991816632, 0.0221623871, -0.999753892 ],
			"children": [ 76 ]
		},
		{
			"name": "ball_l",
			"translation": [ -0.0653676242, 0.000438902294, 0.136292294 ],
			"rotation": [ 8.3364718e-17, 0.707106829, 4.37538257e-16, -0.707106829 ]
		},
		{
			"name": "calf_twist_02_l",
			"translation": [ -0.139018059, -0.000500472088, 9.07254076e-08 ],
			"rotation": [ -4.63546967e-05, -0.000990957371, -0.00247145072, -0.999996483 ]
		},
		{
			"name": "calf_twist_01_l",
			"translation": [ -0.278036147, -0.00100046571, 9.74601519e-08 ],
			"rotation": [ -4.63546967e-05, -0.000990957371, -0.00247145072, -0.999996483 ]
		},
		{
			"name": "thigh_twist_01_l",
			"translation": [ -0.152506784, -1.59472378e-07, 2.80019883e-08 ],
			"rotation": [ 1.67805062e-16, -0.000465099118, -0.00247189775, -0.999996841 ]
		},
		{
			"name": "thigh_twist_02_l",
			"translation": [ -0.305013567, -3.18944757e-07, 5.60039766e-08 ],
			"rotation": [ 1.67805062e-16, -0.000465099118, -0.00247189775, -0.999996841 ]
		},
		{
			"name": "ik_foot_root",
			"children": [ 82, 83 ]
		},
		{
			"name": "ik_foot_l",
			"translation": [ 0.147118092, 0.0814378932, 0.000414523704 ],
			"rotation": [ -0.0356994122, -0.0283698849, -0.704518855, -0.708218813 ]
		},
		{
			"name": "ik_foot_r",
			"translation": [ -0.1471183, 0.0814378709, 0.000414162379 ],
			"rotation": [ -0.708218813, 0.704518914, -0.0283696968, 0.035699226 ]
		},
		{
			"name": "ik_hand_root",
			"children": [ 85 ]
		},
		{
			"name": "ik_hand_gun",
			"translation": [ 0, 0.608370006, 0.157669991 ],
			"children": [ 86, 87 ]
		},
		{
			"name": "ik_hand_l",
			"translation": [ 0.454702675, 0.446070522, -0.0139341764 ],
			"rotation": [ 0.590932786, -0.078170605, 0.556248665, -0.57902956 ]
		},
		{
			"name": "ik_hand_r",
			"translation": [ 0, -0.608370006, -0.157669991 ]
		},
		{
			"name": "interaction"
		},
		{
			"name": "center_of_mass"
		}
	],
	"samplers": [
		{
			"minFilter": 9987,
			"magFilter": 9729
		}
	],
	"scenes": [
		{
			"nodes": [ 0 ]
		}
	],
	"skins": [
		{
			"name": "SKM_DKF_Full_With_Sword",
			"inverseBindMatrices": 0,
			"skeleton": 0,
			"joints": [ 1, 2, 3, 4, 5, 6, 7, 8, 9, 10, 11, 12, 13, 14, 15, 16, 17, 18, 19, 20, 21, 22, 23, 24, 25, 26, 27, 28, 29, 30, 31, 32, 33, 34, 35, 36, 37, 38, 39, 40, 41, 42, 43, 44, 45, 46, 47, 48, 49, 50, 51, 52, 53, 54, 55, 56, 57, 58, 59, 60, 61, 62, 63, 64, 65, 66, 67, 68, 69, 70, 71, 72, 73, 74, 75, 76, 77, 78, 79, 80, 81, 82, 83, 84, 85, 86, 87, 88, 89 ]
		}
	],
	"textures": [
		{
			"name": "MI_DKF_Pants_BaseColor",
			"sampler": 0,
			"source": 0
		},
		{
			"name": "MI_DKF_Pants_MetallicRoughness",
			"sampler": 0,
			"source": 1
		},
		{
			"name": "T_DKF_Pants_NRM",
			"sampler": 0,
			"source": 10
		},
		{
			"name": "MI_DKF_Gauntlets_BaseColor",
			"sampler": 0,
			"source": 2
		},
		{
			"name": "MI_DKF_Gauntlets_MetallicRoughness",
			"sampler": 0,
			"source": 3
		},
		{
			"name": "T_DKF_Gauntlets_NRM",
			"sampler": 0,
			"source": 11
		},
		{
			"name": "MI_DKF_Armor_BaseColor",
			"sampler": 0,
			"source": 4
		},
		{
			"name": "MI_DKF_Armor_MetallicRoughness",
			"sampler": 0,
			"source": 5
		},
		{
			"name": "T_DKF_Armor_NRM",
			"sampler": 0,
			"source": 12
		},
		{
			"name": "MI_DKF_Helmet_BaseColor",
			"sampler": 0,
			"source": 6
		},
		{
			"name": "MI_DKF_Helmet_MetallicRoughness",
			"sampler": 0,
			"source": 7
		},
		{
			"name": "T_DKF_Helmet_NRM",
			"sampler": 0,
			"source": 13
		},
		{
			"name": "MI_DKF_Boots_BaseColor",
			"sampler": 0,
			"source": 8
		},
		{
			"name": "MI_DKF_Boots_MetallicRoughness",
			"sampler": 0,
			"source": 9
		},
		{
			"name": "T_DKF_Boots_NRM",
			"sampler": 0,
			"source": 14
		},
		{
			"name": "T_DKF_Sword_ALB",
			"sampler": 0,
			"source": 15
		},
		{
			"name": "T_DKF_Sword_ARM",
			"sampler": 0,
			"source": 16
		},
		{
			"name": "T_DKF_Sword_NRM",
			"sampler": 0,
			"source": 17
		}
	]
}