{
	"asset":
	{
		"version": "2.0",
		"generator": "Unreal Engine 5.6.1"
	},
	"scene": 0,
	"accessors": [
		{
			"bufferView": 0,
			"count": 36,
			"type": "SCALAR",
			"componentType": 5121
		},
		{
			"bufferView": 1,
			"count": 24,
			"type": "VEC3",
			"componentType": 5126,
			"min": [ -0.5, 0, -0.5 ],
			"max": [ 0.5, 1, 0.5 ]
		},
		{
			"bufferView": 2,
			"count": 24,
			"type": "VEC3",
			"componentType": 5126
		},
		{
			"bufferView": 3,
			"count": 24,
			"type": "VEC4",
			"componentType": 5126
		},
		{
			"bufferView": 4,
			"count": 24,
			"type": "VEC2",
			"componentType": 5126
		}
	],
	"buffers": [
		{
			"uri": "ServerTestBox.bin",
			"byteLength": 1188
		}
	],
	"bufferViews": [
		{
			"buffer": 0,
			"byteLength": 36,
			"target": 34963
		},
		{
			"buffer": 0,
			"byteLength": 288,
			"byteOffset": 36,
			"target": 34962
		},
		{
			"buffer": 0,
			"byteLength": 288,
			"byteOffset": 324,
			"target": 34962
		},
		{
			"buffer": 0,
			"byteLength": 384,
			"byteOffset": 612,
			"target": 34962
		},
		{
			"buffer": 0,
			"byteLength": 192,
			"byteOffset": 996,
			"target": 34962
		}
	],
	"images": [
		{
			"uri": "mana_pool_0810063423_texture_texture_0_Mat_BaseColor.png"
		}
	],
	"materials": [
		{
			"name": "mana_pool_0810063423_texture_texture_0_Mat",
			"pbrMetallicRoughness":
			{
				"baseColorTexture":
				{
					"index": 0
				},
				"metallicFactor": 0,
				"roughnessFactor": 0.5
			}
		}
	],
	"meshes": [
		{
			"name": "Box_AB0C3887",
			"primitives": [
				{
					"attributes":
					{
						"POSITION": 1,
						"NORMAL": 2,
						"TANGENT": 3,
						"TEXCOORD_0": 4
					},
					"indices": 0,
					"material": 0
				}
			]
		}
	],
	"nodes": [
		{
			"name": "ServerTestBox",
			"translation": [ -360.257996, 7.09572554, -212.309174 ],
			"rotation": [ 0.0253487602, 5.68452742e-05, -0.00224180054, 0.999676168 ],
			"scale": [ 2.25, 2.25, 2.25 ],
			"mesh": 0
		}
	],
	"samplers": [
		{
			"minFilter": 9987,
			"magFilter": 9729
		}
	],
	"scenes": [
		{
			"name": "Main_Level_Optimized_WP",
			"nodes": [ 0 ]
		}
	],
	"textures": [
		{
			"name": "mana_pool_0810063423_texture_texture_0_Mat_BaseColor",
			"sampler": 0,
			"source": 0
		}
	]
}