{
	"asset":
	{
		"version": "2.0",
		"generator": "Unreal Engine 5.6.1"
	},
	"scene": 0,
	"accessors": [
		{
			"bufferView": 0,
			"count": 144,
			"type": "SCALAR",
			"componentType": 5121
		},
		{
			"bufferView": 1,
			"count": 50,
			"type": "VEC3",
			"componentType": 5126,
			"min": [ -0.110228933, 0.0115059623, -0.109889559 ],
			"max": [ 0.110228933, 6.14958525, 0.109889559 ]
		},
		{
			"bufferView": 2,
			"count": 50,
			"type": "VEC3",
			"componentType": 5126
		},
		{
			"bufferView": 3,
			"count": 50,
			"type": "VEC4",
			"componentType": 5126
		},
		{
			"bufferView": 4,
			"count": 50,
			"type": "VEC2",
			"componentType": 5126
		},
		{
			"bufferView": 5,
			"count": 50,
			"type": "VEC2",
			"componentType": 5126
		},
		{
			"bufferView": 6,
			"count": 432,
			"type": "SCALAR",
			"componentType": 5121
		},
		{
			"bufferView": 7,
			"count": 150,
			"type": "VEC3",
			"componentType": 5126,
			"min": [ -0.109680265, 3.99680272e-17, -0.109370537 ],
			"max": [ 0.109000906, 6.1610918, 0.109310567 ]
		},
		{
			"bufferView": 8,
			"count": 150,
			"type": "VEC3",
			"componentType": 5126
		},
		{
			"bufferView": 9,
			"count": 150,
			"type": "VEC4",
			"componentType": 5126
		},
		{
			"bufferView": 10,
			"count": 150,
			"type": "VEC2",
			"componentType": 5126
		},
		{
			"bufferView": 11,
			"count": 150,
			"type": "VEC2",
			"componentType": 5126
		}
	],
	"buffers": [
		{
			"uri": "SM_log_01.bin",
			"byteLength": 11776
		}
	],
	"bufferViews": [
		{
			"buffer": 0,
			"byteLength": 144,
			"target": 34963
		},
		{
			"buffer": 0,
			"byteLength": 600,
			"byteOffset": 144,
			"target": 34962
		},
		{
			"buffer": 0,
			"byteLength": 600,
			"byteOffset": 744,
			"target": 34962
		},
		{
			"buffer": 0,
			"byteLength": 800,
			"byteOffset": 1344,
			"target": 34962
		},
		{
			"buffer": 0,
			"byteLength": 400,
			"byteOffset": 2144,
			"target": 34962
		},
		{
			"buffer": 0,
			"byteLength": 400,
			"byteOffset": 2544,
			"target": 34962
		},
		{
			"buffer": 0,
			"byteLength": 432,
			"byteOffset": 2944,
			"target": 34963
		},
		{
			"buffer": 0,
			"byteLength": 1800,
			"byteOffset": 3376,
			"target": 34962
		},
		{
			"buffer": 0,
			"byteLength": 1800,
			"byteOffset": 5176,
			"target": 34962
		},
		{
			"buffer": 0,
			"byteLength": 2400,
			"byteOffset": 6976,
			"target": 34962
		},
		{
			"buffer": 0,
			"byteLength": 1200,
			"byteOffset": 9376,
			"target": 34962
		},
		{
			"buffer": 0,
			"byteLength": 1200,
			"byteOffset": 10576,
			"target": 34962
		}
	],
	"images": [
		{
			"uri": "MI_Atlas_01_MetallicRoughness.png"
		},
		{
			"uri": "MI_Log_props_01_MetallicRoughness.png"
		},
		{
			"uri": "T_Atlas_C.png"
		},
		{
			"uri": "T_Atlas_N.png"
		},
		{
			"uri": "T_Atlas_M.png"
		},
		{
			"uri": "T_Log_Props_C.png"
		},
		{
			"uri": "T_Log_Props_N.png"
		},
		{
			"uri": "T_Log_Props_M.png"
		}
	],
	"materials": [
		{
			"name": "MI_Atlas_01",
			"pbrMetallicRoughness":
			{
				"baseColorTexture":
				{
					"index": 0
				},
				"metallicRoughnessTexture":
				{
					"index": 1
				}
			},
			"normalTexture":
			{
				"index": 2
			},
			"occlusionTexture":
			{
				"index": 3
			}
		},
		{
			"name": "MI_Log_props_01",
			"pbrMetallicRoughness":
			{
				"baseColorTexture":
				{
					"index": 4
				},
				"metallicRoughnessTexture":
				{
					"index": 5
				}
			},
			"normalTexture":
			{
				"index": 6
			},
			"occlusionTexture":
			{
				"index": 7
			}
		}
	],
	"meshes": [
		{
			"name": "SM_log_01",
			"primitives": [
				{
					"attributes":
					{
						"POSITION": 1,
						"NORMAL": 2,
						"TANGENT": 3,
						"TEXCOORD_0": 4,
						"TEXCOORD_1": 5
					},
					"indices": 0,
					"material": 0
				},
				{
					"attributes":
					{
						"POSITION": 7,
						"NORMAL": 8,
						"TANGENT": 9,
						"TEXCOORD_0": 10,
						"TEXCOORD_1": 11
					},
					"indices": 6,
					"material": 1
				}
			]
		}
	],
	"nodes": [
		{
			"mesh": 0
		}
	],
	"samplers": [
		{
			"minFilter": 9987,
			"magFilter": 9729
		}
	],
	"scenes": [
		{
			"nodes": [ 0 ]
		}
	],
	"textures": [
		{
			"name": "T_Atlas_C",
			"sampler": 0,
			"source": 2
		},
		{
			"name": "MI_Atlas_01_MetallicRoughness",
			"sampler": 0,
			"source": 0
		},
		{
			"name": "T_Atlas_N",
			"sampler": 0,
			"source": 3
		},
		{
			"name": "T_Atlas_M",
			"sampler": 0,
			"source": 4
		},
		{
			"name": "T_Log_Props_C",
			"sampler": 0,
			"source": 5
		},
		{
			"name": "MI_Log_props_01_MetallicRoughness",
			"sampler": 0,
			"source": 1
		},
		{
			"name": "T_Log_Props_N",
			"sampler": 0,
			"source": 6
		},
		{
			"name": "T_Log_Props_M",
			"sampler": 0,
			"source": 7
		}
	]
}