{
	"asset":
	{
		"version": "2.0",
		"generator": "Unreal Engine 5.6.1"
	},
	"scene": 0,
	"accessors": [
		{
			"bufferView": 0,
			"count": 612,
			"type": "SCALAR",
			"componentType": 5121
		},
		{
			"bufferView": 1,
			"count": 124,
			"type": "VEC3",
			"componentType": 5126,
			"min": [ -0.818325579, -0.414982051, -0.626046121 ],
			"max": [ 0.569280565, 0.403661638, 0.268891811 ]
		},
		{
			"bufferView": 2,
			"count": 124,
			"type": "VEC3",
			"componentType": 5126
		},
		{
			"bufferView": 3,
			"count": 124,
			"type": "VEC4",
			"componentType": 5126
		},
		{
			"bufferView": 4,
			"count": 124,
			"type": "VEC2",
			"componentType": 5126
		},
		{
			"bufferView": 5,
			"count": 124,
			"type": "VEC2",
			"componentType": 5126
		}
	],
	"buffers": [
		{
			"uri": "SM_Stone3.bin",
			"byteLength": 7556
		}
	],
	"bufferViews": [
		{
			"buffer": 0,
			"byteLength": 612,
			"target": 34963
		},
		{
			"buffer": 0,
			"byteLength": 1488,
			"byteOffset": 612,
			"target": 34962
		},
		{
			"buffer": 0,
			"byteLength": 1488,
			"byteOffset": 2100,
			"target": 34962
		},
		{
			"buffer": 0,
			"byteLength": 1984,
			"byteOffset": 3588,
			"target": 34962
		},
		{
			"buffer": 0,
			"byteLength": 992,
			"byteOffset": 5572,
			"target": 34962
		},
		{
			"buffer": 0,
			"byteLength": 992,
			"byteOffset": 6564,
			"target": 34962
		}
	],
	"images": [
		{
			"uri": "MI_Rocks_MetallicRoughness.png"
		},
		{
			"uri": "T_Rocks_C.png"
		},
		{
			"uri": "T_Rocks_N.png"
		},
		{
			"uri": "T_Rocks_M.png"
		}
	],
	"materials": [
		{
			"name": "MI_Rocks",
			"pbrMetallicRoughness":
			{
				"baseColorTexture":
				{
					"index": 0
				},
				"metallicRoughnessTexture":
				{
					"index": 1
				}
			},
			"normalTexture":
			{
				"index": 2
			},
			"occlusionTexture":
			{
				"index": 3
			}
		}
	],
	"meshes": [
		{
			"name": "SM_Stone3",
			"primitives": [
				{
					"attributes":
					{
						"POSITION": 1,
						"NORMAL": 2,
						"TANGENT": 3,
						"TEXCOORD_0": 4,
						"TEXCOORD_1": 5
					},
					"indices": 0,
					"material": 0
				}
			]
		}
	],
	"nodes": [
		{
			"mesh": 0
		}
	],
	"samplers": [
		{
			"minFilter": 9987,
			"magFilter": 9729
		}
	],
	"scenes": [
		{
			"nodes": [ 0 ]
		}
	],
	"textures": [
		{
			"name": "T_Rocks_C",
			"sampler": 0,
			"source": 1
		},
		{
			"name": "MI_Rocks_MetallicRoughness",
			"sampler": 0,
			"source": 0
		},
		{
			"name": "T_Rocks_N",
			"sampler": 0,
			"source": 2
		},
		{
			"name": "T_Rocks_M",
			"sampler": 0,
			"source": 3
		}
	]
}