{
	"asset":
	{
		"version": "2.0",
		"generator": "Unreal Engine 5.6.1"
	},
	"scene": 0,
	"accessors": [
		{
			"bufferView": 0,
			"count": 13584,
			"type": "SCALAR",
			"componentType": 5123
		},
		{
			"bufferView": 1,
			"count": 3202,
			"type": "VEC3",
			"componentType": 5126,
			"min": [ -0.951473594, -0.249556884, -0.240123689 ],
			"max": [ 0.00472332956, 0.285605073, 0.240123674 ]
		},
		{
			"bufferView": 2,
			"count": 3202,
			"type": "VEC3",
			"componentType": 5126
		},
		{
			"bufferView": 3,
			"count": 3202,
			"type": "VEC4",
			"componentType": 5126
		},
		{
			"bufferView": 4,
			"count": 3202,
			"type": "VEC2",
			"componentType": 5126
		}
	],
	"buffers": [
		{
			"uri": "MatineeCam_SM.bin",
			"byteLength": 180864
		}
	],
	"bufferViews": [
		{
			"buffer": 0,
			"byteLength": 27168,
			"target": 34963
		},
		{
			"buffer": 0,
			"byteLength": 38424,
			"byteOffset": 27168,
			"target": 34962
		},
		{
			"buffer": 0,
			"byteLength": 38424,
			"byteOffset": 65592,
			"target": 34962
		},
		{
			"buffer": 0,
			"byteLength": 51232,
			"byteOffset": 104016,
			"target": 34962
		},
		{
			"buffer": 0,
			"byteLength": 25616,
			"byteOffset": 155248,
			"target": 34962
		}
	],
	"images": [
		{
			"uri": "MatineeCam_D.png"
		}
	],
	"materials": [
		{
			"name": "MatineeCam_mat",
			"pbrMetallicRoughness":
			{
				"baseColorTexture":
				{
					"index": 0
				},
				"metallicFactor": 0,
				"roughnessFactor": 0.200000003
			}
		}
	],
	"meshes": [
		{
			"name": "MatineeCam_SM",
			"primitives": [
				{
					"attributes":
					{
						"POSITION": 1,
						"NORMAL": 2,
						"TANGENT": 3,
						"TEXCOORD_0": 4
					},
					"indices": 0,
					"material": 0
				}
			]
		}
	],
	"nodes": [
		{
			"mesh": 0
		}
	],
	"samplers": [
		{
			"minFilter": 9987,
			"magFilter": 9729
		}
	],
	"scenes": [
		{
			"nodes": [ 0 ]
		}
	],
	"textures": [
		{
			"name": "MatineeCam_D",
			"sampler": 0,
			"source": 0
		}
	]
}