{
	"asset":
	{
		"version": "2.0",
		"generator": "Unreal Engine 5.6.1"
	},
	"scene": 0,
	"accessors": [
		{
			"bufferView": 0,
			"count": 1590,
			"type": "SCALAR",
			"componentType": 5123
		},
		{
			"bufferView": 1,
			"count": 525,
			"type": "VEC3",
			"componentType": 5126,
			"min": [ -0.649950922, -7.77156121e-18, -0.512845039 ],
			"max": [ 0.629486263, 1.76049614, 0.511765301 ]
		},
		{
			"bufferView": 2,
			"count": 525,
			"type": "VEC3",
			"componentType": 5126
		},
		{
			"bufferView": 3,
			"count": 525,
			"type": "VEC4",
			"componentType": 5126
		},
		{
			"bufferView": 4,
			"count": 525,
			"type": "VEC2",
			"componentType": 5126
		},
		{
			"bufferView": 5,
			"count": 525,
			"type": "VEC2",
			"componentType": 5126
		},
		{
			"bufferView": 6,
			"count": 4488,
			"type": "SCALAR",
			"componentType": 5123
		},
		{
			"bufferView": 7,
			"count": 1428,
			"type": "VEC3",
			"componentType": 5126,
			"min": [ -0.701920331, 0.0087009808, -0.570016682 ],
			"max": [ 0.701920331, 1.77355063, 0.570016623 ]
		},
		{
			"bufferView": 8,
			"count": 1428,
			"type": "VEC3",
			"componentType": 5126
		},
		{
			"bufferView": 9,
			"count": 1428,
			"type": "VEC4",
			"componentType": 5126
		},
		{
			"bufferView": 10,
			"count": 1428,
			"type": "VEC2",
			"componentType": 5126
		},
		{
			"bufferView": 11,
			"count": 1428,
			"type": "VEC2",
			"componentType": 5126
		}
	],
	"buffers": [
		{
			"uri": "SM_barrel_box_01.bin",
			"byteLength": 121524
		}
	],
	"bufferViews": [
		{
			"buffer": 0,
			"byteLength": 3180,
			"target": 34963
		},
		{
			"buffer": 0,
			"byteLength": 6300,
			"byteOffset": 3180,
			"target": 34962
		},
		{
			"buffer": 0,
			"byteLength": 6300,
			"byteOffset": 9480,
			"target": 34962
		},
		{
			"buffer": 0,
			"byteLength": 8400,
			"byteOffset": 15780,
			"target": 34962
		},
		{
			"buffer": 0,
			"byteLength": 4200,
			"byteOffset": 24180,
			"target": 34962
		},
		{
			"buffer": 0,
			"byteLength": 4200,
			"byteOffset": 28380,
			"target": 34962
		},
		{
			"buffer": 0,
			"byteLength": 8976,
			"byteOffset": 32580,
			"target": 34963
		},
		{
			"buffer": 0,
			"byteLength": 17136,
			"byteOffset": 41556,
			"target": 34962
		},
		{
			"buffer": 0,
			"byteLength": 17136,
			"byteOffset": 58692,
			"target": 34962
		},
		{
			"buffer": 0,
			"byteLength": 22848,
			"byteOffset": 75828,
			"target": 34962
		},
		{
			"buffer": 0,
			"byteLength": 11424,
			"byteOffset": 98676,
			"target": 34962
		},
		{
			"buffer": 0,
			"byteLength": 11424,
			"byteOffset": 110100,
			"target": 34962
		}
	],
	"images": [
		{
			"uri": "MI_Wood_Trim_BaseColor.png"
		},
		{
			"uri": "MI_Wood_Trim_MetallicRoughness.png"
		},
		{
			"uri": "MI_Wood_Trim_Occlusion.png"
		},
		{
			"uri": "MI_Furniture_01_MetallicRoughness.png"
		},
		{
			"uri": "T_Wood_Trim_N.png"
		},
		{
			"uri": "T_Furniture_01_C.png"
		},
		{
			"uri": "T_Furniture_01_N.png"
		},
		{
			"uri": "T_Furniture_01_M.png"
		}
	],
	"materials": [
		{
			"name": "MI_Wood_Trim",
			"pbrMetallicRoughness":
			{
				"baseColorTexture":
				{
					"index": 0
				},
				"metallicRoughnessTexture":
				{
					"index": 1
				}
			},
			"normalTexture":
			{
				"index": 2
			},
			"occlusionTexture":
			{
				"index": 3
			}
		},
		{
			"name": "MI_Furniture_01",
			"pbrMetallicRoughness":
			{
				"baseColorTexture":
				{
					"index": 4
				},
				"metallicRoughnessTexture":
				{
					"index": 5
				}
			},
			"normalTexture":
			{
				"index": 6
			},
			"occlusionTexture":
			{
				"index": 7
			}
		}
	],
	"meshes": [
		{
			"name": "SM_barrel_box_01",
			"primitives": [
				{
					"attributes":
					{
						"POSITION": 1,
						"NORMAL": 2,
						"TANGENT": 3,
						"TEXCOORD_0": 4,
						"TEXCOORD_1": 5
					},
					"indices": 0,
					"material": 0
				},
				{
					"attributes":
					{
						"POSITION": 7,
						"NORMAL": 8,
						"TANGENT": 9,
						"TEXCOORD_0": 10,
						"TEXCOORD_1": 11
					},
					"indices": 6,
					"material": 1
				}
			]
		}
	],
	"nodes": [
		{
			"mesh": 0
		}
	],
	"samplers": [
		{
			"minFilter": 9987,
			"magFilter": 9729
		}
	],
	"scenes": [
		{
			"nodes": [ 0 ]
		}
	],
	"textures": [
		{
			"name": "MI_Wood_Trim_BaseColor",
			"sampler": 0,
			"source": 0
		},
		{
			"name": "MI_Wood_Trim_MetallicRoughness",
			"sampler": 0,
			"source": 1
		},
		{
			"name": "T_Wood_Trim_N",
			"sampler": 0,
			"source": 4
		},
		{
			"name": "MI_Wood_Trim_Occlusion",
			"sampler": 0,
			"source": 2
		},
		{
			"name": "T_Furniture_01_C",
			"sampler": 0,
			"source": 5
		},
		{
			"name": "MI_Furniture_01_MetallicRoughness",
			"sampler": 0,
			"source": 3
		},
		{
			"name": "T_Furniture_01_N",
			"sampler": 0,
			"source": 6
		},
		{
			"name": "T_Furniture_01_M",
			"sampler": 0,
			"source": 7
		}
	]
}