{
	"asset":
	{
		"version": "2.0",
		"generator": "Unreal Engine 5.6.1"
	},
	"scene": 0,
	"accessors": [
		{
			"bufferView": 0,
			"count": 67140,
			"type": "SCALAR",
			"componentType": 5123
		},
		{
			"bufferView": 1,
			"count": 27954,
			"type": "VEC3",
			"componentType": 5126,
			"min": [ -0.68230468, -5.10232162, -8.7600975 ],
			"max": [ 16.1943359, 9.22786617, 1.96494138 ]
		},
		{
			"bufferView": 2,
			"count": 27954,
			"type": "VEC3",
			"componentType": 5126
		},
		{
			"bufferView": 3,
			"count": 27954,
			"type": "VEC4",
			"componentType": 5126
		},
		{
			"bufferView": 4,
			"count": 27954,
			"type": "VEC2",
			"componentType": 5126
		},
		{
			"bufferView": 5,
			"count": 27954,
			"type": "VEC2",
			"componentType": 5126
		},
		{
			"bufferView": 6,
			"count": 46860,
			"type": "SCALAR",
			"componentType": 5123
		},
		{
			"bufferView": 7,
			"count": 14910,
			"type": "VEC3",
			"componentType": 5126,
			"min": [ 9.39300728, -4.04828596, -3.47521472 ],
			"max": [ 11.5189838, 9.91783428, -1.36115229 ]
		},
		{
			"bufferView": 8,
			"count": 14910,
			"type": "VEC3",
			"componentType": 5126
		},
		{
			"bufferView": 9,
			"count": 14910,
			"type": "VEC4",
			"componentType": 5126
		},
		{
			"bufferView": 10,
			"count": 14910,
			"type": "VEC2",
			"componentType": 5126
		},
		{
			"bufferView": 11,
			"count": 14910,
			"type": "VEC2",
			"componentType": 5126
		},
		{
			"bufferView": 12,
			"count": 1221,
			"type": "SCALAR",
			"componentType": 5123
		},
		{
			"bufferView": 13,
			"count": 436,
			"type": "VEC3",
			"componentType": 5126,
			"min": [ 9.52992153, -4.02035522, -3.37302732 ],
			"max": [ 11.4469919, 9.72144222, -1.4559375 ]
		},
		{
			"bufferView": 14,
			"count": 436,
			"type": "VEC3",
			"componentType": 5126
		},
		{
			"bufferView": 15,
			"count": 436,
			"type": "VEC4",
			"componentType": 5126
		},
		{
			"bufferView": 16,
			"count": 436,
			"type": "VEC2",
			"componentType": 5126
		},
		{
			"bufferView": 17,
			"count": 436,
			"type": "VEC2",
			"componentType": 5126
		},
		{
			"bufferView": 18,
			"count": 49836,
			"type": "SCALAR",
			"componentType": 5123
		},
		{
			"bufferView": 19,
			"count": 14666,
			"type": "VEC3",
			"componentType": 5126,
			"min": [ 4.44902325, -4.09979582, -7.32886696 ],
			"max": [ 15.6473045, 1.0843091, -0.790820301 ]
		},
		{
			"bufferView": 20,
			"count": 14666,
			"type": "VEC3",
			"componentType": 5126
		},
		{
			"bufferView": 21,
			"count": 14666,
			"type": "VEC4",
			"componentType": 5126
		},
		{
			"bufferView": 22,
			"count": 14666,
			"type": "VEC2",
			"componentType": 5126
		},
		{
			"bufferView": 23,
			"count": 14666,
			"type": "VEC2",
			"componentType": 5126
		},
		{
			"bufferView": 24,
			"count": 24,
			"type": "SCALAR",
			"componentType": 5121
		},
		{
			"bufferView": 25,
			"count": 16,
			"type": "VEC3",
			"componentType": 5126,
			"min": [ 1.87679684, -2.50128341, -3.85080075 ],
			"max": [ 11.7821875, -0.74075681, -0.132714838 ]
		},
		{
			"bufferView": 26,
			"count": 16,
			"type": "VEC3",
			"componentType": 5126
		},
		{
			"bufferView": 27,
			"count": 16,
			"type": "VEC4",
			"componentType": 5126
		},
		{
			"bufferView": 28,
			"count": 16,
			"type": "VEC2",
			"componentType": 5126
		},
		{
			"bufferView": 29,
			"count": 16,
			"type": "VEC2",
			"componentType": 5126
		},
		{
			"bufferView": 30,
			"count": 453120,
			"type": "SCALAR",
			"componentType": 5125
		},
		{
			"bufferView": 31,
			"count": 121114,
			"type": "VEC3",
			"componentType": 5126,
			"min": [ 0.177031249, -4.07488537, -7.79273415 ],
			"max": [ 15.530859, 2.17390871, -0.0447265618 ]
		},
		{
			"bufferView": 32,
			"count": 121114,
			"type": "VEC3",
			"componentType": 5126
		},
		{
			"bufferView": 33,
			"count": 121114,
			"type": "VEC4",
			"componentType": 5126
		},
		{
			"bufferView": 34,
			"count": 121114,
			"type": "VEC2",
			"componentType": 5126
		},
		{
			"bufferView": 35,
			"count": 121114,
			"type": "VEC2",
			"componentType": 5126
		},
		{
			"bufferView": 36,
			"count": 115104,
			"type": "SCALAR",
			"componentType": 5123
		},
		{
			"bufferView": 37,
			"count": 36624,
			"type": "VEC3",
			"componentType": 5126,
			"min": [ -0.488398433, -0.261103511, -8.55175781 ],
			"max": [ 16.0004292, 8.65330505, 0.552382827 ]
		},
		{
			"bufferView": 38,
			"count": 36624,
			"type": "VEC3",
			"componentType": 5126
		},
		{
			"bufferView": 39,
			"count": 36624,
			"type": "VEC4",
			"componentType": 5126
		},
		{
			"bufferView": 40,
			"count": 36624,
			"type": "VEC2",
			"componentType": 5126
		},
		{
			"bufferView": 41,
			"count": 36624,
			"type": "VEC2",
			"componentType": 5126
		},
		{
			"bufferView": 42,
			"count": 1728,
			"type": "SCALAR",
			"componentType": 5123
		},
		{
			"bufferView": 43,
			"count": 412,
			"type": "VEC3",
			"componentType": 5126,
			"min": [ 1.25316405, -3.22219968, -7.25322247 ],
			"max": [ 15.133007, -3.00004148, -1.68378901 ]
		},
		{
			"bufferView": 44,
			"count": 412,
			"type": "VEC3",
			"componentType": 5126
		},
		{
			"bufferView": 45,
			"count": 412,
			"type": "VEC4",
			"componentType": 5126
		},
		{
			"bufferView": 46,
			"count": 412,
			"type": "VEC2",
			"componentType": 5126
		},
		{
			"bufferView": 47,
			"count": 412,
			"type": "VEC2",
			"componentType": 5126
		},
		{
			"bufferView": 48,
			"count": 48,
			"type": "SCALAR",
			"componentType": 5121
		},
		{
			"bufferView": 49,
			"count": 32,
			"type": "VEC3",
			"componentType": 5126,
			"min": [ 1.26320314, -3.02133226, -7.24453115 ],
			"max": [ 15.1243353, -2.96005297, -1.69253898 ]
		},
		{
			"bufferView": 50,
			"count": 32,
			"type": "VEC3",
			"componentType": 5126
		},
		{
			"bufferView": 51,
			"count": 32,
			"type": "VEC4",
			"componentType": 5126
		},
		{
			"bufferView": 52,
			"count": 32,
			"type": "VEC2",
			"componentType": 5126
		},
		{
			"bufferView": 53,
			"count": 32,
			"type": "VEC2",
			"componentType": 5126
		},
		{
			"bufferView": 54,
			"count": 7488,
			"type": "SCALAR",
			"componentType": 5123
		},
		{
			"bufferView": 55,
			"count": 1940,
			"type": "VEC3",
			"componentType": 5126,
			"min": [ 1.22714841, -3.45990229, -7.28976536 ],
			"max": [ 15.1695309, -3.18840384, -1.6526171 ]
		},
		{
			"bufferView": 56,
			"count": 1940,
			"type": "VEC3",
			"componentType": 5126
		},
		{
			"bufferView": 57,
			"count": 1940,
			"type": "VEC4",
			"componentType": 5126
		},
		{
			"bufferView": 58,
			"count": 1940,
			"type": "VEC2",
			"componentType": 5126
		},
		{
			"bufferView": 59,
			"count": 1940,
			"type": "VEC2",
			"componentType": 5126
		},
		{
			"bufferView": 60,
			"count": 432,
			"type": "SCALAR",
			"componentType": 5121
		},
		{
			"bufferView": 61,
			"count": 125,
			"type": "VEC3",
			"componentType": 5126,
			"min": [ 12.1561718, -3.67133594, -5.61296844 ],
			"max": [ 12.4780073, -3.06778383, -4.99130869 ]
		},
		{
			"bufferView": 62,
			"count": 125,
			"type": "VEC3",
			"componentType": 5126
		},
		{
			"bufferView": 63,
			"count": 125,
			"type": "VEC4",
			"componentType": 5126
		},
		{
			"bufferView": 64,
			"count": 125,
			"type": "VEC2",
			"componentType": 5126
		},
		{
			"bufferView": 65,
			"count": 125,
			"type": "VEC2",
			"componentType": 5126
		},
		{
			"bufferView": 66,
			"count": 1998,
			"type": "SCALAR",
			"componentType": 5123
		},
		{
			"bufferView": 67,
			"count": 732,
			"type": "VEC3",
			"componentType": 5126,
			"min": [ -0.247890621, -4.04818821, -8.0018158 ],
			"max": [ 15.7542181, -0.048188474, 0.0246289056 ]
		},
		{
			"bufferView": 68,
			"count": 732,
			"type": "VEC3",
			"componentType": 5126
		},
		{
			"bufferView": 69,
			"count": 732,
			"type": "VEC4",
			"componentType": 5126
		},
		{
			"bufferView": 70,
			"count": 732,
			"type": "VEC2",
			"componentType": 5126
		},
		{
			"bufferView": 71,
			"count": 732,
			"type": "VEC2",
			"componentType": 5126
		},
		{
			"bufferView": 72,
			"count": 1320,
			"type": "SCALAR",
			"componentType": 5123
		},
		{
			"bufferView": 73,
			"count": 360,
			"type": "VEC3",
			"componentType": 5126,
			"min": [ -0.13195312, -4.03143311, -7.94624996 ],
			"max": [ 15.8680468, -0.0816015601, 0.0537499972 ]
		},
		{
			"bufferView": 74,
			"count": 360,
			"type": "VEC3",
			"componentType": 5126
		},
		{
			"bufferView": 75,
			"count": 360,
			"type": "VEC4",
			"componentType": 5126
		},
		{
			"bufferView": 76,
			"count": 360,
			"type": "VEC2",
			"componentType": 5126
		},
		{
			"bufferView": 77,
			"count": 360,
			"type": "VEC2",
			"componentType": 5126
		},
		{
			"bufferView": 78,
			"count": 1008,
			"type": "SCALAR",
			"componentType": 5123
		},
		{
			"bufferView": 79,
			"count": 288,
			"type": "VEC3",
			"componentType": 5126,
			"min": [ -0.256210923, -2.57921863, -7.96165991 ],
			"max": [ 15.7344923, -1.46269524, 0.00873046834 ]
		},
		{
			"bufferView": 80,
			"count": 288,
			"type": "VEC3",
			"componentType": 5126
		},
		{
			"bufferView": 81,
			"count": 288,
			"type": "VEC4",
			"componentType": 5126
		},
		{
			"bufferView": 82,
			"count": 288,
			"type": "VEC2",
			"componentType": 5126
		},
		{
			"bufferView": 83,
			"count": 288,
			"type": "VEC2",
			"componentType": 5126
		},
		{
			"bufferView": 84,
			"count": 576,
			"type": "SCALAR",
			"componentType": 5121
		},
		{
			"bufferView": 85,
			"count": 240,
			"type": "VEC3",
			"componentType": 5126,
			"min": [ -0.245781243, -5.04818821, -7.99968719 ],
			"max": [ 15.7542181, -4.04818821, 0.000312499993 ]
		},
		{
			"bufferView": 86,
			"count": 240,
			"type": "VEC3",
			"componentType": 5126
		},
		{
			"bufferView": 87,
			"count": 240,
			"type": "VEC4",
			"componentType": 5126
		},
		{
			"bufferView": 88,
			"count": 240,
			"type": "VEC2",
			"componentType": 5126
		},
		{
			"bufferView": 89,
			"count": 240,
			"type": "VEC2",
			"componentType": 5126
		}
	],
	"buffers": [
		{
			"uri": "SM_House_village_02_Merged.bin",
			"byteLength": 14712512
		}
	],
	"bufferViews": [
		{
			"buffer": 0,
			"byteLength": 134280,
			"target": 34963
		},
		{
			"buffer": 0,
			"byteLength": 335448,
			"byteOffset": 134280,
			"target": 34962
		},
		{
			"buffer": 0,
			"byteLength": 335448,
			"byteOffset": 469728,
			"target": 34962
		},
		{
			"buffer": 0,
			"byteLength": 447264,
			"byteOffset": 805176,
			"target": 34962
		},
		{
			"buffer": 0,
			"byteLength": 223632,
			"byteOffset": 1252440,
			"target": 34962
		},
		{
			"buffer": 0,
			"byteLength": 223632,
			"byteOffset": 1476072,
			"target": 34962
		},
		{
			"buffer": 0,
			"byteLength": 93720,
			"byteOffset": 1699704,
			"target": 34963
		},
		{
			"buffer": 0,
			"byteLength": 178920,
			"byteOffset": 1793424,
			"target": 34962
		},
		{
			"buffer": 0,
			"byteLength": 178920,
			"byteOffset": 1972344,
			"target": 34962
		},
		{
			"buffer": 0,
			"byteLength": 238560,
			"byteOffset": 2151264,
			"target": 34962
		},
		{
			"buffer": 0,
			"byteLength": 119280,
			"byteOffset": 2389824,
			"target": 34962
		},
		{
			"buffer": 0,
			"byteLength": 119280,
			"byteOffset": 2509104,
			"target": 34962
		},
		{
			"buffer": 0,
			"byteLength": 2442,
			"byteOffset": 2628384,
			"target": 34963
		},
		{
			"buffer": 0,
			"byteLength": 5232,
			"byteOffset": 2630828,
			"target": 34962
		},
		{
			"buffer": 0,
			"byteLength": 5232,
			"byteOffset": 2636060,
			"target": 34962
		},
		{
			"buffer": 0,
			"byteLength": 6976,
			"byteOffset": 2641292,
			"target": 34962
		},
		{
			"buffer": 0,
			"byteLength": 3488,
			"byteOffset": 2648268,
			"target": 34962
		},
		{
			"buffer": 0,
			"byteLength": 3488,
			"byteOffset": 2651756,
			"target": 34962
		},
		{
			"buffer": 0,
			"byteLength": 99672,
			"byteOffset": 2655244,
			"target": 34963
		},
		{
			"buffer": 0,
			"byteLength": 175992,
			"byteOffset": 2754916,
			"target": 34962
		},
		{
			"buffer": 0,
			"byteLength": 175992,
			"byteOffset": 2930908,
			"target": 34962
		},
		{
			"buffer": 0,
			"byteLength": 234656,
			"byteOffset": 3106900,
			"target": 34962
		},
		{
			"buffer": 0,
			"byteLength": 117328,
			"byteOffset": 3341556,
			"target": 34962
		},
		{
			"buffer": 0,
			"byteLength": 117328,
			"byteOffset": 3458884,
			"target": 34962
		},
		{
			"buffer": 0,
			"byteLength": 24,
			"byteOffset": 3576212,
			"target": 34963
		},
		{
			"buffer": 0,
			"byteLength": 192,
			"byteOffset": 3576236,
			"target": 34962
		},
		{
			"buffer": 0,
			"byteLength": 192,
			"byteOffset": 3576428,
			"target": 34962
		},
		{
			"buffer": 0,
			"byteLength": 256,
			"byteOffset": 3576620,
			"target": 34962
		},
		{
			"buffer": 0,
			"byteLength": 128,
			"byteOffset": 3576876,
			"target": 34962
		},
		{
			"buffer": 0,
			"byteLength": 128,
			"byteOffset": 3577004,
			"target": 34962
		},
		{
			"buffer": 0,
			"byteLength": 1812480,
			"byteOffset": 3577132,
			"target": 34963
		},
		{
			"buffer": 0,
			"byteLength": 1453368,
			"byteOffset": 5389612,
			"target": 34962
		},
		{
			"buffer": 0,
			"byteLength": 1453368,
			"byteOffset": 6842980,
			"target": 34962
		},
		{
			"buffer": 0,
			"byteLength": 1937824,
			"byteOffset": 8296348,
			"target": 34962
		},
		{
			"buffer": 0,
			"byteLength": 968912,
			"byteOffset": 10234172,
			"target": 34962
		},
		{
			"buffer": 0,
			"byteLength": 968912,
			"byteOffset": 11203084,
			"target": 34962
		},
		{
			"buffer": 0,
			"byteLength": 230208,
			"byteOffset": 12171996,
			"target": 34963
		},
		{
			"buffer": 0,
			"byteLength": 439488,
			"byteOffset": 12402204,
			"target": 34962
		},
		{
			"buffer": 0,
			"byteLength": 439488,
			"byteOffset": 12841692,
			"target": 34962
		},
		{
			"buffer": 0,
			"byteLength": 585984,
			"byteOffset": 13281180,
			"target": 34962
		},
		{
			"buffer": 0,
			"byteLength": 292992,
			"byteOffset": 13867164,
			"target": 34962
		},
		{
			"buffer": 0,
			"byteLength": 292992,
			"byteOffset": 14160156,
			"target": 34962
		},
		{
			"buffer": 0,
			"byteLength": 3456,
			"byteOffset": 14453148,
			"target": 34963
		},
		{
			"buffer": 0,
			"byteLength": 4944,
			"byteOffset": 14456604,
			"target": 34962
		},
		{
			"buffer": 0,
			"byteLength": 4944,
			"byteOffset": 14461548,
			"target": 34962
		},
		{
			"buffer": 0,
			"byteLength": 6592,
			"byteOffset": 14466492,
			"target": 34962
		},
		{
			"buffer": 0,
			"byteLength": 3296,
			"byteOffset": 14473084,
			"target": 34962
		},
		{
			"buffer": 0,
			"byteLength": 3296,
			"byteOffset": 14476380,
			"target": 34962
		},
		{
			"buffer": 0,
			"byteLength": 48,
			"byteOffset": 14479676,
			"target": 34963
		},
		{
			"buffer": 0,
			"byteLength": 384,
			"byteOffset": 14479724,
			"target": 34962
		},
		{
			"buffer": 0,
			"byteLength": 384,
			"byteOffset": 14480108,
			"target": 34962
		},
		{
			"buffer": 0,
			"byteLength": 512,
			"byteOffset": 14480492,
			"target": 34962
		},
		{
			"buffer": 0,
			"byteLength": 256,
			"byteOffset": 14481004,
			"target": 34962
		},
		{
			"buffer": 0,
			"byteLength": 256,
			"byteOffset": 14481260,
			"target": 34962
		},
		{
			"buffer": 0,
			"byteLength": 14976,
			"byteOffset": 14481516,
			"target": 34963
		},
		{
			"buffer": 0,
			"byteLength": 23280,
			"byteOffset": 14496492,
			"target": 34962
		},
		{
			"buffer": 0,
			"byteLength": 23280,
			"byteOffset": 14519772,
			"target": 34962
		},
		{
			"buffer": 0,
			"byteLength": 31040,
			"byteOffset": 14543052,
			"target": 34962
		},
		{
			"buffer": 0,
			"byteLength": 15520,
			"byteOffset": 14574092,
			"target": 34962
		},
		{
			"buffer": 0,
			"byteLength": 15520,
			"byteOffset": 14589612,
			"target": 34962
		},
		{
			"buffer": 0,
			"byteLength": 432,
			"byteOffset": 14605132,
			"target": 34963
		},
		{
			"buffer": 0,
			"byteLength": 1500,
			"byteOffset": 14605564,
			"target": 34962
		},
		{
			"buffer": 0,
			"byteLength": 1500,
			"byteOffset": 14607064,
			"target": 34962
		},
		{
			"buffer": 0,
			"byteLength": 2000,
			"byteOffset": 14608564,
			"target": 34962
		},
		{
			"buffer": 0,
			"byteLength": 1000,
			"byteOffset": 14610564,
			"target": 34962
		},
		{
			"buffer": 0,
			"byteLength": 1000,
			"byteOffset": 14611564,
			"target": 34962
		},
		{
			"buffer": 0,
			"byteLength": 3996,
			"byteOffset": 14612564,
			"target": 34963
		},
		{
			"buffer": 0,
			"byteLength": 8784,
			"byteOffset": 14616560,
			"target": 34962
		},
		{
			"buffer": 0,
			"byteLength": 8784,
			"byteOffset": 14625344,
			"target": 34962
		},
		{
			"buffer": 0,
			"byteLength": 11712,
			"byteOffset": 14634128,
			"target": 34962
		},
		{
			"buffer": 0,
			"byteLength": 5856,
			"byteOffset": 14645840,
			"target": 34962
		},
		{
			"buffer": 0,
			"byteLength": 5856,
			"byteOffset": 14651696,
			"target": 34962
		},
		{
			"buffer": 0,
			"byteLength": 2640,
			"byteOffset": 14657552,
			"target": 34963
		},
		{
			"buffer": 0,
			"byteLength": 4320,
			"byteOffset": 14660192,
			"target": 34962
		},
		{
			"buffer": 0,
			"byteLength": 4320,
			"byteOffset": 14664512,
			"target": 34962
		},
		{
			"buffer": 0,
			"byteLength": 5760,
			"byteOffset": 14668832,
			"target": 34962
		},
		{
			"buffer": 0,
			"byteLength": 2880,
			"byteOffset": 14674592,
			"target": 34962
		},
		{
			"buffer": 0,
			"byteLength": 2880,
			"byteOffset": 14677472,
			"target": 34962
		},
		{
			"buffer": 0,
			"byteLength": 2016,
			"byteOffset": 14680352,
			"target": 34963
		},
		{
			"buffer": 0,
			"byteLength": 3456,
			"byteOffset": 14682368,
			"target": 34962
		},
		{
			"buffer": 0,
			"byteLength": 3456,
			"byteOffset": 14685824,
			"target": 34962
		},
		{
			"buffer": 0,
			"byteLength": 4608,
			"byteOffset": 14689280,
			"target": 34962
		},
		{
			"buffer": 0,
			"byteLength": 2304,
			"byteOffset": 14693888,
			"target": 34962
		},
		{
			"buffer": 0,
			"byteLength": 2304,
			"byteOffset": 14696192,
			"target": 34962
		},
		{
			"buffer": 0,
			"byteLength": 576,
			"byteOffset": 14698496,
			"target": 34963
		},
		{
			"buffer": 0,
			"byteLength": 2880,
			"byteOffset": 14699072,
			"target": 34962
		},
		{
			"buffer": 0,
			"byteLength": 2880,
			"byteOffset": 14701952,
			"target": 34962
		},
		{
			"buffer": 0,
			"byteLength": 3840,
			"byteOffset": 14704832,
			"target": 34962
		},
		{
			"buffer": 0,
			"byteLength": 1920,
			"byteOffset": 14708672,
			"target": 34962
		},
		{
			"buffer": 0,
			"byteLength": 1920,
			"byteOffset": 14710592,
			"target": 34962
		}
	],
	"images": [
		{
			"uri": "MI_Wood_Trim_BaseColor.png"
		},
		{
			"uri": "MI_Wood_Trim_MetallicRoughness.png"
		},
		{
			"uri": "MI_Wood_Trim_Occlusion.png"
		},
		{
			"uri": "MI_Stones_BaseColor.png"
		},
		{
			"uri": "MI_Stones_MetallicRoughness.png"
		},
		{
			"uri": "M_Styl_Wall_Brick_BaseColor.png"
		},
		{
			"uri": "M_Styl_Wall_Brick_MetallicRoughness.png"
		},
		{
			"uri": "M_Styl_Wall_Brick_Occlusion.png"
		},
		{
			"uri": "MI_Log_props_01_MetallicRoughness.png"
		},
		{
			"uri": "MI_Furniture_01_MetallicRoughness.png"
		},
		{
			"uri": "MI_Roof_MetallicRoughness.png"
		},
		{
			"uri": "MI_Candle_MetallicRoughness.png"
		},
		{
			"uri": "MI_Light_props_MetallicRoughness.png"
		},
		{
			"uri": "MI_Tool_01_MetallicRoughness.png"
		},
		{
			"uri": "MI_Styl_Wood_Planks_BaseColor.png"
		},
		{
			"uri": "MI_Styl_Wood_Planks_MetallicRoughness.png"
		},
		{
			"uri": "MI_Styl_Wood_Planks_Occlusion.png"
		},
		{
			"uri": "M_Wood_Floor_Inst_BaseColor.png"
		},
		{
			"uri": "M_Wood_Floor_Inst_MetallicRoughness.png"
		},
		{
			"uri": "M_Wood_Floor_Inst_Normal.png"
		},
		{
			"uri": "MI_Glass_Normal.png"
		},
		{
			"uri": "MI_Styl_Wall_Brick_BaseColor.png"
		},
		{
			"uri": "MI_Styl_Wall_Brick_MetallicRoughness.png"
		},
		{
			"uri": "MI_Styl_Wall_Brick_Normal.png"
		},
		{
			"uri": "MI_Styl_Wall_Brick_Occlusion.png"
		},
		{
			"uri": "T_Wood_Trim_N.png"
		},
		{
			"uri": "T_Stone_N.png"
		},
		{
			"uri": "T_Log_Props_C.png"
		},
		{
			"uri": "T_Log_Props_N.png"
		},
		{
			"uri": "T_Log_Props_M.png"
		},
		{
			"uri": "T_Picture_C.png"
		},
		{
			"uri": "T_Furniture_01_C.png"
		},
		{
			"uri": "T_Furniture_01_N.png"
		},
		{
			"uri": "T_Furniture_01_M.png"
		},
		{
			"uri": "T_Roof_C.png"
		},
		{
			"uri": "T_Roof_N.png"
		},
		{
			"uri": "T_Roof_M_Linear.png"
		},
		{
			"uri": "T_candle_C.png"
		},
		{
			"uri": "T_candle_N.png"
		},
		{
			"uri": "T_candle_M.png"
		},
		{
			"uri": "T_Light_C.png"
		},
		{
			"uri": "T_Light_N.png"
		},
		{
			"uri": "T_Light_M.png"
		},
		{
			"uri": "T_Tools_C.png"
		},
		{
			"uri": "T_Tools_N.png"
		},
		{
			"uri": "T_Tools_M.png"
		}
	],
	"materials": [
		{
			"name": "MI_Wood_Trim",
			"pbrMetallicRoughness":
			{
				"baseColorTexture":
				{
					"index": 0
				},
				"metallicRoughnessTexture":
				{
					"index": 1
				}
			},
			"normalTexture":
			{
				"index": 2
			},
			"occlusionTexture":
			{
				"index": 3
			}
		},
		{
			"name": "MI_Stones",
			"pbrMetallicRoughness":
			{
				"baseColorTexture":
				{
					"index": 4
				},
				"metallicRoughnessTexture":
				{
					"index": 5
				}
			},
			"normalTexture":
			{
				"index": 6
			}
		},
		{
			"name": "M_Styl_Wall_Brick",
			"pbrMetallicRoughness":
			{
				"baseColorTexture":
				{
					"index": 7
				},
				"metallicRoughnessTexture":
				{
					"index": 8
				}
			},
			"occlusionTexture":
			{
				"index": 9
			}
		},
		{
			"name": "MI_Log_props_01",
			"pbrMetallicRoughness":
			{
				"baseColorTexture":
				{
					"index": 10
				},
				"metallicRoughnessTexture":
				{
					"index": 11
				}
			},
			"normalTexture":
			{
				"index": 12
			},
			"occlusionTexture":
			{
				"index": 13
			}
		},
		{
			"name": "MI_Picture",
			"pbrMetallicRoughness":
			{
				"baseColorTexture":
				{
					"index": 14
				},
				"metallicFactor": 0
			}
		},
		{
			"name": "MI_Furniture_01",
			"pbrMetallicRoughness":
			{
				"baseColorTexture":
				{
					"index": 15
				},
				"metallicRoughnessTexture":
				{
					"index": 16
				}
			},
			"normalTexture":
			{
				"index": 17
			},
			"occlusionTexture":
			{
				"index": 18
			}
		},
		{
			"name": "MI_Roof",
			"pbrMetallicRoughness":
			{
				"baseColorTexture":
				{
					"index": 19
				},
				"metallicRoughnessTexture":
				{
					"index": 20
				}
			},
			"normalTexture":
			{
				"index": 21
			},
			"occlusionTexture":
			{
				"index": 22
			}
		},
		{
			"name": "MI_Candle",
			"pbrMetallicRoughness":
			{
				"baseColorTexture":
				{
					"index": 23
				},
				"metallicRoughnessTexture":
				{
					"index": 24
				}
			},
			"normalTexture":
			{
				"index": 25
			},
			"occlusionTexture":
			{
				"index": 26
			},
			"alphaMode": "MASK",
			"alphaCutoff": 0.333299994
		},
		{
			"name": "MI_Candle_light",
			"pbrMetallicRoughness":
			{
				"baseColorFactor": [ 0, 0, 0, 0.690196097 ],
				"metallicFactor": 0,
				"roughnessFactor": 0.5
			},
			"emissiveFactor": [ 1, 0.764705956, 0.313725501 ],
			"alphaMode": "BLEND",
			"doubleSided": true,
			"extensions":
			{
				"KHR_materials_ior":
				{
					"ior": 1
				}
			}
		},
		{
			"name": "MI_Light_props",
			"pbrMetallicRoughness":
			{
				"baseColorTexture":
				{
					"index": 27
				},
				"metallicRoughnessTexture":
				{
					"index": 28
				}
			},
			"normalTexture":
			{
				"index": 29
			},
			"occlusionTexture":
			{
				"index": 30
			}
		},
		{
			"name": "MI_Tool_01",
			"pbrMetallicRoughness":
			{
				"baseColorTexture":
				{
					"index": 31
				},
				"metallicRoughnessTexture":
				{
					"index": 32
				}
			},
			"normalTexture":
			{
				"index": 33
			},
			"occlusionTexture":
			{
				"index": 34
			}
		},
		{
			"name": "MI_Styl_Wood_Planks",
			"pbrMetallicRoughness":
			{
				"baseColorTexture":
				{
					"index": 35
				},
				"metallicRoughnessTexture":
				{
					"index": 36
				}
			},
			"occlusionTexture":
			{
				"index": 37
			}
		},
		{
			"name": "M_Wood_Floor_Inst",
			"pbrMetallicRoughness":
			{
				"baseColorTexture":
				{
					"index": 38
				},
				"metallicRoughnessTexture":
				{
					"index": 39
				}
			},
			"normalTexture":
			{
				"index": 40
			},
			"occlusionTexture":
			{
				"index": 41
			}
		},
		{
			"name": "MI_Glass",
			"pbrMetallicRoughness":
			{
				"baseColorFactor": [ 0.0378840007, 0.0417999998, 0.0520830005, 1 ],
				"metallicFactor": 0,
				"roughnessFactor": 0.100000001
			},
			"normalTexture":
			{
				"index": 42
			},
			"doubleSided": true
		},
		{
			"name": "MI_Styl_Wall_Brick",
			"pbrMetallicRoughness":
			{
				"baseColorTexture":
				{
					"index": 43
				},
				"metallicRoughnessTexture":
				{
					"index": 44
				}
			},
			"normalTexture":
			{
				"index": 45
			},
			"occlusionTexture":
			{
				"index": 46
			}
		}
	],
	"meshes": [
		{
			"name": "SM_House_village_02_Merged",
			"primitives": [
				{
					"attributes":
					{
						"POSITION": 1,
						"NORMAL": 2,
						"TANGENT": 3,
						"TEXCOORD_0": 4,
						"TEXCOORD_1": 5
					},
					"indices": 0,
					"material": 0
				},
				{
					"attributes":
					{
						"POSITION": 7,
						"NORMAL": 8,
						"TANGENT": 9,
						"TEXCOORD_0": 10,
						"TEXCOORD_1": 11
					},
					"indices": 6,
					"material": 1
				},
				{
					"attributes":
					{
						"POSITION": 13,
						"NORMAL": 14,
						"TANGENT": 15,
						"TEXCOORD_0": 16,
						"TEXCOORD_1": 17
					},
					"indices": 12,
					"material": 2
				},
				{
					"attributes":
					{
						"POSITION": 19,
						"NORMAL": 20,
						"TANGENT": 21,
						"TEXCOORD_0": 22,
						"TEXCOORD_1": 23
					},
					"indices": 18,
					"material": 3
				},
				{
					"attributes":
					{
						"POSITION": 25,
						"NORMAL": 26,
						"TANGENT": 27,
						"TEXCOORD_0": 28,
						"TEXCOORD_1": 29
					},
					"indices": 24,
					"material": 4
				},
				{
					"attributes":
					{
						"POSITION": 31,
						"NORMAL": 32,
						"TANGENT": 33,
						"TEXCOORD_0": 34,
						"TEXCOORD_1": 35
					},
					"indices": 30,
					"material": 5
				},
				{
					"attributes":
					{
						"POSITION": 37,
						"NORMAL": 38,
						"TANGENT": 39,
						"TEXCOORD_0": 40,
						"TEXCOORD_1": 41
					},
					"indices": 36,
					"material": 6
				},
				{
					"attributes":
					{
						"POSITION": 43,
						"NORMAL": 44,
						"TANGENT": 45,
						"TEXCOORD_0": 46,
						"TEXCOORD_1": 47
					},
					"indices": 42,
					"material": 7
				},
				{
					"attributes":
					{
						"POSITION": 49,
						"NORMAL": 50,
						"TANGENT": 51,
						"TEXCOORD_0": 52,
						"TEXCOORD_1": 53
					},
					"indices": 48,
					"material": 8
				},
				{
					"attributes":
					{
						"POSITION": 55,
						"NORMAL": 56,
						"TANGENT": 57,
						"TEXCOORD_0": 58,
						"TEXCOORD_1": 59
					},
					"indices": 54,
					"material": 9
				},
				{
					"attributes":
					{
						"POSITION": 61,
						"NORMAL": 62,
						"TANGENT": 63,
						"TEXCOORD_0": 64,
						"TEXCOORD_1": 65
					},
					"indices": 60,
					"material": 10
				},
				{
					"attributes":
					{
						"POSITION": 67,
						"NORMAL": 68,
						"TANGENT": 69,
						"TEXCOORD_0": 70,
						"TEXCOORD_1": 71
					},
					"indices": 66,
					"material": 11
				},
				{
					"attributes":
					{
						"POSITION": 73,
						"NORMAL": 74,
						"TANGENT": 75,
						"TEXCOORD_0": 76,
						"TEXCOORD_1": 77
					},
					"indices": 72,
					"material": 12
				},
				{
					"attributes":
					{
						"POSITION": 79,
						"NORMAL": 80,
						"TANGENT": 81,
						"TEXCOORD_0": 82,
						"TEXCOORD_1": 83
					},
					"indices": 78,
					"material": 13
				},
				{
					"attributes":
					{
						"POSITION": 85,
						"NORMAL": 86,
						"TANGENT": 87,
						"TEXCOORD_0": 88,
						"TEXCOORD_1": 89
					},
					"indices": 84,
					"material": 14
				}
			]
		}
	],
	"nodes": [
		{
			"mesh": 0
		}
	],
	"samplers": [
		{
			"minFilter": 9987,
			"magFilter": 9729
		}
	],
	"scenes": [
		{
			"nodes": [ 0 ]
		}
	],
	"textures": [
		{
			"name": "MI_Wood_Trim_BaseColor",
			"sampler": 0,
			"source": 0
		},
		{
			"name": "MI_Wood_Trim_MetallicRoughness",
			"sampler": 0,
			"source": 1
		},
		{
			"name": "T_Wood_Trim_N",
			"sampler": 0,
			"source": 25
		},
		{
			"name": "MI_Wood_Trim_Occlusion",
			"sampler": 0,
			"source": 2
		},
		{
			"name": "MI_Stones_BaseColor",
			"sampler": 0,
			"source": 3
		},
		{
			"name": "MI_Stones_MetallicRoughness",
			"sampler": 0,
			"source": 4
		},
		{
			"name": "T_Stone_N",
			"sampler": 0,
			"source": 26
		},
		{
			"name": "M_Styl_Wall_Brick_BaseColor",
			"sampler": 0,
			"source": 5
		},
		{
			"name": "M_Styl_Wall_Brick_MetallicRoughness",
			"sampler": 0,
			"source": 6
		},
		{
			"name": "M_Styl_Wall_Brick_Occlusion",
			"sampler": 0,
			"source": 7
		},
		{
			"name": "T_Log_Props_C",
			"sampler": 0,
			"source": 27
		},
		{
			"name": "MI_Log_props_01_MetallicRoughness",
			"sampler": 0,
			"source": 8
		},
		{
			"name": "T_Log_Props_N",
			"sampler": 0,
			"source": 28
		},
		{
			"name": "T_Log_Props_M",
			"sampler": 0,
			"source": 29
		},
		{
			"name": "T_Picture_C",
			"sampler": 0,
			"source": 30
		},
		{
			"name": "T_Furniture_01_C",
			"sampler": 0,
			"source": 31
		},
		{
			"name": "MI_Furniture_01_MetallicRoughness",
			"sampler": 0,
			"source": 9
		},
		{
			"name": "T_Furniture_01_N",
			"sampler": 0,
			"source": 32
		},
		{
			"name": "T_Furniture_01_M",
			"sampler": 0,
			"source": 33
		},
		{
			"name": "T_Roof_C",
			"sampler": 0,
			"source": 34
		},
		{
			"name": "MI_Roof_MetallicRoughness",
			"sampler": 0,
			"source": 10
		},
		{
			"name": "T_Roof_N",
			"sampler": 0,
			"source": 35
		},
		{
			"name": "T_Roof_M_Linear",
			"sampler": 0,
			"source": 36
		},
		{
			"name": "T_candle_C",
			"sampler": 0,
			"source": 37
		},
		{
			"name": "MI_Candle_MetallicRoughness",
			"sampler": 0,
			"source": 11
		},
		{
			"name": "T_candle_N",
			"sampler": 0,
			"source": 38
		},
		{
			"name": "T_candle_M",
			"sampler": 0,
			"source": 39
		},
		{
			"name": "T_Light_C",
			"sampler": 0,
			"source": 40
		},
		{
			"name": "MI_Light_props_MetallicRoughness",
			"sampler": 0,
			"source": 12
		},
		{
			"name": "T_Light_N",
			"sampler": 0,
			"source": 41
		},
		{
			"name": "T_Light_M",
			"sampler": 0,
			"source": 42
		},
		{
			"name": "T_Tools_C",
			"sampler": 0,
			"source": 43
		},
		{
			"name": "MI_Tool_01_MetallicRoughness",
			"sampler": 0,
			"source": 13
		},
		{
			"name": "T_Tools_N",
			"sampler": 0,
			"source": 44
		},
		{
			"name": "T_Tools_M",
			"sampler": 0,
			"source": 45
		},
		{
			"name": "MI_Styl_Wood_Planks_BaseColor",
			"sampler": 0,
			"source": 14
		},
		{
			"name": "MI_Styl_Wood_Planks_MetallicRoughness",
			"sampler": 0,
			"source": 15
		},
		{
			"name": "MI_Styl_Wood_Planks_Occlusion",
			"sampler": 0,
			"source": 16
		},
		{
			"name": "M_Wood_Floor_Inst_BaseColor",
			"sampler": 0,
			"source": 17
		},
		{
			"name": "M_Wood_Floor_Inst_MetallicRoughness",
			"sampler": 0,
			"source": 18
		},
		{
			"name": "M_Wood_Floor_Inst_Normal",
			"sampler": 0,
			"source": 19
		},
		{
			"name": "M_Wood_Floor_Inst_Occlusion",
			"sampler": 0,
			"source": 16
		},
		{
			"name": "MI_Glass_Normal",
			"sampler": 0,
			"source": 20
		},
		{
			"name": "MI_Styl_Wall_Brick_BaseColor",
			"sampler": 0,
			"source": 21
		},
		{
			"name": "MI_Styl_Wall_Brick_MetallicRoughness",
			"sampler": 0,
			"source": 22
		},
		{
			"name": "MI_Styl_Wall_Brick_Normal",
			"sampler": 0,
			"source": 23
		},
		{
			"name": "MI_Styl_Wall_Brick_Occlusion",
			"sampler": 0,
			"source": 24
		}
	],
	"extensionsUsed": [
		"KHR_materials_ior"
	]
}