{
	"asset":
	{
		"version": "2.0",
		"generator": "Unreal Engine 5.6.1"
	},
	"scene": 0,
	"accessors": [
		{
			"bufferView": 0,
			"count": 186,
			"type": "SCALAR",
			"componentType": 5121
		},
		{
			"bufferView": 1,
			"count": 75,
			"type": "VEC3",
			"componentType": 5126,
			"min": [ -0.64062804, 0.00647175731, -0.00734121492 ],
			"max": [ 0.704406083, 3.93041039, 4.69525862 ]
		},
		{
			"bufferView": 2,
			"count": 75,
			"type": "VEC3",
			"componentType": 5126
		},
		{
			"bufferView": 3,
			"count": 75,
			"type": "VEC4",
			"componentType": 5126
		},
		{
			"bufferView": 4,
			"count": 75,
			"type": "VEC2",
			"componentType": 5126
		},
		{
			"bufferView": 5,
			"count": 75,
			"type": "VEC2",
			"componentType": 5126
		},
		{
			"bufferView": 6,
			"count": 1596,
			"type": "SCALAR",
			"componentType": 5123
		},
		{
			"bufferView": 7,
			"count": 684,
			"type": "VEC3",
			"componentType": 5126,
			"min": [ -0.77945286, 0.124786489, 0.00757228257 ],
			"max": [ 0.779384315, 4.01770306, 4.61718321 ]
		},
		{
			"bufferView": 8,
			"count": 684,
			"type": "VEC3",
			"componentType": 5126
		},
		{
			"bufferView": 9,
			"count": 684,
			"type": "VEC4",
			"componentType": 5126
		},
		{
			"bufferView": 10,
			"count": 684,
			"type": "VEC2",
			"componentType": 5126
		},
		{
			"bufferView": 11,
			"count": 684,
			"type": "VEC2",
			"componentType": 5126
		}
	],
	"buffers": [
		{
			"uri": "SM_ladder_01.bin",
			"byteLength": 45884
		}
	],
	"bufferViews": [
		{
			"buffer": 0,
			"byteLength": 186,
			"target": 34963
		},
		{
			"buffer": 0,
			"byteLength": 900,
			"byteOffset": 188,
			"target": 34962
		},
		{
			"buffer": 0,
			"byteLength": 900,
			"byteOffset": 1088,
			"target": 34962
		},
		{
			"buffer": 0,
			"byteLength": 1200,
			"byteOffset": 1988,
			"target": 34962
		},
		{
			"buffer": 0,
			"byteLength": 600,
			"byteOffset": 3188,
			"target": 34962
		},
		{
			"buffer": 0,
			"byteLength": 600,
			"byteOffset": 3788,
			"target": 34962
		},
		{
			"buffer": 0,
			"byteLength": 3192,
			"byteOffset": 4388,
			"target": 34963
		},
		{
			"buffer": 0,
			"byteLength": 8208,
			"byteOffset": 7580,
			"target": 34962
		},
		{
			"buffer": 0,
			"byteLength": 8208,
			"byteOffset": 15788,
			"target": 34962
		},
		{
			"buffer": 0,
			"byteLength": 10944,
			"byteOffset": 23996,
			"target": 34962
		},
		{
			"buffer": 0,
			"byteLength": 5472,
			"byteOffset": 34940,
			"target": 34962
		},
		{
			"buffer": 0,
			"byteLength": 5472,
			"byteOffset": 40412,
			"target": 34962
		}
	],
	"images": [
		{
			"uri": "MI_Wood_Trim_BaseColor.png"
		},
		{
			"uri": "MI_Wood_Trim_MetallicRoughness.png"
		},
		{
			"uri": "MI_Wood_Trim_Occlusion.png"
		},
		{
			"uri": "MI_Furniture_01_MetallicRoughness.png"
		},
		{
			"uri": "T_Wood_Trim_N.png"
		},
		{
			"uri": "T_Furniture_01_C.png"
		},
		{
			"uri": "T_Furniture_01_N.png"
		},
		{
			"uri": "T_Furniture_01_M.png"
		}
	],
	"materials": [
		{
			"name": "MI_Wood_Trim",
			"pbrMetallicRoughness":
			{
				"baseColorTexture":
				{
					"index": 0
				},
				"metallicRoughnessTexture":
				{
					"index": 1
				}
			},
			"normalTexture":
			{
				"index": 2
			},
			"occlusionTexture":
			{
				"index": 3
			}
		},
		{
			"name": "MI_Furniture_01",
			"pbrMetallicRoughness":
			{
				"baseColorTexture":
				{
					"index": 4
				},
				"metallicRoughnessTexture":
				{
					"index": 5
				}
			},
			"normalTexture":
			{
				"index": 6
			},
			"occlusionTexture":
			{
				"index": 7
			}
		}
	],
	"meshes": [
		{
			"name": "SM_ladder_01",
			"primitives": [
				{
					"attributes":
					{
						"POSITION": 1,
						"NORMAL": 2,
						"TANGENT": 3,
						"TEXCOORD_0": 4,
						"TEXCOORD_1": 5
					},
					"indices": 0,
					"material": 0
				},
				{
					"attributes":
					{
						"POSITION": 7,
						"NORMAL": 8,
						"TANGENT": 9,
						"TEXCOORD_0": 10,
						"TEXCOORD_1": 11
					},
					"indices": 6,
					"material": 1
				}
			]
		}
	],
	"nodes": [
		{
			"mesh": 0
		}
	],
	"samplers": [
		{
			"minFilter": 9987,
			"magFilter": 9729
		}
	],
	"scenes": [
		{
			"nodes": [ 0 ]
		}
	],
	"textures": [
		{
			"name": "MI_Wood_Trim_BaseColor",
			"sampler": 0,
			"source": 0
		},
		{
			"name": "MI_Wood_Trim_MetallicRoughness",
			"sampler": 0,
			"source": 1
		},
		{
			"name": "T_Wood_Trim_N",
			"sampler": 0,
			"source": 4
		},
		{
			"name": "MI_Wood_Trim_Occlusion",
			"sampler": 0,
			"source": 2
		},
		{
			"name": "T_Furniture_01_C",
			"sampler": 0,
			"source": 5
		},
		{
			"name": "MI_Furniture_01_MetallicRoughness",
			"sampler": 0,
			"source": 3
		},
		{
			"name": "T_Furniture_01_N",
			"sampler": 0,
			"source": 6
		},
		{
			"name": "T_Furniture_01_M",
			"sampler": 0,
			"source": 7
		}
	]
}