{
	"asset":
	{
		"version": "2.0",
		"generator": "Unreal Engine 5.6.1"
	},
	"scene": 0,
	"accessors": [
		{
			"bufferView": 0,
			"count": 654,
			"type": "SCALAR",
			"componentType": 5121
		},
		{
			"bufferView": 1,
			"count": 132,
			"type": "VEC3",
			"componentType": 5126,
			"min": [ -0.816814005, -0.443239152, -0.604217112 ],
			"max": [ 0.563597977, 0.301235378, 0.262368381 ]
		},
		{
			"bufferView": 2,
			"count": 132,
			"type": "VEC3",
			"componentType": 5126
		},
		{
			"bufferView": 3,
			"count": 132,
			"type": "VEC4",
			"componentType": 5126
		},
		{
			"bufferView": 4,
			"count": 132,
			"type": "VEC2",
			"componentType": 5126
		},
		{
			"bufferView": 5,
			"count": 132,
			"type": "VEC2",
			"componentType": 5126
		}
	],
	"buffers": [
		{
			"uri": "SM_Stone4.bin",
			"byteLength": 8048
		}
	],
	"bufferViews": [
		{
			"buffer": 0,
			"byteLength": 654,
			"target": 34963
		},
		{
			"buffer": 0,
			"byteLength": 1584,
			"byteOffset": 656,
			"target": 34962
		},
		{
			"buffer": 0,
			"byteLength": 1584,
			"byteOffset": 2240,
			"target": 34962
		},
		{
			"buffer": 0,
			"byteLength": 2112,
			"byteOffset": 3824,
			"target": 34962
		},
		{
			"buffer": 0,
			"byteLength": 1056,
			"byteOffset": 5936,
			"target": 34962
		},
		{
			"buffer": 0,
			"byteLength": 1056,
			"byteOffset": 6992,
			"target": 34962
		}
	],
	"images": [
		{
			"uri": "MI_Rocks_MetallicRoughness.png"
		},
		{
			"uri": "T_Rocks_C.png"
		},
		{
			"uri": "T_Rocks_N.png"
		},
		{
			"uri": "T_Rocks_M.png"
		}
	],
	"materials": [
		{
			"name": "MI_Rocks",
			"pbrMetallicRoughness":
			{
				"baseColorTexture":
				{
					"index": 0
				},
				"metallicRoughnessTexture":
				{
					"index": 1
				}
			},
			"normalTexture":
			{
				"index": 2
			},
			"occlusionTexture":
			{
				"index": 3
			}
		}
	],
	"meshes": [
		{
			"name": "SM_Stone4",
			"primitives": [
				{
					"attributes":
					{
						"POSITION": 1,
						"NORMAL": 2,
						"TANGENT": 3,
						"TEXCOORD_0": 4,
						"TEXCOORD_1": 5
					},
					"indices": 0,
					"material": 0
				}
			]
		}
	],
	"nodes": [
		{
			"mesh": 0
		}
	],
	"samplers": [
		{
			"minFilter": 9987,
			"magFilter": 9729
		}
	],
	"scenes": [
		{
			"nodes": [ 0 ]
		}
	],
	"textures": [
		{
			"name": "T_Rocks_C",
			"sampler": 0,
			"source": 1
		},
		{
			"name": "MI_Rocks_MetallicRoughness",
			"sampler": 0,
			"source": 0
		},
		{
			"name": "T_Rocks_N",
			"sampler": 0,
			"source": 2
		},
		{
			"name": "T_Rocks_M",
			"sampler": 0,
			"source": 3
		}
	]
}