{
	"asset":
	{
		"version": "2.0",
		"generator": "Unreal Engine 5.6.1"
	},
	"scene": 0,
	"accessors": [
		{
			"bufferView": 0,
			"count": 816,
			"type": "SCALAR",
			"componentType": 5121
		},
		{
			"bufferView": 1,
			"count": 240,
			"type": "VEC3",
			"componentType": 5126,
			"min": [ -0.522024512, 2.62526501e-10, -0.220269769 ],
			"max": [ 0.522024512, 1.59286988, 0.220269769 ]
		},
		{
			"bufferView": 2,
			"count": 240,
			"type": "VEC3",
			"componentType": 5126
		},
		{
			"bufferView": 3,
			"count": 240,
			"type": "VEC4",
			"componentType": 5126
		},
		{
			"bufferView": 4,
			"count": 240,
			"type": "VEC2",
			"componentType": 5126
		},
		{
			"bufferView": 5,
			"count": 240,
			"type": "VEC2",
			"componentType": 5126
		}
	],
	"buffers": [
		{
			"uri": "SM_grave_plate_02.bin",
			"byteLength": 14256
		}
	],
	"bufferViews": [
		{
			"buffer": 0,
			"byteLength": 816,
			"target": 34963
		},
		{
			"buffer": 0,
			"byteLength": 2880,
			"byteOffset": 816,
			"target": 34962
		},
		{
			"buffer": 0,
			"byteLength": 2880,
			"byteOffset": 3696,
			"target": 34962
		},
		{
			"buffer": 0,
			"byteLength": 3840,
			"byteOffset": 6576,
			"target": 34962
		},
		{
			"buffer": 0,
			"byteLength": 1920,
			"byteOffset": 10416,
			"target": 34962
		},
		{
			"buffer": 0,
			"byteLength": 1920,
			"byteOffset": 12336,
			"target": 34962
		}
	],
	"images": [
		{
			"uri": "MI_Grave_MetallicRoughness.png"
		},
		{
			"uri": "T_Grave_C.png"
		},
		{
			"uri": "T_Grave_N.png"
		},
		{
			"uri": "T_Grave_M.png"
		}
	],
	"materials": [
		{
			"name": "MI_Grave",
			"pbrMetallicRoughness":
			{
				"baseColorTexture":
				{
					"index": 0
				},
				"metallicRoughnessTexture":
				{
					"index": 1
				}
			},
			"normalTexture":
			{
				"index": 2
			},
			"occlusionTexture":
			{
				"index": 3
			}
		}
	],
	"meshes": [
		{
			"name": "SM_grave_plate_02",
			"primitives": [
				{
					"attributes":
					{
						"POSITION": 1,
						"NORMAL": 2,
						"TANGENT": 3,
						"TEXCOORD_0": 4,
						"TEXCOORD_1": 5
					},
					"indices": 0,
					"material": 0
				}
			]
		}
	],
	"nodes": [
		{
			"mesh": 0
		}
	],
	"samplers": [
		{
			"minFilter": 9987,
			"magFilter": 9729
		}
	],
	"scenes": [
		{
			"nodes": [ 0 ]
		}
	],
	"textures": [
		{
			"name": "T_Grave_C",
			"sampler": 0,
			"source": 1
		},
		{
			"name": "MI_Grave_MetallicRoughness",
			"sampler": 0,
			"source": 0
		},
		{
			"name": "T_Grave_N",
			"sampler": 0,
			"source": 2
		},
		{
			"name": "T_Grave_M",
			"sampler": 0,
			"source": 3
		}
	]
}