{
	"asset":
	{
		"version": "2.0",
		"generator": "Unreal Engine 5.6.1"
	},
	"scene": 0,
	"accessors": [
		{
			"bufferView": 0,
			"count": 288,
			"type": "SCALAR",
			"componentType": 5121
		},
		{
			"bufferView": 1,
			"count": 92,
			"type": "VEC3",
			"componentType": 5126,
			"min": [ -0.733665526, 9.98549687e-09, -1.25804412 ],
			"max": [ 0.733665526, 0.289114118, 1.25804412 ]
		},
		{
			"bufferView": 2,
			"count": 92,
			"type": "VEC3",
			"componentType": 5126
		},
		{
			"bufferView": 3,
			"count": 92,
			"type": "VEC4",
			"componentType": 5126
		},
		{
			"bufferView": 4,
			"count": 92,
			"type": "VEC2",
			"componentType": 5126
		},
		{
			"bufferView": 5,
			"count": 92,
			"type": "VEC2",
			"componentType": 5126
		}
	],
	"buffers": [
		{
			"uri": "SM_grave_stand_01.bin",
			"byteLength": 5440
		}
	],
	"bufferViews": [
		{
			"buffer": 0,
			"byteLength": 288,
			"target": 34963
		},
		{
			"buffer": 0,
			"byteLength": 1104,
			"byteOffset": 288,
			"target": 34962
		},
		{
			"buffer": 0,
			"byteLength": 1104,
			"byteOffset": 1392,
			"target": 34962
		},
		{
			"buffer": 0,
			"byteLength": 1472,
			"byteOffset": 2496,
			"target": 34962
		},
		{
			"buffer": 0,
			"byteLength": 736,
			"byteOffset": 3968,
			"target": 34962
		},
		{
			"buffer": 0,
			"byteLength": 736,
			"byteOffset": 4704,
			"target": 34962
		}
	],
	"images": [
		{
			"uri": "MI_Grave_MetallicRoughness.png"
		},
		{
			"uri": "T_Grave_C.png"
		},
		{
			"uri": "T_Grave_N.png"
		},
		{
			"uri": "T_Grave_M.png"
		}
	],
	"materials": [
		{
			"name": "MI_Grave",
			"pbrMetallicRoughness":
			{
				"baseColorTexture":
				{
					"index": 0
				},
				"metallicRoughnessTexture":
				{
					"index": 1
				}
			},
			"normalTexture":
			{
				"index": 2
			},
			"occlusionTexture":
			{
				"index": 3
			}
		}
	],
	"meshes": [
		{
			"name": "SM_grave_stand_01",
			"primitives": [
				{
					"attributes":
					{
						"POSITION": 1,
						"NORMAL": 2,
						"TANGENT": 3,
						"TEXCOORD_0": 4,
						"TEXCOORD_1": 5
					},
					"indices": 0,
					"material": 0
				}
			]
		}
	],
	"nodes": [
		{
			"mesh": 0
		}
	],
	"samplers": [
		{
			"minFilter": 9987,
			"magFilter": 9729
		}
	],
	"scenes": [
		{
			"nodes": [ 0 ]
		}
	],
	"textures": [
		{
			"name": "T_Grave_C",
			"sampler": 0,
			"source": 1
		},
		{
			"name": "MI_Grave_MetallicRoughness",
			"sampler": 0,
			"source": 0
		},
		{
			"name": "T_Grave_N",
			"sampler": 0,
			"source": 2
		},
		{
			"name": "T_Grave_M",
			"sampler": 0,
			"source": 3
		}
	]
}