{
	"asset":
	{
		"version": "2.0",
		"generator": "Unreal Engine 5.6.1"
	},
	"scene": 0,
	"accessors": [
		{
			"bufferView": 0,
			"count": 66,
			"type": "MAT4",
			"componentType": 5126
		},
		{
			"bufferView": 1,
			"count": 48954,
			"type": "SCALAR",
			"componentType": 5123
		},
		{
			"bufferView": 2,
			"count": 9918,
			"type": "VEC3",
			"componentType": 5126,
			"min": [ -0.515448451, -0.00336084515, -0.195743978 ],
			"max": [ 0.515448511, 1.82183349, 0.180825308 ]
		},
		{
			"bufferView": 3,
			"count": 9918,
			"type": "VEC3",
			"componentType": 5126
		},
		{
			"bufferView": 4,
			"count": 9918,
			"type": "VEC4",
			"componentType": 5126
		},
		{
			"bufferView": 5,
			"count": 9918,
			"type": "VEC2",
			"componentType": 5126
		},
		{
			"bufferView": 6,
			"count": 9918,
			"type": "VEC4",
			"componentType": 5121
		},
		{
			"bufferView": 7,
			"count": 9918,
			"type": "VEC4",
			"componentType": 5121,
			"normalized": true
		}
	],
	"buffers": [
		{
			"uri": "SK_MagicConstruct.bin",
			"byteLength": 657540
		}
	],
	"bufferViews": [
		{
			"buffer": 0,
			"byteLength": 4224
		},
		{
			"buffer": 0,
			"byteLength": 97908,
			"byteOffset": 4224,
			"target": 34963
		},
		{
			"buffer": 0,
			"byteLength": 119016,
			"byteOffset": 102132,
			"target": 34962
		},
		{
			"buffer": 0,
			"byteLength": 119016,
			"byteOffset": 221148,
			"target": 34962
		},
		{
			"buffer": 0,
			"byteLength": 158688,
			"byteOffset": 340164,
			"target": 34962
		},
		{
			"buffer": 0,
			"byteLength": 79344,
			"byteOffset": 498852,
			"target": 34962
		},
		{
			"buffer": 0,
			"byteLength": 39672,
			"byteOffset": 578196,
			"target": 34962
		},
		{
			"buffer": 0,
			"byteLength": 39672,
			"byteOffset": 617868,
			"target": 34962
		}
	],
	"images": [
		{
			"uri": "MI_MagicConstruct_Wh_BaseColor.png"
		},
		{
			"uri": "MI_MagicConstruct_Wh_MetallicRoughness.png"
		},
		{
			"uri": "MI_MagicConstruct_Wh_Emissive.png"
		},
		{
			"uri": "MI_MagicConstruct_Wh_Normal.png"
		},
		{
			"uri": "MI_MagicConstruct_Wh_Occlusion.png"
		},
		{
			"uri": "MI_MagicConstruct_Wh_Specular.png"
		}
	],
	"materials": [
		{
			"name": "MI_MagicConstruct_Wh",
			"pbrMetallicRoughness":
			{
				"baseColorTexture":
				{
					"index": 0
				},
				"metallicRoughnessTexture":
				{
					"index": 1
				}
			},
			"normalTexture":
			{
				"index": 3
			},
			"occlusionTexture":
			{
				"index": 4
			},
			"emissiveTexture":
			{
				"index": 2
			},
			"emissiveFactor": [ 0.321533203, 0.321533203, 0.321533203 ],
			"alphaMode": "MASK",
			"alphaCutoff": 0.333299994,
			"doubleSided": true,
			"extensions":
			{
				"KHR_materials_specular":
				{
					"specularTexture":
					{
						"index": 5
					}
				}
			}
		}
	],
	"meshes": [
		{
			"name": "SK_MagicConstruct",
			"primitives": [
				{
					"attributes":
					{
						"POSITION": 2,
						"NORMAL": 3,
						"TANGENT": 4,
						"TEXCOORD_0": 5,
						"JOINTS_0": 6,
						"WEIGHTS_0": 7
					},
					"indices": 1,
					"material": 0
				}
			]
		}
	],
	"nodes": [
		{
			"skin": 0,
			"mesh": 0,
			"children": [ 1 ]
		},
		{
			"name": "root",
			"children": [ 2, 60, 63 ]
		},
		{
			"name": "pelvis",
			"translation": [ 0, 1.0503937, 0.00283593917 ],
			"rotation": [ -0.00129197421, 0.00129197421, -0.707105577, -0.707105696 ],
			"children": [ 3, 50, 55 ]
		},
		{
			"name": "spine_01",
			"translation": [ 0.159035027, 1.91135765e-08, -0.000581136323 ],
			"rotation": [ -2.69684944e-25, 0.00306057511, -1.32357781e-23, -0.99999541 ],
			"children": [ 4 ]
		},
		{
			"name": "spine_02",
			"translation": [ 0.0900469944, 2.04647392e-08, -0.0185080934 ],
			"rotation": [ -1.5069411e-16, -0.0915204212, 1.38497001e-17, -0.995803177 ],
			"children": [ 5 ]
		},
		{
			"name": "spine_03",
			"translation": [ 0.0814100653, -7.82165391e-12, -0 ],
			"rotation": [ -7.61815411e-09, 0.0797817707, -6.0973343e-10, -0.996812463 ],
			"children": [ 6, 27, 48 ]
		},
		{
			"name": "clavicle_l",
			"translation": [ 0.0864506513, -0.093126826, 0.0634273589 ],
			"rotation": [ -0.313727766, -0.161838606, 0.636901259, -0.68537575 ],
			"children": [ 7 ]
		},
		{
			"name": "upperarm_l",
			"translation": [ 0.180674225, 8.80432126e-05, 0.000933475501 ],
			"rotation": [ -0.157478839, 0.246229067, 0.562208295, -0.773623645 ],
			"children": [ 8, 26 ]
		},
		{
			"name": "lowerarm_l",
			"translation": [ 0.256180555, 0.000566406234, 9.87815802e-05 ],
			"rotation": [ 0.027560344, 0.210151866, 0.0163762048, -0.977143109 ],
			"children": [ 9, 25 ]
		},
		{
			"name": "hand_l",
			"translation": [ 0.327335417, -0.000225982658, 0.000900592771 ],
			"rotation": [ 0.617895067, -0.0106532937, 0.0193719864, -0.785949707 ],
			"children": [ 10, 13, 16, 19, 22 ]
		},
		{
			"name": "index_01_l",
			"translation": [ 0.151373282, -0.0609743111, 0.00355041493 ],
			"rotation": [ 0.0560176931, -0.0416212194, 0.0716873705, -0.994982719 ],
			"children": [ 11 ]
		},
		{
			"name": "index_02_l",
			"translation": [ 0.115808867, -5.26618933e-05, 0.00273433677 ],
			"rotation": [ -0.0117602134, -0.186796606, -0.00389754586, -0.982320487 ],
			"children": [ 12 ]
		},
		{
			"name": "index_03_l",
			"translation": [ 0.0761754587, -0.00262403488, -0.00801063515 ],
			"rotation": [ -0.0120472023, -0.132639468, 0.00539420405, -0.991076469 ]
		},
		{
			"name": "middle_01_l",
			"translation": [ 0.148807451, -0.0177247804, -0.0113228606 ],
			"rotation": [ 0.0969194472, -0.00957281049, 0.0126178619, -0.995166302 ],
			"children": [ 14 ]
		},
		{
			"name": "middle_02_l",
			"translation": [ 0.11809627, -0.00159643171, -0.00731735211 ],
			"rotation": [ 0.0168988388, -0.28351, 0.0111813154, -0.958755195 ],
			"children": [ 15 ]
		},
		{
			"name": "middle_03_l",
			"translation": [ 0.0702244565, -0.00169887533, -0.00618864037 ],
			"rotation": [ 0.00948975794, -0.107969068, -0.022211872, -0.9938609 ]
		},
		{
			"name": "pinky_01_l",
			"translation": [ 0.149105981, 0.0583632253, -0.0421419516 ],
			"rotation": [ 0.147689119, -0.153628573, -0.0675915331, -0.97468853 ],
			"children": [ 17 ]
		},
		{
			"name": "pinky_02_l",
			"translation": [ 0.112464294, 0.000607557304, -0.000693855283 ],
			"rotation": [ -0.0036649215, -0.22402665, 0.0111698974, -0.9745121 ],
			"children": [ 18 ]
		},
		{
			"name": "pinky_03_l",
			"translation": [ 0.052422788, -0.00159692764, -0.00615110388 ],
			"rotation": [ -0.0119384136, -0.25916186, 0.03181969, -0.965235889 ]
		},
		{
			"name": "ring_01_l",
			"translation": [ 0.154364392, 0.0220717713, -0.034862671 ],
			"rotation": [ 0.0535971448, -0.0433497056, 0.00567988353, -0.997605085 ],
			"children": [ 20 ]
		},
		{
			"name": "ring_02_l",
			"translation": [ 0.113050379, 0.000806841825, -0.000111961359 ],
			"rotation": [ 0.114699282, -0.305676907, 0.00357529591, -0.945194662 ],
			"children": [ 21 ]
		},
		{
			"name": "ring_03_l",
			"translation": [ 0.0653599501, -0.000663146959, -0.0083974069 ],
			"rotation": [ -0.00768702663, -0.190931842, 0.0251081511, -0.981252015 ]
		},
		{
			"name": "thumb_01_l",
			"translation": [ 0.0457926169, -0.0529869273, -0.0221570581 ],
			"rotation": [ -0.632669032, 0.0547116213, 0.395495623, -0.663565934 ],
			"children": [ 23 ]
		},
		{
			"name": "thumb_02_l",
			"translation": [ 0.0868582129, 0.000164871206, -0.000442657474 ],
			"rotation": [ -0.0415698402, 0.110447787, 0.257938772, -0.958926916 ],
			"children": [ 24 ]
		},
		{
			"name": "thumb_03_l",
			"translation": [ 0.0510223769, 0.000364532461, 0.000618591323 ],
			"rotation": [ -0.190989986, 0.176871344, -0.00273396075, -0.965521574 ]
		},
		{
			"name": "lowerarm_twist_01_l",
			"translation": [ 0.140000001, 0, -1.90734859e-08 ]
		},
		{
			"name": "upperarm_twist_01_l",
			"translation": [ 0.00499984715, -1.42108544e-16, -3.81469718e-08 ]
		},
		{
			"name": "clavicle_r",
			"translation": [ 0.0864505023, 0.0931267887, 0.0634273589 ],
			"rotation": [ 0.636901498, -0.68537575, 0.313727468, 0.16183883 ],
			"children": [ 28 ]
		},
		{
			"name": "upperarm_r",
			"translation": [ -0.180674151, -8.69750947e-05, -0.000933761592 ],
			"rotation": [ -0.157479033, 0.246229246, 0.562208354, -0.773623466 ],
			"children": [ 29, 47 ]
		},
		{
			"name": "lowerarm_r",
			"translation": [ -0.256179124, -0.000566863979, -9.85336301e-05 ],
			"rotation": [ 0.0275603551, 0.210151866, 0.0163761564, -0.977143109 ],
			"children": [ 30, 46 ]
		},
		{
			"name": "hand_r",
			"translation": [ -0.327334881, 0.000225830066, -0.000900325773 ],
			"rotation": [ 0.617895067, -0.010653303, 0.0193719976, -0.785949707 ],
			"children": [ 31, 34, 37, 40, 43 ]
		},
		{
			"name": "index_01_r",
			"translation": [ -0.151373133, 0.0609743856, -0.00354927056 ],
			"rotation": [ 0.0560176969, -0.0416212454, 0.0716873929, -0.994982719 ],
			"children": [ 32 ]
		},
		{
			"name": "index_02_r",
			"translation": [ -0.115809321, 5.24139396e-05, -0.00273380266 ],
			"rotation": [ -0.0117601156, -0.18679662, -0.00389732164, -0.982320487 ],
			"children": [ 33 ]
		},
		{
			"name": "index_03_r",
			"translation": [ -0.0761751533, 0.00262388214, 0.00800929964 ],
			"rotation": [ -0.0120472061, -0.132639438, 0.00539419614, -0.991076469 ]
		},
		{
			"name": "middle_01_r",
			"translation": [ -0.148807213, 0.0177245997, 0.0113215633 ],
			"rotation": [ 0.0969192013, -0.00957284681, 0.0126178404, -0.995166242 ],
			"children": [ 35 ]
		},
		{
			"name": "middle_02_r",
			"translation": [ -0.118097037, 0.00159612647, 0.00731845852 ],
			"rotation": [ 0.0168985985, -0.28351, 0.0111813396, -0.958755195 ],
			"children": [ 36 ]
		},
		{
			"name": "middle_03_r",
			"translation": [ -0.070224762, 0.00169877999, 0.00618923176 ],
			"rotation": [ 0.00948975887, -0.107969053, -0.022211872, -0.9938609 ]
		},
		{
			"name": "pinky_01_r",
			"translation": [ -0.14910613, -0.0583631136, 0.0421431735 ],
			"rotation": [ 0.147689119, -0.153628573, -0.0675915331, -0.97468853 ],
			"children": [ 38 ]
		},
		{
			"name": "pinky_02_r",
			"translation": [ -0.112462997, -0.000607457128, 0.000691986061 ],
			"rotation": [ -0.00366503792, -0.224026754, 0.011169849, -0.9745121 ],
			"children": [ 39 ]
		},
		{
			"name": "pinky_03_r",
			"translation": [ -0.0524243899, 0.00159679411, 0.00615108479 ],
			"rotation": [ -0.0119384201, -0.25916186, 0.03181969, -0.965235889 ]
		},
		{
			"name": "ring_01_r",
			"translation": [ -0.154365912, -0.022071695, 0.0348647311 ],
			"rotation": [ 0.0535969101, -0.0433496423, 0.00567992777, -0.997605085 ],
			"children": [ 41 ]
		},
		{
			"name": "ring_02_r",
			"translation": [ -0.113049775, -0.00080689427, 0.000111541747 ],
			"rotation": [ 0.114699282, -0.305677027, 0.00357527286, -0.945194602 ],
			"children": [ 42 ]
		},
		{
			"name": "ring_03_r",
			"translation": [ -0.0653589591, 0.000663337705, 0.00839681644 ],
			"rotation": [ -0.00768702896, -0.190931857, 0.025108153, -0.981252015 ]
		},
		{
			"name": "thumb_01_r",
			"translation": [ -0.0457920842, 0.0529873446, 0.0221588127 ],
			"rotation": [ -0.632669091, 0.0547116622, 0.395495504, -0.663565934 ],
			"children": [ 44 ]
		},
		{
			"name": "thumb_02_r",
			"translation": [ -0.0868588239, -0.000165061952, 0.000443305966 ],
			"rotation": [ -0.0415698029, 0.110447578, 0.257938623, -0.958926976 ],
			"children": [ 45 ]
		},
		{
			"name": "thumb_03_r",
			"translation": [ -0.0510205813, -0.000364971143, -0.000619888306 ],
			"rotation": [ -0.190989912, 0.176871106, -0.00273398706, -0.965521634 ]
		},
		{
			"name": "lowerarm_twist_01_r",
			"translation": [ -0.140000001, -1.52587887e-07, -2.28881831e-07 ],
			"rotation": [ 0.117627181, -1.0660087e-08, 4.13762535e-09, -0.993057907 ]
		},
		{
			"name": "upperarm_twist_01_r",
			"translation": [ -0.00499984715, 0, 9.5367426e-08 ],
			"rotation": [ 0.173234895, 1.8476199e-17, -2.4931811e-17, -0.984880567 ]
		},
		{
			"name": "neck_01",
			"translation": [ 0.161693424, 1.94193142e-08, -0.0060252687 ],
			"rotation": [ -2.13956142e-09, 0.136103556, -2.93937125e-10, -0.990694702 ],
			"children": [ 49 ]
		},
		{
			"name": "head",
			"translation": [ 0.186345518, 2.25812347e-08, -0.00680541992 ],
			"rotation": [ 2.77293601e-24, -0.0402799696, -1.3357422e-23, -0.999188423 ]
		},
		{
			"name": "thigh_l",
			"translation": [ -0.0678769648, -0.123430148, -0.0192313921 ],
			"rotation": [ -0.0741747245, 0.0020538962, 0.025835678, -0.996908426 ],
			"children": [ 51, 54 ]
		},
		{
			"name": "calf_l",
			"translation": [ -0.388359904, -5.61237321e-05, -0.00088854786 ],
			"rotation": [ 0.049365785, 0.0633488744, 0.0127017777, -0.996688902 ],
			"children": [ 52, 53 ]
		},
		{
			"name": "calf_twist_01_l",
			"translation": [ -0.204767793, 4.76837148e-09, 1.7763568e-17 ],
			"rotation": [ -0.00280894549, 0.00761267403, -0.00193332508, -0.99996531 ]
		},
		{
			"name": "foot_l",
			"translation": [ -0.58442235, 0.000509843812, -0.00109236711 ],
			"rotation": [ 0.00341516058, -0.146605968, 0.0323484726, -0.988660097 ]
		},
		{
			"name": "thigh_twist_01_l",
			"translation": [ -0.220942378, 9.53674295e-09, -5.96046434e-10 ],
			"rotation": [ 0.0474436954, 0.000491156068, 2.14190259e-05, -0.998873889 ]
		},
		{
			"name": "thigh_r",
			"translation": [ -0.0678762048, 0.123429991, -0.0192313883 ],
			"rotation": [ 0.0258357786, -0.996908426, 0.0741747245, -0.00205396209 ],
			"children": [ 56, 59 ]
		},
		{
			"name": "calf_r",
			"translation": [ 0.388361692, 5.61714151e-05, 0.000888477545 ],
			"rotation": [ 0.049365785, 0.0633486435, 0.0127017582, -0.996688843 ],
			"children": [ 57, 58 ]
		},
		{
			"name": "calf_twist_01_r",
			"translation": [ 0.20476906, -8.881784e-18, -9.53674295e-09 ],
			"rotation": [ -0.00280727865, 0.00761243701, -0.00193378842, -0.99996531 ]
		},
		{
			"name": "foot_r",
			"translation": [ 0.584305465, -0.000517625769, 0.00109686854 ],
			"rotation": [ 0.00341515779, -0.146605745, 0.0323485248, -0.988660038 ]
		},
		{
			"name": "thigh_twist_01_r",
			"translation": [ 0.220942453, 1.43051144e-08, -3.57627861e-09 ],
			"rotation": [ 0.0474453531, 0.000491133309, 2.18961432e-05, -0.998873711 ]
		},
		{
			"name": "ik_foot_root",
			"children": [ 61, 62 ]
		},
		{
			"name": "ik_foot_l",
			"translation": [ 0.0506297871, 0.0176102761, -0.0944305584 ],
			"rotation": [ 0.0388957374, -0.0784127861, -0.651832283, -0.753294945 ]
		},
		{
			"name": "ik_foot_r",
			"translation": [ -0.0506323725, 0.0177256856, -0.0944195464 ],
			"rotation": [ -0.753294945, 0.651832223, -0.0784127936, -0.0388958417 ]
		},
		{
			"name": "ik_hand_root",
			"children": [ 64 ]
		},
		{
			"name": "ik_hand_gun",
			"translation": [ -0.413360953, 0.949415863, -0.0559689179 ],
			"rotation": [ -0.804931104, -0.582489848, 0.0916258097, -0.0663050488 ],
			"children": [ 65, 66 ]
		},
		{
			"name": "ik_hand_l",
			"translation": [ 0.251835704, 0.785285294, -0.0580858216 ],
			"rotation": [ -0.304620862, -0.949878812, 0.0702605322, -4.11119778e-08 ]
		},
		{
			"name": "ik_hand_r"
		}
	],
	"samplers": [
		{
			"minFilter": 9987,
			"magFilter": 9729
		}
	],
	"scenes": [
		{
			"nodes": [ 0 ]
		}
	],
	"skins": [
		{
			"name": "SK_MagicConstruct",
			"inverseBindMatrices": 0,
			"skeleton": 0,
			"joints": [ 1, 2, 3, 4, 5, 6, 7, 8, 9, 10, 11, 12, 13, 14, 15, 16, 17, 18, 19, 20, 21, 22, 23, 24, 25, 26, 27, 28, 29, 30, 31, 32, 33, 34, 35, 36, 37, 38, 39, 40, 41, 42, 43, 44, 45, 46, 47, 48, 49, 50, 51, 52, 53, 54, 55, 56, 57, 58, 59, 60, 61, 62, 63, 64, 65, 66 ]
		}
	],
	"textures": [
		{
			"name": "MI_MagicConstruct_Wh_BaseColor",
			"sampler": 0,
			"source": 0
		},
		{
			"name": "MI_MagicConstruct_Wh_MetallicRoughness",
			"sampler": 0,
			"source": 1
		},
		{
			"name": "MI_MagicConstruct_Wh_Emissive",
			"sampler": 0,
			"source": 2
		},
		{
			"name": "MI_MagicConstruct_Wh_Normal",
			"sampler": 0,
			"source": 3
		},
		{
			"name": "MI_MagicConstruct_Wh_Occlusion",
			"sampler": 0,
			"source": 4
		},
		{
			"name": "MI_MagicConstruct_Wh_Specular",
			"sampler": 0,
			"source": 5
		}
	],
	"extensionsUsed": [
		"KHR_materials_specular"
	]
}