{
	"asset":
	{
		"version": "2.0",
		"generator": "Unreal Engine 5.6.1"
	},
	"scene": 0,
	"accessors": [
		{
			"bufferView": 0,
			"count": 4128,
			"type": "SCALAR",
			"componentType": 5123
		},
		{
			"bufferView": 1,
			"count": 740,
			"type": "VEC3",
			"componentType": 5126,
			"min": [ -1.01057494, -0.0120980162, -1.05636978 ],
			"max": [ 1.0128392, 1.19142842, 1.06271315 ]
		},
		{
			"bufferView": 2,
			"count": 740,
			"type": "VEC3",
			"componentType": 5126
		},
		{
			"bufferView": 3,
			"count": 740,
			"type": "VEC4",
			"componentType": 5126
		},
		{
			"bufferView": 4,
			"count": 740,
			"type": "VEC2",
			"componentType": 5126
		},
		{
			"bufferView": 5,
			"count": 740,
			"type": "VEC2",
			"componentType": 5126
		}
	],
	"buffers": [
		{
			"uri": "SM_geyser_02.bin",
			"byteLength": 49696
		}
	],
	"bufferViews": [
		{
			"buffer": 0,
			"byteLength": 8256,
			"target": 34963
		},
		{
			"buffer": 0,
			"byteLength": 8880,
			"byteOffset": 8256,
			"target": 34962
		},
		{
			"buffer": 0,
			"byteLength": 8880,
			"byteOffset": 17136,
			"target": 34962
		},
		{
			"buffer": 0,
			"byteLength": 11840,
			"byteOffset": 26016,
			"target": 34962
		},
		{
			"buffer": 0,
			"byteLength": 5920,
			"byteOffset": 37856,
			"target": 34962
		},
		{
			"buffer": 0,
			"byteLength": 5920,
			"byteOffset": 43776,
			"target": 34962
		}
	],
	"images": [
		{
			"uri": "T_geyser_C.png"
		},
		{
			"uri": "T_geyser_M.png"
		},
		{
			"uri": "T_geyser_N.png"
		}
	],
	"materials": [
		{
			"name": "MI_geyser_01",
			"pbrMetallicRoughness":
			{
				"baseColorTexture":
				{
					"index": 0
				},
				"metallicRoughnessTexture":
				{
					"index": 1
				}
			},
			"normalTexture":
			{
				"index": 2
			},
			"occlusionTexture":
			{
				"index": 1
			}
		}
	],
	"meshes": [
		{
			"name": "SM_geyser_02",
			"primitives": [
				{
					"attributes":
					{
						"POSITION": 1,
						"NORMAL": 2,
						"TANGENT": 3,
						"TEXCOORD_0": 4,
						"TEXCOORD_1": 5
					},
					"indices": 0,
					"material": 0
				}
			]
		}
	],
	"nodes": [
		{
			"mesh": 0
		}
	],
	"samplers": [
		{
			"minFilter": 9987,
			"magFilter": 9729
		}
	],
	"scenes": [
		{
			"nodes": [ 0 ]
		}
	],
	"textures": [
		{
			"name": "T_geyser_C",
			"sampler": 0,
			"source": 0
		},
		{
			"name": "T_geyser_M",
			"sampler": 0,
			"source": 1
		},
		{
			"name": "T_geyser_N",
			"sampler": 0,
			"source": 2
		}
	]
}