{
	"asset":
	{
		"version": "2.0",
		"generator": "Unreal Engine 5.6.1"
	},
	"scene": 0,
	"accessors": [
		{
			"bufferView": 0,
			"count": 1056,
			"type": "SCALAR",
			"componentType": 5123
		},
		{
			"bufferView": 1,
			"count": 335,
			"type": "VEC3",
			"componentType": 5126,
			"min": [ -0.10187234, 6.2846226e-09, -0.0881325975 ],
			"max": [ 0.10187234, 0.319630325, 0.0881325826 ]
		},
		{
			"bufferView": 2,
			"count": 335,
			"type": "VEC3",
			"componentType": 5126
		},
		{
			"bufferView": 3,
			"count": 335,
			"type": "VEC4",
			"componentType": 5126
		},
		{
			"bufferView": 4,
			"count": 335,
			"type": "VEC2",
			"componentType": 5126
		},
		{
			"bufferView": 5,
			"count": 335,
			"type": "VEC2",
			"componentType": 5126
		},
		{
			"bufferView": 6,
			"count": 24,
			"type": "SCALAR",
			"componentType": 5121
		},
		{
			"bufferView": 7,
			"count": 16,
			"type": "VEC3",
			"componentType": 5126,
			"min": [ -0.0624792799, 0.0252004005, -0.076218769 ],
			"max": [ 0.0899592116, 0.198630825, 0.0762197375 ]
		},
		{
			"bufferView": 8,
			"count": 16,
			"type": "VEC3",
			"componentType": 5126
		},
		{
			"bufferView": 9,
			"count": 16,
			"type": "VEC4",
			"componentType": 5126
		},
		{
			"bufferView": 10,
			"count": 16,
			"type": "VEC2",
			"componentType": 5126
		},
		{
			"bufferView": 11,
			"count": 16,
			"type": "VEC2",
			"componentType": 5126
		}
	],
	"buffers": [
		{
			"uri": "SM_hand_lamp_04.bin",
			"byteLength": 21792
		}
	],
	"bufferViews": [
		{
			"buffer": 0,
			"byteLength": 2112,
			"target": 34963
		},
		{
			"buffer": 0,
			"byteLength": 4020,
			"byteOffset": 2112,
			"target": 34962
		},
		{
			"buffer": 0,
			"byteLength": 4020,
			"byteOffset": 6132,
			"target": 34962
		},
		{
			"buffer": 0,
			"byteLength": 5360,
			"byteOffset": 10152,
			"target": 34962
		},
		{
			"buffer": 0,
			"byteLength": 2680,
			"byteOffset": 15512,
			"target": 34962
		},
		{
			"buffer": 0,
			"byteLength": 2680,
			"byteOffset": 18192,
			"target": 34962
		},
		{
			"buffer": 0,
			"byteLength": 24,
			"byteOffset": 20872,
			"target": 34963
		},
		{
			"buffer": 0,
			"byteLength": 192,
			"byteOffset": 20896,
			"target": 34962
		},
		{
			"buffer": 0,
			"byteLength": 192,
			"byteOffset": 21088,
			"target": 34962
		},
		{
			"buffer": 0,
			"byteLength": 256,
			"byteOffset": 21280,
			"target": 34962
		},
		{
			"buffer": 0,
			"byteLength": 128,
			"byteOffset": 21536,
			"target": 34962
		},
		{
			"buffer": 0,
			"byteLength": 128,
			"byteOffset": 21664,
			"target": 34962
		}
	],
	"images": [
		{
			"uri": "MI_Props_MetallicRoughness.png"
		},
		{
			"uri": "T_Props_C.png"
		},
		{
			"uri": "T_Props_N.png"
		},
		{
			"uri": "T_Props_M.png"
		}
	],
	"materials": [
		{
			"name": "MI_Props",
			"pbrMetallicRoughness":
			{
				"baseColorTexture":
				{
					"index": 0
				},
				"metallicRoughnessTexture":
				{
					"index": 1
				}
			},
			"normalTexture":
			{
				"index": 2
			},
			"occlusionTexture":
			{
				"index": 3
			}
		},
		{
			"name": "MI_Light1",
			"pbrMetallicRoughness":
			{
				"baseColorFactor": [ 0, 0, 0, 1 ],
				"metallicFactor": 0,
				"roughnessFactor": 0.5
			},
			"emissiveFactor": [ 0.98046875, 0.699785531, 0.32297796 ]
		}
	],
	"meshes": [
		{
			"name": "SM_hand_lamp_04",
			"primitives": [
				{
					"attributes":
					{
						"POSITION": 1,
						"NORMAL": 2,
						"TANGENT": 3,
						"TEXCOORD_0": 4,
						"TEXCOORD_1": 5
					},
					"indices": 0,
					"material": 0
				},
				{
					"attributes":
					{
						"POSITION": 7,
						"NORMAL": 8,
						"TANGENT": 9,
						"TEXCOORD_0": 10,
						"TEXCOORD_1": 11
					},
					"indices": 6,
					"material": 1
				}
			]
		}
	],
	"nodes": [
		{
			"mesh": 0
		}
	],
	"samplers": [
		{
			"minFilter": 9987,
			"magFilter": 9729
		}
	],
	"scenes": [
		{
			"nodes": [ 0 ]
		}
	],
	"textures": [
		{
			"name": "T_Props_C",
			"sampler": 0,
			"source": 1
		},
		{
			"name": "MI_Props_MetallicRoughness",
			"sampler": 0,
			"source": 0
		},
		{
			"name": "T_Props_N",
			"sampler": 0,
			"source": 2
		},
		{
			"name": "T_Props_M",
			"sampler": 0,
			"source": 3
		}
	]
}