{
	"asset":
	{
		"version": "2.0",
		"generator": "Unreal Engine 5.6.1"
	},
	"scene": 0,
	"accessors": [
		{
			"bufferView": 0,
			"count": 2604,
			"type": "SCALAR",
			"componentType": 5123
		},
		{
			"bufferView": 1,
			"count": 1001,
			"type": "VEC3",
			"componentType": 5126,
			"min": [ -0.11527697, -1.04137996e-08, -0.0884812996 ],
			"max": [ 0.0884811282, 0.319630325, 0.0884786844 ]
		},
		{
			"bufferView": 2,
			"count": 1001,
			"type": "VEC3",
			"componentType": 5126
		},
		{
			"bufferView": 3,
			"count": 1001,
			"type": "VEC4",
			"componentType": 5126
		},
		{
			"bufferView": 4,
			"count": 1001,
			"type": "VEC2",
			"componentType": 5126
		},
		{
			"bufferView": 5,
			"count": 1001,
			"type": "VEC2",
			"componentType": 5126
		},
		{
			"bufferView": 6,
			"count": 216,
			"type": "SCALAR",
			"componentType": 5121
		},
		{
			"bufferView": 7,
			"count": 136,
			"type": "VEC3",
			"componentType": 5126,
			"min": [ -0.0816533193, 0.0104456693, -0.0816532969 ],
			"max": [ 0.0816533193, 0.211228788, 0.081653282 ]
		},
		{
			"bufferView": 8,
			"count": 136,
			"type": "VEC3",
			"componentType": 5126
		},
		{
			"bufferView": 9,
			"count": 136,
			"type": "VEC4",
			"componentType": 5126
		},
		{
			"bufferView": 10,
			"count": 136,
			"type": "VEC2",
			"componentType": 5126
		},
		{
			"bufferView": 11,
			"count": 136,
			"type": "VEC2",
			"componentType": 5126
		}
	],
	"buffers": [
		{
			"uri": "SM_hand_lamp_03.bin",
			"byteLength": 69096
		}
	],
	"bufferViews": [
		{
			"buffer": 0,
			"byteLength": 5208,
			"target": 34963
		},
		{
			"buffer": 0,
			"byteLength": 12012,
			"byteOffset": 5208,
			"target": 34962
		},
		{
			"buffer": 0,
			"byteLength": 12012,
			"byteOffset": 17220,
			"target": 34962
		},
		{
			"buffer": 0,
			"byteLength": 16016,
			"byteOffset": 29232,
			"target": 34962
		},
		{
			"buffer": 0,
			"byteLength": 8008,
			"byteOffset": 45248,
			"target": 34962
		},
		{
			"buffer": 0,
			"byteLength": 8008,
			"byteOffset": 53256,
			"target": 34962
		},
		{
			"buffer": 0,
			"byteLength": 216,
			"byteOffset": 61264,
			"target": 34963
		},
		{
			"buffer": 0,
			"byteLength": 1632,
			"byteOffset": 61480,
			"target": 34962
		},
		{
			"buffer": 0,
			"byteLength": 1632,
			"byteOffset": 63112,
			"target": 34962
		},
		{
			"buffer": 0,
			"byteLength": 2176,
			"byteOffset": 64744,
			"target": 34962
		},
		{
			"buffer": 0,
			"byteLength": 1088,
			"byteOffset": 66920,
			"target": 34962
		},
		{
			"buffer": 0,
			"byteLength": 1088,
			"byteOffset": 68008,
			"target": 34962
		}
	],
	"images": [
		{
			"uri": "MI_Props_MetallicRoughness.png"
		},
		{
			"uri": "T_Props_C.png"
		},
		{
			"uri": "T_Props_N.png"
		},
		{
			"uri": "T_Props_M.png"
		}
	],
	"materials": [
		{
			"name": "MI_Props",
			"pbrMetallicRoughness":
			{
				"baseColorTexture":
				{
					"index": 0
				},
				"metallicRoughnessTexture":
				{
					"index": 1
				}
			},
			"normalTexture":
			{
				"index": 2
			},
			"occlusionTexture":
			{
				"index": 3
			}
		},
		{
			"name": "MI_Light1",
			"pbrMetallicRoughness":
			{
				"baseColorFactor": [ 0, 0, 0, 1 ],
				"metallicFactor": 0,
				"roughnessFactor": 0.5
			},
			"emissiveFactor": [ 0.98046875, 0.699785531, 0.32297796 ]
		}
	],
	"meshes": [
		{
			"name": "SM_hand_lamp_03",
			"primitives": [
				{
					"attributes":
					{
						"POSITION": 1,
						"NORMAL": 2,
						"TANGENT": 3,
						"TEXCOORD_0": 4,
						"TEXCOORD_1": 5
					},
					"indices": 0,
					"material": 0
				},
				{
					"attributes":
					{
						"POSITION": 7,
						"NORMAL": 8,
						"TANGENT": 9,
						"TEXCOORD_0": 10,
						"TEXCOORD_1": 11
					},
					"indices": 6,
					"material": 1
				}
			]
		}
	],
	"nodes": [
		{
			"mesh": 0
		}
	],
	"samplers": [
		{
			"minFilter": 9987,
			"magFilter": 9729
		}
	],
	"scenes": [
		{
			"nodes": [ 0 ]
		}
	],
	"textures": [
		{
			"name": "T_Props_C",
			"sampler": 0,
			"source": 1
		},
		{
			"name": "MI_Props_MetallicRoughness",
			"sampler": 0,
			"source": 0
		},
		{
			"name": "T_Props_N",
			"sampler": 0,
			"source": 2
		},
		{
			"name": "T_Props_M",
			"sampler": 0,
			"source": 3
		}
	]
}