{
	"asset":
	{
		"version": "2.0",
		"generator": "Unreal Engine 5.6.1"
	},
	"scene": 0,
	"accessors": [
		{
			"bufferView": 0,
			"count": 288,
			"type": "SCALAR",
			"componentType": 5121
		},
		{
			"bufferView": 1,
			"count": 104,
			"type": "VEC3",
			"componentType": 5126,
			"min": [ -1.06901789, -8.92867683e-06, -0.967475176 ],
			"max": [ 0.852701426, 6.13808203, 0.878718495 ]
		},
		{
			"bufferView": 2,
			"count": 104,
			"type": "VEC3",
			"componentType": 5126
		},
		{
			"bufferView": 3,
			"count": 104,
			"type": "VEC4",
			"componentType": 5126
		},
		{
			"bufferView": 4,
			"count": 104,
			"type": "VEC2",
			"componentType": 5126
		},
		{
			"bufferView": 5,
			"count": 104,
			"type": "VEC2",
			"componentType": 5126
		},
		{
			"bufferView": 6,
			"count": 69,
			"type": "SCALAR",
			"componentType": 5121
		},
		{
			"bufferView": 7,
			"count": 39,
			"type": "VEC3",
			"componentType": 5126,
			"min": [ -1.07583511, -0.0118595231, -0.985213757 ],
			"max": [ 0.859676361, 6.14993811, 0.891235769 ]
		},
		{
			"bufferView": 8,
			"count": 39,
			"type": "VEC3",
			"componentType": 5126
		},
		{
			"bufferView": 9,
			"count": 39,
			"type": "VEC4",
			"componentType": 5126
		},
		{
			"bufferView": 10,
			"count": 39,
			"type": "VEC2",
			"componentType": 5126
		},
		{
			"bufferView": 11,
			"count": 39,
			"type": "VEC2",
			"componentType": 5126
		},
		{
			"bufferView": 12,
			"count": 1176,
			"type": "SCALAR",
			"componentType": 5123
		},
		{
			"bufferView": 13,
			"count": 476,
			"type": "VEC3",
			"componentType": 5126,
			"min": [ -1.15859926, 5.38051891, -0.99654907 ],
			"max": [ 0.889097869, 6.20759869, 0.998166323 ]
		},
		{
			"bufferView": 14,
			"count": 476,
			"type": "VEC3",
			"componentType": 5126
		},
		{
			"bufferView": 15,
			"count": 476,
			"type": "VEC4",
			"componentType": 5126
		},
		{
			"bufferView": 16,
			"count": 476,
			"type": "VEC2",
			"componentType": 5126
		},
		{
			"bufferView": 17,
			"count": 476,
			"type": "VEC2",
			"componentType": 5126
		}
	],
	"buffers": [
		{
			"uri": "SM_pier_01.bin",
			"byteLength": 37376
		}
	],
	"bufferViews": [
		{
			"buffer": 0,
			"byteLength": 288,
			"target": 34963
		},
		{
			"buffer": 0,
			"byteLength": 1248,
			"byteOffset": 288,
			"target": 34962
		},
		{
			"buffer": 0,
			"byteLength": 1248,
			"byteOffset": 1536,
			"target": 34962
		},
		{
			"buffer": 0,
			"byteLength": 1664,
			"byteOffset": 2784,
			"target": 34962
		},
		{
			"buffer": 0,
			"byteLength": 832,
			"byteOffset": 4448,
			"target": 34962
		},
		{
			"buffer": 0,
			"byteLength": 832,
			"byteOffset": 5280,
			"target": 34962
		},
		{
			"buffer": 0,
			"byteLength": 69,
			"byteOffset": 6112,
			"target": 34963
		},
		{
			"buffer": 0,
			"byteLength": 468,
			"byteOffset": 6184,
			"target": 34962
		},
		{
			"buffer": 0,
			"byteLength": 468,
			"byteOffset": 6652,
			"target": 34962
		},
		{
			"buffer": 0,
			"byteLength": 624,
			"byteOffset": 7120,
			"target": 34962
		},
		{
			"buffer": 0,
			"byteLength": 312,
			"byteOffset": 7744,
			"target": 34962
		},
		{
			"buffer": 0,
			"byteLength": 312,
			"byteOffset": 8056,
			"target": 34962
		},
		{
			"buffer": 0,
			"byteLength": 2352,
			"byteOffset": 8368,
			"target": 34963
		},
		{
			"buffer": 0,
			"byteLength": 5712,
			"byteOffset": 10720,
			"target": 34962
		},
		{
			"buffer": 0,
			"byteLength": 5712,
			"byteOffset": 16432,
			"target": 34962
		},
		{
			"buffer": 0,
			"byteLength": 7616,
			"byteOffset": 22144,
			"target": 34962
		},
		{
			"buffer": 0,
			"byteLength": 3808,
			"byteOffset": 29760,
			"target": 34962
		},
		{
			"buffer": 0,
			"byteLength": 3808,
			"byteOffset": 33568,
			"target": 34962
		}
	],
	"images": [
		{
			"uri": "MI_Atlas_01_MetallicRoughness.png"
		},
		{
			"uri": "MI_Log_props_01_MetallicRoughness.png"
		},
		{
			"uri": "MI_Furniture_01_MetallicRoughness.png"
		},
		{
			"uri": "T_Atlas_C.png"
		},
		{
			"uri": "T_Atlas_N.png"
		},
		{
			"uri": "T_Atlas_M.png"
		},
		{
			"uri": "T_Log_Props_C.png"
		},
		{
			"uri": "T_Log_Props_N.png"
		},
		{
			"uri": "T_Log_Props_M.png"
		},
		{
			"uri": "T_Furniture_01_C.png"
		},
		{
			"uri": "T_Furniture_01_N.png"
		},
		{
			"uri": "T_Furniture_01_M.png"
		}
	],
	"materials": [
		{
			"name": "MI_Atlas_01",
			"pbrMetallicRoughness":
			{
				"baseColorTexture":
				{
					"index": 0
				},
				"metallicRoughnessTexture":
				{
					"index": 1
				}
			},
			"normalTexture":
			{
				"index": 2
			},
			"occlusionTexture":
			{
				"index": 3
			}
		},
		{
			"name": "MI_Log_props_01",
			"pbrMetallicRoughness":
			{
				"baseColorTexture":
				{
					"index": 4
				},
				"metallicRoughnessTexture":
				{
					"index": 5
				}
			},
			"normalTexture":
			{
				"index": 6
			},
			"occlusionTexture":
			{
				"index": 7
			}
		},
		{
			"name": "MI_Furniture_01",
			"pbrMetallicRoughness":
			{
				"baseColorTexture":
				{
					"index": 8
				},
				"metallicRoughnessTexture":
				{
					"index": 9
				}
			},
			"normalTexture":
			{
				"index": 10
			},
			"occlusionTexture":
			{
				"index": 11
			}
		}
	],
	"meshes": [
		{
			"name": "SM_pier_01",
			"primitives": [
				{
					"attributes":
					{
						"POSITION": 1,
						"NORMAL": 2,
						"TANGENT": 3,
						"TEXCOORD_0": 4,
						"TEXCOORD_1": 5
					},
					"indices": 0,
					"material": 0
				},
				{
					"attributes":
					{
						"POSITION": 7,
						"NORMAL": 8,
						"TANGENT": 9,
						"TEXCOORD_0": 10,
						"TEXCOORD_1": 11
					},
					"indices": 6,
					"material": 1
				},
				{
					"attributes":
					{
						"POSITION": 13,
						"NORMAL": 14,
						"TANGENT": 15,
						"TEXCOORD_0": 16,
						"TEXCOORD_1": 17
					},
					"indices": 12,
					"material": 2
				}
			]
		}
	],
	"nodes": [
		{
			"mesh": 0
		}
	],
	"samplers": [
		{
			"minFilter": 9987,
			"magFilter": 9729
		}
	],
	"scenes": [
		{
			"nodes": [ 0 ]
		}
	],
	"textures": [
		{
			"name": "T_Atlas_C",
			"sampler": 0,
			"source": 3
		},
		{
			"name": "MI_Atlas_01_MetallicRoughness",
			"sampler": 0,
			"source": 0
		},
		{
			"name": "T_Atlas_N",
			"sampler": 0,
			"source": 4
		},
		{
			"name": "T_Atlas_M",
			"sampler": 0,
			"source": 5
		},
		{
			"name": "T_Log_Props_C",
			"sampler": 0,
			"source": 6
		},
		{
			"name": "MI_Log_props_01_MetallicRoughness",
			"sampler": 0,
			"source": 1
		},
		{
			"name": "T_Log_Props_N",
			"sampler": 0,
			"source": 7
		},
		{
			"name": "T_Log_Props_M",
			"sampler": 0,
			"source": 8
		},
		{
			"name": "T_Furniture_01_C",
			"sampler": 0,
			"source": 9
		},
		{
			"name": "MI_Furniture_01_MetallicRoughness",
			"sampler": 0,
			"source": 2
		},
		{
			"name": "T_Furniture_01_N",
			"sampler": 0,
			"source": 10
		},
		{
			"name": "T_Furniture_01_M",
			"sampler": 0,
			"source": 11
		}
	]
}