{
	"asset":
	{
		"version": "2.0",
		"generator": "Unreal Engine 5.6.1"
	},
	"scene": 0,
	"accessors": [
		{
			"bufferView": 0,
			"count": 19248,
			"type": "SCALAR",
			"componentType": 5123
		},
		{
			"bufferView": 1,
			"count": 3883,
			"type": "VEC3",
			"componentType": 5126,
			"min": [ -0.0326875597, -0.508935094, -0.106538571 ],
			"max": [ 0.0249170773, 0.488448322, 0.110223129 ]
		},
		{
			"bufferView": 2,
			"count": 3883,
			"type": "VEC3",
			"componentType": 5126
		},
		{
			"bufferView": 3,
			"count": 3883,
			"type": "VEC4",
			"componentType": 5126
		},
		{
			"bufferView": 4,
			"count": 3883,
			"type": "VEC2",
			"componentType": 5126
		},
		{
			"bufferView": 5,
			"count": 3883,
			"type": "VEC2",
			"componentType": 5126
		},
		{
			"bufferView": 6,
			"count": 3883,
			"type": "VEC2",
			"componentType": 5126
		},
		{
			"bufferView": 7,
			"count": 3883,
			"type": "VEC2",
			"componentType": 5126
		},
		{
			"bufferView": 8,
			"count": 3883,
			"type": "VEC2",
			"componentType": 5126
		}
	],
	"buffers": [
		{
			"uri": "SM_Weapon_Sword__10.bin",
			"byteLength": 349136
		}
	],
	"bufferViews": [
		{
			"buffer": 0,
			"byteLength": 38496,
			"target": 34963
		},
		{
			"buffer": 0,
			"byteLength": 46596,
			"byteOffset": 38496,
			"target": 34962
		},
		{
			"buffer": 0,
			"byteLength": 46596,
			"byteOffset": 85092,
			"target": 34962
		},
		{
			"buffer": 0,
			"byteLength": 62128,
			"byteOffset": 131688,
			"target": 34962
		},
		{
			"buffer": 0,
			"byteLength": 31064,
			"byteOffset": 193816,
			"target": 34962
		},
		{
			"buffer": 0,
			"byteLength": 31064,
			"byteOffset": 224880,
			"target": 34962
		},
		{
			"buffer": 0,
			"byteLength": 31064,
			"byteOffset": 255944,
			"target": 34962
		},
		{
			"buffer": 0,
			"byteLength": 31064,
			"byteOffset": 287008,
			"target": 34962
		},
		{
			"buffer": 0,
			"byteLength": 31064,
			"byteOffset": 318072,
			"target": 34962
		}
	],
	"images": [
		{
			"uri": "T_Weapon_Sword__10__rgb.png"
		},
		{
			"uri": "T_Weapon_Sword__10__normals.png"
		}
	],
	"materials": [
		{
			"name": "M_Weapon_Sword__10__rgb_Mat",
			"pbrMetallicRoughness":
			{
				"baseColorTexture":
				{
					"index": 0
				},
				"metallicFactor": 0,
				"roughnessFactor": 0.5
			},
			"normalTexture":
			{
				"index": 1
			}
		}
	],
	"meshes": [
		{
			"name": "SM_Weapon_Sword__10",
			"primitives": [
				{
					"attributes":
					{
						"POSITION": 1,
						"NORMAL": 2,
						"TANGENT": 3,
						"TEXCOORD_0": 4,
						"TEXCOORD_1": 5,
						"TEXCOORD_2": 6,
						"TEXCOORD_3": 7,
						"TEXCOORD_4": 8
					},
					"indices": 0,
					"material": 0
				}
			]
		}
	],
	"nodes": [
		{
			"mesh": 0
		}
	],
	"samplers": [
		{
			"minFilter": 9987,
			"magFilter": 9729
		}
	],
	"scenes": [
		{
			"nodes": [ 0 ]
		}
	],
	"textures": [
		{
			"name": "T_Weapon_Sword__10__rgb",
			"sampler": 0,
			"source": 0
		},
		{
			"name": "T_Weapon_Sword__10__normals",
			"sampler": 0,
			"source": 1
		}
	]
}