{
	"asset":
	{
		"version": "2.0",
		"generator": "Unreal Engine 5.6.1"
	},
	"scene": 0,
	"accessors": [
		{
			"bufferView": 0,
			"count": 33090,
			"type": "SCALAR",
			"componentType": 5123
		},
		{
			"bufferView": 1,
			"count": 7442,
			"type": "VEC3",
			"componentType": 5126,
			"min": [ -9.70297527, -1.35679972, -10.2777882 ],
			"max": [ 9.26134396, 20.3985939, 9.96334267 ]
		},
		{
			"bufferView": 2,
			"count": 7442,
			"type": "VEC3",
			"componentType": 5126
		},
		{
			"bufferView": 3,
			"count": 7442,
			"type": "VEC4",
			"componentType": 5126
		},
		{
			"bufferView": 4,
			"count": 7442,
			"type": "VEC2",
			"componentType": 5126
		},
		{
			"bufferView": 5,
			"count": 7442,
			"type": "VEC2",
			"componentType": 5126
		},
		{
			"bufferView": 6,
			"count": 7442,
			"type": "VEC2",
			"componentType": 5126
		},
		{
			"bufferView": 7,
			"count": 7442,
			"type": "VEC2",
			"componentType": 5126
		},
		{
			"bufferView": 8,
			"count": 7442,
			"type": "VEC2",
			"componentType": 5126
		},
		{
			"bufferView": 9,
			"count": 7442,
			"type": "VEC2",
			"componentType": 5126
		},
		{
			"bufferView": 10,
			"count": 7442,
			"type": "VEC2",
			"componentType": 5126
		},
		{
			"bufferView": 11,
			"count": 7442,
			"type": "VEC2",
			"componentType": 5126
		}
	],
	"buffers": [
		{
			"uri": "SM_Dead_Tree_01.bin",
			"byteLength": 840148
		}
	],
	"bufferViews": [
		{
			"buffer": 0,
			"byteLength": 66180,
			"target": 34963
		},
		{
			"buffer": 0,
			"byteLength": 89304,
			"byteOffset": 66180,
			"target": 34962
		},
		{
			"buffer": 0,
			"byteLength": 89304,
			"byteOffset": 155484,
			"target": 34962
		},
		{
			"buffer": 0,
			"byteLength": 119072,
			"byteOffset": 244788,
			"target": 34962
		},
		{
			"buffer": 0,
			"byteLength": 59536,
			"byteOffset": 363860,
			"target": 34962
		},
		{
			"buffer": 0,
			"byteLength": 59536,
			"byteOffset": 423396,
			"target": 34962
		},
		{
			"buffer": 0,
			"byteLength": 59536,
			"byteOffset": 482932,
			"target": 34962
		},
		{
			"buffer": 0,
			"byteLength": 59536,
			"byteOffset": 542468,
			"target": 34962
		},
		{
			"buffer": 0,
			"byteLength": 59536,
			"byteOffset": 602004,
			"target": 34962
		},
		{
			"buffer": 0,
			"byteLength": 59536,
			"byteOffset": 661540,
			"target": 34962
		},
		{
			"buffer": 0,
			"byteLength": 59536,
			"byteOffset": 721076,
			"target": 34962
		},
		{
			"buffer": 0,
			"byteLength": 59536,
			"byteOffset": 780612,
			"target": 34962
		}
	],
	"images": [
		{
			"uri": "MI_Tree_SM_Dead_Tree_01_BaseColor.png"
		},
		{
			"uri": "MI_Tree_SM_Dead_Tree_01_MetallicRoughness.png"
		},
		{
			"uri": "MI_Tree_SM_Dead_Tree_01_Normal.png"
		}
	],
	"materials": [
		{
			"name": "MI_Tree_SM_Dead_Tree_01",
			"pbrMetallicRoughness":
			{
				"baseColorTexture":
				{
					"index": 0,
					"texCoord": 1,
					"extensions":
					{
						"KHR_texture_transform":
						{
							"offset": [ -0.000788606354, -0.00867368095 ],
							"scale": [ 1.00966263, 1.00965965 ]
						}
					}
				},
				"metallicRoughnessTexture":
				{
					"index": 1,
					"texCoord": 1,
					"extensions":
					{
						"KHR_texture_transform":
						{
							"offset": [ -0.000788606354, -0.00867368095 ],
							"scale": [ 1.00966263, 1.00965965 ]
						}
					}
				}
			},
			"normalTexture":
			{
				"index": 2,
				"texCoord": 1,
				"extensions":
				{
					"KHR_texture_transform":
					{
						"offset": [ -0.000788606354, -0.00867368095 ],
						"scale": [ 1.00966263, 1.00965965 ]
					}
				}
			},
			"alphaMode": "MASK",
			"alphaCutoff": 0.333299994
		}
	],
	"meshes": [
		{
			"name": "SM_Dead_Tree_01",
			"primitives": [
				{
					"attributes":
					{
						"POSITION": 1,
						"NORMAL": 2,
						"TANGENT": 3,
						"TEXCOORD_0": 4,
						"TEXCOORD_1": 5,
						"TEXCOORD_2": 6,
						"TEXCOORD_3": 7,
						"TEXCOORD_4": 8,
						"TEXCOORD_5": 9,
						"TEXCOORD_6": 10,
						"TEXCOORD_7": 11
					},
					"indices": 0,
					"material": 0
				}
			]
		}
	],
	"nodes": [
		{
			"mesh": 0
		}
	],
	"samplers": [
		{
			"minFilter": 9987,
			"magFilter": 9729
		}
	],
	"scenes": [
		{
			"nodes": [ 0 ]
		}
	],
	"textures": [
		{
			"name": "MI_Tree_SM_Dead_Tree_01_BaseColor",
			"sampler": 0,
			"source": 0
		},
		{
			"name": "MI_Tree_SM_Dead_Tree_01_MetallicRoughness",
			"sampler": 0,
			"source": 1
		},
		{
			"name": "MI_Tree_SM_Dead_Tree_01_Normal",
			"sampler": 0,
			"source": 2
		}
	],
	"extensionsUsed": [
		"KHR_texture_transform"
	]
}